<svg width="207" height="519" viewBox="0 0 207 519" fill="none" xmlns="http://www.w3.org/2000/svg">
<rect x="19" y="76" width="168" height="42" fill="black"/>
<ellipse cx="102.62" cy="72" rx="84" ry="72" fill="black"/>
<circle cx="100.62" cy="90" r="54" fill="#CB9D8A"/>
<rect x="67.6204" y="36" width="70" height="30" fill="black"/>
<path d="M108.12 393.5C108.12 428.131 105.044 459.468 100.077 482.135C97.5931 493.472 94.6416 502.613 91.3806 508.908C89.7499 512.055 88.0542 514.467 86.3213 516.085C84.5909 517.701 82.8534 518.5 81.1204 518.5C79.3873 518.5 77.6498 517.701 75.9194 516.085C74.1865 514.467 72.4909 512.055 70.8601 508.908C67.5991 502.613 64.6476 493.472 62.1633 482.135C57.1966 459.468 54.1204 428.131 54.1204 393.5C54.1204 358.869 57.1966 327.532 62.1633 304.865C64.6476 293.528 67.5991 284.387 70.8601 278.092C72.4909 274.945 74.1865 272.533 75.9194 270.915C77.6498 269.299 79.3873 268.5 81.1204 268.5C82.8534 268.5 84.5909 269.299 86.3213 270.915C88.0542 272.533 89.7499 274.945 91.3806 278.092C94.6416 284.387 97.5931 293.528 100.077 304.865C105.044 327.532 108.12 358.869 108.12 393.5Z" fill="#CB9D8A" stroke="#A67D6B"/>
<path d="M89.447 244.201C80.5574 268.625 69.6266 289.668 59.1522 303.944C53.913 311.085 48.8052 316.509 44.1437 319.822C39.4669 323.146 35.3467 324.272 32.0126 323.058C28.6784 321.845 26.2461 318.334 24.7998 312.782C23.3582 307.248 22.9322 299.809 23.5088 290.971C24.6617 273.302 29.814 250.156 38.7036 225.732C47.5932 201.308 58.5239 180.266 68.9983 165.99C74.2376 158.849 79.3453 153.424 84.0068 150.112C88.6836 146.788 92.8038 145.662 96.1379 146.875C99.4721 148.089 101.904 151.6 103.351 157.152C104.792 162.686 105.218 170.125 104.642 178.963C103.489 196.632 98.3366 219.777 89.447 244.201Z" fill="#CB9D8A" stroke="#A67D6B"/>
<path d="M163.12 393.5C163.12 428.131 160.044 459.468 155.077 482.135C152.593 493.472 149.642 502.613 146.381 508.908C144.75 512.055 143.054 514.467 141.321 516.085C139.591 517.701 137.853 518.5 136.12 518.5C134.387 518.5 132.65 517.701 130.919 516.085C129.187 514.467 127.491 512.055 125.86 508.908C122.599 502.613 119.648 493.472 117.163 482.135C112.197 459.468 109.12 428.131 109.12 393.5C109.12 358.869 112.197 327.532 117.163 304.865C119.648 293.528 122.599 284.387 125.86 278.092C127.491 274.945 129.187 272.533 130.919 270.915C132.65 269.299 134.387 268.5 136.12 268.5C137.853 268.5 139.591 269.299 141.321 270.915C143.054 272.533 144.75 274.945 146.381 278.092C149.642 284.387 152.593 293.528 155.077 304.865C160.044 327.532 163.12 358.869 163.12 393.5Z" fill="#CB9D8A" stroke="#A67D6B"/>
<path d="M168.067 225.732C176.957 250.156 182.109 273.301 183.262 290.97C183.838 299.808 183.412 307.247 181.971 312.781C180.524 318.333 178.092 321.844 174.758 323.057C171.424 324.271 167.304 323.145 162.627 319.821C157.965 316.509 152.858 311.084 147.618 303.943C137.144 289.667 126.213 268.625 117.324 244.201C108.434 219.777 103.282 196.632 102.129 178.963C101.552 170.125 101.979 162.686 103.42 157.152C104.866 151.6 107.299 148.089 110.633 146.875C113.967 145.662 118.087 146.788 122.764 150.112C127.426 153.424 132.533 158.848 137.772 165.989C148.247 180.266 159.178 201.308 168.067 225.732Z" fill="#CB9D8A" stroke="#A67D6B"/>
<path d="M149.32 267.285C149.32 335.768 129.844 391.285 105.82 391.285C81.7957 391.285 62.3201 335.768 62.3201 267.285C62.3201 198.801 81.7957 143.285 105.82 143.285C129.844 143.285 149.32 198.801 149.32 267.285Z" fill="#CB9D8A"/>
<ellipse cx="8.5" cy="11" rx="8.5" ry="11" transform="matrix(-1 0 0 1 130.62 76)" fill="#D9D9D9"/>
<ellipse cx="4" cy="6" rx="4" ry="6" transform="matrix(-1 0 0 1 121.62 81)" fill="black"/>
<ellipse cx="8.5" cy="11" rx="8.5" ry="11" transform="matrix(-1 0 0 1 84.6204 76)" fill="#D9D9D9"/>
<ellipse cx="4" cy="6" rx="4" ry="6" transform="matrix(-1 0 0 1 75.6204 81)" fill="black"/>
<line x1="86.6204" y1="117.5" x2="117.62" y2="117.5" stroke="black"/>
<line x1="94.6204" y1="104.5" x2="105.62" y2="104.5" stroke="black"/>
<path d="M105.007 205.703C99.7947 220.023 92.2025 231.915 84.1639 239.571C76.1002 247.25 67.7172 250.558 60.8569 248.061C53.9966 245.564 49.7009 237.642 48.4601 226.576C47.2232 215.544 49.0513 201.554 54.2634 187.234C59.4755 172.914 67.0677 161.021 75.1063 153.366C83.17 145.686 91.553 142.378 98.4133 144.875C105.274 147.372 109.569 155.295 110.81 166.361C112.047 177.393 110.219 191.383 105.007 205.703Z" fill="#CB2F39" stroke="#A67D6B"/>
<rect x="52.5021" y="190.461" width="46" height="65.7915" transform="rotate(20 52.5021 190.461)" fill="#CB2F39"/>
<rect x="112" y="206.672" width="47.4679" height="71.3255" transform="rotate(-20 112 206.672)" fill="#CB2F39"/>
<path d="M165 267.461C165 335.944 140.376 391.461 110 391.461C79.6245 391.461 55.0001 335.944 55.0001 267.461C55.0001 198.978 79.6245 143.461 110 143.461C140.376 143.461 165 198.978 165 267.461Z" fill="#CB2F39"/>
<path d="M156.163 189.695C161.375 204.015 163.203 218.005 161.966 229.037C160.725 240.103 156.429 248.025 149.569 250.522C142.709 253.019 134.326 249.711 126.262 242.032C118.223 234.376 110.631 222.484 105.419 208.164C100.207 193.844 98.379 179.854 99.6159 168.822C100.857 157.756 105.152 149.834 112.013 147.337C118.873 144.84 127.256 148.147 135.32 155.827C143.358 163.483 150.951 175.375 156.163 189.695Z" fill="#CB2F39" stroke="#CB2F39"/>
<rect x="52.5" y="303.5" width="111" height="191" fill="#F2DDBE" stroke="#B19C7C"/>
<line x1="109.5" y1="349" x2="109.5" y2="495" stroke="#B19C7C"/>
<rect x="99" y="155" width="6" height="24" fill="#F2DDBE"/>
<rect x="94" y="167" width="6" height="16" transform="rotate(-90 94 167)" fill="#F2DDBE"/>
<rect x="49.0904" y="168.806" width="31" height="173.512" transform="rotate(-35.8694 49.0904 168.806)" fill="#F2DDBE" stroke="#B19C7C"/>
</svg>
