<svg width="215" height="536" viewBox="0 0 215 536" fill="none" xmlns="http://www.w3.org/2000/svg">
<g filter="url(#filter0_d_46_16634)">
<rect width="168" height="42" rx="21" transform="matrix(-1 0 0 1 189 83)" fill="black"/>
<rect width="132" height="42" rx="21" transform="matrix(-1 0 0 1 172 100)" fill="black"/>
<rect width="176" height="42" rx="21" transform="matrix(-1 0 0 1 195 31)" fill="black"/>
<rect width="101" height="42" rx="21" transform="matrix(-1 0 0 1 159 6)" fill="black"/>
<rect width="145" height="42" rx="21" transform="matrix(-1 0 0 1 179 15)" fill="black"/>
<rect width="47" height="42" rx="21" transform="matrix(-1 0 0 1 130 0)" fill="black"/>
<rect width="177" height="42" rx="21" transform="matrix(-1 0 0 1 196 55)" fill="black"/>
<ellipse cx="84" cy="72" rx="84" ry="72" transform="matrix(-1 0 0 1 189.38 7)" fill="black"/>
<ellipse cx="38.5" cy="12" rx="38.5" ry="12" transform="matrix(-1 0 0 1 144 42)" fill="black"/>
<rect width="168" height="42" rx="21" transform="matrix(-1 0 0 1 189 83)" fill="black"/>
<rect width="132" height="42" rx="21" transform="matrix(-1 0 0 1 172 100)" fill="black"/>
<rect width="176" height="42" rx="21" transform="matrix(-1 0 0 1 195 31)" fill="black"/>
<rect width="101" height="42" rx="21" transform="matrix(-1 0 0 1 159 6)" fill="black"/>
<rect width="145" height="42" rx="21" transform="matrix(-1 0 0 1 179 15)" fill="black"/>
<rect width="47" height="42" rx="21" transform="matrix(-1 0 0 1 130 0)" fill="black"/>
<rect width="177" height="42" rx="21" transform="matrix(-1 0 0 1 196 55)" fill="black"/>
<ellipse cx="84" cy="72" rx="84" ry="72" transform="matrix(-1 0 0 1 189.38 7)" fill="black"/>
<circle cx="54" cy="54" r="54" transform="matrix(-1 0 0 1 161.38 43)" fill="#DDBBAD"/>
<line y1="-0.5" x2="11" y2="-0.5" transform="matrix(-1 0 0 1 113.38 112)" stroke="black"/>
<line y1="-0.5" x2="31" y2="-0.5" transform="matrix(-1 0 0 1 121.38 125)" stroke="black"/>
<ellipse cx="8.5" cy="11" rx="8.5" ry="11" transform="matrix(-1 0 0 1 140.38 83)" fill="#D9D9D9"/>
<ellipse cx="4" cy="6" rx="4" ry="6" transform="matrix(-1 0 0 1 131.38 88)" fill="black"/>
<ellipse cx="8.5" cy="11" rx="8.5" ry="11" transform="matrix(-1 0 0 1 94.3796 83)" fill="#D9D9D9"/>
<ellipse cx="4" cy="6" rx="4" ry="6" transform="matrix(-1 0 0 1 85.3796 88)" fill="black"/>
<ellipse cx="38.5" cy="12" rx="38.5" ry="12" transform="matrix(-1 0 0 1 144 42)" fill="black"/>
<path d="M93.447 250.201C84.5574 274.625 73.6266 295.668 63.1522 309.944C57.913 317.085 52.8052 322.509 48.1437 325.822C43.4669 329.146 39.3467 330.272 36.0126 329.058C32.6784 327.845 30.2461 324.334 28.7998 318.782C27.3582 313.248 26.9321 305.809 27.5088 296.971C28.6617 279.302 33.814 256.156 42.7036 231.732C51.5932 207.308 62.5239 186.266 72.9983 171.99C78.2376 164.849 83.3453 159.424 88.0068 156.112C92.6836 152.788 96.8038 151.662 100.138 152.875C103.472 154.089 105.904 157.6 107.351 163.152C108.792 168.686 109.218 176.125 108.642 184.963C107.489 202.632 102.337 225.777 93.447 250.201Z" fill="#DDBBAD" stroke="#DDBBAD"/>
<path d="M172.067 231.732C180.957 256.156 186.109 279.301 187.262 296.97C187.838 305.808 187.412 313.247 185.971 318.781C184.524 324.333 182.092 327.844 178.758 329.057C175.424 330.271 171.304 329.145 166.627 325.821C161.965 322.509 156.858 317.084 151.618 309.943C141.144 295.667 130.213 274.625 121.324 250.201C112.434 225.777 107.282 202.632 106.129 184.963C105.552 176.125 105.979 168.686 107.42 163.152C108.866 157.6 111.299 154.089 114.633 152.875C117.967 151.662 122.087 152.788 126.764 156.112C131.426 159.424 136.533 164.848 141.772 171.989C152.247 186.266 163.178 207.308 172.067 231.732Z" fill="#DDBBAD" stroke="#DDBBAD"/>
<path d="M153.32 273.285C153.32 341.768 133.844 397.285 109.82 397.285C85.7957 397.285 66.3201 341.768 66.3201 273.285C66.3201 204.801 85.7957 149.285 109.82 149.285C133.844 149.285 153.32 204.801 153.32 273.285Z" fill="#DDBBAD"/>
<path d="M109.007 211.703C103.795 226.023 96.2025 237.915 88.1639 245.571C80.1002 253.25 71.7172 256.558 64.8569 254.061C57.9966 251.564 53.7009 243.642 52.4601 232.576C51.2232 221.544 53.0513 207.554 58.2634 193.234C63.4755 178.914 71.0677 167.021 79.1063 159.366C87.17 151.686 95.553 148.378 102.413 150.875C109.274 153.372 113.569 161.295 114.81 172.361C116.047 183.393 114.219 197.383 109.007 211.703Z" fill="#3645CD" stroke="#DDBBAD"/>
<rect x="62.2626" y="176.95" width="48.1801" height="86.0962" transform="rotate(20 62.2626 176.95)" fill="#3645CD"/>
<rect x="116" y="212.672" width="47.4679" height="71.3255" transform="rotate(-20 116 212.672)" fill="#3645CD"/>
<path d="M160.163 195.695C165.375 210.015 167.203 224.005 165.966 235.037C164.725 246.103 160.429 254.025 153.569 256.522C146.709 259.019 138.326 255.712 130.262 248.032C122.223 240.376 114.631 228.484 109.419 214.164C104.207 199.844 102.379 185.854 103.616 174.822C104.857 163.756 109.152 155.834 116.013 153.337C122.873 150.84 131.256 154.147 139.32 161.827C147.358 169.483 154.951 181.375 160.163 195.695Z" fill="#3645CD" stroke="#3645CD"/>
<path d="M113.572 405.368C119.071 436.556 121.017 465.309 119.726 486.579C119.081 497.218 117.626 505.957 115.417 512.185C113.193 518.456 110.274 521.993 106.826 522.601C103.379 523.209 99.4261 520.883 95.191 515.751C90.9851 510.654 86.6298 502.94 82.3841 493.163C73.8961 473.617 65.8912 445.933 60.3921 414.745C54.8929 383.558 52.9463 354.805 54.2373 333.535C54.8831 322.896 56.3374 314.157 58.5464 307.929C60.7707 301.658 63.6899 298.12 67.1373 297.512C70.5847 296.905 74.5377 299.23 78.7728 304.363C82.9787 309.459 87.334 317.174 91.5796 326.95C100.068 346.496 108.073 374.181 113.572 405.368Z" fill="#DDBBAD" stroke="#DDBBAD"/>
<path d="M169 273.461C169 341.945 144.376 397.461 114 397.461C83.6245 397.461 59.0001 341.945 59.0001 273.461C59.0001 204.978 83.6245 149.461 114 149.461C144.376 149.461 169 204.978 169 273.461Z" fill="#3645CD"/>
<line x1="94.5079" y1="503.911" x2="112.508" y2="403.911" stroke="#B19C7C"/>
<line x1="58.5" y1="310" x2="58.5" y2="305" stroke="#B19C7C"/>
<rect x="44.8697" y="352.816" width="61.6116" height="150.356" transform="rotate(-7.91407 44.8697 352.816)" fill="#F2DDBE" stroke="#B19C7C"/>
<path d="M144.27 424.957C134.6 451.526 122.961 474.511 111.973 490.193C106.476 498.038 101.159 504.031 96.35 507.736C91.5185 511.459 87.328 512.777 84.0125 511.57C80.6971 510.364 78.3345 506.66 77.0261 500.703C75.7238 494.774 75.503 486.765 76.3347 477.222C77.9976 458.145 83.8564 433.057 93.5265 406.488C103.197 379.92 114.835 356.935 125.824 341.252C131.32 333.408 136.638 327.414 141.446 323.71C146.278 319.987 150.468 318.669 153.784 319.875C157.099 321.082 159.462 324.786 160.77 330.743C162.072 336.672 162.293 344.681 161.462 354.224C159.799 373.301 153.94 398.389 144.27 424.957Z" fill="#DDBBAD" stroke="#DDBBAD"/>
<path d="M109.089 345.415L108.617 345.25L108.452 345.722L60.8344 482.142L60.6696 482.614L61.1417 482.779L120.256 503.413L120.728 503.578L120.893 503.106L168.51 366.685L168.675 366.213L168.203 366.049L109.089 345.415Z" fill="#F2DDBE" stroke="#B19C7C"/>
<mask id="path-40-inside-1_46_16634" fill="white">
<path d="M59 302H169V367H59V302Z"/>
</mask>
<path d="M59 302H169V367H59V302Z" fill="#F2DDBE"/>
<path d="M169 302H170V301H169V302ZM59 303H169V301H59V303ZM168 302V367H170V302H168Z" fill="#B19C7C" mask="url(#path-40-inside-1_46_16634)"/>
<path d="M59.4971 302.073L59.1524 355.104L44.431 352.92L59.4971 302.073Z" fill="#F2DDBE"/>
<line x1="44.5211" y1="352.856" x2="59.5211" y2="302.856" stroke="#B19C7C"/>
<rect x="53.0904" y="174.806" width="31" height="173.512" transform="rotate(-35.8694 53.0904 174.806)" fill="#F2DDBE" stroke="#B19C7C"/>
</g>
<defs>
<filter id="filter0_d_46_16634" x="0" y="0" width="215" height="536" filterUnits="userSpaceOnUse" color-interpolation-filters="sRGB">
<feFlood flood-opacity="0" result="BackgroundImageFix"/>
<feColorMatrix in="SourceAlpha" type="matrix" values="0 0 0 0 0 0 0 0 0 0 0 0 0 0 0 0 0 0 127 0" result="hardAlpha"/>
<feOffset dy="4"/>
<feGaussianBlur stdDeviation="2"/>
<feComposite in2="hardAlpha" operator="out"/>
<feColorMatrix type="matrix" values="0 0 0 0 0 0 0 0 0 0 0 0 0 0 0 0 0 0 0.25 0"/>
<feBlend mode="normal" in2="BackgroundImageFix" result="effect1_dropShadow_46_16634"/>
<feBlend mode="normal" in="SourceGraphic" in2="effect1_dropShadow_46_16634" result="shape"/>
</filter>
</defs>
</svg>
