<svg width="207" height="522" viewBox="0 0 207 522" fill="none" xmlns="http://www.w3.org/2000/svg">
<rect width="168" height="75.2697" transform="matrix(-1 0 0 1 185.15 76.2734)" fill="#C87426"/>
<ellipse cx="84" cy="72.2589" rx="84" ry="72.2589" transform="matrix(-1 0 0 1 185.15 0)" fill="#C87426"/>
<ellipse cx="54" cy="54.1942" rx="54" ry="54.1942" transform="matrix(-1 0 0 1 157.15 36.1294)" fill="#DDBBAD"/>
<ellipse cx="8.5" cy="11.0396" rx="8.5" ry="11.0396" transform="matrix(-1 0 0 1 90.1501 76.2734)" fill="#D9D9D9"/>
<ellipse cx="4" cy="6.02158" rx="4" ry="6.02158" transform="matrix(-1 0 0 1 81.1501 81.2915)" fill="black"/>
<ellipse cx="8.5" cy="11.0396" rx="8.5" ry="11.0396" transform="matrix(-1 0 0 1 136.15 76.2734)" fill="#D9D9D9"/>
<ellipse cx="4" cy="6.02158" rx="4" ry="6.02158" transform="matrix(-1 0 0 1 127.15 81.2915)" fill="black"/>
<line y1="-0.5" x2="31" y2="-0.5" transform="matrix(-1 0 0 1 119 119)" stroke="black"/>
<line y1="-0.5" x2="11" y2="-0.5" transform="matrix(-1 0 0 1 109.15 105.377)" stroke="black"/>
<ellipse cx="38.5" cy="12.0432" rx="38.5" ry="12.0432" transform="matrix(-1 0 0 1 141.15 34.1221)" fill="#C87426"/>
<path d="M98.6501 395.919C98.6501 430.674 101.726 462.125 106.693 484.873C109.178 496.251 112.129 505.425 115.39 511.743C117.021 514.902 118.717 517.322 120.45 518.946C122.18 520.568 123.918 521.37 125.65 521.37C127.383 521.37 129.12 520.568 130.85 518.946C132.583 517.322 134.279 514.902 135.91 511.743C139.171 505.425 142.123 496.251 144.607 484.873C149.574 462.125 152.65 430.674 152.65 395.919C152.65 361.163 149.574 329.713 144.607 306.964C142.123 295.586 139.171 286.412 135.91 280.095C134.279 276.935 132.583 274.515 130.85 272.891C129.12 271.269 127.383 270.467 125.65 270.467C123.918 270.467 122.18 271.269 120.45 272.891C118.717 274.515 117.021 276.935 115.39 280.095C112.129 286.412 109.178 295.586 106.693 306.964C101.726 329.713 98.6501 361.163 98.6501 395.919Z" fill="#DDBBAD" stroke="#DDBBAD"/>
<path d="M117.323 246.083C126.213 270.595 137.144 291.713 147.618 306.041C152.858 313.208 157.966 318.652 162.627 321.977C167.305 325.313 171.425 326.443 174.758 325.225C178.092 324.007 180.524 320.484 181.971 314.911C183.413 309.357 183.839 301.892 183.262 293.022C182.109 275.288 176.957 252.059 168.067 227.547C159.177 203.036 148.246 181.917 137.772 167.589C132.533 160.422 127.425 154.978 122.763 151.654C118.086 148.318 113.966 147.188 110.632 148.406C107.298 149.623 104.866 153.147 103.419 158.719C101.978 164.274 101.552 171.739 102.128 180.609C103.281 198.342 108.434 221.571 117.323 246.083Z" fill="#DDBBAD" stroke="#DDBBAD"/>
<path d="M43.6501 395.919C43.6501 430.674 46.7264 462.125 51.6932 484.873C54.1775 496.251 57.1291 505.425 60.3902 511.743C62.0211 514.902 63.7168 517.322 65.4499 518.946C67.1804 520.568 68.9177 521.37 70.6501 521.37C72.3826 521.37 74.1199 520.568 75.8504 518.946C77.5835 517.322 79.2792 514.902 80.9101 511.743C84.1712 505.425 87.1228 496.251 89.6071 484.873C94.5739 462.125 97.6501 430.674 97.6501 395.919C97.6501 361.163 94.5739 329.713 89.6071 306.964C87.1228 295.586 84.1712 286.412 80.9101 280.095C79.2792 276.935 77.5835 274.515 75.8504 272.891C74.1199 271.269 72.3826 270.467 70.6501 270.467C68.9177 270.467 67.1804 271.269 65.4499 272.891C63.7168 274.515 62.0211 276.935 60.3902 280.095C57.1291 286.412 54.1775 295.586 51.6932 306.964C46.7264 329.713 43.6501 361.163 43.6501 395.919Z" fill="#DDBBAD" stroke="#DDBBAD"/>
<path d="M38.7032 227.547C29.8135 252.059 24.6612 275.288 23.5083 293.021C22.9317 301.891 23.3578 309.356 24.7994 314.911C26.2459 320.483 28.6783 324.007 32.012 325.224C35.3456 326.442 39.4658 325.312 44.143 321.976C48.8047 318.652 53.9126 313.208 59.1519 306.041C69.6265 291.713 80.5573 270.595 89.447 246.083C98.3366 221.571 103.489 198.342 104.642 180.609C105.218 171.739 104.792 164.274 103.351 158.72C101.904 153.147 99.4718 149.623 96.1381 148.406C92.8045 147.188 88.6843 148.318 84.0071 151.654C79.3454 154.978 74.2375 160.422 68.9982 167.589C58.5236 181.917 47.5928 203.035 38.7032 227.547Z" fill="#DDBBAD" stroke="#DDBBAD"/>
<path d="M57.4504 269.25C57.4504 337.979 76.9261 393.696 100.95 393.696C124.975 393.696 144.45 337.979 144.45 269.25C144.45 200.52 124.975 144.804 100.95 144.804C76.9261 144.804 57.4504 200.52 57.4504 269.25Z" fill="#DDBBAD"/>
<path d="M102.157 207.446C96.945 221.818 89.3525 233.754 81.3136 241.437C73.2493 249.145 64.8662 252.464 58.0065 249.958C51.1467 247.453 46.8508 239.502 45.6099 228.395C44.3729 217.323 46.2012 203.283 51.4134 188.911C56.6256 174.539 64.218 162.603 72.2569 154.92C80.3212 147.212 88.7043 143.893 95.564 146.399C102.424 148.904 106.72 156.855 107.961 167.962C109.198 179.034 107.369 193.074 102.157 207.446Z" fill="#3645CD" stroke="#3645CD"/>
<rect width="46.0194" height="66.0005" transform="matrix(0.939297 0.343106 -0.340937 0.940086 49.6522 192.15)" fill="#3645CD"/>
<rect width="49.0818" height="71.552" transform="matrix(0.939297 -0.343106 0.340937 0.940086 109.15 208.419)" fill="#3645CD"/>
<path d="M162 268.964C162 337.694 135.361 393.41 102.5 393.41C69.6391 393.41 43 337.694 43 268.964C43 200.234 69.6391 144.518 102.5 144.518C135.361 144.518 162 200.234 162 268.964Z" fill="#3645CD"/>
<path d="M154.285 191.025C159.497 205.396 161.271 219.455 159.947 230.558C158.619 241.693 154.205 249.694 147.206 252.251C140.207 254.807 131.701 251.525 123.552 243.852C115.427 236.201 107.781 224.287 102.569 209.916C97.3573 195.545 95.5834 181.486 96.9076 170.383C98.2356 159.248 102.65 151.247 109.648 148.691C116.647 146.134 125.153 149.416 133.302 157.089C141.428 164.74 149.074 176.655 154.285 191.025Z" fill="#3645CD" stroke="#3645CD"/>
<rect x="42.5" y="299.575" width="119.77" height="191.683" fill="#F2DDBE" stroke="#B19C7C"/>
<line x1="96.5643" y1="349.251" x2="96.5643" y2="490.759" stroke="#B19C7C"/>
<rect x="0.696956" y="0.112016" width="31.0396" height="173.924" transform="matrix(0.809355 -0.58732 0.584558 0.811352 45.0674 175.809)" fill="#F2DDBE" stroke="#B19C7C"/>
</svg>
