<svg width="171" height="165" viewBox="0 0 171 165" fill="none" xmlns="http://www.w3.org/2000/svg">
<rect y="17.6367" width="171" height="127" fill="#C6AEA3"/>
<rect x="77.1963" y="110.488" width="32.9977" height="75.7524" rx="15" transform="rotate(-130.743 77.1963 110.488)" fill="#BD2D2D"/>
<path d="M45.4024 122.684C40.7805 124.945 36.1691 119.592 39.0889 115.355L63.301 80.2265C65.1602 77.529 69.068 77.3185 71.2062 79.8007L85.3206 96.1855C87.4587 98.6676 86.672 102.501 83.729 103.94L45.4024 122.684Z" fill="#BD2D2D"/>
<path d="M130.368 64.1577L123.744 48.3329L138.326 50.4228L130.368 64.1577Z" fill="#3F823E"/>
<path d="M123.595 49.0326L121.799 32.267L134.299 42.0548L123.595 49.0326Z" fill="#3F823E"/>
<path d="M115.738 61.1889L124.439 48.3891L127.62 68.6386L115.738 61.1889Z" fill="#3F823E"/>
<path d="M125.101 49.6511L112.273 49.1435L120.469 32.5579L125.101 49.6511Z" fill="#3F823E"/>
<rect x="124.641" y="47.7647" width="12.4295" height="2.87696" transform="rotate(-23.2895 124.641 47.7647)" fill="#3F823E" stroke="#396D38"/>
</svg>
