<svg width="134" height="131" viewBox="0 0 134 131" fill="none" xmlns="http://www.w3.org/2000/svg">
<rect width="23.1803" height="53.2927" rx="11.5902" transform="matrix(0.0106421 -0.999943 0.99999 0.00454813 49.0339 76.7276)" fill="#BD2D2D"/>
<path d="M32.0608 70.004C27.0954 68.6787 27.1706 61.61 32.1638 60.3301L53.9002 54.7582C57.0777 53.9437 60.149 56.3485 60.1141 59.6237L59.9934 70.9646C59.9586 74.2398 56.8364 76.6163 53.6765 75.773L32.0608 70.004Z" fill="#BD2D2D"/>
<path d="M98.651 76.6728L102.508 65.2308L109.238 73.0591L98.651 76.6728Z" fill="#3F823E"/>
<path d="M102.104 65.5329L108.948 55.8175L111 66.7671L102.104 65.5329Z" fill="#3F823E"/>
<path d="M92.304 68.3562L102.849 65.5809L95.1166 77.7817L92.304 68.3562Z" fill="#3F823E"/>
<path d="M102.612 66.555L96.0732 60.374L108.111 55.3591L102.612 66.555Z" fill="#3F823E"/>
<rect x="0.320346" y="0.628061" width="8.44448" height="1.72445" transform="matrix(0.951099 0.303915 -0.310406 0.952208 103.231 64.8342)" fill="#3F823E" stroke="#396D38"/>
</svg>
