<svg width="207" height="519" viewBox="0 0 207 519" fill="none" xmlns="http://www.w3.org/2000/svg">
<path d="M108.121 393.5C108.121 428.131 105.045 459.468 100.078 482.135C97.5935 493.472 94.6419 502.613 91.381 508.908C89.7502 512.055 88.0546 514.467 86.3217 516.085C84.5913 517.701 82.8538 518.5 81.1207 518.5C79.3877 518.5 77.6502 517.701 75.9198 516.085C74.1869 514.467 72.4912 512.055 70.8604 508.908C67.5995 502.613 64.648 493.472 62.1637 482.135C57.1969 459.468 54.1207 428.131 54.1207 393.5C54.1207 358.869 57.1969 327.532 62.1637 304.865C64.648 293.528 67.5995 284.387 70.8604 278.092C72.4912 274.945 74.1869 272.533 75.9198 270.915C77.6502 269.299 79.3877 268.5 81.1207 268.5C82.8538 268.5 84.5913 269.299 86.3217 270.915C88.0546 272.533 89.7502 274.945 91.381 278.092C94.6419 284.387 97.5935 293.528 100.078 304.865C105.045 327.532 108.121 358.869 108.121 393.5Z" fill="#DDBBAD" stroke="#DDBBAD"/>
<path d="M89.447 244.201C80.5574 268.625 69.6266 289.668 59.1522 303.944C53.913 311.085 48.8052 316.509 44.1437 319.822C39.4669 323.146 35.3467 324.272 32.0126 323.058C28.6784 321.845 26.2461 318.334 24.7998 312.782C23.3582 307.248 22.9322 299.809 23.5088 290.971C24.6617 273.302 29.814 250.156 38.7036 225.732C47.5932 201.308 58.5239 180.266 68.9983 165.99C74.2376 158.849 79.3453 153.424 84.0068 150.112C88.6836 146.788 92.8038 145.662 96.1379 146.875C99.4721 148.089 101.904 151.6 103.351 157.152C104.792 162.686 105.218 170.125 104.642 178.963C103.489 196.632 98.3366 219.777 89.447 244.201Z" fill="#DDBBAD" stroke="#DDBBAD"/>
<path d="M163.121 393.5C163.121 428.131 160.045 459.468 155.078 482.135C152.593 493.472 149.642 502.613 146.381 508.908C144.75 512.055 143.055 514.467 141.322 516.085C139.591 517.701 137.854 518.5 136.121 518.5C134.388 518.5 132.65 517.701 130.92 516.085C129.187 514.467 127.491 512.055 125.86 508.908C122.6 502.613 119.648 493.472 117.164 482.135C112.197 459.468 109.121 428.131 109.121 393.5C109.121 358.869 112.197 327.532 117.164 304.865C119.648 293.528 122.6 284.387 125.86 278.092C127.491 274.945 129.187 272.533 130.92 270.915C132.65 269.299 134.388 268.5 136.121 268.5C137.854 268.5 139.591 269.299 141.322 270.915C143.055 272.533 144.75 274.945 146.381 278.092C149.642 284.387 152.593 293.528 155.078 304.865C160.045 327.532 163.121 358.869 163.121 393.5Z" fill="#DDBBAD" stroke="#DDBBAD"/>
<path d="M168.068 225.732C176.957 250.156 182.109 273.301 183.262 290.97C183.839 299.808 183.413 307.247 181.971 312.781C180.525 318.333 178.092 321.844 174.758 323.057C171.424 324.271 167.304 323.145 162.627 319.821C157.966 316.509 152.858 311.084 147.619 303.943C137.144 289.667 126.214 268.625 117.324 244.201C108.435 219.777 103.282 196.632 102.129 178.963C101.553 170.125 101.979 162.686 103.421 157.152C104.867 151.6 107.299 148.089 110.633 146.875C113.967 145.662 118.088 146.788 122.764 150.112C127.426 153.424 132.534 158.848 137.773 165.989C148.247 180.266 159.178 201.308 168.068 225.732Z" fill="#DDBBAD" stroke="#DDBBAD"/>
<path d="M149.32 267.285C149.32 335.768 129.845 391.285 105.82 391.285C81.796 391.285 62.3204 335.768 62.3204 267.285C62.3204 198.801 81.796 143.285 105.82 143.285C129.845 143.285 149.32 198.801 149.32 267.285Z" fill="#DDBBAD"/>
<rect x="22.0001" y="74" width="161" height="42" fill="#DACD9F"/>
<rect x="32.0001" y="88" width="138" height="42" fill="#DACD9F"/>
<ellipse cx="102.621" cy="72" rx="84" ry="72" fill="#DACD9F"/>
<circle cx="100.621" cy="90" r="54" fill="#DDBBAD"/>
<rect x="67.6207" y="36" width="70" height="30" rx="15" fill="#DACD9F"/>
<ellipse cx="122.121" cy="87" rx="8.5" ry="11" fill="#D9D9D9"/>
<ellipse cx="126.621" cy="87" rx="4" ry="6" fill="black"/>
<ellipse cx="76.1207" cy="87" rx="8.5" ry="11" fill="#D9D9D9"/>
<ellipse cx="80.6207" cy="87" rx="4" ry="6" fill="black"/>
<line x1="86.6207" y1="117.5" x2="117.621" y2="117.5" stroke="black"/>
<line x1="94.6207" y1="104.5" x2="105.621" y2="104.5" stroke="black"/>
<path d="M104.007 205.703C98.7949 220.023 91.2027 231.915 83.164 239.571C75.1003 247.25 66.7173 250.558 59.857 248.061C52.9967 245.564 48.7011 237.642 47.4602 226.576C46.2233 215.544 48.0515 201.554 53.2635 187.234C58.4756 172.914 66.0678 161.021 74.1065 153.366C82.1701 145.686 90.5532 142.378 97.4135 144.875C104.274 147.372 108.569 155.295 109.81 166.361C111.047 177.393 109.219 191.383 104.007 205.703Z" fill="#3645CD" stroke="#3645CD"/>
<rect x="51.5022" y="190.461" width="46" height="65.7915" transform="rotate(20 51.5022 190.461)" fill="#3645CD"/>
<rect x="111" y="206.672" width="47.4679" height="71.3255" transform="rotate(-20 111 206.672)" fill="#3645CD"/>
<path d="M164 267.461C164 335.944 139.376 391.461 109 391.461C78.6245 391.461 54.0001 335.944 54.0001 267.461C54.0001 198.978 78.6245 143.461 109 143.461C139.376 143.461 164 198.978 164 267.461Z" fill="#3645CD"/>
<path d="M155.163 189.695C160.375 204.015 162.203 218.005 160.966 229.037C159.725 240.103 155.429 248.025 148.569 250.522C141.709 253.019 133.326 249.711 125.262 242.032C117.223 234.376 109.631 222.484 104.419 208.164C99.2071 193.844 97.379 179.854 98.6159 168.822C99.8567 157.756 104.152 149.833 111.013 147.337C117.873 144.84 126.256 148.147 134.32 155.827C142.358 163.482 149.951 175.375 155.163 189.695Z" fill="#3645CD" stroke="#3645CD"/>
<rect x="53.5001" y="291.5" width="111" height="191" fill="#F2DDBE" stroke="#B19C7C"/>
<line x1="109.5" y1="341" x2="109.5" y2="482" stroke="#B19C7C"/>
<rect x="54.6983" y="164.862" width="31" height="173.512" transform="rotate(-35.8694 54.6983 164.862)" fill="#F2DDBE" stroke="#B19C7C"/>
</svg>
