<svg width="95" height="50" viewBox="0 0 95 50" fill="none" xmlns="http://www.w3.org/2000/svg">
<path d="M29.9631 45.1924C30.9418 45.1924 31.7275 44.4015 32.3388 43.3535C32.9707 42.2701 33.5227 40.7356 33.9797 38.8831C34.8956 35.1704 35.4569 30.0675 35.4569 24.4494C35.4569 18.8312 34.8956 13.7284 33.9797 10.0156C33.5227 8.16313 32.9707 6.62865 32.3388 5.54522C31.7275 4.49718 30.9418 3.70633 29.9631 3.70633C28.9844 3.70633 28.1986 4.49718 27.5873 5.54522C26.9554 6.62865 26.4035 8.16313 25.9465 10.0156C25.0305 13.7284 24.4692 18.8312 24.4692 24.4494C24.4692 30.0675 25.0305 35.1704 25.9465 38.8831C26.4035 40.7356 26.9554 42.2701 27.5873 43.3535C28.1986 44.4015 28.9844 45.1924 29.9631 45.1924Z" fill="#D9D9D9" stroke="black"/>
<path d="M65.0415 29.6117L35.5883 42.1169C32.5853 43.392 29.2489 41.1301 29.3096 37.8604L29.8007 11.3958C29.8614 8.12608 33.2786 6.03234 36.2316 7.45562L65.1936 21.415C68.6872 23.0988 68.5943 28.1033 65.0415 29.6117Z" fill="#D9D9D9" stroke="black"/>
<path d="M6.9678 21.2125L24.687 9.11126C27.6489 7.08842 31.655 9.15321 31.71 12.731L32.0705 36.1957C32.1255 39.7734 28.1853 42.002 25.1631 40.1025L7.08343 28.739C4.34567 27.0182 4.28463 23.045 6.9678 21.2125Z" fill="#D9D9D9" stroke="black"/>
<path d="M88.3843 34.1981L71.4537 25.8152L87.5453 15.4501L88.3843 34.1981Z" fill="#D9D9D9" stroke="black"/>
<ellipse cx="22.2453" cy="17.6141" rx="2.26992" ry="2.89186" fill="#D9D9D9"/>
<path d="M24.0152 17.6141C24.0152 19.0546 23.1168 20.0059 22.2453 20.0059C21.3738 20.0059 20.4753 19.0546 20.4753 17.6141C20.4753 16.1735 21.3738 15.2222 22.2453 15.2222C23.1168 15.2222 24.0152 16.1735 24.0152 17.6141Z" stroke="black" stroke-opacity="0.95"/>
<line y1="-0.5" x2="10.0015" y2="-0.5" transform="matrix(0.998617 0.0525714 -0.0392166 0.999231 3.17798 25.238)" stroke="black"/>
<line y1="-0.5" x2="36.1198" y2="-0.5" transform="matrix(0.89239 0.451265 -0.352755 0.935716 32.2329 9.46426)" stroke="black"/>
<line y1="-0.5" x2="30.1674" y2="-0.5" transform="matrix(0.872834 0.488017 -0.384742 0.923024 32.2329 14.7222)" stroke="black"/>
<line y1="-0.5" x2="17.2588" y2="-0.5" transform="matrix(0.815441 0.57884 -0.46774 0.883866 34.9568 22.0833)" stroke="black"/>
<line y1="-0.5" x2="12.3731" y2="-0.5" transform="matrix(-0.770515 -0.637422 0.524931 -0.851145 44.4905 36.2797)" stroke="black"/>
<line y1="-0.5" x2="7.5713" y2="-0.5" transform="matrix(-0.719535 -0.694456 0.58405 -0.811718 40.4045 39.4344)" stroke="black"/>
</svg>
