<svg width="171" height="127" viewBox="0 0 171 127" fill="none" xmlns="http://www.w3.org/2000/svg">
<rect width="171" height="127" fill="#C6AEA3"/>
<ellipse cx="137.06" cy="64" rx="13.9402" ry="23" fill="#997F73"/>
<rect x="29.9404" y="41" width="107.853" height="46" fill="#997F73"/>
<path d="M43.3804 64C43.3804 70.2753 41.8378 75.9325 39.3698 80.0043C36.8964 84.0853 33.5476 86.5 29.9402 86.5C26.3329 86.5 22.9841 84.0853 20.5106 80.0043C18.0427 75.9325 16.5 70.2753 16.5 64C16.5 57.7247 18.0427 52.0675 20.5106 47.9957C22.9841 43.9147 26.3329 41.5 29.9402 41.5C33.5476 41.5 36.8964 43.9147 39.3698 47.9957C41.8378 52.0675 43.3804 57.7247 43.3804 64Z" fill="#997F73" stroke="#846658"/>
<path d="M39.7119 64.4509C39.7119 68.8543 38.5817 72.8172 36.7809 75.6636C34.9761 78.5163 32.545 80.1862 29.9402 80.1862C27.3354 80.1862 24.9043 78.5163 23.0995 75.6636C21.2987 72.8172 20.1685 68.8543 20.1685 64.4509C20.1685 60.0475 21.2987 56.0845 23.0995 53.2381C24.9043 50.3854 27.3354 48.7156 29.9402 48.7156C32.545 48.7156 34.9761 50.3854 36.7809 53.2381C38.5817 56.0845 39.7119 60.0475 39.7119 64.4509Z" fill="#C6AEA3" stroke="#846658"/>
<path d="M87.1685 65.3529C107.806 65.3529 128.753 66.2549 149.533 66.2549" stroke="#C6AEA3" stroke-width="3" stroke-linecap="round"/>
<path d="M52.6846 52.7254C61.3599 52.7254 71.1283 52.4625 79.6683 54.3289C86.2866 55.7753 93.6163 56.3333 100.375 56.3333" stroke="#C6AEA3" stroke-width="3" stroke-linecap="round"/>
<path d="M65.1577 75.2744C76.0273 75.2744 86.8968 75.2744 97.7664 75.2744C106.531 75.2744 116.189 77.0784 124.587 77.0784" stroke="#C6AEA3" stroke-width="3" stroke-linecap="round"/>
<path d="M112.114 50.9215C123.886 50.9215 135.082 51.8235 146.598 51.8235" stroke="#C6AEA3" stroke-width="3" stroke-linecap="round"/>
</svg>
