<svg width="207" height="519" viewBox="0 0 207 519" fill="none" xmlns="http://www.w3.org/2000/svg">
<g clip-path="url(#clip0_36_10028)">
<rect x="19" y="118" width="168" height="150" fill="black"/>
<ellipse cx="103" cy="132" rx="84" ry="132" fill="black"/>
<circle cx="101" cy="90" r="54" fill="#CB9D8A"/>
<rect x="68" y="36" width="70" height="30" fill="black"/>
<path d="M105.5 393.5C105.5 428.131 102.424 459.468 97.457 482.135C94.9728 493.472 92.0212 502.613 88.7603 508.908C87.1295 512.055 85.4339 514.467 83.7009 516.085C81.9705 517.701 80.2331 518.5 78.5 518.5C76.7669 518.5 75.0295 517.701 73.2991 516.085C71.5661 514.467 69.8705 512.055 68.2397 508.908C64.9788 502.613 62.0272 493.472 59.543 482.135C54.5762 459.468 51.5 428.131 51.5 393.5C51.5 358.869 54.5762 327.532 59.543 304.865C62.0272 293.528 64.9788 284.387 68.2397 278.092C69.8705 274.945 71.5661 272.533 73.2991 270.915C75.0295 269.299 76.7669 268.5 78.5 268.5C80.2331 268.5 81.9705 269.299 83.7009 270.915C85.4339 272.533 87.1295 274.945 88.7603 278.092C92.0212 284.387 94.9728 293.528 97.457 304.865C102.424 327.532 105.5 358.869 105.5 393.5Z" fill="#CB9D8A" stroke="#A67D6B"/>
<path d="M86.8266 244.201C77.937 268.625 67.0062 289.668 56.5318 303.944C51.2926 311.085 46.1849 316.509 41.5234 319.822C36.8466 323.146 32.7264 324.272 29.3922 323.058C26.0581 321.845 23.6258 318.334 22.1795 312.782C20.7379 307.248 20.3118 299.809 20.8885 290.971C22.0413 273.302 27.1936 250.156 36.0832 225.732C44.9728 201.308 55.9036 180.266 66.378 165.99C71.6172 158.849 76.7249 153.424 81.3864 150.112C86.0632 146.788 90.1834 145.662 93.5176 146.875C96.8517 148.089 99.284 151.6 100.73 157.152C102.172 162.686 102.598 170.125 102.021 178.963C100.868 196.632 95.7162 219.777 86.8266 244.201Z" fill="#CB9D8A" stroke="#A67D6B"/>
<path d="M160.5 393.5C160.5 428.131 157.424 459.468 152.457 482.135C149.973 493.472 147.021 502.613 143.76 508.908C142.129 512.055 140.434 514.467 138.701 516.085C136.971 517.701 135.233 518.5 133.5 518.5C131.767 518.5 130.029 517.701 128.299 516.085C126.566 514.467 124.871 512.055 123.24 508.908C119.979 502.613 117.027 493.472 114.543 482.135C109.576 459.468 106.5 428.131 106.5 393.5C106.5 358.869 109.576 327.532 114.543 304.865C117.027 293.528 119.979 284.387 123.24 278.092C124.871 274.945 126.566 272.533 128.299 270.915C130.029 269.299 131.767 268.5 133.5 268.5C135.233 268.5 136.971 269.299 138.701 270.915C140.434 272.533 142.129 274.945 143.76 278.092C147.021 284.387 149.973 293.528 152.457 304.865C157.424 327.532 160.5 358.869 160.5 393.5Z" fill="#CB9D8A" stroke="#A67D6B"/>
<path d="M165.447 225.732C174.336 250.156 179.489 273.301 180.641 290.97C181.218 299.808 180.792 307.247 179.35 312.781C177.904 318.333 175.472 321.844 172.138 323.058C168.803 324.271 164.683 323.145 160.006 319.821C155.345 316.509 150.237 311.084 144.998 303.943C134.524 289.667 123.593 268.625 114.703 244.201C105.814 219.777 100.662 196.632 99.5087 178.963C98.9321 170.125 99.3582 162.686 100.8 157.152C102.246 151.6 104.678 148.089 108.013 146.875C111.347 145.662 115.467 146.788 120.144 150.112C124.805 153.424 129.913 158.849 135.152 165.989C145.626 180.266 156.557 201.308 165.447 225.732Z" fill="#CB9D8A" stroke="#A67D6B"/>
<path d="M146.7 267.285C146.7 335.768 127.224 391.285 103.2 391.285C79.1753 391.285 59.6997 335.768 59.6997 267.285C59.6997 198.801 79.1753 143.285 103.2 143.285C127.224 143.285 146.7 198.801 146.7 267.285Z" fill="#CB9D8A"/>
<path d="M103.49 213.752L206.98 391H1.52588e-05L103.49 213.752Z" fill="#D9D9D9"/>
<rect x="65" y="207" width="77" height="68.6483" fill="#BD2D2D"/>
<ellipse cx="76.5" cy="90" rx="8.5" ry="11" fill="#D9D9D9"/>
<ellipse cx="81" cy="90" rx="4" ry="6" fill="black"/>
<ellipse cx="122.5" cy="90" rx="8.5" ry="11" fill="#D9D9D9"/>
<ellipse cx="127" cy="90" rx="4" ry="6" fill="black"/>
<line x1="87" y1="117.5" x2="118" y2="117.5" stroke="black"/>
<line x1="98" y1="104.5" x2="109" y2="104.5" stroke="black"/>
<ellipse cx="135.5" cy="111" rx="11.5" ry="10" fill="#E08F75" fill-opacity="0.34"/>
<ellipse cx="65.5" cy="111" rx="11.5" ry="10" fill="#E08F75" fill-opacity="0.34"/>
</g>
<defs>
<clipPath id="clip0_36_10028">
<rect width="207" height="519" fill="white"/>
</clipPath>
</defs>
</svg>
