<svg width="207" height="536" viewBox="0 0 207 536" fill="none" xmlns="http://www.w3.org/2000/svg">
<rect x="18" y="82.728" width="168" height="74.7314" fill="#C87426"/>
<ellipse cx="102" cy="78.7422" rx="84" ry="71.7422" fill="#C87426"/>
<ellipse cx="100" cy="96.6777" rx="54" ry="53.8066" fill="#DDBBAD"/>
<ellipse cx="121.5" cy="93.6886" rx="8.5" ry="10.9606" fill="#D9D9D9"/>
<ellipse cx="126" cy="93.6885" rx="4" ry="5.97851" fill="black"/>
<ellipse cx="75.5" cy="93.6886" rx="8.5" ry="10.9606" fill="#D9D9D9"/>
<ellipse cx="80" cy="93.6885" rx="4" ry="5.97851" fill="black"/>
<line x1="86" y1="124.078" x2="117" y2="124.078" stroke="black"/>
<line x1="94" y1="111.124" x2="105" y2="111.124" stroke="black"/>
<ellipse cx="100.5" cy="52.8354" rx="38.5" ry="11.957" fill="#C87426"/>
<path d="M117.324 250.327C126.213 274.663 137.144 295.63 147.618 309.855C152.857 316.97 157.965 322.375 162.626 325.675C167.302 328.987 171.423 330.109 174.757 328.9C178.092 327.69 180.524 324.192 181.97 318.66C183.412 313.146 183.838 305.734 183.261 296.928C182.108 279.323 176.956 256.26 168.067 231.924C159.177 207.588 148.247 186.621 137.772 172.396C132.533 165.281 127.426 159.876 122.764 156.575C118.088 153.264 113.968 152.141 110.633 153.351C107.298 154.56 104.866 158.059 103.42 163.591C101.979 169.105 101.552 176.516 102.129 185.322C103.282 202.928 108.434 225.99 117.324 250.327Z" fill="#DDBBAD" stroke="#DDBBAD"/>
<path d="M44.0603 394.419C38.0468 428.402 35.6346 459.684 36.5899 482.786C37.0677 494.341 38.3871 503.821 40.5053 510.561C41.5647 513.932 42.8158 516.591 44.2413 518.479C45.6647 520.364 47.2371 521.449 48.9444 521.749C50.6517 522.049 52.5017 521.565 54.4863 520.279C56.4737 518.991 58.5622 516.919 60.7147 514.112C65.0189 508.5 69.5128 500.041 73.928 489.346C82.7552 467.963 91.2263 437.745 97.2398 403.762C103.253 369.78 105.666 338.497 104.71 315.396C104.232 303.841 102.913 294.361 100.795 287.62C99.7355 284.249 98.4844 281.59 97.0589 279.702C95.6355 277.817 94.0631 276.732 92.3558 276.432C90.6485 276.132 88.7984 276.616 86.8139 277.902C84.8264 279.19 82.738 281.263 80.5855 284.07C76.2813 289.682 71.7874 298.141 67.3722 308.836C58.545 330.218 50.0739 360.437 44.0603 394.419Z" fill="#DDBBAD" stroke="#A67D6B"/>
<path d="M38.7036 231.923C29.8141 256.26 24.6619 279.322 23.5091 296.927C22.9324 305.734 23.3585 313.145 24.8001 318.659C26.2462 324.191 28.6784 327.69 32.0131 328.899C35.3477 330.108 39.468 328.986 44.1443 325.675C48.8056 322.374 53.9132 316.969 59.1523 309.854C69.6265 295.629 80.5571 274.662 89.4466 250.326C98.336 225.99 103.488 202.928 104.641 185.322C105.218 176.516 104.792 169.105 103.35 163.591C101.904 158.059 99.4717 154.56 96.137 153.351C92.8024 152.141 88.6821 153.264 84.0058 156.575C79.3445 159.876 74.237 165.28 68.9978 172.396C58.5237 186.621 47.593 207.587 38.7036 231.923Z" fill="#DDBBAD" stroke="#DDBBAD"/>
<path d="M57.4504 273.327C57.4504 341.565 76.9261 396.883 100.95 396.883C124.975 396.883 144.45 341.565 144.45 273.327C144.45 205.089 124.975 149.771 100.95 149.771C76.9261 149.771 57.4504 205.089 57.4504 273.327Z" fill="#DDBBAD"/>
<path d="M101.764 211.966C106.976 226.234 114.568 238.084 122.606 245.712C130.669 253.363 139.052 256.659 145.913 254.171C152.774 251.683 157.069 243.789 158.31 232.763C159.547 221.771 157.719 207.832 152.507 193.563C147.295 179.295 139.703 167.446 131.665 159.818C123.602 152.166 115.219 148.87 108.358 151.358C101.497 153.846 97.2015 161.741 95.9608 172.766C94.7239 183.758 96.552 197.698 101.764 211.966Z" fill="#3645CD" stroke="#DDBBAD"/>
<rect width="45.9808" height="65.5835" transform="matrix(-0.940086 0.340938 0.343105 0.939297 154.268 196.779)" fill="#3645CD"/>
<rect width="47.4481" height="71.1" transform="matrix(-0.940086 -0.340938 -0.343105 0.939297 94.7704 212.932)" fill="#3645CD"/>
<path d="M50.6081 196.016C45.3962 210.284 43.5681 224.224 44.805 235.216C46.0457 246.241 50.3411 254.135 57.2019 256.624C64.0628 259.112 72.4457 255.816 80.5088 248.164C88.5472 240.536 96.1392 228.687 101.351 214.419C106.563 200.15 108.391 186.211 107.154 175.219C105.913 164.193 101.618 156.299 94.7573 153.811C87.8964 151.322 79.5135 154.619 71.4504 162.27C63.412 169.898 55.82 181.747 50.6081 196.016Z" fill="#3645CD" stroke="#3645CD"/>
<path d="M100.279 408.292C112.123 440.718 125.732 469.012 138.151 488.542C144.363 498.311 150.263 505.864 155.48 510.646C158.089 513.037 160.507 514.717 162.688 515.642C164.867 516.565 166.773 516.721 168.402 516.13C170.031 515.54 171.39 514.199 172.464 512.096C173.539 509.991 174.307 507.155 174.763 503.652C175.674 496.648 175.322 487.083 173.778 475.621C170.693 452.706 162.866 422.315 151.022 389.89C139.177 357.464 125.569 329.17 113.149 309.64C106.937 299.871 101.037 292.318 95.8204 287.536C93.2114 285.145 90.7935 283.465 88.6118 282.54C86.4332 281.617 84.527 281.461 82.8981 282.051C81.2692 282.642 79.9098 283.983 78.8365 286.085C77.7617 288.191 76.993 291.026 76.5372 294.529C75.6258 301.534 75.9786 311.099 77.5218 322.561C80.6069 345.476 88.4342 375.867 100.279 408.292Z" fill="#DDBBAD" stroke="#A67D6B"/>
<path d="M41.7704 273.504C41.7704 341.742 66.3947 397.06 96.7704 397.06C127.146 397.06 151.77 341.742 151.77 273.504C151.77 205.266 127.146 149.948 96.7704 149.948C66.3947 149.948 41.7704 205.266 41.7704 273.504Z" fill="#3645CD"/>
<rect width="69.4118" height="189.34" transform="matrix(-0.984914 0.173045 0.174253 0.984701 150.753 304.64)" fill="#F2DDBE"/>
<mask id="path-22-inside-1_48_17402" fill="white">
<path d="M111.952 326.724L51.3626 316.078L18.3695 502.522L78.9591 513.167L111.952 326.724Z"/>
</mask>
<path d="M111.952 326.724L51.3626 316.078L18.3695 502.522L78.9591 513.167L111.952 326.724Z" fill="#F2DDBE"/>
<path d="M18.3695 502.522L18.1952 503.506L17.2103 503.333L17.3846 502.349L18.3695 502.522ZM52.3476 316.251L19.3544 502.695L17.3846 502.349L50.3777 315.905L52.3476 316.251ZM18.5437 501.537L79.1334 512.182L78.7849 514.152L18.1952 503.506L18.5437 501.537Z" fill="#B19C7C" mask="url(#path-22-inside-1_48_17402)"/>
<mask id="path-24-inside-2_48_17402" fill="white">
<path d="M151.771 304.929H41.7705V369.696H151.771V304.929Z"/>
</mask>
<path d="M151.771 304.929H41.7705V369.696H151.771V304.929Z" fill="#F2DDBE"/>
<path d="M42.7705 304.929V369.696H40.7705V304.929H42.7705Z" fill="#B19C7C" mask="url(#path-24-inside-2_48_17402)"/>
<line y1="-0.5" x2="164.004" y2="-0.5" transform="matrix(-0.176825 0.984242 0.984462 0.1756 107.771 351.761)" stroke="#B19C7C"/>
<line y1="-0.5" x2="101.255" y2="-0.5" transform="matrix(-0.17777 -0.984072 -0.984294 0.176538 115.771 503.217)" stroke="#B19C7C"/>
<line y1="-0.5" x2="184.15" y2="-0.5" transform="matrix(-0.173772 -0.984786 -0.984998 0.172566 183.771 491.26)" stroke="#B19C7C"/>
<line y1="-0.5" x2="4.98209" y2="-0.5" transform="matrix(0 -1 -1 0 151.771 309.911)" stroke="#B19C7C"/>
<line y1="-0.5" x2="111" y2="-0.5" transform="matrix(-1 0 0 1 152.771 304.929)" stroke="#B19C7C"/>
<line y1="-0.5" x2="69.0433" y2="-0.5" transform="matrix(-0.98489 0.173182 0.174391 0.984676 184.771 491.26)" stroke="#B19C7C"/>
<rect x="0.699335" y="0.112398" width="30.9607" height="173.101" transform="matrix(0.811351 -0.584559 0.587319 0.809355 38.0659 186.537)" fill="#F2DDBE" stroke="#B19C7C"/>
</svg>
