<svg width="207" height="519" viewBox="0 0 207 519" fill="none" xmlns="http://www.w3.org/2000/svg">
<path d="M98.6501 393.5C98.6501 428.131 101.726 459.468 106.693 482.135C109.177 493.472 112.129 502.613 115.39 508.908C117.021 512.055 118.716 514.467 120.449 516.085C122.18 517.701 123.917 518.5 125.65 518.5C127.383 518.5 129.121 517.701 130.851 516.085C132.584 514.467 134.28 512.055 135.91 508.908C139.171 502.613 142.123 493.472 144.607 482.135C149.574 459.468 152.65 428.131 152.65 393.5C152.65 358.869 149.574 327.532 144.607 304.865C142.123 293.528 139.171 284.387 135.91 278.092C134.28 274.945 132.584 272.533 130.851 270.915C129.121 269.299 127.383 268.5 125.65 268.5C123.917 268.5 122.18 269.299 120.449 270.915C118.716 272.533 117.021 274.945 115.39 278.092C112.129 284.387 109.177 293.528 106.693 304.865C101.726 327.532 98.6501 358.869 98.6501 393.5Z" fill="#DDBBAD" stroke="#A67D6B"/>
<path d="M117.324 244.201C126.213 268.625 137.144 289.668 147.619 303.944C152.858 311.085 157.966 316.509 162.627 319.822C167.304 323.146 171.424 324.272 174.758 323.058C178.092 321.845 180.525 318.334 181.971 312.782C183.413 307.248 183.839 299.809 183.262 290.971C182.109 273.302 176.957 250.156 168.067 225.732C159.178 201.308 148.247 180.266 137.773 165.99C132.533 158.849 127.426 153.424 122.764 150.112C118.087 146.788 113.967 145.662 110.633 146.875C107.299 148.089 104.866 151.6 103.42 157.152C101.979 162.686 101.552 170.125 102.129 178.963C103.282 196.632 108.434 219.777 117.324 244.201Z" fill="#DDBBAD" stroke="#DDBBAD"/>
<path d="M43.6501 393.5C43.6501 428.131 46.7264 459.468 51.6931 482.135C54.1774 493.472 57.1289 502.613 60.3899 508.908C62.0207 512.055 63.7163 514.467 65.4492 516.085C67.1796 517.701 68.9171 518.5 70.6501 518.5C72.3832 518.5 74.1207 517.701 75.8511 516.085C77.584 514.467 79.2796 512.055 80.9104 508.908C84.1714 502.613 87.1229 493.472 89.6072 482.135C94.5739 459.468 97.6501 428.131 97.6501 393.5C97.6501 358.869 94.5739 327.532 89.6072 304.865C87.1229 293.528 84.1714 284.387 80.9104 278.092C79.2796 274.945 77.584 272.533 75.8511 270.915C74.1207 269.299 72.3832 268.5 70.6501 268.5C68.9171 268.5 67.1796 269.299 65.4492 270.915C63.7163 272.533 62.0207 274.945 60.3899 278.092C57.1289 284.387 54.1774 293.528 51.6931 304.865C46.7264 327.532 43.6501 358.869 43.6501 393.5Z" fill="#DDBBAD" stroke="#A67D6B"/>
<path d="M38.7034 225.732C29.8138 250.156 24.6616 273.301 23.5087 290.97C22.9321 299.808 23.3582 307.247 24.7998 312.781C26.2461 318.333 28.6784 321.844 32.0125 323.057C35.3467 324.271 39.4669 323.145 44.1437 319.821C48.8052 316.509 53.9129 311.084 59.1521 303.943C69.6265 289.667 80.5572 268.625 89.4468 244.201C98.3363 219.777 103.489 196.632 104.641 178.963C105.218 170.125 104.792 162.686 103.35 157.152C101.904 151.6 99.4717 148.089 96.1376 146.875C92.8034 145.662 88.6832 146.788 84.0065 150.112C79.345 153.424 74.2372 158.848 68.998 165.989C58.5236 180.266 47.5929 201.308 38.7034 225.732Z" fill="#DDBBAD" stroke="#DDBBAD"/>
<path d="M57.4504 267.285C57.4504 335.768 76.9261 391.285 100.95 391.285C124.975 391.285 144.45 335.768 144.45 267.285C144.45 198.801 124.975 143.285 100.95 143.285C76.9261 143.285 57.4504 198.801 57.4504 267.285Z" fill="#DDBBAD"/>
<rect width="161" height="42" transform="matrix(-1 0 0 1 184.771 74)" fill="#DACD9F"/>
<rect width="138" height="42" transform="matrix(-1 0 0 1 174.771 88)" fill="#DACD9F"/>
<ellipse cx="84" cy="72" rx="84" ry="72" transform="matrix(-1 0 0 1 188.15 0)" fill="#DACD9F"/>
<circle cx="54" cy="54" r="54" transform="matrix(-1 0 0 1 160.15 36)" fill="#DDBBAD"/>
<rect width="70" height="30" rx="15" transform="matrix(-1 0 0 1 139.15 36)" fill="#DACD9F"/>
<ellipse cx="8.5" cy="11" rx="8.5" ry="11" transform="matrix(-1 0 0 1 93.1501 76)" fill="#F28686" fill-opacity="0.71"/>
<ellipse cx="4" cy="6" rx="4" ry="6" transform="matrix(-1 0 0 1 84.1501 81)" fill="black"/>
<ellipse cx="8.5" cy="11" rx="8.5" ry="11" transform="matrix(-1 0 0 1 139.15 76)" fill="#F28686" fill-opacity="0.71"/>
<ellipse cx="4" cy="6" rx="4" ry="6" transform="matrix(-1 0 0 1 130.15 81)" fill="black"/>
<line y1="-0.5" x2="31" y2="-0.5" transform="matrix(-1 0 0 1 120.15 118)" stroke="black"/>
<line y1="-0.5" x2="11" y2="-0.5" transform="matrix(-1 0 0 1 112.15 105)" stroke="black"/>
<path d="M102.764 205.703C107.976 220.023 115.568 231.915 123.607 239.571C131.671 247.25 140.054 250.558 146.914 248.061C153.774 245.564 158.07 237.642 159.311 226.576C160.548 215.544 158.719 201.554 153.507 187.234C148.295 172.914 140.703 161.021 132.664 153.366C124.601 145.686 116.218 142.378 109.357 144.875C102.497 147.372 98.2015 155.295 96.9607 166.361C95.7237 177.393 97.5519 191.383 102.764 205.703Z" fill="#3645CD" stroke="#3645CD"/>
<rect width="46" height="65.7915" transform="matrix(-0.939693 0.34202 0.34202 0.939693 155.269 190.461)" fill="#3645CD"/>
<rect width="47.4679" height="71.3255" transform="matrix(-0.939693 -0.34202 -0.34202 0.939693 95.7708 206.672)" fill="#3645CD"/>
<path d="M42.7708 267.461C42.7708 335.944 67.3951 391.461 97.7708 391.461C128.146 391.461 152.771 335.944 152.771 267.461C152.771 198.978 128.146 143.461 97.7708 143.461C67.3951 143.461 42.7708 198.978 42.7708 267.461Z" fill="#3645CD"/>
<path d="M51.6083 189.695C46.3962 204.015 44.568 218.005 45.805 229.037C47.0458 240.103 51.3414 248.025 58.2017 250.522C65.062 253.019 73.4451 249.711 81.5087 242.032C89.5474 234.376 97.1396 222.484 102.352 208.164C107.564 193.844 109.392 179.854 108.155 168.822C106.914 157.756 102.618 149.833 95.7582 147.337C88.8979 144.84 80.5149 148.147 72.4512 155.827C64.4125 163.482 56.8203 175.375 51.6083 189.695Z" fill="#3645CD" stroke="#3645CD"/>
<rect x="0.5" y="-0.5" width="111" height="191" transform="matrix(-1 0 0 1 153.771 292)" fill="#F2DDBE" stroke="#B19C7C"/>
<line y1="-0.5" x2="141" y2="-0.5" transform="matrix(-1.11382e-09 1 1 1.11382e-09 97.7708 341)" stroke="#B19C7C"/>
<rect x="43.6981" y="173.862" width="31" height="173.512" transform="rotate(-35.8694 43.6981 173.862)" fill="#F2DDBE" stroke="#B19C7C"/>
<line x1="121.667" y1="75.057" x2="138.667" y2="69.057" stroke="#DACD9F" stroke-width="2"/>
<line y1="-1" x2="18.0278" y2="-1" transform="matrix(-0.94299 -0.33282 -0.33282 0.94299 94 76)" stroke="#DACD9F" stroke-width="2"/>
</svg>
