<svg width="207" height="519" viewBox="0 0 207 519" fill="none" xmlns="http://www.w3.org/2000/svg">
<g clip-path="url(#clip0_94_4461)">
<ellipse cx="103" cy="132" rx="84" ry="132" fill="black"/>
<circle cx="101" cy="90" r="54" fill="#CB9D8A"/>
<rect x="68" y="36" width="70" height="30" fill="black"/>
<path d="M105.09 398.189C99.0763 432.293 90.6051 462.621 81.7778 484.08C77.3626 494.814 72.8686 503.303 68.5641 508.936C66.4115 511.753 64.323 513.833 62.3354 515.126C60.3506 516.417 58.5008 516.902 56.794 516.601C55.0873 516.3 53.515 515.211 52.0915 513.319C50.6659 511.425 49.4147 508.756 48.3553 505.373C46.237 498.608 44.9176 489.093 44.4398 477.496C43.4844 454.312 45.8966 422.916 51.9103 388.812C57.9239 354.707 66.395 324.38 75.2223 302.92C79.6376 292.186 84.1316 283.697 88.436 278.064C90.5886 275.247 92.6772 273.167 94.6648 271.874C96.6495 270.583 98.4993 270.098 100.206 270.399C101.913 270.7 103.485 271.789 104.909 273.681C106.334 275.575 107.585 278.244 108.645 281.627C110.763 288.393 112.083 297.907 112.56 309.504C113.516 332.688 111.103 364.084 105.09 398.189Z" fill="#CB9D8A" stroke="#A67D6B"/>
<path d="M86.8267 244.201C77.9371 268.625 67.0064 289.668 56.532 303.944C51.2927 311.085 46.185 316.509 41.5235 319.822C36.8467 323.146 32.7265 324.272 29.3923 323.058C26.0582 321.845 23.6259 318.334 22.1796 312.782C20.738 307.248 20.3119 299.809 20.8886 290.971C22.0415 273.302 27.1937 250.156 36.0833 225.732C44.9729 201.308 55.9037 180.266 66.3781 165.99C71.6173 158.849 76.7251 153.424 81.3866 150.112C86.0634 146.788 90.1835 145.662 93.5177 146.875C96.8519 148.089 99.2842 151.6 100.73 157.152C102.172 162.686 102.598 170.125 102.021 178.963C100.869 196.632 95.7163 219.777 86.8267 244.201Z" fill="#CB9D8A" stroke="#A67D6B"/>
<path d="M158.872 384.265C170.716 416.808 178.543 447.308 181.629 470.306C183.172 481.809 183.525 491.408 182.613 498.438C182.157 501.954 181.389 504.8 180.314 506.913C179.24 509.024 177.881 510.369 176.252 510.962C174.624 511.554 172.718 511.398 170.539 510.471C168.357 509.543 165.939 507.857 163.33 505.457C158.113 500.657 152.213 493.077 146.001 483.273C133.581 463.672 119.973 435.277 108.128 402.735C96.2837 370.192 88.4564 339.692 85.3712 316.694C83.8281 305.191 83.4753 295.592 84.3867 288.562C84.8425 285.046 85.6112 282.2 86.6862 280.087C87.7595 277.976 89.1189 276.631 90.7474 276.038C92.376 275.446 94.282 275.602 96.4607 276.529C98.6426 277.457 101.061 279.143 103.67 281.543C108.887 286.343 114.787 293.923 120.999 303.727C133.418 323.328 147.027 351.723 158.872 384.265Z" fill="#CB9D8A" stroke="#A67D6B"/>
<path d="M165.447 225.732C174.336 250.156 179.489 273.301 180.641 290.97C181.218 299.808 180.792 307.247 179.35 312.781C177.904 318.333 175.472 321.844 172.138 323.057C168.803 324.271 164.683 323.145 160.006 319.821C155.345 316.509 150.237 311.084 144.998 303.943C134.524 289.667 123.593 268.625 114.703 244.201C105.814 219.777 100.662 196.632 99.5087 178.963C98.9321 170.125 99.3582 162.686 100.8 157.152C102.246 151.6 104.678 148.089 108.013 146.875C111.347 145.662 115.467 146.788 120.144 150.112C124.805 153.424 129.913 158.848 135.152 165.989C145.626 180.266 156.557 201.308 165.447 225.732Z" fill="#CB9D8A" stroke="#A67D6B"/>
<path d="M146.7 267.285C146.7 335.768 127.224 391.285 103.2 391.285C79.1753 391.285 59.6997 335.768 59.6997 267.285C59.6997 198.801 79.1753 143.285 103.2 143.285C127.224 143.285 146.7 198.801 146.7 267.285Z" fill="#CB9D8A"/>
<path d="M103.49 213.752L206.98 391H1.52588e-05L103.49 213.752Z" fill="#DC583C"/>
<rect x="65" y="207" width="77" height="68.6483" fill="#F28686"/>
<ellipse cx="76.5" cy="90" rx="8.5" ry="11" fill="#D9D9D9"/>
<ellipse cx="81" cy="90" rx="4" ry="6" fill="black"/>
<ellipse cx="122.5" cy="90" rx="8.5" ry="11" fill="#D9D9D9"/>
<ellipse cx="127" cy="90" rx="4" ry="6" fill="black"/>
<line x1="87" y1="117.5" x2="118" y2="117.5" stroke="black"/>
<line x1="98" y1="104.5" x2="109" y2="104.5" stroke="black"/>
<path d="M123 105H139V111H123V105Z" fill="#F28686"/>
<path d="M60 105H76V111H60V105Z" fill="#F28686"/>
</g>
<defs>
<clipPath id="clip0_94_4461">
<rect width="207" height="519" fill="white"/>
</clipPath>
</defs>
</svg>
