<svg width="207" height="536" viewBox="0 0 207 536" fill="none" xmlns="http://www.w3.org/2000/svg">
<rect x="21.7705" y="87" width="168" height="42" rx="21" fill="black"/>
<rect x="38.7705" y="104" width="132" height="42" rx="21" fill="black"/>
<rect x="15.7705" y="35" width="176" height="42" rx="21" fill="black"/>
<rect x="51.7705" y="10" width="101" height="42" rx="21" fill="black"/>
<rect x="31.7705" y="19" width="145" height="42" rx="21" fill="black"/>
<rect x="80.7705" y="4" width="47" height="42" rx="21" fill="black"/>
<rect x="14.7705" y="59" width="177" height="42" rx="21" fill="black"/>
<ellipse cx="105.391" cy="83" rx="84" ry="72" fill="black"/>
<ellipse cx="105.271" cy="58" rx="38.5" ry="12" fill="black"/>
<rect x="21.7705" y="87" width="168" height="42" rx="21" fill="black"/>
<rect x="38.7705" y="104" width="132" height="42" rx="21" fill="black"/>
<rect x="15.7705" y="35" width="176" height="42" rx="21" fill="black"/>
<rect x="51.7705" y="10" width="101" height="42" rx="21" fill="black"/>
<rect x="31.7705" y="19" width="145" height="42" rx="21" fill="black"/>
<rect x="80.7705" y="4" width="47" height="42" rx="21" fill="black"/>
<rect x="14.7705" y="59" width="177" height="42" rx="21" fill="black"/>
<ellipse cx="105.391" cy="83" rx="84" ry="72" fill="black"/>
<circle cx="103.391" cy="101" r="54" fill="#DDBBAD"/>
<line x1="97.3909" y1="115.5" x2="108.391" y2="115.5" stroke="black"/>
<line x1="89.3909" y1="128.5" x2="120.391" y2="128.5" stroke="black"/>
<ellipse cx="78.8909" cy="98" rx="8.5" ry="11" fill="#D9D9D9"/>
<ellipse cx="83.3909" cy="98" rx="4" ry="6" fill="black"/>
<ellipse cx="124.891" cy="98" rx="8.5" ry="11" fill="#D9D9D9"/>
<ellipse cx="129.391" cy="98" rx="4" ry="6" fill="black"/>
<ellipse cx="105.271" cy="58" rx="38.5" ry="12" fill="black"/>
<path d="M117.324 254.201C126.213 278.625 137.144 299.668 147.618 313.944C152.858 321.085 157.965 326.509 162.627 329.822C167.304 333.146 171.424 334.272 174.758 333.058C178.092 331.845 180.524 328.334 181.971 322.782C183.412 317.248 183.838 309.809 183.262 300.971C182.109 283.302 176.957 260.156 168.067 235.732C159.177 211.308 148.247 190.266 137.772 175.99C132.533 168.849 127.425 163.424 122.764 160.112C118.087 156.788 113.967 155.662 110.633 156.875C107.298 158.089 104.866 161.6 103.42 167.152C101.978 172.686 101.552 180.125 102.129 188.963C103.282 206.632 108.434 229.777 117.324 254.201Z" fill="#DDBBAD" stroke="#DDBBAD"/>
<path d="M38.7034 235.732C29.8138 260.156 24.6616 283.301 23.5087 300.97C22.9321 309.808 23.3582 317.247 24.7998 322.781C26.2461 328.333 28.6784 331.844 32.0125 333.057C35.3467 334.271 39.4669 333.145 44.1437 329.821C48.8052 326.509 53.9129 321.084 59.1521 313.943C69.6265 299.667 80.5572 278.625 89.4468 254.201C98.3363 229.777 103.489 206.632 104.641 188.963C105.218 180.125 104.792 172.686 103.35 167.152C101.904 161.6 99.4717 158.089 96.1376 156.875C92.8034 155.662 88.6832 156.788 84.0065 160.112C79.345 163.424 74.2372 168.848 68.998 175.989C58.5236 190.266 47.5929 211.308 38.7034 235.732Z" fill="#DDBBAD" stroke="#DDBBAD"/>
<path d="M57.4504 277.285C57.4504 345.768 76.9261 401.285 100.95 401.285C124.975 401.285 144.45 345.768 144.45 277.285C144.45 208.801 124.975 153.285 100.95 153.285C76.9261 153.285 57.4504 208.801 57.4504 277.285Z" fill="#DDBBAD"/>
<path d="M101.764 215.703C106.976 230.023 114.568 241.915 122.607 249.571C130.67 257.25 139.053 260.558 145.914 258.061C152.774 255.564 157.07 247.642 158.31 236.576C159.547 225.544 157.719 211.554 152.507 197.234C147.295 182.914 139.703 171.021 131.664 163.366C123.6 155.686 115.217 152.378 108.357 154.875C101.497 157.372 97.2012 165.295 95.9604 176.361C94.7234 187.393 96.5516 201.383 101.764 215.703Z" fill="#3645CD" stroke="#DDBBAD"/>
<rect width="46" height="65.7915" transform="matrix(-0.939693 0.34202 0.34202 0.939693 154.268 200.461)" fill="#3645CD"/>
<rect width="47.4679" height="71.3255" transform="matrix(-0.939693 -0.34202 -0.34202 0.939693 94.7704 216.672)" fill="#3645CD"/>
<path d="M50.6079 199.695C45.3958 214.015 43.5676 228.005 44.8046 239.037C46.0454 250.103 50.3411 258.025 57.2014 260.522C64.0617 263.019 72.4447 259.712 80.5084 252.032C88.547 244.376 96.1392 232.484 101.351 218.164C106.563 203.844 108.392 189.854 107.155 178.822C105.914 167.756 101.618 159.834 94.7578 157.337C87.8975 154.84 79.5145 158.147 71.4508 165.827C63.4122 173.483 55.82 185.375 50.6079 199.695Z" fill="#3645CD" stroke="#3645CD"/>
<path d="M97.1988 409.368C91.6996 440.556 89.753 469.309 91.044 490.579C91.6898 501.218 93.1441 509.957 95.3531 516.185C97.5775 522.456 100.497 525.993 103.944 526.601C107.391 527.209 111.344 524.883 115.579 519.751C119.785 514.654 124.141 506.94 128.386 497.163C136.874 477.617 144.879 449.933 150.378 418.745C155.878 387.558 157.824 358.805 156.533 337.535C155.887 326.896 154.433 318.157 152.224 311.929C150 305.658 147.081 302.12 143.633 301.512C140.186 300.905 136.233 303.23 131.998 308.363C127.792 313.459 123.436 321.174 119.191 330.95C110.703 350.496 102.698 378.181 97.1988 409.368Z" fill="#DDBBAD" stroke="#A67D6B"/>
<path d="M41.7704 277.461C41.7704 345.945 66.3947 401.461 96.7704 401.461C127.146 401.461 151.77 345.945 151.77 277.461C151.77 208.978 127.146 153.461 96.7704 153.461C66.3947 153.461 41.7704 208.978 41.7704 277.461Z" fill="#3645CD"/>
<line y1="-0.5" x2="101.607" y2="-0.5" transform="matrix(-0.177153 -0.984183 -0.984183 0.177153 115.771 508)" stroke="#B19C7C"/>
<line y1="-0.5" x2="5" y2="-0.5" transform="matrix(0 -1 -1 0 151.771 314)" stroke="#B19C7C"/>
<rect x="-0.564082" y="0.426394" width="61.6116" height="150.356" transform="matrix(-0.990476 -0.137688 -0.137688 0.990476 165.401 356.316)" fill="#F2DDBE" stroke="#B19C7C"/>
<path d="M66.5006 428.957C76.1707 455.526 87.8091 478.511 98.7979 494.193C104.294 502.038 109.612 508.031 114.421 511.736C119.252 515.459 123.443 516.777 126.758 515.57C130.073 514.364 132.436 510.66 133.744 504.703C135.047 498.774 135.267 490.765 134.436 481.222C132.773 462.145 126.914 437.057 117.244 410.488C107.574 383.92 95.9356 360.935 84.9468 345.252C79.4502 337.408 74.1328 331.414 69.3241 327.71C64.4927 323.987 60.3021 322.669 56.9867 323.875C53.6712 325.082 51.3087 328.786 50.0003 334.743C48.698 340.672 48.4772 348.681 49.3089 358.224C50.9717 377.301 56.8305 402.389 66.5006 428.957Z" fill="#DDBBAD" stroke="#A67D6B"/>
<path d="M101.681 349.414L102.153 349.25L102.318 349.722L149.936 486.142L150.101 486.614L149.629 486.779L90.5148 507.413L90.0428 507.577L89.878 507.105L42.2601 370.685L42.0953 370.213L42.5674 370.048L101.681 349.414Z" fill="#F2DDBE" stroke="#B19C7C"/>
<mask id="path-40-inside-1_46_16126" fill="white">
<path d="M151.771 306H41.7705V371H151.771V306Z"/>
</mask>
<path d="M151.771 306H41.7705V371H151.771V306Z" fill="#F2DDBE"/>
<path d="M41.7705 306H40.7705V305H41.7705V306ZM151.771 307H41.7705V305H151.771V307ZM42.7705 306V371H40.7705V306H42.7705Z" fill="#B19C7C" mask="url(#path-40-inside-1_46_16126)"/>
<path d="M151.273 306.074L151.618 359.104L166.34 356.92L151.273 306.074Z" fill="#F2DDBE"/>
<line y1="-0.5" x2="52.2015" y2="-0.5" transform="matrix(-0.287348 -0.957826 -0.957826 0.287348 165.771 357)" stroke="#B19C7C"/>
<rect x="49.4687" y="178.862" width="31" height="173.512" transform="rotate(-35.8694 49.4687 178.862)" fill="#F2DDBE" stroke="#B19C7C"/>
</svg>
