<svg width="588" height="153" viewBox="0 0 588 153" fill="none" xmlns="http://www.w3.org/2000/svg">
<rect width="588" height="153" fill="#F5E9D7"/>
<path d="M85.3674 38.666V40.294H81.1874V54H79.1854V40.294H74.9834V38.666H85.3674ZM93.0897 54.198C91.9604 54.198 90.9337 53.9413 90.0097 53.428C89.1004 52.9147 88.3817 52.1887 87.8537 51.25C87.3404 50.2967 87.0837 49.1967 87.0837 47.95C87.0837 46.718 87.3477 45.6327 87.8757 44.694C88.4184 43.7407 89.1517 43.0147 90.0757 42.516C90.9997 42.0027 92.0337 41.746 93.1777 41.746C94.3217 41.746 95.3557 42.0027 96.2797 42.516C97.2037 43.0147 97.9297 43.7333 98.4577 44.672C99.0004 45.6107 99.2717 46.7033 99.2717 47.95C99.2717 49.1967 98.993 50.2967 98.4357 51.25C97.893 52.1887 97.1524 52.9147 96.2137 53.428C95.275 53.9413 94.2337 54.198 93.0897 54.198ZM93.0897 52.438C93.8084 52.438 94.483 52.2693 95.1137 51.932C95.7444 51.5947 96.2504 51.0887 96.6317 50.414C97.0277 49.7393 97.2257 48.918 97.2257 47.95C97.2257 46.982 97.035 46.1607 96.6537 45.486C96.2724 44.8113 95.7737 44.3127 95.1577 43.99C94.5417 43.6527 93.8744 43.484 93.1557 43.484C92.4224 43.484 91.7477 43.6527 91.1317 43.99C90.5304 44.3127 90.0464 44.8113 89.6797 45.486C89.313 46.1607 89.1297 46.982 89.1297 47.95C89.1297 48.9327 89.3057 49.7613 89.6577 50.436C90.0244 51.1107 90.5084 51.6167 91.1097 51.954C91.711 52.2767 92.371 52.438 93.0897 52.438ZM106.876 41.746C107.917 41.746 108.827 41.9733 109.604 42.428C110.396 42.8827 110.983 43.4547 111.364 44.144V41.944H113.388V54.264C113.388 55.364 113.153 56.3393 112.684 57.19C112.215 58.0553 111.54 58.73 110.66 59.214C109.795 59.698 108.783 59.94 107.624 59.94C106.04 59.94 104.72 59.566 103.664 58.818C102.608 58.07 101.985 57.0507 101.794 55.76H103.774C103.994 56.4933 104.449 57.08 105.138 57.52C105.827 57.9747 106.656 58.202 107.624 58.202C108.724 58.202 109.619 57.8573 110.308 57.168C111.012 56.4787 111.364 55.5107 111.364 54.264V51.734C110.968 52.438 110.381 53.0247 109.604 53.494C108.827 53.9633 107.917 54.198 106.876 54.198C105.805 54.198 104.83 53.934 103.95 53.406C103.085 52.878 102.403 52.1373 101.904 51.184C101.405 50.2307 101.156 49.1453 101.156 47.928C101.156 46.696 101.405 45.618 101.904 44.694C102.403 43.7553 103.085 43.0293 103.95 42.516C104.83 42.0027 105.805 41.746 106.876 41.746ZM111.364 47.95C111.364 47.0407 111.181 46.2487 110.814 45.574C110.447 44.8993 109.949 44.386 109.318 44.034C108.702 43.6673 108.02 43.484 107.272 43.484C106.524 43.484 105.842 43.66 105.226 44.012C104.61 44.364 104.119 44.8773 103.752 45.552C103.385 46.2267 103.202 47.0187 103.202 47.928C103.202 48.852 103.385 49.6587 103.752 50.348C104.119 51.0227 104.61 51.5433 105.226 51.91C105.842 52.262 106.524 52.438 107.272 52.438C108.02 52.438 108.702 52.262 109.318 51.91C109.949 51.5433 110.447 51.0227 110.814 50.348C111.181 49.6587 111.364 48.8593 111.364 47.95ZM127.771 47.51C127.771 47.8913 127.749 48.2947 127.705 48.72H118.069C118.142 49.908 118.546 50.8393 119.279 51.514C120.027 52.174 120.929 52.504 121.985 52.504C122.85 52.504 123.569 52.306 124.141 51.91C124.728 51.4993 125.138 50.9567 125.373 50.282H127.529C127.206 51.4407 126.561 52.3867 125.593 53.12C124.625 53.8387 123.422 54.198 121.985 54.198C120.841 54.198 119.814 53.9413 118.905 53.428C118.01 52.9147 117.306 52.1887 116.793 51.25C116.28 50.2967 116.023 49.1967 116.023 47.95C116.023 46.7033 116.272 45.6107 116.771 44.672C117.27 43.7333 117.966 43.0147 118.861 42.516C119.77 42.0027 120.812 41.746 121.985 41.746C123.129 41.746 124.141 41.9953 125.021 42.494C125.901 42.9927 126.576 43.682 127.045 44.562C127.529 45.4273 127.771 46.41 127.771 47.51ZM125.703 47.092C125.703 46.3293 125.534 45.6767 125.197 45.134C124.86 44.5767 124.398 44.1587 123.811 43.88C123.239 43.5867 122.601 43.44 121.897 43.44C120.885 43.44 120.02 43.7627 119.301 44.408C118.597 45.0533 118.194 45.948 118.091 47.092H125.703ZM132.856 43.594V50.7C132.856 51.2867 132.98 51.7047 133.23 51.954C133.479 52.1887 133.912 52.306 134.528 52.306H136.002V54H134.198C133.083 54 132.247 53.7433 131.69 53.23C131.132 52.7167 130.854 51.8733 130.854 50.7V43.594H129.292V41.944H130.854V38.908H132.856V41.944H136.002V43.594H132.856ZM144.411 41.724C145.321 41.724 146.142 41.922 146.875 42.318C147.609 42.6993 148.181 43.2787 148.591 44.056C149.017 44.8333 149.229 45.7793 149.229 46.894V54H147.249V47.18C147.249 45.9773 146.949 45.0607 146.347 44.43C145.746 43.7847 144.925 43.462 143.883 43.462C142.827 43.462 141.984 43.792 141.353 44.452C140.737 45.112 140.429 46.0727 140.429 47.334V54H138.427V37.72H140.429V43.66C140.825 43.044 141.368 42.5673 142.057 42.23C142.761 41.8927 143.546 41.724 144.411 41.724ZM163.5 47.51C163.5 47.8913 163.478 48.2947 163.434 48.72H153.798C153.871 49.908 154.274 50.8393 155.008 51.514C155.756 52.174 156.658 52.504 157.714 52.504C158.579 52.504 159.298 52.306 159.87 51.91C160.456 51.4993 160.867 50.9567 161.102 50.282H163.258C162.935 51.4407 162.29 52.3867 161.322 53.12C160.354 53.8387 159.151 54.198 157.714 54.198C156.57 54.198 155.543 53.9413 154.634 53.428C153.739 52.9147 153.035 52.1887 152.522 51.25C152.008 50.2967 151.752 49.1967 151.752 47.95C151.752 46.7033 152.001 45.6107 152.5 44.672C152.998 43.7333 153.695 43.0147 154.59 42.516C155.499 42.0027 156.54 41.746 157.714 41.746C158.858 41.746 159.87 41.9953 160.75 42.494C161.63 42.9927 162.304 43.682 162.774 44.562C163.258 45.4273 163.5 46.41 163.5 47.51ZM161.432 47.092C161.432 46.3293 161.263 45.6767 160.926 45.134C160.588 44.5767 160.126 44.1587 159.54 43.88C158.968 43.5867 158.33 43.44 157.626 43.44C156.614 43.44 155.748 43.7627 155.03 44.408C154.326 45.0533 153.922 45.948 153.82 47.092H161.432ZM168.144 43.902C168.496 43.2127 168.995 42.6773 169.64 42.296C170.3 41.9147 171.1 41.724 172.038 41.724V43.792H171.51C169.266 43.792 168.144 45.0093 168.144 47.444V54H166.142V41.944H168.144V43.902ZM176.417 51.228L173.953 57.146H172.611L174.217 51.228H176.417ZM187.018 43.594V50.7C187.018 51.2867 187.143 51.7047 187.392 51.954C187.641 52.1887 188.074 52.306 188.69 52.306H190.164V54H188.36C187.245 54 186.409 53.7433 185.852 53.23C185.295 52.7167 185.016 51.8733 185.016 50.7V43.594H183.454V41.944H185.016V38.908H187.018V41.944H190.164V43.594H187.018ZM198.574 41.724C199.483 41.724 200.304 41.922 201.038 42.318C201.771 42.6993 202.343 43.2787 202.754 44.056C203.179 44.8333 203.392 45.7793 203.392 46.894V54H201.412V47.18C201.412 45.9773 201.111 45.0607 200.51 44.43C199.908 43.7847 199.087 43.462 198.046 43.462C196.99 43.462 196.146 43.792 195.516 44.452C194.9 45.112 194.592 46.0727 194.592 47.334V54H192.59V37.72H194.592V43.66C194.988 43.044 195.53 42.5673 196.22 42.23C196.924 41.8927 197.708 41.724 198.574 41.724ZM217.662 47.51C217.662 47.8913 217.64 48.2947 217.596 48.72H207.96C208.033 49.908 208.436 50.8393 209.17 51.514C209.918 52.174 210.82 52.504 211.876 52.504C212.741 52.504 213.46 52.306 214.032 51.91C214.618 51.4993 215.029 50.9567 215.264 50.282H217.42C217.097 51.4407 216.452 52.3867 215.484 53.12C214.516 53.8387 213.313 54.198 211.876 54.198C210.732 54.198 209.705 53.9413 208.796 53.428C207.901 52.9147 207.197 52.1887 206.684 51.25C206.17 50.2967 205.914 49.1967 205.914 47.95C205.914 46.7033 206.163 45.6107 206.662 44.672C207.16 43.7333 207.857 43.0147 208.752 42.516C209.661 42.0027 210.702 41.746 211.876 41.746C213.02 41.746 214.032 41.9953 214.912 42.494C215.792 42.9927 216.466 43.682 216.936 44.562C217.42 45.4273 217.662 46.41 217.662 47.51ZM215.594 47.092C215.594 46.3293 215.425 45.6767 215.088 45.134C214.75 44.5767 214.288 44.1587 213.702 43.88C213.13 43.5867 212.492 43.44 211.788 43.44C210.776 43.44 209.91 43.7627 209.192 44.408C208.488 45.0533 208.084 45.948 207.982 47.092H215.594ZM230.688 41.944L223.428 59.676H221.36L223.736 53.868L218.874 41.944H221.096L224.88 51.712L228.62 41.944H230.688ZM243.538 41.746C244.579 41.746 245.489 41.9733 246.266 42.428C247.058 42.8827 247.645 43.4547 248.026 44.144V41.944H250.05V54.264C250.05 55.364 249.815 56.3393 249.346 57.19C248.877 58.0553 248.202 58.73 247.322 59.214C246.457 59.698 245.445 59.94 244.286 59.94C242.702 59.94 241.382 59.566 240.326 58.818C239.27 58.07 238.647 57.0507 238.456 55.76H240.436C240.656 56.4933 241.111 57.08 241.8 57.52C242.489 57.9747 243.318 58.202 244.286 58.202C245.386 58.202 246.281 57.8573 246.97 57.168C247.674 56.4787 248.026 55.5107 248.026 54.264V51.734C247.63 52.438 247.043 53.0247 246.266 53.494C245.489 53.9633 244.579 54.198 243.538 54.198C242.467 54.198 241.492 53.934 240.612 53.406C239.747 52.878 239.065 52.1373 238.566 51.184C238.067 50.2307 237.818 49.1453 237.818 47.928C237.818 46.696 238.067 45.618 238.566 44.694C239.065 43.7553 239.747 43.0293 240.612 42.516C241.492 42.0027 242.467 41.746 243.538 41.746ZM248.026 47.95C248.026 47.0407 247.843 46.2487 247.476 45.574C247.109 44.8993 246.611 44.386 245.98 44.034C245.364 43.6673 244.682 43.484 243.934 43.484C243.186 43.484 242.504 43.66 241.888 44.012C241.272 44.364 240.781 44.8773 240.414 45.552C240.047 46.2267 239.864 47.0187 239.864 47.928C239.864 48.852 240.047 49.6587 240.414 50.348C240.781 51.0227 241.272 51.5433 241.888 51.91C242.504 52.262 243.186 52.438 243.934 52.438C244.682 52.438 245.364 52.262 245.98 51.91C246.611 51.5433 247.109 51.0227 247.476 50.348C247.843 49.6587 248.026 48.8593 248.026 47.95ZM258.691 54.198C257.562 54.198 256.535 53.9413 255.611 53.428C254.702 52.9147 253.983 52.1887 253.455 51.25C252.942 50.2967 252.685 49.1967 252.685 47.95C252.685 46.718 252.949 45.6327 253.477 44.694C254.02 43.7407 254.753 43.0147 255.677 42.516C256.601 42.0027 257.635 41.746 258.779 41.746C259.923 41.746 260.957 42.0027 261.881 42.516C262.805 43.0147 263.531 43.7333 264.059 44.672C264.602 45.6107 264.873 46.7033 264.873 47.95C264.873 49.1967 264.595 50.2967 264.037 51.25C263.495 52.1887 262.754 52.9147 261.815 53.428C260.877 53.9413 259.835 54.198 258.691 54.198ZM258.691 52.438C259.41 52.438 260.085 52.2693 260.715 51.932C261.346 51.5947 261.852 51.0887 262.233 50.414C262.629 49.7393 262.827 48.918 262.827 47.95C262.827 46.982 262.637 46.1607 262.255 45.486C261.874 44.8113 261.375 44.3127 260.759 43.99C260.143 43.6527 259.476 43.484 258.757 43.484C258.024 43.484 257.349 43.6527 256.733 43.99C256.132 44.3127 255.648 44.8113 255.281 45.486C254.915 46.1607 254.731 46.982 254.731 47.95C254.731 48.9327 254.907 49.7613 255.259 50.436C255.626 51.1107 256.11 51.6167 256.711 51.954C257.313 52.2767 257.973 52.438 258.691 52.438ZM278.629 54.198C277.499 54.198 276.473 53.9413 275.549 53.428C274.639 52.9147 273.921 52.1887 273.393 51.25C272.879 50.2967 272.623 49.1967 272.623 47.95C272.623 46.718 272.887 45.6327 273.415 44.694C273.957 43.7407 274.691 43.0147 275.615 42.516C276.539 42.0027 277.573 41.746 278.717 41.746C279.861 41.746 280.895 42.0027 281.819 42.516C282.743 43.0147 283.469 43.7333 283.997 44.672C284.539 45.6107 284.811 46.7033 284.811 47.95C284.811 49.1967 284.532 50.2967 283.975 51.25C283.432 52.1887 282.691 52.9147 281.753 53.428C280.814 53.9413 279.773 54.198 278.629 54.198ZM278.629 52.438C279.347 52.438 280.022 52.2693 280.653 51.932C281.283 51.5947 281.789 51.0887 282.171 50.414C282.567 49.7393 282.765 48.918 282.765 47.95C282.765 46.982 282.574 46.1607 282.193 45.486C281.811 44.8113 281.313 44.3127 280.697 43.99C280.081 43.6527 279.413 43.484 278.695 43.484C277.961 43.484 277.287 43.6527 276.671 43.99C276.069 44.3127 275.585 44.8113 275.219 45.486C274.852 46.1607 274.669 46.982 274.669 47.95C274.669 48.9327 274.845 49.7613 275.197 50.436C275.563 51.1107 276.047 51.6167 276.649 51.954C277.25 52.2767 277.91 52.438 278.629 52.438ZM293.317 41.724C294.784 41.724 295.972 42.1713 296.881 43.066C297.79 43.946 298.245 45.222 298.245 46.894V54H296.265V47.18C296.265 45.9773 295.964 45.0607 295.363 44.43C294.762 43.7847 293.94 43.462 292.899 43.462C291.843 43.462 291 43.792 290.369 44.452C289.753 45.112 289.445 46.0727 289.445 47.334V54H287.443V41.944H289.445V43.66C289.841 43.044 290.376 42.5673 291.051 42.23C291.74 41.8927 292.496 41.724 293.317 41.724ZM321.879 41.724C322.817 41.724 323.653 41.922 324.387 42.318C325.12 42.6993 325.699 43.2787 326.125 44.056C326.55 44.8333 326.763 45.7793 326.763 46.894V54H324.783V47.18C324.783 45.9773 324.482 45.0607 323.881 44.43C323.294 43.7847 322.495 43.462 321.483 43.462C320.441 43.462 319.613 43.7993 318.997 44.474C318.381 45.134 318.073 46.0947 318.073 47.356V54H316.093V47.18C316.093 45.9773 315.792 45.0607 315.191 44.43C314.604 43.7847 313.805 43.462 312.793 43.462C311.751 43.462 310.923 43.7993 310.307 44.474C309.691 45.134 309.383 46.0947 309.383 47.356V54H307.381V41.944H309.383V43.682C309.779 43.0513 310.307 42.5673 310.967 42.23C311.641 41.8927 312.382 41.724 313.189 41.724C314.201 41.724 315.095 41.9513 315.873 42.406C316.65 42.8607 317.229 43.528 317.611 44.408C317.948 43.5573 318.505 42.8973 319.283 42.428C320.06 41.9587 320.925 41.724 321.879 41.724ZM329.299 47.928C329.299 46.696 329.548 45.618 330.047 44.694C330.545 43.7553 331.227 43.0293 332.093 42.516C332.973 42.0027 333.948 41.746 335.019 41.746C336.075 41.746 336.991 41.9733 337.769 42.428C338.546 42.8827 339.125 43.4547 339.507 44.144V41.944H341.531V54H339.507V51.756C339.111 52.46 338.517 53.0467 337.725 53.516C336.947 53.9707 336.038 54.198 334.997 54.198C333.926 54.198 332.958 53.934 332.093 53.406C331.227 52.878 330.545 52.1373 330.047 51.184C329.548 50.2307 329.299 49.1453 329.299 47.928ZM339.507 47.95C339.507 47.0407 339.323 46.2487 338.957 45.574C338.59 44.8993 338.091 44.386 337.461 44.034C336.845 43.6673 336.163 43.484 335.415 43.484C334.667 43.484 333.985 43.66 333.369 44.012C332.753 44.364 332.261 44.8773 331.895 45.552C331.528 46.2267 331.345 47.0187 331.345 47.928C331.345 48.852 331.528 49.6587 331.895 50.348C332.261 51.0227 332.753 51.5433 333.369 51.91C333.985 52.262 334.667 52.438 335.415 52.438C336.163 52.438 336.845 52.262 337.461 51.91C338.091 51.5433 338.59 51.0227 338.957 50.348C339.323 49.6587 339.507 48.8593 339.507 47.95ZM350.788 41.724C352.254 41.724 353.442 42.1713 354.352 43.066C355.261 43.946 355.716 45.222 355.716 46.894V54H353.736V47.18C353.736 45.9773 353.435 45.0607 352.834 44.43C352.232 43.7847 351.411 43.462 350.37 43.462C349.314 43.462 348.47 43.792 347.84 44.452C347.224 45.112 346.916 46.0727 346.916 47.334V54H344.914V41.944H346.916V43.66C347.312 43.044 347.847 42.5673 348.522 42.23C349.211 41.8927 349.966 41.724 350.788 41.724ZM369.37 41.944L362.11 59.676H360.042L362.418 53.868L357.556 41.944H359.778L363.562 51.712L367.302 41.944H369.37ZM376.5 47.928C376.5 46.696 376.749 45.618 377.248 44.694C377.746 43.7553 378.428 43.0293 379.294 42.516C380.174 42.0027 381.149 41.746 382.22 41.746C383.276 41.746 384.192 41.9733 384.97 42.428C385.747 42.8827 386.326 43.4547 386.708 44.144V41.944H388.732V54H386.708V51.756C386.312 52.46 385.718 53.0467 384.926 53.516C384.148 53.9707 383.239 54.198 382.198 54.198C381.127 54.198 380.159 53.934 379.294 53.406C378.428 52.878 377.746 52.1373 377.248 51.184C376.749 50.2307 376.5 49.1453 376.5 47.928ZM386.708 47.95C386.708 47.0407 386.524 46.2487 386.158 45.574C385.791 44.8993 385.292 44.386 384.662 44.034C384.046 43.6673 383.364 43.484 382.616 43.484C381.868 43.484 381.186 43.66 380.57 44.012C379.954 44.364 379.462 44.8773 379.096 45.552C378.729 46.2267 378.546 47.0187 378.546 47.928C378.546 48.852 378.729 49.6587 379.096 50.348C379.462 51.0227 379.954 51.5433 380.57 51.91C381.186 52.262 381.868 52.438 382.616 52.438C383.364 52.438 384.046 52.262 384.662 51.91C385.292 51.5433 385.791 51.0227 386.158 50.348C386.524 49.6587 386.708 48.8593 386.708 47.95ZM391.367 47.928C391.367 46.696 391.616 45.618 392.115 44.694C392.614 43.7553 393.296 43.0293 394.161 42.516C395.041 42.0027 396.024 41.746 397.109 41.746C398.048 41.746 398.92 41.966 399.727 42.406C400.534 42.8313 401.15 43.396 401.575 44.1V37.72H403.599V54H401.575V51.734C401.179 52.4527 400.592 53.0467 399.815 53.516C399.038 53.9707 398.128 54.198 397.087 54.198C396.016 54.198 395.041 53.934 394.161 53.406C393.296 52.878 392.614 52.1373 392.115 51.184C391.616 50.2307 391.367 49.1453 391.367 47.928ZM401.575 47.95C401.575 47.0407 401.392 46.2487 401.025 45.574C400.658 44.8993 400.16 44.386 399.529 44.034C398.913 43.6673 398.231 43.484 397.483 43.484C396.735 43.484 396.053 43.66 395.437 44.012C394.821 44.364 394.33 44.8773 393.963 45.552C393.596 46.2267 393.413 47.0187 393.413 47.928C393.413 48.852 393.596 49.6587 393.963 50.348C394.33 51.0227 394.821 51.5433 395.437 51.91C396.053 52.262 396.735 52.438 397.483 52.438C398.231 52.438 398.913 52.262 399.529 51.91C400.16 51.5433 400.658 51.0227 401.025 50.348C401.392 49.6587 401.575 48.8593 401.575 47.95ZM411.47 52.152L415.21 41.944H417.344L412.614 54H410.282L405.552 41.944H407.708L411.47 52.152ZM430.314 47.51C430.314 47.8913 430.292 48.2947 430.248 48.72H420.612C420.685 49.908 421.089 50.8393 421.822 51.514C422.57 52.174 423.472 52.504 424.528 52.504C425.393 52.504 426.112 52.306 426.684 51.91C427.271 51.4993 427.681 50.9567 427.916 50.282H430.072C429.749 51.4407 429.104 52.3867 428.136 53.12C427.168 53.8387 425.965 54.198 424.528 54.198C423.384 54.198 422.357 53.9413 421.448 53.428C420.553 52.9147 419.849 52.1887 419.336 51.25C418.823 50.2967 418.566 49.1967 418.566 47.95C418.566 46.7033 418.815 45.6107 419.314 44.672C419.813 43.7333 420.509 43.0147 421.404 42.516C422.313 42.0027 423.355 41.746 424.528 41.746C425.672 41.746 426.684 41.9953 427.564 42.494C428.444 42.9927 429.119 43.682 429.588 44.562C430.072 45.4273 430.314 46.41 430.314 47.51ZM428.246 47.092C428.246 46.3293 428.077 45.6767 427.74 45.134C427.403 44.5767 426.941 44.1587 426.354 43.88C425.782 43.5867 425.144 43.44 424.44 43.44C423.428 43.44 422.563 43.7627 421.844 44.408C421.14 45.0533 420.737 45.948 420.634 47.092H428.246ZM438.831 41.724C440.297 41.724 441.485 42.1713 442.395 43.066C443.304 43.946 443.759 45.222 443.759 46.894V54H441.779V47.18C441.779 45.9773 441.478 45.0607 440.877 44.43C440.275 43.7847 439.454 43.462 438.413 43.462C437.357 43.462 436.513 43.792 435.883 44.452C435.267 45.112 434.959 46.0727 434.959 47.334V54H432.957V41.944H434.959V43.66C435.355 43.044 435.89 42.5673 436.565 42.23C437.254 41.8927 438.009 41.724 438.831 41.724ZM449.471 43.594V50.7C449.471 51.2867 449.596 51.7047 449.845 51.954C450.094 52.1887 450.527 52.306 451.143 52.306H452.617V54H450.813C449.698 54 448.862 53.7433 448.305 53.23C447.748 52.7167 447.469 51.8733 447.469 50.7V43.594H445.907V41.944H447.469V38.908H449.471V41.944H452.617V43.594H449.471ZM465.735 41.944V54H463.733V52.218C463.351 52.834 462.816 53.318 462.127 53.67C461.452 54.0073 460.704 54.176 459.883 54.176C458.944 54.176 458.101 53.9853 457.353 53.604C456.605 53.208 456.011 52.6213 455.571 51.844C455.145 51.0667 454.933 50.1207 454.933 49.006V41.944H456.913V48.742C456.913 49.93 457.213 50.8467 457.815 51.492C458.416 52.1227 459.237 52.438 460.279 52.438C461.349 52.438 462.193 52.108 462.809 51.448C463.425 50.788 463.733 49.8273 463.733 48.566V41.944H465.735ZM471.117 43.902C471.469 43.2127 471.968 42.6773 472.613 42.296C473.273 41.9147 474.072 41.724 475.011 41.724V43.792H474.483C472.239 43.792 471.117 45.0093 471.117 47.444V54H469.115V41.944H471.117V43.902ZM488.322 47.51C488.322 47.8913 488.3 48.2947 488.256 48.72H478.62C478.693 49.908 479.097 50.8393 479.83 51.514C480.578 52.174 481.48 52.504 482.536 52.504C483.401 52.504 484.12 52.306 484.692 51.91C485.279 51.4993 485.689 50.9567 485.924 50.282H488.08C487.757 51.4407 487.112 52.3867 486.144 53.12C485.176 53.8387 483.973 54.198 482.536 54.198C481.392 54.198 480.365 53.9413 479.456 53.428C478.561 52.9147 477.857 52.1887 477.344 51.25C476.831 50.2967 476.574 49.1967 476.574 47.95C476.574 46.7033 476.823 45.6107 477.322 44.672C477.821 43.7333 478.517 43.0147 479.412 42.516C480.321 42.0027 481.363 41.746 482.536 41.746C483.68 41.746 484.692 41.9953 485.572 42.494C486.452 42.9927 487.127 43.682 487.596 44.562C488.08 45.4273 488.322 46.41 488.322 47.51ZM486.254 47.092C486.254 46.3293 486.085 45.6767 485.748 45.134C485.411 44.5767 484.949 44.1587 484.362 43.88C483.79 43.5867 483.152 43.44 482.448 43.44C481.436 43.44 480.571 43.7627 479.852 44.408C479.148 45.0533 478.745 45.948 478.642 47.092H486.254ZM495.233 54.198C494.309 54.198 493.48 54.044 492.747 53.736C492.013 53.4133 491.434 52.9733 491.009 52.416C490.583 51.844 490.349 51.1913 490.305 50.458H492.373C492.431 51.0593 492.71 51.5507 493.209 51.932C493.722 52.3133 494.389 52.504 495.211 52.504C495.973 52.504 496.575 52.3353 497.015 51.998C497.455 51.6607 497.675 51.2353 497.675 50.722C497.675 50.194 497.44 49.8053 496.971 49.556C496.501 49.292 495.775 49.0353 494.793 48.786C493.898 48.5513 493.165 48.3167 492.593 48.082C492.035 47.8327 491.551 47.4733 491.141 47.004C490.745 46.52 490.547 45.8893 490.547 45.112C490.547 44.496 490.73 43.9313 491.097 43.418C491.463 42.9047 491.984 42.5013 492.659 42.208C493.333 41.9 494.103 41.746 494.969 41.746C496.303 41.746 497.381 42.0833 498.203 42.758C499.024 43.4327 499.464 44.3567 499.523 45.53H497.521C497.477 44.8993 497.22 44.3933 496.751 44.012C496.296 43.6307 495.68 43.44 494.903 43.44C494.184 43.44 493.612 43.594 493.187 43.902C492.761 44.21 492.549 44.6133 492.549 45.112C492.549 45.508 492.673 45.838 492.923 46.102C493.187 46.3513 493.509 46.5567 493.891 46.718C494.287 46.8647 494.829 47.0333 495.519 47.224C496.384 47.4587 497.088 47.6933 497.631 47.928C498.173 48.148 498.635 48.4853 499.017 48.94C499.413 49.3947 499.618 49.9887 499.633 50.722C499.633 51.382 499.449 51.976 499.083 52.504C498.716 53.032 498.195 53.45 497.521 53.758C496.861 54.0513 496.098 54.198 495.233 54.198ZM44.0608 76.594L44.0608 83.7C44.0608 84.2867 44.1855 84.7047 44.4348 84.954C44.6841 85.1887 45.1168 85.306 45.7328 85.306H47.2068L47.2068 87H45.4028C44.2881 87 43.4521 86.7433 42.8948 86.23C42.3375 85.7167 42.0588 84.8733 42.0588 83.7L42.0588 76.594H40.4968V74.944H42.0588V71.908H44.0608V74.944H47.2068V76.594H44.0608ZM55.6165 74.724C56.5258 74.724 57.3471 74.922 58.0805 75.318C58.8138 75.6993 59.3858 76.2787 59.7965 77.056C60.2218 77.8333 60.4345 78.7793 60.4345 79.894V87H58.4545V80.18C58.4545 78.9773 58.1538 78.0607 57.5525 77.43C56.9511 76.7847 56.1298 76.462 55.0885 76.462C54.0325 76.462 53.1891 76.792 52.5585 77.452C51.9425 78.112 51.6345 79.0727 51.6345 80.334L51.6345 87H49.6325L49.6325 70.72H51.6345V76.66C52.0305 76.044 52.5731 75.5673 53.2625 75.23C53.9665 74.8927 54.7511 74.724 55.6165 74.724ZM65.7067 76.902C66.0587 76.2127 66.5574 75.6773 67.2027 75.296C67.8627 74.9147 68.6621 74.724 69.6007 74.724V76.792H69.0727C66.8287 76.792 65.7067 78.0093 65.7067 80.444V87H63.7047V74.944H65.7067V76.902ZM77.1698 87.198C76.0404 87.198 75.0138 86.9413 74.0898 86.428C73.1804 85.9147 72.4618 85.1887 71.9338 84.25C71.4204 83.2967 71.1638 82.1967 71.1638 80.95C71.1638 79.718 71.4278 78.6327 71.9558 77.694C72.4984 76.7407 73.2318 76.0147 74.1558 75.516C75.0798 75.0027 76.1138 74.746 77.2578 74.746C78.4018 74.746 79.4358 75.0027 80.3598 75.516C81.2838 76.0147 82.0098 76.7333 82.5378 77.672C83.0804 78.6107 83.3518 79.7033 83.3518 80.95C83.3518 82.1967 83.0731 83.2967 82.5158 84.25C81.9731 85.1887 81.2324 85.9147 80.2938 86.428C79.3551 86.9413 78.3138 87.198 77.1698 87.198ZM77.1698 85.438C77.8884 85.438 78.5631 85.2693 79.1938 84.932C79.8244 84.5947 80.3304 84.0887 80.7118 83.414C81.1078 82.7393 81.3058 81.918 81.3058 80.95C81.3058 79.982 81.1151 79.1607 80.7338 78.486C80.3524 77.8113 79.8538 77.3127 79.2378 76.99C78.6218 76.6527 77.9544 76.484 77.2358 76.484C76.5024 76.484 75.8278 76.6527 75.2118 76.99C74.6104 77.3127 74.1264 77.8113 73.7598 78.486C73.3931 79.1607 73.2098 79.982 73.2098 80.95C73.2098 81.9327 73.3858 82.7613 73.7378 83.436C74.1044 84.1107 74.5884 84.6167 75.1898 84.954C75.7911 85.2767 76.4511 85.438 77.1698 85.438ZM96.676 74.944V87H94.674V85.218C94.2927 85.834 93.7574 86.318 93.068 86.67C92.3934 87.0073 91.6454 87.176 90.824 87.176C89.8854 87.176 89.042 86.9853 88.294 86.604C87.546 86.208 86.952 85.6213 86.512 84.844C86.0867 84.0667 85.874 83.1207 85.874 82.006V74.944H87.854V81.742C87.854 82.93 88.1547 83.8467 88.756 84.492C89.3574 85.1227 90.1787 85.438 91.22 85.438C92.2907 85.438 93.134 85.108 93.75 84.448C94.366 83.788 94.674 82.8273 94.674 81.566V74.944H96.676ZM105.028 74.746C106.07 74.746 106.979 74.9733 107.756 75.428C108.548 75.8827 109.135 76.4547 109.516 77.144V74.944H111.54V87.264C111.54 88.364 111.306 89.3393 110.836 90.19C110.367 91.0553 109.692 91.73 108.812 92.214C107.947 92.698 106.935 92.94 105.776 92.94C104.192 92.94 102.872 92.566 101.816 91.818C100.76 91.07 100.137 90.0507 99.9463 88.76H101.926C102.146 89.4933 102.601 90.08 103.29 90.52C103.98 90.9747 104.808 91.202 105.776 91.202C106.876 91.202 107.771 90.8573 108.46 90.168C109.164 89.4787 109.516 88.5107 109.516 87.264V84.734C109.12 85.438 108.534 86.0247 107.756 86.494C106.979 86.9633 106.07 87.198 105.028 87.198C103.958 87.198 102.982 86.934 102.102 86.406C101.237 85.878 100.555 85.1373 100.056 84.184C99.5576 83.2307 99.3083 82.1453 99.3083 80.928C99.3083 79.696 99.5576 78.618 100.056 77.694C100.555 76.7553 101.237 76.0293 102.102 75.516C102.982 75.0027 103.958 74.746 105.028 74.746ZM109.516 80.95C109.516 80.0407 109.333 79.2487 108.966 78.574C108.6 77.8993 108.101 77.386 107.47 77.034C106.854 76.6673 106.172 76.484 105.424 76.484C104.676 76.484 103.994 76.66 103.378 77.012C102.762 77.364 102.271 77.8773 101.904 78.552C101.538 79.2267 101.354 80.0187 101.354 80.928C101.354 81.852 101.538 82.6587 101.904 83.348C102.271 84.0227 102.762 84.5433 103.378 84.91C103.994 85.262 104.676 85.438 105.424 85.438C106.172 85.438 106.854 85.262 107.47 84.91C108.101 84.5433 108.6 84.0227 108.966 83.348C109.333 82.6587 109.516 81.8593 109.516 80.95ZM120.907 74.724C121.817 74.724 122.638 74.922 123.371 75.318C124.105 75.6993 124.677 76.2787 125.087 77.056C125.513 77.8333 125.725 78.7793 125.725 79.894V87H123.745V80.18C123.745 78.9773 123.445 78.0607 122.843 77.43C122.242 76.7847 121.421 76.462 120.379 76.462C119.323 76.462 118.48 76.792 117.849 77.452C117.233 78.112 116.925 79.0727 116.925 80.334V87H114.923V70.72H116.925V76.66C117.321 76.044 117.864 75.5673 118.553 75.23C119.257 74.8927 120.042 74.724 120.907 74.724ZM134.254 87.198C133.124 87.198 132.098 86.9413 131.174 86.428C130.264 85.9147 129.546 85.1887 129.018 84.25C128.504 83.2967 128.248 82.1967 128.248 80.95C128.248 79.718 128.512 78.6327 129.04 77.694C129.582 76.7407 130.316 76.0147 131.24 75.516C132.164 75.0027 133.198 74.746 134.342 74.746C135.486 74.746 136.52 75.0027 137.444 75.516C138.368 76.0147 139.094 76.7333 139.622 77.672C140.164 78.6107 140.436 79.7033 140.436 80.95C140.436 82.1967 140.157 83.2967 139.6 84.25C139.057 85.1887 138.316 85.9147 137.378 86.428C136.439 86.9413 135.398 87.198 134.254 87.198ZM134.254 85.438C134.972 85.438 135.647 85.2693 136.278 84.932C136.908 84.5947 137.414 84.0887 137.796 83.414C138.192 82.7393 138.39 81.918 138.39 80.95C138.39 79.982 138.199 79.1607 137.818 78.486C137.436 77.8113 136.938 77.3127 136.322 76.99C135.706 76.6527 135.038 76.484 134.32 76.484C133.586 76.484 132.912 76.6527 132.296 76.99C131.694 77.3127 131.21 77.8113 130.844 78.486C130.477 79.1607 130.294 79.982 130.294 80.95C130.294 81.9327 130.47 82.7613 130.822 83.436C131.188 84.1107 131.672 84.6167 132.274 84.954C132.875 85.2767 133.535 85.438 134.254 85.438ZM153.76 74.944V87H151.758V85.218C151.377 85.834 150.841 86.318 150.152 86.67C149.477 87.0073 148.729 87.176 147.908 87.176C146.969 87.176 146.126 86.9853 145.378 86.604C144.63 86.208 144.036 85.6213 143.596 84.844C143.171 84.0667 142.958 83.1207 142.958 82.006V74.944H144.938V81.742C144.938 82.93 145.239 83.8467 145.84 84.492C146.441 85.1227 147.263 85.438 148.304 85.438C149.375 85.438 150.218 85.108 150.834 84.448C151.45 83.788 151.758 82.8273 151.758 81.566V74.944H153.76ZM159.582 76.594V83.7C159.582 84.2867 159.707 84.7047 159.956 84.954C160.206 85.1887 160.638 85.306 161.254 85.306H162.728V87H160.924C159.81 87 158.974 86.7433 158.416 86.23C157.859 85.7167 157.58 84.8733 157.58 83.7V76.594H156.018V74.944H157.58V71.908H159.582V74.944H162.728V76.594H159.582ZM173.461 76.594V83.7C173.461 84.2867 173.586 84.7047 173.835 84.954C174.085 85.1887 174.517 85.306 175.133 85.306H176.607V87H174.803C173.689 87 172.853 86.7433 172.295 86.23C171.738 85.7167 171.459 84.8733 171.459 83.7V76.594H169.897V74.944H171.459V71.908H173.461V74.944H176.607V76.594H173.461ZM185.017 74.724C185.926 74.724 186.748 74.922 187.481 75.318C188.214 75.6993 188.786 76.2787 189.197 77.056C189.622 77.8333 189.835 78.7793 189.835 79.894V87H187.855V80.18C187.855 78.9773 187.554 78.0607 186.953 77.43C186.352 76.7847 185.53 76.462 184.489 76.462C183.433 76.462 182.59 76.792 181.959 77.452C181.343 78.112 181.035 79.0727 181.035 80.334V87H179.033V70.72H181.035V76.66C181.431 76.044 181.974 75.5673 182.663 75.23C183.367 74.8927 184.152 74.724 185.017 74.724ZM204.105 80.51C204.105 80.8913 204.083 81.2947 204.039 81.72H194.403C194.476 82.908 194.88 83.8393 195.613 84.514C196.361 85.174 197.263 85.504 198.319 85.504C199.184 85.504 199.903 85.306 200.475 84.91C201.062 84.4993 201.472 83.9567 201.707 83.282H203.863C203.54 84.4407 202.895 85.3867 201.927 86.12C200.959 86.8387 199.756 87.198 198.319 87.198C197.175 87.198 196.148 86.9413 195.239 86.428C194.344 85.9147 193.64 85.1887 193.127 84.25C192.614 83.2967 192.357 82.1967 192.357 80.95C192.357 79.7033 192.606 78.6107 193.105 77.672C193.604 76.7333 194.3 76.0147 195.195 75.516C196.104 75.0027 197.146 74.746 198.319 74.746C199.463 74.746 200.475 74.9953 201.355 75.494C202.235 75.9927 202.91 76.682 203.379 77.562C203.863 78.4273 204.105 79.41 204.105 80.51ZM202.037 80.092C202.037 79.3293 201.868 78.6767 201.531 78.134C201.194 77.5767 200.732 77.1587 200.145 76.88C199.573 76.5867 198.935 76.44 198.231 76.44C197.219 76.44 196.354 76.7627 195.635 77.408C194.931 78.0533 194.528 78.948 194.425 80.092H202.037ZM211.865 80.95C211.865 79.7033 212.114 78.618 212.613 77.694C213.112 76.7553 213.801 76.0293 214.681 75.516C215.576 75.0027 216.595 74.746 217.739 74.746C219.22 74.746 220.438 75.1053 221.391 75.824C222.359 76.5427 222.997 77.54 223.305 78.816H221.149C220.944 78.0827 220.54 77.5033 219.939 77.078C219.352 76.6527 218.619 76.44 217.739 76.44C216.595 76.44 215.671 76.836 214.967 77.628C214.263 78.4053 213.911 79.5127 213.911 80.95C213.911 82.402 214.263 83.524 214.967 84.316C215.671 85.108 216.595 85.504 217.739 85.504C218.619 85.504 219.352 85.2987 219.939 84.888C220.526 84.4773 220.929 83.8907 221.149 83.128H223.305C222.982 84.36 222.337 85.35 221.369 86.098C220.401 86.8313 219.191 87.198 217.739 87.198C216.595 87.198 215.576 86.9413 214.681 86.428C213.801 85.9147 213.112 85.1887 212.613 84.25C212.114 83.3113 211.865 82.2113 211.865 80.95ZM231.234 87.198C230.105 87.198 229.078 86.9413 228.154 86.428C227.245 85.9147 226.526 85.1887 225.998 84.25C225.485 83.2967 225.228 82.1967 225.228 80.95C225.228 79.718 225.492 78.6327 226.02 77.694C226.563 76.7407 227.296 76.0147 228.22 75.516C229.144 75.0027 230.178 74.746 231.322 74.746C232.466 74.746 233.5 75.0027 234.424 75.516C235.348 76.0147 236.074 76.7333 236.602 77.672C237.145 78.6107 237.416 79.7033 237.416 80.95C237.416 82.1967 237.138 83.2967 236.58 84.25C236.038 85.1887 235.297 85.9147 234.358 86.428C233.42 86.9413 232.378 87.198 231.234 87.198ZM231.234 85.438C231.953 85.438 232.628 85.2693 233.258 84.932C233.889 84.5947 234.395 84.0887 234.776 83.414C235.172 82.7393 235.37 81.918 235.37 80.95C235.37 79.982 235.18 79.1607 234.798 78.486C234.417 77.8113 233.918 77.3127 233.302 76.99C232.686 76.6527 232.019 76.484 231.3 76.484C230.567 76.484 229.892 76.6527 229.276 76.99C228.675 77.3127 228.191 77.8113 227.824 78.486C227.458 79.1607 227.274 79.982 227.274 80.95C227.274 81.9327 227.45 82.7613 227.802 83.436C228.169 84.1107 228.653 84.6167 229.254 84.954C229.856 85.2767 230.516 85.438 231.234 85.438ZM239.3 80.928C239.3 79.696 239.55 78.618 240.048 77.694C240.547 76.7553 241.229 76.0293 242.094 75.516C242.974 75.0027 243.95 74.746 245.02 74.746C246.076 74.746 246.993 74.9733 247.77 75.428C248.548 75.8827 249.127 76.4547 249.508 77.144V74.944H251.532V87H249.508V84.756C249.112 85.46 248.518 86.0467 247.726 86.516C246.949 86.9707 246.04 87.198 244.998 87.198C243.928 87.198 242.96 86.934 242.094 86.406C241.229 85.878 240.547 85.1373 240.048 84.184C239.55 83.2307 239.3 82.1453 239.3 80.928ZM249.508 80.95C249.508 80.0407 249.325 79.2487 248.958 78.574C248.592 77.8993 248.093 77.386 247.462 77.034C246.846 76.6673 246.164 76.484 245.416 76.484C244.668 76.484 243.986 76.66 243.37 77.012C242.754 77.364 242.263 77.8773 241.896 78.552C241.53 79.2267 241.346 80.0187 241.346 80.928C241.346 81.852 241.53 82.6587 241.896 83.348C242.263 84.0227 242.754 84.5433 243.37 84.91C243.986 85.262 244.668 85.438 245.416 85.438C246.164 85.438 246.846 85.262 247.462 84.91C248.093 84.5433 248.592 84.0227 248.958 83.348C249.325 82.6587 249.508 81.8593 249.508 80.95ZM259.184 87.198C258.26 87.198 257.431 87.044 256.698 86.736C255.964 86.4133 255.385 85.9733 254.96 85.416C254.534 84.844 254.3 84.1913 254.256 83.458H256.324C256.382 84.0593 256.661 84.5507 257.16 84.932C257.673 85.3133 258.34 85.504 259.162 85.504C259.924 85.504 260.526 85.3353 260.966 84.998C261.406 84.6607 261.626 84.2353 261.626 83.722C261.626 83.194 261.391 82.8053 260.922 82.556C260.452 82.292 259.726 82.0353 258.744 81.786C257.849 81.5513 257.116 81.3167 256.544 81.082C255.986 80.8327 255.502 80.4733 255.092 80.004C254.696 79.52 254.498 78.8893 254.498 78.112C254.498 77.496 254.681 76.9313 255.048 76.418C255.414 75.9047 255.935 75.5013 256.61 75.208C257.284 74.9 258.054 74.746 258.92 74.746C260.254 74.746 261.332 75.0833 262.154 75.758C262.975 76.4327 263.415 77.3567 263.474 78.53H261.472C261.428 77.8993 261.171 77.3933 260.702 77.012C260.247 76.6307 259.631 76.44 258.854 76.44C258.135 76.44 257.563 76.594 257.138 76.902C256.712 77.21 256.5 77.6133 256.5 78.112C256.5 78.508 256.624 78.838 256.874 79.102C257.138 79.3513 257.46 79.5567 257.842 79.718C258.238 79.8647 258.78 80.0333 259.47 80.224C260.335 80.4587 261.039 80.6933 261.582 80.928C262.124 81.148 262.586 81.4853 262.968 81.94C263.364 82.3947 263.569 82.9887 263.584 83.722C263.584 84.382 263.4 84.976 263.034 85.504C262.667 86.032 262.146 86.45 261.472 86.758C260.812 87.0513 260.049 87.198 259.184 87.198ZM268.852 76.594V83.7C268.852 84.2867 268.976 84.7047 269.226 84.954C269.475 85.1887 269.908 85.306 270.524 85.306H271.998V87H270.194C269.079 87 268.243 86.7433 267.686 86.23C267.128 85.7167 266.85 84.8733 266.85 83.7V76.594H265.288V74.944H266.85V71.908H268.852V74.944H271.998V76.594H268.852ZM276.491 84.228L274.027 90.146H272.685L274.291 84.228H276.491ZM286.652 77.166C287.048 76.4767 287.635 75.9047 288.412 75.45C289.204 74.9807 290.121 74.746 291.162 74.746C292.233 74.746 293.201 75.0027 294.066 75.516C294.946 76.0293 295.635 76.7553 296.134 77.694C296.633 78.618 296.882 79.696 296.882 80.928C296.882 82.1453 296.633 83.2307 296.134 84.184C295.635 85.1373 294.946 85.878 294.066 86.406C293.201 86.934 292.233 87.198 291.162 87.198C290.135 87.198 289.226 86.9707 288.434 86.516C287.657 86.0467 287.063 85.4673 286.652 84.778V92.72H284.65V74.944H286.652V77.166ZM294.836 80.928C294.836 80.0187 294.653 79.2267 294.286 78.552C293.919 77.8773 293.421 77.364 292.79 77.012C292.174 76.66 291.492 76.484 290.744 76.484C290.011 76.484 289.329 76.6673 288.698 77.034C288.082 77.386 287.583 77.9067 287.202 78.596C286.835 79.2707 286.652 80.0553 286.652 80.95C286.652 81.8593 286.835 82.6587 287.202 83.348C287.583 84.0227 288.082 84.5433 288.698 84.91C289.329 85.262 290.011 85.438 290.744 85.438C291.492 85.438 292.174 85.262 292.79 84.91C293.421 84.5433 293.919 84.0227 294.286 83.348C294.653 82.6587 294.836 81.852 294.836 80.928ZM301.519 76.902C301.871 76.2127 302.37 75.6773 303.015 75.296C303.675 74.9147 304.475 74.724 305.413 74.724V76.792H304.885C302.641 76.792 301.519 78.0093 301.519 80.444V87H299.517V74.944H301.519V76.902ZM312.982 87.198C311.853 87.198 310.826 86.9413 309.902 86.428C308.993 85.9147 308.274 85.1887 307.746 84.25C307.233 83.2967 306.976 82.1967 306.976 80.95C306.976 79.718 307.24 78.6327 307.768 77.694C308.311 76.7407 309.044 76.0147 309.968 75.516C310.892 75.0027 311.926 74.746 313.07 74.746C314.214 74.746 315.248 75.0027 316.172 75.516C317.096 76.0147 317.822 76.7333 318.35 77.672C318.893 78.6107 319.164 79.7033 319.164 80.95C319.164 82.1967 318.886 83.2967 318.328 84.25C317.786 85.1887 317.045 85.9147 316.106 86.428C315.168 86.9413 314.126 87.198 312.982 87.198ZM312.982 85.438C313.701 85.438 314.376 85.2693 315.006 84.932C315.637 84.5947 316.143 84.0887 316.524 83.414C316.92 82.7393 317.118 81.918 317.118 80.95C317.118 79.982 316.928 79.1607 316.546 78.486C316.165 77.8113 315.666 77.3127 315.05 76.99C314.434 76.6527 313.767 76.484 313.048 76.484C312.315 76.484 311.64 76.6527 311.024 76.99C310.423 77.3127 309.939 77.8113 309.572 78.486C309.206 79.1607 309.022 79.982 309.022 80.95C309.022 81.9327 309.198 82.7613 309.55 83.436C309.917 84.1107 310.401 84.6167 311.002 84.954C311.604 85.2767 312.264 85.438 312.982 85.438ZM324.239 76.594V83.7C324.239 84.2867 324.363 84.7047 324.613 84.954C324.862 85.1887 325.295 85.306 325.911 85.306H327.385V87H325.581C324.466 87 323.63 86.7433 323.073 86.23C322.515 85.7167 322.237 84.8733 322.237 83.7V76.594H320.675V74.944H322.237V71.908H324.239V74.944H327.385V76.594H324.239ZM340.81 80.51C340.81 80.8913 340.788 81.2947 340.744 81.72H331.108C331.182 82.908 331.585 83.8393 332.318 84.514C333.066 85.174 333.968 85.504 335.024 85.504C335.89 85.504 336.608 85.306 337.18 84.91C337.767 84.4993 338.178 83.9567 338.412 83.282H340.568C340.246 84.4407 339.6 85.3867 338.632 86.12C337.664 86.8387 336.462 87.198 335.024 87.198C333.88 87.198 332.854 86.9413 331.944 86.428C331.05 85.9147 330.346 85.1887 329.832 84.25C329.319 83.2967 329.062 82.1967 329.062 80.95C329.062 79.7033 329.312 78.6107 329.81 77.672C330.309 76.7333 331.006 76.0147 331.9 75.516C332.81 75.0027 333.851 74.746 335.024 74.746C336.168 74.746 337.18 74.9953 338.06 75.494C338.94 75.9927 339.615 76.682 340.084 77.562C340.568 78.4273 340.81 79.41 340.81 80.51ZM338.742 80.092C338.742 79.3293 338.574 78.6767 338.236 78.134C337.899 77.5767 337.437 77.1587 336.85 76.88C336.278 76.5867 335.64 76.44 334.936 76.44C333.924 76.44 333.059 76.7627 332.34 77.408C331.636 78.0533 331.233 78.948 331.13 80.092H338.742ZM342.705 80.95C342.705 79.7033 342.954 78.618 343.453 77.694C343.951 76.7553 344.641 76.0293 345.521 75.516C346.415 75.0027 347.435 74.746 348.579 74.746C350.06 74.746 351.277 75.1053 352.231 75.824C353.199 76.5427 353.837 77.54 354.145 78.816H351.989C351.783 78.0827 351.38 77.5033 350.779 77.078C350.192 76.6527 349.459 76.44 348.579 76.44C347.435 76.44 346.511 76.836 345.807 77.628C345.103 78.4053 344.751 79.5127 344.751 80.95C344.751 82.402 345.103 83.524 345.807 84.316C346.511 85.108 347.435 85.504 348.579 85.504C349.459 85.504 350.192 85.2987 350.779 84.888C351.365 84.4773 351.769 83.8907 351.989 83.128H354.145C353.822 84.36 353.177 85.35 352.209 86.098C351.241 86.8313 350.031 87.198 348.579 87.198C347.435 87.198 346.415 86.9413 345.521 86.428C344.641 85.9147 343.951 85.1887 343.453 84.25C342.954 83.3113 342.705 82.2113 342.705 80.95ZM359.258 76.594V83.7C359.258 84.2867 359.383 84.7047 359.632 84.954C359.881 85.1887 360.314 85.306 360.93 85.306H362.404V87H360.6C359.485 87 358.649 86.7433 358.092 86.23C357.535 85.7167 357.256 84.8733 357.256 83.7V76.594H355.694V74.944H357.256V71.908H359.258V74.944H362.404V76.594H359.258ZM365.864 72.986C365.482 72.986 365.16 72.854 364.896 72.59C364.632 72.326 364.5 72.0033 364.5 71.622C364.5 71.2407 364.632 70.918 364.896 70.654C365.16 70.39 365.482 70.258 365.864 70.258C366.23 70.258 366.538 70.39 366.788 70.654C367.052 70.918 367.184 71.2407 367.184 71.622C367.184 72.0033 367.052 72.326 366.788 72.59C366.538 72.854 366.23 72.986 365.864 72.986ZM366.832 74.944V87H364.83V74.944H366.832ZM376.118 74.724C377.584 74.724 378.772 75.1713 379.682 76.066C380.591 76.946 381.046 78.222 381.046 79.894V87H379.066V80.18C379.066 78.9773 378.765 78.0607 378.164 77.43C377.562 76.7847 376.741 76.462 375.7 76.462C374.644 76.462 373.8 76.792 373.17 77.452C372.554 78.112 372.246 79.0727 372.246 80.334V87H370.244V74.944H372.246V76.66C372.642 76.044 373.177 75.5673 373.852 75.23C374.541 74.8927 375.296 74.724 376.118 74.724ZM389.288 74.746C390.329 74.746 391.239 74.9733 392.016 75.428C392.808 75.8827 393.395 76.4547 393.776 77.144V74.944H395.8V87.264C395.8 88.364 395.565 89.3393 395.096 90.19C394.627 91.0553 393.952 91.73 393.072 92.214C392.207 92.698 391.195 92.94 390.036 92.94C388.452 92.94 387.132 92.566 386.076 91.818C385.02 91.07 384.397 90.0507 384.206 88.76H386.186C386.406 89.4933 386.861 90.08 387.55 90.52C388.239 90.9747 389.068 91.202 390.036 91.202C391.136 91.202 392.031 90.8573 392.72 90.168C393.424 89.4787 393.776 88.5107 393.776 87.264V84.734C393.38 85.438 392.793 86.0247 392.016 86.494C391.239 86.9633 390.329 87.198 389.288 87.198C388.217 87.198 387.242 86.934 386.362 86.406C385.497 85.878 384.815 85.1373 384.316 84.184C383.817 83.2307 383.568 82.1453 383.568 80.928C383.568 79.696 383.817 78.618 384.316 77.694C384.815 76.7553 385.497 76.0293 386.362 75.516C387.242 75.0027 388.217 74.746 389.288 74.746ZM393.776 80.95C393.776 80.0407 393.593 79.2487 393.226 78.574C392.859 77.8993 392.361 77.386 391.73 77.034C391.114 76.6673 390.432 76.484 389.684 76.484C388.936 76.484 388.254 76.66 387.638 77.012C387.022 77.364 386.531 77.8773 386.164 78.552C385.797 79.2267 385.614 80.0187 385.614 80.928C385.614 81.852 385.797 82.6587 386.164 83.348C386.531 84.0227 387.022 84.5433 387.638 84.91C388.254 85.262 388.936 85.438 389.684 85.438C390.432 85.438 391.114 85.262 391.73 84.91C392.361 84.5433 392.859 84.0227 393.226 83.348C393.593 82.6587 393.776 81.8593 393.776 80.95ZM407.49 76.594V83.7C407.49 84.2867 407.615 84.7047 407.864 84.954C408.114 85.1887 408.546 85.306 409.162 85.306H410.636V87H408.832C407.718 87 406.882 86.7433 406.324 86.23C405.767 85.7167 405.488 84.8733 405.488 83.7V76.594H403.926V74.944H405.488V71.908H407.49V74.944H410.636V76.594H407.49ZM419.046 74.724C419.955 74.724 420.777 74.922 421.51 75.318C422.243 75.6993 422.815 76.2787 423.226 77.056C423.651 77.8333 423.864 78.7793 423.864 79.894V87H421.884V80.18C421.884 78.9773 421.583 78.0607 420.982 77.43C420.381 76.7847 419.559 76.462 418.518 76.462C417.462 76.462 416.619 76.792 415.988 77.452C415.372 78.112 415.064 79.0727 415.064 80.334V87H413.062V70.72H415.064V76.66C415.46 76.044 416.003 75.5673 416.692 75.23C417.396 74.8927 418.181 74.724 419.046 74.724ZM438.134 80.51C438.134 80.8913 438.112 81.2947 438.068 81.72H428.432C428.506 82.908 428.909 83.8393 429.642 84.514C430.39 85.174 431.292 85.504 432.348 85.504C433.214 85.504 433.932 85.306 434.504 84.91C435.091 84.4993 435.502 83.9567 435.736 83.282H437.892C437.57 84.4407 436.924 85.3867 435.956 86.12C434.988 86.8387 433.786 87.198 432.348 87.198C431.204 87.198 430.178 86.9413 429.268 86.428C428.374 85.9147 427.67 85.1887 427.156 84.25C426.643 83.2967 426.386 82.1967 426.386 80.95C426.386 79.7033 426.636 78.6107 427.134 77.672C427.633 76.7333 428.33 76.0147 429.224 75.516C430.134 75.0027 431.175 74.746 432.348 74.746C433.492 74.746 434.504 74.9953 435.384 75.494C436.264 75.9927 436.939 76.682 437.408 77.562C437.892 78.4273 438.134 79.41 438.134 80.51ZM436.066 80.092C436.066 79.3293 435.898 78.6767 435.56 78.134C435.223 77.5767 434.761 77.1587 434.174 76.88C433.602 76.5867 432.964 76.44 432.26 76.44C431.248 76.44 430.383 76.7627 429.664 77.408C428.96 78.0533 428.557 78.948 428.454 80.092H436.066ZM441.811 72.986C441.43 72.986 441.107 72.854 440.843 72.59C440.579 72.326 440.447 72.0033 440.447 71.622C440.447 71.2407 440.579 70.918 440.843 70.654C441.107 70.39 441.43 70.258 441.811 70.258C442.178 70.258 442.486 70.39 442.735 70.654C442.999 70.918 443.131 71.2407 443.131 71.622C443.131 72.0033 442.999 72.326 442.735 72.59C442.486 72.854 442.178 72.986 441.811 72.986ZM442.779 74.944V87H440.777V74.944H442.779ZM448.193 76.902C448.545 76.2127 449.044 75.6773 449.689 75.296C450.349 74.9147 451.148 74.724 452.087 74.724V76.792H451.559C449.315 76.792 448.193 78.0093 448.193 80.444V87H446.191V74.944H448.193V76.902ZM462.265 77.166C462.661 76.4767 463.248 75.9047 464.025 75.45C464.817 74.9807 465.734 74.746 466.775 74.746C467.846 74.746 468.814 75.0027 469.679 75.516C470.559 76.0293 471.249 76.7553 471.747 77.694C472.246 78.618 472.495 79.696 472.495 80.928C472.495 82.1453 472.246 83.2307 471.747 84.184C471.249 85.1373 470.559 85.878 469.679 86.406C468.814 86.934 467.846 87.198 466.775 87.198C465.749 87.198 464.839 86.9707 464.047 86.516C463.27 86.0467 462.676 85.4673 462.265 84.778V92.72H460.263V74.944H462.265V77.166ZM470.449 80.928C470.449 80.0187 470.266 79.2267 469.899 78.552C469.533 77.8773 469.034 77.364 468.403 77.012C467.787 76.66 467.105 76.484 466.357 76.484C465.624 76.484 464.942 76.6673 464.311 77.034C463.695 77.386 463.197 77.9067 462.815 78.596C462.449 79.2707 462.265 80.0553 462.265 80.95C462.265 81.8593 462.449 82.6587 462.815 83.348C463.197 84.0227 463.695 84.5433 464.311 84.91C464.942 85.262 465.624 85.438 466.357 85.438C467.105 85.438 467.787 85.262 468.403 84.91C469.034 84.5433 469.533 84.0227 469.899 83.348C470.266 82.6587 470.449 81.852 470.449 80.928ZM486.131 80.51C486.131 80.8913 486.109 81.2947 486.065 81.72H476.429C476.502 82.908 476.905 83.8393 477.639 84.514C478.387 85.174 479.289 85.504 480.345 85.504C481.21 85.504 481.929 85.306 482.501 84.91C483.087 84.4993 483.498 83.9567 483.733 83.282H485.889C485.566 84.4407 484.921 85.3867 483.953 86.12C482.985 86.8387 481.782 87.198 480.345 87.198C479.201 87.198 478.174 86.9413 477.265 86.428C476.37 85.9147 475.666 85.1887 475.153 84.25C474.639 83.2967 474.383 82.1967 474.383 80.95C474.383 79.7033 474.632 78.6107 475.131 77.672C475.629 76.7333 476.326 76.0147 477.221 75.516C478.13 75.0027 479.171 74.746 480.345 74.746C481.489 74.746 482.501 74.9953 483.381 75.494C484.261 75.9927 484.935 76.682 485.405 77.562C485.889 78.4273 486.131 79.41 486.131 80.51ZM484.063 80.092C484.063 79.3293 483.894 78.6767 483.557 78.134C483.219 77.5767 482.757 77.1587 482.171 76.88C481.599 76.5867 480.961 76.44 480.257 76.44C479.245 76.44 478.379 76.7627 477.661 77.408C476.957 78.0533 476.553 78.948 476.451 80.092H484.063ZM494.031 87.198C492.902 87.198 491.875 86.9413 490.951 86.428C490.042 85.9147 489.323 85.1887 488.795 84.25C488.282 83.2967 488.025 82.1967 488.025 80.95C488.025 79.718 488.289 78.6327 488.817 77.694C489.36 76.7407 490.093 76.0147 491.017 75.516C491.941 75.0027 492.975 74.746 494.119 74.746C495.263 74.746 496.297 75.0027 497.221 75.516C498.145 76.0147 498.871 76.7333 499.399 77.672C499.942 78.6107 500.213 79.7033 500.213 80.95C500.213 82.1967 499.934 83.2967 499.377 84.25C498.834 85.1887 498.094 85.9147 497.155 86.428C496.216 86.9413 495.175 87.198 494.031 87.198ZM494.031 85.438C494.75 85.438 495.424 85.2693 496.055 84.932C496.686 84.5947 497.192 84.0887 497.573 83.414C497.969 82.7393 498.167 81.918 498.167 80.95C498.167 79.982 497.976 79.1607 497.595 78.486C497.214 77.8113 496.715 77.3127 496.099 76.99C495.483 76.6527 494.816 76.484 494.097 76.484C493.364 76.484 492.689 76.6527 492.073 76.99C491.472 77.3127 490.988 77.8113 490.621 78.486C490.254 79.1607 490.071 79.982 490.071 80.95C490.071 81.9327 490.247 82.7613 490.599 83.436C490.966 84.1107 491.45 84.6167 492.051 84.954C492.652 85.2767 493.312 85.438 494.031 85.438ZM504.847 77.166C505.243 76.4767 505.83 75.9047 506.607 75.45C507.399 74.9807 508.316 74.746 509.357 74.746C510.428 74.746 511.396 75.0027 512.261 75.516C513.141 76.0293 513.831 76.7553 514.329 77.694C514.828 78.618 515.077 79.696 515.077 80.928C515.077 82.1453 514.828 83.2307 514.329 84.184C513.831 85.1373 513.141 85.878 512.261 86.406C511.396 86.934 510.428 87.198 509.357 87.198C508.331 87.198 507.421 86.9707 506.629 86.516C505.852 86.0467 505.258 85.4673 504.847 84.778V92.72H502.845V74.944H504.847V77.166ZM513.031 80.928C513.031 80.0187 512.848 79.2267 512.481 78.552C512.115 77.8773 511.616 77.364 510.985 77.012C510.369 76.66 509.687 76.484 508.939 76.484C508.206 76.484 507.524 76.6673 506.893 77.034C506.277 77.386 505.779 77.9067 505.397 78.596C505.031 79.2707 504.847 80.0553 504.847 80.95C504.847 81.8593 505.031 82.6587 505.397 83.348C505.779 84.0227 506.277 84.5433 506.893 84.91C507.524 85.262 508.206 85.438 508.939 85.438C509.687 85.438 510.369 85.262 510.985 84.91C511.616 84.5433 512.115 84.0227 512.481 83.348C512.848 82.6587 513.031 81.852 513.031 80.928ZM519.715 70.72V87H517.713V70.72H519.715ZM534.127 80.51C534.127 80.8913 534.105 81.2947 534.061 81.72H524.425C524.498 82.908 524.901 83.8393 525.635 84.514C526.383 85.174 527.285 85.504 528.341 85.504C529.206 85.504 529.925 85.306 530.497 84.91C531.083 84.4993 531.494 83.9567 531.729 83.282H533.885C533.562 84.4407 532.917 85.3867 531.949 86.12C530.981 86.8387 529.778 87.198 528.341 87.198C527.197 87.198 526.17 86.9413 525.261 86.428C524.366 85.9147 523.662 85.1887 523.149 84.25C522.635 83.2967 522.379 82.1967 522.379 80.95C522.379 79.7033 522.628 78.6107 523.127 77.672C523.625 76.7333 524.322 76.0147 525.217 75.516C526.126 75.0027 527.167 74.746 528.341 74.746C529.485 74.746 530.497 74.9953 531.377 75.494C532.257 75.9927 532.931 76.682 533.401 77.562C533.885 78.4273 534.127 79.41 534.127 80.51ZM532.059 80.092C532.059 79.3293 531.89 78.6767 531.553 78.134C531.215 77.5767 530.753 77.1587 530.167 76.88C529.595 76.5867 528.957 76.44 528.253 76.44C527.241 76.44 526.375 76.7627 525.657 77.408C524.953 78.0533 524.549 78.948 524.447 80.092H532.059ZM225.919 109.594H223.389V120H221.387V109.594H219.825V107.944H221.387V107.086C221.387 105.737 221.732 104.754 222.421 104.138C223.125 103.507 224.247 103.192 225.787 103.192V104.864C224.907 104.864 224.284 105.04 223.917 105.392C223.565 105.729 223.389 106.294 223.389 107.086V107.944H225.919V109.594ZM230.256 109.902C230.608 109.213 231.106 108.677 231.752 108.296C232.412 107.915 233.211 107.724 234.15 107.724V109.792H233.622C231.378 109.792 230.256 111.009 230.256 113.444V120H228.254V107.944H230.256V109.902ZM241.719 120.198C240.589 120.198 239.563 119.941 238.639 119.428C237.729 118.915 237.011 118.189 236.483 117.25C235.969 116.297 235.713 115.197 235.713 113.95C235.713 112.718 235.977 111.633 236.505 110.694C237.047 109.741 237.781 109.015 238.705 108.516C239.629 108.003 240.663 107.746 241.807 107.746C242.951 107.746 243.985 108.003 244.909 108.516C245.833 109.015 246.559 109.733 247.087 110.672C247.629 111.611 247.901 112.703 247.901 113.95C247.901 115.197 247.622 116.297 247.065 117.25C246.522 118.189 245.781 118.915 244.843 119.428C243.904 119.941 242.863 120.198 241.719 120.198ZM241.719 118.438C242.437 118.438 243.112 118.269 243.743 117.932C244.373 117.595 244.879 117.089 245.261 116.414C245.657 115.739 245.855 114.918 245.855 113.95C245.855 112.982 245.664 112.161 245.283 111.486C244.901 110.811 244.403 110.313 243.787 109.99C243.171 109.653 242.503 109.484 241.785 109.484C241.051 109.484 240.377 109.653 239.761 109.99C239.159 110.313 238.675 110.811 238.309 111.486C237.942 112.161 237.759 112.982 237.759 113.95C237.759 114.933 237.935 115.761 238.287 116.436C238.653 117.111 239.137 117.617 239.739 117.954C240.34 118.277 241 118.438 241.719 118.438ZM265.031 107.724C265.97 107.724 266.806 107.922 267.539 108.318C268.272 108.699 268.852 109.279 269.277 110.056C269.702 110.833 269.915 111.779 269.915 112.894V120H267.935V113.18C267.935 111.977 267.634 111.061 267.033 110.43C266.446 109.785 265.647 109.462 264.635 109.462C263.594 109.462 262.765 109.799 262.149 110.474C261.533 111.134 261.225 112.095 261.225 113.356V120H259.245V113.18C259.245 111.977 258.944 111.061 258.343 110.43C257.756 109.785 256.957 109.462 255.945 109.462C254.904 109.462 254.075 109.799 253.459 110.474C252.843 111.134 252.535 112.095 252.535 113.356V120H250.533V107.944H252.535V109.682C252.931 109.051 253.459 108.567 254.119 108.23C254.794 107.893 255.534 107.724 256.341 107.724C257.353 107.724 258.248 107.951 259.025 108.406C259.802 108.861 260.382 109.528 260.763 110.408C261.1 109.557 261.658 108.897 262.435 108.428C263.212 107.959 264.078 107.724 265.031 107.724ZM281.506 109.594V116.7C281.506 117.287 281.631 117.705 281.88 117.954C282.129 118.189 282.562 118.306 283.178 118.306H284.652V120H282.848C281.733 120 280.897 119.743 280.34 119.23C279.783 118.717 279.504 117.873 279.504 116.7V109.594H277.942V107.944H279.504V104.908H281.506V107.944H284.652V109.594H281.506ZM293.062 107.724C293.971 107.724 294.792 107.922 295.526 108.318C296.259 108.699 296.831 109.279 297.242 110.056C297.667 110.833 297.88 111.779 297.88 112.894V120H295.9V113.18C295.9 111.977 295.599 111.061 294.998 110.43C294.396 109.785 293.575 109.462 292.534 109.462C291.478 109.462 290.634 109.792 290.004 110.452C289.388 111.112 289.08 112.073 289.08 113.334V120H287.078V103.72H289.08V109.66C289.476 109.044 290.018 108.567 290.708 108.23C291.412 107.893 292.196 107.724 293.062 107.724ZM303.152 109.902C303.504 109.213 304.003 108.677 304.648 108.296C305.308 107.915 306.107 107.724 307.046 107.724V109.792H306.518C304.274 109.792 303.152 111.009 303.152 113.444V120H301.15V107.944H303.152V109.902ZM320.357 113.51C320.357 113.891 320.335 114.295 320.291 114.72H310.655C310.728 115.908 311.132 116.839 311.865 117.514C312.613 118.174 313.515 118.504 314.571 118.504C315.436 118.504 316.155 118.306 316.727 117.91C317.314 117.499 317.724 116.957 317.959 116.282H320.115C319.792 117.441 319.147 118.387 318.179 119.12C317.211 119.839 316.008 120.198 314.571 120.198C313.427 120.198 312.4 119.941 311.491 119.428C310.596 118.915 309.892 118.189 309.379 117.25C308.866 116.297 308.609 115.197 308.609 113.95C308.609 112.703 308.858 111.611 309.357 110.672C309.856 109.733 310.552 109.015 311.447 108.516C312.356 108.003 313.398 107.746 314.571 107.746C315.715 107.746 316.727 107.995 317.607 108.494C318.487 108.993 319.162 109.682 319.631 110.562C320.115 111.427 320.357 112.41 320.357 113.51ZM318.289 113.092C318.289 112.329 318.12 111.677 317.783 111.134C317.446 110.577 316.984 110.159 316.397 109.88C315.825 109.587 315.187 109.44 314.483 109.44C313.471 109.44 312.606 109.763 311.887 110.408C311.183 111.053 310.78 111.948 310.677 113.092H318.289ZM322.252 113.928C322.252 112.696 322.501 111.618 323 110.694C323.498 109.755 324.18 109.029 325.046 108.516C325.926 108.003 326.901 107.746 327.972 107.746C329.028 107.746 329.944 107.973 330.722 108.428C331.499 108.883 332.078 109.455 332.46 110.144V107.944H334.484V120H332.46V117.756C332.064 118.46 331.47 119.047 330.678 119.516C329.9 119.971 328.991 120.198 327.95 120.198C326.879 120.198 325.911 119.934 325.046 119.406C324.18 118.878 323.498 118.137 323 117.184C322.501 116.231 322.252 115.145 322.252 113.928ZM332.46 113.95C332.46 113.041 332.276 112.249 331.91 111.574C331.543 110.899 331.044 110.386 330.414 110.034C329.798 109.667 329.116 109.484 328.368 109.484C327.62 109.484 326.938 109.66 326.322 110.012C325.706 110.364 325.214 110.877 324.848 111.552C324.481 112.227 324.298 113.019 324.298 113.928C324.298 114.852 324.481 115.659 324.848 116.348C325.214 117.023 325.706 117.543 326.322 117.91C326.938 118.262 327.62 118.438 328.368 118.438C329.116 118.438 329.798 118.262 330.414 117.91C331.044 117.543 331.543 117.023 331.91 116.348C332.276 115.659 332.46 114.859 332.46 113.95ZM340.309 109.594V116.7C340.309 117.287 340.434 117.705 340.683 117.954C340.932 118.189 341.365 118.306 341.981 118.306H343.455V120H341.651C340.536 120 339.7 119.743 339.143 119.23C338.586 118.717 338.307 117.873 338.307 116.7V109.594H336.745V107.944H338.307V104.908H340.309V107.944H343.455V109.594H340.309ZM350.149 120.198C349.225 120.198 348.396 120.044 347.663 119.736C346.929 119.413 346.35 118.973 345.925 118.416C345.499 117.844 345.265 117.191 345.221 116.458H347.289C347.347 117.059 347.626 117.551 348.125 117.932C348.638 118.313 349.305 118.504 350.127 118.504C350.889 118.504 351.491 118.335 351.931 117.998C352.371 117.661 352.591 117.235 352.591 116.722C352.591 116.194 352.356 115.805 351.887 115.556C351.417 115.292 350.691 115.035 349.709 114.786C348.814 114.551 348.081 114.317 347.509 114.082C346.951 113.833 346.467 113.473 346.057 113.004C345.661 112.52 345.463 111.889 345.463 111.112C345.463 110.496 345.646 109.931 346.013 109.418C346.379 108.905 346.9 108.501 347.575 108.208C348.249 107.9 349.019 107.746 349.885 107.746C351.219 107.746 352.297 108.083 353.119 108.758C353.94 109.433 354.38 110.357 354.439 111.53H352.437C352.393 110.899 352.136 110.393 351.667 110.012C351.212 109.631 350.596 109.44 349.819 109.44C349.1 109.44 348.528 109.594 348.103 109.902C347.677 110.21 347.465 110.613 347.465 111.112C347.465 111.508 347.589 111.838 347.839 112.102C348.103 112.351 348.425 112.557 348.807 112.718C349.203 112.865 349.745 113.033 350.435 113.224C351.3 113.459 352.004 113.693 352.547 113.928C353.089 114.148 353.551 114.485 353.933 114.94C354.329 115.395 354.534 115.989 354.549 116.722C354.549 117.382 354.365 117.976 353.999 118.504C353.632 119.032 353.111 119.45 352.437 119.758C351.777 120.051 351.014 120.198 350.149 120.198Z" fill="black"/>
</svg>
