<svg width="61" height="32" viewBox="0 0 61 32" fill="none" xmlns="http://www.w3.org/2000/svg">
<line y1="-0.5" x2="8.27076" y2="-0.5" transform="matrix(0.618365 0.785891 -0.784647 0.619943 0 13.4998)" stroke="black"/>
<line y1="-0.5" x2="8.27076" y2="-0.5" transform="matrix(0.618305 -0.785938 0.784694 0.619883 5.11435 20.0001)" stroke="black"/>
<line y1="-0.5" x2="7.93939" y2="-0.5" transform="matrix(0.801291 0.598275 -0.596687 0.802474 0 13.4998)" stroke="black"/>
<line y1="-0.5" x2="5.64878" y2="-0.5" transform="matrix(-0.57415 0.81875 -0.817632 -0.575741 10.2287 13.6248)" stroke="black"/>
<line y1="-0.5" x2="2.56192" y2="-0.5" transform="matrix(-0.730352 0.683071 -0.681564 -0.731758 6.98546 18.2498)" stroke="black"/>
<line y1="-0.5" x2="8.27076" y2="-0.5" transform="matrix(0.618365 0.785891 -0.784647 0.619943 0 13.4998)" stroke="black"/>
<line y1="-0.5" x2="8.27076" y2="-0.5" transform="matrix(0.618305 -0.785938 0.784694 0.619883 5.11435 20.0001)" stroke="black"/>
<line y1="-0.5" x2="7.93939" y2="-0.5" transform="matrix(0.801291 0.598275 -0.596687 0.802474 0 13.4998)" stroke="black"/>
<line y1="-0.5" x2="5.64878" y2="-0.5" transform="matrix(-0.57415 0.81875 -0.817632 -0.575741 10.2287 13.6248)" stroke="black"/>
<line y1="-0.5" x2="2.56192" y2="-0.5" transform="matrix(-0.730352 0.683071 -0.681564 -0.731758 6.98546 18.2498)" stroke="black"/>
<line y1="-0.5" x2="8.27076" y2="-0.5" transform="matrix(0.618365 0.785891 -0.784647 0.619943 49.7713 5.24994)" stroke="black"/>
<line y1="-0.5" x2="8.27076" y2="-0.5" transform="matrix(0.618305 -0.785938 0.784694 0.619883 54.8856 11.7502)" stroke="black"/>
<line y1="-0.5" x2="7.93939" y2="-0.5" transform="matrix(0.801291 0.598275 -0.596687 0.802474 49.7713 5.24994)" stroke="black"/>
<line y1="-0.5" x2="5.64878" y2="-0.5" transform="matrix(-0.57415 0.81875 -0.817632 -0.575741 60 5.37494)" stroke="black"/>
<line y1="-0.5" x2="2.56192" y2="-0.5" transform="matrix(-0.730352 0.683071 -0.681564 -0.731758 56.7567 9.99988)" stroke="black"/>
<line y1="-0.5" x2="8.27076" y2="-0.5" transform="matrix(0.618365 0.785891 -0.784647 0.619943 49.7713 5.24994)" stroke="black"/>
<line y1="-0.5" x2="8.27076" y2="-0.5" transform="matrix(0.618305 -0.785938 0.784694 0.619883 54.8856 11.7502)" stroke="black"/>
<line y1="-0.5" x2="7.93939" y2="-0.5" transform="matrix(0.801291 0.598275 -0.596687 0.802474 49.7713 5.24994)" stroke="black"/>
<line y1="-0.5" x2="5.64878" y2="-0.5" transform="matrix(-0.57415 0.81875 -0.817632 -0.575741 60 5.37494)" stroke="black"/>
<line y1="-0.5" x2="2.56192" y2="-0.5" transform="matrix(-0.730352 0.683071 -0.681564 -0.731758 56.7567 9.99988)" stroke="black"/>
<line y1="-0.5" x2="8.27076" y2="-0.5" transform="matrix(0.618365 0.785891 -0.784647 0.619943 29.5635 1)" stroke="black"/>
<line y1="-0.5" x2="8.27076" y2="-0.5" transform="matrix(0.618305 -0.785938 0.784694 0.619883 34.6778 7.50031)" stroke="black"/>
<line y1="-0.5" x2="7.93939" y2="-0.5" transform="matrix(0.801291 0.598275 -0.596687 0.802474 29.5635 1)" stroke="black"/>
<line y1="-0.5" x2="5.64878" y2="-0.5" transform="matrix(-0.57415 0.81875 -0.817632 -0.575741 39.7922 1.125)" stroke="black"/>
<line y1="-0.5" x2="2.56192" y2="-0.5" transform="matrix(-0.730352 0.683071 -0.681564 -0.731758 36.5489 5.74994)" stroke="black"/>
<line y1="-0.5" x2="8.27076" y2="-0.5" transform="matrix(0.618365 0.785891 -0.784647 0.619943 29.5635 1)" stroke="black"/>
<line y1="-0.5" x2="8.27076" y2="-0.5" transform="matrix(0.618305 -0.785938 0.784694 0.619883 34.6778 7.50031)" stroke="black"/>
<line y1="-0.5" x2="7.93939" y2="-0.5" transform="matrix(0.801291 0.598275 -0.596687 0.802474 29.5635 1)" stroke="black"/>
<line y1="-0.5" x2="5.64878" y2="-0.5" transform="matrix(-0.57415 0.81875 -0.817632 -0.575741 39.7922 1.125)" stroke="black"/>
<line y1="-0.5" x2="2.56192" y2="-0.5" transform="matrix(-0.730352 0.683071 -0.681564 -0.731758 36.5489 5.74994)" stroke="black"/>
<line y1="-0.5" x2="8.27076" y2="-0.5" transform="matrix(0.618365 0.785891 -0.784647 0.619943 25.6965 24.4997)" stroke="black"/>
<line y1="-0.5" x2="8.27076" y2="-0.5" transform="matrix(0.618305 -0.785938 0.784694 0.619883 30.8108 31)" stroke="black"/>
<line y1="-0.5" x2="7.93939" y2="-0.5" transform="matrix(0.801291 0.598275 -0.596687 0.802474 25.6965 24.4997)" stroke="black"/>
<line y1="-0.5" x2="5.64878" y2="-0.5" transform="matrix(-0.57415 0.81875 -0.817632 -0.575741 35.9252 24.6247)" stroke="black"/>
<line y1="-0.5" x2="2.56192" y2="-0.5" transform="matrix(-0.730352 0.683071 -0.681564 -0.731758 32.6819 29.2496)" stroke="black"/>
<line y1="-0.5" x2="8.27076" y2="-0.5" transform="matrix(0.618365 0.785891 -0.784647 0.619943 25.6965 24.4997)" stroke="black"/>
<line y1="-0.5" x2="8.27076" y2="-0.5" transform="matrix(0.618305 -0.785938 0.784694 0.619883 30.8108 31)" stroke="black"/>
<line y1="-0.5" x2="7.93939" y2="-0.5" transform="matrix(0.801291 0.598275 -0.596687 0.802474 25.6965 24.4997)" stroke="black"/>
<line y1="-0.5" x2="5.64878" y2="-0.5" transform="matrix(-0.57415 0.81875 -0.817632 -0.575741 35.9252 24.6247)" stroke="black"/>
<line y1="-0.5" x2="2.56192" y2="-0.5" transform="matrix(-0.730352 0.683071 -0.681564 -0.731758 32.6819 29.2496)" stroke="black"/>
<line y1="-0.5" x2="8.27076" y2="-0.5" transform="matrix(0.618365 0.785891 -0.784647 0.619943 8.73187 24.4997)" stroke="black"/>
<line y1="-0.5" x2="8.27076" y2="-0.5" transform="matrix(0.618305 -0.785938 0.784694 0.619883 13.8462 31)" stroke="black"/>
<line y1="-0.5" x2="7.93939" y2="-0.5" transform="matrix(0.801291 0.598275 -0.596687 0.802474 8.73187 24.4997)" stroke="black"/>
<line y1="-0.5" x2="5.64878" y2="-0.5" transform="matrix(-0.57415 0.81875 -0.817632 -0.575741 18.9606 24.6247)" stroke="black"/>
<line y1="-0.5" x2="2.56192" y2="-0.5" transform="matrix(-0.730352 0.683071 -0.681564 -0.731758 15.7173 29.2496)" stroke="black"/>
<line y1="-0.5" x2="8.27076" y2="-0.5" transform="matrix(0.618365 0.785891 -0.784647 0.619943 8.73187 24.4997)" stroke="black"/>
<line y1="-0.5" x2="8.27076" y2="-0.5" transform="matrix(0.618305 -0.785938 0.784694 0.619883 13.8462 31)" stroke="black"/>
<line y1="-0.5" x2="7.93939" y2="-0.5" transform="matrix(0.801291 0.598275 -0.596687 0.802474 8.73187 24.4997)" stroke="black"/>
<line y1="-0.5" x2="5.64878" y2="-0.5" transform="matrix(-0.57415 0.81875 -0.817632 -0.575741 18.9606 24.6247)" stroke="black"/>
<line y1="-0.5" x2="2.56192" y2="-0.5" transform="matrix(-0.730352 0.683071 -0.681564 -0.731758 15.7173 29.2496)" stroke="black"/>
<line y1="-0.5" x2="8.27076" y2="-0.5" transform="matrix(0.618365 0.785891 -0.784647 0.619943 41.2891 21.7498)" stroke="black"/>
<line y1="-0.5" x2="8.27076" y2="-0.5" transform="matrix(0.618305 -0.785938 0.784694 0.619883 46.4034 28.2501)" stroke="black"/>
<line y1="-0.5" x2="7.93939" y2="-0.5" transform="matrix(0.801291 0.598275 -0.596687 0.802474 41.2891 21.7498)" stroke="black"/>
<line y1="-0.5" x2="5.64878" y2="-0.5" transform="matrix(-0.57415 0.81875 -0.817632 -0.575741 51.5178 21.8748)" stroke="black"/>
<line y1="-0.5" x2="2.56192" y2="-0.5" transform="matrix(-0.730352 0.683071 -0.681564 -0.731758 48.2745 26.4997)" stroke="black"/>
<line y1="-0.5" x2="8.27076" y2="-0.5" transform="matrix(0.618365 0.785891 -0.784647 0.619943 41.2891 21.7498)" stroke="black"/>
<line y1="-0.5" x2="8.27076" y2="-0.5" transform="matrix(0.618305 -0.785938 0.784694 0.619883 46.4034 28.2501)" stroke="black"/>
<line y1="-0.5" x2="7.93939" y2="-0.5" transform="matrix(0.801291 0.598275 -0.596687 0.802474 41.2891 21.7498)" stroke="black"/>
<line y1="-0.5" x2="5.64878" y2="-0.5" transform="matrix(-0.57415 0.81875 -0.817632 -0.575741 51.5178 21.8748)" stroke="black"/>
<line y1="-0.5" x2="2.56192" y2="-0.5" transform="matrix(-0.730352 0.683071 -0.681564 -0.731758 48.2745 26.4997)" stroke="black"/>
<line y1="-0.5" x2="8.27076" y2="-0.5" transform="matrix(0.618365 0.785891 -0.784647 0.619943 32.6821 13.4998)" stroke="black"/>
<line y1="-0.5" x2="8.27076" y2="-0.5" transform="matrix(0.618305 -0.785938 0.784694 0.619883 37.7965 20.0001)" stroke="black"/>
<line y1="-0.5" x2="7.93939" y2="-0.5" transform="matrix(0.801291 0.598275 -0.596687 0.802474 32.6821 13.4998)" stroke="black"/>
<line y1="-0.5" x2="5.64878" y2="-0.5" transform="matrix(-0.57415 0.81875 -0.817632 -0.575741 42.9108 13.6248)" stroke="black"/>
<line y1="-0.5" x2="2.56192" y2="-0.5" transform="matrix(-0.730352 0.683071 -0.681564 -0.731758 39.6676 18.2498)" stroke="black"/>
<line y1="-0.5" x2="8.27076" y2="-0.5" transform="matrix(0.618365 0.785891 -0.784647 0.619943 32.6821 13.4998)" stroke="black"/>
<line y1="-0.5" x2="8.27076" y2="-0.5" transform="matrix(0.618305 -0.785938 0.784694 0.619883 37.7965 20.0001)" stroke="black"/>
<line y1="-0.5" x2="7.93939" y2="-0.5" transform="matrix(0.801291 0.598275 -0.596687 0.802474 32.6821 13.4998)" stroke="black"/>
<line y1="-0.5" x2="5.64878" y2="-0.5" transform="matrix(-0.57415 0.81875 -0.817632 -0.575741 42.9108 13.6248)" stroke="black"/>
<line y1="-0.5" x2="2.56192" y2="-0.5" transform="matrix(-0.730352 0.683071 -0.681564 -0.731758 39.6676 18.2498)" stroke="black"/>
<line y1="-0.5" x2="8.27076" y2="-0.5" transform="matrix(0.618365 0.785891 -0.784647 0.619943 16.3411 13.4998)" stroke="black"/>
<line y1="-0.5" x2="8.27076" y2="-0.5" transform="matrix(0.618305 -0.785938 0.784694 0.619883 21.4554 20.0001)" stroke="black"/>
<line y1="-0.5" x2="7.93939" y2="-0.5" transform="matrix(0.801291 0.598275 -0.596687 0.802474 16.3411 13.4998)" stroke="black"/>
<line y1="-0.5" x2="5.64878" y2="-0.5" transform="matrix(-0.57415 0.81875 -0.817632 -0.575741 26.5698 13.6248)" stroke="black"/>
<line y1="-0.5" x2="2.56192" y2="-0.5" transform="matrix(-0.730352 0.683071 -0.681564 -0.731758 23.3265 18.2498)" stroke="black"/>
<line y1="-0.5" x2="8.27076" y2="-0.5" transform="matrix(0.618365 0.785891 -0.784647 0.619943 16.3411 13.4998)" stroke="black"/>
<line y1="-0.5" x2="8.27076" y2="-0.5" transform="matrix(0.618305 -0.785938 0.784694 0.619883 21.4554 20.0001)" stroke="black"/>
<line y1="-0.5" x2="7.93939" y2="-0.5" transform="matrix(0.801291 0.598275 -0.596687 0.802474 16.3411 13.4998)" stroke="black"/>
<line y1="-0.5" x2="5.64878" y2="-0.5" transform="matrix(-0.57415 0.81875 -0.817632 -0.575741 26.5698 13.6248)" stroke="black"/>
<line y1="-0.5" x2="2.56192" y2="-0.5" transform="matrix(-0.730352 0.683071 -0.681564 -0.731758 23.3265 18.2498)" stroke="black"/>
</svg>
