<svg width="207" height="522" viewBox="0 0 207 522" fill="none" xmlns="http://www.w3.org/2000/svg">
<rect width="168" height="75" transform="matrix(-1 0 0 1 183 76)" fill="#C87426"/>
<ellipse cx="84" cy="72" rx="84" ry="72" transform="matrix(-1 0 0 1 183 0)" fill="#C87426"/>
<circle cx="54" cy="54" r="54" transform="matrix(-1 0 0 1 155 36)" fill="#DDBBAD"/>
<ellipse cx="8.5" cy="11" rx="8.5" ry="11" transform="matrix(-1 0 0 1 88 76)" fill="#D9D9D9"/>
<ellipse cx="4" cy="6" rx="4" ry="6" transform="matrix(-1 0 0 1 79 81)" fill="black"/>
<ellipse cx="8.5" cy="11" rx="8.5" ry="11" transform="matrix(-1 0 0 1 134 76)" fill="#D9D9D9"/>
<ellipse cx="4" cy="6" rx="4" ry="6" transform="matrix(-1 0 0 1 125 81)" fill="black"/>
<line y1="-0.5" x2="31" y2="-0.5" transform="matrix(-1 0 0 1 119 119)" stroke="black"/>
<line y1="-0.5" x2="11" y2="-0.5" transform="matrix(-1 0 0 1 107 105)" stroke="black"/>
<ellipse cx="38.5" cy="12" rx="38.5" ry="12" transform="matrix(-1 0 0 1 139 34)" fill="#C87426"/>
<path d="M89.447 244.201C80.5574 268.625 69.6266 289.668 59.1522 303.944C53.913 311.085 48.8052 316.509 44.1437 319.822C39.4669 323.146 35.3467 324.272 32.0126 323.058C28.6784 321.845 26.2461 318.334 24.7998 312.782C23.3582 307.248 22.9321 299.809 23.5088 290.971C24.6617 273.302 29.814 250.156 38.7036 225.732C47.5932 201.308 58.5239 180.266 68.9983 165.99C74.2376 158.849 79.3453 153.424 84.0068 150.112C88.6836 146.788 92.8038 145.662 96.1379 146.875C99.4721 148.089 101.904 151.6 103.351 157.152C104.792 162.686 105.218 170.125 104.642 178.963C103.489 196.632 98.3366 219.777 89.447 244.201Z" fill="#DDBBAD" stroke="#DDBBAD"/>
<path d="M168.067 225.732C176.957 250.156 182.109 273.301 183.262 290.97C183.838 299.808 183.412 307.247 181.971 312.781C180.524 318.333 178.092 321.844 174.758 323.057C171.424 324.271 167.304 323.145 162.627 319.821C157.965 316.509 152.858 311.084 147.618 303.943C137.144 289.667 126.213 268.625 117.324 244.201C108.434 219.777 103.282 196.632 102.129 178.963C101.552 170.125 101.979 162.686 103.42 157.152C104.866 151.6 107.299 148.089 110.633 146.875C113.967 145.662 118.087 146.788 122.764 150.112C127.426 153.424 132.533 158.848 137.772 165.989C148.247 180.266 159.178 201.308 168.067 225.732Z" fill="#DDBBAD" stroke="#DDBBAD"/>
<path d="M149.32 267.285C149.32 335.768 129.844 391.285 105.82 391.285C81.7957 391.285 62.3201 335.768 62.3201 267.285C62.3201 198.801 81.7957 143.285 105.82 143.285C129.844 143.285 149.32 198.801 149.32 267.285Z" fill="#DDBBAD"/>
<path d="M105.007 205.703C99.7947 220.023 92.2025 231.915 84.1639 239.571C76.1002 247.25 67.7172 250.558 60.8569 248.061C53.9966 245.564 49.7009 237.642 48.4601 226.576C47.2232 215.544 49.0513 201.554 54.2634 187.234C59.4755 172.914 67.0677 161.021 75.1063 153.366C83.17 145.686 91.553 142.378 98.4133 144.875C105.274 147.372 109.569 155.295 110.81 166.361C112.047 177.393 110.219 191.383 105.007 205.703Z" fill="#3645CD" stroke="#DDBBAD"/>
<rect x="52.5021" y="190.461" width="46" height="65.7915" transform="rotate(20 52.5021 190.461)" fill="#3645CD"/>
<rect x="112" y="206.672" width="47.4679" height="71.3255" transform="rotate(-20 112 206.672)" fill="#3645CD"/>
<path d="M156.163 189.695C161.375 204.015 163.203 218.005 161.966 229.037C160.725 240.103 156.429 248.025 149.569 250.522C142.709 253.019 134.326 249.712 126.262 242.032C118.223 234.376 110.631 222.484 105.419 208.164C100.207 193.844 98.379 179.854 99.6159 168.822C100.857 157.756 105.152 149.834 112.013 147.337C118.873 144.84 127.256 148.147 135.32 155.827C143.358 163.483 150.951 175.375 156.163 189.695Z" fill="#3645CD" stroke="#3645CD"/>
<path d="M109.572 399.368C115.071 430.556 117.017 459.309 115.726 480.579C115.081 491.218 113.626 499.957 111.417 506.185C109.193 512.456 106.274 515.993 102.826 516.601C99.3791 517.209 95.4261 514.883 91.191 509.751C86.9851 504.654 82.6298 496.94 78.3841 487.163C69.8961 467.617 61.8912 439.933 56.3921 408.745C50.8929 377.558 48.9463 348.805 50.2373 327.535C50.8831 316.896 52.3374 308.157 54.5464 301.929C56.7707 295.658 59.6899 292.12 63.1373 291.512C66.5847 290.905 70.5377 293.23 74.7728 298.363C78.9787 303.459 83.334 311.174 87.5796 320.95C96.0677 340.496 104.073 368.181 109.572 399.368Z" fill="#DDBBAD" stroke="#DDBBAD"/>
<path d="M165 267.461C165 335.945 140.376 391.461 110 391.461C79.6245 391.461 55.0001 335.945 55.0001 267.461C55.0001 198.978 79.6245 143.461 110 143.461C140.376 143.461 165 198.978 165 267.461Z" fill="#3645CD"/>
<line x1="90.5079" y1="497.911" x2="108.508" y2="397.911" stroke="#B19C7C"/>
<line x1="54.5" y1="304" x2="54.5" y2="299" stroke="#B19C7C"/>
<rect x="40.8697" y="346.816" width="61.6116" height="150.356" transform="rotate(-7.91407 40.8697 346.816)" fill="#F2DDBE" stroke="#B19C7C"/>
<path d="M140.27 418.957C130.6 445.526 118.961 468.511 107.973 484.193C102.476 492.038 97.1587 498.031 92.35 501.736C87.5185 505.459 83.328 506.777 80.0125 505.57C76.6971 504.364 74.3345 500.66 73.0261 494.703C71.7238 488.774 71.503 480.765 72.3347 471.222C73.9976 452.145 79.8564 427.057 89.5265 400.488C99.1966 373.92 110.835 350.935 121.824 335.252C127.32 327.408 132.638 321.414 137.446 317.71C142.278 313.987 146.468 312.669 149.784 313.875C153.099 315.082 155.462 318.786 156.77 324.743C158.072 330.672 158.293 338.681 157.462 348.224C155.799 367.301 149.94 392.389 140.27 418.957Z" fill="#DDBBAD" stroke="#DDBBAD"/>
<path d="M105.089 339.415L104.617 339.25L104.452 339.722L56.8344 476.142L56.6696 476.614L57.1417 476.779L116.256 497.413L116.728 497.578L116.893 497.106L164.51 360.685L164.675 360.213L164.203 360.049L105.089 339.415Z" fill="#F2DDBE" stroke="#B19C7C"/>
<mask id="path-25-inside-1_48_17301" fill="white">
<path d="M55 296H165V361H55V296Z"/>
</mask>
<path d="M55 296H165V361H55V296Z" fill="#F2DDBE"/>
<path d="M165 296H166V295H165V296ZM55 297H165V295H55V297ZM164 296V361H166V296H164Z" fill="#B19C7C" mask="url(#path-25-inside-1_48_17301)"/>
<path d="M55.4971 296.073L55.1524 349.104L40.431 346.92L55.4971 296.073Z" fill="#F2DDBE"/>
<line x1="40.5211" y1="346.856" x2="55.5211" y2="296.856" stroke="#B19C7C"/>
<rect x="45.6981" y="174.862" width="31" height="173.512" transform="rotate(-35.8694 45.6981 174.862)" fill="#F2DDBE" stroke="#B19C7C"/>
</svg>
