<svg width="421" height="127" viewBox="0 0 421 127" fill="none" xmlns="http://www.w3.org/2000/svg">
<rect y="0.4375" width="421" height="126" fill="#F5E9D7"/>
<path d="M133.799 67.0998C132.787 67.0998 131.878 66.9238 131.071 66.5718C130.279 66.2051 129.656 65.7065 129.201 65.0758C128.747 64.4305 128.512 63.6898 128.497 62.8538H130.631C130.705 63.5725 130.998 64.1811 131.511 64.6798C132.039 65.1638 132.802 65.4058 133.799 65.4058C134.753 65.4058 135.501 65.1711 136.043 64.7018C136.601 64.2178 136.879 63.6018 136.879 62.8538C136.879 62.2671 136.718 61.7905 136.395 61.4238C136.073 61.0571 135.669 60.7785 135.185 60.5878C134.701 60.3971 134.049 60.1918 133.227 59.9718C132.215 59.7078 131.401 59.4438 130.785 59.1798C130.184 58.9158 129.663 58.5051 129.223 57.9478C128.798 57.3758 128.585 56.6131 128.585 55.6598C128.585 54.8238 128.798 54.0831 129.223 53.4378C129.649 52.7925 130.243 52.2938 131.005 51.9418C131.783 51.5898 132.67 51.4138 133.667 51.4138C135.105 51.4138 136.278 51.7731 137.187 52.4918C138.111 53.2105 138.632 54.1638 138.749 55.3518H136.549C136.476 54.7651 136.168 54.2518 135.625 53.8118C135.083 53.3571 134.364 53.1298 133.469 53.1298C132.633 53.1298 131.951 53.3498 131.423 53.7898C130.895 54.2151 130.631 54.8165 130.631 55.5938C130.631 56.1511 130.785 56.6058 131.093 56.9578C131.416 57.3098 131.805 57.5811 132.259 57.7718C132.729 57.9478 133.381 58.1531 134.217 58.3878C135.229 58.6665 136.043 58.9451 136.659 59.2238C137.275 59.4878 137.803 59.9058 138.243 60.4778C138.683 61.0351 138.903 61.7978 138.903 62.7658C138.903 63.5138 138.705 64.2178 138.309 64.8778C137.913 65.5378 137.327 66.0731 136.549 66.4838C135.772 66.8945 134.855 67.0998 133.799 67.0998ZM141.101 60.8958C141.101 59.6491 141.351 58.5638 141.849 57.6398C142.348 56.7011 143.037 55.9751 143.917 55.4618C144.812 54.9485 145.831 54.6918 146.975 54.6918C148.457 54.6918 149.674 55.0511 150.627 55.7698C151.595 56.4885 152.233 57.4858 152.541 58.7618H150.385C150.18 58.0285 149.777 57.4491 149.175 57.0238C148.589 56.5985 147.855 56.3858 146.975 56.3858C145.831 56.3858 144.907 56.7818 144.203 57.5738C143.499 58.3511 143.147 59.4585 143.147 60.8958C143.147 62.3478 143.499 63.4698 144.203 64.2618C144.907 65.0538 145.831 65.4498 146.975 65.4498C147.855 65.4498 148.589 65.2445 149.175 64.8338C149.762 64.4231 150.165 63.8365 150.385 63.0738H152.541C152.219 64.3058 151.573 65.2958 150.605 66.0438C149.637 66.7771 148.427 67.1438 146.975 67.1438C145.831 67.1438 144.812 66.8871 143.917 66.3738C143.037 65.8605 142.348 65.1345 141.849 64.1958C141.351 63.2571 141.101 62.1571 141.101 60.8958ZM154.465 60.8738C154.465 59.6418 154.714 58.5638 155.213 57.6398C155.711 56.7011 156.393 55.9751 157.259 55.4618C158.139 54.9485 159.114 54.6918 160.185 54.6918C161.241 54.6918 162.157 54.9191 162.935 55.3738C163.712 55.8285 164.291 56.4005 164.673 57.0898V54.8898H166.697V66.9458H164.673V64.7018C164.277 65.4058 163.683 65.9925 162.891 66.4618C162.113 66.9165 161.204 67.1438 160.163 67.1438C159.092 67.1438 158.124 66.8798 157.259 66.3518C156.393 65.8238 155.711 65.0831 155.213 64.1298C154.714 63.1765 154.465 62.0911 154.465 60.8738ZM164.673 60.8958C164.673 59.9865 164.489 59.1945 164.123 58.5198C163.756 57.8451 163.257 57.3318 162.627 56.9798C162.011 56.6131 161.329 56.4298 160.581 56.4298C159.833 56.4298 159.151 56.6058 158.535 56.9578C157.919 57.3098 157.427 57.8231 157.061 58.4978C156.694 59.1725 156.511 59.9645 156.511 60.8738C156.511 61.7978 156.694 62.6045 157.061 63.2938C157.427 63.9685 157.919 64.4891 158.535 64.8558C159.151 65.2078 159.833 65.3838 160.581 65.3838C161.329 65.3838 162.011 65.2078 162.627 64.8558C163.257 64.4891 163.756 63.9685 164.123 63.2938C164.489 62.6045 164.673 61.8051 164.673 60.8958ZM172.082 56.8478C172.434 56.1585 172.933 55.6231 173.578 55.2418C174.238 54.8605 175.037 54.6698 175.976 54.6698V56.7378H175.448C173.204 56.7378 172.082 57.9551 172.082 60.3898V66.9458H170.08V54.8898H172.082V56.8478ZM189.287 60.4558C189.287 60.8371 189.265 61.2405 189.221 61.6658H179.585C179.658 62.8538 180.062 63.7851 180.795 64.4598C181.543 65.1198 182.445 65.4498 183.501 65.4498C184.366 65.4498 185.085 65.2518 185.657 64.8558C186.244 64.4451 186.654 63.9025 186.889 63.2278H189.045C188.722 64.3865 188.077 65.3325 187.109 66.0658C186.141 66.7845 184.938 67.1438 183.501 67.1438C182.357 67.1438 181.33 66.8871 180.421 66.3738C179.526 65.8605 178.822 65.1345 178.309 64.1958C177.796 63.2425 177.539 62.1425 177.539 60.8958C177.539 59.6491 177.788 58.5565 178.287 57.6178C178.786 56.6791 179.482 55.9605 180.377 55.4618C181.286 54.9485 182.328 54.6918 183.501 54.6918C184.645 54.6918 185.657 54.9411 186.537 55.4398C187.417 55.9385 188.092 56.6278 188.561 57.5078C189.045 58.3731 189.287 59.3558 189.287 60.4558ZM187.219 60.0378C187.219 59.2751 187.05 58.6225 186.713 58.0798C186.376 57.5225 185.914 57.1045 185.327 56.8258C184.755 56.5325 184.117 56.3858 183.413 56.3858C182.401 56.3858 181.536 56.7085 180.817 57.3538C180.113 57.9991 179.71 58.8938 179.607 60.0378H187.219ZM200.237 56.5398V63.6458C200.237 64.2325 200.361 64.6505 200.611 64.8998C200.86 65.1345 201.293 65.2518 201.909 65.2518H203.383V66.9458H201.579C200.464 66.9458 199.628 66.6891 199.071 66.1758C198.513 65.6625 198.235 64.8191 198.235 63.6458V56.5398H196.673V54.8898H198.235V51.8538H200.237V54.8898H203.383V56.5398H200.237ZM211.792 54.6698C212.702 54.6698 213.523 54.8678 214.256 55.2638C214.99 55.6451 215.562 56.2245 215.972 57.0018C216.398 57.7791 216.61 58.7251 216.61 59.8398V66.9458H214.63V60.1258C214.63 58.9231 214.33 58.0065 213.728 57.3758C213.127 56.7305 212.306 56.4078 211.264 56.4078C210.208 56.4078 209.365 56.7378 208.734 57.3978C208.118 58.0578 207.81 59.0185 207.81 60.2798V66.9458H205.808V50.6658H207.81V56.6058C208.206 55.9898 208.749 55.5131 209.438 55.1758C210.142 54.8385 210.927 54.6698 211.792 54.6698ZM230.881 60.4558C230.881 60.8371 230.859 61.2405 230.815 61.6658H221.179C221.252 62.8538 221.655 63.7851 222.389 64.4598C223.137 65.1198 224.039 65.4498 225.095 65.4498C225.96 65.4498 226.679 65.2518 227.251 64.8558C227.837 64.4451 228.248 63.9025 228.483 63.2278H230.639C230.316 64.3865 229.671 65.3325 228.703 66.0658C227.735 66.7845 226.532 67.1438 225.095 67.1438C223.951 67.1438 222.924 66.8871 222.015 66.3738C221.12 65.8605 220.416 65.1345 219.903 64.1958C219.389 63.2425 219.133 62.1425 219.133 60.8958C219.133 59.6491 219.382 58.5565 219.881 57.6178C220.379 56.6791 221.076 55.9605 221.971 55.4618C222.88 54.9485 223.921 54.6918 225.095 54.6918C226.239 54.6918 227.251 54.9411 228.131 55.4398C229.011 55.9385 229.685 56.6278 230.155 57.5078C230.639 58.3731 230.881 59.3558 230.881 60.4558ZM228.813 60.0378C228.813 59.2751 228.644 58.6225 228.307 58.0798C227.969 57.5225 227.507 57.1045 226.921 56.8258C226.349 56.5325 225.711 56.3858 225.007 56.3858C223.995 56.3858 223.129 56.7085 222.411 57.3538C221.707 57.9991 221.303 58.8938 221.201 60.0378H228.813ZM248.021 54.6698C248.96 54.6698 249.796 54.8678 250.529 55.2638C251.263 55.6451 251.842 56.2245 252.267 57.0018C252.693 57.7791 252.905 58.7251 252.905 59.8398V66.9458H250.925V60.1258C250.925 58.9231 250.625 58.0065 250.023 57.3758C249.437 56.7305 248.637 56.4078 247.625 56.4078C246.584 56.4078 245.755 56.7451 245.139 57.4198C244.523 58.0798 244.215 59.0405 244.215 60.3018V66.9458H242.235V60.1258C242.235 58.9231 241.935 58.0065 241.333 57.3758C240.747 56.7305 239.947 56.4078 238.935 56.4078C237.894 56.4078 237.065 56.7451 236.449 57.4198C235.833 58.0798 235.525 59.0405 235.525 60.3018V66.9458H233.523V54.8898H235.525V56.6278C235.921 55.9971 236.449 55.5131 237.109 55.1758C237.784 54.8385 238.525 54.6698 239.331 54.6698C240.343 54.6698 241.238 54.8971 242.015 55.3518C242.793 55.8065 243.372 56.4738 243.753 57.3538C244.091 56.5031 244.648 55.8431 245.425 55.3738C246.203 54.9045 247.068 54.6698 248.021 54.6698ZM267.312 67.1438C266.183 67.1438 265.156 66.8871 264.232 66.3738C263.323 65.8605 262.604 65.1345 262.076 64.1958C261.563 63.2425 261.306 62.1425 261.306 60.8958C261.306 59.6638 261.57 58.5785 262.098 57.6398C262.641 56.6865 263.374 55.9605 264.298 55.4618C265.222 54.9485 266.256 54.6918 267.4 54.6918C268.544 54.6918 269.578 54.9485 270.502 55.4618C271.426 55.9605 272.152 56.6791 272.68 57.6178C273.223 58.5565 273.494 59.6491 273.494 60.8958C273.494 62.1425 273.216 63.2425 272.658 64.1958C272.116 65.1345 271.375 65.8605 270.436 66.3738C269.498 66.8871 268.456 67.1438 267.312 67.1438ZM267.312 65.3838C268.031 65.3838 268.706 65.2151 269.336 64.8778C269.967 64.5405 270.473 64.0345 270.854 63.3598C271.25 62.6851 271.448 61.8638 271.448 60.8958C271.448 59.9278 271.258 59.1065 270.876 58.4318C270.495 57.7571 269.996 57.2585 269.38 56.9358C268.764 56.5985 268.097 56.4298 267.378 56.4298C266.645 56.4298 265.97 56.5985 265.354 56.9358C264.753 57.2585 264.269 57.7571 263.902 58.4318C263.536 59.1065 263.352 59.9278 263.352 60.8958C263.352 61.8785 263.528 62.7071 263.88 63.3818C264.247 64.0565 264.731 64.5625 265.332 64.8998C265.934 65.2225 266.594 65.3838 267.312 65.3838ZM281.033 56.5398H278.503V66.9458H276.501V56.5398H274.939V54.8898H276.501V54.0318C276.501 52.6825 276.845 51.6998 277.535 51.0838C278.239 50.4531 279.361 50.1378 280.901 50.1378V51.8098C280.021 51.8098 279.397 51.9858 279.031 52.3378C278.679 52.6751 278.503 53.2398 278.503 54.0318V54.8898H281.033V56.5398ZM288.273 56.5398H285.743V66.9458H283.741V56.5398H282.179V54.8898H283.741V54.0318C283.741 52.6825 284.086 51.6998 284.775 51.0838C285.479 50.4531 286.601 50.1378 288.141 50.1378V51.8098C287.261 51.8098 286.638 51.9858 286.271 52.3378C285.919 52.6751 285.743 53.2398 285.743 54.0318V54.8898H288.273V56.5398ZM293.203 51.6118L292.961 62.6118H291.289L291.047 51.6118H293.203ZM292.213 67.0778C291.832 67.0778 291.509 66.9458 291.245 66.6818C290.981 66.4178 290.849 66.0951 290.849 65.7138C290.849 65.3325 290.981 65.0098 291.245 64.7458C291.509 64.4818 291.832 64.3498 292.213 64.3498C292.58 64.3498 292.888 64.4818 293.137 64.7458C293.401 65.0098 293.533 65.3325 293.533 65.7138C293.533 66.0951 293.401 66.4178 293.137 66.6818C292.888 66.9458 292.58 67.0778 292.213 67.0778Z" fill="black"/>
</svg>
