<svg width="588" height="171" viewBox="0 0 588 171" fill="none" xmlns="http://www.w3.org/2000/svg">
<rect y="0.000488281" width="588" height="171" fill="#F5E9D7"/>
<path d="M57.0651 34.322C57.0651 32.826 57.4025 31.484 58.0771 30.296C58.7518 29.0933 59.6685 28.1547 60.8271 27.48C62.0005 26.8053 63.2985 26.468 64.7211 26.468C66.3931 26.468 67.8525 26.8713 69.0991 27.678C70.3458 28.4847 71.2551 29.6287 71.8271 31.11H69.4291C69.0038 30.186 68.3878 29.4747 67.5811 28.976C66.7891 28.4773 65.8358 28.228 64.7211 28.228C63.6505 28.228 62.6898 28.4773 61.8391 28.976C60.9885 29.4747 60.3211 30.186 59.8371 31.11C59.3531 32.0193 59.1111 33.09 59.1111 34.322C59.1111 35.5393 59.3531 36.61 59.8371 37.534C60.3211 38.4433 60.9885 39.1473 61.8391 39.646C62.6898 40.1447 63.6505 40.394 64.7211 40.394C65.8358 40.394 66.7891 40.152 67.5811 39.668C68.3878 39.1693 69.0038 38.458 69.4291 37.534H71.8271C71.2551 39.0007 70.3458 40.1373 69.0991 40.944C67.8525 41.736 66.3931 42.132 64.7211 42.132C63.2985 42.132 62.0005 41.802 60.8271 41.142C59.6685 40.4673 58.7518 39.536 58.0771 38.348C57.4025 37.16 57.0651 35.818 57.0651 34.322ZM76.8093 25.72V42H74.8073V25.72H76.8093ZM79.4733 35.928C79.4733 34.696 79.7227 33.618 80.2213 32.694C80.72 31.7553 81.402 31.0293 82.2673 30.516C83.1473 30.0027 84.1227 29.746 85.1933 29.746C86.2493 29.746 87.166 29.9733 87.9433 30.428C88.7207 30.8827 89.3 31.4547 89.6813 32.144V29.944H91.7053V42H89.6813V39.756C89.2853 40.46 88.6913 41.0467 87.8993 41.516C87.122 41.9707 86.2127 42.198 85.1713 42.198C84.1007 42.198 83.1327 41.934 82.2673 41.406C81.402 40.878 80.72 40.1373 80.2213 39.184C79.7227 38.2307 79.4733 37.1453 79.4733 35.928ZM89.6813 35.95C89.6813 35.0407 89.498 34.2487 89.1313 33.574C88.7647 32.8993 88.266 32.386 87.6353 32.034C87.0193 31.6673 86.3373 31.484 85.5893 31.484C84.8413 31.484 84.1593 31.66 83.5433 32.012C82.9273 32.364 82.436 32.8773 82.0693 33.552C81.7027 34.2267 81.5193 35.0187 81.5193 35.928C81.5193 36.852 81.7027 37.6587 82.0693 38.348C82.436 39.0227 82.9273 39.5433 83.5433 39.91C84.1593 40.262 84.8413 40.438 85.5893 40.438C86.3373 40.438 87.0193 40.262 87.6353 39.91C88.266 39.5433 88.7647 39.0227 89.1313 38.348C89.498 37.6587 89.6813 36.8593 89.6813 35.95ZM97.0905 31.902C97.4425 31.2127 97.9412 30.6773 98.5865 30.296C99.2465 29.9147 100.046 29.724 100.985 29.724V31.792H100.457C98.2125 31.792 97.0905 33.0093 97.0905 35.444V42H95.0885V29.944H97.0905V31.902ZM102.548 35.928C102.548 34.696 102.797 33.618 103.296 32.694C103.794 31.7553 104.476 31.0293 105.342 30.516C106.222 30.0027 107.197 29.746 108.268 29.746C109.324 29.746 110.24 29.9733 111.018 30.428C111.795 30.8827 112.374 31.4547 112.756 32.144V29.944H114.78V42H112.756V39.756C112.36 40.46 111.766 41.0467 110.974 41.516C110.196 41.9707 109.287 42.198 108.246 42.198C107.175 42.198 106.207 41.934 105.342 41.406C104.476 40.878 103.794 40.1373 103.296 39.184C102.797 38.2307 102.548 37.1453 102.548 35.928ZM112.756 35.95C112.756 35.0407 112.572 34.2487 112.206 33.574C111.839 32.8993 111.34 32.386 110.71 32.034C110.094 31.6673 109.412 31.484 108.664 31.484C107.916 31.484 107.234 31.66 106.618 32.012C106.002 32.364 105.51 32.8773 105.144 33.552C104.777 34.2267 104.594 35.0187 104.594 35.928C104.594 36.852 104.777 37.6587 105.144 38.348C105.51 39.0227 106.002 39.5433 106.618 39.91C107.234 40.262 107.916 40.438 108.664 40.438C109.412 40.438 110.094 40.262 110.71 39.91C111.34 39.5433 111.839 39.0227 112.206 38.348C112.572 37.6587 112.756 36.8593 112.756 35.95ZM123.28 35.928C123.28 34.696 123.529 33.618 124.028 32.694C124.527 31.7553 125.209 31.0293 126.074 30.516C126.954 30.0027 127.929 29.746 129 29.746C130.056 29.746 130.973 29.9733 131.75 30.428C132.527 30.8827 133.107 31.4547 133.488 32.144V29.944H135.512V42H133.488V39.756C133.092 40.46 132.498 41.0467 131.706 41.516C130.929 41.9707 130.019 42.198 128.978 42.198C127.907 42.198 126.939 41.934 126.074 41.406C125.209 40.878 124.527 40.1373 124.028 39.184C123.529 38.2307 123.28 37.1453 123.28 35.928ZM133.488 35.95C133.488 35.0407 133.305 34.2487 132.938 33.574C132.571 32.8993 132.073 32.386 131.442 32.034C130.826 31.6673 130.144 31.484 129.396 31.484C128.648 31.484 127.966 31.66 127.35 32.012C126.734 32.364 126.243 32.8773 125.876 33.552C125.509 34.2267 125.326 35.0187 125.326 35.928C125.326 36.852 125.509 37.6587 125.876 38.348C126.243 39.0227 126.734 39.5433 127.35 39.91C127.966 40.262 128.648 40.438 129.396 40.438C130.144 40.438 130.826 40.262 131.442 39.91C132.073 39.5433 132.571 39.0227 132.938 38.348C133.305 37.6587 133.488 36.8593 133.488 35.95ZM144.769 29.724C146.236 29.724 147.424 30.1713 148.333 31.066C149.243 31.946 149.697 33.222 149.697 34.894V42H147.717V35.18C147.717 33.9773 147.417 33.0607 146.815 32.43C146.214 31.7847 145.393 31.462 144.351 31.462C143.295 31.462 142.452 31.792 141.821 32.452C141.205 33.112 140.897 34.0727 140.897 35.334V42H138.895V29.944H140.897V31.66C141.293 31.044 141.829 30.5673 142.503 30.23C143.193 29.8927 143.948 29.724 144.769 29.724ZM152.219 35.928C152.219 34.696 152.469 33.618 152.967 32.694C153.466 31.7553 154.148 31.0293 155.013 30.516C155.893 30.0027 156.876 29.746 157.961 29.746C158.9 29.746 159.773 29.966 160.579 30.406C161.386 30.8313 162.002 31.396 162.427 32.1V25.72H164.451V42H162.427V39.734C162.031 40.4527 161.445 41.0467 160.667 41.516C159.89 41.9707 158.981 42.198 157.939 42.198C156.869 42.198 155.893 41.934 155.013 41.406C154.148 40.878 153.466 40.1373 152.967 39.184C152.469 38.2307 152.219 37.1453 152.219 35.928ZM162.427 35.95C162.427 35.0407 162.244 34.2487 161.877 33.574C161.511 32.8993 161.012 32.386 160.381 32.034C159.765 31.6673 159.083 31.484 158.335 31.484C157.587 31.484 156.905 31.66 156.289 32.012C155.673 32.364 155.182 32.8773 154.815 33.552C154.449 34.2267 154.265 35.0187 154.265 35.928C154.265 36.852 154.449 37.6587 154.815 38.348C155.182 39.0227 155.673 39.5433 156.289 39.91C156.905 40.262 157.587 40.438 158.335 40.438C159.083 40.438 159.765 40.262 160.381 39.91C161.012 39.5433 161.511 39.0227 161.877 38.348C162.244 37.6587 162.427 36.8593 162.427 35.95ZM179.684 29.724C180.593 29.724 181.415 29.922 182.148 30.318C182.881 30.6993 183.453 31.2787 183.864 32.056C184.289 32.8333 184.502 33.7793 184.502 34.894V42H182.522V35.18C182.522 33.9773 182.221 33.0607 181.62 32.43C181.019 31.7847 180.197 31.462 179.156 31.462C178.1 31.462 177.257 31.792 176.626 32.452C176.01 33.112 175.702 34.0727 175.702 35.334V42H173.7V25.72H175.702V31.66C176.098 31.044 176.641 30.5673 177.33 30.23C178.034 29.8927 178.819 29.724 179.684 29.724ZM198.772 35.51C198.772 35.8913 198.75 36.2947 198.706 36.72H189.07C189.143 37.908 189.547 38.8393 190.28 39.514C191.028 40.174 191.93 40.504 192.986 40.504C193.851 40.504 194.57 40.306 195.142 39.91C195.729 39.4993 196.139 38.9567 196.374 38.282H198.53C198.207 39.4407 197.562 40.3867 196.594 41.12C195.626 41.8387 194.423 42.198 192.986 42.198C191.842 42.198 190.815 41.9413 189.906 41.428C189.011 40.9147 188.307 40.1887 187.794 39.25C187.281 38.2967 187.024 37.1967 187.024 35.95C187.024 34.7033 187.273 33.6107 187.772 32.672C188.271 31.7333 188.967 31.0147 189.862 30.516C190.771 30.0027 191.813 29.746 192.986 29.746C194.13 29.746 195.142 29.9953 196.022 30.494C196.902 30.9927 197.577 31.682 198.046 32.562C198.53 33.4273 198.772 34.41 198.772 35.51ZM196.704 35.092C196.704 34.3293 196.535 33.6767 196.198 33.134C195.861 32.5767 195.399 32.1587 194.812 31.88C194.24 31.5867 193.602 31.44 192.898 31.44C191.886 31.44 191.021 31.7627 190.302 32.408C189.598 33.0533 189.195 33.948 189.092 35.092H196.704ZM203.417 31.902C203.769 31.2127 204.267 30.6773 204.913 30.296C205.573 29.9147 206.372 29.724 207.311 29.724V31.792H206.783C204.539 31.792 203.417 33.0093 203.417 35.444V42H201.415V29.944H203.417V31.902ZM220.393 31.594H217.863V42H215.861V31.594H214.299V29.944H215.861V29.086C215.861 27.7367 216.206 26.754 216.895 26.138C217.599 25.5073 218.721 25.192 220.261 25.192V26.864C219.381 26.864 218.758 27.04 218.391 27.392C218.039 27.7293 217.863 28.294 217.863 29.086V29.944H220.393V31.594ZM224.729 31.902C225.081 31.2127 225.58 30.6773 226.225 30.296C226.885 29.9147 227.685 29.724 228.623 29.724V31.792H228.095C225.851 31.792 224.729 33.0093 224.729 35.444V42H222.727V29.944H224.729V31.902ZM231.968 27.986C231.587 27.986 231.264 27.854 231 27.59C230.736 27.326 230.604 27.0033 230.604 26.622C230.604 26.2407 230.736 25.918 231 25.654C231.264 25.39 231.587 25.258 231.968 25.258C232.335 25.258 232.643 25.39 232.892 25.654C233.156 25.918 233.288 26.2407 233.288 26.622C233.288 27.0033 233.156 27.326 232.892 27.59C232.643 27.854 232.335 27.986 231.968 27.986ZM232.936 29.944V42H230.934V29.944H232.936ZM247.348 35.51C247.348 35.8913 247.326 36.2947 247.282 36.72H237.646C237.72 37.908 238.123 38.8393 238.856 39.514C239.604 40.174 240.506 40.504 241.562 40.504C242.428 40.504 243.146 40.306 243.718 39.91C244.305 39.4993 244.716 38.9567 244.95 38.282H247.106C246.784 39.4407 246.138 40.3867 245.17 41.12C244.202 41.8387 243 42.198 241.562 42.198C240.418 42.198 239.392 41.9413 238.482 41.428C237.588 40.9147 236.884 40.1887 236.37 39.25C235.857 38.2967 235.6 37.1967 235.6 35.95C235.6 34.7033 235.85 33.6107 236.348 32.672C236.847 31.7333 237.544 31.0147 238.438 30.516C239.348 30.0027 240.389 29.746 241.562 29.746C242.706 29.746 243.718 29.9953 244.598 30.494C245.478 30.9927 246.153 31.682 246.622 32.562C247.106 33.4273 247.348 34.41 247.348 35.51ZM245.28 35.092C245.28 34.3293 245.112 33.6767 244.774 33.134C244.437 32.5767 243.975 32.1587 243.388 31.88C242.816 31.5867 242.178 31.44 241.474 31.44C240.462 31.44 239.597 31.7627 238.878 32.408C238.174 33.0533 237.771 33.948 237.668 35.092H245.28ZM255.865 29.724C257.332 29.724 258.52 30.1713 259.429 31.066C260.338 31.946 260.793 33.222 260.793 34.894V42H258.813V35.18C258.813 33.9773 258.512 33.0607 257.911 32.43C257.31 31.7847 256.488 31.462 255.447 31.462C254.391 31.462 253.548 31.792 252.917 32.452C252.301 33.112 251.993 34.0727 251.993 35.334V42H249.991V29.944H251.993V31.66C252.389 31.044 252.924 30.5673 253.599 30.23C254.288 29.8927 255.044 29.724 255.865 29.724ZM263.315 35.928C263.315 34.696 263.564 33.618 264.063 32.694C264.562 31.7553 265.244 31.0293 266.109 30.516C266.989 30.0027 267.972 29.746 269.057 29.746C269.996 29.746 270.868 29.966 271.675 30.406C272.482 30.8313 273.098 31.396 273.523 32.1V25.72H275.547V42H273.523V39.734C273.127 40.4527 272.54 41.0467 271.763 41.516C270.986 41.9707 270.076 42.198 269.035 42.198C267.964 42.198 266.989 41.934 266.109 41.406C265.244 40.878 264.562 40.1373 264.063 39.184C263.564 38.2307 263.315 37.1453 263.315 35.928ZM273.523 35.95C273.523 35.0407 273.34 34.2487 272.973 33.574C272.606 32.8993 272.108 32.386 271.477 32.034C270.861 31.6673 270.179 31.484 269.431 31.484C268.683 31.484 268.001 31.66 267.385 32.012C266.769 32.364 266.278 32.8773 265.911 33.552C265.544 34.2267 265.361 35.0187 265.361 35.928C265.361 36.852 265.544 37.6587 265.911 38.348C266.278 39.0227 266.769 39.5433 267.385 39.91C268.001 40.262 268.683 40.438 269.431 40.438C270.179 40.438 270.861 40.262 271.477 39.91C272.108 39.5433 272.606 39.0227 272.973 38.348C273.34 37.6587 273.523 36.8593 273.523 35.95ZM283.198 42.198C282.274 42.198 281.446 42.044 280.712 41.736C279.979 41.4133 279.4 40.9733 278.974 40.416C278.549 39.844 278.314 39.1913 278.27 38.458H280.338C280.397 39.0593 280.676 39.5507 281.174 39.932C281.688 40.3133 282.355 40.504 283.176 40.504C283.939 40.504 284.54 40.3353 284.98 39.998C285.42 39.6607 285.64 39.2353 285.64 38.722C285.64 38.194 285.406 37.8053 284.936 37.556C284.467 37.292 283.741 37.0353 282.758 36.786C281.864 36.5513 281.13 36.3167 280.558 36.082C280.001 35.8327 279.517 35.4733 279.106 35.004C278.71 34.52 278.512 33.8893 278.512 33.112C278.512 32.496 278.696 31.9313 279.062 31.418C279.429 30.9047 279.95 30.5013 280.624 30.208C281.299 29.9 282.069 29.746 282.934 29.746C284.269 29.746 285.347 30.0833 286.168 30.758C286.99 31.4327 287.43 32.3567 287.488 33.53H285.486C285.442 32.8993 285.186 32.3933 284.716 32.012C284.262 31.6307 283.646 31.44 282.868 31.44C282.15 31.44 281.578 31.594 281.152 31.902C280.727 32.21 280.514 32.6133 280.514 33.112C280.514 33.508 280.639 33.838 280.888 34.102C281.152 34.3513 281.475 34.5567 281.856 34.718C282.252 34.8647 282.795 35.0333 283.484 35.224C284.35 35.4587 285.054 35.6933 285.596 35.928C286.139 36.148 286.601 36.4853 286.982 36.94C287.378 37.3947 287.584 37.9887 287.598 38.722C287.598 39.382 287.415 39.976 287.048 40.504C286.682 41.032 286.161 41.45 285.486 41.758C284.826 42.0513 284.064 42.198 283.198 42.198ZM298.292 32.188C298.702 31.4693 299.304 30.8827 300.096 30.428C300.888 29.9733 301.79 29.746 302.802 29.746C303.887 29.746 304.862 30.0027 305.728 30.516C306.593 31.0293 307.275 31.7553 307.774 32.694C308.272 33.618 308.522 34.696 308.522 35.928C308.522 37.1453 308.272 38.2307 307.774 39.184C307.275 40.1373 306.586 40.878 305.706 41.406C304.84 41.934 303.872 42.198 302.802 42.198C301.76 42.198 300.844 41.9707 300.052 41.516C299.274 41.0613 298.688 40.482 298.292 39.778V42H296.29V25.72H298.292V32.188ZM306.476 35.928C306.476 35.0187 306.292 34.2267 305.926 33.552C305.559 32.8773 305.06 32.364 304.43 32.012C303.814 31.66 303.132 31.484 302.384 31.484C301.65 31.484 300.968 31.6673 300.338 32.034C299.722 32.386 299.223 32.9067 298.842 33.596C298.475 34.2707 298.292 35.0553 298.292 35.95C298.292 36.8593 298.475 37.6587 298.842 38.348C299.223 39.0227 299.722 39.5433 300.338 39.91C300.968 40.262 301.65 40.438 302.384 40.438C303.132 40.438 303.814 40.262 304.43 39.91C305.06 39.5433 305.559 39.0227 305.926 38.348C306.292 37.6587 306.476 36.852 306.476 35.928ZM322.157 35.51C322.157 35.8913 322.135 36.2947 322.091 36.72H312.455C312.528 37.908 312.932 38.8393 313.665 39.514C314.413 40.174 315.315 40.504 316.371 40.504C317.236 40.504 317.955 40.306 318.527 39.91C319.114 39.4993 319.524 38.9567 319.759 38.282H321.915C321.592 39.4407 320.947 40.3867 319.979 41.12C319.011 41.8387 317.808 42.198 316.371 42.198C315.227 42.198 314.2 41.9413 313.291 41.428C312.396 40.9147 311.692 40.1887 311.179 39.25C310.666 38.2967 310.409 37.1967 310.409 35.95C310.409 34.7033 310.658 33.6107 311.157 32.672C311.656 31.7333 312.352 31.0147 313.247 30.516C314.156 30.0027 315.198 29.746 316.371 29.746C317.515 29.746 318.527 29.9953 319.407 30.494C320.287 30.9927 320.962 31.682 321.431 32.562C321.915 33.4273 322.157 34.41 322.157 35.51ZM320.089 35.092C320.089 34.3293 319.92 33.6767 319.583 33.134C319.246 32.5767 318.784 32.1587 318.197 31.88C317.625 31.5867 316.987 31.44 316.283 31.44C315.271 31.44 314.406 31.7627 313.687 32.408C312.983 33.0533 312.58 33.948 312.477 35.092H320.089ZM324.051 35.95C324.051 34.7033 324.301 33.618 324.799 32.694C325.298 31.7553 325.987 31.0293 326.867 30.516C327.762 30.0027 328.781 29.746 329.925 29.746C331.407 29.746 332.624 30.1053 333.577 30.824C334.545 31.5427 335.183 32.54 335.491 33.816H333.335C333.13 33.0827 332.727 32.5033 332.125 32.078C331.539 31.6527 330.805 31.44 329.925 31.44C328.781 31.44 327.857 31.836 327.153 32.628C326.449 33.4053 326.097 34.5127 326.097 35.95C326.097 37.402 326.449 38.524 327.153 39.316C327.857 40.108 328.781 40.504 329.925 40.504C330.805 40.504 331.539 40.2987 332.125 39.888C332.712 39.4773 333.115 38.8907 333.335 38.128H335.491C335.169 39.36 334.523 40.35 333.555 41.098C332.587 41.8313 331.377 42.198 329.925 42.198C328.781 42.198 327.762 41.9413 326.867 41.428C325.987 40.9147 325.298 40.1887 324.799 39.25C324.301 38.3113 324.051 37.2113 324.051 35.95ZM337.415 35.928C337.415 34.696 337.664 33.618 338.163 32.694C338.661 31.7553 339.343 31.0293 340.209 30.516C341.089 30.0027 342.064 29.746 343.135 29.746C344.191 29.746 345.107 29.9733 345.885 30.428C346.662 30.8827 347.241 31.4547 347.623 32.144V29.944H349.647V42H347.623V39.756C347.227 40.46 346.633 41.0467 345.841 41.516C345.063 41.9707 344.154 42.198 343.113 42.198C342.042 42.198 341.074 41.934 340.209 41.406C339.343 40.878 338.661 40.1373 338.163 39.184C337.664 38.2307 337.415 37.1453 337.415 35.928ZM347.623 35.95C347.623 35.0407 347.439 34.2487 347.073 33.574C346.706 32.8993 346.207 32.386 345.577 32.034C344.961 31.6673 344.279 31.484 343.531 31.484C342.783 31.484 342.101 31.66 341.485 32.012C340.869 32.364 340.377 32.8773 340.011 33.552C339.644 34.2267 339.461 35.0187 339.461 35.928C339.461 36.852 339.644 37.6587 340.011 38.348C340.377 39.0227 340.869 39.5433 341.485 39.91C342.101 40.262 342.783 40.438 343.531 40.438C344.279 40.438 344.961 40.262 345.577 39.91C346.207 39.5433 346.706 39.0227 347.073 38.348C347.439 37.6587 347.623 36.8593 347.623 35.95ZM367.528 29.724C368.467 29.724 369.303 29.922 370.036 30.318C370.769 30.6993 371.349 31.2787 371.774 32.056C372.199 32.8333 372.412 33.7793 372.412 34.894V42H370.432V35.18C370.432 33.9773 370.131 33.0607 369.53 32.43C368.943 31.7847 368.144 31.462 367.132 31.462C366.091 31.462 365.262 31.7993 364.646 32.474C364.03 33.134 363.722 34.0947 363.722 35.356V42H361.742V35.18C361.742 33.9773 361.441 33.0607 360.84 32.43C360.253 31.7847 359.454 31.462 358.442 31.462C357.401 31.462 356.572 31.7993 355.956 32.474C355.34 33.134 355.032 34.0947 355.032 35.356V42H353.03V29.944H355.032V31.682C355.428 31.0513 355.956 30.5673 356.616 30.23C357.291 29.8927 358.031 29.724 358.838 29.724C359.85 29.724 360.745 29.9513 361.522 30.406C362.299 30.8607 362.879 31.528 363.26 32.408C363.597 31.5573 364.155 30.8973 364.932 30.428C365.709 29.9587 366.575 29.724 367.528 29.724ZM386.696 35.51C386.696 35.8913 386.674 36.2947 386.63 36.72H376.994C377.067 37.908 377.471 38.8393 378.204 39.514C378.952 40.174 379.854 40.504 380.91 40.504C381.775 40.504 382.494 40.306 383.066 39.91C383.653 39.4993 384.063 38.9567 384.298 38.282H386.454C386.131 39.4407 385.486 40.3867 384.518 41.12C383.55 41.8387 382.347 42.198 380.91 42.198C379.766 42.198 378.739 41.9413 377.83 41.428C376.935 40.9147 376.231 40.1887 375.718 39.25C375.205 38.2967 374.948 37.1967 374.948 35.95C374.948 34.7033 375.197 33.6107 375.696 32.672C376.195 31.7333 376.891 31.0147 377.786 30.516C378.695 30.0027 379.737 29.746 380.91 29.746C382.054 29.746 383.066 29.9953 383.946 30.494C384.826 30.9927 385.501 31.682 385.97 32.562C386.454 33.4273 386.696 34.41 386.696 35.51ZM384.628 35.092C384.628 34.3293 384.459 33.6767 384.122 33.134C383.785 32.5767 383.323 32.1587 382.736 31.88C382.164 31.5867 381.526 31.44 380.822 31.44C379.81 31.44 378.945 31.7627 378.226 32.408C377.522 33.0533 377.119 33.948 377.016 35.092H384.628ZM397.646 31.594V38.7C397.646 39.2867 397.77 39.7047 398.02 39.954C398.269 40.1887 398.702 40.306 399.318 40.306H400.792V42H398.988C397.873 42 397.037 41.7433 396.48 41.23C395.922 40.7167 395.644 39.8733 395.644 38.7V31.594H394.082V29.944H395.644V26.908H397.646V29.944H400.792V31.594H397.646ZM409.201 29.724C410.111 29.724 410.932 29.922 411.665 30.318C412.399 30.6993 412.971 31.2787 413.381 32.056C413.807 32.8333 414.019 33.7793 414.019 34.894V42H412.039V35.18C412.039 33.9773 411.739 33.0607 411.137 32.43C410.536 31.7847 409.715 31.462 408.673 31.462C407.617 31.462 406.774 31.792 406.143 32.452C405.527 33.112 405.219 34.0727 405.219 35.334V42H403.217V25.72H405.219V31.66C405.615 31.044 406.158 30.5673 406.847 30.23C407.551 29.8927 408.336 29.724 409.201 29.724ZM428.29 35.51C428.29 35.8913 428.268 36.2947 428.224 36.72H418.588C418.661 37.908 419.064 38.8393 419.798 39.514C420.546 40.174 421.448 40.504 422.504 40.504C423.369 40.504 424.088 40.306 424.66 39.91C425.246 39.4993 425.657 38.9567 425.892 38.282H428.048C427.725 39.4407 427.08 40.3867 426.112 41.12C425.144 41.8387 423.941 42.198 422.504 42.198C421.36 42.198 420.333 41.9413 419.424 41.428C418.529 40.9147 417.825 40.1887 417.312 39.25C416.798 38.2967 416.542 37.1967 416.542 35.95C416.542 34.7033 416.791 33.6107 417.29 32.672C417.788 31.7333 418.485 31.0147 419.38 30.516C420.289 30.0027 421.33 29.746 422.504 29.746C423.648 29.746 424.66 29.9953 425.54 30.494C426.42 30.9927 427.094 31.682 427.564 32.562C428.048 33.4273 428.29 34.41 428.29 35.51ZM426.222 35.092C426.222 34.3293 426.053 33.6767 425.716 33.134C425.378 32.5767 424.916 32.1587 424.33 31.88C423.758 31.5867 423.12 31.44 422.416 31.44C421.404 31.44 420.538 31.7627 419.82 32.408C419.116 33.0533 418.712 33.948 418.61 35.092H426.222ZM448.612 26.666V42H446.61V35.048H438.8V42H436.798V26.666H438.8V33.398H446.61V26.666H448.612ZM463.03 35.51C463.03 35.8913 463.008 36.2947 462.964 36.72H453.328C453.401 37.908 453.805 38.8393 454.538 39.514C455.286 40.174 456.188 40.504 457.244 40.504C458.109 40.504 458.828 40.306 459.4 39.91C459.987 39.4993 460.397 38.9567 460.632 38.282H462.788C462.465 39.4407 461.82 40.3867 460.852 41.12C459.884 41.8387 458.681 42.198 457.244 42.198C456.1 42.198 455.073 41.9413 454.164 41.428C453.269 40.9147 452.565 40.1887 452.052 39.25C451.539 38.2967 451.282 37.1967 451.282 35.95C451.282 34.7033 451.531 33.6107 452.03 32.672C452.529 31.7333 453.225 31.0147 454.12 30.516C455.029 30.0027 456.071 29.746 457.244 29.746C458.388 29.746 459.4 29.9953 460.28 30.494C461.16 30.9927 461.835 31.682 462.304 32.562C462.788 33.4273 463.03 34.41 463.03 35.51ZM460.962 35.092C460.962 34.3293 460.793 33.6767 460.456 33.134C460.119 32.5767 459.657 32.1587 459.07 31.88C458.498 31.5867 457.86 31.44 457.156 31.44C456.144 31.44 455.279 31.7627 454.56 32.408C453.856 33.0533 453.453 33.948 453.35 35.092H460.962ZM467.675 31.902C468.027 31.2127 468.525 30.6773 469.171 30.296C469.831 29.9147 470.63 29.724 471.569 29.724V31.792H471.041C468.797 31.792 467.675 33.0093 467.675 35.444V42H465.673V29.944H467.675V31.902ZM479.138 42.198C478.008 42.198 476.982 41.9413 476.058 41.428C475.148 40.9147 474.43 40.1887 473.902 39.25C473.388 38.2967 473.132 37.1967 473.132 35.95C473.132 34.718 473.396 33.6327 473.924 32.694C474.466 31.7407 475.2 31.0147 476.124 30.516C477.048 30.0027 478.082 29.746 479.226 29.746C480.37 29.746 481.404 30.0027 482.328 30.516C483.252 31.0147 483.978 31.7333 484.506 32.672C485.048 33.6107 485.32 34.7033 485.32 35.95C485.32 37.1967 485.041 38.2967 484.484 39.25C483.941 40.1887 483.2 40.9147 482.262 41.428C481.323 41.9413 480.282 42.198 479.138 42.198ZM479.138 40.438C479.856 40.438 480.531 40.2693 481.162 39.932C481.792 39.5947 482.298 39.0887 482.68 38.414C483.076 37.7393 483.274 36.918 483.274 35.95C483.274 34.982 483.083 34.1607 482.702 33.486C482.32 32.8113 481.822 32.3127 481.206 31.99C480.59 31.6527 479.922 31.484 479.204 31.484C478.47 31.484 477.796 31.6527 477.18 31.99C476.578 32.3127 476.094 32.8113 475.728 33.486C475.361 34.1607 475.178 34.982 475.178 35.95C475.178 36.9327 475.354 37.7613 475.706 38.436C476.072 39.1107 476.556 39.6167 477.158 39.954C477.759 40.2767 478.419 40.438 479.138 40.438ZM488.986 27.986C488.604 27.986 488.282 27.854 488.018 27.59C487.754 27.326 487.622 27.0033 487.622 26.622C487.622 26.2407 487.754 25.918 488.018 25.654C488.282 25.39 488.604 25.258 488.986 25.258C489.352 25.258 489.66 25.39 489.91 25.654C490.174 25.918 490.306 26.2407 490.306 26.622C490.306 27.0033 490.174 27.326 489.91 27.59C489.66 27.854 489.352 27.986 488.986 27.986ZM489.954 29.944V42H487.952V29.944H489.954ZM499.24 29.724C500.707 29.724 501.895 30.1713 502.804 31.066C503.713 31.946 504.168 33.222 504.168 34.894V42H502.188V35.18C502.188 33.9773 501.887 33.0607 501.286 32.43C500.685 31.7847 499.863 31.462 498.822 31.462C497.766 31.462 496.923 31.792 496.292 32.452C495.676 33.112 495.368 34.0727 495.368 35.334V42H493.366V29.944H495.368V31.66C495.764 31.044 496.299 30.5673 496.974 30.23C497.663 29.8927 498.419 29.724 499.24 29.724ZM518.438 35.51C518.438 35.8913 518.416 36.2947 518.372 36.72H508.736C508.809 37.908 509.213 38.8393 509.946 39.514C510.694 40.174 511.596 40.504 512.652 40.504C513.517 40.504 514.236 40.306 514.808 39.91C515.395 39.4993 515.805 38.9567 516.04 38.282H518.196C517.873 39.4407 517.228 40.3867 516.26 41.12C515.292 41.8387 514.089 42.198 512.652 42.198C511.508 42.198 510.481 41.9413 509.572 41.428C508.677 40.9147 507.973 40.1887 507.46 39.25C506.947 38.2967 506.69 37.1967 506.69 35.95C506.69 34.7033 506.939 33.6107 507.438 32.672C507.937 31.7333 508.633 31.0147 509.528 30.516C510.437 30.0027 511.479 29.746 512.652 29.746C513.796 29.746 514.808 29.9953 515.688 30.494C516.568 30.9927 517.243 31.682 517.712 32.562C518.196 33.4273 518.438 34.41 518.438 35.51ZM516.37 35.092C516.37 34.3293 516.201 33.6767 515.864 33.134C515.527 32.5767 515.065 32.1587 514.478 31.88C513.906 31.5867 513.268 31.44 512.564 31.44C511.552 31.44 510.687 31.7627 509.968 32.408C509.264 33.0533 508.861 33.948 508.758 35.092H516.37ZM525.349 42.198C524.425 42.198 523.596 42.044 522.863 41.736C522.129 41.4133 521.55 40.9733 521.125 40.416C520.699 39.844 520.465 39.1913 520.421 38.458H522.489C522.547 39.0593 522.826 39.5507 523.325 39.932C523.838 40.3133 524.505 40.504 525.327 40.504C526.089 40.504 526.691 40.3353 527.131 39.998C527.571 39.6607 527.791 39.2353 527.791 38.722C527.791 38.194 527.556 37.8053 527.087 37.556C526.617 37.292 525.891 37.0353 524.909 36.786C524.014 36.5513 523.281 36.3167 522.709 36.082C522.151 35.8327 521.667 35.4733 521.257 35.004C520.861 34.52 520.663 33.8893 520.663 33.112C520.663 32.496 520.846 31.9313 521.213 31.418C521.579 30.9047 522.1 30.5013 522.775 30.208C523.449 29.9 524.219 29.746 525.085 29.746C526.419 29.746 527.497 30.0833 528.319 30.758C529.14 31.4327 529.58 32.3567 529.639 33.53H527.637C527.593 32.8993 527.336 32.3933 526.867 32.012C526.412 31.6307 525.796 31.44 525.019 31.44C524.3 31.44 523.728 31.594 523.303 31.902C522.877 32.21 522.665 32.6133 522.665 33.112C522.665 33.508 522.789 33.838 523.039 34.102C523.303 34.3513 523.625 34.5567 524.007 34.718C524.403 34.8647 524.945 35.0333 525.635 35.224C526.5 35.4587 527.204 35.6933 527.747 35.928C528.289 36.148 528.751 36.4853 529.133 36.94C529.529 37.3947 529.734 37.9887 529.749 38.722C529.749 39.382 529.565 39.976 529.199 40.504C528.832 41.032 528.311 41.45 527.637 41.758C526.977 42.0513 526.214 42.198 525.349 42.198ZM56.8622 75.198C55.7328 75.198 54.7062 74.9413 53.7822 74.428C52.8728 73.9147 52.1542 73.1887 51.6262 72.25C51.1128 71.2967 50.8562 70.1967 50.8562 68.95C50.8562 67.718 51.1202 66.6327 51.6482 65.694C52.1908 64.7407 52.9242 64.0147 53.8482 63.516C54.7722 63.0027 55.8062 62.746 56.9502 62.746C58.0942 62.746 59.1282 63.0027 60.0522 63.516C60.9762 64.0147 61.7022 64.7333 62.2302 65.672C62.7728 66.6107 63.0442 67.7033 63.0442 68.95C63.0442 70.1967 62.7655 71.2967 62.2082 72.25C61.6655 73.1887 60.9248 73.9147 59.9862 74.428C59.0475 74.9413 58.0062 75.198 56.8622 75.198ZM56.8622 73.438C57.5808 73.438 58.2555 73.2693 58.8862 72.932C59.5168 72.5947 60.0228 72.0887 60.4042 71.414C60.8002 70.7393 60.9982 69.918 60.9982 68.95C60.9982 67.982 60.8075 67.1607 60.4262 66.486C60.0448 65.8113 59.5462 65.3127 58.9302 64.99C58.3142 64.6527 57.6468 64.484 56.9282 64.484C56.1948 64.484 55.5202 64.6527 54.9042 64.99C54.3028 65.3127 53.8188 65.8113 53.4522 66.486C53.0855 67.1607 52.9022 67.982 52.9022 68.95C52.9022 69.9327 53.0782 70.7613 53.4302 71.436C53.7968 72.1107 54.2808 72.6167 54.8822 72.954C55.4835 73.2767 56.1435 73.438 56.8622 73.438ZM70.5824 64.594H68.0524V75H66.0504V64.594H64.4884V62.944H66.0504V62.086C66.0504 60.7367 66.3951 59.754 67.0844 59.138C67.7884 58.5073 68.9104 58.192 70.4504 58.192V59.864C69.5704 59.864 68.9471 60.04 68.5804 60.392C68.2284 60.7293 68.0524 61.294 68.0524 62.086V62.944H70.5824V64.594ZM88.2199 59.666V61.294H84.0399V75H82.0379V61.294H77.8359V59.666H88.2199ZM101.684 68.51C101.684 68.8913 101.662 69.2947 101.618 69.72H91.9822C92.0556 70.908 92.4589 71.8393 93.1922 72.514C93.9402 73.174 94.8422 73.504 95.8982 73.504C96.7636 73.504 97.4822 73.306 98.0542 72.91C98.6409 72.4993 99.0516 71.9567 99.2862 71.282H101.442C101.12 72.4407 100.474 73.3867 99.5062 74.12C98.5382 74.8387 97.3356 75.198 95.8982 75.198C94.7542 75.198 93.7276 74.9413 92.8182 74.428C91.9236 73.9147 91.2196 73.1887 90.7062 72.25C90.1929 71.2967 89.9362 70.1967 89.9362 68.95C89.9362 67.7033 90.1856 66.6107 90.6842 65.672C91.1829 64.7333 91.8796 64.0147 92.7742 63.516C93.6836 63.0027 94.7249 62.746 95.8982 62.746C97.0422 62.746 98.0542 62.9953 98.9342 63.494C99.8142 63.9927 100.489 64.682 100.958 65.562C101.442 66.4273 101.684 67.41 101.684 68.51ZM99.6162 68.092C99.6162 67.3293 99.4476 66.6767 99.1102 66.134C98.7729 65.5767 98.3109 65.1587 97.7242 64.88C97.1522 64.5867 96.5142 64.44 95.8102 64.44C94.7982 64.44 93.9329 64.7627 93.2142 65.408C92.5102 66.0533 92.1069 66.948 92.0042 68.092H99.6162ZM105.405 60.986C105.023 60.986 104.701 60.854 104.437 60.59C104.187 60.326 104.063 60.0033 104.063 59.622C104.063 59.2407 104.187 58.918 104.437 58.654C104.701 58.39 105.023 58.258 105.405 58.258C105.786 58.258 106.101 58.39 106.351 58.654C106.615 58.918 106.747 59.2407 106.747 59.622C106.747 60.0033 106.615 60.326 106.351 60.59C106.101 60.854 105.786 60.986 105.405 60.986ZM106.395 77.618C106.395 78.6887 106.123 79.4733 105.581 79.972C105.038 80.4707 104.246 80.72 103.205 80.72H102.039V79.026H102.875C103.432 79.026 103.821 78.916 104.041 78.696C104.275 78.476 104.393 78.102 104.393 77.574V62.944H106.395V77.618ZM120.476 62.944V75H118.474V73.218C118.093 73.834 117.557 74.318 116.868 74.67C116.193 75.0073 115.445 75.176 114.624 75.176C113.685 75.176 112.842 74.9853 112.094 74.604C111.346 74.208 110.752 73.6213 110.312 72.844C109.887 72.0667 109.674 71.1207 109.674 70.006V62.944H111.654V69.742C111.654 70.93 111.955 71.8467 112.556 72.492C113.157 73.1227 113.979 73.438 115.02 73.438C116.091 73.438 116.934 73.108 117.55 72.448C118.166 71.788 118.474 70.8273 118.474 69.566V62.944H120.476ZM123.108 68.95C123.108 67.7033 123.357 66.618 123.856 65.694C124.355 64.7553 125.044 64.0293 125.924 63.516C126.819 63.0027 127.838 62.746 128.982 62.746C130.463 62.746 131.681 63.1053 132.634 63.824C133.602 64.5427 134.24 65.54 134.548 66.816H132.392C132.187 66.0827 131.783 65.5033 131.182 65.078C130.595 64.6527 129.862 64.44 128.982 64.44C127.838 64.44 126.914 64.836 126.21 65.628C125.506 66.4053 125.154 67.5127 125.154 68.95C125.154 70.402 125.506 71.524 126.21 72.316C126.914 73.108 127.838 73.504 128.982 73.504C129.862 73.504 130.595 73.2987 131.182 72.888C131.769 72.4773 132.172 71.8907 132.392 71.128H134.548C134.225 72.36 133.58 73.35 132.612 74.098C131.644 74.8313 130.434 75.198 128.982 75.198C127.838 75.198 126.819 74.9413 125.924 74.428C125.044 73.9147 124.355 73.1887 123.856 72.25C123.357 71.3113 123.108 70.2113 123.108 68.95ZM147.911 62.944V75H145.909V73.218C145.528 73.834 144.993 74.318 144.303 74.67C143.629 75.0073 142.881 75.176 142.059 75.176C141.121 75.176 140.277 74.9853 139.529 74.604C138.781 74.208 138.187 73.6213 137.747 72.844C137.322 72.0667 137.109 71.1207 137.109 70.006V62.944H139.089V69.742C139.089 70.93 139.39 71.8467 139.991 72.492C140.593 73.1227 141.414 73.438 142.455 73.438C143.526 73.438 144.369 73.108 144.985 72.448C145.601 71.788 145.909 70.8273 145.909 69.566V62.944H147.911ZM153.294 65.166C153.69 64.4767 154.276 63.9047 155.054 63.45C155.846 62.9807 156.762 62.746 157.804 62.746C158.874 62.746 159.842 63.0027 160.708 63.516C161.588 64.0293 162.277 64.7553 162.776 65.694C163.274 66.618 163.524 67.696 163.524 68.928C163.524 70.1453 163.274 71.2307 162.776 72.184C162.277 73.1373 161.588 73.878 160.708 74.406C159.842 74.934 158.874 75.198 157.804 75.198C156.777 75.198 155.868 74.9707 155.076 74.516C154.298 74.0467 153.704 73.4673 153.294 72.778V80.72H151.292V62.944H153.294V65.166ZM161.478 68.928C161.478 68.0187 161.294 67.2267 160.928 66.552C160.561 65.8773 160.062 65.364 159.432 65.012C158.816 64.66 158.134 64.484 157.386 64.484C156.652 64.484 155.97 64.6673 155.34 65.034C154.724 65.386 154.225 65.9067 153.844 66.596C153.477 67.2707 153.294 68.0553 153.294 68.95C153.294 69.8593 153.477 70.6587 153.844 71.348C154.225 72.0227 154.724 72.5433 155.34 72.91C155.97 73.262 156.652 73.438 157.386 73.438C158.134 73.438 158.816 73.262 159.432 72.91C160.062 72.5433 160.561 72.0227 160.928 71.348C161.294 70.6587 161.478 69.852 161.478 68.928ZM165.411 68.928C165.411 67.696 165.66 66.618 166.159 65.694C166.658 64.7553 167.34 64.0293 168.205 63.516C169.085 63.0027 170.06 62.746 171.131 62.746C172.187 62.746 173.104 62.9733 173.881 63.428C174.658 63.8827 175.238 64.4547 175.619 65.144V62.944H177.643V75H175.619V72.756C175.223 73.46 174.629 74.0467 173.837 74.516C173.06 74.9707 172.15 75.198 171.109 75.198C170.038 75.198 169.07 74.934 168.205 74.406C167.34 73.878 166.658 73.1373 166.159 72.184C165.66 71.2307 165.411 70.1453 165.411 68.928ZM175.619 68.95C175.619 68.0407 175.436 67.2487 175.069 66.574C174.702 65.8993 174.204 65.386 173.573 65.034C172.957 64.6673 172.275 64.484 171.527 64.484C170.779 64.484 170.097 64.66 169.481 65.012C168.865 65.364 168.374 65.8773 168.007 66.552C167.64 67.2267 167.457 68.0187 167.457 68.928C167.457 69.852 167.64 70.6587 168.007 71.348C168.374 72.0227 168.865 72.5433 169.481 72.91C170.097 73.262 170.779 73.438 171.527 73.438C172.275 73.438 172.957 73.262 173.573 72.91C174.204 72.5433 174.702 72.0227 175.069 71.348C175.436 70.6587 175.619 69.8593 175.619 68.95ZM183.028 65.166C183.424 64.4767 184.011 63.9047 184.788 63.45C185.58 62.9807 186.497 62.746 187.538 62.746C188.609 62.746 189.577 63.0027 190.442 63.516C191.322 64.0293 192.011 64.7553 192.51 65.694C193.009 66.618 193.258 67.696 193.258 68.928C193.258 70.1453 193.009 71.2307 192.51 72.184C192.011 73.1373 191.322 73.878 190.442 74.406C189.577 74.934 188.609 75.198 187.538 75.198C186.511 75.198 185.602 74.9707 184.81 74.516C184.033 74.0467 183.439 73.4673 183.028 72.778V80.72H181.026V62.944H183.028V65.166ZM191.212 68.928C191.212 68.0187 191.029 67.2267 190.662 66.552C190.295 65.8773 189.797 65.364 189.166 65.012C188.55 64.66 187.868 64.484 187.12 64.484C186.387 64.484 185.705 64.6673 185.074 65.034C184.458 65.386 183.959 65.9067 183.578 66.596C183.211 67.2707 183.028 68.0553 183.028 68.95C183.028 69.8593 183.211 70.6587 183.578 71.348C183.959 72.0227 184.458 72.5433 185.074 72.91C185.705 73.262 186.387 73.438 187.12 73.438C187.868 73.438 188.55 73.262 189.166 72.91C189.797 72.5433 190.295 72.0227 190.662 71.348C191.029 70.6587 191.212 69.852 191.212 68.928ZM201.151 75.198C200.022 75.198 198.995 74.9413 198.071 74.428C197.162 73.9147 196.443 73.1887 195.915 72.25C195.402 71.2967 195.145 70.1967 195.145 68.95C195.145 67.718 195.409 66.6327 195.937 65.694C196.48 64.7407 197.213 64.0147 198.137 63.516C199.061 63.0027 200.095 62.746 201.239 62.746C202.383 62.746 203.417 63.0027 204.341 63.516C205.265 64.0147 205.991 64.7333 206.519 65.672C207.062 66.6107 207.333 67.7033 207.333 68.95C207.333 70.1967 207.055 71.2967 206.497 72.25C205.955 73.1887 205.214 73.9147 204.275 74.428C203.337 74.9413 202.295 75.198 201.151 75.198ZM201.151 73.438C201.87 73.438 202.545 73.2693 203.175 72.932C203.806 72.5947 204.312 72.0887 204.693 71.414C205.089 70.7393 205.287 69.918 205.287 68.95C205.287 67.982 205.097 67.1607 204.715 66.486C204.334 65.8113 203.835 65.3127 203.219 64.99C202.603 64.6527 201.936 64.484 201.217 64.484C200.484 64.484 199.809 64.6527 199.193 64.99C198.592 65.3127 198.108 65.8113 197.741 66.486C197.375 67.1607 197.191 67.982 197.191 68.95C197.191 69.9327 197.367 70.7613 197.719 71.436C198.086 72.1107 198.57 72.6167 199.171 72.954C199.773 73.2767 200.433 73.438 201.151 73.438ZM218.273 64.594V71.7C218.273 72.2867 218.397 72.7047 218.647 72.954C218.896 73.1887 219.329 73.306 219.945 73.306H221.419V75H219.615C218.5 75 217.664 74.7433 217.107 74.23C216.549 73.7167 216.271 72.8733 216.271 71.7V64.594H214.709V62.944H216.271V59.908H218.273V62.944H221.419V64.594H218.273ZM229.828 62.724C230.738 62.724 231.559 62.922 232.292 63.318C233.026 63.6993 233.598 64.2787 234.008 65.056C234.434 65.8333 234.646 66.7793 234.646 67.894V75H232.666V68.18C232.666 66.9773 232.366 66.0607 231.764 65.43C231.163 64.7847 230.342 64.462 229.3 64.462C228.244 64.462 227.401 64.792 226.77 65.452C226.154 66.112 225.846 67.0727 225.846 68.334V75H223.844V58.72H225.846V64.66C226.242 64.044 226.785 63.5673 227.474 63.23C228.178 62.8927 228.963 62.724 229.828 62.724ZM237.169 68.928C237.169 67.696 237.418 66.618 237.917 65.694C238.415 64.7553 239.097 64.0293 239.963 63.516C240.843 63.0027 241.818 62.746 242.889 62.746C243.945 62.746 244.861 62.9733 245.639 63.428C246.416 63.8827 246.995 64.4547 247.377 65.144V62.944H249.401V75H247.377V72.756C246.981 73.46 246.387 74.0467 245.595 74.516C244.817 74.9707 243.908 75.198 242.867 75.198C241.796 75.198 240.828 74.934 239.963 74.406C239.097 73.878 238.415 73.1373 237.917 72.184C237.418 71.2307 237.169 70.1453 237.169 68.928ZM247.377 68.95C247.377 68.0407 247.193 67.2487 246.827 66.574C246.46 65.8993 245.961 65.386 245.331 65.034C244.715 64.6673 244.033 64.484 243.285 64.484C242.537 64.484 241.855 64.66 241.239 65.012C240.623 65.364 240.131 65.8773 239.765 66.552C239.398 67.2267 239.215 68.0187 239.215 68.928C239.215 69.852 239.398 70.6587 239.765 71.348C240.131 72.0227 240.623 72.5433 241.239 72.91C241.855 73.262 242.537 73.438 243.285 73.438C244.033 73.438 244.715 73.262 245.331 72.91C245.961 72.5433 246.46 72.0227 246.827 71.348C247.193 70.6587 247.377 69.8593 247.377 68.95ZM255.226 64.594V71.7C255.226 72.2867 255.351 72.7047 255.6 72.954C255.849 73.1887 256.282 73.306 256.898 73.306H258.372V75H256.568C255.453 75 254.617 74.7433 254.06 74.23C253.503 73.7167 253.224 72.8733 253.224 71.7V64.594H251.662V62.944H253.224V59.908H255.226V62.944H258.372V64.594H255.226ZM265.915 68.928C265.915 67.696 266.164 66.618 266.663 65.694C267.161 64.7553 267.843 64.0293 268.709 63.516C269.589 63.0027 270.571 62.746 271.657 62.746C272.595 62.746 273.468 62.966 274.275 63.406C275.081 63.8313 275.697 64.396 276.123 65.1V58.72H278.147V75H276.123V72.734C275.727 73.4527 275.14 74.0467 274.363 74.516C273.585 74.9707 272.676 75.198 271.635 75.198C270.564 75.198 269.589 74.934 268.709 74.406C267.843 73.878 267.161 73.1373 266.663 72.184C266.164 71.2307 265.915 70.1453 265.915 68.928ZM276.123 68.95C276.123 68.0407 275.939 67.2487 275.573 66.574C275.206 65.8993 274.707 65.386 274.077 65.034C273.461 64.6673 272.779 64.484 272.031 64.484C271.283 64.484 270.601 64.66 269.985 65.012C269.369 65.364 268.877 65.8773 268.511 66.552C268.144 67.2267 267.961 68.0187 267.961 68.928C267.961 69.852 268.144 70.6587 268.511 71.348C268.877 72.0227 269.369 72.5433 269.985 72.91C270.601 73.262 271.283 73.438 272.031 73.438C272.779 73.438 273.461 73.262 274.077 72.91C274.707 72.5433 275.206 72.0227 275.573 71.348C275.939 70.6587 276.123 69.8593 276.123 68.95ZM280.782 68.928C280.782 67.696 281.031 66.618 281.53 65.694C282.029 64.7553 282.711 64.0293 283.576 63.516C284.456 63.0027 285.431 62.746 286.502 62.746C287.558 62.746 288.475 62.9733 289.252 63.428C290.029 63.8827 290.609 64.4547 290.99 65.144V62.944H293.014V75H290.99V72.756C290.594 73.46 290 74.0467 289.208 74.516C288.431 74.9707 287.521 75.198 286.48 75.198C285.409 75.198 284.441 74.934 283.576 74.406C282.711 73.878 282.029 73.1373 281.53 72.184C281.031 71.2307 280.782 70.1453 280.782 68.928ZM290.99 68.95C290.99 68.0407 290.807 67.2487 290.44 66.574C290.073 65.8993 289.575 65.386 288.944 65.034C288.328 64.6673 287.646 64.484 286.898 64.484C286.15 64.484 285.468 64.66 284.852 65.012C284.236 65.364 283.745 65.8773 283.378 66.552C283.011 67.2267 282.828 68.0187 282.828 68.928C282.828 69.852 283.011 70.6587 283.378 71.348C283.745 72.0227 284.236 72.5433 284.852 72.91C285.468 73.262 286.15 73.438 286.898 73.438C287.646 73.438 288.328 73.262 288.944 72.91C289.575 72.5433 290.073 72.0227 290.44 71.348C290.807 70.6587 290.99 69.8593 290.99 68.95ZM306.781 62.944L299.521 80.676H297.453L299.829 74.868L294.967 62.944H297.189L300.973 72.712L304.713 62.944H306.781ZM316.661 65.188C317.072 64.4693 317.673 63.8827 318.465 63.428C319.257 62.9733 320.159 62.746 321.171 62.746C322.256 62.746 323.232 63.0027 324.097 63.516C324.962 64.0293 325.644 64.7553 326.143 65.694C326.642 66.618 326.891 67.696 326.891 68.928C326.891 70.1453 326.642 71.2307 326.143 72.184C325.644 73.1373 324.955 73.878 324.075 74.406C323.21 74.934 322.242 75.198 321.171 75.198C320.13 75.198 319.213 74.9707 318.421 74.516C317.644 74.0613 317.057 73.482 316.661 72.778V75H314.659V58.72H316.661V65.188ZM324.845 68.928C324.845 68.0187 324.662 67.2267 324.295 66.552C323.928 65.8773 323.43 65.364 322.799 65.012C322.183 64.66 321.501 64.484 320.753 64.484C320.02 64.484 319.338 64.6673 318.707 65.034C318.091 65.386 317.592 65.9067 317.211 66.596C316.844 67.2707 316.661 68.0553 316.661 68.95C316.661 69.8593 316.844 70.6587 317.211 71.348C317.592 72.0227 318.091 72.5433 318.707 72.91C319.338 73.262 320.02 73.438 320.753 73.438C321.501 73.438 322.183 73.262 322.799 72.91C323.43 72.5433 323.928 72.0227 324.295 71.348C324.662 70.6587 324.845 69.852 324.845 68.928ZM339.91 62.944L332.65 80.676H330.582L332.958 74.868L328.096 62.944H330.318L334.102 72.712L337.842 62.944H339.91ZM352.056 75.198C351.132 75.198 350.303 75.044 349.57 74.736C348.836 74.4133 348.257 73.9733 347.832 73.416C347.406 72.844 347.172 72.1913 347.128 71.458H349.196C349.254 72.0593 349.533 72.5507 350.032 72.932C350.545 73.3133 351.212 73.504 352.034 73.504C352.796 73.504 353.398 73.3353 353.838 72.998C354.278 72.6607 354.498 72.2353 354.498 71.722C354.498 71.194 354.263 70.8053 353.794 70.556C353.324 70.292 352.598 70.0353 351.616 69.786C350.721 69.5513 349.988 69.3167 349.416 69.082C348.858 68.8327 348.374 68.4733 347.964 68.004C347.568 67.52 347.37 66.8893 347.37 66.112C347.37 65.496 347.553 64.9313 347.92 64.418C348.286 63.9047 348.807 63.5013 349.482 63.208C350.156 62.9 350.926 62.746 351.792 62.746C353.126 62.746 354.204 63.0833 355.026 63.758C355.847 64.4327 356.287 65.3567 356.346 66.53H354.344C354.3 65.8993 354.043 65.3933 353.574 65.012C353.119 64.6307 352.503 64.44 351.726 64.44C351.007 64.44 350.435 64.594 350.01 64.902C349.584 65.21 349.372 65.6133 349.372 66.112C349.372 66.508 349.496 66.838 349.746 67.102C350.01 67.3513 350.332 67.5567 350.714 67.718C351.11 67.8647 351.652 68.0333 352.342 68.224C353.207 68.4587 353.911 68.6933 354.454 68.928C354.996 69.148 355.458 69.4853 355.84 69.94C356.236 70.3947 356.441 70.9887 356.456 71.722C356.456 72.382 356.272 72.976 355.906 73.504C355.539 74.032 355.018 74.45 354.344 74.758C353.684 75.0513 352.921 75.198 352.056 75.198ZM365.266 62.724C366.175 62.724 366.997 62.922 367.73 63.318C368.463 63.6993 369.035 64.2787 369.446 65.056C369.871 65.8333 370.084 66.7793 370.084 67.894V75H368.104V68.18C368.104 66.9773 367.803 66.0607 367.202 65.43C366.601 64.7847 365.779 64.462 364.738 64.462C363.682 64.462 362.839 64.792 362.208 65.452C361.592 66.112 361.284 67.0727 361.284 68.334V75H359.282V58.72H361.284V64.66C361.68 64.044 362.223 63.5673 362.912 63.23C363.616 62.8927 364.401 62.724 365.266 62.724ZM378.612 75.198C377.483 75.198 376.456 74.9413 375.532 74.428C374.623 73.9147 373.904 73.1887 373.376 72.25C372.863 71.2967 372.606 70.1967 372.606 68.95C372.606 67.718 372.87 66.6327 373.398 65.694C373.941 64.7407 374.674 64.0147 375.598 63.516C376.522 63.0027 377.556 62.746 378.7 62.746C379.844 62.746 380.878 63.0027 381.802 63.516C382.726 64.0147 383.452 64.7333 383.98 65.672C384.523 66.6107 384.794 67.7033 384.794 68.95C384.794 70.1967 384.515 71.2967 383.958 72.25C383.415 73.1887 382.675 73.9147 381.736 74.428C380.797 74.9413 379.756 75.198 378.612 75.198ZM378.612 73.438C379.331 73.438 380.005 73.2693 380.636 72.932C381.267 72.5947 381.773 72.0887 382.154 71.414C382.55 70.7393 382.748 69.918 382.748 68.95C382.748 67.982 382.557 67.1607 382.176 66.486C381.795 65.8113 381.296 65.3127 380.68 64.99C380.064 64.6527 379.397 64.484 378.678 64.484C377.945 64.484 377.27 64.6527 376.654 64.99C376.053 65.3127 375.569 65.8113 375.202 66.486C374.835 67.1607 374.652 67.982 374.652 68.95C374.652 69.9327 374.828 70.7613 375.18 71.436C375.547 72.1107 376.031 72.6167 376.632 72.954C377.233 73.2767 377.893 73.438 378.612 73.438ZM403.486 62.944L399.724 75H397.656L394.752 65.43L391.848 75H389.78L385.996 62.944H388.042L390.814 73.064L393.806 62.944H395.852L398.778 73.086L401.506 62.944H403.486ZM406.507 60.986C406.126 60.986 405.803 60.854 405.539 60.59C405.275 60.326 405.143 60.0033 405.143 59.622C405.143 59.2407 405.275 58.918 405.539 58.654C405.803 58.39 406.126 58.258 406.507 58.258C406.874 58.258 407.182 58.39 407.431 58.654C407.695 58.918 407.827 59.2407 407.827 59.622C407.827 60.0033 407.695 60.326 407.431 60.59C407.182 60.854 406.874 60.986 406.507 60.986ZM407.475 62.944V75H405.473V62.944H407.475ZM416.761 62.724C418.228 62.724 419.416 63.1713 420.325 64.066C421.235 64.946 421.689 66.222 421.689 67.894V75H419.709V68.18C419.709 66.9773 419.409 66.0607 418.807 65.43C418.206 64.7847 417.385 64.462 416.343 64.462C415.287 64.462 414.444 64.792 413.813 65.452C413.197 66.112 412.889 67.0727 412.889 68.334V75H410.887V62.944H412.889V64.66C413.285 64.044 413.821 63.5673 414.495 63.23C415.185 62.8927 415.94 62.724 416.761 62.724ZM429.932 62.746C430.973 62.746 431.882 62.9733 432.66 63.428C433.452 63.8827 434.038 64.4547 434.42 65.144V62.944H436.444V75.264C436.444 76.364 436.209 77.3393 435.74 78.19C435.27 79.0553 434.596 79.73 433.716 80.214C432.85 80.698 431.838 80.94 430.68 80.94C429.096 80.94 427.776 80.566 426.72 79.818C425.664 79.07 425.04 78.0507 424.85 76.76H426.83C427.05 77.4933 427.504 78.08 428.194 78.52C428.883 78.9747 429.712 79.202 430.68 79.202C431.78 79.202 432.674 78.8573 433.364 78.168C434.068 77.4787 434.42 76.5107 434.42 75.264V72.734C434.024 73.438 433.437 74.0247 432.66 74.494C431.882 74.9633 430.973 75.198 429.932 75.198C428.861 75.198 427.886 74.934 427.006 74.406C426.14 73.878 425.458 73.1373 424.96 72.184C424.461 71.2307 424.212 70.1453 424.212 68.928C424.212 67.696 424.461 66.618 424.96 65.694C425.458 64.7553 426.14 64.0293 427.006 63.516C427.886 63.0027 428.861 62.746 429.932 62.746ZM434.42 68.95C434.42 68.0407 434.236 67.2487 433.87 66.574C433.503 65.8993 433.004 65.386 432.374 65.034C431.758 64.6673 431.076 64.484 430.328 64.484C429.58 64.484 428.898 64.66 428.282 65.012C427.666 65.364 427.174 65.8773 426.808 66.552C426.441 67.2267 426.258 68.0187 426.258 68.928C426.258 69.852 426.441 70.6587 426.808 71.348C427.174 72.0227 427.666 72.5433 428.282 72.91C428.898 73.262 429.58 73.438 430.328 73.438C431.076 73.438 431.758 73.262 432.374 72.91C433.004 72.5433 433.503 72.0227 433.87 71.348C434.236 70.6587 434.42 69.8593 434.42 68.95ZM444.944 68.95C444.944 67.7033 445.193 66.618 445.692 65.694C446.191 64.7553 446.88 64.0293 447.76 63.516C448.655 63.0027 449.674 62.746 450.818 62.746C452.299 62.746 453.517 63.1053 454.47 63.824C455.438 64.5427 456.076 65.54 456.384 66.816H454.228C454.023 66.0827 453.619 65.5033 453.018 65.078C452.431 64.6527 451.698 64.44 450.818 64.44C449.674 64.44 448.75 64.836 448.046 65.628C447.342 66.4053 446.99 67.5127 446.99 68.95C446.99 70.402 447.342 71.524 448.046 72.316C448.75 73.108 449.674 73.504 450.818 73.504C451.698 73.504 452.431 73.2987 453.018 72.888C453.605 72.4773 454.008 71.8907 454.228 71.128H456.384C456.061 72.36 455.416 73.35 454.448 74.098C453.48 74.8313 452.27 75.198 450.818 75.198C449.674 75.198 448.655 74.9413 447.76 74.428C446.88 73.9147 446.191 73.1887 445.692 72.25C445.193 71.3113 444.944 70.2113 444.944 68.95ZM464.313 75.198C463.184 75.198 462.157 74.9413 461.233 74.428C460.324 73.9147 459.605 73.1887 459.077 72.25C458.564 71.2967 458.307 70.1967 458.307 68.95C458.307 67.718 458.571 66.6327 459.099 65.694C459.642 64.7407 460.375 64.0147 461.299 63.516C462.223 63.0027 463.257 62.746 464.401 62.746C465.545 62.746 466.579 63.0027 467.503 63.516C468.427 64.0147 469.153 64.7333 469.681 65.672C470.224 66.6107 470.495 67.7033 470.495 68.95C470.495 70.1967 470.217 71.2967 469.659 72.25C469.117 73.1887 468.376 73.9147 467.437 74.428C466.499 74.9413 465.457 75.198 464.313 75.198ZM464.313 73.438C465.032 73.438 465.707 73.2693 466.337 72.932C466.968 72.5947 467.474 72.0887 467.855 71.414C468.251 70.7393 468.449 69.918 468.449 68.95C468.449 67.982 468.259 67.1607 467.877 66.486C467.496 65.8113 466.997 65.3127 466.381 64.99C465.765 64.6527 465.098 64.484 464.379 64.484C463.646 64.484 462.971 64.6527 462.355 64.99C461.754 65.3127 461.27 65.8113 460.903 66.486C460.537 67.1607 460.353 67.982 460.353 68.95C460.353 69.9327 460.529 70.7613 460.881 71.436C461.248 72.1107 461.732 72.6167 462.333 72.954C462.935 73.2767 463.595 73.438 464.313 73.438ZM483.82 62.944V75H481.818V73.218C481.436 73.834 480.901 74.318 480.212 74.67C479.537 75.0073 478.789 75.176 477.968 75.176C477.029 75.176 476.186 74.9853 475.438 74.604C474.69 74.208 474.096 73.6213 473.656 72.844C473.23 72.0667 473.018 71.1207 473.018 70.006V62.944H474.998V69.742C474.998 70.93 475.298 71.8467 475.9 72.492C476.501 73.1227 477.322 73.438 478.364 73.438C479.434 73.438 480.278 73.108 480.894 72.448C481.51 71.788 481.818 70.8273 481.818 69.566V62.944H483.82ZM489.202 64.902C489.554 64.2127 490.053 63.6773 490.698 63.296C491.358 62.9147 492.157 62.724 493.096 62.724V64.792H492.568C490.324 64.792 489.202 66.0093 489.202 68.444V75H487.2V62.944H489.202V64.902ZM494.659 68.928C494.659 67.696 494.908 66.618 495.407 65.694C495.906 64.7553 496.588 64.0293 497.453 63.516C498.333 63.0027 499.308 62.746 500.379 62.746C501.435 62.746 502.352 62.9733 503.129 63.428C503.906 63.8827 504.486 64.4547 504.867 65.144V62.944H506.891V75H504.867V72.756C504.471 73.46 503.877 74.0467 503.085 74.516C502.308 74.9707 501.398 75.198 500.357 75.198C499.286 75.198 498.318 74.934 497.453 74.406C496.588 73.878 495.906 73.1373 495.407 72.184C494.908 71.2307 494.659 70.1453 494.659 68.928ZM504.867 68.95C504.867 68.0407 504.684 67.2487 504.317 66.574C503.95 65.8993 503.452 65.386 502.821 65.034C502.205 64.6673 501.523 64.484 500.775 64.484C500.027 64.484 499.345 64.66 498.729 65.012C498.113 65.364 497.622 65.8773 497.255 66.552C496.888 67.2267 496.705 68.0187 496.705 68.928C496.705 69.852 496.888 70.6587 497.255 71.348C497.622 72.0227 498.113 72.5433 498.729 72.91C499.345 73.262 500.027 73.438 500.775 73.438C501.523 73.438 502.205 73.262 502.821 72.91C503.452 72.5433 503.95 72.0227 504.317 71.348C504.684 70.6587 504.867 69.8593 504.867 68.95ZM515.246 62.746C516.287 62.746 517.197 62.9733 517.974 63.428C518.766 63.8827 519.353 64.4547 519.734 65.144V62.944H521.758V75.264C521.758 76.364 521.523 77.3393 521.054 78.19C520.585 79.0553 519.91 79.73 519.03 80.214C518.165 80.698 517.153 80.94 515.994 80.94C514.41 80.94 513.09 80.566 512.034 79.818C510.978 79.07 510.355 78.0507 510.164 76.76H512.144C512.364 77.4933 512.819 78.08 513.508 78.52C514.197 78.9747 515.026 79.202 515.994 79.202C517.094 79.202 517.989 78.8573 518.678 78.168C519.382 77.4787 519.734 76.5107 519.734 75.264V72.734C519.338 73.438 518.751 74.0247 517.974 74.494C517.197 74.9633 516.287 75.198 515.246 75.198C514.175 75.198 513.2 74.934 512.32 74.406C511.455 73.878 510.773 73.1373 510.274 72.184C509.775 71.2307 509.526 70.1453 509.526 68.928C509.526 67.696 509.775 66.618 510.274 65.694C510.773 64.7553 511.455 64.0293 512.32 63.516C513.2 63.0027 514.175 62.746 515.246 62.746ZM519.734 68.95C519.734 68.0407 519.551 67.2487 519.184 66.574C518.817 65.8993 518.319 65.386 517.688 65.034C517.072 64.6673 516.39 64.484 515.642 64.484C514.894 64.484 514.212 64.66 513.596 65.012C512.98 65.364 512.489 65.8773 512.122 66.552C511.755 67.2267 511.572 68.0187 511.572 68.928C511.572 69.852 511.755 70.6587 512.122 71.348C512.489 72.0227 512.98 72.5433 513.596 72.91C514.212 73.262 514.894 73.438 515.642 73.438C516.39 73.438 517.072 73.262 517.688 72.91C518.319 72.5433 518.817 72.0227 519.184 71.348C519.551 70.6587 519.734 69.8593 519.734 68.95ZM536.141 68.51C536.141 68.8913 536.119 69.2947 536.075 69.72H526.439C526.513 70.908 526.916 71.8393 527.649 72.514C528.397 73.174 529.299 73.504 530.355 73.504C531.221 73.504 531.939 73.306 532.511 72.91C533.098 72.4993 533.509 71.9567 533.743 71.282H535.899C535.577 72.4407 534.931 73.3867 533.963 74.12C532.995 74.8387 531.793 75.198 530.355 75.198C529.211 75.198 528.185 74.9413 527.275 74.428C526.381 73.9147 525.677 73.1887 525.163 72.25C524.65 71.2967 524.393 70.1967 524.393 68.95C524.393 67.7033 524.643 66.6107 525.141 65.672C525.64 64.7333 526.337 64.0147 527.231 63.516C528.141 63.0027 529.182 62.746 530.355 62.746C531.499 62.746 532.511 62.9953 533.391 63.494C534.271 63.9927 534.946 64.682 535.415 65.562C535.899 66.4273 536.141 67.41 536.141 68.51ZM534.073 68.092C534.073 67.3293 533.905 66.6767 533.567 66.134C533.23 65.5767 532.768 65.1587 532.181 64.88C531.609 64.5867 530.971 64.44 530.267 64.44C529.255 64.44 528.39 64.7627 527.671 65.408C526.967 66.0533 526.564 66.948 526.461 68.092H534.073ZM65.6696 101.928C65.6696 100.696 65.919 99.618 66.4176 98.694C66.9163 97.7553 67.5983 97.0293 68.4636 96.516C69.3436 96.0027 70.319 95.746 71.3896 95.746C72.4456 95.746 73.3623 95.9733 74.1396 96.428C74.917 96.8827 75.4963 97.4547 75.8776 98.144V95.944H77.9016V108H75.8776V105.756C75.4816 106.46 74.8876 107.047 74.0956 107.516C73.3183 107.971 72.409 108.198 71.3676 108.198C70.297 108.198 69.329 107.934 68.4636 107.406C67.5983 106.878 66.9163 106.137 66.4176 105.184C65.919 104.231 65.6696 103.145 65.6696 101.928ZM75.8776 101.95C75.8776 101.041 75.6943 100.249 75.3276 99.574C74.961 98.8993 74.4623 98.386 73.8316 98.034C73.2156 97.6673 72.5336 97.484 71.7856 97.484C71.0376 97.484 70.3556 97.66 69.7396 98.012C69.1236 98.364 68.6323 98.8773 68.2656 99.552C67.899 100.227 67.7156 101.019 67.7156 101.928C67.7156 102.852 67.899 103.659 68.2656 104.348C68.6323 105.023 69.1236 105.543 69.7396 105.91C70.3556 106.262 71.0376 106.438 71.7856 106.438C72.5336 106.438 73.2156 106.262 73.8316 105.91C74.4623 105.543 74.961 105.023 75.3276 104.348C75.6943 103.659 75.8776 102.859 75.8776 101.95ZM87.1588 95.724C88.6255 95.724 89.8135 96.1713 90.7228 97.066C91.6322 97.946 92.0868 99.222 92.0868 100.894V108H90.1068V101.18C90.1068 99.9773 89.8062 99.0607 89.2048 98.43C88.6035 97.7847 87.7822 97.462 86.7408 97.462C85.6848 97.462 84.8415 97.792 84.2108 98.452C83.5948 99.112 83.2868 100.073 83.2868 101.334V108H81.2848V95.944H83.2868V97.66C83.6828 97.044 84.2182 96.5673 84.8928 96.23C85.5822 95.8927 86.3375 95.724 87.1588 95.724ZM94.6091 101.928C94.6091 100.696 94.8584 99.618 95.3571 98.694C95.8558 97.7553 96.5378 97.0293 97.4031 96.516C98.2831 96.0027 99.2658 95.746 100.351 95.746C101.29 95.746 102.162 95.966 102.969 96.406C103.776 96.8313 104.392 97.396 104.817 98.1V91.72H106.841V108H104.817V105.734C104.421 106.453 103.834 107.047 103.057 107.516C102.28 107.971 101.37 108.198 100.329 108.198C99.2584 108.198 98.2831 107.934 97.4031 107.406C96.5378 106.878 95.8558 106.137 95.3571 105.184C94.8584 104.231 94.6091 103.145 94.6091 101.928ZM104.817 101.95C104.817 101.041 104.634 100.249 104.267 99.574C103.9 98.8993 103.402 98.386 102.771 98.034C102.155 97.6673 101.473 97.484 100.725 97.484C99.9771 97.484 99.2951 97.66 98.6791 98.012C98.0631 98.364 97.5718 98.8773 97.2051 99.552C96.8384 100.227 96.6551 101.019 96.6551 101.928C96.6551 102.852 96.8384 103.659 97.2051 104.348C97.5718 105.023 98.0631 105.543 98.6791 105.91C99.2951 106.262 99.9771 106.438 100.725 106.438C101.473 106.438 102.155 106.262 102.771 105.91C103.402 105.543 103.9 105.023 104.267 104.348C104.634 103.659 104.817 102.859 104.817 101.95ZM115.342 101.95C115.342 100.703 115.591 99.618 116.09 98.694C116.588 97.7553 117.278 97.0293 118.158 96.516C119.052 96.0027 120.072 95.746 121.216 95.746C122.697 95.746 123.914 96.1053 124.868 96.824C125.836 97.5427 126.474 98.54 126.782 99.816H124.626C124.42 99.0827 124.017 98.5033 123.416 98.078C122.829 97.6527 122.096 97.44 121.216 97.44C120.072 97.44 119.148 97.836 118.444 98.628C117.74 99.4053 117.388 100.513 117.388 101.95C117.388 103.402 117.74 104.524 118.444 105.316C119.148 106.108 120.072 106.504 121.216 106.504C122.096 106.504 122.829 106.299 123.416 105.888C124.002 105.477 124.406 104.891 124.626 104.128H126.782C126.459 105.36 125.814 106.35 124.846 107.098C123.878 107.831 122.668 108.198 121.216 108.198C120.072 108.198 119.052 107.941 118.158 107.428C117.278 106.915 116.588 106.189 116.09 105.25C115.591 104.311 115.342 103.211 115.342 101.95ZM134.711 108.198C133.581 108.198 132.555 107.941 131.631 107.428C130.721 106.915 130.003 106.189 129.475 105.25C128.961 104.297 128.705 103.197 128.705 101.95C128.705 100.718 128.969 99.6327 129.497 98.694C130.039 97.7407 130.773 97.0147 131.697 96.516C132.621 96.0027 133.655 95.746 134.799 95.746C135.943 95.746 136.977 96.0027 137.901 96.516C138.825 97.0147 139.551 97.7333 140.079 98.672C140.621 99.6107 140.893 100.703 140.893 101.95C140.893 103.197 140.614 104.297 140.057 105.25C139.514 106.189 138.773 106.915 137.835 107.428C136.896 107.941 135.855 108.198 134.711 108.198ZM134.711 106.438C135.429 106.438 136.104 106.269 136.735 105.932C137.365 105.595 137.871 105.089 138.253 104.414C138.649 103.739 138.847 102.918 138.847 101.95C138.847 100.982 138.656 100.161 138.275 99.486C137.893 98.8113 137.395 98.3127 136.779 97.99C136.163 97.6527 135.495 97.484 134.777 97.484C134.043 97.484 133.369 97.6527 132.753 97.99C132.151 98.3127 131.667 98.8113 131.301 99.486C130.934 100.161 130.751 100.982 130.751 101.95C130.751 102.933 130.927 103.761 131.279 104.436C131.645 105.111 132.129 105.617 132.731 105.954C133.332 106.277 133.992 106.438 134.711 106.438ZM145.527 91.72V108H143.525V91.72H145.527ZM150.941 91.72V108H148.939V91.72H150.941ZM153.605 101.928C153.605 100.696 153.855 99.618 154.353 98.694C154.852 97.7553 155.534 97.0293 156.399 96.516C157.279 96.0027 158.255 95.746 159.325 95.746C160.381 95.746 161.298 95.9733 162.075 96.428C162.853 96.8827 163.432 97.4547 163.813 98.144V95.944H165.837V108H163.813V105.756C163.417 106.46 162.823 107.047 162.031 107.516C161.254 107.971 160.345 108.198 159.303 108.198C158.233 108.198 157.265 107.934 156.399 107.406C155.534 106.878 154.852 106.137 154.353 105.184C153.855 104.231 153.605 103.145 153.605 101.928ZM163.813 101.95C163.813 101.041 163.63 100.249 163.263 99.574C162.897 98.8993 162.398 98.386 161.767 98.034C161.151 97.6673 160.469 97.484 159.721 97.484C158.973 97.484 158.291 97.66 157.675 98.012C157.059 98.364 156.568 98.8773 156.201 99.552C155.835 100.227 155.651 101.019 155.651 101.928C155.651 102.852 155.835 103.659 156.201 104.348C156.568 105.023 157.059 105.543 157.675 105.91C158.291 106.262 158.973 106.438 159.721 106.438C160.469 106.438 161.151 106.262 161.767 105.91C162.398 105.543 162.897 105.023 163.263 104.348C163.63 103.659 163.813 102.859 163.813 101.95ZM171.222 98.188C171.633 97.4693 172.234 96.8827 173.026 96.428C173.818 95.9733 174.72 95.746 175.732 95.746C176.818 95.746 177.793 96.0027 178.658 96.516C179.524 97.0293 180.206 97.7553 180.704 98.694C181.203 99.618 181.452 100.696 181.452 101.928C181.452 103.145 181.203 104.231 180.704 105.184C180.206 106.137 179.516 106.878 178.636 107.406C177.771 107.934 176.803 108.198 175.732 108.198C174.691 108.198 173.774 107.971 172.982 107.516C172.205 107.061 171.618 106.482 171.222 105.778V108H169.22V91.72H171.222V98.188ZM179.406 101.928C179.406 101.019 179.223 100.227 178.856 99.552C178.49 98.8773 177.991 98.364 177.36 98.012C176.744 97.66 176.062 97.484 175.314 97.484C174.581 97.484 173.899 97.6673 173.268 98.034C172.652 98.386 172.154 98.9067 171.772 99.596C171.406 100.271 171.222 101.055 171.222 101.95C171.222 102.859 171.406 103.659 171.772 104.348C172.154 105.023 172.652 105.543 173.268 105.91C173.899 106.262 174.581 106.438 175.314 106.438C176.062 106.438 176.744 106.262 177.36 105.91C177.991 105.543 178.49 105.023 178.856 104.348C179.223 103.659 179.406 102.852 179.406 101.928ZM189.346 108.198C188.216 108.198 187.19 107.941 186.266 107.428C185.356 106.915 184.638 106.189 184.11 105.25C183.596 104.297 183.34 103.197 183.34 101.95C183.34 100.718 183.604 99.6327 184.132 98.694C184.674 97.7407 185.408 97.0147 186.332 96.516C187.256 96.0027 188.29 95.746 189.434 95.746C190.578 95.746 191.612 96.0027 192.536 96.516C193.46 97.0147 194.186 97.7333 194.714 98.672C195.256 99.6107 195.528 100.703 195.528 101.95C195.528 103.197 195.249 104.297 194.692 105.25C194.149 106.189 193.408 106.915 192.47 107.428C191.531 107.941 190.49 108.198 189.346 108.198ZM189.346 106.438C190.064 106.438 190.739 106.269 191.37 105.932C192 105.595 192.506 105.089 192.888 104.414C193.284 103.739 193.482 102.918 193.482 101.95C193.482 100.982 193.291 100.161 192.91 99.486C192.528 98.8113 192.03 98.3127 191.414 97.99C190.798 97.6527 190.13 97.484 189.412 97.484C188.678 97.484 188.004 97.6527 187.388 97.99C186.786 98.3127 186.302 98.8113 185.936 99.486C185.569 100.161 185.386 100.982 185.386 101.95C185.386 102.933 185.562 103.761 185.914 104.436C186.28 105.111 186.764 105.617 187.366 105.954C187.967 106.277 188.627 106.438 189.346 106.438ZM200.162 97.902C200.514 97.2127 201.012 96.6773 201.658 96.296C202.318 95.9147 203.117 95.724 204.056 95.724V97.792H203.528C201.284 97.792 200.162 99.0093 200.162 101.444V108H198.16V95.944H200.162V97.902ZM205.619 101.928C205.619 100.696 205.868 99.618 206.367 98.694C206.866 97.7553 207.548 97.0293 208.413 96.516C209.293 96.0027 210.268 95.746 211.339 95.746C212.395 95.746 213.312 95.9733 214.089 96.428C214.866 96.8827 215.446 97.4547 215.827 98.144V95.944H217.851V108H215.827V105.756C215.431 106.46 214.837 107.047 214.045 107.516C213.268 107.971 212.358 108.198 211.317 108.198C210.246 108.198 209.278 107.934 208.413 107.406C207.548 106.878 206.866 106.137 206.367 105.184C205.868 104.231 205.619 103.145 205.619 101.928ZM215.827 101.95C215.827 101.041 215.644 100.249 215.277 99.574C214.91 98.8993 214.412 98.386 213.781 98.034C213.165 97.6673 212.483 97.484 211.735 97.484C210.987 97.484 210.305 97.66 209.689 98.012C209.073 98.364 208.582 98.8773 208.215 99.552C207.848 100.227 207.665 101.019 207.665 101.928C207.665 102.852 207.848 103.659 208.215 104.348C208.582 105.023 209.073 105.543 209.689 105.91C210.305 106.262 210.987 106.438 211.735 106.438C212.483 106.438 213.165 106.262 213.781 105.91C214.412 105.543 214.91 105.023 215.277 104.348C215.644 103.659 215.827 102.859 215.827 101.95ZM223.676 97.594V104.7C223.676 105.287 223.801 105.705 224.05 105.954C224.299 106.189 224.732 106.306 225.348 106.306H226.822V108H225.018C223.903 108 223.067 107.743 222.51 107.23C221.953 106.717 221.674 105.873 221.674 104.7V97.594H220.112V95.944H221.674V92.908H223.676V95.944H226.822V97.594H223.676ZM230.282 93.986C229.9 93.986 229.578 93.854 229.314 93.59C229.05 93.326 228.918 93.0033 228.918 92.622C228.918 92.2407 229.05 91.918 229.314 91.654C229.578 91.39 229.9 91.258 230.282 91.258C230.648 91.258 230.956 91.39 231.206 91.654C231.47 91.918 231.602 92.2407 231.602 92.622C231.602 93.0033 231.47 93.326 231.206 93.59C230.956 93.854 230.648 93.986 230.282 93.986ZM231.25 95.944V108H229.248V95.944H231.25ZM239.92 108.198C238.79 108.198 237.764 107.941 236.84 107.428C235.93 106.915 235.212 106.189 234.684 105.25C234.17 104.297 233.914 103.197 233.914 101.95C233.914 100.718 234.178 99.6327 234.706 98.694C235.248 97.7407 235.982 97.0147 236.906 96.516C237.83 96.0027 238.864 95.746 240.008 95.746C241.152 95.746 242.186 96.0027 243.11 96.516C244.034 97.0147 244.76 97.7333 245.288 98.672C245.83 99.6107 246.102 100.703 246.102 101.95C246.102 103.197 245.823 104.297 245.266 105.25C244.723 106.189 243.982 106.915 243.044 107.428C242.105 107.941 241.064 108.198 239.92 108.198ZM239.92 106.438C240.638 106.438 241.313 106.269 241.944 105.932C242.574 105.595 243.08 105.089 243.462 104.414C243.858 103.739 244.056 102.918 244.056 101.95C244.056 100.982 243.865 100.161 243.484 99.486C243.102 98.8113 242.604 98.3127 241.988 97.99C241.372 97.6527 240.704 97.484 239.986 97.484C239.252 97.484 238.578 97.6527 237.962 97.99C237.36 98.3127 236.876 98.8113 236.51 99.486C236.143 100.161 235.96 100.982 235.96 101.95C235.96 102.933 236.136 103.761 236.488 104.436C236.854 105.111 237.338 105.617 237.94 105.954C238.541 106.277 239.201 106.438 239.92 106.438ZM254.608 95.724C256.075 95.724 257.263 96.1713 258.172 97.066C259.081 97.946 259.536 99.222 259.536 100.894V108H257.556V101.18C257.556 99.9773 257.255 99.0607 256.654 98.43C256.053 97.7847 255.231 97.462 254.19 97.462C253.134 97.462 252.291 97.792 251.66 98.452C251.044 99.112 250.736 100.073 250.736 101.334V108H248.734V95.944H250.736V97.66C251.132 97.044 251.667 96.5673 252.342 96.23C253.031 95.8927 253.787 95.724 254.608 95.724ZM271.114 97.594V104.7C271.114 105.287 271.238 105.705 271.488 105.954C271.737 106.189 272.17 106.306 272.786 106.306H274.26V108H272.456C271.341 108 270.505 107.743 269.948 107.23C269.39 106.717 269.112 105.873 269.112 104.7V97.594H267.55V95.944H269.112V92.908H271.114V95.944H274.26V97.594H271.114ZM281.943 108.198C280.814 108.198 279.787 107.941 278.863 107.428C277.954 106.915 277.235 106.189 276.707 105.25C276.194 104.297 275.937 103.197 275.937 101.95C275.937 100.718 276.201 99.6327 276.729 98.694C277.272 97.7407 278.005 97.0147 278.929 96.516C279.853 96.0027 280.887 95.746 282.031 95.746C283.175 95.746 284.209 96.0027 285.133 96.516C286.057 97.0147 286.783 97.7333 287.311 98.672C287.854 99.6107 288.125 100.703 288.125 101.95C288.125 103.197 287.847 104.297 287.289 105.25C286.747 106.189 286.006 106.915 285.067 107.428C284.129 107.941 283.087 108.198 281.943 108.198ZM281.943 106.438C282.662 106.438 283.337 106.269 283.967 105.932C284.598 105.595 285.104 105.089 285.485 104.414C285.881 103.739 286.079 102.918 286.079 101.95C286.079 100.982 285.889 100.161 285.507 99.486C285.126 98.8113 284.627 98.3127 284.011 97.99C283.395 97.6527 282.728 97.484 282.009 97.484C281.276 97.484 280.601 97.6527 279.985 97.99C279.384 98.3127 278.9 98.8113 278.533 99.486C278.167 100.161 277.983 100.982 277.983 101.95C277.983 102.933 278.159 103.761 278.511 104.436C278.878 105.111 279.362 105.617 279.963 105.954C280.565 106.277 281.225 106.438 281.943 106.438ZM301.529 97.594H298.999V108H296.997V97.594H295.435V95.944H296.997V95.086C296.997 93.7367 297.341 92.754 298.031 92.138C298.735 91.5073 299.857 91.192 301.397 91.192V92.864C300.517 92.864 299.893 93.04 299.527 93.392C299.175 93.7293 298.999 94.294 298.999 95.086V95.944H301.529V97.594ZM304.897 93.986C304.516 93.986 304.193 93.854 303.929 93.59C303.665 93.326 303.533 93.0033 303.533 92.622C303.533 92.2407 303.665 91.918 303.929 91.654C304.193 91.39 304.516 91.258 304.897 91.258C305.264 91.258 305.572 91.39 305.821 91.654C306.085 91.918 306.217 92.2407 306.217 92.622C306.217 93.0033 306.085 93.326 305.821 93.59C305.572 93.854 305.264 93.986 304.897 93.986ZM305.865 95.944V108H303.863V95.944H305.865ZM314.249 95.746C315.29 95.746 316.2 95.9733 316.977 96.428C317.769 96.8827 318.356 97.4547 318.737 98.144V95.944H320.761V108.264C320.761 109.364 320.526 110.339 320.057 111.19C319.588 112.055 318.913 112.73 318.033 113.214C317.168 113.698 316.156 113.94 314.997 113.94C313.413 113.94 312.093 113.566 311.037 112.818C309.981 112.07 309.358 111.051 309.167 109.76H311.147C311.367 110.493 311.822 111.08 312.511 111.52C313.2 111.975 314.029 112.202 314.997 112.202C316.097 112.202 316.992 111.857 317.681 111.168C318.385 110.479 318.737 109.511 318.737 108.264V105.734C318.341 106.438 317.754 107.025 316.977 107.494C316.2 107.963 315.29 108.198 314.249 108.198C313.178 108.198 312.203 107.934 311.323 107.406C310.458 106.878 309.776 106.137 309.277 105.184C308.778 104.231 308.529 103.145 308.529 101.928C308.529 100.696 308.778 99.618 309.277 98.694C309.776 97.7553 310.458 97.0293 311.323 96.516C312.203 96.0027 313.178 95.746 314.249 95.746ZM318.737 101.95C318.737 101.041 318.554 100.249 318.187 99.574C317.82 98.8993 317.322 98.386 316.691 98.034C316.075 97.6673 315.393 97.484 314.645 97.484C313.897 97.484 313.215 97.66 312.599 98.012C311.983 98.364 311.492 98.8773 311.125 99.552C310.758 100.227 310.575 101.019 310.575 101.928C310.575 102.852 310.758 103.659 311.125 104.348C311.492 105.023 311.983 105.543 312.599 105.91C313.215 106.262 313.897 106.438 314.645 106.438C315.393 106.438 316.075 106.262 316.691 105.91C317.322 105.543 317.82 105.023 318.187 104.348C318.554 103.659 318.737 102.859 318.737 101.95ZM330.128 95.724C331.038 95.724 331.859 95.922 332.592 96.318C333.326 96.6993 333.898 97.2787 334.308 98.056C334.734 98.8333 334.946 99.7793 334.946 100.894V108H332.966V101.18C332.966 99.9773 332.666 99.0607 332.064 98.43C331.463 97.7847 330.642 97.462 329.6 97.462C328.544 97.462 327.701 97.792 327.07 98.452C326.454 99.112 326.146 100.073 326.146 101.334V108H324.144V91.72H326.146V97.66C326.542 97.044 327.085 96.5673 327.774 96.23C328.478 95.8927 329.263 95.724 330.128 95.724ZM340.658 97.594V104.7C340.658 105.287 340.783 105.705 341.032 105.954C341.282 106.189 341.714 106.306 342.33 106.306H343.804V108H342C340.886 108 340.05 107.743 339.492 107.23C338.935 106.717 338.656 105.873 338.656 104.7V97.594H337.094V95.944H338.656V92.908H340.658V95.944H343.804V97.594H340.658ZM357.353 108.198C356.224 108.198 355.197 107.941 354.273 107.428C353.364 106.915 352.645 106.189 352.117 105.25C351.604 104.297 351.347 103.197 351.347 101.95C351.347 100.718 351.611 99.6327 352.139 98.694C352.682 97.7407 353.415 97.0147 354.339 96.516C355.263 96.0027 356.297 95.746 357.441 95.746C358.585 95.746 359.619 96.0027 360.543 96.516C361.467 97.0147 362.193 97.7333 362.721 98.672C363.264 99.6107 363.535 100.703 363.535 101.95C363.535 103.197 363.257 104.297 362.699 105.25C362.157 106.189 361.416 106.915 360.477 107.428C359.539 107.941 358.497 108.198 357.353 108.198ZM357.353 106.438C358.072 106.438 358.747 106.269 359.377 105.932C360.008 105.595 360.514 105.089 360.895 104.414C361.291 103.739 361.489 102.918 361.489 101.95C361.489 100.982 361.299 100.161 360.917 99.486C360.536 98.8113 360.037 98.3127 359.421 97.99C358.805 97.6527 358.138 97.484 357.419 97.484C356.686 97.484 356.011 97.6527 355.395 97.99C354.794 98.3127 354.31 98.8113 353.943 99.486C353.577 100.161 353.393 100.982 353.393 101.95C353.393 102.933 353.569 103.761 353.921 104.436C354.288 105.111 354.772 105.617 355.373 105.954C355.975 106.277 356.635 106.438 357.353 106.438ZM368.17 98.166C368.566 97.4767 369.152 96.9047 369.93 96.45C370.722 95.9807 371.638 95.746 372.68 95.746C373.75 95.746 374.718 96.0027 375.584 96.516C376.464 97.0293 377.153 97.7553 377.652 98.694C378.15 99.618 378.4 100.696 378.4 101.928C378.4 103.145 378.15 104.231 377.652 105.184C377.153 106.137 376.464 106.878 375.584 107.406C374.718 107.934 373.75 108.198 372.68 108.198C371.653 108.198 370.744 107.971 369.952 107.516C369.174 107.047 368.58 106.467 368.17 105.778V113.72H366.168V95.944H368.17V98.166ZM376.354 101.928C376.354 101.019 376.17 100.227 375.804 99.552C375.437 98.8773 374.938 98.364 374.308 98.012C373.692 97.66 373.01 97.484 372.262 97.484C371.528 97.484 370.846 97.6673 370.216 98.034C369.6 98.386 369.101 98.9067 368.72 99.596C368.353 100.271 368.17 101.055 368.17 101.95C368.17 102.859 368.353 103.659 368.72 104.348C369.101 105.023 369.6 105.543 370.216 105.91C370.846 106.262 371.528 106.438 372.262 106.438C373.01 106.438 373.692 106.262 374.308 105.91C374.938 105.543 375.437 105.023 375.804 104.348C376.17 103.659 376.354 102.852 376.354 101.928ZM383.037 98.166C383.433 97.4767 384.019 96.9047 384.797 96.45C385.589 95.9807 386.505 95.746 387.547 95.746C388.617 95.746 389.585 96.0027 390.451 96.516C391.331 97.0293 392.02 97.7553 392.519 98.694C393.017 99.618 393.267 100.696 393.267 101.928C393.267 103.145 393.017 104.231 392.519 105.184C392.02 106.137 391.331 106.878 390.451 107.406C389.585 107.934 388.617 108.198 387.547 108.198C386.52 108.198 385.611 107.971 384.819 107.516C384.041 107.047 383.447 106.467 383.037 105.778V113.72H381.035V95.944H383.037V98.166ZM391.221 101.928C391.221 101.019 391.037 100.227 390.671 99.552C390.304 98.8773 389.805 98.364 389.175 98.012C388.559 97.66 387.877 97.484 387.129 97.484C386.395 97.484 385.713 97.6673 385.083 98.034C384.467 98.386 383.968 98.9067 383.587 99.596C383.22 100.271 383.037 101.055 383.037 101.95C383.037 102.859 383.22 103.659 383.587 104.348C383.968 105.023 384.467 105.543 385.083 105.91C385.713 106.262 386.395 106.438 387.129 106.438C387.877 106.438 388.559 106.262 389.175 105.91C389.805 105.543 390.304 105.023 390.671 104.348C391.037 103.659 391.221 102.852 391.221 101.928ZM397.904 97.902C398.256 97.2127 398.755 96.6773 399.4 96.296C400.06 95.9147 400.859 95.724 401.798 95.724V97.792H401.27C399.026 97.792 397.904 99.0093 397.904 101.444V108H395.902V95.944H397.904V97.902ZM415.109 101.51C415.109 101.891 415.087 102.295 415.043 102.72H405.407C405.48 103.908 405.884 104.839 406.617 105.514C407.365 106.174 408.267 106.504 409.323 106.504C410.188 106.504 410.907 106.306 411.479 105.91C412.066 105.499 412.476 104.957 412.711 104.282H414.867C414.544 105.441 413.899 106.387 412.931 107.12C411.963 107.839 410.76 108.198 409.323 108.198C408.179 108.198 407.152 107.941 406.243 107.428C405.348 106.915 404.644 106.189 404.131 105.25C403.618 104.297 403.361 103.197 403.361 101.95C403.361 100.703 403.61 99.6107 404.109 98.672C404.608 97.7333 405.304 97.0147 406.199 96.516C407.108 96.0027 408.15 95.746 409.323 95.746C410.467 95.746 411.479 95.9953 412.359 96.494C413.239 96.9927 413.914 97.682 414.383 98.562C414.867 99.4273 415.109 100.41 415.109 101.51ZM413.041 101.092C413.041 100.329 412.872 99.6767 412.535 99.134C412.198 98.5767 411.736 98.1587 411.149 97.88C410.577 97.5867 409.939 97.44 409.235 97.44C408.223 97.44 407.358 97.7627 406.639 98.408C405.935 99.0533 405.532 99.948 405.429 101.092H413.041ZM422.02 108.198C421.096 108.198 420.267 108.044 419.534 107.736C418.8 107.413 418.221 106.973 417.796 106.416C417.37 105.844 417.136 105.191 417.092 104.458H419.16C419.218 105.059 419.497 105.551 419.996 105.932C420.509 106.313 421.176 106.504 421.998 106.504C422.76 106.504 423.362 106.335 423.802 105.998C424.242 105.661 424.462 105.235 424.462 104.722C424.462 104.194 424.227 103.805 423.758 103.556C423.288 103.292 422.562 103.035 421.58 102.786C420.685 102.551 419.952 102.317 419.38 102.082C418.822 101.833 418.338 101.473 417.928 101.004C417.532 100.52 417.334 99.8893 417.334 99.112C417.334 98.496 417.517 97.9313 417.884 97.418C418.25 96.9047 418.771 96.5013 419.446 96.208C420.12 95.9 420.89 95.746 421.756 95.746C423.09 95.746 424.168 96.0833 424.99 96.758C425.811 97.4327 426.251 98.3567 426.31 99.53H424.308C424.264 98.8993 424.007 98.3933 423.538 98.012C423.083 97.6307 422.467 97.44 421.69 97.44C420.971 97.44 420.399 97.594 419.974 97.902C419.548 98.21 419.336 98.6133 419.336 99.112C419.336 99.508 419.46 99.838 419.71 100.102C419.974 100.351 420.296 100.557 420.678 100.718C421.074 100.865 421.616 101.033 422.306 101.224C423.171 101.459 423.875 101.693 424.418 101.928C424.96 102.148 425.422 102.485 425.804 102.94C426.2 103.395 426.405 103.989 426.42 104.722C426.42 105.382 426.236 105.976 425.87 106.504C425.503 107.032 424.982 107.45 424.308 107.758C423.648 108.051 422.885 108.198 422.02 108.198ZM433.514 108.198C432.59 108.198 431.761 108.044 431.028 107.736C430.294 107.413 429.715 106.973 429.29 106.416C428.864 105.844 428.63 105.191 428.586 104.458H430.654C430.712 105.059 430.991 105.551 431.49 105.932C432.003 106.313 432.67 106.504 433.492 106.504C434.254 106.504 434.856 106.335 435.296 105.998C435.736 105.661 435.956 105.235 435.956 104.722C435.956 104.194 435.721 103.805 435.252 103.556C434.782 103.292 434.056 103.035 433.074 102.786C432.179 102.551 431.446 102.317 430.874 102.082C430.316 101.833 429.832 101.473 429.422 101.004C429.026 100.52 428.828 99.8893 428.828 99.112C428.828 98.496 429.011 97.9313 429.378 97.418C429.744 96.9047 430.265 96.5013 430.94 96.208C431.614 95.9 432.384 95.746 433.25 95.746C434.584 95.746 435.662 96.0833 436.484 96.758C437.305 97.4327 437.745 98.3567 437.804 99.53H435.802C435.758 98.8993 435.501 98.3933 435.032 98.012C434.577 97.6307 433.961 97.44 433.184 97.44C432.465 97.44 431.893 97.594 431.468 97.902C431.042 98.21 430.83 98.6133 430.83 99.112C430.83 99.508 430.954 99.838 431.204 100.102C431.468 100.351 431.79 100.557 432.172 100.718C432.568 100.865 433.11 101.033 433.8 101.224C434.665 101.459 435.369 101.693 435.912 101.928C436.454 102.148 436.916 102.485 437.298 102.94C437.694 103.395 437.899 103.989 437.914 104.722C437.914 105.382 437.73 105.976 437.364 106.504C436.997 107.032 436.476 107.45 435.802 107.758C435.142 108.051 434.379 108.198 433.514 108.198ZM441.774 93.986C441.393 93.986 441.07 93.854 440.806 93.59C440.542 93.326 440.41 93.0033 440.41 92.622C440.41 92.2407 440.542 91.918 440.806 91.654C441.07 91.39 441.393 91.258 441.774 91.258C442.141 91.258 442.449 91.39 442.698 91.654C442.962 91.918 443.094 92.2407 443.094 92.622C443.094 93.0033 442.962 93.326 442.698 93.59C442.449 93.854 442.141 93.986 441.774 93.986ZM442.742 95.944V108H440.74V95.944H442.742ZM451.412 108.198C450.283 108.198 449.256 107.941 448.332 107.428C447.423 106.915 446.704 106.189 446.176 105.25C445.663 104.297 445.406 103.197 445.406 101.95C445.406 100.718 445.67 99.6327 446.198 98.694C446.741 97.7407 447.474 97.0147 448.398 96.516C449.322 96.0027 450.356 95.746 451.5 95.746C452.644 95.746 453.678 96.0027 454.602 96.516C455.526 97.0147 456.252 97.7333 456.78 98.672C457.323 99.6107 457.594 100.703 457.594 101.95C457.594 103.197 457.315 104.297 456.758 105.25C456.215 106.189 455.475 106.915 454.536 107.428C453.597 107.941 452.556 108.198 451.412 108.198ZM451.412 106.438C452.131 106.438 452.805 106.269 453.436 105.932C454.067 105.595 454.573 105.089 454.954 104.414C455.35 103.739 455.548 102.918 455.548 101.95C455.548 100.982 455.357 100.161 454.976 99.486C454.595 98.8113 454.096 98.3127 453.48 97.99C452.864 97.6527 452.197 97.484 451.478 97.484C450.745 97.484 450.07 97.6527 449.454 97.99C448.853 98.3127 448.369 98.8113 448.002 99.486C447.635 100.161 447.452 100.982 447.452 101.95C447.452 102.933 447.628 103.761 447.98 104.436C448.347 105.111 448.831 105.617 449.432 105.954C450.033 106.277 450.693 106.438 451.412 106.438ZM466.1 95.724C467.567 95.724 468.755 96.1713 469.664 97.066C470.574 97.946 471.028 99.222 471.028 100.894V108H469.048V101.18C469.048 99.9773 468.748 99.0607 468.146 98.43C467.545 97.7847 466.724 97.462 465.682 97.462C464.626 97.462 463.783 97.792 463.152 98.452C462.536 99.112 462.228 100.073 462.228 101.334V108H460.226V95.944H462.228V97.66C462.624 97.044 463.16 96.5673 463.834 96.23C464.524 95.8927 465.279 95.724 466.1 95.724ZM479.416 101.928C479.416 100.696 479.665 99.618 480.164 98.694C480.662 97.7553 481.344 97.0293 482.21 96.516C483.09 96.0027 484.065 95.746 485.136 95.746C486.192 95.746 487.108 95.9733 487.886 96.428C488.663 96.8827 489.242 97.4547 489.624 98.144V95.944H491.648V108H489.624V105.756C489.228 106.46 488.634 107.047 487.842 107.516C487.064 107.971 486.155 108.198 485.114 108.198C484.043 108.198 483.075 107.934 482.21 107.406C481.344 106.878 480.662 106.137 480.164 105.184C479.665 104.231 479.416 103.145 479.416 101.928ZM489.624 101.95C489.624 101.041 489.44 100.249 489.074 99.574C488.707 98.8993 488.208 98.386 487.578 98.034C486.962 97.6673 486.28 97.484 485.532 97.484C484.784 97.484 484.102 97.66 483.486 98.012C482.87 98.364 482.378 98.8773 482.012 99.552C481.645 100.227 481.462 101.019 481.462 101.928C481.462 102.852 481.645 103.659 482.012 104.348C482.378 105.023 482.87 105.543 483.486 105.91C484.102 106.262 484.784 106.438 485.532 106.438C486.28 106.438 486.962 106.262 487.578 105.91C488.208 105.543 488.707 105.023 489.074 104.348C489.44 103.659 489.624 102.859 489.624 101.95ZM500.905 95.724C502.372 95.724 503.56 96.1713 504.469 97.066C505.378 97.946 505.833 99.222 505.833 100.894V108H503.853V101.18C503.853 99.9773 503.552 99.0607 502.951 98.43C502.35 97.7847 501.528 97.462 500.487 97.462C499.431 97.462 498.588 97.792 497.957 98.452C497.341 99.112 497.033 100.073 497.033 101.334V108H495.031V95.944H497.033V97.66C497.429 97.044 497.964 96.5673 498.639 96.23C499.328 95.8927 500.084 95.724 500.905 95.724ZM508.355 101.928C508.355 100.696 508.605 99.618 509.103 98.694C509.602 97.7553 510.284 97.0293 511.149 96.516C512.029 96.0027 513.012 95.746 514.097 95.746C515.036 95.746 515.909 95.966 516.715 96.406C517.522 96.8313 518.138 97.396 518.563 98.1V91.72H520.587V108H518.563V105.734C518.167 106.453 517.581 107.047 516.803 107.516C516.026 107.971 515.117 108.198 514.075 108.198C513.005 108.198 512.029 107.934 511.149 107.406C510.284 106.878 509.602 106.137 509.103 105.184C508.605 104.231 508.355 103.145 508.355 101.928ZM518.563 101.95C518.563 101.041 518.38 100.249 518.013 99.574C517.647 98.8993 517.148 98.386 516.517 98.034C515.901 97.6673 515.219 97.484 514.471 97.484C513.723 97.484 513.041 97.66 512.425 98.012C511.809 98.364 511.318 98.8773 510.951 99.552C510.585 100.227 510.401 101.019 510.401 101.928C510.401 102.852 510.585 103.659 510.951 104.348C511.318 105.023 511.809 105.543 512.425 105.91C513.041 106.262 513.723 106.438 514.471 106.438C515.219 106.438 515.901 106.262 516.517 105.91C517.148 105.543 517.647 105.023 518.013 104.348C518.38 103.659 518.563 102.859 518.563 101.95ZM186.004 131.166C186.4 130.477 186.986 129.905 187.764 129.45C188.556 128.981 189.472 128.746 190.514 128.746C191.584 128.746 192.552 129.003 193.418 129.516C194.298 130.029 194.987 130.755 195.486 131.694C195.984 132.618 196.234 133.696 196.234 134.928C196.234 136.145 195.984 137.231 195.486 138.184C194.987 139.137 194.298 139.878 193.418 140.406C192.552 140.934 191.584 141.198 190.514 141.198C189.487 141.198 188.578 140.971 187.786 140.516C187.008 140.047 186.414 139.467 186.004 138.778V146.72H184.002V128.944H186.004V131.166ZM194.188 134.928C194.188 134.019 194.004 133.227 193.638 132.552C193.271 131.877 192.772 131.364 192.142 131.012C191.526 130.66 190.844 130.484 190.096 130.484C189.362 130.484 188.68 130.667 188.05 131.034C187.434 131.386 186.935 131.907 186.554 132.596C186.187 133.271 186.004 134.055 186.004 134.95C186.004 135.859 186.187 136.659 186.554 137.348C186.935 138.023 187.434 138.543 188.05 138.91C188.68 139.262 189.362 139.438 190.096 139.438C190.844 139.438 191.526 139.262 192.142 138.91C192.772 138.543 193.271 138.023 193.638 137.348C194.004 136.659 194.188 135.852 194.188 134.928ZM200.871 130.902C201.223 130.213 201.721 129.677 202.367 129.296C203.027 128.915 203.826 128.724 204.765 128.724V130.792H204.237C201.993 130.792 200.871 132.009 200.871 134.444V141H198.869V128.944H200.871V130.902ZM212.334 141.198C211.205 141.198 210.178 140.941 209.254 140.428C208.345 139.915 207.626 139.189 207.098 138.25C206.585 137.297 206.328 136.197 206.328 134.95C206.328 133.718 206.592 132.633 207.12 131.694C207.663 130.741 208.396 130.015 209.32 129.516C210.244 129.003 211.278 128.746 212.422 128.746C213.566 128.746 214.6 129.003 215.524 129.516C216.448 130.015 217.174 130.733 217.702 131.672C218.245 132.611 218.516 133.703 218.516 134.95C218.516 136.197 218.237 137.297 217.68 138.25C217.137 139.189 216.397 139.915 215.458 140.428C214.519 140.941 213.478 141.198 212.334 141.198ZM212.334 139.438C213.053 139.438 213.727 139.269 214.358 138.932C214.989 138.595 215.495 138.089 215.876 137.414C216.272 136.739 216.47 135.918 216.47 134.95C216.47 133.982 216.279 133.161 215.898 132.486C215.517 131.811 215.018 131.313 214.402 130.99C213.786 130.653 213.119 130.484 212.4 130.484C211.667 130.484 210.992 130.653 210.376 130.99C209.775 131.313 209.291 131.811 208.924 132.486C208.557 133.161 208.374 133.982 208.374 134.95C208.374 135.933 208.55 136.761 208.902 137.436C209.269 138.111 209.753 138.617 210.354 138.954C210.955 139.277 211.615 139.438 212.334 139.438ZM223.59 130.594V137.7C223.59 138.287 223.715 138.705 223.964 138.954C224.213 139.189 224.646 139.306 225.262 139.306H226.736V141H224.932C223.817 141 222.981 140.743 222.424 140.23C221.867 139.717 221.588 138.873 221.588 137.7V130.594H220.026V128.944H221.588V125.908H223.59V128.944H226.736V130.594H223.59ZM240.162 134.51C240.162 134.891 240.14 135.295 240.096 135.72H230.46C230.533 136.908 230.936 137.839 231.67 138.514C232.418 139.174 233.32 139.504 234.376 139.504C235.241 139.504 235.96 139.306 236.532 138.91C237.118 138.499 237.529 137.957 237.764 137.282H239.92C239.597 138.441 238.952 139.387 237.984 140.12C237.016 140.839 235.813 141.198 234.376 141.198C233.232 141.198 232.205 140.941 231.296 140.428C230.401 139.915 229.697 139.189 229.184 138.25C228.67 137.297 228.414 136.197 228.414 134.95C228.414 133.703 228.663 132.611 229.162 131.672C229.66 130.733 230.357 130.015 231.252 129.516C232.161 129.003 233.202 128.746 234.376 128.746C235.52 128.746 236.532 128.995 237.412 129.494C238.292 129.993 238.966 130.682 239.436 131.562C239.92 132.427 240.162 133.41 240.162 134.51ZM238.094 134.092C238.094 133.329 237.925 132.677 237.588 132.134C237.25 131.577 236.788 131.159 236.202 130.88C235.63 130.587 234.992 130.44 234.288 130.44C233.276 130.44 232.41 130.763 231.692 131.408C230.988 132.053 230.584 132.948 230.482 134.092H238.094ZM242.056 134.95C242.056 133.703 242.306 132.618 242.804 131.694C243.303 130.755 243.992 130.029 244.872 129.516C245.767 129.003 246.786 128.746 247.93 128.746C249.412 128.746 250.629 129.105 251.582 129.824C252.55 130.543 253.188 131.54 253.496 132.816H251.34C251.135 132.083 250.732 131.503 250.13 131.078C249.544 130.653 248.81 130.44 247.93 130.44C246.786 130.44 245.862 130.836 245.158 131.628C244.454 132.405 244.102 133.513 244.102 134.95C244.102 136.402 244.454 137.524 245.158 138.316C245.862 139.108 246.786 139.504 247.93 139.504C248.81 139.504 249.544 139.299 250.13 138.888C250.717 138.477 251.12 137.891 251.34 137.128H253.496C253.174 138.36 252.528 139.35 251.56 140.098C250.592 140.831 249.382 141.198 247.93 141.198C246.786 141.198 245.767 140.941 244.872 140.428C243.992 139.915 243.303 139.189 242.804 138.25C242.306 137.311 242.056 136.211 242.056 134.95ZM258.61 130.594V137.7C258.61 138.287 258.734 138.705 258.984 138.954C259.233 139.189 259.666 139.306 260.282 139.306H261.756V141H259.952C258.837 141 258.001 140.743 257.444 140.23C256.886 139.717 256.608 138.873 256.608 137.7V130.594H255.046V128.944H256.608V125.908H258.61V128.944H261.756V130.594H258.61ZM272.489 130.594V137.7C272.489 138.287 272.613 138.705 272.863 138.954C273.112 139.189 273.545 139.306 274.161 139.306H275.635V141H273.831C272.716 141 271.88 140.743 271.323 140.23C270.765 139.717 270.487 138.873 270.487 137.7V130.594H268.925V128.944H270.487V125.908H272.489V128.944H275.635V130.594H272.489ZM284.044 128.724C284.954 128.724 285.775 128.922 286.508 129.318C287.242 129.699 287.814 130.279 288.224 131.056C288.65 131.833 288.862 132.779 288.862 133.894V141H286.882V134.18C286.882 132.977 286.582 132.061 285.98 131.43C285.379 130.785 284.558 130.462 283.516 130.462C282.46 130.462 281.617 130.792 280.986 131.452C280.37 132.112 280.062 133.073 280.062 134.334V141H278.06V124.72H280.062V130.66C280.458 130.044 281.001 129.567 281.69 129.23C282.394 128.893 283.179 128.724 284.044 128.724ZM303.132 134.51C303.132 134.891 303.11 135.295 303.066 135.72H293.43C293.504 136.908 293.907 137.839 294.64 138.514C295.388 139.174 296.29 139.504 297.346 139.504C298.212 139.504 298.93 139.306 299.502 138.91C300.089 138.499 300.5 137.957 300.734 137.282H302.89C302.568 138.441 301.922 139.387 300.954 140.12C299.986 140.839 298.784 141.198 297.346 141.198C296.202 141.198 295.176 140.941 294.266 140.428C293.372 139.915 292.668 139.189 292.154 138.25C291.641 137.297 291.384 136.197 291.384 134.95C291.384 133.703 291.634 132.611 292.132 131.672C292.631 130.733 293.328 130.015 294.222 129.516C295.132 129.003 296.173 128.746 297.346 128.746C298.49 128.746 299.502 128.995 300.382 129.494C301.262 129.993 301.937 130.682 302.406 131.562C302.89 132.427 303.132 133.41 303.132 134.51ZM301.064 134.092C301.064 133.329 300.896 132.677 300.558 132.134C300.221 131.577 299.759 131.159 299.172 130.88C298.6 130.587 297.962 130.44 297.258 130.44C296.246 130.44 295.381 130.763 294.662 131.408C293.958 132.053 293.555 132.948 293.452 134.092H301.064ZM306.809 126.986C306.428 126.986 306.105 126.854 305.841 126.59C305.577 126.326 305.445 126.003 305.445 125.622C305.445 125.241 305.577 124.918 305.841 124.654C306.105 124.39 306.428 124.258 306.809 124.258C307.176 124.258 307.484 124.39 307.733 124.654C307.997 124.918 308.129 125.241 308.129 125.622C308.129 126.003 307.997 126.326 307.733 126.59C307.484 126.854 307.176 126.986 306.809 126.986ZM307.777 128.944V141H305.775V128.944H307.777ZM313.191 130.902C313.543 130.213 314.042 129.677 314.687 129.296C315.347 128.915 316.146 128.724 317.085 128.724V130.792H316.557C314.313 130.792 313.191 132.009 313.191 134.444V141H311.189V128.944H313.191V130.902ZM327.263 131.166C327.659 130.477 328.246 129.905 329.023 129.45C329.815 128.981 330.732 128.746 331.773 128.746C332.844 128.746 333.812 129.003 334.677 129.516C335.557 130.029 336.247 130.755 336.745 131.694C337.244 132.618 337.493 133.696 337.493 134.928C337.493 136.145 337.244 137.231 336.745 138.184C336.247 139.137 335.557 139.878 334.677 140.406C333.812 140.934 332.844 141.198 331.773 141.198C330.747 141.198 329.837 140.971 329.045 140.516C328.268 140.047 327.674 139.467 327.263 138.778V146.72H325.261V128.944H327.263V131.166ZM335.447 134.928C335.447 134.019 335.264 133.227 334.897 132.552C334.531 131.877 334.032 131.364 333.401 131.012C332.785 130.66 332.103 130.484 331.355 130.484C330.622 130.484 329.94 130.667 329.309 131.034C328.693 131.386 328.195 131.907 327.813 132.596C327.447 133.271 327.263 134.055 327.263 134.95C327.263 135.859 327.447 136.659 327.813 137.348C328.195 138.023 328.693 138.543 329.309 138.91C329.94 139.262 330.622 139.438 331.355 139.438C332.103 139.438 332.785 139.262 333.401 138.91C334.032 138.543 334.531 138.023 334.897 137.348C335.264 136.659 335.447 135.852 335.447 134.928ZM351.129 134.51C351.129 134.891 351.107 135.295 351.063 135.72H341.427C341.5 136.908 341.903 137.839 342.637 138.514C343.385 139.174 344.287 139.504 345.343 139.504C346.208 139.504 346.927 139.306 347.499 138.91C348.085 138.499 348.496 137.957 348.731 137.282H350.887C350.564 138.441 349.919 139.387 348.951 140.12C347.983 140.839 346.78 141.198 345.343 141.198C344.199 141.198 343.172 140.941 342.263 140.428C341.368 139.915 340.664 139.189 340.151 138.25C339.637 137.297 339.381 136.197 339.381 134.95C339.381 133.703 339.63 132.611 340.129 131.672C340.627 130.733 341.324 130.015 342.219 129.516C343.128 129.003 344.169 128.746 345.343 128.746C346.487 128.746 347.499 128.995 348.379 129.494C349.259 129.993 349.933 130.682 350.403 131.562C350.887 132.427 351.129 133.41 351.129 134.51ZM349.061 134.092C349.061 133.329 348.892 132.677 348.555 132.134C348.217 131.577 347.755 131.159 347.169 130.88C346.597 130.587 345.959 130.44 345.255 130.44C344.243 130.44 343.377 130.763 342.659 131.408C341.955 132.053 341.551 132.948 341.449 134.092H349.061ZM359.029 141.198C357.9 141.198 356.873 140.941 355.949 140.428C355.04 139.915 354.321 139.189 353.793 138.25C353.28 137.297 353.023 136.197 353.023 134.95C353.023 133.718 353.287 132.633 353.815 131.694C354.358 130.741 355.091 130.015 356.015 129.516C356.939 129.003 357.973 128.746 359.117 128.746C360.261 128.746 361.295 129.003 362.219 129.516C363.143 130.015 363.869 130.733 364.397 131.672C364.94 132.611 365.211 133.703 365.211 134.95C365.211 136.197 364.932 137.297 364.375 138.25C363.832 139.189 363.092 139.915 362.153 140.428C361.214 140.941 360.173 141.198 359.029 141.198ZM359.029 139.438C359.748 139.438 360.422 139.269 361.053 138.932C361.684 138.595 362.19 138.089 362.571 137.414C362.967 136.739 363.165 135.918 363.165 134.95C363.165 133.982 362.974 133.161 362.593 132.486C362.212 131.811 361.713 131.313 361.097 130.99C360.481 130.653 359.814 130.484 359.095 130.484C358.362 130.484 357.687 130.653 357.071 130.99C356.47 131.313 355.986 131.811 355.619 132.486C355.252 133.161 355.069 133.982 355.069 134.95C355.069 135.933 355.245 136.761 355.597 137.436C355.964 138.111 356.448 138.617 357.049 138.954C357.65 139.277 358.31 139.438 359.029 139.438ZM369.845 131.166C370.241 130.477 370.828 129.905 371.605 129.45C372.397 128.981 373.314 128.746 374.355 128.746C375.426 128.746 376.394 129.003 377.259 129.516C378.139 130.029 378.829 130.755 379.327 131.694C379.826 132.618 380.075 133.696 380.075 134.928C380.075 136.145 379.826 137.231 379.327 138.184C378.829 139.137 378.139 139.878 377.259 140.406C376.394 140.934 375.426 141.198 374.355 141.198C373.329 141.198 372.419 140.971 371.627 140.516C370.85 140.047 370.256 139.467 369.845 138.778V146.72H367.843V128.944H369.845V131.166ZM378.029 134.928C378.029 134.019 377.846 133.227 377.479 132.552C377.113 131.877 376.614 131.364 375.983 131.012C375.367 130.66 374.685 130.484 373.937 130.484C373.204 130.484 372.522 130.667 371.891 131.034C371.275 131.386 370.777 131.907 370.395 132.596C370.029 133.271 369.845 134.055 369.845 134.95C369.845 135.859 370.029 136.659 370.395 137.348C370.777 138.023 371.275 138.543 371.891 138.91C372.522 139.262 373.204 139.438 373.937 139.438C374.685 139.438 375.367 139.262 375.983 138.91C376.614 138.543 377.113 138.023 377.479 137.348C377.846 136.659 378.029 135.852 378.029 134.928ZM384.713 124.72V141H382.711V124.72H384.713ZM399.125 134.51C399.125 134.891 399.103 135.295 399.059 135.72H389.423C389.496 136.908 389.899 137.839 390.633 138.514C391.381 139.174 392.283 139.504 393.339 139.504C394.204 139.504 394.923 139.306 395.495 138.91C396.081 138.499 396.492 137.957 396.727 137.282H398.883C398.56 138.441 397.915 139.387 396.947 140.12C395.979 140.839 394.776 141.198 393.339 141.198C392.195 141.198 391.168 140.941 390.259 140.428C389.364 139.915 388.66 139.189 388.147 138.25C387.633 137.297 387.377 136.197 387.377 134.95C387.377 133.703 387.626 132.611 388.125 131.672C388.623 130.733 389.32 130.015 390.215 129.516C391.124 129.003 392.165 128.746 393.339 128.746C394.483 128.746 395.495 128.995 396.375 129.494C397.255 129.993 397.929 130.682 398.399 131.562C398.883 132.427 399.125 133.41 399.125 134.51ZM397.057 134.092C397.057 133.329 396.888 132.677 396.551 132.134C396.213 131.577 395.751 131.159 395.165 130.88C394.593 130.587 393.955 130.44 393.251 130.44C392.239 130.44 391.373 130.763 390.655 131.408C389.951 132.053 389.547 132.948 389.445 134.092H397.057ZM402.405 141.132C402.024 141.132 401.701 141 401.437 140.736C401.173 140.472 401.041 140.149 401.041 139.768C401.041 139.387 401.173 139.064 401.437 138.8C401.701 138.536 402.024 138.404 402.405 138.404C402.772 138.404 403.08 138.536 403.329 138.8C403.593 139.064 403.725 139.387 403.725 139.768C403.725 140.149 403.593 140.472 403.329 140.736C403.08 141 402.772 141.132 402.405 141.132Z" fill="black"/>
</svg>
