<svg width="436" height="789" viewBox="0 0 436 789" fill="none" xmlns="http://www.w3.org/2000/svg">
<g clip-path="url(#clip0_91_4101)">
<ellipse cx="161.06" cy="740" rx="13.9402" ry="23" fill="#997F73"/>
<rect x="53.9404" y="717" width="107.853" height="46" fill="#997F73"/>
<path d="M67.3804 740C67.3804 746.275 65.8378 751.932 63.3698 756.004C60.8964 760.085 57.5476 762.5 53.9402 762.5C50.3329 762.5 46.9841 760.085 44.5106 756.004C42.0427 751.932 40.5 746.275 40.5 740C40.5 733.725 42.0427 728.068 44.5106 723.996C46.9841 719.915 50.3329 717.5 53.9402 717.5C57.5476 717.5 60.8964 719.915 63.3698 723.996C65.8378 728.068 67.3804 733.725 67.3804 740Z" fill="#997F73" stroke="#846658"/>
<path d="M63.7119 740.451C63.7119 744.854 62.5817 748.817 60.7809 751.664C58.9761 754.516 56.545 756.186 53.9402 756.186C51.3354 756.186 48.9043 754.516 47.0995 751.664C45.2987 748.817 44.1685 744.854 44.1685 740.451C44.1685 736.048 45.2987 732.085 47.0995 729.238C48.9043 726.386 51.3354 724.716 53.9402 724.716C56.545 724.716 58.9761 726.386 60.7809 729.238C62.5817 732.085 63.7119 736.048 63.7119 740.451Z" fill="#C6AEA3" stroke="#846658"/>
<path d="M111.168 741.353C131.806 741.353 152.753 742.255 173.533 742.255" stroke="#C6AEA3" stroke-width="3" stroke-linecap="round"/>
<path d="M76.6846 728.726C85.3599 728.726 95.1283 728.463 103.668 730.329C110.287 731.775 117.616 732.333 124.375 732.333" stroke="#C6AEA3" stroke-width="3" stroke-linecap="round"/>
<path d="M89.1577 751.275C100.027 751.275 110.897 751.275 121.766 751.275C130.531 751.275 140.189 753.078 148.587 753.078" stroke="#C6AEA3" stroke-width="3" stroke-linecap="round"/>
<path d="M136.114 726.922C147.886 726.922 159.082 727.824 170.598 727.824" stroke="#C6AEA3" stroke-width="3" stroke-linecap="round"/>
<ellipse cx="179.06" cy="748" rx="13.9402" ry="23" fill="#997F73"/>
<rect x="71.9404" y="725" width="107.853" height="46" fill="#997F73"/>
<path d="M85.3804 748C85.3804 754.275 83.8378 759.932 81.3698 764.004C78.8964 768.085 75.5476 770.5 71.9402 770.5C68.3329 770.5 64.9841 768.085 62.5106 764.004C60.0427 759.932 58.5 754.275 58.5 748C58.5 741.725 60.0427 736.068 62.5106 731.996C64.9841 727.915 68.3329 725.5 71.9402 725.5C75.5476 725.5 78.8964 727.915 81.3698 731.996C83.8378 736.068 85.3804 741.725 85.3804 748Z" fill="#997F73" stroke="#846658"/>
<path d="M81.7119 748.451C81.7119 752.854 80.5817 756.817 78.7809 759.664C76.9761 762.516 74.545 764.186 71.9402 764.186C69.3354 764.186 66.9043 762.516 65.0995 759.664C63.2987 756.817 62.1685 752.854 62.1685 748.451C62.1685 744.048 63.2987 740.085 65.0995 737.238C66.9043 734.386 69.3354 732.716 71.9402 732.716C74.545 732.716 76.9761 734.386 78.7809 737.238C80.5817 740.085 81.7119 744.048 81.7119 748.451Z" fill="#C6AEA3" stroke="#846658"/>
<path d="M129.168 749.353C149.806 749.353 170.753 750.255 191.533 750.255" stroke="#C6AEA3" stroke-width="3" stroke-linecap="round"/>
<path d="M94.6846 736.726C103.36 736.726 113.128 736.463 121.668 738.329C128.287 739.775 135.616 740.333 142.375 740.333" stroke="#C6AEA3" stroke-width="3" stroke-linecap="round"/>
<path d="M107.158 759.275C118.027 759.275 128.897 759.275 139.766 759.275C148.531 759.275 158.189 761.078 166.587 761.078" stroke="#C6AEA3" stroke-width="3" stroke-linecap="round"/>
<path d="M154.114 734.922C165.886 734.922 177.082 735.824 188.598 735.824" stroke="#C6AEA3" stroke-width="3" stroke-linecap="round"/>
<ellipse cx="205.06" cy="754" rx="13.9402" ry="23" fill="#997F73"/>
<rect x="97.9404" y="731" width="107.853" height="46" fill="#997F73"/>
<path d="M111.38 754C111.38 760.275 109.838 765.932 107.37 770.004C104.896 774.085 101.548 776.5 97.9402 776.5C94.3329 776.5 90.9841 774.085 88.5106 770.004C86.0427 765.932 84.5 760.275 84.5 754C84.5 747.725 86.0427 742.068 88.5106 737.996C90.9841 733.915 94.3329 731.5 97.9402 731.5C101.548 731.5 104.896 733.915 107.37 737.996C109.838 742.068 111.38 747.725 111.38 754Z" fill="#997F73" stroke="#846658"/>
<path d="M107.712 754.451C107.712 758.854 106.582 762.817 104.781 765.664C102.976 768.516 100.545 770.186 97.9402 770.186C95.3354 770.186 92.9043 768.516 91.0995 765.664C89.2987 762.817 88.1685 758.854 88.1685 754.451C88.1685 750.048 89.2987 746.085 91.0995 743.238C92.9043 740.386 95.3354 738.716 97.9402 738.716C100.545 738.716 102.976 740.386 104.781 743.238C106.582 746.085 107.712 750.048 107.712 754.451Z" fill="#C6AEA3" stroke="#846658"/>
<path d="M155.168 755.353C175.806 755.353 196.753 756.255 217.533 756.255" stroke="#C6AEA3" stroke-width="3" stroke-linecap="round"/>
<path d="M120.685 742.726C129.36 742.726 139.128 742.463 147.668 744.329C154.287 745.775 161.616 746.333 168.375 746.333" stroke="#C6AEA3" stroke-width="3" stroke-linecap="round"/>
<path d="M133.158 765.275C144.027 765.275 154.897 765.275 165.766 765.275C174.531 765.275 184.189 767.078 192.587 767.078" stroke="#C6AEA3" stroke-width="3" stroke-linecap="round"/>
<path d="M180.114 740.922C191.886 740.922 203.082 741.824 214.598 741.824" stroke="#C6AEA3" stroke-width="3" stroke-linecap="round"/>
<ellipse cx="228.955" cy="758.657" rx="13.9402" ry="23" transform="rotate(-3.57819 228.955 758.657)" fill="#997F73"/>
<rect x="120.609" y="742.388" width="107.853" height="46" transform="rotate(-3.57819 120.609 742.388)" fill="#997F73"/>
<path d="M135.458 764.504C135.85 770.767 134.663 776.509 132.454 780.727C130.24 784.955 127.049 787.574 123.449 787.799C119.848 788.024 116.355 785.823 113.632 781.904C110.915 777.995 109.022 772.445 108.63 766.182C108.239 759.918 109.425 754.176 111.634 749.958C113.848 745.731 117.04 743.112 120.64 742.887C124.24 742.661 127.733 744.863 130.457 748.781C133.174 752.691 135.067 758.241 135.458 764.504Z" fill="#997F73" stroke="#846658"/>
<path d="M131.825 765.183C132.1 769.578 131.219 773.604 129.6 776.557C127.976 779.517 125.654 781.335 123.055 781.498C120.455 781.66 117.924 780.145 115.945 777.411C113.97 774.682 112.595 770.798 112.32 766.403C112.045 762.008 112.926 757.982 114.545 755.029C116.169 752.069 118.491 750.251 121.091 750.088C123.69 749.926 126.221 751.441 128.2 754.175C130.175 756.904 131.55 760.788 131.825 765.183Z" fill="#C6AEA3" stroke="#846658"/>
<path d="M179.245 763.121C199.843 761.833 220.805 761.426 241.544 760.129" stroke="#C6AEA3" stroke-width="3" stroke-linecap="round"/>
<path d="M144.041 752.671C152.699 752.129 162.432 751.257 171.072 752.587C177.768 753.618 185.118 753.717 191.863 753.295" stroke="#C6AEA3" stroke-width="3" stroke-linecap="round"/>
<path d="M157.897 774.397C168.745 773.719 179.593 773.041 190.442 772.362C199.19 771.815 208.941 773.013 217.323 772.489" stroke="#C6AEA3" stroke-width="3" stroke-linecap="round"/>
<path d="M203.242 747.161C214.991 746.427 226.221 746.628 237.715 745.909" stroke="#C6AEA3" stroke-width="3" stroke-linecap="round"/>
<ellipse cx="146" cy="704" rx="106" ry="42" fill="#B17733"/>
<path d="M291.5 621C291.5 689.689 226.433 745.5 146 745.5C65.5669 745.5 0.5 689.689 0.5 621C0.5 552.311 65.5669 496.5 146 496.5C226.433 496.5 291.5 552.311 291.5 621Z" fill="#B17733" stroke="#B17733"/>
<g filter="url(#filter0_d_91_4101)">
<ellipse cx="146" cy="538" rx="131" ry="42" fill="#B17733"/>
<path d="M276.5 538C276.5 543.572 272.978 548.966 266.403 553.95C259.837 558.927 250.304 563.431 238.478 567.222C214.834 574.803 182.137 579.5 146 579.5C109.863 579.5 77.1664 574.803 53.5217 567.222C41.6964 563.431 32.1631 558.927 25.5967 553.95C19.0222 548.966 15.5 543.572 15.5 538C15.5 532.428 19.0222 527.034 25.5967 522.05C32.1631 517.073 41.6964 512.569 53.5217 508.778C77.1664 501.197 109.863 496.5 146 496.5C182.137 496.5 214.834 501.197 238.478 508.778C250.304 512.569 259.837 517.073 266.403 522.05C272.978 527.034 276.5 532.428 276.5 538Z" stroke="black"/>
</g>
<path d="M247.5 537C247.5 540.749 244.823 544.433 239.705 547.873C234.605 551.301 227.193 554.408 217.988 557.025C199.586 562.257 174.134 565.5 146 565.5C117.866 565.5 92.4144 562.257 74.0118 557.025C64.8072 554.408 57.3945 551.301 52.2946 547.873C47.1767 544.433 44.5 540.749 44.5 537C44.5 533.251 47.1767 529.567 52.2946 526.127C57.3945 522.699 64.8072 519.592 74.0118 516.975C92.4144 511.743 117.866 508.5 146 508.5C174.134 508.5 199.586 511.743 217.988 516.975C227.193 519.592 234.605 522.699 239.705 526.127C244.823 529.567 247.5 533.251 247.5 537Z" fill="#553E24" stroke="black"/>
<path d="M247.5 543.5C247.5 544.892 246.875 546.294 245.598 547.698C244.319 549.105 242.409 550.486 239.907 551.817C234.903 554.478 227.63 556.89 218.601 558.922C200.55 562.984 175.589 565.5 148 565.5C120.411 565.5 95.4499 562.984 77.3991 558.922C68.3696 556.89 61.0967 554.478 56.0933 551.817C53.5912 550.486 51.6808 549.105 50.4015 547.698C49.1249 546.294 48.5 544.892 48.5 543.5C48.5 542.108 49.1249 540.706 50.4015 539.302C51.6808 537.895 53.5912 536.514 56.0933 535.183C61.0967 532.522 68.3696 530.11 77.3991 528.078C95.4499 524.016 120.411 521.5 148 521.5C175.589 521.5 200.55 524.016 218.601 528.078C227.63 530.11 234.903 532.522 239.907 535.183C242.409 536.514 244.319 537.895 245.598 539.302C246.875 540.706 247.5 542.108 247.5 543.5Z" fill="#F28686" fill-opacity="0.71" stroke="black"/>
<ellipse cx="91" cy="547" rx="16" ry="7" fill="#BD2D2D"/>
<ellipse cx="207" cy="547" rx="16" ry="7" fill="#BD2D2D"/>
<ellipse cx="148.832" cy="722.297" rx="76.4956" ry="41.7032" fill="#DDBE4F"/>
<path d="M148.019 599.907L223.428 709.378H72.6101L148.019 599.907Z" fill="#DDBE4F"/>
<path d="M111.785 599.949L135.389 709.931L74.8153 708.783L111.785 599.949Z" fill="#DDBE4F"/>
<path d="M50.6963 604.257L132.876 705.12L74.512 714.224L50.6963 604.257Z" fill="#DDBE4F"/>
<path d="M190.335 601.72L220.639 711.191H160.03L190.335 601.72Z" fill="#DDBE4F"/>
<path d="M257.415 608.826L213.987 716.917L157.55 704.609L257.415 608.826Z" fill="#DDBE4F"/>
<ellipse cx="145.104" cy="729.111" rx="61.1107" ry="29.4493" fill="#DD9C4F"/>
<path d="M144.454 642.684L204.696 719.988H84.2112L144.454 642.684Z" fill="#DD9C4F"/>
<path d="M115.507 642.713L134.364 720.378L85.9725 719.568L115.507 642.713Z" fill="#DD9C4F"/>
<path d="M66.7044 645.756L132.356 716.982L85.7303 723.411L66.7044 645.756Z" fill="#DD9C4F"/>
<path d="M178.26 643.964L202.469 721.268H154.05L178.26 643.964Z" fill="#DD9C4F"/>
<path d="M231.847 648.982L197.154 725.312L152.067 716.621L231.847 648.982Z" fill="#DD9C4F"/>
<ellipse cx="145.543" cy="720.453" rx="40.5885" ry="23.6013" fill="#DC583C"/>
<path d="M145.111 651.189L185.123 713.143H105.1L145.111 651.189Z" fill="#DC583C"/>
<path d="M125.886 651.213L138.41 713.455L106.27 712.806L125.886 651.213Z" fill="#DC583C"/>
<path d="M93.4715 653.651L137.076 710.733L106.108 715.885L93.4715 653.651Z" fill="#DC583C"/>
<path d="M167.565 652.215L183.644 714.168H151.485L167.565 652.215Z" fill="#DC583C"/>
<path d="M203.156 656.237L180.113 717.409L150.167 710.443L203.156 656.237Z" fill="#DC583C"/>
<ellipse cx="127" cy="535" rx="16" ry="7" fill="#BD2D2D"/>
<ellipse cx="178" cy="538" rx="16" ry="7" fill="#BD2D2D"/>
<ellipse cx="143" cy="554" rx="16" ry="7" fill="#BD2D2D"/>
<path fill-rule="evenodd" clip-rule="evenodd" d="M146 547C197.362 547 239 493.722 239 428C239 402.511 232.737 378.894 222.073 359.53C227.158 344.193 230 327.066 230 309C230 281.008 223.178 255.273 211.76 234.951C215.138 221.082 217 205.905 217 190C217 157.522 209.237 128.082 196.651 106.61C196.882 102.966 197 99.2585 197 95.5C197 43.3091 174.167 1 146 1C117.833 1 95 43.3091 95 95.5C95 99.2585 95.1184 102.966 95.3487 106.61C82.763 128.082 75 157.522 75 190C75 205.905 76.8618 221.082 80.24 234.951C68.8223 255.273 62 281.008 62 309C62 327.066 64.8419 344.193 69.9269 359.53C59.2628 378.894 53 402.511 53 428C53 493.722 94.6375 547 146 547Z" fill="#D9D9D9" fill-opacity="0.3"/>
</g>
<defs>
<filter id="filter0_d_91_4101" x="11" y="496" width="270" height="92" filterUnits="userSpaceOnUse" color-interpolation-filters="sRGB">
<feFlood flood-opacity="0" result="BackgroundImageFix"/>
<feColorMatrix in="SourceAlpha" type="matrix" values="0 0 0 0 0 0 0 0 0 0 0 0 0 0 0 0 0 0 127 0" result="hardAlpha"/>
<feOffset dy="4"/>
<feGaussianBlur stdDeviation="2"/>
<feComposite in2="hardAlpha" operator="out"/>
<feColorMatrix type="matrix" values="0 0 0 0 0 0 0 0 0 0 0 0 0 0 0 0 0 0 0.25 0"/>
<feBlend mode="normal" in2="BackgroundImageFix" result="effect1_dropShadow_91_4101"/>
<feBlend mode="normal" in="SourceGraphic" in2="effect1_dropShadow_91_4101" result="shape"/>
</filter>
<clipPath id="clip0_91_4101">
<rect width="436" height="789" fill="white"/>
</clipPath>
</defs>
</svg>
