<svg width="207" height="519" viewBox="0 0 207 519" fill="none" xmlns="http://www.w3.org/2000/svg">
<g clip-path="url(#clip0_94_4237)">
<ellipse cx="103" cy="132" rx="84" ry="132" fill="black"/>
<circle cx="101" cy="90.0001" r="54" fill="#CB9D8A"/>
<rect x="68" y="36.0001" width="70" height="30" fill="black"/>
<path d="M86.8267 244.202C77.9371 268.625 67.0064 289.668 56.532 303.944C51.2927 311.085 46.185 316.51 41.5235 319.822C36.8467 323.146 32.7265 324.272 29.3923 323.058C26.0582 321.845 23.6259 318.334 22.1796 312.782C20.738 307.248 20.3119 299.809 20.8886 290.971C22.0415 273.302 27.1937 250.156 36.0833 225.732C44.9729 201.309 55.9037 180.266 66.3781 165.99C71.6173 158.849 76.7251 153.424 81.3866 150.112C86.0634 146.788 90.1835 145.662 93.5177 146.876C96.8519 148.089 99.2842 151.6 100.73 157.152C102.172 162.686 102.598 170.125 102.021 178.963C100.869 196.632 95.7163 219.778 86.8267 244.202Z" fill="#CB9D8A" stroke="#A67D6B"/>
<path d="M160.09 398.189C154.076 432.293 145.605 462.621 136.778 484.08C132.363 494.814 127.869 503.303 123.564 508.936C121.412 511.753 119.323 513.833 117.335 515.126C115.351 516.417 113.501 516.902 111.794 516.601C110.087 516.3 108.515 515.211 107.091 513.319C105.666 511.425 104.415 508.756 103.355 505.373C101.237 498.608 99.9176 489.093 99.4398 477.496C98.4844 454.312 100.897 422.916 106.91 388.812C112.924 354.707 121.395 324.38 130.222 302.92C134.638 292.186 139.132 283.697 143.436 278.064C145.589 275.247 147.677 273.167 149.665 271.874C151.649 270.583 153.499 270.098 155.206 270.399C156.913 270.7 158.485 271.789 159.909 273.681C161.334 275.575 162.585 278.244 163.645 281.627C165.763 288.393 167.083 297.907 167.56 309.504C168.516 332.688 166.103 364.084 160.09 398.189Z" fill="#CB9D8A" stroke="#A67D6B"/>
<path d="M165.447 225.732C174.336 250.156 179.489 273.301 180.641 290.97C181.218 299.808 180.792 307.247 179.35 312.781C177.904 318.333 175.472 321.844 172.138 323.058C168.803 324.271 164.683 323.145 160.006 319.821C155.345 316.509 150.237 311.085 144.998 303.944C134.524 289.667 123.593 268.625 114.703 244.201C105.814 219.777 100.662 196.632 99.5087 178.963C98.9321 170.125 99.3582 162.686 100.8 157.152C102.246 151.6 104.678 148.089 108.013 146.876C111.347 145.662 115.467 146.788 120.144 150.112C124.805 153.424 129.913 158.849 135.152 165.99C145.626 180.266 156.557 201.308 165.447 225.732Z" fill="#CB9D8A" stroke="#A67D6B"/>
<path d="M146.7 267.285C146.7 335.768 127.224 391.285 103.2 391.285C79.1753 391.285 59.6997 335.768 59.6997 267.285C59.6997 198.802 79.1753 143.285 103.2 143.285C127.224 143.285 146.7 198.802 146.7 267.285Z" fill="#CB9D8A"/>
<ellipse cx="76.5" cy="90.0001" rx="8.5" ry="11" fill="#D9D9D9"/>
<ellipse cx="81" cy="90.0001" rx="4" ry="6" fill="black"/>
<ellipse cx="122.5" cy="90.0001" rx="8.5" ry="11" fill="#D9D9D9"/>
<ellipse cx="127" cy="90.0001" rx="4" ry="6" fill="black"/>
<line x1="87" y1="117.5" x2="118" y2="117.5" stroke="black"/>
<line x1="98" y1="104.5" x2="109" y2="104.5" stroke="black"/>
<path d="M114.237 412.743C123.216 437.414 128.45 460.783 129.661 478.614C130.267 487.533 129.865 495.037 128.439 500.617C127.009 506.216 124.584 509.749 121.252 510.962C117.921 512.174 113.792 511.026 109.098 507.657C104.419 504.299 99.2874 498.809 94.0185 491.587C83.4849 477.149 72.4727 455.883 63.4934 431.212C54.514 406.542 49.2804 383.173 48.0689 365.342C47.4629 356.422 47.8654 348.918 49.291 343.339C50.7215 337.74 53.1457 334.207 56.4776 332.994C59.8096 331.781 63.9378 332.93 68.6324 336.299C73.3108 339.657 78.4427 345.147 83.7116 352.369C94.2452 366.807 105.257 388.073 114.237 412.743Z" fill="#CB9D8A" stroke="#A67D6B"/>
<path d="M103.49 213.752L206.98 391H1.52588e-05L103.49 213.752Z" fill="#D6C84F"/>
<rect x="65" y="207" width="77" height="68.6483" fill="#2DBD92"/>
<path d="M123 105H139V111H123V105Z" fill="#2DBD92"/>
<path d="M60 105H76V111H60V105Z" fill="#2DBD92"/>
</g>
<defs>
<clipPath id="clip0_94_4237">
<rect width="207" height="519" fill="white"/>
</clipPath>
</defs>
</svg>
