<svg width="207" height="519" viewBox="0 0 207 519" fill="none" xmlns="http://www.w3.org/2000/svg">
<g clip-path="url(#clip0_64_2594)">
<ellipse cx="84" cy="132" rx="84" ry="132" transform="matrix(-1 0 0 1 190.98 -0.000244141)" fill="black"/>
<ellipse cx="54" cy="54" rx="54" ry="54" transform="matrix(-1 0 0 1 162.98 36.0007)" fill="#CB9D8A"/>
<rect width="70" height="30" transform="matrix(-1 0 0 1 143.981 36.0007)" fill="black"/>
<path d="M101.48 393.5C101.48 428.131 104.556 459.468 109.523 482.135C112.007 493.472 114.959 502.613 118.22 508.907C119.851 512.055 121.546 514.466 123.279 516.084C125.01 517.7 126.747 518.5 128.48 518.5C130.213 518.5 131.951 517.7 133.681 516.084C135.414 514.466 137.11 512.055 138.741 508.907C142.001 502.613 144.953 493.472 147.437 482.135C152.404 459.468 155.48 428.131 155.48 393.5C155.48 358.869 152.404 327.531 147.437 304.865C144.953 293.528 142.001 284.387 138.741 278.092C137.11 274.944 135.414 272.533 133.681 270.915C131.951 269.299 130.213 268.5 128.48 268.5C126.747 268.5 125.01 269.299 123.279 270.915C121.546 272.533 119.851 274.944 118.22 278.092C114.959 284.387 112.007 293.528 109.523 304.865C104.556 327.531 101.48 358.869 101.48 393.5Z" fill="#CB9D8A" stroke="#A67D6B"/>
<path d="M120.153 244.201C129.043 268.625 139.973 289.667 150.448 303.944C155.687 311.085 160.795 316.509 165.456 319.822C170.133 323.145 174.253 324.272 177.587 323.058C180.922 321.844 183.354 318.333 184.8 312.781C186.242 307.247 186.668 299.809 186.091 290.971C184.938 273.302 179.786 250.156 170.896 225.732C162.007 201.308 151.076 180.266 140.602 165.989C135.362 158.848 130.255 153.424 125.593 150.111C120.916 146.788 116.796 145.662 113.462 146.875C110.128 148.089 107.696 151.6 106.249 157.152C104.808 162.686 104.382 170.124 104.958 178.962C106.111 196.632 111.263 219.777 120.153 244.201Z" fill="#CB9D8A" stroke="#A67D6B"/>
<path d="M46.4805 393.5C46.4805 428.131 49.5567 459.468 54.5235 482.135C57.0077 493.472 59.9593 502.613 63.2202 508.907C64.851 512.055 66.5466 514.466 68.2795 516.084C70.0099 517.7 71.7474 518.5 73.4805 518.5C75.2135 518.5 76.951 517.7 78.6814 516.084C80.4143 514.466 82.11 512.055 83.7408 508.907C87.0017 502.613 89.9532 493.472 92.4375 482.135C97.4043 459.468 100.48 428.131 100.48 393.5C100.48 358.869 97.4043 327.531 92.4375 304.865C89.9532 293.528 87.0017 284.387 83.7408 278.092C82.11 274.944 80.4143 272.533 78.6814 270.915C76.951 269.299 75.2135 268.5 73.4805 268.5C71.7474 268.5 70.0099 269.299 68.2795 270.915C66.5466 272.533 64.851 274.944 63.2202 278.092C59.9593 284.387 57.0077 293.528 54.5235 304.865C49.5567 327.531 46.4805 358.869 46.4805 393.5Z" fill="#CB9D8A" stroke="#A67D6B"/>
<path d="M41.5332 225.732C32.6437 250.156 27.4914 273.301 26.3386 290.97C25.7619 299.808 26.188 307.247 27.6296 312.781C29.0759 318.333 31.5083 321.844 34.8424 323.058C38.1766 324.271 42.2967 323.145 46.9735 319.821C51.635 316.509 56.7427 311.085 61.982 303.944C72.4563 289.667 83.3871 268.625 92.2766 244.201C101.166 219.777 106.318 196.632 107.471 178.963C108.048 170.125 107.622 162.686 106.18 157.152C104.734 151.6 102.302 148.089 98.9674 146.876C95.6333 145.662 91.5131 146.788 86.8363 150.112C82.1748 153.424 77.0671 158.849 71.8279 165.99C61.3535 180.266 50.4228 201.308 41.5332 225.732Z" fill="#CB9D8A" stroke="#A67D6B"/>
<path d="M60.2801 267.284C60.2801 335.768 79.7557 391.284 103.78 391.284C127.804 391.284 147.28 335.768 147.28 267.284C147.28 198.801 127.804 143.284 103.78 143.284C79.7557 143.284 60.2801 198.801 60.2801 267.284Z" fill="#CB9D8A"/>
<path d="M103.49 213.751L206.98 390.999H1.52588e-05L103.49 213.751Z" fill="#D9D9D9"/>
<rect x="64.9995" y="207" width="77" height="68.6483" fill="#B17733"/>
<ellipse cx="8.5" cy="11" rx="8.5" ry="11" transform="matrix(-1 0 0 1 141.98 75.9995)" fill="#D9D9D9"/>
<ellipse cx="4" cy="6" rx="4" ry="6" transform="matrix(-1 0 0 1 132.98 80.9998)" fill="black"/>
<ellipse cx="8.5" cy="11" rx="8.5" ry="11" transform="matrix(-1 0 0 1 95.98 75.9995)" fill="#D9D9D9"/>
<ellipse cx="4" cy="6" rx="4" ry="6" transform="matrix(-1 0 0 1 86.9802 80.9998)" fill="black"/>
<line y1="-0.5" x2="11" y2="-0.5" transform="matrix(-1 0 0 1 111.98 104.999)" stroke="black"/>
<ellipse cx="109" cy="120.5" rx="16" ry="6.5" fill="#5E4636"/>
</g>
<defs>
<clipPath id="clip0_64_2594">
<rect width="207" height="519" fill="white"/>
</clipPath>
</defs>
</svg>
