<svg width="421" height="126" viewBox="0 0 421 126" fill="none" xmlns="http://www.w3.org/2000/svg">
<rect width="421" height="125" fill="#F5E9D7"/>
<path d="M76.0273 57H73.8433L65.0593 43.68V57H62.8753V40.248H65.0593L73.8433 53.544V40.248H76.0273V57ZM80.8783 41.712C80.4623 41.712 80.1103 41.568 79.8223 41.28C79.5343 40.992 79.3903 40.64 79.3903 40.224C79.3903 39.808 79.5343 39.456 79.8223 39.168C80.1103 38.88 80.4623 38.736 80.8783 38.736C81.2783 38.736 81.6143 38.88 81.8863 39.168C82.1743 39.456 82.3183 39.808 82.3183 40.224C82.3183 40.64 82.1743 40.992 81.8863 41.28C81.6143 41.568 81.2783 41.712 80.8783 41.712ZM81.9343 43.848V57H79.7503V43.848H81.9343ZM84.8406 50.4C84.8406 49.04 85.1126 47.856 85.6566 46.848C86.2006 45.824 86.9526 45.032 87.9126 44.472C88.8886 43.912 90.0006 43.632 91.2486 43.632C92.8646 43.632 94.1926 44.024 95.2326 44.808C96.2886 45.592 96.9846 46.68 97.3206 48.072H94.9686C94.7446 47.272 94.3046 46.64 93.6486 46.176C93.0086 45.712 92.2086 45.48 91.2486 45.48C90.0006 45.48 88.9926 45.912 88.2246 46.776C87.4566 47.624 87.0726 48.832 87.0726 50.4C87.0726 51.984 87.4566 53.208 88.2246 54.072C88.9926 54.936 90.0006 55.368 91.2486 55.368C92.2086 55.368 93.0086 55.144 93.6486 54.696C94.2886 54.248 94.7286 53.608 94.9686 52.776H97.3206C96.9686 54.12 96.2646 55.2 95.2086 56.016C94.1526 56.816 92.8326 57.216 91.2486 57.216C90.0006 57.216 88.8886 56.936 87.9126 56.376C86.9526 55.816 86.2006 55.024 85.6566 54C85.1126 52.976 84.8406 51.776 84.8406 50.4ZM112.235 49.92C112.235 50.336 112.211 50.776 112.163 51.24H101.651C101.731 52.536 102.171 53.552 102.971 54.288C103.787 55.008 104.771 55.368 105.923 55.368C106.867 55.368 107.651 55.152 108.275 54.72C108.915 54.272 109.363 53.68 109.619 52.944H111.971C111.619 54.208 110.915 55.24 109.859 56.04C108.803 56.824 107.491 57.216 105.923 57.216C104.675 57.216 103.555 56.936 102.563 56.376C101.587 55.816 100.819 55.024 100.259 54C99.6987 52.96 99.4187 51.76 99.4187 50.4C99.4187 49.04 99.6907 47.848 100.235 46.824C100.779 45.8 101.539 45.016 102.515 44.472C103.507 43.912 104.643 43.632 105.923 43.632C107.171 43.632 108.275 43.904 109.235 44.448C110.195 44.992 110.931 45.744 111.443 46.704C111.971 47.648 112.235 48.72 112.235 49.92ZM109.979 49.464C109.979 48.632 109.795 47.92 109.427 47.328C109.059 46.72 108.555 46.264 107.915 45.96C107.291 45.64 106.595 45.48 105.827 45.48C104.723 45.48 103.779 45.832 102.995 46.536C102.227 47.24 101.787 48.216 101.675 49.464H109.979ZM117.95 40.272L117.686 52.272H115.862L115.598 40.272H117.95ZM116.87 57.144C116.454 57.144 116.102 57 115.814 56.712C115.526 56.424 115.382 56.072 115.382 55.656C115.382 55.24 115.526 54.888 115.814 54.6C116.102 54.312 116.454 54.168 116.87 54.168C117.27 54.168 117.606 54.312 117.878 54.6C118.166 54.888 118.31 55.24 118.31 55.656C118.31 56.072 118.166 56.424 117.878 56.712C117.606 57 117.27 57.144 116.87 57.144ZM141.816 57H139.632L130.848 43.68V57H128.664V40.248H130.848L139.632 53.544V40.248H141.816V57ZM151.275 57.216C150.043 57.216 148.923 56.936 147.915 56.376C146.923 55.816 146.139 55.024 145.563 54C145.003 52.96 144.723 51.76 144.723 50.4C144.723 49.056 145.011 47.872 145.587 46.848C146.179 45.808 146.979 45.016 147.987 44.472C148.995 43.912 150.123 43.632 151.371 43.632C152.619 43.632 153.747 43.912 154.755 44.472C155.763 45.016 156.555 45.8 157.131 46.824C157.723 47.848 158.019 49.04 158.019 50.4C158.019 51.76 157.715 52.96 157.107 54C156.515 55.024 155.707 55.816 154.683 56.376C153.659 56.936 152.523 57.216 151.275 57.216ZM151.275 55.296C152.059 55.296 152.795 55.112 153.483 54.744C154.171 54.376 154.723 53.824 155.139 53.088C155.571 52.352 155.787 51.456 155.787 50.4C155.787 49.344 155.579 48.448 155.163 47.712C154.747 46.976 154.203 46.432 153.531 46.08C152.859 45.712 152.131 45.528 151.347 45.528C150.547 45.528 149.811 45.712 149.139 46.08C148.483 46.432 147.955 46.976 147.555 47.712C147.155 48.448 146.955 49.344 146.955 50.4C146.955 51.472 147.147 52.376 147.531 53.112C147.931 53.848 148.459 54.4 149.115 54.768C149.771 55.12 150.491 55.296 151.275 55.296ZM178.411 43.848L174.307 57H172.051L168.883 46.56L165.715 57H163.459L159.331 43.848H161.563L164.587 54.888L167.851 43.848H170.083L173.275 54.912L176.251 43.848H178.411ZM189.161 39.24V57H186.977V39.24H189.161ZM204.883 49.92C204.883 50.336 204.859 50.776 204.811 51.24H194.299C194.379 52.536 194.819 53.552 195.619 54.288C196.435 55.008 197.419 55.368 198.571 55.368C199.515 55.368 200.299 55.152 200.923 54.72C201.563 54.272 202.011 53.68 202.267 52.944H204.619C204.267 54.208 203.563 55.24 202.507 56.04C201.451 56.824 200.139 57.216 198.571 57.216C197.323 57.216 196.203 56.936 195.211 56.376C194.235 55.816 193.467 55.024 192.907 54C192.347 52.96 192.067 51.76 192.067 50.4C192.067 49.04 192.339 47.848 192.883 46.824C193.427 45.8 194.187 45.016 195.163 44.472C196.155 43.912 197.291 43.632 198.571 43.632C199.819 43.632 200.923 43.904 201.883 44.448C202.843 44.992 203.579 45.744 204.091 46.704C204.619 47.648 204.883 48.72 204.883 49.92ZM202.627 49.464C202.627 48.632 202.443 47.92 202.075 47.328C201.707 46.72 201.203 46.264 200.563 45.96C199.939 45.64 199.243 45.48 198.475 45.48C197.371 45.48 196.427 45.832 195.643 46.536C194.875 47.24 194.435 48.216 194.323 49.464H202.627ZM210.43 45.648V53.4C210.43 54.04 210.566 54.496 210.838 54.768C211.11 55.024 211.582 55.152 212.254 55.152H213.862V57H211.894C210.678 57 209.766 56.72 209.158 56.16C208.55 55.6 208.246 54.68 208.246 53.4V45.648H206.542V43.848H208.246V40.536H210.43V43.848H213.862V45.648H210.43ZM217.612 37.896L217.324 42.672H215.812L215.5 37.896H217.612ZM224.984 57.216C223.976 57.216 223.072 57.048 222.272 56.712C221.472 56.36 220.84 55.88 220.376 55.272C219.912 54.648 219.656 53.936 219.608 53.136H221.864C221.928 53.792 222.232 54.328 222.776 54.744C223.336 55.16 224.064 55.368 224.96 55.368C225.792 55.368 226.448 55.184 226.928 54.816C227.408 54.448 227.648 53.984 227.648 53.424C227.648 52.848 227.392 52.424 226.88 52.152C226.368 51.864 225.576 51.584 224.504 51.312C223.528 51.056 222.728 50.8 222.104 50.544C221.496 50.272 220.968 49.88 220.52 49.368C220.088 48.84 219.872 48.152 219.872 47.304C219.872 46.632 220.072 46.016 220.472 45.456C220.872 44.896 221.44 44.456 222.176 44.136C222.912 43.8 223.752 43.632 224.696 43.632C226.152 43.632 227.328 44 228.224 44.736C229.12 45.472 229.6 46.48 229.664 47.76H227.48C227.432 47.072 227.152 46.52 226.64 46.104C226.144 45.688 225.472 45.48 224.624 45.48C223.84 45.48 223.216 45.648 222.752 45.984C222.288 46.32 222.056 46.76 222.056 47.304C222.056 47.736 222.192 48.096 222.464 48.384C222.752 48.656 223.104 48.88 223.52 49.056C223.952 49.216 224.544 49.4 225.296 49.608C226.24 49.864 227.008 50.12 227.6 50.376C228.192 50.616 228.696 50.984 229.112 51.48C229.544 51.976 229.768 52.624 229.784 53.424C229.784 54.144 229.584 54.792 229.184 55.368C228.784 55.944 228.216 56.4 227.48 56.736C226.76 57.056 225.928 57.216 224.984 57.216ZM238.45 50.376C238.45 49.032 238.722 47.856 239.266 46.848C239.81 45.824 240.554 45.032 241.498 44.472C242.458 43.912 243.522 43.632 244.69 43.632C245.842 43.632 246.842 43.88 247.69 44.376C248.538 44.872 249.17 45.496 249.586 46.248V43.848H251.794V57H249.586V54.552C249.154 55.32 248.506 55.96 247.642 56.472C246.794 56.968 245.802 57.216 244.666 57.216C243.498 57.216 242.442 56.928 241.498 56.352C240.554 55.776 239.81 54.968 239.266 53.928C238.722 52.888 238.45 51.704 238.45 50.376ZM249.586 50.4C249.586 49.408 249.386 48.544 248.986 47.808C248.586 47.072 248.042 46.512 247.354 46.128C246.682 45.728 245.938 45.528 245.122 45.528C244.306 45.528 243.562 45.72 242.89 46.104C242.218 46.488 241.682 47.048 241.282 47.784C240.882 48.52 240.682 49.384 240.682 50.376C240.682 51.384 240.882 52.264 241.282 53.016C241.682 53.752 242.218 54.32 242.89 54.72C243.562 55.104 244.306 55.296 245.122 55.296C245.938 55.296 246.682 55.104 247.354 54.72C248.042 54.32 248.586 53.752 248.986 53.016C249.386 52.264 249.586 51.392 249.586 50.4ZM254.669 50.376C254.669 49.032 254.941 47.856 255.485 46.848C256.029 45.824 256.773 45.032 257.717 44.472C258.677 43.912 259.749 43.632 260.933 43.632C261.957 43.632 262.909 43.872 263.789 44.352C264.669 44.816 265.341 45.432 265.805 46.2V39.24H268.013V57H265.805V54.528C265.373 55.312 264.733 55.96 263.885 56.472C263.037 56.968 262.045 57.216 260.909 57.216C259.741 57.216 258.677 56.928 257.717 56.352C256.773 55.776 256.029 54.968 255.485 53.928C254.941 52.888 254.669 51.704 254.669 50.376ZM265.805 50.4C265.805 49.408 265.605 48.544 265.205 47.808C264.805 47.072 264.261 46.512 263.573 46.128C262.901 45.728 262.157 45.528 261.341 45.528C260.525 45.528 259.781 45.72 259.109 46.104C258.437 46.488 257.901 47.048 257.501 47.784C257.101 48.52 256.901 49.384 256.901 50.376C256.901 51.384 257.101 52.264 257.501 53.016C257.901 53.752 258.437 54.32 259.109 54.72C259.781 55.104 260.525 55.296 261.341 55.296C262.157 55.296 262.901 55.104 263.573 54.72C264.261 54.32 264.805 53.752 265.205 53.016C265.605 52.264 265.805 51.392 265.805 50.4ZM270.887 50.376C270.887 49.032 271.159 47.856 271.703 46.848C272.247 45.824 272.991 45.032 273.935 44.472C274.895 43.912 275.967 43.632 277.151 43.632C278.175 43.632 279.127 43.872 280.007 44.352C280.887 44.816 281.559 45.432 282.023 46.2V39.24H284.231V57H282.023V54.528C281.591 55.312 280.951 55.96 280.103 56.472C279.255 56.968 278.263 57.216 277.127 57.216C275.959 57.216 274.895 56.928 273.935 56.352C272.991 55.776 272.247 54.968 271.703 53.928C271.159 52.888 270.887 51.704 270.887 50.376ZM282.023 50.4C282.023 49.408 281.823 48.544 281.423 47.808C281.023 47.072 280.479 46.512 279.791 46.128C279.119 45.728 278.375 45.528 277.559 45.528C276.743 45.528 275.999 45.72 275.327 46.104C274.655 46.488 274.119 47.048 273.719 47.784C273.319 48.52 273.119 49.384 273.119 50.376C273.119 51.384 273.319 52.264 273.719 53.016C274.119 53.752 274.655 54.32 275.327 54.72C275.999 55.104 276.743 55.296 277.559 55.296C278.375 55.296 279.119 55.104 279.791 54.72C280.479 54.32 281.023 53.752 281.423 53.016C281.823 52.264 282.023 51.392 282.023 50.4ZM298.977 57.216C297.969 57.216 297.065 57.048 296.265 56.712C295.465 56.36 294.833 55.88 294.369 55.272C293.905 54.648 293.649 53.936 293.601 53.136H295.857C295.921 53.792 296.225 54.328 296.769 54.744C297.329 55.16 298.057 55.368 298.953 55.368C299.785 55.368 300.441 55.184 300.921 54.816C301.401 54.448 301.641 53.984 301.641 53.424C301.641 52.848 301.385 52.424 300.873 52.152C300.361 51.864 299.569 51.584 298.497 51.312C297.521 51.056 296.721 50.8 296.097 50.544C295.489 50.272 294.961 49.88 294.513 49.368C294.081 48.84 293.865 48.152 293.865 47.304C293.865 46.632 294.065 46.016 294.465 45.456C294.865 44.896 295.433 44.456 296.169 44.136C296.905 43.8 297.745 43.632 298.689 43.632C300.145 43.632 301.321 44 302.217 44.736C303.113 45.472 303.593 46.48 303.657 47.76H301.473C301.425 47.072 301.145 46.52 300.633 46.104C300.137 45.688 299.465 45.48 298.617 45.48C297.833 45.48 297.209 45.648 296.745 45.984C296.281 46.32 296.049 46.76 296.049 47.304C296.049 47.736 296.185 48.096 296.457 48.384C296.745 48.656 297.097 48.88 297.513 49.056C297.945 49.216 298.537 49.4 299.289 49.608C300.233 49.864 301.001 50.12 301.593 50.376C302.185 50.616 302.689 50.984 303.105 51.48C303.537 51.976 303.761 52.624 303.777 53.424C303.777 54.144 303.577 54.792 303.177 55.368C302.777 55.944 302.209 56.4 301.473 56.736C300.753 57.056 299.921 57.216 298.977 57.216ZM312.596 57.216C311.364 57.216 310.244 56.936 309.236 56.376C308.244 55.816 307.46 55.024 306.884 54C306.324 52.96 306.044 51.76 306.044 50.4C306.044 49.056 306.332 47.872 306.908 46.848C307.5 45.808 308.3 45.016 309.308 44.472C310.316 43.912 311.444 43.632 312.692 43.632C313.94 43.632 315.068 43.912 316.076 44.472C317.084 45.016 317.876 45.8 318.452 46.824C319.044 47.848 319.34 49.04 319.34 50.4C319.34 51.76 319.036 52.96 318.428 54C317.836 55.024 317.028 55.816 316.004 56.376C314.98 56.936 313.844 57.216 312.596 57.216ZM312.596 55.296C313.38 55.296 314.116 55.112 314.804 54.744C315.492 54.376 316.044 53.824 316.46 53.088C316.892 52.352 317.108 51.456 317.108 50.4C317.108 49.344 316.9 48.448 316.484 47.712C316.068 46.976 315.524 46.432 314.852 46.08C314.18 45.712 313.452 45.528 312.668 45.528C311.868 45.528 311.132 45.712 310.46 46.08C309.804 46.432 309.276 46.976 308.876 47.712C308.476 48.448 308.276 49.344 308.276 50.4C308.276 51.472 308.468 52.376 308.852 53.112C309.252 53.848 309.78 54.4 310.436 54.768C311.092 55.12 311.812 55.296 312.596 55.296ZM338.027 43.608C339.051 43.608 339.963 43.824 340.763 44.256C341.563 44.672 342.195 45.304 342.659 46.152C343.123 47 343.355 48.032 343.355 49.248V57H341.195V49.56C341.195 48.248 340.867 47.248 340.211 46.56C339.571 45.856 338.699 45.504 337.595 45.504C336.459 45.504 335.555 45.872 334.883 46.608C334.211 47.328 333.875 48.376 333.875 49.752V57H331.715V49.56C331.715 48.248 331.387 47.248 330.731 46.56C330.091 45.856 329.219 45.504 328.115 45.504C326.979 45.504 326.075 45.872 325.403 46.608C324.731 47.328 324.395 48.376 324.395 49.752V57H322.211V43.848H324.395V45.744C324.827 45.056 325.403 44.528 326.123 44.16C326.859 43.792 327.667 43.608 328.547 43.608C329.651 43.608 330.627 43.856 331.475 44.352C332.323 44.848 332.955 45.576 333.371 46.536C333.739 45.608 334.347 44.888 335.195 44.376C336.043 43.864 336.987 43.608 338.027 43.608ZM358.938 49.92C358.938 50.336 358.914 50.776 358.866 51.24H348.354C348.434 52.536 348.874 53.552 349.674 54.288C350.49 55.008 351.474 55.368 352.626 55.368C353.57 55.368 354.354 55.152 354.978 54.72C355.618 54.272 356.066 53.68 356.322 52.944H358.674C358.322 54.208 357.618 55.24 356.562 56.04C355.506 56.824 354.194 57.216 352.626 57.216C351.378 57.216 350.258 56.936 349.266 56.376C348.29 55.816 347.522 55.024 346.962 54C346.402 52.96 346.122 51.76 346.122 50.4C346.122 49.04 346.394 47.848 346.938 46.824C347.482 45.8 348.242 45.016 349.218 44.472C350.21 43.912 351.346 43.632 352.626 43.632C353.874 43.632 354.978 43.904 355.938 44.448C356.898 44.992 357.634 45.744 358.146 46.704C358.674 47.648 358.938 48.72 358.938 49.92ZM356.682 49.464C356.682 48.632 356.498 47.92 356.13 47.328C355.762 46.72 355.258 46.264 354.618 45.96C353.994 45.64 353.298 45.48 352.53 45.48C351.426 45.48 350.482 45.832 349.698 46.536C348.93 47.24 348.49 48.216 348.378 49.464H356.682ZM96.0785 81.624C96.5105 81.016 97.1025 80.512 97.8545 80.112C98.6225 79.696 99.4945 79.488 100.471 79.488C101.607 79.488 102.631 79.768 103.543 80.328C104.471 80.888 105.199 81.688 105.727 82.728C106.271 83.752 106.543 84.944 106.543 86.304C106.543 87.664 106.271 88.872 105.727 89.928C105.199 90.968 104.471 91.776 103.543 92.352C102.631 92.928 101.607 93.216 100.471 93.216C99.4945 93.216 98.6305 93.016 97.8785 92.616C97.1425 92.216 96.5425 91.712 96.0785 91.104V99.336H92.7185V79.704H96.0785V81.624ZM103.111 86.304C103.111 85.504 102.943 84.816 102.607 84.24C102.287 83.648 101.855 83.2 101.311 82.896C100.783 82.592 100.207 82.44 99.5825 82.44C98.9745 82.44 98.3985 82.6 97.8545 82.92C97.3265 83.224 96.8945 83.672 96.5585 84.264C96.2385 84.856 96.0785 85.552 96.0785 86.352C96.0785 87.152 96.2385 87.848 96.5585 88.44C96.8945 89.032 97.3265 89.488 97.8545 89.808C98.3985 90.112 98.9745 90.264 99.5825 90.264C100.207 90.264 100.783 90.104 101.311 89.784C101.855 89.464 102.287 89.008 102.607 88.416C102.943 87.824 103.111 87.12 103.111 86.304ZM121.344 86.064C121.344 86.544 121.312 86.976 121.248 87.36H111.528C111.608 88.32 111.944 89.072 112.536 89.616C113.128 90.16 113.856 90.432 114.72 90.432C115.968 90.432 116.856 89.896 117.384 88.824H121.008C120.624 90.104 119.888 91.16 118.8 91.992C117.712 92.808 116.376 93.216 114.792 93.216C113.512 93.216 112.36 92.936 111.336 92.376C110.328 91.8 109.536 90.992 108.96 89.952C108.4 88.912 108.12 87.712 108.12 86.352C108.12 84.976 108.4 83.768 108.96 82.728C109.52 81.688 110.304 80.888 111.312 80.328C112.32 79.768 113.48 79.488 114.792 79.488C116.056 79.488 117.184 79.76 118.176 80.304C119.184 80.848 119.96 81.624 120.504 82.632C121.064 83.624 121.344 84.768 121.344 86.064ZM117.864 85.104C117.848 84.24 117.536 83.552 116.928 83.04C116.32 82.512 115.576 82.248 114.696 82.248C113.864 82.248 113.16 82.504 112.584 83.016C112.024 83.512 111.68 84.208 111.552 85.104H117.864ZM127.157 81.624C127.589 81.016 128.181 80.512 128.933 80.112C129.701 79.696 130.573 79.488 131.549 79.488C132.685 79.488 133.709 79.768 134.621 80.328C135.549 80.888 136.277 81.688 136.805 82.728C137.349 83.752 137.621 84.944 137.621 86.304C137.621 87.664 137.349 88.872 136.805 89.928C136.277 90.968 135.549 91.776 134.621 92.352C133.709 92.928 132.685 93.216 131.549 93.216C130.573 93.216 129.709 93.016 128.957 92.616C128.221 92.216 127.621 91.712 127.157 91.104V99.336H123.797V79.704H127.157V81.624ZM134.189 86.304C134.189 85.504 134.021 84.816 133.685 84.24C133.365 83.648 132.933 83.2 132.389 82.896C131.861 82.592 131.285 82.44 130.661 82.44C130.053 82.44 129.477 82.6 128.933 82.92C128.405 83.224 127.973 83.672 127.637 84.264C127.317 84.856 127.157 85.552 127.157 86.352C127.157 87.152 127.317 87.848 127.637 88.44C127.973 89.032 128.405 89.488 128.933 89.808C129.477 90.112 130.053 90.264 130.661 90.264C131.285 90.264 131.861 90.104 132.389 89.784C132.933 89.464 133.365 89.008 133.685 88.416C134.021 87.824 134.189 87.12 134.189 86.304ZM143.422 81.624C143.854 81.016 144.446 80.512 145.198 80.112C145.966 79.696 146.838 79.488 147.814 79.488C148.95 79.488 149.974 79.768 150.886 80.328C151.814 80.888 152.542 81.688 153.07 82.728C153.614 83.752 153.886 84.944 153.886 86.304C153.886 87.664 153.614 88.872 153.07 89.928C152.542 90.968 151.814 91.776 150.886 92.352C149.974 92.928 148.95 93.216 147.814 93.216C146.838 93.216 145.974 93.016 145.222 92.616C144.486 92.216 143.886 91.712 143.422 91.104V99.336H140.062V79.704H143.422V81.624ZM150.454 86.304C150.454 85.504 150.286 84.816 149.95 84.24C149.63 83.648 149.198 83.2 148.654 82.896C148.126 82.592 147.55 82.44 146.926 82.44C146.318 82.44 145.742 82.6 145.198 82.92C144.67 83.224 144.238 83.672 143.902 84.264C143.582 84.856 143.422 85.552 143.422 86.352C143.422 87.152 143.582 87.848 143.902 88.44C144.238 89.032 144.67 89.488 145.198 89.808C145.742 90.112 146.318 90.264 146.926 90.264C147.55 90.264 148.126 90.104 148.654 89.784C149.198 89.464 149.63 89.008 149.95 88.416C150.286 87.824 150.454 87.12 150.454 86.304ZM168.688 86.064C168.688 86.544 168.656 86.976 168.592 87.36H158.872C158.952 88.32 159.288 89.072 159.88 89.616C160.472 90.16 161.2 90.432 162.064 90.432C163.312 90.432 164.2 89.896 164.728 88.824H168.352C167.968 90.104 167.232 91.16 166.144 91.992C165.056 92.808 163.72 93.216 162.136 93.216C160.856 93.216 159.704 92.936 158.68 92.376C157.672 91.8 156.88 90.992 156.304 89.952C155.744 88.912 155.464 87.712 155.464 86.352C155.464 84.976 155.744 83.768 156.304 82.728C156.864 81.688 157.648 80.888 158.656 80.328C159.664 79.768 160.824 79.488 162.136 79.488C163.4 79.488 164.528 79.76 165.52 80.304C166.528 80.848 167.304 81.624 167.848 82.632C168.408 83.624 168.688 84.768 168.688 86.064ZM165.208 85.104C165.192 84.24 164.88 83.552 164.272 83.04C163.664 82.512 162.92 82.248 162.04 82.248C161.208 82.248 160.504 82.504 159.928 83.016C159.368 83.512 159.024 84.208 158.896 85.104H165.208ZM174.5 81.768C174.932 81.064 175.492 80.512 176.18 80.112C176.884 79.712 177.684 79.512 178.58 79.512V83.04H177.692C176.636 83.04 175.836 83.288 175.292 83.784C174.764 84.28 174.5 85.144 174.5 86.376V93H171.14V79.704H174.5V81.768ZM190.098 81.648V89.4C190.098 90.04 190.234 90.496 190.506 90.768C190.778 91.024 191.25 91.152 191.922 91.152H193.53V93H191.562C190.346 93 189.434 92.72 188.826 92.16C188.218 91.6 187.914 90.68 187.914 89.4V81.648H186.21V79.848H187.914V76.536H190.098V79.848H193.53V81.648H190.098ZM201.912 93.216C200.68 93.216 199.56 92.936 198.552 92.376C197.56 91.816 196.776 91.024 196.2 90C195.64 88.96 195.36 87.76 195.36 86.4C195.36 85.056 195.648 83.872 196.224 82.848C196.816 81.808 197.616 81.016 198.624 80.472C199.632 79.912 200.76 79.632 202.008 79.632C203.256 79.632 204.384 79.912 205.392 80.472C206.4 81.016 207.192 81.8 207.768 82.824C208.36 83.848 208.656 85.04 208.656 86.4C208.656 87.76 208.352 88.96 207.744 90C207.152 91.024 206.344 91.816 205.32 92.376C204.296 92.936 203.16 93.216 201.912 93.216ZM201.912 91.296C202.696 91.296 203.432 91.112 204.12 90.744C204.808 90.376 205.36 89.824 205.776 89.088C206.208 88.352 206.424 87.456 206.424 86.4C206.424 85.344 206.216 84.448 205.8 83.712C205.384 82.976 204.84 82.432 204.168 82.08C203.496 81.712 202.768 81.528 201.984 81.528C201.184 81.528 200.448 81.712 199.776 82.08C199.12 82.432 198.592 82.976 198.192 83.712C197.792 84.448 197.592 85.344 197.592 86.4C197.592 87.472 197.784 88.376 198.168 89.112C198.568 89.848 199.096 90.4 199.752 90.768C200.408 91.12 201.128 91.296 201.912 91.296ZM220.59 81.648V89.4C220.59 90.04 220.726 90.496 220.998 90.768C221.27 91.024 221.742 91.152 222.414 91.152H224.022V93H222.054C220.838 93 219.926 92.72 219.318 92.16C218.71 91.6 218.406 90.68 218.406 89.4V81.648H216.702V79.848H218.406V76.536H220.59V79.848H224.022V81.648H220.59ZM233.196 79.608C234.188 79.608 235.084 79.824 235.884 80.256C236.684 80.672 237.308 81.304 237.756 82.152C238.22 83 238.452 84.032 238.452 85.248V93H236.292V85.56C236.292 84.248 235.964 83.248 235.308 82.56C234.652 81.856 233.756 81.504 232.62 81.504C231.468 81.504 230.548 81.864 229.86 82.584C229.188 83.304 228.852 84.352 228.852 85.728V93H226.668V75.24H228.852V81.72C229.284 81.048 229.876 80.528 230.628 80.16C231.396 79.792 232.252 79.608 233.196 79.608ZM254.02 85.92C254.02 86.336 253.996 86.776 253.948 87.24H243.436C243.516 88.536 243.956 89.552 244.756 90.288C245.572 91.008 246.556 91.368 247.708 91.368C248.652 91.368 249.436 91.152 250.06 90.72C250.7 90.272 251.148 89.68 251.404 88.944H253.756C253.404 90.208 252.7 91.24 251.644 92.04C250.588 92.824 249.276 93.216 247.708 93.216C246.46 93.216 245.34 92.936 244.348 92.376C243.372 91.816 242.604 91.024 242.044 90C241.484 88.96 241.204 87.76 241.204 86.4C241.204 85.04 241.476 83.848 242.02 82.824C242.564 81.8 243.324 81.016 244.3 80.472C245.292 79.912 246.428 79.632 247.708 79.632C248.956 79.632 250.06 79.904 251.02 80.448C251.98 80.992 252.716 81.744 253.228 82.704C253.756 83.648 254.02 84.72 254.02 85.92ZM251.764 85.464C251.764 84.632 251.58 83.92 251.212 83.328C250.844 82.72 250.34 82.264 249.7 81.96C249.076 81.64 248.38 81.48 247.612 81.48C246.508 81.48 245.564 81.832 244.78 82.536C244.012 83.24 243.572 84.216 243.46 85.464H251.764ZM280.821 79.848L276.717 93H274.461L271.293 82.56L268.125 93H265.869L261.741 79.848H263.973L266.997 90.888L270.261 79.848H272.493L275.685 90.912L278.661 79.848H280.821ZM282.173 86.376C282.173 85.032 282.445 83.856 282.989 82.848C283.533 81.824 284.277 81.032 285.221 80.472C286.181 79.912 287.245 79.632 288.413 79.632C289.565 79.632 290.565 79.88 291.413 80.376C292.261 80.872 292.893 81.496 293.309 82.248V79.848H295.517V93H293.309V90.552C292.877 91.32 292.229 91.96 291.365 92.472C290.517 92.968 289.525 93.216 288.389 93.216C287.221 93.216 286.165 92.928 285.221 92.352C284.277 91.776 283.533 90.968 282.989 89.928C282.445 88.888 282.173 87.704 282.173 86.376ZM293.309 86.4C293.309 85.408 293.109 84.544 292.709 83.808C292.309 83.072 291.765 82.512 291.077 82.128C290.405 81.728 289.661 81.528 288.845 81.528C288.029 81.528 287.285 81.72 286.613 82.104C285.941 82.488 285.405 83.048 285.005 83.784C284.605 84.52 284.405 85.384 284.405 86.376C284.405 87.384 284.605 88.264 285.005 89.016C285.405 89.752 285.941 90.32 286.613 90.72C287.285 91.104 288.029 91.296 288.845 91.296C289.661 91.296 290.405 91.104 291.077 90.72C291.765 90.32 292.309 89.752 292.709 89.016C293.109 88.264 293.309 87.392 293.309 86.4ZM301.871 81.648V89.4C301.871 90.04 302.007 90.496 302.279 90.768C302.551 91.024 303.023 91.152 303.695 91.152H305.303V93H303.335C302.119 93 301.207 92.72 300.599 92.16C299.991 91.6 299.687 90.68 299.687 89.4V81.648H297.983V79.848H299.687V76.536H301.871V79.848H305.303V81.648H301.871ZM319.95 85.92C319.95 86.336 319.926 86.776 319.878 87.24H309.366C309.446 88.536 309.886 89.552 310.686 90.288C311.502 91.008 312.486 91.368 313.638 91.368C314.582 91.368 315.366 91.152 315.99 90.72C316.63 90.272 317.078 89.68 317.334 88.944H319.686C319.334 90.208 318.63 91.24 317.574 92.04C316.518 92.824 315.206 93.216 313.638 93.216C312.39 93.216 311.27 92.936 310.278 92.376C309.302 91.816 308.534 91.024 307.974 90C307.414 88.96 307.134 87.76 307.134 86.4C307.134 85.04 307.406 83.848 307.95 82.824C308.494 81.8 309.254 81.016 310.23 80.472C311.222 79.912 312.358 79.632 313.638 79.632C314.886 79.632 315.99 79.904 316.95 80.448C317.91 80.992 318.646 81.744 319.158 82.704C319.686 83.648 319.95 84.72 319.95 85.92ZM317.694 85.464C317.694 84.632 317.51 83.92 317.142 83.328C316.774 82.72 316.27 82.264 315.63 81.96C315.006 81.64 314.31 81.48 313.542 81.48C312.438 81.48 311.494 81.832 310.71 82.536C309.942 83.24 309.502 84.216 309.39 85.464H317.694ZM325.016 81.984C325.4 81.232 325.944 80.648 326.648 80.232C327.368 79.816 328.24 79.608 329.264 79.608V81.864H328.688C326.24 81.864 325.016 83.192 325.016 85.848V93H322.832V79.848H325.016V81.984Z" fill="black"/>
</svg>
