<svg width="207" height="536" viewBox="0 0 207 536" fill="none" xmlns="http://www.w3.org/2000/svg">
<rect width="168" height="75" transform="matrix(-1 0 0 1 185.15 84)" fill="#C87426"/>
<ellipse cx="84" cy="72" rx="84" ry="72" transform="matrix(-1 0 0 1 185.15 8)" fill="#C87426"/>
<circle cx="54" cy="54" r="54" transform="matrix(-1 0 0 1 157.15 44)" fill="#DDBBAD"/>
<ellipse cx="81.6501" cy="95" rx="8.5" ry="11" fill="#D9D9D9"/>
<ellipse cx="86.1501" cy="95" rx="4" ry="6" fill="black"/>
<ellipse cx="127.65" cy="95" rx="8.5" ry="11" fill="#D9D9D9"/>
<ellipse cx="132.15" cy="95" rx="4" ry="6" fill="black"/>
<line y1="-0.5" x2="31" y2="-0.5" transform="matrix(-1 0 0 1 117.15 126)" stroke="black"/>
<line y1="-0.5" x2="11" y2="-0.5" transform="matrix(-1 0 0 1 109.15 113)" stroke="black"/>
<ellipse cx="38.5" cy="12" rx="38.5" ry="12" transform="matrix(-1 0 0 1 141.15 42)" fill="#C87426"/>
<path d="M98.6501 402.5C98.6501 437.131 101.726 468.468 106.693 491.135C109.177 502.472 112.129 511.613 115.39 517.908C117.021 521.055 118.716 523.467 120.449 525.085C122.18 526.701 123.917 527.5 125.65 527.5C127.383 527.5 129.121 526.701 130.851 525.085C132.584 523.467 134.28 521.055 135.91 517.908C139.171 511.613 142.123 502.472 144.607 491.135C149.574 468.468 152.65 437.131 152.65 402.5C152.65 367.869 149.574 336.532 144.607 313.865C142.123 302.528 139.171 293.387 135.91 287.092C134.28 283.945 132.584 281.533 130.851 279.915C129.121 278.299 127.383 277.5 125.65 277.5C123.917 277.5 122.18 278.299 120.449 279.915C118.716 281.533 117.021 283.945 115.39 287.092C112.129 293.387 109.177 302.528 106.693 313.865C101.726 336.532 98.6501 367.869 98.6501 402.5Z" fill="#DDBBAD" stroke="#A67D6B"/>
<path d="M117.323 253.201C126.213 277.625 137.144 298.668 147.618 312.944C152.857 320.085 157.965 325.509 162.627 328.822C167.303 332.146 171.424 333.272 174.758 332.058C178.092 330.845 180.524 327.334 181.971 321.782C183.412 316.248 183.838 308.809 183.262 299.971C182.109 282.302 176.956 259.156 168.067 234.732C159.177 210.308 148.246 189.266 137.772 174.99C132.533 167.849 127.425 162.424 122.764 159.112C118.087 155.788 113.967 154.662 110.632 155.875C107.298 157.089 104.866 160.6 103.42 166.152C101.978 171.686 101.552 179.125 102.129 187.963C103.282 205.632 108.434 228.777 117.323 253.201Z" fill="#DDBBAD" stroke="#DDBBAD"/>
<path d="M43.6501 402.5C43.6501 437.131 46.7264 468.468 51.6931 491.135C54.1774 502.472 57.1289 511.613 60.3899 517.908C62.0207 521.055 63.7163 523.467 65.4492 525.085C67.1796 526.701 68.9171 527.5 70.6501 527.5C72.3832 527.5 74.1207 526.701 75.8511 525.085C77.584 523.467 79.2796 521.055 80.9104 517.908C84.1714 511.613 87.1229 502.472 89.6072 491.135C94.5739 468.468 97.6501 437.131 97.6501 402.5C97.6501 367.869 94.5739 336.532 89.6072 313.865C87.1229 302.528 84.1714 293.387 80.9104 287.092C79.2796 283.945 77.584 281.533 75.8511 279.915C74.1207 278.299 72.3832 277.5 70.6501 277.5C68.9171 277.5 67.1796 278.299 65.4492 279.915C63.7163 281.533 62.0207 283.945 60.3899 287.092C57.1289 293.387 54.1774 302.528 51.6931 313.865C46.7264 336.532 43.6501 367.869 43.6501 402.5Z" fill="#DDBBAD" stroke="#A67D6B"/>
<path d="M38.7034 234.732C29.8138 259.156 24.6616 282.301 23.5087 299.97C22.9321 308.808 23.3582 316.247 24.7998 321.781C26.2461 327.333 28.6784 330.844 32.0125 332.057C35.3467 333.271 39.4669 332.145 44.1437 328.821C48.8052 325.509 53.9129 320.084 59.1521 312.943C69.6265 298.667 80.5572 277.625 89.4468 253.201C98.3363 228.777 103.489 205.632 104.641 187.963C105.218 179.125 104.792 171.686 103.35 166.152C101.904 160.6 99.4717 157.089 96.1376 155.875C92.8034 154.662 88.6832 155.788 84.0065 159.112C79.345 162.424 74.2372 167.848 68.998 174.989C58.5236 189.266 47.5929 210.308 38.7034 234.732Z" fill="#DDBBAD" stroke="#DDBBAD"/>
<path d="M57.4504 276.285C57.4504 344.768 76.9261 400.285 100.95 400.285C124.975 400.285 144.45 344.768 144.45 276.285C144.45 207.801 124.975 152.285 100.95 152.285C76.9261 152.285 57.4504 207.801 57.4504 276.285Z" fill="#DDBBAD"/>
<path d="M102.157 214.703C96.9449 229.023 89.3527 240.915 81.314 248.571C73.2504 256.25 64.8673 259.558 58.007 257.061C51.1467 254.564 46.8511 246.642 45.6103 235.576C44.3733 224.544 46.2015 210.554 51.4136 196.234C56.6256 181.914 64.2178 170.021 72.2565 162.366C80.3202 154.686 88.7032 151.378 95.5635 153.875C102.424 156.372 106.719 164.295 107.96 175.361C109.197 186.393 107.369 200.383 102.157 214.703Z" fill="#3645CD" stroke="#3645CD"/>
<rect x="49.6522" y="199.461" width="46" height="65.7915" transform="rotate(20 49.6522 199.461)" fill="#3645CD"/>
<rect x="109.15" y="215.672" width="47.4679" height="71.3255" transform="rotate(-20 109.15 215.672)" fill="#3645CD"/>
<path d="M162 276C162 344.483 135.361 400 102.5 400C69.6391 400 43 344.483 43 276C43 207.517 69.6391 152 102.5 152C135.361 152 162 207.517 162 276Z" fill="#3645CD"/>
<path d="M153.313 198.695C158.525 213.015 160.353 227.005 159.116 238.037C157.875 249.103 153.579 257.025 146.719 259.522C139.859 262.019 131.476 258.712 123.412 251.032C115.374 243.376 107.781 231.484 102.569 217.164C97.3572 202.844 95.529 188.854 96.766 177.822C98.0068 166.756 102.302 158.834 109.163 156.337C116.023 153.84 124.406 157.147 132.47 164.827C140.508 172.483 148.101 184.375 153.313 198.695Z" fill="#3645CD" stroke="#3645CD"/>
<rect x="42.5" y="306.5" width="119.77" height="191" fill="#F2DDBE" stroke="#B19C7C"/>
<line x1="96.5643" y1="356" x2="96.5643" y2="497" stroke="#B19C7C"/>
<rect x="45.6981" y="182.862" width="31" height="173.512" transform="rotate(-35.8694 45.6981 182.862)" fill="#F2DDBE" stroke="#B19C7C"/>
</svg>
