<svg width="588" height="171" viewBox="0 0 588 171" fill="none" xmlns="http://www.w3.org/2000/svg">
<rect width="588" height="171" fill="#F5E9D7"/>
<path d="M53.6921 41.666V57H51.6901V41.666H53.6921ZM59.5462 46.594V53.7C59.5462 54.2867 59.6708 54.7047 59.9202 54.954C60.1695 55.1887 60.6022 55.306 61.2182 55.306H62.6922V57H60.8882C59.7735 57 58.9375 56.7433 58.3802 56.23C57.8228 55.7167 57.5442 54.8733 57.5442 53.7V46.594H55.9822V44.944H57.5442V41.908H59.5462V44.944H62.6922V46.594H59.5462ZM87.0431 44.944L83.2811 57H81.2131L78.3091 47.43L75.4051 57H73.3371L69.5531 44.944H71.5991L74.3711 55.064L77.3631 44.944H79.4091L82.3351 55.086L85.0631 44.944H87.0431ZM88.2819 50.928C88.2819 49.696 88.5313 48.618 89.0299 47.694C89.5286 46.7553 90.2106 46.0293 91.0759 45.516C91.9559 45.0027 92.9313 44.746 94.0019 44.746C95.0579 44.746 95.9746 44.9733 96.7519 45.428C97.5293 45.8827 98.1086 46.4547 98.4899 47.144V44.944H100.514V57H98.4899V54.756C98.0939 55.46 97.4999 56.0467 96.7079 56.516C95.9306 56.9707 95.0213 57.198 93.9799 57.198C92.9093 57.198 91.9413 56.934 91.0759 56.406C90.2106 55.878 89.5286 55.1373 89.0299 54.184C88.5313 53.2307 88.2819 52.1453 88.2819 50.928ZM98.4899 50.95C98.4899 50.0407 98.3066 49.2487 97.9399 48.574C97.5733 47.8993 97.0746 47.386 96.4439 47.034C95.8279 46.6673 95.1459 46.484 94.3979 46.484C93.6499 46.484 92.9679 46.66 92.3519 47.012C91.7359 47.364 91.2446 47.8773 90.8779 48.552C90.5113 49.2267 90.3279 50.0187 90.3279 50.928C90.3279 51.852 90.5113 52.6587 90.8779 53.348C91.2446 54.0227 91.7359 54.5433 92.3519 54.91C92.9679 55.262 93.6499 55.438 94.3979 55.438C95.1459 55.438 95.8279 55.262 96.4439 54.91C97.0746 54.5433 97.5733 54.0227 97.9399 53.348C98.3066 52.6587 98.4899 51.8593 98.4899 50.95ZM108.165 57.198C107.241 57.198 106.412 57.044 105.679 56.736C104.946 56.4133 104.366 55.9733 103.941 55.416C103.516 54.844 103.281 54.1913 103.237 53.458H105.305C105.364 54.0593 105.642 54.5507 106.141 54.932C106.654 55.3133 107.322 55.504 108.143 55.504C108.906 55.504 109.507 55.3353 109.947 54.998C110.387 54.6607 110.607 54.2353 110.607 53.722C110.607 53.194 110.372 52.8053 109.903 52.556C109.434 52.292 108.708 52.0353 107.725 51.786C106.83 51.5513 106.097 51.3167 105.525 51.082C104.968 50.8327 104.484 50.4733 104.073 50.004C103.677 49.52 103.479 48.8893 103.479 48.112C103.479 47.496 103.662 46.9313 104.029 46.418C104.396 45.9047 104.916 45.5013 105.591 45.208C106.266 44.9 107.036 44.746 107.901 44.746C109.236 44.746 110.314 45.0833 111.135 45.758C111.956 46.4327 112.396 47.3567 112.455 48.53H110.453C110.409 47.8993 110.152 47.3933 109.683 47.012C109.228 46.6307 108.612 46.44 107.835 46.44C107.116 46.44 106.544 46.594 106.119 46.902C105.694 47.21 105.481 47.6133 105.481 48.112C105.481 48.508 105.606 48.838 105.855 49.102C106.119 49.3513 106.442 49.5567 106.823 49.718C107.219 49.8647 107.762 50.0333 108.451 50.224C109.316 50.4587 110.02 50.6933 110.563 50.928C111.106 51.148 111.568 51.4853 111.949 51.94C112.345 52.3947 112.55 52.9887 112.565 53.722C112.565 54.382 112.382 54.976 112.015 55.504C111.648 56.032 111.128 56.45 110.453 56.758C109.793 57.0513 109.03 57.198 108.165 57.198ZM120.509 50.928C120.509 49.696 120.758 48.618 121.257 47.694C121.755 46.7553 122.437 46.0293 123.303 45.516C124.183 45.0027 125.158 44.746 126.229 44.746C127.285 44.746 128.201 44.9733 128.979 45.428C129.756 45.8827 130.335 46.4547 130.717 47.144V44.944H132.741V57H130.717V54.756C130.321 55.46 129.727 56.0467 128.935 56.516C128.157 56.9707 127.248 57.198 126.207 57.198C125.136 57.198 124.168 56.934 123.303 56.406C122.437 55.878 121.755 55.1373 121.257 54.184C120.758 53.2307 120.509 52.1453 120.509 50.928ZM130.717 50.95C130.717 50.0407 130.533 49.2487 130.167 48.574C129.8 47.8993 129.301 47.386 128.671 47.034C128.055 46.6673 127.373 46.484 126.625 46.484C125.877 46.484 125.195 46.66 124.579 47.012C123.963 47.364 123.471 47.8773 123.105 48.552C122.738 49.2267 122.555 50.0187 122.555 50.928C122.555 51.852 122.738 52.6587 123.105 53.348C123.471 54.0227 123.963 54.5433 124.579 54.91C125.195 55.262 125.877 55.438 126.625 55.438C127.373 55.438 128.055 55.262 128.671 54.91C129.301 54.5433 129.8 54.0227 130.167 53.348C130.533 52.6587 130.717 51.8593 130.717 50.95ZM138.126 40.72V57H136.124V40.72H138.126ZM145.806 57.198C144.882 57.198 144.053 57.044 143.32 56.736C142.586 56.4133 142.007 55.9733 141.582 55.416C141.156 54.844 140.922 54.1913 140.878 53.458H142.946C143.004 54.0593 143.283 54.5507 143.782 54.932C144.295 55.3133 144.962 55.504 145.784 55.504C146.546 55.504 147.148 55.3353 147.588 54.998C148.028 54.6607 148.248 54.2353 148.248 53.722C148.248 53.194 148.013 52.8053 147.544 52.556C147.074 52.292 146.348 52.0353 145.366 51.786C144.471 51.5513 143.738 51.3167 143.166 51.082C142.608 50.8327 142.124 50.4733 141.714 50.004C141.318 49.52 141.12 48.8893 141.12 48.112C141.12 47.496 141.303 46.9313 141.67 46.418C142.036 45.9047 142.557 45.5013 143.232 45.208C143.906 44.9 144.676 44.746 145.542 44.746C146.876 44.746 147.954 45.0833 148.776 45.758C149.597 46.4327 150.037 47.3567 150.096 48.53H148.094C148.05 47.8993 147.793 47.3933 147.324 47.012C146.869 46.6307 146.253 46.44 145.476 46.44C144.757 46.44 144.185 46.594 143.76 46.902C143.334 47.21 143.122 47.6133 143.122 48.112C143.122 48.508 143.246 48.838 143.496 49.102C143.76 49.3513 144.082 49.5567 144.464 49.718C144.86 49.8647 145.402 50.0333 146.092 50.224C146.957 50.4587 147.661 50.6933 148.204 50.928C148.746 51.148 149.208 51.4853 149.59 51.94C149.986 52.3947 150.191 52.9887 150.206 53.722C150.206 54.382 150.022 54.976 149.656 55.504C149.289 56.032 148.768 56.45 148.094 56.758C147.434 57.0513 146.671 57.198 145.806 57.198ZM158.29 57.198C157.161 57.198 156.134 56.9413 155.21 56.428C154.301 55.9147 153.582 55.1887 153.054 54.25C152.541 53.2967 152.284 52.1967 152.284 50.95C152.284 49.718 152.548 48.6327 153.076 47.694C153.619 46.7407 154.352 46.0147 155.276 45.516C156.2 45.0027 157.234 44.746 158.378 44.746C159.522 44.746 160.556 45.0027 161.48 45.516C162.404 46.0147 163.13 46.7333 163.658 47.672C164.201 48.6107 164.472 49.7033 164.472 50.95C164.472 52.1967 164.193 53.2967 163.636 54.25C163.093 55.1887 162.353 55.9147 161.414 56.428C160.475 56.9413 159.434 57.198 158.29 57.198ZM158.29 55.438C159.009 55.438 159.683 55.2693 160.314 54.932C160.945 54.5947 161.451 54.0887 161.832 53.414C162.228 52.7393 162.426 51.918 162.426 50.95C162.426 49.982 162.235 49.1607 161.854 48.486C161.473 47.8113 160.974 47.3127 160.358 46.99C159.742 46.6527 159.075 46.484 158.356 46.484C157.623 46.484 156.948 46.6527 156.332 46.99C155.731 47.3127 155.247 47.8113 154.88 48.486C154.513 49.1607 154.33 49.982 154.33 50.95C154.33 51.9327 154.506 52.7613 154.858 53.436C155.225 54.1107 155.709 54.6167 156.31 54.954C156.911 55.2767 157.571 55.438 158.29 55.438ZM178.953 44.724C179.863 44.724 180.684 44.922 181.417 45.318C182.151 45.6993 182.723 46.2787 183.133 47.056C183.559 47.8333 183.771 48.7793 183.771 49.894V57H181.791V50.18C181.791 48.9773 181.491 48.0607 180.889 47.43C180.288 46.7847 179.467 46.462 178.425 46.462C177.369 46.462 176.526 46.792 175.895 47.452C175.279 48.112 174.971 49.0727 174.971 50.334V57H172.969V40.72H174.971V46.66C175.367 46.044 175.91 45.5673 176.599 45.23C177.303 44.8927 178.088 44.724 178.953 44.724ZM192.3 57.198C191.17 57.198 190.144 56.9413 189.22 56.428C188.31 55.9147 187.592 55.1887 187.064 54.25C186.55 53.2967 186.294 52.1967 186.294 50.95C186.294 49.718 186.558 48.6327 187.086 47.694C187.628 46.7407 188.362 46.0147 189.286 45.516C190.21 45.0027 191.244 44.746 192.388 44.746C193.532 44.746 194.566 45.0027 195.49 45.516C196.414 46.0147 197.14 46.7333 197.668 47.672C198.21 48.6107 198.482 49.7033 198.482 50.95C198.482 52.1967 198.203 53.2967 197.646 54.25C197.103 55.1887 196.362 55.9147 195.424 56.428C194.485 56.9413 193.444 57.198 192.3 57.198ZM192.3 55.438C193.018 55.438 193.693 55.2693 194.324 54.932C194.954 54.5947 195.46 54.0887 195.842 53.414C196.238 52.7393 196.436 51.918 196.436 50.95C196.436 49.982 196.245 49.1607 195.864 48.486C195.482 47.8113 194.984 47.3127 194.368 46.99C193.752 46.6527 193.084 46.484 192.366 46.484C191.632 46.484 190.958 46.6527 190.342 46.99C189.74 47.3127 189.256 47.8113 188.89 48.486C188.523 49.1607 188.34 49.982 188.34 50.95C188.34 51.9327 188.516 52.7613 188.868 53.436C189.234 54.1107 189.718 54.6167 190.32 54.954C190.921 55.2767 191.581 55.438 192.3 55.438ZM215.612 44.724C216.551 44.724 217.387 44.922 218.12 45.318C218.853 45.6993 219.433 46.2787 219.858 47.056C220.283 47.8333 220.496 48.7793 220.496 49.894V57H218.516V50.18C218.516 48.9773 218.215 48.0607 217.614 47.43C217.027 46.7847 216.228 46.462 215.216 46.462C214.175 46.462 213.346 46.7993 212.73 47.474C212.114 48.134 211.806 49.0947 211.806 50.356V57H209.826V50.18C209.826 48.9773 209.525 48.0607 208.924 47.43C208.337 46.7847 207.538 46.462 206.526 46.462C205.485 46.462 204.656 46.7993 204.04 47.474C203.424 48.134 203.116 49.0947 203.116 50.356V57H201.114V44.944H203.116V46.682C203.512 46.0513 204.04 45.5673 204.7 45.23C205.375 44.8927 206.115 44.724 206.922 44.724C207.934 44.724 208.829 44.9513 209.606 45.406C210.383 45.8607 210.963 46.528 211.344 47.408C211.681 46.5573 212.239 45.8973 213.016 45.428C213.793 44.9587 214.659 44.724 215.612 44.724ZM234.78 50.51C234.78 50.8913 234.758 51.2947 234.714 51.72H225.078C225.151 52.908 225.555 53.8393 226.288 54.514C227.036 55.174 227.938 55.504 228.994 55.504C229.859 55.504 230.578 55.306 231.15 54.91C231.737 54.4993 232.147 53.9567 232.382 53.282H234.538C234.215 54.4407 233.57 55.3867 232.602 56.12C231.634 56.8387 230.431 57.198 228.994 57.198C227.85 57.198 226.823 56.9413 225.914 56.428C225.019 55.9147 224.315 55.1887 223.802 54.25C223.289 53.2967 223.032 52.1967 223.032 50.95C223.032 49.7033 223.281 48.6107 223.78 47.672C224.279 46.7333 224.975 46.0147 225.87 45.516C226.779 45.0027 227.821 44.746 228.994 44.746C230.138 44.746 231.15 44.9953 232.03 45.494C232.91 45.9927 233.585 46.682 234.054 47.562C234.538 48.4273 234.78 49.41 234.78 50.51ZM232.712 50.092C232.712 49.3293 232.543 48.6767 232.206 48.134C231.869 47.5767 231.407 47.1587 230.82 46.88C230.248 46.5867 229.61 46.44 228.906 46.44C227.894 46.44 227.029 46.7627 226.31 47.408C225.606 48.0533 225.203 48.948 225.1 50.092H232.712ZM245.73 46.594V53.7C245.73 54.2867 245.854 54.7047 246.104 54.954C246.353 55.1887 246.786 55.306 247.402 55.306H248.876V57H247.072C245.957 57 245.121 56.7433 244.564 56.23C244.006 55.7167 243.728 54.8733 243.728 53.7V46.594H242.166V44.944H243.728V41.908H245.73V44.944H248.876V46.594H245.73ZM256.559 57.198C255.43 57.198 254.403 56.9413 253.479 56.428C252.57 55.9147 251.851 55.1887 251.323 54.25C250.81 53.2967 250.553 52.1967 250.553 50.95C250.553 49.718 250.817 48.6327 251.345 47.694C251.888 46.7407 252.621 46.0147 253.545 45.516C254.469 45.0027 255.503 44.746 256.647 44.746C257.791 44.746 258.825 45.0027 259.749 45.516C260.673 46.0147 261.399 46.7333 261.927 47.672C262.47 48.6107 262.741 49.7033 262.741 50.95C262.741 52.1967 262.463 53.2967 261.905 54.25C261.363 55.1887 260.622 55.9147 259.683 56.428C258.745 56.9413 257.703 57.198 256.559 57.198ZM256.559 55.438C257.278 55.438 257.953 55.2693 258.583 54.932C259.214 54.5947 259.72 54.0887 260.101 53.414C260.497 52.7393 260.695 51.918 260.695 50.95C260.695 49.982 260.505 49.1607 260.123 48.486C259.742 47.8113 259.243 47.3127 258.627 46.99C258.011 46.6527 257.344 46.484 256.625 46.484C255.892 46.484 255.217 46.6527 254.601 46.99C254 47.3127 253.516 47.8113 253.149 48.486C252.783 49.1607 252.599 49.982 252.599 50.95C252.599 51.9327 252.775 52.7613 253.127 53.436C253.494 54.1107 253.978 54.6167 254.579 54.954C255.181 55.2767 255.841 55.438 256.559 55.438ZM273.681 46.594V53.7C273.681 54.2867 273.806 54.7047 274.055 54.954C274.304 55.1887 274.737 55.306 275.353 55.306H276.827V57H275.023C273.908 57 273.072 56.7433 272.515 56.23C271.958 55.7167 271.679 54.8733 271.679 53.7V46.594H270.117V44.944H271.679V41.908H273.681V44.944H276.827V46.594H273.681ZM285.237 44.724C286.146 44.724 286.967 44.922 287.701 45.318C288.434 45.6993 289.006 46.2787 289.417 47.056C289.842 47.8333 290.055 48.7793 290.055 49.894V57H288.075V50.18C288.075 48.9773 287.774 48.0607 287.173 47.43C286.571 46.7847 285.75 46.462 284.709 46.462C283.653 46.462 282.809 46.792 282.179 47.452C281.563 48.112 281.255 49.0727 281.255 50.334V57H279.253V40.72H281.255V46.66C281.651 46.044 282.193 45.5673 282.883 45.23C283.587 44.8927 284.371 44.724 285.237 44.724ZM304.325 50.51C304.325 50.8913 304.303 51.2947 304.259 51.72H294.623C294.696 52.908 295.1 53.8393 295.833 54.514C296.581 55.174 297.483 55.504 298.539 55.504C299.404 55.504 300.123 55.306 300.695 54.91C301.282 54.4993 301.692 53.9567 301.927 53.282H304.083C303.76 54.4407 303.115 55.3867 302.147 56.12C301.179 56.8387 299.976 57.198 298.539 57.198C297.395 57.198 296.368 56.9413 295.459 56.428C294.564 55.9147 293.86 55.1887 293.347 54.25C292.834 53.2967 292.577 52.1967 292.577 50.95C292.577 49.7033 292.826 48.6107 293.325 47.672C293.824 46.7333 294.52 46.0147 295.415 45.516C296.324 45.0027 297.366 44.746 298.539 44.746C299.683 44.746 300.695 44.9953 301.575 45.494C302.455 45.9927 303.13 46.682 303.599 47.562C304.083 48.4273 304.325 49.41 304.325 50.51ZM302.257 50.092C302.257 49.3293 302.088 48.6767 301.751 48.134C301.414 47.5767 300.952 47.1587 300.365 46.88C299.793 46.5867 299.155 46.44 298.451 46.44C297.439 46.44 296.574 46.7627 295.855 47.408C295.151 48.0533 294.748 48.948 294.645 50.092H302.257ZM323.855 46.396C323.855 47.2173 323.657 47.9873 323.261 48.706C322.879 49.4247 322.271 50.004 321.435 50.444C320.613 50.884 319.572 51.104 318.311 51.104H315.737V57H312.657V41.644H318.311C319.499 41.644 320.511 41.8493 321.347 42.26C322.183 42.6707 322.806 43.2353 323.217 43.954C323.642 44.6727 323.855 45.4867 323.855 46.396ZM318.179 48.618C319.029 48.618 319.66 48.4273 320.071 48.046C320.481 47.65 320.687 47.1 320.687 46.396C320.687 44.9 319.851 44.152 318.179 44.152H315.737V48.618H318.179ZM331.453 57.198C330.28 57.198 329.224 56.9413 328.285 56.428C327.347 55.9 326.606 55.1593 326.063 54.206C325.535 53.2527 325.271 52.1527 325.271 50.906C325.271 49.6593 325.543 48.5593 326.085 47.606C326.643 46.6527 327.398 45.9193 328.351 45.406C329.305 44.878 330.368 44.614 331.541 44.614C332.715 44.614 333.778 44.878 334.731 45.406C335.685 45.9193 336.433 46.6527 336.975 47.606C337.533 48.5593 337.811 49.6593 337.811 50.906C337.811 52.1527 337.525 53.2527 336.953 54.206C336.396 55.1593 335.633 55.9 334.665 56.428C333.712 56.9413 332.641 57.198 331.453 57.198ZM331.453 54.514C332.011 54.514 332.531 54.382 333.015 54.118C333.514 53.8393 333.91 53.4287 334.203 52.886C334.497 52.3433 334.643 51.6833 334.643 50.906C334.643 49.7473 334.335 48.86 333.719 48.244C333.118 47.6133 332.377 47.298 331.497 47.298C330.617 47.298 329.877 47.6133 329.275 48.244C328.689 48.86 328.395 49.7473 328.395 50.906C328.395 52.0647 328.681 52.9593 329.253 53.59C329.84 54.206 330.573 54.514 331.453 54.514ZM343.657 47.342V53.238C343.657 53.6487 343.752 53.9493 343.943 54.14C344.148 54.316 344.485 54.404 344.955 54.404H346.385V57H344.449C341.853 57 340.555 55.7387 340.555 53.216V47.342H339.103V44.812H340.555V41.798H343.657V44.812H346.385V47.342H343.657ZM350.162 43.36C349.619 43.36 349.165 43.1913 348.798 42.854C348.446 42.502 348.27 42.0693 348.27 41.556C348.27 41.0427 348.446 40.6173 348.798 40.28C349.165 39.928 349.619 39.752 350.162 39.752C350.705 39.752 351.152 39.928 351.504 40.28C351.871 40.6173 352.054 41.0427 352.054 41.556C352.054 42.0693 351.871 42.502 351.504 42.854C351.152 43.1913 350.705 43.36 350.162 43.36ZM351.68 44.812V57H348.6V44.812H351.68ZM359.497 44.614C360.406 44.614 361.206 44.7973 361.895 45.164C362.584 45.516 363.127 45.978 363.523 46.55V44.812H366.625V57.088C366.625 58.2173 366.398 59.222 365.943 60.102C365.488 60.9967 364.806 61.7007 363.897 62.214C362.988 62.742 361.888 63.006 360.597 63.006C358.866 63.006 357.444 62.6027 356.329 61.796C355.229 60.9893 354.606 59.8893 354.459 58.496H357.517C357.678 59.0533 358.023 59.4933 358.551 59.816C359.094 60.1533 359.746 60.322 360.509 60.322C361.404 60.322 362.13 60.0507 362.687 59.508C363.244 58.98 363.523 58.1733 363.523 57.088V55.196C363.127 55.768 362.577 56.2447 361.873 56.626C361.184 57.0073 360.392 57.198 359.497 57.198C358.47 57.198 357.532 56.934 356.681 56.406C355.83 55.878 355.156 55.1373 354.657 54.184C354.173 53.216 353.931 52.1087 353.931 50.862C353.931 49.63 354.173 48.5373 354.657 47.584C355.156 46.6307 355.823 45.8973 356.659 45.384C357.51 44.8707 358.456 44.614 359.497 44.614ZM363.523 50.906C363.523 50.158 363.376 49.52 363.083 48.992C362.79 48.4493 362.394 48.0387 361.895 47.76C361.396 47.4667 360.861 47.32 360.289 47.32C359.717 47.32 359.189 47.4593 358.705 47.738C358.221 48.0167 357.825 48.4273 357.517 48.97C357.224 49.498 357.077 50.1287 357.077 50.862C357.077 51.5953 357.224 52.2407 357.517 52.798C357.825 53.3407 358.221 53.7587 358.705 54.052C359.204 54.3453 359.732 54.492 360.289 54.492C360.861 54.492 361.396 54.3527 361.895 54.074C362.394 53.7807 362.79 53.37 363.083 52.842C363.376 52.2993 363.523 51.654 363.523 50.906ZM381.139 44.812V57H378.037V55.46C377.641 55.988 377.121 56.406 376.475 56.714C375.845 57.0073 375.155 57.154 374.407 57.154C373.454 57.154 372.611 56.956 371.877 56.56C371.144 56.1493 370.565 55.5553 370.139 54.778C369.729 53.986 369.523 53.0473 369.523 51.962V44.812H372.603V51.522C372.603 52.49 372.845 53.238 373.329 53.766C373.813 54.2793 374.473 54.536 375.309 54.536C376.16 54.536 376.827 54.2793 377.311 53.766C377.795 53.238 378.037 52.49 378.037 51.522V44.812H381.139ZM383.386 50.862C383.386 49.63 383.628 48.5373 384.112 47.584C384.611 46.6307 385.278 45.8973 386.114 45.384C386.965 44.8707 387.911 44.614 388.952 44.614C389.861 44.614 390.653 44.7973 391.328 45.164C392.017 45.5307 392.567 45.9927 392.978 46.55V44.812H396.08V57H392.978V55.218C392.582 55.79 392.032 56.2667 391.328 56.648C390.639 57.0147 389.839 57.198 388.93 57.198C387.903 57.198 386.965 56.934 386.114 56.406C385.278 55.878 384.611 55.1373 384.112 54.184C383.628 53.216 383.386 52.1087 383.386 50.862ZM392.978 50.906C392.978 50.158 392.831 49.52 392.538 48.992C392.245 48.4493 391.849 48.0387 391.35 47.76C390.851 47.4667 390.316 47.32 389.744 47.32C389.172 47.32 388.644 47.4593 388.16 47.738C387.676 48.0167 387.28 48.4273 386.972 48.97C386.679 49.498 386.532 50.1287 386.532 50.862C386.532 51.5953 386.679 52.2407 386.972 52.798C387.28 53.3407 387.676 53.7587 388.16 54.052C388.659 54.3453 389.187 54.492 389.744 54.492C390.316 54.492 390.851 54.3527 391.35 54.074C391.849 53.7807 392.245 53.37 392.538 52.842C392.831 52.2993 392.978 51.654 392.978 50.906ZM402.168 46.704C402.564 46.0587 403.078 45.5527 403.708 45.186C404.354 44.8193 405.087 44.636 405.908 44.636V47.87H405.094C404.126 47.87 403.393 48.0973 402.894 48.552C402.41 49.0067 402.168 49.7987 402.168 50.928V57H399.088V44.812H402.168V46.704ZM416.305 41.644V57H413.225V41.644H416.305ZM426.102 44.636C427.554 44.636 428.727 45.098 429.622 46.022C430.517 46.9313 430.964 48.2073 430.964 49.85V57H427.884V50.268C427.884 49.3 427.642 48.5593 427.158 48.046C426.674 47.518 426.014 47.254 425.178 47.254C424.327 47.254 423.653 47.518 423.154 48.046C422.67 48.5593 422.428 49.3 422.428 50.268V57H419.348V44.812H422.428V46.33C422.839 45.802 423.359 45.3913 423.99 45.098C424.635 44.79 425.339 44.636 426.102 44.636ZM433.101 50.862C433.101 49.63 433.343 48.5373 433.827 47.584C434.326 46.6307 435 45.8973 435.851 45.384C436.702 44.8707 437.648 44.614 438.689 44.614C439.481 44.614 440.236 44.79 440.955 45.142C441.674 45.4793 442.246 45.934 442.671 46.506V40.72H445.795V57H442.671V55.196C442.29 55.7973 441.754 56.2813 441.065 56.648C440.376 57.0147 439.576 57.198 438.667 57.198C437.64 57.198 436.702 56.934 435.851 56.406C435 55.878 434.326 55.1373 433.827 54.184C433.343 53.216 433.101 52.1087 433.101 50.862ZM442.693 50.906C442.693 50.158 442.546 49.52 442.253 48.992C441.96 48.4493 441.564 48.0387 441.065 47.76C440.566 47.4667 440.031 47.32 439.459 47.32C438.887 47.32 438.359 47.4593 437.875 47.738C437.391 48.0167 436.995 48.4273 436.687 48.97C436.394 49.498 436.247 50.1287 436.247 50.862C436.247 51.5953 436.394 52.2407 436.687 52.798C436.995 53.3407 437.391 53.7587 437.875 54.052C438.374 54.3453 438.902 54.492 439.459 54.492C440.031 54.492 440.566 54.3527 441.065 54.074C441.564 53.7807 441.96 53.37 442.253 52.842C442.546 52.2993 442.693 51.654 442.693 50.906ZM450.365 43.36C449.822 43.36 449.368 43.1913 449.001 42.854C448.649 42.502 448.473 42.0693 448.473 41.556C448.473 41.0427 448.649 40.6173 449.001 40.28C449.368 39.928 449.822 39.752 450.365 39.752C450.908 39.752 451.355 39.928 451.707 40.28C452.074 40.6173 452.257 41.0427 452.257 41.556C452.257 42.0693 452.074 42.502 451.707 42.854C451.355 43.1913 450.908 43.36 450.365 43.36ZM451.883 44.812V57H448.803V44.812H451.883ZM459.7 44.614C460.61 44.614 461.409 44.7973 462.098 45.164C462.788 45.516 463.33 45.978 463.726 46.55V44.812H466.828V57.088C466.828 58.2173 466.601 59.222 466.146 60.102C465.692 60.9967 465.01 61.7007 464.1 62.214C463.191 62.742 462.091 63.006 460.8 63.006C459.07 63.006 457.647 62.6027 456.532 61.796C455.432 60.9893 454.809 59.8893 454.662 58.496H457.72C457.882 59.0533 458.226 59.4933 458.754 59.816C459.297 60.1533 459.95 60.322 460.712 60.322C461.607 60.322 462.333 60.0507 462.89 59.508C463.448 58.98 463.726 58.1733 463.726 57.088V55.196C463.33 55.768 462.78 56.2447 462.076 56.626C461.387 57.0073 460.595 57.198 459.7 57.198C458.674 57.198 457.735 56.934 456.884 56.406C456.034 55.878 455.359 55.1373 454.86 54.184C454.376 53.216 454.134 52.1087 454.134 50.862C454.134 49.63 454.376 48.5373 454.86 47.584C455.359 46.6307 456.026 45.8973 456.862 45.384C457.713 44.8707 458.659 44.614 459.7 44.614ZM463.726 50.906C463.726 50.158 463.58 49.52 463.286 48.992C462.993 48.4493 462.597 48.0387 462.098 47.76C461.6 47.4667 461.064 47.32 460.492 47.32C459.92 47.32 459.392 47.4593 458.908 47.738C458.424 48.0167 458.028 48.4273 457.72 48.97C457.427 49.498 457.28 50.1287 457.28 50.862C457.28 51.5953 457.427 52.2407 457.72 52.798C458.028 53.3407 458.424 53.7587 458.908 54.052C459.407 54.3453 459.935 54.492 460.492 54.492C461.064 54.492 461.6 54.3527 462.098 54.074C462.597 53.7807 462.993 53.37 463.286 52.842C463.58 52.2993 463.726 51.654 463.726 50.906ZM481.166 50.642C481.166 51.082 481.137 51.478 481.078 51.83H472.168C472.242 52.71 472.55 53.3993 473.092 53.898C473.635 54.3967 474.302 54.646 475.094 54.646C476.238 54.646 477.052 54.1547 477.536 53.172H480.858C480.506 54.3453 479.832 55.3133 478.834 56.076C477.837 56.824 476.612 57.198 475.16 57.198C473.987 57.198 472.931 56.9413 471.992 56.428C471.068 55.9 470.342 55.1593 469.814 54.206C469.301 53.2527 469.044 52.1527 469.044 50.906C469.044 49.6447 469.301 48.5373 469.814 47.584C470.328 46.6307 471.046 45.8973 471.97 45.384C472.894 44.8707 473.958 44.614 475.16 44.614C476.319 44.614 477.353 44.8633 478.262 45.362C479.186 45.8607 479.898 46.572 480.396 47.496C480.91 48.4053 481.166 49.454 481.166 50.642ZM477.976 49.762C477.962 48.97 477.676 48.3393 477.118 47.87C476.561 47.386 475.879 47.144 475.072 47.144C474.31 47.144 473.664 47.3787 473.136 47.848C472.623 48.3027 472.308 48.9407 472.19 49.762H477.976ZM490.168 44.636C491.62 44.636 492.794 45.098 493.688 46.022C494.583 46.9313 495.03 48.2073 495.03 49.85V57H491.95V50.268C491.95 49.3 491.708 48.5593 491.224 48.046C490.74 47.518 490.08 47.254 489.244 47.254C488.394 47.254 487.719 47.518 487.22 48.046C486.736 48.5593 486.494 49.3 486.494 50.268V57H483.414V44.812H486.494V46.33C486.905 45.802 487.426 45.3913 488.056 45.098C488.702 44.79 489.406 44.636 490.168 44.636ZM503.371 57.198C502.198 57.198 501.142 56.9413 500.203 56.428C499.265 55.9 498.524 55.1593 497.981 54.206C497.453 53.2527 497.189 52.1527 497.189 50.906C497.189 49.6593 497.461 48.5593 498.003 47.606C498.561 46.6527 499.316 45.9193 500.269 45.406C501.223 44.878 502.286 44.614 503.459 44.614C504.633 44.614 505.696 44.878 506.649 45.406C507.603 45.9193 508.351 46.6527 508.893 47.606C509.451 48.5593 509.729 49.6593 509.729 50.906C509.729 52.1527 509.443 53.2527 508.871 54.206C508.314 55.1593 507.551 55.9 506.583 56.428C505.63 56.9413 504.559 57.198 503.371 57.198ZM503.371 54.514C503.929 54.514 504.449 54.382 504.933 54.118C505.432 53.8393 505.828 53.4287 506.121 52.886C506.415 52.3433 506.561 51.6833 506.561 50.906C506.561 49.7473 506.253 48.86 505.637 48.244C505.036 47.6133 504.295 47.298 503.415 47.298C502.535 47.298 501.795 47.6133 501.193 48.244C500.607 48.86 500.313 49.7473 500.313 50.906C500.313 52.0647 500.599 52.9593 501.171 53.59C501.758 54.206 502.491 54.514 503.371 54.514ZM523.495 44.812V57H520.393V55.46C519.997 55.988 519.476 56.406 518.831 56.714C518.2 57.0073 517.511 57.154 516.763 57.154C515.809 57.154 514.966 56.956 514.233 56.56C513.499 56.1493 512.92 55.5553 512.495 54.778C512.084 53.986 511.879 53.0473 511.879 51.962V44.812H514.959V51.522C514.959 52.49 515.201 53.238 515.685 53.766C516.169 54.2793 516.829 54.536 517.665 54.536C518.515 54.536 519.183 54.2793 519.667 53.766C520.151 53.238 520.393 52.49 520.393 51.522V44.812H523.495ZM531.198 57.198C530.2 57.198 529.306 57.022 528.514 56.67C527.722 56.3033 527.091 55.812 526.622 55.196C526.167 54.58 525.918 53.898 525.874 53.15H528.976C529.034 53.6193 529.262 54.008 529.658 54.316C530.068 54.624 530.574 54.778 531.176 54.778C531.762 54.778 532.217 54.6607 532.54 54.426C532.877 54.1913 533.046 53.8907 533.046 53.524C533.046 53.128 532.84 52.8347 532.43 52.644C532.034 52.4387 531.396 52.2187 530.516 51.984C529.606 51.764 528.858 51.5367 528.272 51.302C527.7 51.0673 527.201 50.708 526.776 50.224C526.365 49.74 526.16 49.0873 526.16 48.266C526.16 47.5913 526.35 46.9753 526.732 46.418C527.128 45.8607 527.685 45.4207 528.404 45.098C529.137 44.7753 529.995 44.614 530.978 44.614C532.43 44.614 533.588 44.9807 534.454 45.714C535.319 46.4327 535.796 47.408 535.884 48.64H532.936C532.892 48.156 532.686 47.7747 532.32 47.496C531.968 47.2027 531.491 47.056 530.89 47.056C530.332 47.056 529.9 47.1587 529.592 47.364C529.298 47.5693 529.152 47.8553 529.152 48.222C529.152 48.6327 529.357 48.948 529.768 49.168C530.178 49.3733 530.816 49.586 531.682 49.806C532.562 50.026 533.288 50.2533 533.86 50.488C534.432 50.7227 534.923 51.0893 535.334 51.588C535.759 52.072 535.979 52.7173 535.994 53.524C535.994 54.228 535.796 54.8587 535.4 55.416C535.018 55.9733 534.461 56.4133 533.728 56.736C533.009 57.044 532.166 57.198 531.198 57.198ZM49.772 80.342V86.238C49.772 86.6487 49.8673 86.9493 50.058 87.14C50.2633 87.316 50.6006 87.404 51.07 87.404H52.5V90H50.564C47.968 90 46.67 88.7387 46.67 86.216V80.342H45.218V77.812H46.67V74.798H49.772V77.812H52.5V80.342H49.772ZM57.7953 79.704C58.1913 79.0587 58.7046 78.5527 59.3353 78.186C59.9806 77.8193 60.7139 77.636 61.5353 77.636V80.87H60.7213C59.7533 80.87 59.0199 81.0973 58.5213 81.552C58.0373 82.0067 57.7953 82.7987 57.7953 83.928V90H54.7153V77.812H57.7953V79.704ZM65.1718 76.36C64.6291 76.36 64.1745 76.1913 63.8078 75.854C63.4558 75.502 63.2798 75.0693 63.2798 74.556C63.2798 74.0427 63.4558 73.6173 63.8078 73.28C64.1745 72.928 64.6291 72.752 65.1718 72.752C65.7145 72.752 66.1618 72.928 66.5138 73.28C66.8805 73.6173 67.0638 74.0427 67.0638 74.556C67.0638 75.0693 66.8805 75.502 66.5138 75.854C66.1618 76.1913 65.7145 76.36 65.1718 76.36ZM66.6898 77.812V90H63.6098V77.812H66.6898ZM72.8128 79.594C73.2088 79.0073 73.7515 78.5307 74.4408 78.164C75.1448 77.7973 75.9442 77.614 76.8388 77.614C77.8802 77.614 78.8188 77.8707 79.6548 78.384C80.5055 78.8973 81.1728 79.6307 81.6568 80.584C82.1555 81.5227 82.4048 82.6153 82.4048 83.862C82.4048 85.1087 82.1555 86.216 81.6568 87.184C81.1728 88.1373 80.5055 88.878 79.6548 89.406C78.8188 89.934 77.8802 90.198 76.8388 90.198C75.9295 90.198 75.1302 90.022 74.4408 89.67C73.7662 89.3033 73.2235 88.834 72.8128 88.262V90H69.7328V73.72H72.8128V79.594ZM79.2588 83.862C79.2588 83.1287 79.1048 82.498 78.7968 81.97C78.5035 81.4273 78.1075 81.0167 77.6088 80.738C77.1248 80.4593 76.5968 80.32 76.0248 80.32C75.4675 80.32 74.9395 80.4667 74.4408 80.76C73.9568 81.0387 73.5608 81.4493 73.2528 81.992C72.9595 82.5347 72.8128 83.1727 72.8128 83.906C72.8128 84.6393 72.9595 85.2773 73.2528 85.82C73.5608 86.3627 73.9568 86.7807 74.4408 87.074C74.9395 87.3527 75.4675 87.492 76.0248 87.492C76.5968 87.492 77.1248 87.3453 77.6088 87.052C78.1075 86.7587 78.5035 86.3407 78.7968 85.798C79.1048 85.2553 79.2588 84.61 79.2588 83.862ZM95.973 83.642C95.973 84.082 95.9437 84.478 95.885 84.83H86.975C87.0483 85.71 87.3563 86.3993 87.899 86.898C88.4417 87.3967 89.109 87.646 89.901 87.646C91.045 87.646 91.859 87.1547 92.343 86.172H95.665C95.313 87.3453 94.6383 88.3133 93.641 89.076C92.6437 89.824 91.419 90.198 89.967 90.198C88.7937 90.198 87.7377 89.9413 86.799 89.428C85.875 88.9 85.149 88.1593 84.621 87.206C84.1077 86.2527 83.851 85.1527 83.851 83.906C83.851 82.6447 84.1077 81.5373 84.621 80.584C85.1343 79.6307 85.853 78.8973 86.777 78.384C87.701 77.8707 88.7643 77.614 89.967 77.614C91.1257 77.614 92.1597 77.8633 93.069 78.362C93.993 78.8607 94.7043 79.572 95.203 80.496C95.7163 81.4053 95.973 82.454 95.973 83.642ZM92.783 82.762C92.7683 81.97 92.4823 81.3393 91.925 80.87C91.3677 80.386 90.6857 80.144 89.879 80.144C89.1163 80.144 88.471 80.3787 87.943 80.848C87.4297 81.3027 87.1143 81.9407 86.997 82.762H92.783ZM102.885 90.198C101.888 90.198 100.993 90.022 100.201 89.67C99.4091 89.3033 98.7785 88.812 98.3091 88.196C97.8545 87.58 97.6051 86.898 97.5611 86.15H100.663C100.722 86.6193 100.949 87.008 101.345 87.316C101.756 87.624 102.262 87.778 102.863 87.778C103.45 87.778 103.904 87.6607 104.227 87.426C104.564 87.1913 104.733 86.8907 104.733 86.524C104.733 86.128 104.528 85.8347 104.117 85.644C103.721 85.4387 103.083 85.2187 102.203 84.984C101.294 84.764 100.546 84.5367 99.9591 84.302C99.3871 84.0673 98.8885 83.708 98.4631 83.224C98.0525 82.74 97.8471 82.0873 97.8471 81.266C97.8471 80.5913 98.0378 79.9753 98.4191 79.418C98.8151 78.8607 99.3725 78.4207 100.091 78.098C100.824 77.7753 101.682 77.614 102.665 77.614C104.117 77.614 105.276 77.9807 106.141 78.714C107.006 79.4327 107.483 80.408 107.571 81.64H104.623C104.579 81.156 104.374 80.7747 104.007 80.496C103.655 80.2027 103.178 80.056 102.577 80.056C102.02 80.056 101.587 80.1587 101.279 80.364C100.986 80.5693 100.839 80.8553 100.839 81.222C100.839 81.6327 101.044 81.948 101.455 82.168C101.866 82.3733 102.504 82.586 103.369 82.806C104.249 83.026 104.975 83.2533 105.547 83.488C106.119 83.7227 106.61 84.0893 107.021 84.588C107.446 85.072 107.666 85.7173 107.681 86.524C107.681 87.228 107.483 87.8587 107.087 88.416C106.706 88.9733 106.148 89.4133 105.415 89.736C104.696 90.044 103.853 90.198 102.885 90.198ZM111.023 90.132C110.642 90.132 110.319 90 110.055 89.736C109.791 89.472 109.659 89.1493 109.659 88.768C109.659 88.3867 109.791 88.064 110.055 87.8C110.319 87.536 110.642 87.404 111.023 87.404C111.39 87.404 111.698 87.536 111.947 87.8C112.211 88.064 112.343 88.3867 112.343 88.768C112.343 89.1493 112.211 89.472 111.947 89.736C111.698 90 111.39 90.132 111.023 90.132ZM128.548 82.102C129.105 82.19 129.611 82.4173 130.066 82.784C130.535 83.1507 130.902 83.6053 131.166 84.148C131.444 84.6907 131.584 85.27 131.584 85.886C131.584 86.6633 131.386 87.3673 130.99 87.998C130.594 88.614 130.014 89.1053 129.252 89.472C128.504 89.824 127.616 90 126.59 90H120.87V74.666H126.37C127.411 74.666 128.298 74.842 129.032 75.194C129.765 75.5313 130.315 75.9933 130.682 76.58C131.048 77.1667 131.232 77.8267 131.232 78.56C131.232 79.4693 130.982 80.2247 130.484 80.826C130 81.4127 129.354 81.838 128.548 82.102ZM122.872 81.288H126.238C127.176 81.288 127.902 81.068 128.416 80.628C128.929 80.188 129.186 79.5793 129.186 78.802C129.186 78.0247 128.929 77.416 128.416 76.976C127.902 76.536 127.162 76.316 126.194 76.316H122.872V81.288ZM126.414 88.35C127.411 88.35 128.188 88.1153 128.746 87.646C129.303 87.1767 129.582 86.524 129.582 85.688C129.582 84.8373 129.288 84.17 128.702 83.686C128.115 83.1873 127.33 82.938 126.348 82.938H122.872V88.35H126.414ZM144.746 77.944L137.486 95.676H135.418L137.794 89.868L132.932 77.944H135.154L138.938 87.712L142.678 77.944H144.746ZM155.066 79.594V86.7C155.066 87.2867 155.19 87.7047 155.44 87.954C155.689 88.1887 156.122 88.306 156.738 88.306H158.212V90H156.408C155.293 90 154.457 89.7433 153.9 89.23C153.342 88.7167 153.064 87.8733 153.064 86.7V79.594H151.502V77.944H153.064V74.908H155.066V77.944H158.212V79.594H155.066ZM166.621 77.724C167.531 77.724 168.352 77.922 169.085 78.318C169.819 78.6993 170.391 79.2787 170.801 80.056C171.227 80.8333 171.439 81.7793 171.439 82.894V90H169.459V83.18C169.459 81.9773 169.159 81.0607 168.557 80.43C167.956 79.7847 167.135 79.462 166.093 79.462C165.037 79.462 164.194 79.792 163.563 80.452C162.947 81.112 162.639 82.0727 162.639 83.334V90H160.637V73.72H162.639V79.66C163.035 79.044 163.578 78.5673 164.267 78.23C164.971 77.8927 165.756 77.724 166.621 77.724ZM185.71 83.51C185.71 83.8913 185.688 84.2947 185.644 84.72H176.008C176.081 85.908 176.484 86.8393 177.218 87.514C177.966 88.174 178.868 88.504 179.924 88.504C180.789 88.504 181.508 88.306 182.08 87.91C182.666 87.4993 183.077 86.9567 183.312 86.282H185.468C185.145 87.4407 184.5 88.3867 183.532 89.12C182.564 89.8387 181.361 90.198 179.924 90.198C178.78 90.198 177.753 89.9413 176.844 89.428C175.949 88.9147 175.245 88.1887 174.732 87.25C174.218 86.2967 173.962 85.1967 173.962 83.95C173.962 82.7033 174.211 81.6107 174.71 80.672C175.208 79.7333 175.905 79.0147 176.8 78.516C177.709 78.0027 178.75 77.746 179.924 77.746C181.068 77.746 182.08 77.9953 182.96 78.494C183.84 78.9927 184.514 79.682 184.984 80.562C185.468 81.4273 185.71 82.41 185.71 83.51ZM183.642 83.092C183.642 82.3293 183.473 81.6767 183.136 81.134C182.798 80.5767 182.336 80.1587 181.75 79.88C181.178 79.5867 180.54 79.44 179.836 79.44C178.824 79.44 177.958 79.7627 177.24 80.408C176.536 81.0533 176.132 81.948 176.03 83.092H183.642ZM210.277 77.944L206.515 90H204.447L201.543 80.43L198.639 90H196.571L192.787 77.944H194.833L197.605 88.064L200.597 77.944H202.643L205.569 88.086L208.297 77.944H210.277ZM211.516 83.928C211.516 82.696 211.766 81.618 212.264 80.694C212.763 79.7553 213.445 79.0293 214.31 78.516C215.19 78.0027 216.166 77.746 217.236 77.746C218.292 77.746 219.209 77.9733 219.986 78.428C220.764 78.8827 221.343 79.4547 221.724 80.144V77.944H223.748V90H221.724V87.756C221.328 88.46 220.734 89.0467 219.942 89.516C219.165 89.9707 218.256 90.198 217.214 90.198C216.144 90.198 215.176 89.934 214.31 89.406C213.445 88.878 212.763 88.1373 212.264 87.184C211.766 86.2307 211.516 85.1453 211.516 83.928ZM221.724 83.95C221.724 83.0407 221.541 82.2487 221.174 81.574C220.808 80.8993 220.309 80.386 219.678 80.034C219.062 79.6673 218.38 79.484 217.632 79.484C216.884 79.484 216.202 79.66 215.586 80.012C214.97 80.364 214.479 80.8773 214.112 81.552C213.746 82.2267 213.562 83.0187 213.562 83.928C213.562 84.852 213.746 85.6587 214.112 86.348C214.479 87.0227 214.97 87.5433 215.586 87.91C216.202 88.262 216.884 88.438 217.632 88.438C218.38 88.438 219.062 88.262 219.678 87.91C220.309 87.5433 220.808 87.0227 221.174 86.348C221.541 85.6587 221.724 84.8593 221.724 83.95ZM237.516 77.944L230.256 95.676H228.188L230.564 89.868L225.702 77.944H227.924L231.708 87.712L235.448 77.944H237.516ZM241.596 87.228L239.132 93.146H237.79L239.396 87.228H241.596ZM250.063 74.666H252.285L250.173 79.66H248.765L250.063 74.666ZM253.627 74.666H255.849L253.737 79.66H252.307L253.627 74.666ZM268.364 79.154C268.364 80.43 267.924 81.4933 267.044 82.344C266.179 83.18 264.851 83.598 263.062 83.598H260.114V90H258.112V74.666H263.062C264.793 74.666 266.105 75.084 267 75.92C267.909 76.756 268.364 77.834 268.364 79.154ZM263.062 81.948C264.177 81.948 264.998 81.706 265.526 81.222C266.054 80.738 266.318 80.0487 266.318 79.154C266.318 77.262 265.233 76.316 263.062 76.316H260.114V81.948H263.062ZM276.11 90.198C274.981 90.198 273.954 89.9413 273.03 89.428C272.121 88.9147 271.402 88.1887 270.874 87.25C270.361 86.2967 270.104 85.1967 270.104 83.95C270.104 82.718 270.368 81.6327 270.896 80.694C271.439 79.7407 272.172 79.0147 273.096 78.516C274.02 78.0027 275.054 77.746 276.198 77.746C277.342 77.746 278.376 78.0027 279.3 78.516C280.224 79.0147 280.95 79.7333 281.478 80.672C282.021 81.6107 282.292 82.7033 282.292 83.95C282.292 85.1967 282.014 86.2967 281.456 87.25C280.914 88.1887 280.173 88.9147 279.234 89.428C278.296 89.9413 277.254 90.198 276.11 90.198ZM276.11 88.438C276.829 88.438 277.504 88.2693 278.134 87.932C278.765 87.5947 279.271 87.0887 279.652 86.414C280.048 85.7393 280.246 84.918 280.246 83.95C280.246 82.982 280.056 82.1607 279.674 81.486C279.293 80.8113 278.794 80.3127 278.178 79.99C277.562 79.6527 276.895 79.484 276.176 79.484C275.443 79.484 274.768 79.6527 274.152 79.99C273.551 80.3127 273.067 80.8113 272.7 81.486C272.334 82.1607 272.15 82.982 272.15 83.95C272.15 84.9327 272.326 85.7613 272.678 86.436C273.045 87.1107 273.529 87.6167 274.13 87.954C274.732 88.2767 275.392 88.438 276.11 88.438ZM287.366 79.594V86.7C287.366 87.2867 287.491 87.7047 287.74 87.954C287.99 88.1887 288.422 88.306 289.038 88.306H290.512V90H288.708C287.594 90 286.758 89.7433 286.2 89.23C285.643 88.7167 285.364 87.8733 285.364 86.7V79.594H283.802V77.944H285.364V74.908H287.366V77.944H290.512V79.594H287.366ZM293.972 75.986C293.591 75.986 293.268 75.854 293.004 75.59C292.74 75.326 292.608 75.0033 292.608 74.622C292.608 74.2407 292.74 73.918 293.004 73.654C293.268 73.39 293.591 73.258 293.972 73.258C294.339 73.258 294.647 73.39 294.896 73.654C295.16 73.918 295.292 74.2407 295.292 74.622C295.292 75.0033 295.16 75.326 294.896 75.59C294.647 75.854 294.339 75.986 293.972 75.986ZM294.94 77.944V90H292.938V77.944H294.94ZM303.324 77.746C304.366 77.746 305.275 77.9733 306.052 78.428C306.844 78.8827 307.431 79.4547 307.812 80.144V77.944H309.836V90.264C309.836 91.364 309.602 92.3393 309.132 93.19C308.663 94.0553 307.988 94.73 307.108 95.214C306.243 95.698 305.231 95.94 304.072 95.94C302.488 95.94 301.168 95.566 300.112 94.818C299.056 94.07 298.433 93.0507 298.242 91.76H300.222C300.442 92.4933 300.897 93.08 301.586 93.52C302.276 93.9747 303.104 94.202 304.072 94.202C305.172 94.202 306.067 93.8573 306.756 93.168C307.46 92.4787 307.812 91.5107 307.812 90.264V87.734C307.416 88.438 306.83 89.0247 306.052 89.494C305.275 89.9633 304.366 90.198 303.324 90.198C302.254 90.198 301.278 89.934 300.398 89.406C299.533 88.878 298.851 88.1373 298.352 87.184C297.854 86.2307 297.604 85.1453 297.604 83.928C297.604 82.696 297.854 81.618 298.352 80.694C298.851 79.7553 299.533 79.0293 300.398 78.516C301.278 78.0027 302.254 77.746 303.324 77.746ZM307.812 83.95C307.812 83.0407 307.629 82.2487 307.262 81.574C306.896 80.8993 306.397 80.386 305.766 80.034C305.15 79.6673 304.468 79.484 303.72 79.484C302.972 79.484 302.29 79.66 301.674 80.012C301.058 80.364 300.567 80.8773 300.2 81.552C299.834 82.2267 299.65 83.0187 299.65 83.928C299.65 84.852 299.834 85.6587 300.2 86.348C300.567 87.0227 301.058 87.5433 301.674 87.91C302.29 88.262 302.972 88.438 303.72 88.438C304.468 88.438 305.15 88.262 305.766 87.91C306.397 87.5433 306.896 87.0227 307.262 86.348C307.629 85.6587 307.812 84.8593 307.812 83.95ZM323.911 77.944V90H321.909V88.218C321.528 88.834 320.993 89.318 320.303 89.67C319.629 90.0073 318.881 90.176 318.059 90.176C317.121 90.176 316.277 89.9853 315.529 89.604C314.781 89.208 314.187 88.6213 313.747 87.844C313.322 87.0667 313.109 86.1207 313.109 85.006V77.944H315.089V84.742C315.089 85.93 315.39 86.8467 315.991 87.492C316.593 88.1227 317.414 88.438 318.455 88.438C319.526 88.438 320.369 88.108 320.985 87.448C321.601 86.788 321.909 85.8273 321.909 84.566V77.944H323.911ZM326.544 83.928C326.544 82.696 326.793 81.618 327.292 80.694C327.79 79.7553 328.472 79.0293 329.338 78.516C330.218 78.0027 331.193 77.746 332.264 77.746C333.32 77.746 334.236 77.9733 335.014 78.428C335.791 78.8827 336.37 79.4547 336.752 80.144V77.944H338.776V90H336.752V87.756C336.356 88.46 335.762 89.0467 334.97 89.516C334.192 89.9707 333.283 90.198 332.242 90.198C331.171 90.198 330.203 89.934 329.338 89.406C328.472 88.878 327.79 88.1373 327.292 87.184C326.793 86.2307 326.544 85.1453 326.544 83.928ZM336.752 83.95C336.752 83.0407 336.568 82.2487 336.202 81.574C335.835 80.8993 335.336 80.386 334.706 80.034C334.09 79.6673 333.408 79.484 332.66 79.484C331.912 79.484 331.23 79.66 330.614 80.012C329.998 80.364 329.506 80.8773 329.14 81.552C328.773 82.2267 328.59 83.0187 328.59 83.928C328.59 84.852 328.773 85.6587 329.14 86.348C329.506 87.0227 329.998 87.5433 330.614 87.91C331.23 88.262 331.912 88.438 332.66 88.438C333.408 88.438 334.09 88.262 334.706 87.91C335.336 87.5433 335.835 87.0227 336.202 86.348C336.568 85.6587 336.752 84.8593 336.752 83.95ZM344.161 79.902C344.513 79.2127 345.012 78.6773 345.657 78.296C346.317 77.9147 347.116 77.724 348.055 77.724V79.792H347.527C345.283 79.792 344.161 81.0093 344.161 83.444V90H342.159V77.944H344.161V79.902ZM350.674 74.666H352.896L350.784 79.66H349.376L350.674 74.666ZM354.238 74.666H356.46L354.348 79.66H352.918L354.238 74.666ZM379.087 77.724C380.025 77.724 380.861 77.922 381.595 78.318C382.328 78.6993 382.907 79.2787 383.333 80.056C383.758 80.8333 383.971 81.7793 383.971 82.894V90H381.991V83.18C381.991 81.9773 381.69 81.0607 381.089 80.43C380.502 79.7847 379.703 79.462 378.691 79.462C377.649 79.462 376.821 79.7993 376.205 80.474C375.589 81.134 375.281 82.0947 375.281 83.356V90H373.301V83.18C373.301 81.9773 373 81.0607 372.399 80.43C371.812 79.7847 371.013 79.462 370.001 79.462C368.959 79.462 368.131 79.7993 367.515 80.474C366.899 81.134 366.591 82.0947 366.591 83.356V90H364.589V77.944H366.591V79.682C366.987 79.0513 367.515 78.5673 368.175 78.23C368.849 77.8927 369.59 77.724 370.397 77.724C371.409 77.724 372.303 77.9513 373.081 78.406C373.858 78.8607 374.437 79.528 374.819 80.408C375.156 79.5573 375.713 78.8973 376.491 78.428C377.268 77.9587 378.133 77.724 379.087 77.724ZM398.255 83.51C398.255 83.8913 398.233 84.2947 398.189 84.72H388.553C388.626 85.908 389.029 86.8393 389.763 87.514C390.511 88.174 391.413 88.504 392.469 88.504C393.334 88.504 394.053 88.306 394.625 87.91C395.211 87.4993 395.622 86.9567 395.857 86.282H398.013C397.69 87.4407 397.045 88.3867 396.077 89.12C395.109 89.8387 393.906 90.198 392.469 90.198C391.325 90.198 390.298 89.9413 389.389 89.428C388.494 88.9147 387.79 88.1887 387.277 87.25C386.763 86.2967 386.507 85.1967 386.507 83.95C386.507 82.7033 386.756 81.6107 387.255 80.672C387.753 79.7333 388.45 79.0147 389.345 78.516C390.254 78.0027 391.295 77.746 392.469 77.746C393.613 77.746 394.625 77.9953 395.505 78.494C396.385 78.9927 397.059 79.682 397.529 80.562C398.013 81.4273 398.255 82.41 398.255 83.51ZM396.187 83.092C396.187 82.3293 396.018 81.6767 395.681 81.134C395.343 80.5767 394.881 80.1587 394.295 79.88C393.723 79.5867 393.085 79.44 392.381 79.44C391.369 79.44 390.503 79.7627 389.785 80.408C389.081 81.0533 388.677 81.948 388.575 83.092H396.187ZM400.149 83.928C400.149 82.696 400.398 81.618 400.897 80.694C401.396 79.7553 402.078 79.0293 402.943 78.516C403.823 78.0027 404.798 77.746 405.869 77.746C406.925 77.746 407.842 77.9733 408.619 78.428C409.396 78.8827 409.976 79.4547 410.357 80.144V77.944H412.381V90H410.357V87.756C409.961 88.46 409.367 89.0467 408.575 89.516C407.798 89.9707 406.888 90.198 405.847 90.198C404.776 90.198 403.808 89.934 402.943 89.406C402.078 88.878 401.396 88.1373 400.897 87.184C400.398 86.2307 400.149 85.1453 400.149 83.928ZM410.357 83.95C410.357 83.0407 410.174 82.2487 409.807 81.574C409.44 80.8993 408.942 80.386 408.311 80.034C407.695 79.6673 407.013 79.484 406.265 79.484C405.517 79.484 404.835 79.66 404.219 80.012C403.603 80.364 403.112 80.8773 402.745 81.552C402.378 82.2267 402.195 83.0187 402.195 83.928C402.195 84.852 402.378 85.6587 402.745 86.348C403.112 87.0227 403.603 87.5433 404.219 87.91C404.835 88.262 405.517 88.438 406.265 88.438C407.013 88.438 407.695 88.262 408.311 87.91C408.942 87.5433 409.44 87.0227 409.807 86.348C410.174 85.6587 410.357 84.8593 410.357 83.95ZM421.638 77.724C423.105 77.724 424.293 78.1713 425.202 79.066C426.112 79.946 426.566 81.222 426.566 82.894V90H424.586V83.18C424.586 81.9773 424.286 81.0607 423.684 80.43C423.083 79.7847 422.262 79.462 421.22 79.462C420.164 79.462 419.321 79.792 418.69 80.452C418.074 81.112 417.766 82.0727 417.766 83.334V90H415.764V77.944H417.766V79.66C418.162 79.044 418.698 78.5673 419.372 78.23C420.062 77.8927 420.817 77.724 421.638 77.724ZM434.105 90.198C433.181 90.198 432.352 90.044 431.619 89.736C430.885 89.4133 430.306 88.9733 429.881 88.416C429.455 87.844 429.221 87.1913 429.177 86.458H431.245C431.303 87.0593 431.582 87.5507 432.081 87.932C432.594 88.3133 433.261 88.504 434.083 88.504C434.845 88.504 435.447 88.3353 435.887 87.998C436.327 87.6607 436.547 87.2353 436.547 86.722C436.547 86.194 436.312 85.8053 435.843 85.556C435.373 85.292 434.647 85.0353 433.665 84.786C432.77 84.5513 432.037 84.3167 431.465 84.082C430.907 83.8327 430.423 83.4733 430.013 83.004C429.617 82.52 429.419 81.8893 429.419 81.112C429.419 80.496 429.602 79.9313 429.969 79.418C430.335 78.9047 430.856 78.5013 431.531 78.208C432.205 77.9 432.975 77.746 433.841 77.746C435.175 77.746 436.253 78.0833 437.075 78.758C437.896 79.4327 438.336 80.3567 438.395 81.53H436.393C436.349 80.8993 436.092 80.3933 435.623 80.012C435.168 79.6307 434.552 79.44 433.775 79.44C433.056 79.44 432.484 79.594 432.059 79.902C431.633 80.21 431.421 80.6133 431.421 81.112C431.421 81.508 431.545 81.838 431.795 82.102C432.059 82.3513 432.381 82.5567 432.763 82.718C433.159 82.8647 433.701 83.0333 434.391 83.224C435.256 83.4587 435.96 83.6933 436.503 83.928C437.045 84.148 437.507 84.4853 437.889 84.94C438.285 85.3947 438.49 85.9887 438.505 86.722C438.505 87.382 438.321 87.976 437.955 88.504C437.588 89.032 437.067 89.45 436.393 89.758C435.733 90.0513 434.97 90.198 434.105 90.198ZM447.636 74.644H450.87L448.494 80.188H446.382L447.636 74.644ZM452.08 74.644H455.314L452.938 80.188H450.826L452.08 74.644ZM468.834 83.642C468.834 84.082 468.805 84.478 468.746 84.83H459.836C459.91 85.71 460.218 86.3993 460.76 86.898C461.303 87.3967 461.97 87.646 462.762 87.646C463.906 87.646 464.72 87.1547 465.204 86.172H468.526C468.174 87.3453 467.5 88.3133 466.502 89.076C465.505 89.824 464.28 90.198 462.828 90.198C461.655 90.198 460.599 89.9413 459.66 89.428C458.736 88.9 458.01 88.1593 457.482 87.206C456.969 86.2527 456.712 85.1527 456.712 83.906C456.712 82.6447 456.969 81.5373 457.482 80.584C457.996 79.6307 458.714 78.8973 459.638 78.384C460.562 77.8707 461.626 77.614 462.828 77.614C463.987 77.614 465.021 77.8633 465.93 78.362C466.854 78.8607 467.566 79.572 468.064 80.496C468.578 81.4053 468.834 82.454 468.834 83.642ZM465.644 82.762C465.63 81.97 465.344 81.3393 464.786 80.87C464.229 80.386 463.547 80.144 462.74 80.144C461.978 80.144 461.332 80.3787 460.804 80.848C460.291 81.3027 459.976 81.9407 459.858 82.762H465.644ZM470.29 83.862C470.29 82.63 470.532 81.5373 471.016 80.584C471.515 79.6307 472.182 78.8973 473.018 78.384C473.869 77.8707 474.815 77.614 475.856 77.614C476.766 77.614 477.558 77.7973 478.232 78.164C478.922 78.5307 479.472 78.9927 479.882 79.55V77.812H482.984V90H479.882V88.218C479.486 88.79 478.936 89.2667 478.232 89.648C477.543 90.0147 476.744 90.198 475.834 90.198C474.808 90.198 473.869 89.934 473.018 89.406C472.182 88.878 471.515 88.1373 471.016 87.184C470.532 86.216 470.29 85.1087 470.29 83.862ZM479.882 83.906C479.882 83.158 479.736 82.52 479.442 81.992C479.149 81.4493 478.753 81.0387 478.254 80.76C477.756 80.4667 477.22 80.32 476.648 80.32C476.076 80.32 475.548 80.4593 475.064 80.738C474.58 81.0167 474.184 81.4273 473.876 81.97C473.583 82.498 473.436 83.1287 473.436 83.862C473.436 84.5953 473.583 85.2407 473.876 85.798C474.184 86.3407 474.58 86.7587 475.064 87.052C475.563 87.3453 476.091 87.492 476.648 87.492C477.22 87.492 477.756 87.3527 478.254 87.074C478.753 86.7807 479.149 86.37 479.442 85.842C479.736 85.2993 479.882 84.654 479.882 83.906ZM489.579 80.342V86.238C489.579 86.6487 489.674 86.9493 489.865 87.14C490.07 87.316 490.407 87.404 490.877 87.404H492.307V90H490.371C487.775 90 486.477 88.7387 486.477 86.216V80.342H485.025V77.812H486.477V74.798H489.579V77.812H492.307V80.342H489.579ZM505.852 83.642C505.852 84.082 505.823 84.478 505.764 84.83H496.854C496.927 85.71 497.235 86.3993 497.778 86.898C498.321 87.3967 498.988 87.646 499.78 87.646C500.924 87.646 501.738 87.1547 502.222 86.172H505.544C505.192 87.3453 504.517 88.3133 503.52 89.076C502.523 89.824 501.298 90.198 499.846 90.198C498.673 90.198 497.617 89.9413 496.678 89.428C495.754 88.9 495.028 88.1593 494.5 87.206C493.987 86.2527 493.73 85.1527 493.73 83.906C493.73 82.6447 493.987 81.5373 494.5 80.584C495.013 79.6307 495.732 78.8973 496.656 78.384C497.58 77.8707 498.643 77.614 499.846 77.614C501.005 77.614 502.039 77.8633 502.948 78.362C503.872 78.8607 504.583 79.572 505.082 80.496C505.595 81.4053 505.852 82.454 505.852 83.642ZM502.662 82.762C502.647 81.97 502.361 81.3393 501.804 80.87C501.247 80.386 500.565 80.144 499.758 80.144C498.995 80.144 498.35 80.3787 497.822 80.848C497.309 81.3027 496.993 81.9407 496.876 82.762H502.662ZM511.18 79.704C511.576 79.0587 512.089 78.5527 512.72 78.186C513.365 77.8193 514.099 77.636 514.92 77.636V80.87H514.106C513.138 80.87 512.405 81.0973 511.906 81.552C511.422 82.0067 511.18 82.7987 511.18 83.928V90H508.1V77.812H511.18V79.704ZM527.649 90.198C526.475 90.198 525.419 89.9413 524.481 89.428C523.542 88.9 522.801 88.1593 522.259 87.206C521.731 86.2527 521.467 85.1527 521.467 83.906C521.467 82.6593 521.738 81.5593 522.281 80.606C522.838 79.6527 523.593 78.9193 524.547 78.406C525.5 77.878 526.563 77.614 527.737 77.614C528.91 77.614 529.973 77.878 530.927 78.406C531.88 78.9193 532.628 79.6527 533.171 80.606C533.728 81.5593 534.007 82.6593 534.007 83.906C534.007 85.1527 533.721 86.2527 533.149 87.206C532.591 88.1593 531.829 88.9 530.861 89.428C529.907 89.9413 528.837 90.198 527.649 90.198ZM527.649 87.514C528.206 87.514 528.727 87.382 529.211 87.118C529.709 86.8393 530.105 86.4287 530.399 85.886C530.692 85.3433 530.839 84.6833 530.839 83.906C530.839 82.7473 530.531 81.86 529.915 81.244C529.313 80.6133 528.573 80.298 527.693 80.298C526.813 80.298 526.072 80.6133 525.471 81.244C524.884 81.86 524.591 82.7473 524.591 83.906C524.591 85.0647 524.877 85.9593 525.449 86.59C526.035 87.206 526.769 87.514 527.649 87.514ZM541.854 80.342H539.72V90H536.596V80.342H535.21V77.812H536.596V77.196C536.596 75.7 537.021 74.6 537.872 73.896C538.723 73.192 540.006 72.862 541.722 72.906V75.502C540.974 75.4873 540.453 75.612 540.16 75.876C539.867 76.14 539.72 76.6167 539.72 77.306V77.812H541.854V80.342ZM90.4779 123.198C89.4806 123.198 88.5859 123.022 87.7939 122.67C87.0019 122.303 86.3712 121.812 85.9019 121.196C85.4472 120.58 85.1979 119.898 85.1539 119.15H88.2559C88.3146 119.619 88.5419 120.008 88.9379 120.316C89.3486 120.624 89.8546 120.778 90.4559 120.778C91.0426 120.778 91.4972 120.661 91.8199 120.426C92.1572 120.191 92.3259 119.891 92.3259 119.524C92.3259 119.128 92.1206 118.835 91.7099 118.644C91.3139 118.439 90.6759 118.219 89.7959 117.984C88.8866 117.764 88.1386 117.537 87.5519 117.302C86.9799 117.067 86.4812 116.708 86.0559 116.224C85.6452 115.74 85.4399 115.087 85.4399 114.266C85.4399 113.591 85.6306 112.975 86.0119 112.418C86.4079 111.861 86.9652 111.421 87.6839 111.098C88.4172 110.775 89.2752 110.614 90.2579 110.614C91.7099 110.614 92.8686 110.981 93.7339 111.714C94.5992 112.433 95.0759 113.408 95.1639 114.64H92.2159C92.1719 114.156 91.9666 113.775 91.5999 113.496C91.2479 113.203 90.7712 113.056 90.1699 113.056C89.6126 113.056 89.1799 113.159 88.8719 113.364C88.5786 113.569 88.4319 113.855 88.4319 114.222C88.4319 114.633 88.6372 114.948 89.0479 115.168C89.4586 115.373 90.0966 115.586 90.9619 115.806C91.8419 116.026 92.5679 116.253 93.1399 116.488C93.7119 116.723 94.2032 117.089 94.6139 117.588C95.0392 118.072 95.2592 118.717 95.2739 119.524C95.2739 120.228 95.0759 120.859 94.6799 121.416C94.2986 121.973 93.7412 122.413 93.0079 122.736C92.2892 123.044 91.4459 123.198 90.4779 123.198ZM104.666 110.636C105.59 110.636 106.412 110.841 107.13 111.252C107.849 111.648 108.406 112.242 108.802 113.034C109.213 113.811 109.418 114.75 109.418 115.85V123H106.338V116.268C106.338 115.3 106.096 114.559 105.612 114.046C105.128 113.518 104.468 113.254 103.632 113.254C102.782 113.254 102.107 113.518 101.608 114.046C101.124 114.559 100.882 115.3 100.882 116.268V123H97.8022V106.72H100.882V112.33C101.278 111.802 101.806 111.391 102.466 111.098C103.126 110.79 103.86 110.636 104.666 110.636ZM115.427 112.704C115.823 112.059 116.336 111.553 116.967 111.186C117.612 110.819 118.346 110.636 119.167 110.636V113.87H118.353C117.385 113.87 116.652 114.097 116.153 114.552C115.669 115.007 115.427 115.799 115.427 116.928V123H112.347V110.812H115.427V112.704ZM122.804 109.36C122.261 109.36 121.806 109.191 121.44 108.854C121.088 108.502 120.912 108.069 120.912 107.556C120.912 107.043 121.088 106.617 121.44 106.28C121.806 105.928 122.261 105.752 122.804 105.752C123.346 105.752 123.794 105.928 124.146 106.28C124.512 106.617 124.696 107.043 124.696 107.556C124.696 108.069 124.512 108.502 124.146 108.854C123.794 109.191 123.346 109.36 122.804 109.36ZM124.322 110.812V123H121.242V110.812H124.322ZM142.501 110.636C143.997 110.636 145.199 111.098 146.109 112.022C147.033 112.931 147.495 114.207 147.495 115.85V123H144.415V116.268C144.415 115.315 144.173 114.589 143.689 114.09C143.205 113.577 142.545 113.32 141.709 113.32C140.873 113.32 140.205 113.577 139.707 114.09C139.223 114.589 138.981 115.315 138.981 116.268V123H135.901V116.268C135.901 115.315 135.659 114.589 135.175 114.09C134.691 113.577 134.031 113.32 133.195 113.32C132.344 113.32 131.669 113.577 131.171 114.09C130.687 114.589 130.445 115.315 130.445 116.268V123H127.365V110.812H130.445V112.286C130.841 111.773 131.347 111.369 131.963 111.076C132.593 110.783 133.283 110.636 134.031 110.636C134.984 110.636 135.835 110.841 136.583 111.252C137.331 111.648 137.91 112.22 138.321 112.968C138.717 112.264 139.289 111.699 140.037 111.274C140.799 110.849 141.621 110.636 142.501 110.636ZM153.497 112.572C153.893 112.015 154.436 111.553 155.125 111.186C155.829 110.805 156.629 110.614 157.523 110.614C158.565 110.614 159.503 110.871 160.339 111.384C161.19 111.897 161.857 112.631 162.341 113.584C162.84 114.523 163.089 115.615 163.089 116.862C163.089 118.109 162.84 119.216 162.341 120.184C161.857 121.137 161.19 121.878 160.339 122.406C159.503 122.934 158.565 123.198 157.523 123.198C156.629 123.198 155.837 123.015 155.147 122.648C154.473 122.281 153.923 121.819 153.497 121.262V128.808H150.417V110.812H153.497V112.572ZM159.943 116.862C159.943 116.129 159.789 115.498 159.481 114.97C159.188 114.427 158.792 114.017 158.293 113.738C157.809 113.459 157.281 113.32 156.709 113.32C156.152 113.32 155.624 113.467 155.125 113.76C154.641 114.039 154.245 114.449 153.937 114.992C153.644 115.535 153.497 116.173 153.497 116.906C153.497 117.639 153.644 118.277 153.937 118.82C154.245 119.363 154.641 119.781 155.125 120.074C155.624 120.353 156.152 120.492 156.709 120.492C157.281 120.492 157.809 120.345 158.293 120.052C158.792 119.759 159.188 119.341 159.481 118.798C159.789 118.255 159.943 117.61 159.943 116.862ZM165.944 107.644H169.178L166.802 113.188H164.69L165.944 107.644ZM170.388 107.644H173.622L171.246 113.188H169.134L170.388 107.644ZM182.887 108.986C182.506 108.986 182.183 108.854 181.919 108.59C181.655 108.326 181.523 108.003 181.523 107.622C181.523 107.241 181.655 106.918 181.919 106.654C182.183 106.39 182.506 106.258 182.887 106.258C183.254 106.258 183.562 106.39 183.811 106.654C184.075 106.918 184.207 107.241 184.207 107.622C184.207 108.003 184.075 108.326 183.811 108.59C183.562 108.854 183.254 108.986 182.887 108.986ZM183.855 110.944V123H181.853V110.944H183.855ZM193.141 110.724C194.608 110.724 195.796 111.171 196.705 112.066C197.615 112.946 198.069 114.222 198.069 115.894V123H196.089V116.18C196.089 114.977 195.789 114.061 195.187 113.43C194.586 112.785 193.765 112.462 192.723 112.462C191.667 112.462 190.824 112.792 190.193 113.452C189.577 114.112 189.269 115.073 189.269 116.334V123H187.267V110.944H189.269V112.66C189.665 112.044 190.201 111.567 190.875 111.23C191.565 110.893 192.32 110.724 193.141 110.724ZM216.643 107.666V109.294H212.463V123H210.461V109.294H206.259V107.666H216.643ZM229.799 110.944V123H227.797V121.218C227.416 121.834 226.88 122.318 226.191 122.67C225.516 123.007 224.768 123.176 223.947 123.176C223.008 123.176 222.165 122.985 221.417 122.604C220.669 122.208 220.075 121.621 219.635 120.844C219.21 120.067 218.997 119.121 218.997 118.006V110.944H220.977V117.742C220.977 118.93 221.278 119.847 221.879 120.492C222.48 121.123 223.302 121.438 224.343 121.438C225.414 121.438 226.257 121.108 226.873 120.448C227.489 119.788 227.797 118.827 227.797 117.566V110.944H229.799ZM235.181 113.166C235.577 112.477 236.164 111.905 236.941 111.45C237.733 110.981 238.65 110.746 239.691 110.746C240.762 110.746 241.73 111.003 242.595 111.516C243.475 112.029 244.165 112.755 244.663 113.694C245.162 114.618 245.411 115.696 245.411 116.928C245.411 118.145 245.162 119.231 244.663 120.184C244.165 121.137 243.475 121.878 242.595 122.406C241.73 122.934 240.762 123.198 239.691 123.198C238.665 123.198 237.755 122.971 236.963 122.516C236.186 122.047 235.592 121.467 235.181 120.778V128.72H233.179V110.944H235.181V113.166ZM243.365 116.928C243.365 116.019 243.182 115.227 242.815 114.552C242.449 113.877 241.95 113.364 241.319 113.012C240.703 112.66 240.021 112.484 239.273 112.484C238.54 112.484 237.858 112.667 237.227 113.034C236.611 113.386 236.113 113.907 235.731 114.596C235.365 115.271 235.181 116.055 235.181 116.95C235.181 117.859 235.365 118.659 235.731 119.348C236.113 120.023 236.611 120.543 237.227 120.91C237.858 121.262 238.54 121.438 239.273 121.438C240.021 121.438 240.703 121.262 241.319 120.91C241.95 120.543 242.449 120.023 242.815 119.348C243.182 118.659 243.365 117.852 243.365 116.928ZM249.081 108.986C248.699 108.986 248.377 108.854 248.113 108.59C247.849 108.326 247.717 108.003 247.717 107.622C247.717 107.241 247.849 106.918 248.113 106.654C248.377 106.39 248.699 106.258 249.081 106.258C249.447 106.258 249.755 106.39 250.005 106.654C250.269 106.918 250.401 107.241 250.401 107.622C250.401 108.003 250.269 108.326 250.005 108.59C249.755 108.854 249.447 108.986 249.081 108.986ZM250.049 110.944V123H248.047V110.944H250.049ZM255.529 120.228L253.065 126.146H251.723L253.329 120.228H255.529ZM266.129 112.594V119.7C266.129 120.287 266.254 120.705 266.503 120.954C266.752 121.189 267.185 121.306 267.801 121.306H269.275V123H267.471C266.356 123 265.52 122.743 264.963 122.23C264.406 121.717 264.127 120.873 264.127 119.7V112.594H262.565V110.944H264.127V107.908H266.129V110.944H269.275V112.594H266.129ZM277.685 110.724C278.594 110.724 279.416 110.922 280.149 111.318C280.882 111.699 281.454 112.279 281.865 113.056C282.29 113.833 282.503 114.779 282.503 115.894V123H280.523V116.18C280.523 114.977 280.222 114.061 279.621 113.43C279.02 112.785 278.198 112.462 277.157 112.462C276.101 112.462 275.258 112.792 274.627 113.452C274.011 114.112 273.703 115.073 273.703 116.334V123H271.701V106.72H273.703V112.66C274.099 112.044 274.642 111.567 275.331 111.23C276.035 110.893 276.82 110.724 277.685 110.724ZM296.773 116.51C296.773 116.891 296.751 117.295 296.707 117.72H287.071C287.144 118.908 287.548 119.839 288.281 120.514C289.029 121.174 289.931 121.504 290.987 121.504C291.852 121.504 292.571 121.306 293.143 120.91C293.73 120.499 294.14 119.957 294.375 119.282H296.531C296.208 120.441 295.563 121.387 294.595 122.12C293.627 122.839 292.424 123.198 290.987 123.198C289.843 123.198 288.816 122.941 287.907 122.428C287.012 121.915 286.308 121.189 285.795 120.25C285.282 119.297 285.025 118.197 285.025 116.95C285.025 115.703 285.274 114.611 285.773 113.672C286.272 112.733 286.968 112.015 287.863 111.516C288.772 111.003 289.814 110.746 290.987 110.746C292.131 110.746 293.143 110.995 294.023 111.494C294.903 111.993 295.578 112.682 296.047 113.562C296.531 114.427 296.773 115.41 296.773 116.51ZM294.705 116.092C294.705 115.329 294.536 114.677 294.199 114.134C293.862 113.577 293.4 113.159 292.813 112.88C292.241 112.587 291.603 112.44 290.899 112.44C289.887 112.44 289.022 112.763 288.303 113.408C287.599 114.053 287.196 114.948 287.093 116.092H294.705ZM300.45 108.986C300.068 108.986 299.746 108.854 299.482 108.59C299.218 108.326 299.086 108.003 299.086 107.622C299.086 107.241 299.218 106.918 299.482 106.654C299.746 106.39 300.068 106.258 300.45 106.258C300.816 106.258 301.124 106.39 301.374 106.654C301.638 106.918 301.77 107.241 301.77 107.622C301.77 108.003 301.638 108.326 301.374 108.59C301.124 108.854 300.816 108.986 300.45 108.986ZM301.418 110.944V123H299.416V110.944H301.418ZM306.832 112.902C307.184 112.213 307.682 111.677 308.328 111.296C308.988 110.915 309.787 110.724 310.726 110.724V112.792H310.198C307.954 112.792 306.832 114.009 306.832 116.444V123H304.83V110.944H306.832V112.902ZM324.776 110.724C326.243 110.724 327.431 111.171 328.34 112.066C329.249 112.946 329.704 114.222 329.704 115.894V123H327.724V116.18C327.724 114.977 327.423 114.061 326.822 113.43C326.221 112.785 325.399 112.462 324.358 112.462C323.302 112.462 322.459 112.792 321.828 113.452C321.212 114.112 320.904 115.073 320.904 116.334V123H318.902V110.944H320.904V112.66C321.3 112.044 321.835 111.567 322.51 111.23C323.199 110.893 323.955 110.724 324.776 110.724ZM332.226 116.928C332.226 115.696 332.476 114.618 332.974 113.694C333.473 112.755 334.155 112.029 335.02 111.516C335.9 111.003 336.876 110.746 337.946 110.746C339.002 110.746 339.919 110.973 340.696 111.428C341.474 111.883 342.053 112.455 342.434 113.144V110.944H344.458V123H342.434V120.756C342.038 121.46 341.444 122.047 340.652 122.516C339.875 122.971 338.966 123.198 337.924 123.198C336.854 123.198 335.886 122.934 335.02 122.406C334.155 121.878 333.473 121.137 332.974 120.184C332.476 119.231 332.226 118.145 332.226 116.928ZM342.434 116.95C342.434 116.041 342.251 115.249 341.884 114.574C341.518 113.899 341.019 113.386 340.388 113.034C339.772 112.667 339.09 112.484 338.342 112.484C337.594 112.484 336.912 112.66 336.296 113.012C335.68 113.364 335.189 113.877 334.822 114.552C334.456 115.227 334.272 116.019 334.272 116.928C334.272 117.852 334.456 118.659 334.822 119.348C335.189 120.023 335.68 120.543 336.296 120.91C336.912 121.262 337.594 121.438 338.342 121.438C339.09 121.438 339.772 121.262 340.388 120.91C341.019 120.543 341.518 120.023 341.884 119.348C342.251 118.659 342.434 117.859 342.434 116.95ZM350.283 112.594V119.7C350.283 120.287 350.408 120.705 350.657 120.954C350.907 121.189 351.339 121.306 351.955 121.306H353.429V123H351.625C350.511 123 349.675 122.743 349.117 122.23C348.56 121.717 348.281 120.873 348.281 119.7V112.594H346.719V110.944H348.281V107.908H350.283V110.944H353.429V112.594H350.283ZM356.889 108.986C356.508 108.986 356.185 108.854 355.921 108.59C355.657 108.326 355.525 108.003 355.525 107.622C355.525 107.241 355.657 106.918 355.921 106.654C356.185 106.39 356.508 106.258 356.889 106.258C357.256 106.258 357.564 106.39 357.813 106.654C358.077 106.918 358.209 107.241 358.209 107.622C358.209 108.003 358.077 108.326 357.813 108.59C357.564 108.854 357.256 108.986 356.889 108.986ZM357.857 110.944V123H355.855V110.944H357.857ZM365.757 121.152L369.497 110.944H371.631L366.901 123H364.569L359.839 110.944H361.995L365.757 121.152ZM384.601 116.51C384.601 116.891 384.579 117.295 384.535 117.72H374.899C374.973 118.908 375.376 119.839 376.109 120.514C376.857 121.174 377.759 121.504 378.815 121.504C379.681 121.504 380.399 121.306 380.971 120.91C381.558 120.499 381.969 119.957 382.203 119.282H384.359C384.037 120.441 383.391 121.387 382.423 122.12C381.455 122.839 380.253 123.198 378.815 123.198C377.671 123.198 376.645 122.941 375.735 122.428C374.841 121.915 374.137 121.189 373.623 120.25C373.11 119.297 372.853 118.197 372.853 116.95C372.853 115.703 373.103 114.611 373.601 113.672C374.1 112.733 374.797 112.015 375.691 111.516C376.601 111.003 377.642 110.746 378.815 110.746C379.959 110.746 380.971 110.995 381.851 111.494C382.731 111.993 383.406 112.682 383.875 113.562C384.359 114.427 384.601 115.41 384.601 116.51ZM382.533 116.092C382.533 115.329 382.365 114.677 382.027 114.134C381.69 113.577 381.228 113.159 380.641 112.88C380.069 112.587 379.431 112.44 378.727 112.44C377.715 112.44 376.85 112.763 376.131 113.408C375.427 114.053 375.024 114.948 374.921 116.092H382.533ZM395.111 106.72V123H393.109V106.72H395.111ZM397.775 116.928C397.775 115.696 398.024 114.618 398.523 113.694C399.022 112.755 399.704 112.029 400.569 111.516C401.449 111.003 402.424 110.746 403.495 110.746C404.551 110.746 405.468 110.973 406.245 111.428C407.022 111.883 407.602 112.455 407.983 113.144V110.944H410.007V123H407.983V120.756C407.587 121.46 406.993 122.047 406.201 122.516C405.424 122.971 404.514 123.198 403.473 123.198C402.402 123.198 401.434 122.934 400.569 122.406C399.704 121.878 399.022 121.137 398.523 120.184C398.024 119.231 397.775 118.145 397.775 116.928ZM407.983 116.95C407.983 116.041 407.8 115.249 407.433 114.574C407.066 113.899 406.568 113.386 405.937 113.034C405.321 112.667 404.639 112.484 403.891 112.484C403.143 112.484 402.461 112.66 401.845 113.012C401.229 113.364 400.738 113.877 400.371 114.552C400.004 115.227 399.821 116.019 399.821 116.928C399.821 117.852 400.004 118.659 400.371 119.348C400.738 120.023 401.229 120.543 401.845 120.91C402.461 121.262 403.143 121.438 403.891 121.438C404.639 121.438 405.321 121.262 405.937 120.91C406.568 120.543 407.066 120.023 407.433 119.348C407.8 118.659 407.983 117.859 407.983 116.95ZM419.264 110.724C420.731 110.724 421.919 111.171 422.828 112.066C423.738 112.946 424.192 114.222 424.192 115.894V123H422.212V116.18C422.212 114.977 421.912 114.061 421.31 113.43C420.709 112.785 419.888 112.462 418.846 112.462C417.79 112.462 416.947 112.792 416.316 113.452C415.7 114.112 415.392 115.073 415.392 116.334V123H413.39V110.944H415.392V112.66C415.788 112.044 416.324 111.567 416.998 111.23C417.688 110.893 418.443 110.724 419.264 110.724ZM432.435 110.746C433.476 110.746 434.385 110.973 435.163 111.428C435.955 111.883 436.541 112.455 436.923 113.144V110.944H438.947V123.264C438.947 124.364 438.712 125.339 438.243 126.19C437.773 127.055 437.099 127.73 436.219 128.214C435.353 128.698 434.341 128.94 433.183 128.94C431.599 128.94 430.279 128.566 429.223 127.818C428.167 127.07 427.543 126.051 427.353 124.76H429.333C429.553 125.493 430.007 126.08 430.697 126.52C431.386 126.975 432.215 127.202 433.183 127.202C434.283 127.202 435.177 126.857 435.867 126.168C436.571 125.479 436.923 124.511 436.923 123.264V120.734C436.527 121.438 435.94 122.025 435.163 122.494C434.385 122.963 433.476 123.198 432.435 123.198C431.364 123.198 430.389 122.934 429.509 122.406C428.643 121.878 427.961 121.137 427.463 120.184C426.964 119.231 426.715 118.145 426.715 116.928C426.715 115.696 426.964 114.618 427.463 113.694C427.961 112.755 428.643 112.029 429.509 111.516C430.389 111.003 431.364 110.746 432.435 110.746ZM436.923 116.95C436.923 116.041 436.739 115.249 436.373 114.574C436.006 113.899 435.507 113.386 434.877 113.034C434.261 112.667 433.579 112.484 432.831 112.484C432.083 112.484 431.401 112.66 430.785 113.012C430.169 113.364 429.677 113.877 429.311 114.552C428.944 115.227 428.761 116.019 428.761 116.928C428.761 117.852 428.944 118.659 429.311 119.348C429.677 120.023 430.169 120.543 430.785 120.91C431.401 121.262 432.083 121.438 432.831 121.438C433.579 121.438 434.261 121.262 434.877 120.91C435.507 120.543 436.006 120.023 436.373 119.348C436.739 118.659 436.923 117.859 436.923 116.95ZM453.022 110.944V123H451.02V121.218C450.638 121.834 450.103 122.318 449.414 122.67C448.739 123.007 447.991 123.176 447.17 123.176C446.231 123.176 445.388 122.985 444.64 122.604C443.892 122.208 443.298 121.621 442.858 120.844C442.432 120.067 442.22 119.121 442.22 118.006V110.944H444.2V117.742C444.2 118.93 444.5 119.847 445.102 120.492C445.703 121.123 446.524 121.438 447.566 121.438C448.636 121.438 449.48 121.108 450.096 120.448C450.712 119.788 451.02 118.827 451.02 117.566V110.944H453.022ZM455.654 116.928C455.654 115.696 455.903 114.618 456.402 113.694C456.901 112.755 457.583 112.029 458.448 111.516C459.328 111.003 460.303 110.746 461.374 110.746C462.43 110.746 463.347 110.973 464.124 111.428C464.901 111.883 465.481 112.455 465.862 113.144V110.944H467.886V123H465.862V120.756C465.466 121.46 464.872 122.047 464.08 122.516C463.303 122.971 462.393 123.198 461.352 123.198C460.281 123.198 459.313 122.934 458.448 122.406C457.583 121.878 456.901 121.137 456.402 120.184C455.903 119.231 455.654 118.145 455.654 116.928ZM465.862 116.95C465.862 116.041 465.679 115.249 465.312 114.574C464.945 113.899 464.447 113.386 463.816 113.034C463.2 112.667 462.518 112.484 461.77 112.484C461.022 112.484 460.34 112.66 459.724 113.012C459.108 113.364 458.617 113.877 458.25 114.552C457.883 115.227 457.7 116.019 457.7 116.928C457.7 117.852 457.883 118.659 458.25 119.348C458.617 120.023 459.108 120.543 459.724 120.91C460.34 121.262 461.022 121.438 461.77 121.438C462.518 121.438 463.2 121.262 463.816 120.91C464.447 120.543 464.945 120.023 465.312 119.348C465.679 118.659 465.862 117.859 465.862 116.95ZM476.241 110.746C477.283 110.746 478.192 110.973 478.969 111.428C479.761 111.883 480.348 112.455 480.729 113.144V110.944H482.753V123.264C482.753 124.364 482.519 125.339 482.049 126.19C481.58 127.055 480.905 127.73 480.025 128.214C479.16 128.698 478.148 128.94 476.989 128.94C475.405 128.94 474.085 128.566 473.029 127.818C471.973 127.07 471.35 126.051 471.159 124.76H473.139C473.359 125.493 473.814 126.08 474.503 126.52C475.193 126.975 476.021 127.202 476.989 127.202C478.089 127.202 478.984 126.857 479.673 126.168C480.377 125.479 480.729 124.511 480.729 123.264V120.734C480.333 121.438 479.747 122.025 478.969 122.494C478.192 122.963 477.283 123.198 476.241 123.198C475.171 123.198 474.195 122.934 473.315 122.406C472.45 121.878 471.768 121.137 471.269 120.184C470.771 119.231 470.521 118.145 470.521 116.928C470.521 115.696 470.771 114.618 471.269 113.694C471.768 112.755 472.45 112.029 473.315 111.516C474.195 111.003 475.171 110.746 476.241 110.746ZM480.729 116.95C480.729 116.041 480.546 115.249 480.179 114.574C479.813 113.899 479.314 113.386 478.683 113.034C478.067 112.667 477.385 112.484 476.637 112.484C475.889 112.484 475.207 112.66 474.591 113.012C473.975 113.364 473.484 113.877 473.117 114.552C472.751 115.227 472.567 116.019 472.567 116.928C472.567 117.852 472.751 118.659 473.117 119.348C473.484 120.023 473.975 120.543 474.591 120.91C475.207 121.262 475.889 121.438 476.637 121.438C477.385 121.438 478.067 121.262 478.683 120.91C479.314 120.543 479.813 120.023 480.179 119.348C480.546 118.659 480.729 117.859 480.729 116.95ZM497.136 116.51C497.136 116.891 497.114 117.295 497.07 117.72H487.434C487.508 118.908 487.911 119.839 488.644 120.514C489.392 121.174 490.294 121.504 491.35 121.504C492.216 121.504 492.934 121.306 493.506 120.91C494.093 120.499 494.504 119.957 494.738 119.282H496.894C496.572 120.441 495.926 121.387 494.958 122.12C493.99 122.839 492.788 123.198 491.35 123.198C490.206 123.198 489.18 122.941 488.27 122.428C487.376 121.915 486.672 121.189 486.158 120.25C485.645 119.297 485.388 118.197 485.388 116.95C485.388 115.703 485.638 114.611 486.136 113.672C486.635 112.733 487.332 112.015 488.226 111.516C489.136 111.003 490.177 110.746 491.35 110.746C492.494 110.746 493.506 110.995 494.386 111.494C495.266 111.993 495.941 112.682 496.41 113.562C496.894 114.427 497.136 115.41 497.136 116.51ZM495.068 116.092C495.068 115.329 494.9 114.677 494.562 114.134C494.225 113.577 493.763 113.159 493.176 112.88C492.604 112.587 491.966 112.44 491.262 112.44C490.25 112.44 489.385 112.763 488.666 113.408C487.962 114.053 487.559 114.948 487.456 116.092H495.068ZM500.417 123.132C500.036 123.132 499.713 123 499.449 122.736C499.185 122.472 499.053 122.149 499.053 121.768C499.053 121.387 499.185 121.064 499.449 120.8C499.713 120.536 500.036 120.404 500.417 120.404C500.784 120.404 501.092 120.536 501.341 120.8C501.605 121.064 501.737 121.387 501.737 121.768C501.737 122.149 501.605 122.472 501.341 122.736C501.092 123 500.784 123.132 500.417 123.132Z" fill="black"/>
</svg>
