<svg width="171" height="127" viewBox="0 0 171 127" fill="none" xmlns="http://www.w3.org/2000/svg">
<rect width="171" height="127" fill="#C6AEA3"/>
<ellipse cx="85.2561" cy="86.6814" rx="28.5808" ry="29.3187" fill="#DDBE4F"/>
<path d="M84.9524 0.637329L113.127 77.5989H56.7776L84.9524 0.637329Z" fill="#DDBE4F"/>
<path d="M71.4143 0.667038L80.2333 77.9876L57.6013 77.1805L71.4143 0.667038Z" fill="#DDBE4F"/>
<path d="M48.5898 3.69528L79.2942 74.6054L57.488 81.0059L48.5898 3.69528Z" fill="#DDBE4F"/>
<path d="M100.763 1.91211L112.085 78.8736H89.4401L100.763 1.91211Z" fill="#DDBE4F"/>
<path d="M125.826 6.90782L109.6 82.8992L88.5132 74.2464L125.826 6.90782Z" fill="#DDBE4F"/>
<ellipse cx="83.8629" cy="87.5287" rx="22.8326" ry="24.647" fill="#DD9C4F"/>
<path d="M83.6202 15.1952L106.128 79.8936H61.1119L83.6202 15.1952Z" fill="#DD9C4F"/>
<path d="M72.8049 15.2201L79.8502 80.2204L61.7699 79.5419L72.8049 15.2201Z" fill="#DD9C4F"/>
<path d="M54.5709 17.7658L79.1 77.377L61.6795 82.7577L54.5709 17.7658Z" fill="#DD9C4F"/>
<path d="M96.2509 16.2667L105.296 80.9652H87.2055L96.2509 16.2667Z" fill="#DD9C4F"/>
<path d="M116.273 20.4664L103.31 84.3493L86.4645 77.0752L116.273 20.4664Z" fill="#DD9C4F"/>
<ellipse cx="84.0272" cy="85.3857" rx="15.1649" ry="16.5924" fill="#DC583C"/>
<path d="M83.8657 36.6904L98.8152 80.2456H68.9162L83.8657 36.6904Z" fill="#DC583C"/>
<path d="M76.6826 36.7072L81.362 80.4656L69.3535 80.0088L76.6826 36.7072Z" fill="#DC583C"/>
<path d="M64.5718 38.421L80.8635 78.5515L69.2931 82.1737L64.5718 38.421Z" fill="#DC583C"/>
<path d="M92.255 37.4117L98.2628 80.9669H86.2473L92.255 37.4117Z" fill="#DC583C"/>
<path d="M105.553 40.239L96.9436 83.2451L85.755 78.3482L105.553 40.239Z" fill="#DC583C"/>
</svg>
