<svg width="207" height="536" viewBox="0 0 207 536" fill="none" xmlns="http://www.w3.org/2000/svg">
<path d="M108.12 405.054C108.12 439.808 105.044 471.257 100.077 494.005C97.5931 505.382 94.6415 514.556 91.3804 520.873C89.7496 524.032 88.0538 526.452 86.3208 528.076C84.5902 529.698 82.8529 530.5 81.1205 530.5C79.388 530.5 77.6508 529.698 75.9202 528.076C74.1872 526.452 72.4914 524.032 70.8605 520.873C67.5994 514.556 64.6478 505.382 62.1635 494.005C57.1967 471.257 54.1205 439.808 54.1205 405.054C54.1205 370.3 57.1967 338.85 62.1635 316.103C64.6478 304.725 67.5994 295.552 70.8605 289.234C72.4914 286.075 74.1872 283.655 75.9202 282.031C77.6508 280.409 79.388 279.608 81.1205 279.608C82.8529 279.608 84.5902 280.409 86.3208 282.031C88.0538 283.655 89.7496 286.075 91.3804 289.234C94.6415 295.552 97.5931 304.725 100.077 316.103C105.044 338.85 108.12 370.3 108.12 405.054Z" fill="#DDBBAD" stroke="#A67D6B"/>
<path d="M89.4472 255.224C80.5575 279.735 69.6266 300.853 59.152 315.18C53.9127 322.347 48.8048 327.791 44.1431 331.115C39.4659 334.451 35.3457 335.581 32.0121 334.363C28.6784 333.145 26.246 329.622 24.7995 324.05C23.3579 318.496 22.9318 311.031 23.5085 302.161C24.6614 284.429 29.8137 261.201 38.7034 236.69C47.593 212.179 58.5239 191.061 68.9985 176.734C74.2378 169.567 79.3457 164.123 84.0075 160.799C88.6847 157.463 92.8048 156.333 96.1385 157.551C99.4721 158.769 101.905 162.292 103.351 167.864C104.793 173.418 105.219 180.883 104.642 189.753C103.489 207.485 98.3368 230.714 89.4472 255.224Z" fill="#DDBBAD" stroke="#A67D6B"/>
<path d="M163.12 405.054C163.12 439.808 160.044 471.257 155.077 494.005C152.593 505.382 149.642 514.556 146.38 520.873C144.75 524.032 143.054 526.452 141.321 528.076C139.59 529.698 137.853 530.5 136.12 530.5C134.388 530.5 132.651 529.698 130.92 528.076C129.187 526.452 127.491 524.032 125.861 520.873C122.599 514.556 119.648 505.382 117.164 494.005C112.197 471.257 109.12 439.808 109.12 405.054C109.12 370.3 112.197 338.85 117.164 316.103C119.648 304.725 122.599 295.552 125.861 289.234C127.491 286.075 129.187 283.655 130.92 282.031C132.651 280.409 134.388 279.608 136.12 279.608C137.853 279.608 139.59 280.409 141.321 282.031C143.054 283.655 144.75 286.075 146.38 289.234C149.642 295.552 152.593 304.725 155.077 316.103C160.044 338.85 163.12 370.3 163.12 405.054Z" fill="#DDBBAD" stroke="#A67D6B"/>
<path d="M168.067 236.689C176.957 261.2 182.109 284.428 183.262 302.16C183.839 311.03 183.413 318.495 181.971 324.049C180.525 329.621 178.092 333.145 174.759 334.362C171.425 335.58 167.305 334.45 162.628 331.114C157.966 327.79 152.858 322.346 147.619 315.18C137.144 300.852 126.213 279.735 117.324 255.224C108.434 230.713 103.282 207.485 102.129 189.753C101.552 180.883 101.978 173.418 103.42 167.864C104.866 162.292 107.299 158.768 110.633 157.551C113.966 156.333 118.086 157.463 122.764 160.799C127.425 164.123 132.533 169.567 137.772 176.734C148.247 191.061 159.178 212.178 168.067 236.689Z" fill="#DDBBAD" stroke="#A67D6B"/>
<path d="M149.32 278.39C149.32 347.117 129.845 402.831 105.82 402.831C81.7958 402.831 62.3202 347.117 62.3202 278.39C62.3202 209.663 81.7958 153.949 105.82 153.949C129.845 153.949 149.32 209.663 149.32 278.39Z" fill="#DDBBAD"/>
<rect x="24.0001" y="86.425" width="168" height="42.1493" rx="21.0747" fill="black"/>
<rect x="41.0001" y="103.486" width="132" height="42.1493" rx="21.0747" fill="black"/>
<rect x="18.0001" y="34.2402" width="176" height="42.1493" rx="21.0747" fill="black"/>
<rect x="54.0001" y="9.15137" width="101" height="42.1493" rx="21.0747" fill="black"/>
<rect x="34.0001" y="18.1833" width="145" height="42.1493" rx="21.0747" fill="black"/>
<rect x="83.0001" y="3.12988" width="47" height="42.1493" rx="21.0747" fill="black"/>
<rect x="17.0001" y="58.3254" width="177" height="42.1493" rx="21.0747" fill="black"/>
<ellipse cx="107.62" cy="82.4108" rx="84" ry="72.256" fill="black"/>
<ellipse cx="107.5" cy="57.322" rx="38.5" ry="12.0427" fill="black"/>
<rect x="24.0001" y="86.425" width="168" height="42.1493" rx="21.0747" fill="black"/>
<rect x="41.0001" y="103.486" width="132" height="42.1493" rx="21.0747" fill="black"/>
<rect x="18.0001" y="34.2402" width="176" height="42.1493" rx="21.0747" fill="black"/>
<rect x="54.0001" y="9.15137" width="101" height="42.1493" rx="21.0747" fill="black"/>
<rect x="34.0001" y="18.1833" width="145" height="42.1493" rx="21.0747" fill="black"/>
<rect x="83.0001" y="3.12988" width="47" height="42.1493" rx="21.0747" fill="black"/>
<rect x="17.0001" y="58.3254" width="177" height="42.1493" rx="21.0747" fill="black"/>
<ellipse cx="107.62" cy="82.4108" rx="84" ry="72.256" fill="black"/>
<ellipse cx="105.62" cy="100.475" rx="54" ry="54.192" fill="#DDBBAD"/>
<line x1="99.6205" y1="115.028" x2="110.62" y2="115.028" stroke="black"/>
<line x1="91.6205" y1="128.074" x2="122.62" y2="128.074" stroke="black"/>
<ellipse cx="81.1205" cy="97.4642" rx="8.5" ry="11.0391" fill="#D9D9D9"/>
<ellipse cx="85.6205" cy="97.4642" rx="4" ry="6.02133" fill="black"/>
<ellipse cx="127.12" cy="97.4642" rx="8.5" ry="11.0391" fill="#D9D9D9"/>
<ellipse cx="131.62" cy="97.4642" rx="4" ry="6.02133" fill="black"/>
<ellipse cx="107.5" cy="57.322" rx="38.5" ry="12.0427" fill="black"/>
<path d="M105.007 216.589C99.7949 230.96 92.2025 242.895 84.1635 250.578C76.0993 258.286 67.7162 261.605 60.8565 259.099C53.9967 256.593 49.7008 248.643 48.4599 237.537C47.2229 226.466 49.0511 212.425 54.2633 198.054C59.4755 183.683 67.068 171.748 75.1069 164.065C83.1711 156.357 91.5543 153.038 98.414 155.544C105.274 158.049 109.57 166 110.811 177.106C112.048 188.177 110.219 202.218 105.007 216.589Z" fill="#3645CD" stroke="#3645CD"/>
<rect width="46.0192" height="65.9981" transform="matrix(0.939301 0.343093 -0.34095 0.940082 52.5022 201.293)" fill="#3645CD"/>
<rect width="47.4877" height="71.5495" transform="matrix(0.939301 -0.343093 0.34095 0.940082 112 217.562)" fill="#3645CD"/>
<path d="M165 278.126C165 346.609 140.376 402.126 110 402.126C79.6245 402.126 55.0001 346.609 55.0001 278.126C55.0001 209.643 79.6245 154.126 110 154.126C140.376 154.126 165 209.643 165 278.126Z" fill="#3645CD"/>
<path d="M156.163 200.524C161.375 214.895 163.203 228.935 161.966 240.007C160.725 251.113 156.429 259.063 149.57 261.569C142.71 264.074 134.327 260.755 126.263 253.048C118.224 245.365 110.631 233.43 105.419 219.059C100.207 204.687 98.3786 190.647 99.6156 179.576C100.856 168.469 105.152 160.519 112.012 158.013C118.872 155.508 127.255 158.827 135.319 166.534C143.358 174.218 150.951 186.152 156.163 200.524Z" fill="#3645CD" stroke="#3645CD"/>
<rect x="54.5" y="300.686" width="111" height="191.675" fill="#F2DDBE" stroke="#B19C7C"/>
<line x1="111.5" y1="350.36" x2="111.5" y2="491.861" stroke="#B19C7C"/>
<rect x="0.69697" y="0.112018" width="31.0391" height="173.919" transform="matrix(0.809366 -0.587305 0.584574 0.811341 47.0674 184.953)" fill="#F2DDBE" stroke="#B19C7C"/>
</svg>
