<svg width="588" height="153" viewBox="0 0 588 153" fill="none" xmlns="http://www.w3.org/2000/svg">
<rect width="588" height="153" fill="#F5E9D7"/>
<path d="M55.8864 45.322C55.8864 43.826 56.2238 42.484 56.8984 41.296C57.5731 40.0933 58.4898 39.1547 59.6484 38.48C60.8218 37.8053 62.1198 37.468 63.5424 37.468C65.2144 37.468 66.6738 37.8713 67.9204 38.678C69.1671 39.4847 70.0764 40.6287 70.6484 42.11H68.2504C67.8251 41.186 67.2091 40.4747 66.4024 39.976C65.6104 39.4773 64.6571 39.228 63.5424 39.228C62.4718 39.228 61.5111 39.4773 60.6604 39.976C59.8098 40.4747 59.1424 41.186 58.6584 42.11C58.1744 43.0193 57.9324 44.09 57.9324 45.322C57.9324 46.5393 58.1744 47.61 58.6584 48.534C59.1424 49.4433 59.8098 50.1473 60.6604 50.646C61.5111 51.1447 62.4718 51.394 63.5424 51.394C64.6571 51.394 65.6104 51.152 66.4024 50.668C67.2091 50.1693 67.8251 49.458 68.2504 48.534H70.6484C70.0764 50.0007 69.1671 51.1373 67.9204 51.944C66.6738 52.736 65.2144 53.132 63.5424 53.132C62.1198 53.132 60.8218 52.802 59.6484 52.142C58.4898 51.4673 57.5731 50.536 56.8984 49.348C56.2238 48.16 55.8864 46.818 55.8864 45.322ZM75.6306 36.72V53H73.6286V36.72H75.6306ZM78.2946 46.928C78.2946 45.696 78.544 44.618 79.0426 43.694C79.5413 42.7553 80.2233 42.0293 81.0886 41.516C81.9686 41.0027 82.944 40.746 84.0146 40.746C85.0706 40.746 85.9873 40.9733 86.7646 41.428C87.542 41.8827 88.1213 42.4547 88.5026 43.144V40.944H90.5266V53H88.5026V50.756C88.1066 51.46 87.5126 52.0467 86.7206 52.516C85.9433 52.9707 85.034 53.198 83.9926 53.198C82.922 53.198 81.954 52.934 81.0886 52.406C80.2233 51.878 79.5413 51.1373 79.0426 50.184C78.544 49.2307 78.2946 48.1453 78.2946 46.928ZM88.5026 46.95C88.5026 46.0407 88.3193 45.2487 87.9526 44.574C87.586 43.8993 87.0873 43.386 86.4566 43.034C85.8406 42.6673 85.1586 42.484 84.4106 42.484C83.6626 42.484 82.9806 42.66 82.3646 43.012C81.7486 43.364 81.2573 43.8773 80.8906 44.552C80.524 45.2267 80.3406 46.0187 80.3406 46.928C80.3406 47.852 80.524 48.6587 80.8906 49.348C81.2573 50.0227 81.7486 50.5433 82.3646 50.91C82.9806 51.262 83.6626 51.438 84.4106 51.438C85.1586 51.438 85.8406 51.262 86.4566 50.91C87.0873 50.5433 87.586 50.0227 87.9526 49.348C88.3193 48.6587 88.5026 47.8593 88.5026 46.95ZM95.9118 42.902C96.2638 42.2127 96.7625 41.6773 97.4078 41.296C98.0678 40.9147 98.8672 40.724 99.8058 40.724V42.792H99.2778C97.0338 42.792 95.9118 44.0093 95.9118 46.444V53H93.9098V40.944H95.9118V42.902ZM101.369 46.928C101.369 45.696 101.618 44.618 102.117 43.694C102.616 42.7553 103.298 42.0293 104.163 41.516C105.043 41.0027 106.018 40.746 107.089 40.746C108.145 40.746 109.062 40.9733 109.839 41.428C110.616 41.8827 111.196 42.4547 111.577 43.144V40.944H113.601V53H111.577V50.756C111.181 51.46 110.587 52.0467 109.795 52.516C109.018 52.9707 108.108 53.198 107.067 53.198C105.996 53.198 105.028 52.934 104.163 52.406C103.298 51.878 102.616 51.1373 102.117 50.184C101.618 49.2307 101.369 48.1453 101.369 46.928ZM111.577 46.95C111.577 46.0407 111.394 45.2487 111.027 44.574C110.66 43.8993 110.162 43.386 109.531 43.034C108.915 42.6673 108.233 42.484 107.485 42.484C106.737 42.484 106.055 42.66 105.439 43.012C104.823 43.364 104.332 43.8773 103.965 44.552C103.598 45.2267 103.415 46.0187 103.415 46.928C103.415 47.852 103.598 48.6587 103.965 49.348C104.332 50.0227 104.823 50.5433 105.439 50.91C106.055 51.262 106.737 51.438 107.485 51.438C108.233 51.438 108.915 51.262 109.531 50.91C110.162 50.5433 110.66 50.0227 111.027 49.348C111.394 48.6587 111.577 47.8593 111.577 46.95ZM117.996 35.488L117.732 39.866H116.346L116.06 35.488H117.996ZM124.754 53.198C123.83 53.198 123.001 53.044 122.268 52.736C121.535 52.4133 120.955 51.9733 120.53 51.416C120.105 50.844 119.87 50.1913 119.826 49.458H121.894C121.953 50.0593 122.231 50.5507 122.73 50.932C123.243 51.3133 123.911 51.504 124.732 51.504C125.495 51.504 126.096 51.3353 126.536 50.998C126.976 50.6607 127.196 50.2353 127.196 49.722C127.196 49.194 126.961 48.8053 126.492 48.556C126.023 48.292 125.297 48.0353 124.314 47.786C123.419 47.5513 122.686 47.3167 122.114 47.082C121.557 46.8327 121.073 46.4733 120.662 46.004C120.266 45.52 120.068 44.8893 120.068 44.112C120.068 43.496 120.251 42.9313 120.618 42.418C120.985 41.9047 121.505 41.5013 122.18 41.208C122.855 40.9 123.625 40.746 124.49 40.746C125.825 40.746 126.903 41.0833 127.724 41.758C128.545 42.4327 128.985 43.3567 129.044 44.53H127.042C126.998 43.8993 126.741 43.3933 126.272 43.012C125.817 42.6307 125.201 42.44 124.424 42.44C123.705 42.44 123.133 42.594 122.708 42.902C122.283 43.21 122.07 43.6133 122.07 44.112C122.07 44.508 122.195 44.838 122.444 45.102C122.708 45.3513 123.031 45.5567 123.412 45.718C123.808 45.8647 124.351 46.0333 125.04 46.224C125.905 46.4587 126.609 46.6933 127.152 46.928C127.695 47.148 128.157 47.4853 128.538 47.94C128.934 48.3947 129.139 48.9887 129.154 49.722C129.154 50.382 128.971 50.976 128.604 51.504C128.237 52.032 127.717 52.45 127.042 52.758C126.382 53.0513 125.619 53.198 124.754 53.198ZM142.751 42.594H140.221V53H138.219V42.594H136.657V40.944H138.219V40.086C138.219 38.7367 138.564 37.754 139.253 37.138C139.957 36.5073 141.079 36.192 142.619 36.192V37.864C141.739 37.864 141.116 38.04 140.749 38.392C140.397 38.7293 140.221 39.294 140.221 40.086V40.944H142.751V42.594ZM147.088 42.902C147.44 42.2127 147.938 41.6773 148.584 41.296C149.244 40.9147 150.043 40.724 150.982 40.724V42.792H150.454C148.21 42.792 147.088 44.0093 147.088 46.444V53H145.086V40.944H147.088V42.902ZM154.327 38.986C153.945 38.986 153.623 38.854 153.359 38.59C153.095 38.326 152.963 38.0033 152.963 37.622C152.963 37.2407 153.095 36.918 153.359 36.654C153.623 36.39 153.945 36.258 154.327 36.258C154.693 36.258 155.001 36.39 155.251 36.654C155.515 36.918 155.647 37.2407 155.647 37.622C155.647 38.0033 155.515 38.326 155.251 38.59C155.001 38.854 154.693 38.986 154.327 38.986ZM155.295 40.944V53H153.293V40.944H155.295ZM169.707 46.51C169.707 46.8913 169.685 47.2947 169.641 47.72H160.005C160.078 48.908 160.481 49.8393 161.215 50.514C161.963 51.174 162.865 51.504 163.921 51.504C164.786 51.504 165.505 51.306 166.077 50.91C166.663 50.4993 167.074 49.9567 167.309 49.282H169.465C169.142 50.4407 168.497 51.3867 167.529 52.12C166.561 52.8387 165.358 53.198 163.921 53.198C162.777 53.198 161.75 52.9413 160.841 52.428C159.946 51.9147 159.242 51.1887 158.729 50.25C158.215 49.2967 157.959 48.1967 157.959 46.95C157.959 45.7033 158.208 44.6107 158.707 43.672C159.205 42.7333 159.902 42.0147 160.797 41.516C161.706 41.0027 162.747 40.746 163.921 40.746C165.065 40.746 166.077 40.9953 166.957 41.494C167.837 41.9927 168.511 42.682 168.981 43.562C169.465 44.4273 169.707 45.41 169.707 46.51ZM167.639 46.092C167.639 45.3293 167.47 44.6767 167.133 44.134C166.795 43.5767 166.333 43.1587 165.747 42.88C165.175 42.5867 164.537 42.44 163.833 42.44C162.821 42.44 161.955 42.7627 161.237 43.408C160.533 44.0533 160.129 44.948 160.027 46.092H167.639ZM178.223 40.724C179.69 40.724 180.878 41.1713 181.787 42.066C182.697 42.946 183.151 44.222 183.151 45.894V53H181.171V46.18C181.171 44.9773 180.871 44.0607 180.269 43.43C179.668 42.7847 178.847 42.462 177.805 42.462C176.749 42.462 175.906 42.792 175.275 43.452C174.659 44.112 174.351 45.0727 174.351 46.334V53H172.349V40.944H174.351V42.66C174.747 42.044 175.283 41.5673 175.957 41.23C176.647 40.8927 177.402 40.724 178.223 40.724ZM185.674 46.928C185.674 45.696 185.923 44.618 186.422 43.694C186.92 42.7553 187.602 42.0293 188.468 41.516C189.348 41.0027 190.33 40.746 191.416 40.746C192.354 40.746 193.227 40.966 194.034 41.406C194.84 41.8313 195.456 42.396 195.882 43.1V36.72H197.906V53H195.882V50.734C195.486 51.4527 194.899 52.0467 194.122 52.516C193.344 52.9707 192.435 53.198 191.394 53.198C190.323 53.198 189.348 52.934 188.468 52.406C187.602 51.878 186.92 51.1373 186.422 50.184C185.923 49.2307 185.674 48.1453 185.674 46.928ZM195.882 46.95C195.882 46.0407 195.698 45.2487 195.332 44.574C194.965 43.8993 194.466 43.386 193.836 43.034C193.22 42.6673 192.538 42.484 191.79 42.484C191.042 42.484 190.36 42.66 189.744 43.012C189.128 43.364 188.636 43.8773 188.27 44.552C187.903 45.2267 187.72 46.0187 187.72 46.928C187.72 47.852 187.903 48.6587 188.27 49.348C188.636 50.0227 189.128 50.5433 189.744 50.91C190.36 51.262 191.042 51.438 191.79 51.438C192.538 51.438 193.22 51.262 193.836 50.91C194.466 50.5433 194.965 50.0227 195.332 49.348C195.698 48.6587 195.882 47.8593 195.882 46.95ZM205.557 53.198C204.633 53.198 203.804 53.044 203.071 52.736C202.337 52.4133 201.758 51.9733 201.333 51.416C200.907 50.844 200.673 50.1913 200.629 49.458H202.697C202.755 50.0593 203.034 50.5507 203.533 50.932C204.046 51.3133 204.713 51.504 205.535 51.504C206.297 51.504 206.899 51.3353 207.339 50.998C207.779 50.6607 207.999 50.2353 207.999 49.722C207.999 49.194 207.764 48.8053 207.295 48.556C206.825 48.292 206.099 48.0353 205.117 47.786C204.222 47.5513 203.489 47.3167 202.917 47.082C202.359 46.8327 201.875 46.4733 201.465 46.004C201.069 45.52 200.871 44.8893 200.871 44.112C200.871 43.496 201.054 42.9313 201.421 42.418C201.787 41.9047 202.308 41.5013 202.983 41.208C203.657 40.9 204.427 40.746 205.293 40.746C206.627 40.746 207.705 41.0833 208.527 41.758C209.348 42.4327 209.788 43.3567 209.847 44.53H207.845C207.801 43.8993 207.544 43.3933 207.075 43.012C206.62 42.6307 206.004 42.44 205.227 42.44C204.508 42.44 203.936 42.594 203.511 42.902C203.085 43.21 202.873 43.6133 202.873 44.112C202.873 44.508 202.997 44.838 203.247 45.102C203.511 45.3513 203.833 45.5567 204.215 45.718C204.611 45.8647 205.153 46.0333 205.843 46.224C206.708 46.4587 207.412 46.6933 207.955 46.928C208.497 47.148 208.959 47.4853 209.341 47.94C209.737 48.3947 209.942 48.9887 209.957 49.722C209.957 50.382 209.773 50.976 209.407 51.504C209.04 52.032 208.519 52.45 207.845 52.758C207.185 53.0513 206.422 53.198 205.557 53.198ZM234.708 40.944L230.946 53H228.878L225.974 43.43L223.07 53H221.002L217.218 40.944H219.264L222.036 51.064L225.028 40.944H227.074L230 51.086L232.728 40.944H234.708ZM247.695 46.51C247.695 46.8913 247.673 47.2947 247.629 47.72H237.993C238.066 48.908 238.47 49.8393 239.203 50.514C239.951 51.174 240.853 51.504 241.909 51.504C242.774 51.504 243.493 51.306 244.065 50.91C244.652 50.4993 245.062 49.9567 245.297 49.282H247.453C247.13 50.4407 246.485 51.3867 245.517 52.12C244.549 52.8387 243.346 53.198 241.909 53.198C240.765 53.198 239.738 52.9413 238.829 52.428C237.934 51.9147 237.23 51.1887 236.717 50.25C236.204 49.2967 235.947 48.1967 235.947 46.95C235.947 45.7033 236.196 44.6107 236.695 43.672C237.194 42.7333 237.89 42.0147 238.785 41.516C239.694 41.0027 240.736 40.746 241.909 40.746C243.053 40.746 244.065 40.9953 244.945 41.494C245.825 41.9927 246.5 42.682 246.969 43.562C247.453 44.4273 247.695 45.41 247.695 46.51ZM245.627 46.092C245.627 45.3293 245.458 44.6767 245.121 44.134C244.784 43.5767 244.322 43.1587 243.735 42.88C243.163 42.5867 242.525 42.44 241.821 42.44C240.809 42.44 239.944 42.7627 239.225 43.408C238.521 44.0533 238.118 44.948 238.015 46.092H245.627ZM252.34 42.902C252.692 42.2127 253.19 41.6773 253.836 41.296C254.496 40.9147 255.295 40.724 256.234 40.724V42.792H255.706C253.462 42.792 252.34 44.0093 252.34 46.444V53H250.338V40.944H252.34V42.902ZM269.545 46.51C269.545 46.8913 269.523 47.2947 269.479 47.72H259.843C259.916 48.908 260.319 49.8393 261.053 50.514C261.801 51.174 262.703 51.504 263.759 51.504C264.624 51.504 265.343 51.306 265.915 50.91C266.501 50.4993 266.912 49.9567 267.147 49.282H269.303C268.98 50.4407 268.335 51.3867 267.367 52.12C266.399 52.8387 265.196 53.198 263.759 53.198C262.615 53.198 261.588 52.9413 260.679 52.428C259.784 51.9147 259.08 51.1887 258.567 50.25C258.053 49.2967 257.797 48.1967 257.797 46.95C257.797 45.7033 258.046 44.6107 258.545 43.672C259.043 42.7333 259.74 42.0147 260.635 41.516C261.544 41.0027 262.585 40.746 263.759 40.746C264.903 40.746 265.915 40.9953 266.795 41.494C267.675 41.9927 268.349 42.682 268.819 43.562C269.303 44.4273 269.545 45.41 269.545 46.51ZM267.477 46.092C267.477 45.3293 267.308 44.6767 266.971 44.134C266.633 43.5767 266.171 43.1587 265.585 42.88C265.013 42.5867 264.375 42.44 263.671 42.44C262.659 42.44 261.793 42.7627 261.075 43.408C260.371 44.0533 259.967 44.948 259.865 46.092H267.477ZM282.32 53.198C281.396 53.198 280.568 53.044 279.834 52.736C279.101 52.4133 278.522 51.9733 278.096 51.416C277.671 50.844 277.436 50.1913 277.392 49.458H279.46C279.519 50.0593 279.798 50.5507 280.296 50.932C280.81 51.3133 281.477 51.504 282.298 51.504C283.061 51.504 283.662 51.3353 284.102 50.998C284.542 50.6607 284.762 50.2353 284.762 49.722C284.762 49.194 284.528 48.8053 284.058 48.556C283.589 48.292 282.863 48.0353 281.88 47.786C280.986 47.5513 280.252 47.3167 279.68 47.082C279.123 46.8327 278.639 46.4733 278.228 46.004C277.832 45.52 277.634 44.8893 277.634 44.112C277.634 43.496 277.818 42.9313 278.184 42.418C278.551 41.9047 279.072 41.5013 279.746 41.208C280.421 40.9 281.191 40.746 282.056 40.746C283.391 40.746 284.469 41.0833 285.29 41.758C286.112 42.4327 286.552 43.3567 286.61 44.53H284.608C284.564 43.8993 284.308 43.3933 283.838 43.012C283.384 42.6307 282.768 42.44 281.99 42.44C281.272 42.44 280.7 42.594 280.274 42.902C279.849 43.21 279.636 43.6133 279.636 44.112C279.636 44.508 279.761 44.838 280.01 45.102C280.274 45.3513 280.597 45.5567 280.978 45.718C281.374 45.8647 281.917 46.0333 282.606 46.224C283.472 46.4587 284.176 46.6933 284.718 46.928C285.261 47.148 285.723 47.4853 286.104 47.94C286.5 48.3947 286.706 48.9887 286.72 49.722C286.72 50.382 286.537 50.976 286.17 51.504C285.804 52.032 285.283 52.45 284.608 52.758C283.948 53.0513 283.186 53.198 282.32 53.198ZM288.799 46.95C288.799 45.7033 289.048 44.618 289.547 43.694C290.045 42.7553 290.735 42.0293 291.615 41.516C292.509 41.0027 293.529 40.746 294.673 40.746C296.154 40.746 297.371 41.1053 298.325 41.824C299.293 42.5427 299.931 43.54 300.239 44.816H298.083C297.877 44.0827 297.474 43.5033 296.873 43.078C296.286 42.6527 295.553 42.44 294.673 42.44C293.529 42.44 292.605 42.836 291.901 43.628C291.197 44.4053 290.845 45.5127 290.845 46.95C290.845 48.402 291.197 49.524 291.901 50.316C292.605 51.108 293.529 51.504 294.673 51.504C295.553 51.504 296.286 51.2987 296.873 50.888C297.459 50.4773 297.863 49.8907 298.083 49.128H300.239C299.916 50.36 299.271 51.35 298.303 52.098C297.335 52.8313 296.125 53.198 294.673 53.198C293.529 53.198 292.509 52.9413 291.615 52.428C290.735 51.9147 290.045 51.1887 289.547 50.25C289.048 49.3113 288.799 48.2113 288.799 46.95ZM302.162 46.928C302.162 45.696 302.411 44.618 302.91 43.694C303.408 42.7553 304.09 42.0293 304.956 41.516C305.836 41.0027 306.811 40.746 307.882 40.746C308.938 40.746 309.854 40.9733 310.632 41.428C311.409 41.8827 311.988 42.4547 312.37 43.144V40.944H314.394V53H312.37V50.756C311.974 51.46 311.38 52.0467 310.588 52.516C309.81 52.9707 308.901 53.198 307.86 53.198C306.789 53.198 305.821 52.934 304.956 52.406C304.09 51.878 303.408 51.1373 302.91 50.184C302.411 49.2307 302.162 48.1453 302.162 46.928ZM312.37 46.95C312.37 46.0407 312.186 45.2487 311.82 44.574C311.453 43.8993 310.954 43.386 310.324 43.034C309.708 42.6673 309.026 42.484 308.278 42.484C307.53 42.484 306.848 42.66 306.232 43.012C305.616 43.364 305.124 43.8773 304.758 44.552C304.391 45.2267 304.208 46.0187 304.208 46.928C304.208 47.852 304.391 48.6587 304.758 49.348C305.124 50.0227 305.616 50.5433 306.232 50.91C306.848 51.262 307.53 51.438 308.278 51.438C309.026 51.438 309.708 51.262 310.324 50.91C310.954 50.5433 311.453 50.0227 311.82 49.348C312.186 48.6587 312.37 47.8593 312.37 46.95ZM319.779 42.902C320.131 42.2127 320.63 41.6773 321.275 41.296C321.935 40.9147 322.734 40.724 323.673 40.724V42.792H323.145C320.901 42.792 319.779 44.0093 319.779 46.444V53H317.777V40.944H319.779V42.902ZM336.984 46.51C336.984 46.8913 336.962 47.2947 336.918 47.72H327.282C327.355 48.908 327.759 49.8393 328.492 50.514C329.24 51.174 330.142 51.504 331.198 51.504C332.063 51.504 332.782 51.306 333.354 50.91C333.941 50.4993 334.351 49.9567 334.586 49.282H336.742C336.419 50.4407 335.774 51.3867 334.806 52.12C333.838 52.8387 332.635 53.198 331.198 53.198C330.054 53.198 329.027 52.9413 328.118 52.428C327.223 51.9147 326.519 51.1887 326.006 50.25C325.493 49.2967 325.236 48.1967 325.236 46.95C325.236 45.7033 325.485 44.6107 325.984 43.672C326.483 42.7333 327.179 42.0147 328.074 41.516C328.983 41.0027 330.025 40.746 331.198 40.746C332.342 40.746 333.354 40.9953 334.234 41.494C335.114 41.9927 335.789 42.682 336.258 43.562C336.742 44.4273 336.984 45.41 336.984 46.51ZM334.916 46.092C334.916 45.3293 334.747 44.6767 334.41 44.134C334.073 43.5767 333.611 43.1587 333.024 42.88C332.452 42.5867 331.814 42.44 331.11 42.44C330.098 42.44 329.233 42.7627 328.514 43.408C327.81 44.0533 327.407 44.948 327.304 46.092H334.916ZM338.879 46.928C338.879 45.696 339.128 44.618 339.627 43.694C340.125 42.7553 340.807 42.0293 341.673 41.516C342.553 41.0027 343.535 40.746 344.621 40.746C345.559 40.746 346.432 40.966 347.239 41.406C348.045 41.8313 348.661 42.396 349.087 43.1V36.72H351.111V53H349.087V50.734C348.691 51.4527 348.104 52.0467 347.327 52.516C346.549 52.9707 345.64 53.198 344.599 53.198C343.528 53.198 342.553 52.934 341.673 52.406C340.807 51.878 340.125 51.1373 339.627 50.184C339.128 49.2307 338.879 48.1453 338.879 46.928ZM349.087 46.95C349.087 46.0407 348.903 45.2487 348.537 44.574C348.17 43.8993 347.671 43.386 347.041 43.034C346.425 42.6673 345.743 42.484 344.995 42.484C344.247 42.484 343.565 42.66 342.949 43.012C342.333 43.364 341.841 43.8773 341.475 44.552C341.108 45.2267 340.925 46.0187 340.925 46.928C340.925 47.852 341.108 48.6587 341.475 49.348C341.841 50.0227 342.333 50.5433 342.949 50.91C343.565 51.262 344.247 51.438 344.995 51.438C345.743 51.438 346.425 51.262 347.041 50.91C347.671 50.5433 348.17 50.0227 348.537 49.348C348.903 48.6587 349.087 47.8593 349.087 46.95ZM365.617 53.198C364.488 53.198 363.461 52.9413 362.537 52.428C361.628 51.9147 360.909 51.1887 360.381 50.25C359.868 49.2967 359.611 48.1967 359.611 46.95C359.611 45.718 359.875 44.6327 360.403 43.694C360.946 42.7407 361.679 42.0147 362.603 41.516C363.527 41.0027 364.561 40.746 365.705 40.746C366.849 40.746 367.883 41.0027 368.807 41.516C369.731 42.0147 370.457 42.7333 370.985 43.672C371.528 44.6107 371.799 45.7033 371.799 46.95C371.799 48.1967 371.52 49.2967 370.963 50.25C370.42 51.1887 369.68 51.9147 368.741 52.428C367.802 52.9413 366.761 53.198 365.617 53.198ZM365.617 51.438C366.336 51.438 367.01 51.2693 367.641 50.932C368.272 50.5947 368.778 50.0887 369.159 49.414C369.555 48.7393 369.753 47.918 369.753 46.95C369.753 45.982 369.562 45.1607 369.181 44.486C368.8 43.8113 368.301 43.3127 367.685 42.99C367.069 42.6527 366.402 42.484 365.683 42.484C364.95 42.484 364.275 42.6527 363.659 42.99C363.058 43.3127 362.574 43.8113 362.207 44.486C361.84 45.1607 361.657 45.982 361.657 46.95C361.657 47.9327 361.833 48.7613 362.185 49.436C362.552 50.1107 363.036 50.6167 363.637 50.954C364.238 51.2767 364.898 51.438 365.617 51.438ZM379.337 42.594H376.807V53H374.805V42.594H373.243V40.944H374.805V40.086C374.805 38.7367 375.15 37.754 375.839 37.138C376.543 36.5073 377.665 36.192 379.205 36.192V37.864C378.325 37.864 377.702 38.04 377.335 38.392C376.983 38.7293 376.807 39.294 376.807 40.086V40.944H379.337V42.594ZM391.805 53.198C390.881 53.198 390.052 53.044 389.319 52.736C388.585 52.4133 388.006 51.9733 387.581 51.416C387.155 50.844 386.921 50.1913 386.877 49.458H388.945C389.003 50.0593 389.282 50.5507 389.781 50.932C390.294 51.3133 390.961 51.504 391.783 51.504C392.545 51.504 393.147 51.3353 393.587 50.998C394.027 50.6607 394.247 50.2353 394.247 49.722C394.247 49.194 394.012 48.8053 393.543 48.556C393.073 48.292 392.347 48.0353 391.365 47.786C390.47 47.5513 389.737 47.3167 389.165 47.082C388.607 46.8327 388.123 46.4733 387.713 46.004C387.317 45.52 387.119 44.8893 387.119 44.112C387.119 43.496 387.302 42.9313 387.669 42.418C388.035 41.9047 388.556 41.5013 389.231 41.208C389.905 40.9 390.675 40.746 391.541 40.746C392.875 40.746 393.953 41.0833 394.775 41.758C395.596 42.4327 396.036 43.3567 396.095 44.53H394.093C394.049 43.8993 393.792 43.3933 393.323 43.012C392.868 42.6307 392.252 42.44 391.475 42.44C390.756 42.44 390.184 42.594 389.759 42.902C389.333 43.21 389.121 43.6133 389.121 44.112C389.121 44.508 389.245 44.838 389.495 45.102C389.759 45.3513 390.081 45.5567 390.463 45.718C390.859 45.8647 391.401 46.0333 392.091 46.224C392.956 46.4587 393.66 46.6933 394.203 46.928C394.745 47.148 395.207 47.4853 395.589 47.94C395.985 48.3947 396.19 48.9887 396.205 49.722C396.205 50.382 396.021 50.976 395.655 51.504C395.288 52.032 394.767 52.45 394.093 52.758C393.433 53.0513 392.67 53.198 391.805 53.198ZM401.473 42.594V49.7C401.473 50.2867 401.598 50.7047 401.847 50.954C402.096 51.1887 402.529 51.306 403.145 51.306H404.619V53H402.815C401.7 53 400.864 52.7433 400.307 52.23C399.75 51.7167 399.471 50.8733 399.471 49.7V42.594H397.909V40.944H399.471V37.908H401.473V40.944H404.619V42.594H401.473ZM409.047 42.902C409.399 42.2127 409.897 41.6773 410.543 41.296C411.203 40.9147 412.002 40.724 412.941 40.724V42.792H412.413C410.169 42.792 409.047 44.0093 409.047 46.444V53H407.045V40.944H409.047V42.902ZM414.504 46.928C414.504 45.696 414.753 44.618 415.252 43.694C415.75 42.7553 416.432 42.0293 417.298 41.516C418.178 41.0027 419.153 40.746 420.224 40.746C421.28 40.746 422.196 40.9733 422.974 41.428C423.751 41.8827 424.33 42.4547 424.712 43.144V40.944H426.736V53H424.712V50.756C424.316 51.46 423.722 52.0467 422.93 52.516C422.152 52.9707 421.243 53.198 420.202 53.198C419.131 53.198 418.163 52.934 417.298 52.406C416.432 51.878 415.75 51.1373 415.252 50.184C414.753 49.2307 414.504 48.1453 414.504 46.928ZM424.712 46.95C424.712 46.0407 424.528 45.2487 424.162 44.574C423.795 43.8993 423.296 43.386 422.666 43.034C422.05 42.6673 421.368 42.484 420.62 42.484C419.872 42.484 419.19 42.66 418.574 43.012C417.958 43.364 417.466 43.8773 417.1 44.552C416.733 45.2267 416.55 46.0187 416.55 46.928C416.55 47.852 416.733 48.6587 417.1 49.348C417.466 50.0227 417.958 50.5433 418.574 50.91C419.19 51.262 419.872 51.438 420.62 51.438C421.368 51.438 422.05 51.262 422.666 50.91C423.296 50.5433 423.795 50.0227 424.162 49.348C424.528 48.6587 424.712 47.8593 424.712 46.95ZM435.993 40.724C437.459 40.724 438.647 41.1713 439.557 42.066C440.466 42.946 440.921 44.222 440.921 45.894V53H438.941V46.18C438.941 44.9773 438.64 44.0607 438.039 43.43C437.437 42.7847 436.616 42.462 435.575 42.462C434.519 42.462 433.675 42.792 433.045 43.452C432.429 44.112 432.121 45.0727 432.121 46.334V53H430.119V40.944H432.121V42.66C432.517 42.044 433.052 41.5673 433.727 41.23C434.416 40.8927 435.171 40.724 435.993 40.724ZM449.163 40.746C450.204 40.746 451.114 40.9733 451.891 41.428C452.683 41.8827 453.27 42.4547 453.651 43.144V40.944H455.675V53.264C455.675 54.364 455.44 55.3393 454.971 56.19C454.502 57.0553 453.827 57.73 452.947 58.214C452.082 58.698 451.07 58.94 449.911 58.94C448.327 58.94 447.007 58.566 445.951 57.818C444.895 57.07 444.272 56.0507 444.081 54.76H446.061C446.281 55.4933 446.736 56.08 447.425 56.52C448.114 56.9747 448.943 57.202 449.911 57.202C451.011 57.202 451.906 56.8573 452.595 56.168C453.299 55.4787 453.651 54.5107 453.651 53.264V50.734C453.255 51.438 452.668 52.0247 451.891 52.494C451.114 52.9633 450.204 53.198 449.163 53.198C448.092 53.198 447.117 52.934 446.237 52.406C445.372 51.878 444.69 51.1373 444.191 50.184C443.692 49.2307 443.443 48.1453 443.443 46.928C443.443 45.696 443.692 44.618 444.191 43.694C444.69 42.7553 445.372 42.0293 446.237 41.516C447.117 41.0027 448.092 40.746 449.163 40.746ZM453.651 46.95C453.651 46.0407 453.468 45.2487 453.101 44.574C452.734 43.8993 452.236 43.386 451.605 43.034C450.989 42.6673 450.307 42.484 449.559 42.484C448.811 42.484 448.129 42.66 447.513 43.012C446.897 43.364 446.406 43.8773 446.039 44.552C445.672 45.2267 445.489 46.0187 445.489 46.928C445.489 47.852 445.672 48.6587 446.039 49.348C446.406 50.0227 446.897 50.5433 447.513 50.91C448.129 51.262 448.811 51.438 449.559 51.438C450.307 51.438 450.989 51.262 451.605 50.91C452.236 50.5433 452.734 50.0227 453.101 49.348C453.468 48.6587 453.651 47.8593 453.651 46.95ZM470.058 46.51C470.058 46.8913 470.036 47.2947 469.992 47.72H460.356C460.43 48.908 460.833 49.8393 461.566 50.514C462.314 51.174 463.216 51.504 464.272 51.504C465.138 51.504 465.856 51.306 466.428 50.91C467.015 50.4993 467.426 49.9567 467.66 49.282H469.816C469.494 50.4407 468.848 51.3867 467.88 52.12C466.912 52.8387 465.71 53.198 464.272 53.198C463.128 53.198 462.102 52.9413 461.192 52.428C460.298 51.9147 459.594 51.1887 459.08 50.25C458.567 49.2967 458.31 48.1967 458.31 46.95C458.31 45.7033 458.56 44.6107 459.058 43.672C459.557 42.7333 460.254 42.0147 461.148 41.516C462.058 41.0027 463.099 40.746 464.272 40.746C465.416 40.746 466.428 40.9953 467.308 41.494C468.188 41.9927 468.863 42.682 469.332 43.562C469.816 44.4273 470.058 45.41 470.058 46.51ZM467.99 46.092C467.99 45.3293 467.822 44.6767 467.484 44.134C467.147 43.5767 466.685 43.1587 466.098 42.88C465.526 42.5867 464.888 42.44 464.184 42.44C463.172 42.44 462.307 42.7627 461.588 43.408C460.884 44.0533 460.481 44.948 460.378 46.092H467.99ZM474.703 42.902C475.055 42.2127 475.554 41.6773 476.199 41.296C476.859 40.9147 477.658 40.724 478.597 40.724V42.792H478.069C475.825 42.792 474.703 44.0093 474.703 46.444V53H472.701V40.944H474.703V42.902ZM485.176 53.198C484.252 53.198 483.423 53.044 482.69 52.736C481.957 52.4133 481.377 51.9733 480.952 51.416C480.527 50.844 480.292 50.1913 480.248 49.458H482.316C482.375 50.0593 482.653 50.5507 483.152 50.932C483.665 51.3133 484.333 51.504 485.154 51.504C485.917 51.504 486.518 51.3353 486.958 50.998C487.398 50.6607 487.618 50.2353 487.618 49.722C487.618 49.194 487.383 48.8053 486.914 48.556C486.445 48.292 485.719 48.0353 484.736 47.786C483.841 47.5513 483.108 47.3167 482.536 47.082C481.979 46.8327 481.495 46.4733 481.084 46.004C480.688 45.52 480.49 44.8893 480.49 44.112C480.49 43.496 480.673 42.9313 481.04 42.418C481.407 41.9047 481.927 41.5013 482.602 41.208C483.277 40.9 484.047 40.746 484.912 40.746C486.247 40.746 487.325 41.0833 488.146 41.758C488.967 42.4327 489.407 43.3567 489.466 44.53H487.464C487.42 43.8993 487.163 43.3933 486.694 43.012C486.239 42.6307 485.623 42.44 484.846 42.44C484.127 42.44 483.555 42.594 483.13 42.902C482.705 43.21 482.492 43.6133 482.492 44.112C482.492 44.508 482.617 44.838 482.866 45.102C483.13 45.3513 483.453 45.5567 483.834 45.718C484.23 45.8647 484.773 46.0333 485.462 46.224C486.327 46.4587 487.031 46.6933 487.574 46.928C488.117 47.148 488.579 47.4853 488.96 47.94C489.356 48.3947 489.561 48.9887 489.576 49.722C489.576 50.382 489.393 50.976 489.026 51.504C488.659 52.032 488.139 52.45 487.464 52.758C486.804 53.0513 486.041 53.198 485.176 53.198ZM499.301 38.986C498.92 38.986 498.597 38.854 498.333 38.59C498.069 38.326 497.937 38.0033 497.937 37.622C497.937 37.2407 498.069 36.918 498.333 36.654C498.597 36.39 498.92 36.258 499.301 36.258C499.668 36.258 499.976 36.39 500.225 36.654C500.489 36.918 500.621 37.2407 500.621 37.622C500.621 38.0033 500.489 38.326 500.225 38.59C499.976 38.854 499.668 38.986 499.301 38.986ZM500.269 40.944V53H498.267V40.944H500.269ZM509.555 40.724C511.022 40.724 512.21 41.1713 513.119 42.066C514.029 42.946 514.483 44.222 514.483 45.894V53H512.503V46.18C512.503 44.9773 512.203 44.0607 511.601 43.43C511 42.7847 510.179 42.462 509.137 42.462C508.081 42.462 507.238 42.792 506.607 43.452C505.991 44.112 505.683 45.0727 505.683 46.334V53H503.681V40.944H505.683V42.66C506.079 42.044 506.615 41.5673 507.289 41.23C507.979 40.8927 508.734 40.724 509.555 40.724ZM50.7298 75.594V82.7C50.7298 83.2867 50.8544 83.7047 51.1038 83.954C51.3531 84.1887 51.7858 84.306 52.4017 84.306H53.8758V86H52.0718C50.9571 86 50.1211 85.7433 49.5638 85.23C49.0064 84.7167 48.7278 83.8733 48.7278 82.7V75.594H47.1658V73.944H48.7278V70.908H50.7298V73.944H53.8758V75.594H50.7298ZM62.2854 73.724C63.1948 73.724 64.0161 73.922 64.7494 74.318C65.4828 74.6993 66.0548 75.2787 66.4654 76.056C66.8908 76.8333 67.1034 77.7793 67.1034 78.894V86H65.1234V79.18C65.1234 77.9773 64.8228 77.0607 64.2214 76.43C63.6201 75.7847 62.7988 75.462 61.7574 75.462C60.7014 75.462 59.8581 75.792 59.2274 76.452C58.6114 77.112 58.3034 78.0727 58.3034 79.334V86H56.3014V69.72H58.3034V75.66C58.6994 75.044 59.2421 74.5673 59.9314 74.23C60.6354 73.8927 61.4201 73.724 62.2854 73.724ZM81.3737 79.51C81.3737 79.8913 81.3517 80.2947 81.3077 80.72H71.6717C71.745 81.908 72.1484 82.8393 72.8817 83.514C73.6297 84.174 74.5317 84.504 75.5877 84.504C76.453 84.504 77.1717 84.306 77.7437 83.91C78.3304 83.4993 78.741 82.9567 78.9757 82.282H81.1317C80.809 83.4407 80.1637 84.3867 79.1957 85.12C78.2277 85.8387 77.025 86.198 75.5877 86.198C74.4437 86.198 73.417 85.9413 72.5077 85.428C71.613 84.9147 70.909 84.1887 70.3957 83.25C69.8824 82.2967 69.6257 81.1967 69.6257 79.95C69.6257 78.7033 69.875 77.6107 70.3737 76.672C70.8724 75.7333 71.569 75.0147 72.4637 74.516C73.373 74.0027 74.4144 73.746 75.5877 73.746C76.7317 73.746 77.7437 73.9953 78.6237 74.494C79.5037 74.9927 80.1784 75.682 80.6477 76.562C81.1317 77.4273 81.3737 78.41 81.3737 79.51ZM79.3057 79.092C79.3057 78.3293 79.137 77.6767 78.7997 77.134C78.4624 76.5767 78.0004 76.1587 77.4137 75.88C76.8417 75.5867 76.2037 75.44 75.4997 75.44C74.4877 75.44 73.6224 75.7627 72.9037 76.408C72.1997 77.0533 71.7964 77.948 71.6937 79.092H79.3057ZM85.0503 71.986C84.6689 71.986 84.3463 71.854 84.0823 71.59C83.8183 71.326 83.6863 71.0033 83.6863 70.622C83.6863 70.2407 83.8183 69.918 84.0823 69.654C84.3463 69.39 84.6689 69.258 85.0503 69.258C85.4169 69.258 85.7249 69.39 85.9743 69.654C86.2383 69.918 86.3703 70.2407 86.3703 70.622C86.3703 71.0033 86.2383 71.326 85.9743 71.59C85.7249 71.854 85.4169 71.986 85.0503 71.986ZM86.0183 73.944V86H84.0163V73.944H86.0183ZM91.4323 75.902C91.7843 75.2127 92.283 74.6773 92.9283 74.296C93.5883 73.9147 94.3877 73.724 95.3263 73.724V75.792H94.7983C92.5543 75.792 91.4323 77.0093 91.4323 79.444V86H89.4303V73.944H91.4323V75.902ZM107.991 84.152L111.731 73.944H113.865L109.135 86H106.803L102.073 73.944H104.229L107.991 84.152ZM116.869 71.986C116.487 71.986 116.165 71.854 115.901 71.59C115.637 71.326 115.505 71.0033 115.505 70.622C115.505 70.2407 115.637 69.918 115.901 69.654C116.165 69.39 116.487 69.258 116.869 69.258C117.235 69.258 117.543 69.39 117.793 69.654C118.057 69.918 118.189 70.2407 118.189 70.622C118.189 71.0033 118.057 71.326 117.793 71.59C117.543 71.854 117.235 71.986 116.869 71.986ZM117.837 73.944V86H115.835V73.944H117.837ZM123.251 69.72V86H121.249V69.72H123.251ZM128.665 69.72V86H126.663V69.72H128.665ZM131.329 79.928C131.329 78.696 131.578 77.618 132.077 76.694C132.575 75.7553 133.257 75.0293 134.123 74.516C135.003 74.0027 135.978 73.746 137.049 73.746C138.105 73.746 139.021 73.9733 139.799 74.428C140.576 74.8827 141.155 75.4547 141.537 76.144V73.944H143.561V86H141.537V83.756C141.141 84.46 140.547 85.0467 139.755 85.516C138.977 85.9707 138.068 86.198 137.027 86.198C135.956 86.198 134.988 85.934 134.123 85.406C133.257 84.878 132.575 84.1373 132.077 83.184C131.578 82.2307 131.329 81.1453 131.329 79.928ZM141.537 79.95C141.537 79.0407 141.353 78.2487 140.987 77.574C140.62 76.8993 140.121 76.386 139.491 76.034C138.875 75.6673 138.193 75.484 137.445 75.484C136.697 75.484 136.015 75.66 135.399 76.012C134.783 76.364 134.291 76.8773 133.925 77.552C133.558 78.2267 133.375 79.0187 133.375 79.928C133.375 80.852 133.558 81.6587 133.925 82.348C134.291 83.0227 134.783 83.5433 135.399 83.91C136.015 84.262 136.697 84.438 137.445 84.438C138.193 84.438 138.875 84.262 139.491 83.91C140.121 83.5433 140.62 83.0227 140.987 82.348C141.353 81.6587 141.537 80.8593 141.537 79.95ZM151.916 73.746C152.957 73.746 153.867 73.9733 154.644 74.428C155.436 74.8827 156.023 75.4547 156.404 76.144V73.944H158.428V86.264C158.428 87.364 158.193 88.3393 157.724 89.19C157.255 90.0553 156.58 90.73 155.7 91.214C154.835 91.698 153.823 91.94 152.664 91.94C151.08 91.94 149.76 91.566 148.704 90.818C147.648 90.07 147.025 89.0507 146.834 87.76H148.814C149.034 88.4933 149.489 89.08 150.178 89.52C150.867 89.9747 151.696 90.202 152.664 90.202C153.764 90.202 154.659 89.8573 155.348 89.168C156.052 88.4787 156.404 87.5107 156.404 86.264V83.734C156.008 84.438 155.421 85.0247 154.644 85.494C153.867 85.9633 152.957 86.198 151.916 86.198C150.845 86.198 149.87 85.934 148.99 85.406C148.125 84.878 147.443 84.1373 146.944 83.184C146.445 82.2307 146.196 81.1453 146.196 79.928C146.196 78.696 146.445 77.618 146.944 76.694C147.443 75.7553 148.125 75.0293 148.99 74.516C149.87 74.0027 150.845 73.746 151.916 73.746ZM156.404 79.95C156.404 79.0407 156.221 78.2487 155.854 77.574C155.487 76.8993 154.989 76.386 154.358 76.034C153.742 75.6673 153.06 75.484 152.312 75.484C151.564 75.484 150.882 75.66 150.266 76.012C149.65 76.364 149.159 76.8773 148.792 77.552C148.425 78.2267 148.242 79.0187 148.242 79.928C148.242 80.852 148.425 81.6587 148.792 82.348C149.159 83.0227 149.65 83.5433 150.266 83.91C150.882 84.262 151.564 84.438 152.312 84.438C153.06 84.438 153.742 84.262 154.358 83.91C154.989 83.5433 155.487 83.0227 155.854 82.348C156.221 81.6587 156.404 80.8593 156.404 79.95ZM172.811 79.51C172.811 79.8913 172.789 80.2947 172.745 80.72H163.109C163.183 81.908 163.586 82.8393 164.319 83.514C165.067 84.174 165.969 84.504 167.025 84.504C167.891 84.504 168.609 84.306 169.181 83.91C169.768 83.4993 170.179 82.9567 170.413 82.282H172.569C172.247 83.4407 171.601 84.3867 170.633 85.12C169.665 85.8387 168.463 86.198 167.025 86.198C165.881 86.198 164.855 85.9413 163.945 85.428C163.051 84.9147 162.347 84.1887 161.833 83.25C161.32 82.2967 161.063 81.1967 161.063 79.95C161.063 78.7033 161.313 77.6107 161.811 76.672C162.31 75.7333 163.007 75.0147 163.901 74.516C164.811 74.0027 165.852 73.746 167.025 73.746C168.169 73.746 169.181 73.9953 170.061 74.494C170.941 74.9927 171.616 75.682 172.085 76.562C172.569 77.4273 172.811 78.41 172.811 79.51ZM170.743 79.092C170.743 78.3293 170.575 77.6767 170.237 77.134C169.9 76.5767 169.438 76.1587 168.851 75.88C168.279 75.5867 167.641 75.44 166.937 75.44C165.925 75.44 165.06 75.7627 164.341 76.408C163.637 77.0533 163.234 77.948 163.131 79.092H170.743ZM177.522 83.228L175.058 89.146H173.716L175.322 83.228H177.522ZM187.682 76.188C188.093 75.4693 188.694 74.8827 189.486 74.428C190.278 73.9733 191.18 73.746 192.192 73.746C193.278 73.746 194.253 74.0027 195.118 74.516C195.984 75.0293 196.666 75.7553 197.164 76.694C197.663 77.618 197.912 78.696 197.912 79.928C197.912 81.1453 197.663 82.2307 197.164 83.184C196.666 84.1373 195.976 84.878 195.096 85.406C194.231 85.934 193.263 86.198 192.192 86.198C191.151 86.198 190.234 85.9707 189.442 85.516C188.665 85.0613 188.078 84.482 187.682 83.778V86H185.68V69.72H187.682V76.188ZM195.866 79.928C195.866 79.0187 195.683 78.2267 195.316 77.552C194.95 76.8773 194.451 76.364 193.82 76.012C193.204 75.66 192.522 75.484 191.774 75.484C191.041 75.484 190.359 75.6673 189.728 76.034C189.112 76.386 188.614 76.9067 188.232 77.596C187.866 78.2707 187.682 79.0553 187.682 79.95C187.682 80.8593 187.866 81.6587 188.232 82.348C188.614 83.0227 189.112 83.5433 189.728 83.91C190.359 84.262 191.041 84.438 191.774 84.438C192.522 84.438 193.204 84.262 193.82 83.91C194.451 83.5433 194.95 83.0227 195.316 82.348C195.683 81.6587 195.866 80.852 195.866 79.928ZM211.24 73.944V86H209.238V84.218C208.856 84.834 208.321 85.318 207.632 85.67C206.957 86.0073 206.209 86.176 205.388 86.176C204.449 86.176 203.606 85.9853 202.858 85.604C202.11 85.208 201.516 84.6213 201.076 83.844C200.65 83.0667 200.438 82.1207 200.438 81.006V73.944H202.418V80.742C202.418 81.93 202.718 82.8467 203.32 83.492C203.921 84.1227 204.742 84.438 205.784 84.438C206.854 84.438 207.698 84.108 208.314 83.448C208.93 82.788 209.238 81.8273 209.238 80.566V73.944H211.24ZM217.062 75.594V82.7C217.062 83.2867 217.186 83.7047 217.436 83.954C217.685 84.1887 218.118 84.306 218.734 84.306H220.208V86H218.404C217.289 86 216.453 85.7433 215.896 85.23C215.338 84.7167 215.06 83.8733 215.06 82.7V75.594H213.498V73.944H215.06V70.908H217.062V73.944H220.208V75.594H217.062ZM232.767 86.198C231.843 86.198 231.014 86.044 230.281 85.736C229.547 85.4133 228.968 84.9733 228.543 84.416C228.117 83.844 227.883 83.1913 227.839 82.458H229.907C229.965 83.0593 230.244 83.5507 230.743 83.932C231.256 84.3133 231.923 84.504 232.745 84.504C233.507 84.504 234.109 84.3353 234.549 83.998C234.989 83.6607 235.209 83.2353 235.209 82.722C235.209 82.194 234.974 81.8053 234.505 81.556C234.035 81.292 233.309 81.0353 232.327 80.786C231.432 80.5513 230.699 80.3167 230.127 80.082C229.569 79.8327 229.085 79.4733 228.675 79.004C228.279 78.52 228.081 77.8893 228.081 77.112C228.081 76.496 228.264 75.9313 228.631 75.418C228.997 74.9047 229.518 74.5013 230.193 74.208C230.867 73.9 231.637 73.746 232.503 73.746C233.837 73.746 234.915 74.0833 235.737 74.758C236.558 75.4327 236.998 76.3567 237.057 77.53H235.055C235.011 76.8993 234.754 76.3933 234.285 76.012C233.83 75.6307 233.214 75.44 232.437 75.44C231.718 75.44 231.146 75.594 230.721 75.902C230.295 76.21 230.083 76.6133 230.083 77.112C230.083 77.508 230.207 77.838 230.457 78.102C230.721 78.3513 231.043 78.5567 231.425 78.718C231.821 78.8647 232.363 79.0333 233.053 79.224C233.918 79.4587 234.622 79.6933 235.165 79.928C235.707 80.148 236.169 80.4853 236.551 80.94C236.947 81.3947 237.152 81.9887 237.167 82.722C237.167 83.382 236.983 83.976 236.617 84.504C236.25 85.032 235.729 85.45 235.055 85.758C234.395 86.0513 233.632 86.198 232.767 86.198ZM245.977 73.724C246.886 73.724 247.707 73.922 248.441 74.318C249.174 74.6993 249.746 75.2787 250.157 76.056C250.582 76.8333 250.795 77.7793 250.795 78.894V86H248.815V79.18C248.815 77.9773 248.514 77.0607 247.913 76.43C247.311 75.7847 246.49 75.462 245.449 75.462C244.393 75.462 243.549 75.792 242.919 76.452C242.303 77.112 241.995 78.0727 241.995 79.334V86H239.993V69.72H241.995V75.66C242.391 75.044 242.933 74.5673 243.623 74.23C244.327 73.8927 245.111 73.724 245.977 73.724ZM265.065 79.51C265.065 79.8913 265.043 80.2947 264.999 80.72H255.363C255.436 81.908 255.84 82.8393 256.573 83.514C257.321 84.174 258.223 84.504 259.279 84.504C260.144 84.504 260.863 84.306 261.435 83.91C262.022 83.4993 262.432 82.9567 262.667 82.282H264.823C264.5 83.4407 263.855 84.3867 262.887 85.12C261.919 85.8387 260.716 86.198 259.279 86.198C258.135 86.198 257.108 85.9413 256.199 85.428C255.304 84.9147 254.6 84.1887 254.087 83.25C253.574 82.2967 253.317 81.1967 253.317 79.95C253.317 78.7033 253.566 77.6107 254.065 76.672C254.564 75.7333 255.26 75.0147 256.155 74.516C257.064 74.0027 258.106 73.746 259.279 73.746C260.423 73.746 261.435 73.9953 262.315 74.494C263.195 74.9927 263.87 75.682 264.339 76.562C264.823 77.4273 265.065 78.41 265.065 79.51ZM262.997 79.092C262.997 78.3293 262.828 77.6767 262.491 77.134C262.154 76.5767 261.692 76.1587 261.105 75.88C260.533 75.5867 259.895 75.44 259.191 75.44C258.179 75.44 257.314 75.7627 256.595 76.408C255.891 77.0533 255.488 77.948 255.385 79.092H262.997ZM272.825 79.928C272.825 78.696 273.074 77.618 273.573 76.694C274.072 75.7553 274.754 75.0293 275.619 74.516C276.499 74.0027 277.482 73.746 278.567 73.746C279.608 73.746 280.518 73.9807 281.295 74.45C282.087 74.9047 282.666 75.4693 283.033 76.144V73.944H285.057V91.72H283.033V83.778C282.652 84.4527 282.065 85.0247 281.273 85.494C280.481 85.9633 279.557 86.198 278.501 86.198C277.445 86.198 276.484 85.934 275.619 85.406C274.754 84.878 274.072 84.1373 273.573 83.184C273.074 82.2307 272.825 81.1453 272.825 79.928ZM283.033 79.95C283.033 79.0407 282.85 78.2487 282.483 77.574C282.116 76.8993 281.618 76.386 280.987 76.034C280.371 75.6673 279.689 75.484 278.941 75.484C278.193 75.484 277.511 75.66 276.895 76.012C276.279 76.364 275.788 76.8773 275.421 77.552C275.054 78.2267 274.871 79.0187 274.871 79.928C274.871 80.852 275.054 81.6587 275.421 82.348C275.788 83.0227 276.279 83.5433 276.895 83.91C277.511 84.262 278.193 84.438 278.941 84.438C279.689 84.438 280.371 84.262 280.987 83.91C281.618 83.5433 282.116 83.0227 282.483 82.348C282.85 81.6587 283.033 80.8593 283.033 79.95ZM299.132 73.944V86H297.13V84.218C296.749 84.834 296.213 85.318 295.524 85.67C294.849 86.0073 294.101 86.176 293.28 86.176C292.341 86.176 291.498 85.9853 290.75 85.604C290.002 85.208 289.408 84.6213 288.968 83.844C288.543 83.0667 288.33 82.1207 288.33 81.006V73.944H290.31V80.742C290.31 81.93 290.611 82.8467 291.212 83.492C291.813 84.1227 292.635 84.438 293.676 84.438C294.747 84.438 295.59 84.108 296.206 83.448C296.822 82.788 297.13 81.8273 297.13 80.566V73.944H299.132ZM303.546 71.986C303.165 71.986 302.842 71.854 302.578 71.59C302.314 71.326 302.182 71.0033 302.182 70.622C302.182 70.2407 302.314 69.918 302.578 69.654C302.842 69.39 303.165 69.258 303.546 69.258C303.913 69.258 304.221 69.39 304.47 69.654C304.734 69.918 304.866 70.2407 304.866 70.622C304.866 71.0033 304.734 71.326 304.47 71.59C304.221 71.854 303.913 71.986 303.546 71.986ZM304.514 73.944V86H302.512V73.944H304.514ZM307.178 79.95C307.178 78.7033 307.428 77.618 307.926 76.694C308.425 75.7553 309.114 75.0293 309.994 74.516C310.889 74.0027 311.908 73.746 313.052 73.746C314.534 73.746 315.751 74.1053 316.704 74.824C317.672 75.5427 318.31 76.54 318.618 77.816H316.462C316.257 77.0827 315.854 76.5033 315.252 76.078C314.666 75.6527 313.932 75.44 313.052 75.44C311.908 75.44 310.984 75.836 310.28 76.628C309.576 77.4053 309.224 78.5127 309.224 79.95C309.224 81.402 309.576 82.524 310.28 83.316C310.984 84.108 311.908 84.504 313.052 84.504C313.932 84.504 314.666 84.2987 315.252 83.888C315.839 83.4773 316.242 82.8907 316.462 82.128H318.618C318.296 83.36 317.65 84.35 316.682 85.098C315.714 85.8313 314.504 86.198 313.052 86.198C311.908 86.198 310.889 85.9413 309.994 85.428C309.114 84.9147 308.425 84.1887 307.926 83.25C307.428 82.3113 307.178 81.2113 307.178 79.95ZM328.022 86L323.292 80.676V86H321.29V69.72H323.292V79.29L327.934 73.944H330.728L325.052 79.95L330.75 86H328.022ZM334.614 69.72V86H332.612V69.72H334.614ZM348.41 73.944L341.15 91.676H339.082L341.458 85.868L336.596 73.944H338.818L342.602 83.712L346.342 73.944H348.41ZM370.786 73.724C371.724 73.724 372.56 73.922 373.294 74.318C374.027 74.6993 374.606 75.2787 375.032 76.056C375.457 76.8333 375.67 77.7793 375.67 78.894V86H373.69V79.18C373.69 77.9773 373.389 77.0607 372.788 76.43C372.201 75.7847 371.402 75.462 370.39 75.462C369.348 75.462 368.52 75.7993 367.904 76.474C367.288 77.134 366.98 78.0947 366.98 79.356V86H365V79.18C365 77.9773 364.699 77.0607 364.098 76.43C363.511 75.7847 362.712 75.462 361.7 75.462C360.658 75.462 359.83 75.7993 359.214 76.474C358.598 77.134 358.29 78.0947 358.29 79.356V86H356.288V73.944H358.29V75.682C358.686 75.0513 359.214 74.5673 359.874 74.23C360.548 73.8927 361.289 73.724 362.096 73.724C363.108 73.724 364.002 73.9513 364.78 74.406C365.557 74.8607 366.136 75.528 366.518 76.408C366.855 75.5573 367.412 74.8973 368.19 74.428C368.967 73.9587 369.832 73.724 370.786 73.724ZM378.206 79.928C378.206 78.696 378.455 77.618 378.954 76.694C379.452 75.7553 380.134 75.0293 381 74.516C381.88 74.0027 382.855 73.746 383.926 73.746C384.982 73.746 385.898 73.9733 386.676 74.428C387.453 74.8827 388.032 75.4547 388.414 76.144V73.944H390.438V86H388.414V83.756C388.018 84.46 387.424 85.0467 386.632 85.516C385.854 85.9707 384.945 86.198 383.904 86.198C382.833 86.198 381.865 85.934 381 85.406C380.134 84.878 379.452 84.1373 378.954 83.184C378.455 82.2307 378.206 81.1453 378.206 79.928ZM388.414 79.95C388.414 79.0407 388.23 78.2487 387.864 77.574C387.497 76.8993 386.998 76.386 386.368 76.034C385.752 75.6673 385.07 75.484 384.322 75.484C383.574 75.484 382.892 75.66 382.276 76.012C381.66 76.364 381.168 76.8773 380.802 77.552C380.435 78.2267 380.252 79.0187 380.252 79.928C380.252 80.852 380.435 81.6587 380.802 82.348C381.168 83.0227 381.66 83.5433 382.276 83.91C382.892 84.262 383.574 84.438 384.322 84.438C385.07 84.438 385.752 84.262 386.368 83.91C386.998 83.5433 387.497 83.0227 387.864 82.348C388.23 81.6587 388.414 80.8593 388.414 79.95ZM393.073 79.928C393.073 78.696 393.322 77.618 393.821 76.694C394.32 75.7553 395.002 75.0293 395.867 74.516C396.747 74.0027 397.73 73.746 398.815 73.746C399.754 73.746 400.626 73.966 401.433 74.406C402.24 74.8313 402.856 75.396 403.281 76.1V69.72H405.305V86H403.281V83.734C402.885 84.4527 402.298 85.0467 401.521 85.516C400.744 85.9707 399.834 86.198 398.793 86.198C397.722 86.198 396.747 85.934 395.867 85.406C395.002 84.878 394.32 84.1373 393.821 83.184C393.322 82.2307 393.073 81.1453 393.073 79.928ZM403.281 79.95C403.281 79.0407 403.098 78.2487 402.731 77.574C402.364 76.8993 401.866 76.386 401.235 76.034C400.619 75.6673 399.937 75.484 399.189 75.484C398.441 75.484 397.759 75.66 397.143 76.012C396.527 76.364 396.036 76.8773 395.669 77.552C395.302 78.2267 395.119 79.0187 395.119 79.928C395.119 80.852 395.302 81.6587 395.669 82.348C396.036 83.0227 396.527 83.5433 397.143 83.91C397.759 84.262 398.441 84.438 399.189 84.438C399.937 84.438 400.619 84.262 401.235 83.91C401.866 83.5433 402.364 83.0227 402.731 82.348C403.098 81.6587 403.281 80.8593 403.281 79.95ZM419.688 79.51C419.688 79.8913 419.666 80.2947 419.622 80.72H409.986C410.059 81.908 410.463 82.8393 411.196 83.514C411.944 84.174 412.846 84.504 413.902 84.504C414.767 84.504 415.486 84.306 416.058 83.91C416.645 83.4993 417.055 82.9567 417.29 82.282H419.446C419.123 83.4407 418.478 84.3867 417.51 85.12C416.542 85.8387 415.339 86.198 413.902 86.198C412.758 86.198 411.731 85.9413 410.822 85.428C409.927 84.9147 409.223 84.1887 408.71 83.25C408.197 82.2967 407.94 81.1967 407.94 79.95C407.94 78.7033 408.189 77.6107 408.688 76.672C409.187 75.7333 409.883 75.0147 410.778 74.516C411.687 74.0027 412.729 73.746 413.902 73.746C415.046 73.746 416.058 73.9953 416.938 74.494C417.818 74.9927 418.493 75.682 418.962 76.562C419.446 77.4273 419.688 78.41 419.688 79.51ZM417.62 79.092C417.62 78.3293 417.451 77.6767 417.114 77.134C416.777 76.5767 416.315 76.1587 415.728 75.88C415.156 75.5867 414.518 75.44 413.814 75.44C412.802 75.44 411.937 75.7627 411.218 76.408C410.514 77.0533 410.111 77.948 410.008 79.092H417.62ZM427.448 79.928C427.448 78.696 427.697 77.618 428.196 76.694C428.695 75.7553 429.377 75.0293 430.242 74.516C431.122 74.0027 432.097 73.746 433.168 73.746C434.224 73.746 435.141 73.9733 435.918 74.428C436.695 74.8827 437.275 75.4547 437.656 76.144V73.944H439.68V86H437.656V83.756C437.26 84.46 436.666 85.0467 435.874 85.516C435.097 85.9707 434.187 86.198 433.146 86.198C432.075 86.198 431.107 85.934 430.242 85.406C429.377 84.878 428.695 84.1373 428.196 83.184C427.697 82.2307 427.448 81.1453 427.448 79.928ZM437.656 79.95C437.656 79.0407 437.473 78.2487 437.106 77.574C436.739 76.8993 436.241 76.386 435.61 76.034C434.994 75.6673 434.312 75.484 433.564 75.484C432.816 75.484 432.134 75.66 431.518 76.012C430.902 76.364 430.411 76.8773 430.044 77.552C429.677 78.2267 429.494 79.0187 429.494 79.928C429.494 80.852 429.677 81.6587 430.044 82.348C430.411 83.0227 430.902 83.5433 431.518 83.91C432.134 84.262 432.816 84.438 433.564 84.438C434.312 84.438 434.994 84.262 435.61 83.91C436.241 83.5433 436.739 83.0227 437.106 82.348C437.473 81.6587 437.656 80.8593 437.656 79.95ZM450.93 76.166C451.326 75.4767 451.913 74.9047 452.69 74.45C453.482 73.9807 454.399 73.746 455.44 73.746C456.511 73.746 457.479 74.0027 458.344 74.516C459.224 75.0293 459.914 75.7553 460.412 76.694C460.911 77.618 461.16 78.696 461.16 79.928C461.16 81.1453 460.911 82.2307 460.412 83.184C459.914 84.1373 459.224 84.878 458.344 85.406C457.479 85.934 456.511 86.198 455.44 86.198C454.414 86.198 453.504 85.9707 452.712 85.516C451.935 85.0467 451.341 84.4673 450.93 83.778V91.72H448.928V73.944H450.93V76.166ZM459.114 79.928C459.114 79.0187 458.931 78.2267 458.564 77.552C458.198 76.8773 457.699 76.364 457.068 76.012C456.452 75.66 455.77 75.484 455.022 75.484C454.289 75.484 453.607 75.6673 452.976 76.034C452.36 76.386 451.862 76.9067 451.48 77.596C451.114 78.2707 450.93 79.0553 450.93 79.95C450.93 80.8593 451.114 81.6587 451.48 82.348C451.862 83.0227 452.36 83.5433 452.976 83.91C453.607 84.262 454.289 84.438 455.022 84.438C455.77 84.438 456.452 84.262 457.068 83.91C457.699 83.5433 458.198 83.0227 458.564 82.348C458.931 81.6587 459.114 80.852 459.114 79.928ZM465.798 69.72V86H463.796V69.72H465.798ZM468.462 79.928C468.462 78.696 468.711 77.618 469.21 76.694C469.708 75.7553 470.39 75.0293 471.256 74.516C472.136 74.0027 473.111 73.746 474.182 73.746C475.238 73.746 476.154 73.9733 476.932 74.428C477.709 74.8827 478.288 75.4547 478.67 76.144V73.944H480.694V86H478.67V83.756C478.274 84.46 477.68 85.0467 476.888 85.516C476.11 85.9707 475.201 86.198 474.16 86.198C473.089 86.198 472.121 85.934 471.256 85.406C470.39 84.878 469.708 84.1373 469.21 83.184C468.711 82.2307 468.462 81.1453 468.462 79.928ZM478.67 79.95C478.67 79.0407 478.486 78.2487 478.12 77.574C477.753 76.8993 477.254 76.386 476.624 76.034C476.008 75.6673 475.326 75.484 474.578 75.484C473.83 75.484 473.148 75.66 472.532 76.012C471.916 76.364 471.424 76.8773 471.058 77.552C470.691 78.2267 470.508 79.0187 470.508 79.928C470.508 80.852 470.691 81.6587 471.058 82.348C471.424 83.0227 471.916 83.5433 472.532 83.91C473.148 84.262 473.83 84.438 474.578 84.438C475.326 84.438 476.008 84.262 476.624 83.91C477.254 83.5433 477.753 83.0227 478.12 82.348C478.486 81.6587 478.67 80.8593 478.67 79.95ZM489.951 73.724C491.417 73.724 492.605 74.1713 493.515 75.066C494.424 75.946 494.879 77.222 494.879 78.894V86H492.899V79.18C492.899 77.9773 492.598 77.0607 491.997 76.43C491.395 75.7847 490.574 75.462 489.533 75.462C488.477 75.462 487.633 75.792 487.003 76.452C486.387 77.112 486.079 78.0727 486.079 79.334V86H484.077V73.944H486.079V75.66C486.475 75.044 487.01 74.5673 487.685 74.23C488.374 73.8927 489.129 73.724 489.951 73.724ZM506.456 75.594V82.7C506.456 83.2867 506.581 83.7047 506.83 83.954C507.08 84.1887 507.512 84.306 508.128 84.306H509.602V86H507.798C506.684 86 505.848 85.7433 505.29 85.23C504.733 84.7167 504.454 83.8733 504.454 82.7V75.594H502.892V73.944H504.454V70.908H506.456V73.944H509.602V75.594H506.456ZM517.286 86.198C516.157 86.198 515.13 85.9413 514.206 85.428C513.297 84.9147 512.578 84.1887 512.05 83.25C511.537 82.2967 511.28 81.1967 511.28 79.95C511.28 78.718 511.544 77.6327 512.072 76.694C512.615 75.7407 513.348 75.0147 514.272 74.516C515.196 74.0027 516.23 73.746 517.374 73.746C518.518 73.746 519.552 74.0027 520.476 74.516C521.4 75.0147 522.126 75.7333 522.654 76.672C523.197 77.6107 523.468 78.7033 523.468 79.95C523.468 81.1967 523.189 82.2967 522.632 83.25C522.089 84.1887 521.349 84.9147 520.41 85.428C519.471 85.9413 518.43 86.198 517.286 86.198ZM517.286 84.438C518.005 84.438 518.679 84.2693 519.31 83.932C519.941 83.5947 520.447 83.0887 520.828 82.414C521.224 81.7393 521.422 80.918 521.422 79.95C521.422 78.982 521.231 78.1607 520.85 77.486C520.469 76.8113 519.97 76.3127 519.354 75.99C518.738 75.6527 518.071 75.484 517.352 75.484C516.619 75.484 515.944 75.6527 515.328 75.99C514.727 76.3127 514.243 76.8113 513.876 77.486C513.509 78.1607 513.326 78.982 513.326 79.95C513.326 80.9327 513.502 81.7613 513.854 82.436C514.221 83.1107 514.705 83.6167 515.306 83.954C515.907 84.2767 516.567 84.438 517.286 84.438ZM184.03 109.166C184.426 108.477 185.013 107.905 185.79 107.45C186.582 106.981 187.499 106.746 188.54 106.746C189.611 106.746 190.579 107.003 191.444 107.516C192.324 108.029 193.013 108.755 193.512 109.694C194.011 110.618 194.26 111.696 194.26 112.928C194.26 114.145 194.011 115.231 193.512 116.184C193.013 117.137 192.324 117.878 191.444 118.406C190.579 118.934 189.611 119.198 188.54 119.198C187.513 119.198 186.604 118.971 185.812 118.516C185.035 118.047 184.441 117.467 184.03 116.778V124.72H182.028V106.944H184.03V109.166ZM192.214 112.928C192.214 112.019 192.031 111.227 191.664 110.552C191.297 109.877 190.799 109.364 190.168 109.012C189.552 108.66 188.87 108.484 188.122 108.484C187.389 108.484 186.707 108.667 186.076 109.034C185.46 109.386 184.961 109.907 184.58 110.596C184.213 111.271 184.03 112.055 184.03 112.95C184.03 113.859 184.213 114.659 184.58 115.348C184.961 116.023 185.46 116.543 186.076 116.91C186.707 117.262 187.389 117.438 188.122 117.438C188.87 117.438 189.552 117.262 190.168 116.91C190.799 116.543 191.297 116.023 191.664 115.348C192.031 114.659 192.214 113.852 192.214 112.928ZM198.897 108.902C199.249 108.213 199.748 107.677 200.393 107.296C201.053 106.915 201.853 106.724 202.791 106.724V108.792H202.263C200.019 108.792 198.897 110.009 198.897 112.444V119H196.895V106.944H198.897V108.902ZM210.36 119.198C209.231 119.198 208.204 118.941 207.28 118.428C206.371 117.915 205.652 117.189 205.124 116.25C204.611 115.297 204.354 114.197 204.354 112.95C204.354 111.718 204.618 110.633 205.146 109.694C205.689 108.741 206.422 108.015 207.346 107.516C208.27 107.003 209.304 106.746 210.448 106.746C211.592 106.746 212.626 107.003 213.55 107.516C214.474 108.015 215.2 108.733 215.728 109.672C216.271 110.611 216.542 111.703 216.542 112.95C216.542 114.197 216.264 115.297 215.706 116.25C215.164 117.189 214.423 117.915 213.484 118.428C212.546 118.941 211.504 119.198 210.36 119.198ZM210.36 117.438C211.079 117.438 211.754 117.269 212.384 116.932C213.015 116.595 213.521 116.089 213.902 115.414C214.298 114.739 214.496 113.918 214.496 112.95C214.496 111.982 214.306 111.161 213.924 110.486C213.543 109.811 213.044 109.313 212.428 108.99C211.812 108.653 211.145 108.484 210.426 108.484C209.693 108.484 209.018 108.653 208.402 108.99C207.801 109.313 207.317 109.811 206.95 110.486C206.584 111.161 206.4 111.982 206.4 112.95C206.4 113.933 206.576 114.761 206.928 115.436C207.295 116.111 207.779 116.617 208.38 116.954C208.982 117.277 209.642 117.438 210.36 117.438ZM221.616 108.594V115.7C221.616 116.287 221.741 116.705 221.99 116.954C222.24 117.189 222.672 117.306 223.288 117.306H224.762V119H222.958C221.844 119 221.008 118.743 220.45 118.23C219.893 117.717 219.614 116.873 219.614 115.7V108.594H218.052V106.944H219.614V103.908H221.616V106.944H224.762V108.594H221.616ZM238.188 112.51C238.188 112.891 238.166 113.295 238.122 113.72H228.486C228.559 114.908 228.963 115.839 229.696 116.514C230.444 117.174 231.346 117.504 232.402 117.504C233.267 117.504 233.986 117.306 234.558 116.91C235.145 116.499 235.555 115.957 235.79 115.282H237.946C237.623 116.441 236.978 117.387 236.01 118.12C235.042 118.839 233.839 119.198 232.402 119.198C231.258 119.198 230.231 118.941 229.322 118.428C228.427 117.915 227.723 117.189 227.21 116.25C226.697 115.297 226.44 114.197 226.44 112.95C226.44 111.703 226.689 110.611 227.188 109.672C227.687 108.733 228.383 108.015 229.278 107.516C230.187 107.003 231.229 106.746 232.402 106.746C233.546 106.746 234.558 106.995 235.438 107.494C236.318 107.993 236.993 108.682 237.462 109.562C237.946 110.427 238.188 111.41 238.188 112.51ZM236.12 112.092C236.12 111.329 235.951 110.677 235.614 110.134C235.277 109.577 234.815 109.159 234.228 108.88C233.656 108.587 233.018 108.44 232.314 108.44C231.302 108.44 230.437 108.763 229.718 109.408C229.014 110.053 228.611 110.948 228.508 112.092H236.12ZM240.083 112.95C240.083 111.703 240.332 110.618 240.831 109.694C241.329 108.755 242.019 108.029 242.899 107.516C243.793 107.003 244.813 106.746 245.957 106.746C247.438 106.746 248.655 107.105 249.609 107.824C250.577 108.543 251.215 109.54 251.523 110.816H249.367C249.161 110.083 248.758 109.503 248.157 109.078C247.57 108.653 246.837 108.44 245.957 108.44C244.813 108.44 243.889 108.836 243.185 109.628C242.481 110.405 242.129 111.513 242.129 112.95C242.129 114.402 242.481 115.524 243.185 116.316C243.889 117.108 244.813 117.504 245.957 117.504C246.837 117.504 247.57 117.299 248.157 116.888C248.743 116.477 249.147 115.891 249.367 115.128H251.523C251.2 116.36 250.555 117.35 249.587 118.098C248.619 118.831 247.409 119.198 245.957 119.198C244.813 119.198 243.793 118.941 242.899 118.428C242.019 117.915 241.329 117.189 240.831 116.25C240.332 115.311 240.083 114.211 240.083 112.95ZM256.636 108.594V115.7C256.636 116.287 256.761 116.705 257.01 116.954C257.259 117.189 257.692 117.306 258.308 117.306H259.782V119H257.978C256.863 119 256.027 118.743 255.47 118.23C254.913 117.717 254.634 116.873 254.634 115.7V108.594H253.072V106.944H254.634V103.908H256.636V106.944H259.782V108.594H256.636ZM270.515 108.594V115.7C270.515 116.287 270.64 116.705 270.889 116.954C271.138 117.189 271.571 117.306 272.187 117.306H273.661V119H271.857C270.742 119 269.906 118.743 269.349 118.23C268.792 117.717 268.513 116.873 268.513 115.7V108.594H266.951V106.944H268.513V103.908H270.515V106.944H273.661V108.594H270.515ZM282.071 106.724C282.98 106.724 283.801 106.922 284.535 107.318C285.268 107.699 285.84 108.279 286.251 109.056C286.676 109.833 286.889 110.779 286.889 111.894V119H284.909V112.18C284.909 110.977 284.608 110.061 284.007 109.43C283.405 108.785 282.584 108.462 281.543 108.462C280.487 108.462 279.643 108.792 279.013 109.452C278.397 110.112 278.089 111.073 278.089 112.334V119H276.087V102.72H278.089V108.66C278.485 108.044 279.027 107.567 279.717 107.23C280.421 106.893 281.205 106.724 282.071 106.724ZM301.159 112.51C301.159 112.891 301.137 113.295 301.093 113.72H291.457C291.53 114.908 291.934 115.839 292.667 116.514C293.415 117.174 294.317 117.504 295.373 117.504C296.238 117.504 296.957 117.306 297.529 116.91C298.116 116.499 298.526 115.957 298.761 115.282H300.917C300.594 116.441 299.949 117.387 298.981 118.12C298.013 118.839 296.81 119.198 295.373 119.198C294.229 119.198 293.202 118.941 292.293 118.428C291.398 117.915 290.694 117.189 290.181 116.25C289.668 115.297 289.411 114.197 289.411 112.95C289.411 111.703 289.66 110.611 290.159 109.672C290.658 108.733 291.354 108.015 292.249 107.516C293.158 107.003 294.2 106.746 295.373 106.746C296.517 106.746 297.529 106.995 298.409 107.494C299.289 107.993 299.964 108.682 300.433 109.562C300.917 110.427 301.159 111.41 301.159 112.51ZM299.091 112.092C299.091 111.329 298.922 110.677 298.585 110.134C298.248 109.577 297.786 109.159 297.199 108.88C296.627 108.587 295.989 108.44 295.285 108.44C294.273 108.44 293.408 108.763 292.689 109.408C291.985 110.053 291.582 110.948 291.479 112.092H299.091ZM304.835 104.986C304.454 104.986 304.131 104.854 303.867 104.59C303.603 104.326 303.471 104.003 303.471 103.622C303.471 103.241 303.603 102.918 303.867 102.654C304.131 102.39 304.454 102.258 304.835 102.258C305.202 102.258 305.51 102.39 305.759 102.654C306.023 102.918 306.155 103.241 306.155 103.622C306.155 104.003 306.023 104.326 305.759 104.59C305.51 104.854 305.202 104.986 304.835 104.986ZM305.803 106.944V119H303.801V106.944H305.803ZM311.217 108.902C311.569 108.213 312.068 107.677 312.713 107.296C313.373 106.915 314.173 106.724 315.111 106.724V108.792H314.583C312.339 108.792 311.217 110.009 311.217 112.444V119H309.215V106.944H311.217V108.902ZM329.272 106.724C330.181 106.724 331.002 106.922 331.736 107.318C332.469 107.699 333.041 108.279 333.452 109.056C333.877 109.833 334.09 110.779 334.09 111.894V119H332.11V112.18C332.11 110.977 331.809 110.061 331.208 109.43C330.606 108.785 329.785 108.462 328.744 108.462C327.688 108.462 326.844 108.792 326.214 109.452C325.598 110.112 325.29 111.073 325.29 112.334V119H323.288V102.72H325.29V108.66C325.686 108.044 326.228 107.567 326.918 107.23C327.622 106.893 328.406 106.724 329.272 106.724ZM342.618 119.198C341.489 119.198 340.462 118.941 339.538 118.428C338.629 117.915 337.91 117.189 337.382 116.25C336.869 115.297 336.612 114.197 336.612 112.95C336.612 111.718 336.876 110.633 337.404 109.694C337.947 108.741 338.68 108.015 339.604 107.516C340.528 107.003 341.562 106.746 342.706 106.746C343.85 106.746 344.884 107.003 345.808 107.516C346.732 108.015 347.458 108.733 347.986 109.672C348.529 110.611 348.8 111.703 348.8 112.95C348.8 114.197 348.521 115.297 347.964 116.25C347.421 117.189 346.681 117.915 345.742 118.428C344.803 118.941 343.762 119.198 342.618 119.198ZM342.618 117.438C343.337 117.438 344.011 117.269 344.642 116.932C345.273 116.595 345.779 116.089 346.16 115.414C346.556 114.739 346.754 113.918 346.754 112.95C346.754 111.982 346.563 111.161 346.182 110.486C345.801 109.811 345.302 109.313 344.686 108.99C344.07 108.653 343.403 108.484 342.684 108.484C341.951 108.484 341.276 108.653 340.66 108.99C340.059 109.313 339.575 109.811 339.208 110.486C338.841 111.161 338.658 111.982 338.658 112.95C338.658 113.933 338.834 114.761 339.186 115.436C339.553 116.111 340.037 116.617 340.638 116.954C341.239 117.277 341.899 117.438 342.618 117.438ZM365.93 106.724C366.869 106.724 367.705 106.922 368.438 107.318C369.172 107.699 369.751 108.279 370.176 109.056C370.602 109.833 370.814 110.779 370.814 111.894V119H368.834V112.18C368.834 110.977 368.534 110.061 367.932 109.43C367.346 108.785 366.546 108.462 365.534 108.462C364.493 108.462 363.664 108.799 363.048 109.474C362.432 110.134 362.124 111.095 362.124 112.356V119H360.144V112.18C360.144 110.977 359.844 110.061 359.242 109.43C358.656 108.785 357.856 108.462 356.844 108.462C355.803 108.462 354.974 108.799 354.358 109.474C353.742 110.134 353.434 111.095 353.434 112.356V119H351.432V106.944H353.434V108.682C353.83 108.051 354.358 107.567 355.018 107.23C355.693 106.893 356.434 106.724 357.24 106.724C358.252 106.724 359.147 106.951 359.924 107.406C360.702 107.861 361.281 108.528 361.662 109.408C362 108.557 362.557 107.897 363.334 107.428C364.112 106.959 364.977 106.724 365.93 106.724ZM385.098 112.51C385.098 112.891 385.076 113.295 385.032 113.72H375.396C375.47 114.908 375.873 115.839 376.606 116.514C377.354 117.174 378.256 117.504 379.312 117.504C380.178 117.504 380.896 117.306 381.468 116.91C382.055 116.499 382.466 115.957 382.7 115.282H384.856C384.534 116.441 383.888 117.387 382.92 118.12C381.952 118.839 380.75 119.198 379.312 119.198C378.168 119.198 377.142 118.941 376.232 118.428C375.338 117.915 374.634 117.189 374.12 116.25C373.607 115.297 373.35 114.197 373.35 112.95C373.35 111.703 373.6 110.611 374.098 109.672C374.597 108.733 375.294 108.015 376.188 107.516C377.098 107.003 378.139 106.746 379.312 106.746C380.456 106.746 381.468 106.995 382.348 107.494C383.228 107.993 383.903 108.682 384.372 109.562C384.856 110.427 385.098 111.41 385.098 112.51ZM383.03 112.092C383.03 111.329 382.862 110.677 382.524 110.134C382.187 109.577 381.725 109.159 381.138 108.88C380.566 108.587 379.928 108.44 379.224 108.44C378.212 108.44 377.347 108.763 376.628 109.408C375.924 110.053 375.521 110.948 375.418 112.092H383.03ZM388.379 119.132C387.998 119.132 387.675 119 387.411 118.736C387.147 118.472 387.015 118.149 387.015 117.768C387.015 117.387 387.147 117.064 387.411 116.8C387.675 116.536 387.998 116.404 388.379 116.404C388.746 116.404 389.054 116.536 389.303 116.8C389.567 117.064 389.699 117.387 389.699 117.768C389.699 118.149 389.567 118.472 389.303 118.736C389.054 119 388.746 119.132 388.379 119.132Z" fill="black"/>
</svg>
