<svg width="204" height="81" viewBox="0 0 204 81" fill="none" xmlns="http://www.w3.org/2000/svg">
<rect width="204" height="81" rx="40.5" fill="#987F5A"/>
<path d="M30.376 39.832C30.376 37.656 30.8667 35.704 31.848 33.976C32.8293 32.2267 34.1627 30.8613 35.848 29.88C37.5547 28.8987 39.4427 28.408 41.512 28.408C43.944 28.408 46.0667 28.9947 47.88 30.168C49.6933 31.3413 51.016 33.0053 51.848 35.16H48.36C47.7413 33.816 46.8453 32.7813 45.672 32.056C44.52 31.3307 43.1333 30.968 41.512 30.968C39.9547 30.968 38.5573 31.3307 37.32 32.056C36.0827 32.7813 35.112 33.816 34.408 35.16C33.704 36.4827 33.352 38.04 33.352 39.832C33.352 41.6027 33.704 43.16 34.408 44.504C35.112 45.8267 36.0827 46.8507 37.32 47.576C38.5573 48.3013 39.9547 48.664 41.512 48.664C43.1333 48.664 44.52 48.312 45.672 47.608C46.8453 46.8827 47.7413 45.848 48.36 44.504H51.848C51.016 46.6373 49.6933 48.2907 47.88 49.464C46.0667 50.616 43.944 51.192 41.512 51.192C39.4427 51.192 37.5547 50.712 35.848 49.752C34.1627 48.7707 32.8293 47.416 31.848 45.688C30.8667 43.96 30.376 42.008 30.376 39.832ZM63.8308 51.288C62.1881 51.288 60.6948 50.9147 59.3508 50.168C58.0281 49.4213 56.9828 48.3653 56.2148 47C55.4681 45.6133 55.0948 44.0133 55.0948 42.2C55.0948 40.408 55.4788 38.8293 56.2468 37.464C57.0361 36.0773 58.1028 35.0213 59.4468 34.296C60.7908 33.5493 62.2948 33.176 63.9588 33.176C65.6228 33.176 67.1268 33.5493 68.4708 34.296C69.8148 35.0213 70.8708 36.0667 71.6388 37.432C72.4281 38.7973 72.8228 40.3867 72.8228 42.2C72.8228 44.0133 72.4174 45.6133 71.6068 47C70.8174 48.3653 69.7401 49.4213 68.3748 50.168C67.0094 50.9147 65.4948 51.288 63.8308 51.288ZM63.8308 48.728C64.8761 48.728 65.8574 48.4827 66.7748 47.992C67.6921 47.5013 68.4281 46.7653 68.9828 45.784C69.5588 44.8027 69.8468 43.608 69.8468 42.2C69.8468 40.792 69.5694 39.5973 69.0148 38.616C68.4601 37.6347 67.7348 36.9093 66.8388 36.44C65.9428 35.9493 64.9721 35.704 63.9268 35.704C62.8601 35.704 61.8788 35.9493 60.9828 36.44C60.1081 36.9093 59.4041 37.6347 58.8708 38.616C58.3374 39.5973 58.0708 40.792 58.0708 42.2C58.0708 43.6293 58.3268 44.8347 58.8388 45.816C59.3721 46.7973 60.0761 47.5333 60.9508 48.024C61.8254 48.4933 62.7854 48.728 63.8308 48.728ZM85.1955 33.144C87.3288 33.144 89.0568 33.7947 90.3795 35.096C91.7022 36.376 92.3635 38.232 92.3635 40.664V51H89.4835V41.08C89.4835 39.3307 89.0462 37.9973 88.1715 37.08C87.2968 36.1413 86.1022 35.672 84.5875 35.672C83.0515 35.672 81.8248 36.152 80.9075 37.112C80.0115 38.072 79.5635 39.4693 79.5635 41.304V51H76.6515V33.464H79.5635V35.96C80.1395 35.064 80.9182 34.3707 81.8995 33.88C82.9022 33.3893 84.0008 33.144 85.1955 33.144ZM100.672 35.864V46.2C100.672 47.0533 100.854 47.6613 101.216 48.024C101.579 48.3653 102.208 48.536 103.104 48.536H105.248V51H102.624C101.003 51 99.7869 50.6267 98.9763 49.88C98.1656 49.1333 97.7603 47.9067 97.7603 46.2V35.864H95.4883V33.464H97.7603V29.048H100.672V33.464H105.248V35.864H100.672ZM110.281 30.616C109.726 30.616 109.257 30.424 108.873 30.04C108.489 29.656 108.297 29.1867 108.297 28.632C108.297 28.0773 108.489 27.608 108.873 27.224C109.257 26.84 109.726 26.648 110.281 26.648C110.814 26.648 111.262 26.84 111.625 27.224C112.009 27.608 112.201 28.0773 112.201 28.632C112.201 29.1867 112.009 29.656 111.625 30.04C111.262 30.424 110.814 30.616 110.281 30.616ZM111.689 33.464V51H108.777V33.464H111.689ZM125.196 33.144C127.329 33.144 129.057 33.7947 130.38 35.096C131.702 36.376 132.364 38.232 132.364 40.664V51H129.484V41.08C129.484 39.3307 129.046 37.9973 128.172 37.08C127.297 36.1413 126.102 35.672 124.588 35.672C123.052 35.672 121.825 36.152 120.908 37.112C120.012 38.072 119.564 39.4693 119.564 41.304V51H116.652V33.464H119.564V35.96C120.14 35.064 120.918 34.3707 121.9 33.88C122.902 33.3893 124.001 33.144 125.196 33.144ZM152.672 33.464V51H149.76V48.408C149.206 49.304 148.427 50.008 147.424 50.52C146.443 51.0107 145.355 51.256 144.16 51.256C142.795 51.256 141.568 50.9787 140.48 50.424C139.392 49.848 138.528 48.9947 137.888 47.864C137.27 46.7333 136.96 45.3573 136.96 43.736V33.464H139.84V43.352C139.84 45.08 140.278 46.4133 141.152 47.352C142.027 48.2693 143.222 48.728 144.736 48.728C146.294 48.728 147.52 48.248 148.416 47.288C149.312 46.328 149.76 44.9307 149.76 43.096V33.464H152.672ZM173.589 41.56C173.589 42.1147 173.557 42.7013 173.493 43.32H159.477C159.584 45.048 160.17 46.4027 161.237 47.384C162.325 48.344 163.637 48.824 165.173 48.824C166.432 48.824 167.477 48.536 168.309 47.96C169.162 47.3627 169.76 46.5733 170.101 45.592H173.237C172.768 47.2773 171.829 48.6533 170.421 49.72C169.013 50.7653 167.264 51.288 165.173 51.288C163.509 51.288 162.016 50.9147 160.693 50.168C159.392 49.4213 158.368 48.3653 157.621 47C156.874 45.6133 156.501 44.0133 156.501 42.2C156.501 40.3867 156.864 38.7973 157.589 37.432C158.314 36.0667 159.328 35.0213 160.629 34.296C161.952 33.5493 163.466 33.176 165.173 33.176C166.837 33.176 168.309 33.5387 169.589 34.264C170.869 34.9893 171.85 35.992 172.533 37.272C173.237 38.5307 173.589 39.96 173.589 41.56ZM170.581 40.952C170.581 39.8427 170.336 38.8933 169.845 38.104C169.354 37.2933 168.682 36.6853 167.829 36.28C166.997 35.8533 166.069 35.64 165.045 35.64C163.573 35.64 162.314 36.1093 161.269 37.048C160.245 37.9867 159.658 39.288 159.509 40.952H170.581Z" fill="white"/>
</svg>
