<svg width="588" height="171" viewBox="0 0 588 171" fill="none" xmlns="http://www.w3.org/2000/svg">
<rect width="588" height="171" fill="#F5E9D7"/>
<path d="M79.9601 40.5402H73.2721L72.0401 43.9502H69.9281L75.4721 28.7042H77.7821L83.3041 43.9502H81.1921L79.9601 40.5402ZM79.3881 38.9122L76.6161 31.1682L73.8441 38.9122H79.3881ZM91.5943 31.6742C93.061 31.6742 94.249 32.1215 95.1583 33.0162C96.0677 33.8962 96.5223 35.1722 96.5223 36.8442V43.9502H94.5423V37.1302C94.5423 35.9275 94.2417 35.0109 93.6403 34.3802C93.039 33.7349 92.2177 33.4122 91.1763 33.4122C90.1203 33.4122 89.277 33.7422 88.6463 34.4022C88.0303 35.0622 87.7223 36.0229 87.7223 37.2842V43.9502H85.7203V31.8942H87.7223V33.6102C88.1183 32.9942 88.6537 32.5175 89.3283 32.1802C90.0177 31.8429 90.773 31.6742 91.5943 31.6742ZM105.667 31.6742C107.133 31.6742 108.321 32.1215 109.231 33.0162C110.14 33.8962 110.595 35.1722 110.595 36.8442V43.9502H108.615V37.1302C108.615 35.9275 108.314 35.0109 107.713 34.3802C107.111 33.7349 106.29 33.4122 105.249 33.4122C104.193 33.4122 103.349 33.7422 102.719 34.4022C102.103 35.0622 101.795 36.0229 101.795 37.2842V43.9502H99.7926V31.8942H101.795V33.6102C102.191 32.9942 102.726 32.5175 103.401 32.1802C104.09 31.8429 104.845 31.6742 105.667 31.6742ZM124.557 31.8942V43.9502H122.555V42.1682C122.174 42.7842 121.638 43.2682 120.949 43.6202C120.274 43.9575 119.526 44.1262 118.705 44.1262C117.766 44.1262 116.923 43.9355 116.175 43.5542C115.427 43.1582 114.833 42.5715 114.393 41.7942C113.968 41.0169 113.755 40.0709 113.755 38.9562V31.8942H115.735V38.6922C115.735 39.8802 116.036 40.7969 116.637 41.4422C117.238 42.0729 118.06 42.3882 119.101 42.3882C120.172 42.3882 121.015 42.0582 121.631 41.3982C122.247 40.7382 122.555 39.7775 122.555 38.5162V31.8942H124.557ZM127.189 37.8782C127.189 36.6462 127.438 35.5682 127.937 34.6442C128.436 33.7055 129.118 32.9795 129.983 32.4662C130.863 31.9529 131.838 31.6962 132.909 31.6962C133.965 31.6962 134.882 31.9235 135.659 32.3782C136.436 32.8329 137.016 33.4049 137.397 34.0942V31.8942H139.421V43.9502H137.397V41.7062C137.001 42.4102 136.407 42.9969 135.615 43.4662C134.838 43.9209 133.928 44.1482 132.887 44.1482C131.816 44.1482 130.848 43.8842 129.983 43.3562C129.118 42.8282 128.436 42.0875 127.937 41.1342C127.438 40.1809 127.189 39.0955 127.189 37.8782ZM137.397 37.9002C137.397 36.9909 137.214 36.1989 136.847 35.5242C136.48 34.8495 135.982 34.3362 135.351 33.9842C134.735 33.6175 134.053 33.4342 133.305 33.4342C132.557 33.4342 131.875 33.6102 131.259 33.9622C130.643 34.3142 130.152 34.8275 129.785 35.5022C129.418 36.1769 129.235 36.9689 129.235 37.8782C129.235 38.8022 129.418 39.6089 129.785 40.2982C130.152 40.9729 130.643 41.4935 131.259 41.8602C131.875 42.2122 132.557 42.3882 133.305 42.3882C134.053 42.3882 134.735 42.2122 135.351 41.8602C135.982 41.4935 136.48 40.9729 136.847 40.2982C137.214 39.6089 137.397 38.8095 137.397 37.9002ZM144.806 27.6702V43.9502H142.804V27.6702H144.806ZM150.22 27.6702V43.9502H148.218V27.6702H150.22ZM164.016 31.8942L156.756 49.6262H154.688L157.064 43.8182L152.202 31.8942H154.424L158.208 41.6622L161.948 31.8942H164.016ZM168.097 41.1782L165.633 47.0962H164.291L165.897 41.1782H168.097ZM185.693 28.6162V30.2442H181.513V43.9502H179.511V30.2442H175.309V28.6162H185.693ZM199.158 37.4602C199.158 37.8415 199.136 38.2449 199.092 38.6702H189.456C189.529 39.8582 189.933 40.7895 190.666 41.4642C191.414 42.1242 192.316 42.4542 193.372 42.4542C194.237 42.4542 194.956 42.2562 195.528 41.8602C196.115 41.4495 196.525 40.9069 196.76 40.2322H198.916C198.593 41.3909 197.948 42.3369 196.98 43.0702C196.012 43.7889 194.809 44.1482 193.372 44.1482C192.228 44.1482 191.201 43.8915 190.292 43.3782C189.397 42.8649 188.693 42.1389 188.18 41.2002C187.667 40.2469 187.41 39.1469 187.41 37.9002C187.41 36.6535 187.659 35.5609 188.158 34.6222C188.657 33.6835 189.353 32.9649 190.248 32.4662C191.157 31.9529 192.199 31.6962 193.372 31.6962C194.516 31.6962 195.528 31.9455 196.408 32.4442C197.288 32.9429 197.963 33.6322 198.432 34.5122C198.916 35.3775 199.158 36.3602 199.158 37.4602ZM197.09 37.0422C197.09 36.2795 196.921 35.6269 196.584 35.0842C196.247 34.5269 195.785 34.1089 195.198 33.8302C194.626 33.5369 193.988 33.3902 193.284 33.3902C192.272 33.3902 191.407 33.7129 190.688 34.3582C189.984 35.0035 189.581 35.8982 189.478 37.0422H197.09ZM202.878 29.9362C202.497 29.9362 202.174 29.8042 201.91 29.5402C201.661 29.2762 201.536 28.9535 201.536 28.5722C201.536 28.1909 201.661 27.8682 201.91 27.6042C202.174 27.3402 202.497 27.2082 202.878 27.2082C203.26 27.2082 203.575 27.3402 203.824 27.6042C204.088 27.8682 204.22 28.1909 204.22 28.5722C204.22 28.9535 204.088 29.2762 203.824 29.5402C203.575 29.8042 203.26 29.9362 202.878 29.9362ZM203.868 46.5682C203.868 47.6389 203.597 48.4235 203.054 48.9222C202.512 49.4209 201.72 49.6702 200.678 49.6702H199.512V47.9762H200.348C200.906 47.9762 201.294 47.8662 201.514 47.6462C201.749 47.4262 201.866 47.0522 201.866 46.5242V31.8942H203.868V46.5682ZM217.949 31.8942V43.9502H215.947V42.1682C215.566 42.7842 215.031 43.2682 214.341 43.6202C213.667 43.9575 212.919 44.1262 212.097 44.1262C211.159 44.1262 210.315 43.9355 209.567 43.5542C208.819 43.1582 208.225 42.5715 207.785 41.7942C207.36 41.0169 207.147 40.0709 207.147 38.9562V31.8942H209.127V38.6922C209.127 39.8802 209.428 40.7969 210.029 41.4422C210.631 42.0729 211.452 42.3882 212.493 42.3882C213.564 42.3882 214.407 42.0582 215.023 41.3982C215.639 40.7382 215.947 39.7775 215.947 38.5162V31.8942H217.949ZM220.582 37.9002C220.582 36.6535 220.831 35.5682 221.33 34.6442C221.828 33.7055 222.518 32.9795 223.398 32.4662C224.292 31.9529 225.312 31.6962 226.456 31.6962C227.937 31.6962 229.154 32.0555 230.108 32.7742C231.076 33.4929 231.714 34.4902 232.022 35.7662H229.866C229.66 35.0329 229.257 34.4535 228.656 34.0282C228.069 33.6029 227.336 33.3902 226.456 33.3902C225.312 33.3902 224.388 33.7862 223.684 34.5782C222.98 35.3555 222.628 36.4629 222.628 37.9002C222.628 39.3522 222.98 40.4742 223.684 41.2662C224.388 42.0582 225.312 42.4542 226.456 42.4542C227.336 42.4542 228.069 42.2489 228.656 41.8382C229.242 41.4275 229.646 40.8409 229.866 40.0782H232.022C231.699 41.3102 231.054 42.3002 230.086 43.0482C229.118 43.7815 227.908 44.1482 226.456 44.1482C225.312 44.1482 224.292 43.8915 223.398 43.3782C222.518 42.8649 221.828 42.1389 221.33 41.2002C220.831 40.2615 220.582 39.1615 220.582 37.9002ZM245.385 31.8942V43.9502H243.383V42.1682C243.002 42.7842 242.466 43.2682 241.777 43.6202C241.102 43.9575 240.354 44.1262 239.533 44.1262C238.594 44.1262 237.751 43.9355 237.003 43.5542C236.255 43.1582 235.661 42.5715 235.221 41.7942C234.796 41.0169 234.583 40.0709 234.583 38.9562V31.8942H236.563V38.6922C236.563 39.8802 236.864 40.7969 237.465 41.4422C238.066 42.0729 238.888 42.3882 239.929 42.3882C241 42.3882 241.843 42.0582 242.459 41.3982C243.075 40.7382 243.383 39.7775 243.383 38.5162V31.8942H245.385ZM250.767 34.1162C251.163 33.4269 251.75 32.8549 252.527 32.4002C253.319 31.9309 254.236 31.6962 255.277 31.6962C256.348 31.6962 257.316 31.9529 258.181 32.4662C259.061 32.9795 259.751 33.7055 260.249 34.6442C260.748 35.5682 260.997 36.6462 260.997 37.8782C260.997 39.0955 260.748 40.1809 260.249 41.1342C259.751 42.0875 259.061 42.8282 258.181 43.3562C257.316 43.8842 256.348 44.1482 255.277 44.1482C254.251 44.1482 253.341 43.9209 252.549 43.4662C251.772 42.9969 251.178 42.4175 250.767 41.7282V49.6702H248.765V31.8942H250.767V34.1162ZM258.951 37.8782C258.951 36.9689 258.768 36.1769 258.401 35.5022C258.035 34.8275 257.536 34.3142 256.905 33.9622C256.289 33.6102 255.607 33.4342 254.859 33.4342C254.126 33.4342 253.444 33.6175 252.813 33.9842C252.197 34.3362 251.699 34.8569 251.317 35.5462C250.951 36.2209 250.767 37.0055 250.767 37.9002C250.767 38.8095 250.951 39.6089 251.317 40.2982C251.699 40.9729 252.197 41.4935 252.813 41.8602C253.444 42.2122 254.126 42.3882 254.859 42.3882C255.607 42.3882 256.289 42.2122 256.905 41.8602C257.536 41.4935 258.035 40.9729 258.401 40.2982C258.768 39.6089 258.951 38.8022 258.951 37.8782ZM262.884 37.8782C262.884 36.6462 263.134 35.5682 263.632 34.6442C264.131 33.7055 264.813 32.9795 265.678 32.4662C266.558 31.9529 267.534 31.6962 268.604 31.6962C269.66 31.6962 270.577 31.9235 271.354 32.3782C272.132 32.8329 272.711 33.4049 273.092 34.0942V31.8942H275.116V43.9502H273.092V41.7062C272.696 42.4102 272.102 42.9969 271.31 43.4662C270.533 43.9209 269.624 44.1482 268.582 44.1482C267.512 44.1482 266.544 43.8842 265.678 43.3562C264.813 42.8282 264.131 42.0875 263.632 41.1342C263.134 40.1809 262.884 39.0955 262.884 37.8782ZM273.092 37.9002C273.092 36.9909 272.909 36.1989 272.542 35.5242C272.176 34.8495 271.677 34.3362 271.046 33.9842C270.43 33.6175 269.748 33.4342 269 33.4342C268.252 33.4342 267.57 33.6102 266.954 33.9622C266.338 34.3142 265.847 34.8275 265.48 35.5022C265.114 36.1769 264.93 36.9689 264.93 37.8782C264.93 38.8022 265.114 39.6089 265.48 40.2982C265.847 40.9729 266.338 41.4935 266.954 41.8602C267.57 42.2122 268.252 42.3882 269 42.3882C269.748 42.3882 270.43 42.2122 271.046 41.8602C271.677 41.4935 272.176 40.9729 272.542 40.2982C272.909 39.6089 273.092 38.8095 273.092 37.9002ZM280.502 34.1162C280.898 33.4269 281.484 32.8549 282.262 32.4002C283.054 31.9309 283.97 31.6962 285.012 31.6962C286.082 31.6962 287.05 31.9529 287.916 32.4662C288.796 32.9795 289.485 33.7055 289.984 34.6442C290.482 35.5682 290.732 36.6462 290.732 37.8782C290.732 39.0955 290.482 40.1809 289.984 41.1342C289.485 42.0875 288.796 42.8282 287.916 43.3562C287.05 43.8842 286.082 44.1482 285.012 44.1482C283.985 44.1482 283.076 43.9209 282.284 43.4662C281.506 42.9969 280.912 42.4175 280.502 41.7282V49.6702H278.5V31.8942H280.502V34.1162ZM288.686 37.8782C288.686 36.9689 288.502 36.1769 288.136 35.5022C287.769 34.8275 287.27 34.3142 286.64 33.9622C286.024 33.6102 285.342 33.4342 284.594 33.4342C283.86 33.4342 283.178 33.6175 282.548 33.9842C281.932 34.3362 281.433 34.8569 281.052 35.5462C280.685 36.2209 280.502 37.0055 280.502 37.9002C280.502 38.8095 280.685 39.6089 281.052 40.2982C281.433 40.9729 281.932 41.4935 282.548 41.8602C283.178 42.2122 283.86 42.3882 284.594 42.3882C285.342 42.3882 286.024 42.2122 286.64 41.8602C287.27 41.4935 287.769 40.9729 288.136 40.2982C288.502 39.6089 288.686 38.8022 288.686 37.8782ZM298.625 44.1482C297.495 44.1482 296.469 43.8915 295.545 43.3782C294.635 42.8649 293.917 42.1389 293.389 41.2002C292.875 40.2469 292.619 39.1469 292.619 37.9002C292.619 36.6682 292.883 35.5829 293.411 34.6442C293.953 33.6909 294.687 32.9649 295.611 32.4662C296.535 31.9529 297.569 31.6962 298.713 31.6962C299.857 31.6962 300.891 31.9529 301.815 32.4662C302.739 32.9649 303.465 33.6835 303.993 34.6222C304.535 35.5609 304.807 36.6535 304.807 37.9002C304.807 39.1469 304.528 40.2469 303.971 41.2002C303.428 42.1389 302.687 42.8649 301.749 43.3782C300.81 43.8915 299.769 44.1482 298.625 44.1482ZM298.625 42.3882C299.343 42.3882 300.018 42.2195 300.649 41.8822C301.279 41.5449 301.785 41.0389 302.167 40.3642C302.563 39.6895 302.761 38.8682 302.761 37.9002C302.761 36.9322 302.57 36.1109 302.189 35.4362C301.807 34.7615 301.309 34.2629 300.693 33.9402C300.077 33.6029 299.409 33.4342 298.691 33.4342C297.957 33.4342 297.283 33.6029 296.667 33.9402C296.065 34.2629 295.581 34.7615 295.215 35.4362C294.848 36.1109 294.665 36.9322 294.665 37.9002C294.665 38.8829 294.841 39.7115 295.193 40.3862C295.559 41.0609 296.043 41.5669 296.645 41.9042C297.246 42.2269 297.906 42.3882 298.625 42.3882ZM318.276 31.6962C319.318 31.6962 320.227 31.9235 321.004 32.3782C321.796 32.8329 322.383 33.4049 322.764 34.0942V31.8942H324.788V44.2142C324.788 45.3142 324.554 46.2895 324.084 47.1402C323.615 48.0055 322.94 48.6802 322.06 49.1642C321.195 49.6482 320.183 49.8902 319.024 49.8902C317.44 49.8902 316.12 49.5162 315.064 48.7682C314.008 48.0202 313.385 47.0009 313.194 45.7102H315.174C315.394 46.4435 315.849 47.0302 316.538 47.4702C317.228 47.9249 318.056 48.1522 319.024 48.1522C320.124 48.1522 321.019 47.8075 321.708 47.1182C322.412 46.4289 322.764 45.4609 322.764 44.2142V41.6842C322.368 42.3882 321.782 42.9749 321.004 43.4442C320.227 43.9135 319.318 44.1482 318.276 44.1482C317.206 44.1482 316.23 43.8842 315.35 43.3562C314.485 42.8282 313.803 42.0875 313.304 41.1342C312.806 40.1809 312.556 39.0955 312.556 37.8782C312.556 36.6462 312.806 35.5682 313.304 34.6442C313.803 33.7055 314.485 32.9795 315.35 32.4662C316.23 31.9529 317.206 31.6962 318.276 31.6962ZM322.764 37.9002C322.764 36.9909 322.581 36.1989 322.214 35.5242C321.848 34.8495 321.349 34.3362 320.718 33.9842C320.102 33.6175 319.42 33.4342 318.672 33.4342C317.924 33.4342 317.242 33.6102 316.626 33.9622C316.01 34.3142 315.519 34.8275 315.152 35.5022C314.786 36.1769 314.602 36.9689 314.602 37.8782C314.602 38.8022 314.786 39.6089 315.152 40.2982C315.519 40.9729 316.01 41.4935 316.626 41.8602C317.242 42.2122 317.924 42.3882 318.672 42.3882C319.42 42.3882 320.102 42.2122 320.718 41.8602C321.349 41.4935 321.848 40.9729 322.214 40.2982C322.581 39.6089 322.764 38.8095 322.764 37.9002ZM329.206 29.9362C328.824 29.9362 328.502 29.8042 328.238 29.5402C327.974 29.2762 327.842 28.9535 327.842 28.5722C327.842 28.1909 327.974 27.8682 328.238 27.6042C328.502 27.3402 328.824 27.2082 329.206 27.2082C329.572 27.2082 329.88 27.3402 330.13 27.6042C330.394 27.8682 330.526 28.1909 330.526 28.5722C330.526 28.9535 330.394 29.2762 330.13 29.5402C329.88 29.8042 329.572 29.9362 329.206 29.9362ZM330.174 31.8942V43.9502H328.172V31.8942H330.174ZM335.588 33.8522C335.94 33.1629 336.438 32.6275 337.084 32.2462C337.744 31.8649 338.543 31.6742 339.482 31.6742V33.7422H338.954C336.71 33.7422 335.588 34.9595 335.588 37.3942V43.9502H333.586V31.8942H335.588V33.8522ZM343.795 27.6702V43.9502H341.793V27.6702H343.795ZM351.475 44.1482C350.551 44.1482 349.722 43.9942 348.989 43.6862C348.255 43.3635 347.676 42.9235 347.251 42.3662C346.825 41.7942 346.591 41.1415 346.547 40.4082H348.615C348.673 41.0095 348.952 41.5009 349.451 41.8822C349.964 42.2635 350.631 42.4542 351.453 42.4542C352.215 42.4542 352.817 42.2855 353.257 41.9482C353.697 41.6109 353.917 41.1855 353.917 40.6722C353.917 40.1442 353.682 39.7555 353.213 39.5062C352.743 39.2422 352.017 38.9855 351.035 38.7362C350.14 38.5015 349.407 38.2669 348.835 38.0322C348.277 37.7829 347.793 37.4235 347.383 36.9542C346.987 36.4702 346.789 35.8395 346.789 35.0622C346.789 34.4462 346.972 33.8815 347.339 33.3682C347.705 32.8549 348.226 32.4515 348.901 32.1582C349.575 31.8502 350.345 31.6962 351.211 31.6962C352.545 31.6962 353.623 32.0335 354.445 32.7082C355.266 33.3829 355.706 34.3069 355.765 35.4802H353.763C353.719 34.8495 353.462 34.3435 352.993 33.9622C352.538 33.5809 351.922 33.3902 351.145 33.3902C350.426 33.3902 349.854 33.5442 349.429 33.8522C349.003 34.1602 348.791 34.5635 348.791 35.0622C348.791 35.4582 348.915 35.7882 349.165 36.0522C349.429 36.3015 349.751 36.5069 350.133 36.6682C350.529 36.8149 351.071 36.9835 351.761 37.1742C352.626 37.4089 353.33 37.6435 353.873 37.8782C354.415 38.0982 354.877 38.4355 355.259 38.8902C355.655 39.3449 355.86 39.9389 355.875 40.6722C355.875 41.3322 355.691 41.9262 355.325 42.4542C354.958 42.9822 354.437 43.4002 353.763 43.7082C353.103 44.0015 352.34 44.1482 351.475 44.1482ZM363.818 37.9002C363.818 36.6535 364.067 35.5682 364.566 34.6442C365.065 33.7055 365.754 32.9795 366.634 32.4662C367.529 31.9529 368.548 31.6962 369.692 31.6962C371.173 31.6962 372.391 32.0555 373.344 32.7742C374.312 33.4929 374.95 34.4902 375.258 35.7662H373.102C372.897 35.0329 372.493 34.4535 371.892 34.0282C371.305 33.6029 370.572 33.3902 369.692 33.3902C368.548 33.3902 367.624 33.7862 366.92 34.5782C366.216 35.3555 365.864 36.4629 365.864 37.9002C365.864 39.3522 366.216 40.4742 366.92 41.2662C367.624 42.0582 368.548 42.4542 369.692 42.4542C370.572 42.4542 371.305 42.2489 371.892 41.8382C372.479 41.4275 372.882 40.8409 373.102 40.0782H375.258C374.935 41.3102 374.29 42.3002 373.322 43.0482C372.354 43.7815 371.144 44.1482 369.692 44.1482C368.548 44.1482 367.529 43.8915 366.634 43.3782C365.754 42.8649 365.065 42.1389 364.566 41.2002C364.067 40.2615 363.818 39.1615 363.818 37.9002ZM388.929 37.4602C388.929 37.8415 388.907 38.2449 388.863 38.6702H379.227C379.301 39.8582 379.704 40.7895 380.437 41.4642C381.185 42.1242 382.087 42.4542 383.143 42.4542C384.009 42.4542 384.727 42.2562 385.299 41.8602C385.886 41.4495 386.297 40.9069 386.531 40.2322H388.687C388.365 41.3909 387.719 42.3369 386.751 43.0702C385.783 43.7889 384.581 44.1482 383.143 44.1482C381.999 44.1482 380.973 43.8915 380.063 43.3782C379.169 42.8649 378.465 42.1389 377.951 41.2002C377.438 40.2469 377.181 39.1469 377.181 37.9002C377.181 36.6535 377.431 35.5609 377.929 34.6222C378.428 33.6835 379.125 32.9649 380.019 32.4662C380.929 31.9529 381.97 31.6962 383.143 31.6962C384.287 31.6962 385.299 31.9455 386.179 32.4442C387.059 32.9429 387.734 33.6322 388.203 34.5122C388.687 35.3775 388.929 36.3602 388.929 37.4602ZM386.861 37.0422C386.861 36.2795 386.693 35.6269 386.355 35.0842C386.018 34.5269 385.556 34.1089 384.969 33.8302C384.397 33.5369 383.759 33.3902 383.055 33.3902C382.043 33.3902 381.178 33.7129 380.459 34.3582C379.755 35.0035 379.352 35.8982 379.249 37.0422H386.861ZM393.574 27.6702V43.9502H391.572V27.6702H393.574ZM407.986 37.4602C407.986 37.8415 407.964 38.2449 407.92 38.6702H398.284C398.357 39.8582 398.761 40.7895 399.494 41.4642C400.242 42.1242 401.144 42.4542 402.2 42.4542C403.065 42.4542 403.784 42.2562 404.356 41.8602C404.943 41.4495 405.353 40.9069 405.588 40.2322H407.744C407.421 41.3909 406.776 42.3369 405.808 43.0702C404.84 43.7889 403.637 44.1482 402.2 44.1482C401.056 44.1482 400.029 43.8915 399.12 43.3782C398.225 42.8649 397.521 42.1389 397.008 41.2002C396.495 40.2469 396.238 39.1469 396.238 37.9002C396.238 36.6535 396.487 35.5609 396.986 34.6222C397.485 33.6835 398.181 32.9649 399.076 32.4662C399.985 31.9529 401.027 31.6962 402.2 31.6962C403.344 31.6962 404.356 31.9455 405.236 32.4442C406.116 32.9429 406.791 33.6322 407.26 34.5122C407.744 35.3775 407.986 36.3602 407.986 37.4602ZM405.918 37.0422C405.918 36.2795 405.749 35.6269 405.412 35.0842C405.075 34.5269 404.613 34.1089 404.026 33.8302C403.454 33.5369 402.816 33.3902 402.112 33.3902C401.1 33.3902 400.235 33.7129 399.516 34.3582C398.812 35.0035 398.409 35.8982 398.306 37.0422H405.918ZM412.631 34.1382C413.041 33.4195 413.643 32.8329 414.435 32.3782C415.227 31.9235 416.129 31.6962 417.141 31.6962C418.226 31.6962 419.201 31.9529 420.067 32.4662C420.932 32.9795 421.614 33.7055 422.113 34.6442C422.611 35.5682 422.861 36.6462 422.861 37.8782C422.861 39.0955 422.611 40.1809 422.113 41.1342C421.614 42.0875 420.925 42.8282 420.045 43.3562C419.179 43.8842 418.211 44.1482 417.141 44.1482C416.099 44.1482 415.183 43.9209 414.391 43.4662C413.613 43.0115 413.027 42.4322 412.631 41.7282V43.9502H410.629V27.6702H412.631V34.1382ZM420.815 37.8782C420.815 36.9689 420.631 36.1769 420.265 35.5022C419.898 34.8275 419.399 34.3142 418.769 33.9622C418.153 33.6102 417.471 33.4342 416.723 33.4342C415.989 33.4342 415.307 33.6175 414.677 33.9842C414.061 34.3362 413.562 34.8569 413.181 35.5462C412.814 36.2209 412.631 37.0055 412.631 37.9002C412.631 38.8095 412.814 39.6089 413.181 40.2982C413.562 40.9729 414.061 41.4935 414.677 41.8602C415.307 42.2122 415.989 42.3882 416.723 42.3882C417.471 42.3882 418.153 42.2122 418.769 41.8602C419.399 41.4935 419.898 40.9729 420.265 40.2982C420.631 39.6089 420.815 38.8022 420.815 37.8782ZM427.498 33.8522C427.85 33.1629 428.348 32.6275 428.994 32.2462C429.654 31.8649 430.453 31.6742 431.392 31.6742V33.7422H430.864C428.62 33.7422 427.498 34.9595 427.498 37.3942V43.9502H425.496V31.8942H427.498V33.8522ZM432.955 37.8782C432.955 36.6462 433.204 35.5682 433.703 34.6442C434.201 33.7055 434.883 32.9795 435.749 32.4662C436.629 31.9529 437.604 31.6962 438.675 31.6962C439.731 31.6962 440.647 31.9235 441.425 32.3782C442.202 32.8329 442.781 33.4049 443.163 34.0942V31.8942H445.187V43.9502H443.163V41.7062C442.767 42.4102 442.173 42.9969 441.381 43.4662C440.603 43.9209 439.694 44.1482 438.653 44.1482C437.582 44.1482 436.614 43.8842 435.749 43.3562C434.883 42.8282 434.201 42.0875 433.703 41.1342C433.204 40.1809 432.955 39.0955 432.955 37.8782ZM443.163 37.9002C443.163 36.9909 442.979 36.1989 442.613 35.5242C442.246 34.8495 441.747 34.3362 441.117 33.9842C440.501 33.6175 439.819 33.4342 439.071 33.4342C438.323 33.4342 437.641 33.6102 437.025 33.9622C436.409 34.3142 435.917 34.8275 435.551 35.5022C435.184 36.1769 435.001 36.9689 435.001 37.8782C435.001 38.8022 435.184 39.6089 435.551 40.2982C435.917 40.9729 436.409 41.4935 437.025 41.8602C437.641 42.2122 438.323 42.3882 439.071 42.3882C439.819 42.3882 440.501 42.2122 441.117 41.8602C441.747 41.4935 442.246 40.9729 442.613 40.2982C442.979 39.6089 443.163 38.8095 443.163 37.9002ZM451.012 33.5442V40.6502C451.012 41.2369 451.137 41.6549 451.386 41.9042C451.635 42.1389 452.068 42.2562 452.684 42.2562H454.158V43.9502H452.354C451.239 43.9502 450.403 43.6935 449.846 43.1802C449.289 42.6669 449.01 41.8235 449.01 40.6502V33.5442H447.448V31.8942H449.01V28.8582H451.012V31.8942H454.158V33.5442H451.012ZM467.584 37.4602C467.584 37.8415 467.562 38.2449 467.518 38.6702H457.882C457.955 39.8582 458.358 40.7895 459.092 41.4642C459.84 42.1242 460.742 42.4542 461.798 42.4542C462.663 42.4542 463.382 42.2562 463.954 41.8602C464.54 41.4495 464.951 40.9069 465.186 40.2322H467.342C467.019 41.3909 466.374 42.3369 465.406 43.0702C464.438 43.7889 463.235 44.1482 461.798 44.1482C460.654 44.1482 459.627 43.8915 458.718 43.3782C457.823 42.8649 457.119 42.1389 456.606 41.2002C456.092 40.2469 455.836 39.1469 455.836 37.9002C455.836 36.6535 456.085 35.5609 456.584 34.6222C457.082 33.6835 457.779 32.9649 458.674 32.4662C459.583 31.9529 460.624 31.6962 461.798 31.6962C462.942 31.6962 463.954 31.9455 464.834 32.4442C465.714 32.9429 466.388 33.6322 466.858 34.5122C467.342 35.3775 467.584 36.3602 467.584 37.4602ZM465.516 37.0422C465.516 36.2795 465.347 35.6269 465.01 35.0842C464.672 34.5269 464.21 34.1089 463.624 33.8302C463.052 33.5369 462.414 33.3902 461.71 33.3902C460.698 33.3902 459.832 33.7129 459.114 34.3582C458.41 35.0035 458.006 35.8982 457.904 37.0422H465.516ZM475.343 37.8782C475.343 36.6462 475.593 35.5682 476.091 34.6442C476.59 33.7055 477.272 32.9795 478.137 32.4662C479.017 31.9529 479.993 31.6962 481.063 31.6962C482.119 31.6962 483.036 31.9235 483.813 32.3782C484.591 32.8329 485.17 33.4049 485.551 34.0942V31.8942L487.575 31.8942V43.9502H485.551V41.7062C485.155 42.4102 484.561 42.9969 483.769 43.4662C482.992 43.9209 482.083 44.1482 481.041 44.1482C479.971 44.1482 479.003 43.8842 478.137 43.3562C477.272 42.8282 476.59 42.0875 476.091 41.1342C475.593 40.1809 475.343 39.0955 475.343 37.8782ZM485.551 37.9002C485.551 36.9909 485.368 36.1989 485.001 35.5242C484.635 34.8495 484.136 34.3362 483.505 33.9842C482.889 33.6175 482.207 33.4342 481.459 33.4342C480.711 33.4342 480.029 33.6102 479.413 33.9622C478.797 34.3142 478.306 34.8275 477.939 35.5022C477.573 36.1769 477.389 36.9689 477.389 37.8782C477.389 38.8022 477.573 39.6089 477.939 40.2982C478.306 40.9729 478.797 41.4935 479.413 41.8602C480.029 42.2122 480.711 42.3882 481.459 42.3882C482.207 42.3882 482.889 42.2122 483.505 41.8602C484.136 41.4935 484.635 40.9729 485.001 40.2982C485.368 39.6089 485.551 38.8095 485.551 37.9002ZM496.833 31.6742C498.299 31.6742 499.487 32.1215 500.397 33.0162C501.306 33.8962 501.761 35.1722 501.761 36.8442V43.9502H499.781V37.1302C499.781 35.9275 499.48 35.0109 498.879 34.3802C498.277 33.7349 497.456 33.4122 496.415 33.4122C495.359 33.4122 494.515 33.7422 493.885 34.4022C493.269 35.0622 492.961 36.0229 492.961 37.2842V43.9502H490.959V31.8942H492.961V33.6102C493.357 32.9942 493.892 32.5175 494.567 32.1802C495.256 31.8429 496.011 31.6742 496.833 31.6742ZM504.283 37.8782C504.283 36.6462 504.532 35.5682 505.031 34.6442C505.53 33.7055 506.212 32.9795 507.077 32.4662C507.957 31.9529 508.94 31.6962 510.025 31.6962C510.964 31.6962 511.836 31.9162 512.643 32.3562C513.45 32.7815 514.066 33.3462 514.491 34.0502V27.6702H516.515V43.9502H514.491V41.6842C514.095 42.4029 513.508 42.9969 512.731 43.4662C511.954 43.9209 511.044 44.1482 510.003 44.1482C508.932 44.1482 507.957 43.8842 507.077 43.3562C506.212 42.8282 505.53 42.0875 505.031 41.1342C504.532 40.1809 504.283 39.0955 504.283 37.8782ZM514.491 37.9002C514.491 36.9909 514.308 36.1989 513.941 35.5242C513.574 34.8495 513.076 34.3362 512.445 33.9842C511.829 33.6175 511.147 33.4342 510.399 33.4342C509.651 33.4342 508.969 33.6102 508.353 33.9622C507.737 34.3142 507.246 34.8275 506.879 35.5022C506.512 36.1769 506.329 36.9689 506.329 37.8782C506.329 38.8022 506.512 39.6089 506.879 40.2982C507.246 40.9729 507.737 41.4935 508.353 41.8602C508.969 42.2122 509.651 42.3882 510.399 42.3882C511.147 42.3882 511.829 42.2122 512.445 41.8602C513.076 41.4935 513.574 40.9729 513.941 40.2982C514.308 39.6089 514.491 38.8095 514.491 37.9002ZM113.654 66.8522C114.006 66.1629 114.505 65.6275 115.15 65.2462C115.81 64.8649 116.609 64.6742 117.548 64.6742V66.7422H117.02C114.776 66.7422 113.654 67.9595 113.654 70.3942V76.9502H111.652V64.8942H113.654V66.8522ZM130.859 70.4602C130.859 70.8415 130.837 71.2449 130.793 71.6702H121.157C121.23 72.8582 121.634 73.7895 122.367 74.4642C123.115 75.1242 124.017 75.4542 125.073 75.4542C125.938 75.4542 126.657 75.2562 127.229 74.8602C127.816 74.4495 128.226 73.9069 128.461 73.2322H130.617C130.294 74.3909 129.649 75.3369 128.681 76.0702C127.713 76.7889 126.51 77.1482 125.073 77.1482C123.929 77.1482 122.902 76.8915 121.993 76.3782C121.098 75.8649 120.394 75.1389 119.881 74.2002C119.368 73.2469 119.111 72.1469 119.111 70.9002C119.111 69.6535 119.36 68.5609 119.859 67.6222C120.358 66.6835 121.054 65.9649 121.949 65.4662C122.858 64.9529 123.9 64.6962 125.073 64.6962C126.217 64.6962 127.229 64.9455 128.109 65.4442C128.989 65.9429 129.664 66.6322 130.133 67.5122C130.617 68.3775 130.859 69.3602 130.859 70.4602ZM128.791 70.0422C128.791 69.2795 128.622 68.6269 128.285 68.0842C127.948 67.5269 127.486 67.1089 126.899 66.8302C126.327 66.5369 125.689 66.3902 124.985 66.3902C123.973 66.3902 123.108 66.7129 122.389 67.3582C121.685 68.0035 121.282 68.8982 121.179 70.0422H128.791ZM148 64.6742C148.938 64.6742 149.774 64.8722 150.508 65.2682C151.241 65.6495 151.82 66.2289 152.246 67.0062C152.671 67.7835 152.884 68.7295 152.884 69.8442V76.9502H150.904V70.1302C150.904 68.9275 150.603 68.0109 150.002 67.3802C149.415 66.7349 148.616 66.4122 147.604 66.4122C146.562 66.4122 145.734 66.7495 145.118 67.4242C144.502 68.0842 144.194 69.0449 144.194 70.3062V76.9502H142.214V70.1302C142.214 68.9275 141.913 68.0109 141.312 67.3802C140.725 66.7349 139.926 66.4122 138.914 66.4122C137.872 66.4122 137.044 66.7495 136.428 67.4242C135.812 68.0842 135.504 69.0449 135.504 70.3062V76.9502H133.502V64.8942H135.504V66.6322C135.9 66.0015 136.428 65.5175 137.088 65.1802C137.762 64.8429 138.503 64.6742 139.31 64.6742C140.322 64.6742 141.216 64.9015 141.994 65.3562C142.771 65.8109 143.35 66.4782 143.732 67.3582C144.069 66.5075 144.626 65.8475 145.404 65.3782C146.181 64.9089 147.046 64.6742 148 64.6742ZM167.168 70.4602C167.168 70.8415 167.146 71.2449 167.102 71.6702H157.466C157.539 72.8582 157.942 73.7895 158.676 74.4642C159.424 75.1242 160.326 75.4542 161.382 75.4542C162.247 75.4542 162.966 75.2562 163.538 74.8602C164.124 74.4495 164.535 73.9069 164.77 73.2322H166.926C166.603 74.3909 165.958 75.3369 164.99 76.0702C164.022 76.7889 162.819 77.1482 161.382 77.1482C160.238 77.1482 159.211 76.8915 158.302 76.3782C157.407 75.8649 156.703 75.1389 156.19 74.2002C155.676 73.2469 155.42 72.1469 155.42 70.9002C155.42 69.6535 155.669 68.5609 156.168 67.6222C156.666 66.6835 157.363 65.9649 158.258 65.4662C159.167 64.9529 160.208 64.6962 161.382 64.6962C162.526 64.6962 163.538 64.9455 164.418 65.4442C165.298 65.9429 165.972 66.6322 166.442 67.5122C166.926 68.3775 167.168 69.3602 167.168 70.4602ZM165.1 70.0422C165.1 69.2795 164.931 68.6269 164.594 68.0842C164.256 67.5269 163.794 67.1089 163.208 66.8302C162.636 66.5369 161.998 66.3902 161.294 66.3902C160.282 66.3902 159.416 66.7129 158.698 67.3582C157.994 68.0035 157.59 68.8982 157.488 70.0422H165.1ZM184.308 64.6742C185.247 64.6742 186.083 64.8722 186.816 65.2682C187.55 65.6495 188.129 66.2289 188.554 67.0062C188.98 67.7835 189.192 68.7295 189.192 69.8442V76.9502H187.212V70.1302C187.212 68.9275 186.912 68.0109 186.31 67.3802C185.724 66.7349 184.924 66.4122 183.912 66.4122C182.871 66.4122 182.042 66.7495 181.426 67.4242C180.81 68.0842 180.502 69.0449 180.502 70.3062V76.9502H178.522V70.1302C178.522 68.9275 178.222 68.0109 177.62 67.3802C177.034 66.7349 176.234 66.4122 175.222 66.4122C174.181 66.4122 173.352 66.7495 172.736 67.4242C172.12 68.0842 171.812 69.0449 171.812 70.3062V76.9502H169.81V64.8942H171.812V66.6322C172.208 66.0015 172.736 65.5175 173.396 65.1802C174.071 64.8429 174.812 64.6742 175.618 64.6742C176.63 64.6742 177.525 64.9015 178.302 65.3562C179.08 65.8109 179.659 66.4782 180.04 67.3582C180.378 66.5075 180.935 65.8475 181.712 65.3782C182.49 64.9089 183.355 64.6742 184.308 64.6742ZM194.478 67.1382C194.889 66.4195 195.49 65.8329 196.282 65.3782C197.074 64.9235 197.976 64.6962 198.988 64.6962C200.074 64.6962 201.049 64.9529 201.914 65.4662C202.78 65.9795 203.462 66.7055 203.96 67.6442C204.459 68.5682 204.708 69.6462 204.708 70.8782C204.708 72.0955 204.459 73.1809 203.96 74.1342C203.462 75.0875 202.772 75.8282 201.892 76.3562C201.027 76.8842 200.059 77.1482 198.988 77.1482C197.947 77.1482 197.03 76.9209 196.238 76.4662C195.461 76.0115 194.874 75.4322 194.478 74.7282V76.9502H192.476V60.6702H194.478V67.1382ZM202.662 70.8782C202.662 69.9689 202.479 69.1769 202.112 68.5022C201.746 67.8275 201.247 67.3142 200.616 66.9622C200 66.6102 199.318 66.4342 198.57 66.4342C197.837 66.4342 197.155 66.6175 196.524 66.9842C195.908 67.3362 195.41 67.8569 195.028 68.5462C194.662 69.2209 194.478 70.0055 194.478 70.9002C194.478 71.8095 194.662 72.6089 195.028 73.2982C195.41 73.9729 195.908 74.4935 196.524 74.8602C197.155 75.2122 197.837 75.3882 198.57 75.3882C199.318 75.3882 200 75.2122 200.616 74.8602C201.247 74.4935 201.746 73.9729 202.112 73.2982C202.479 72.6089 202.662 71.8022 202.662 70.8782ZM218.343 70.4602C218.343 70.8415 218.321 71.2449 218.277 71.6702H208.641C208.715 72.8582 209.118 73.7895 209.851 74.4642C210.599 75.1242 211.501 75.4542 212.557 75.4542C213.423 75.4542 214.141 75.2562 214.713 74.8602C215.3 74.4495 215.711 73.9069 215.945 73.2322H218.101C217.779 74.3909 217.133 75.3369 216.165 76.0702C215.197 76.7889 213.995 77.1482 212.557 77.1482C211.413 77.1482 210.387 76.8915 209.477 76.3782C208.583 75.8649 207.879 75.1389 207.365 74.2002C206.852 73.2469 206.595 72.1469 206.595 70.9002C206.595 69.6535 206.845 68.5609 207.343 67.6222C207.842 66.6835 208.539 65.9649 209.433 65.4662C210.343 64.9529 211.384 64.6962 212.557 64.6962C213.701 64.6962 214.713 64.9455 215.593 65.4442C216.473 65.9429 217.148 66.6322 217.617 67.5122C218.101 68.3775 218.343 69.3602 218.343 70.4602ZM216.275 70.0422C216.275 69.2795 216.107 68.6269 215.769 68.0842C215.432 67.5269 214.97 67.1089 214.383 66.8302C213.811 66.5369 213.173 66.3902 212.469 66.3902C211.457 66.3902 210.592 66.7129 209.873 67.3582C209.169 68.0035 208.766 68.8982 208.663 70.0422H216.275ZM222.988 66.8522C223.34 66.1629 223.839 65.6275 224.484 65.2462C225.144 64.8649 225.943 64.6742 226.882 64.6742V66.7422H226.354C224.11 66.7422 222.988 67.9595 222.988 70.3942V76.9502H220.986V64.8942H222.988V66.8522ZM239.964 66.5442H237.434V76.9502H235.432V66.5442H233.87V64.8942H235.432V64.0362C235.432 62.6869 235.777 61.7042 236.466 61.0882C237.17 60.4575 238.292 60.1422 239.832 60.1422V61.8142C238.952 61.8142 238.329 61.9902 237.962 62.3422C237.61 62.6795 237.434 63.2442 237.434 64.0362V64.8942H239.964V66.5442ZM253.298 70.4602C253.298 70.8415 253.276 71.2449 253.232 71.6702H243.596C243.67 72.8582 244.073 73.7895 244.806 74.4642C245.554 75.1242 246.456 75.4542 247.512 75.4542C248.378 75.4542 249.096 75.2562 249.668 74.8602C250.255 74.4495 250.666 73.9069 250.9 73.2322H253.056C252.734 74.3909 252.088 75.3369 251.12 76.0702C250.152 76.7889 248.95 77.1482 247.512 77.1482C246.368 77.1482 245.342 76.8915 244.432 76.3782C243.538 75.8649 242.834 75.1389 242.32 74.2002C241.807 73.2469 241.55 72.1469 241.55 70.9002C241.55 69.6535 241.8 68.5609 242.298 67.6222C242.797 66.6835 243.494 65.9649 244.388 65.4662C245.298 64.9529 246.339 64.6962 247.512 64.6962C248.656 64.6962 249.668 64.9455 250.548 65.4442C251.428 65.9429 252.103 66.6322 252.572 67.5122C253.056 68.3775 253.298 69.3602 253.298 70.4602ZM251.23 70.0422C251.23 69.2795 251.062 68.6269 250.724 68.0842C250.387 67.5269 249.925 67.1089 249.338 66.8302C248.766 66.5369 248.128 66.3902 247.424 66.3902C246.412 66.3902 245.547 66.7129 244.828 67.3582C244.124 68.0035 243.721 68.8982 243.618 70.0422H251.23ZM270.439 64.6742C271.378 64.6742 272.214 64.8722 272.947 65.2682C273.68 65.6495 274.26 66.2289 274.685 67.0062C275.11 67.7835 275.323 68.7295 275.323 69.8442V76.9502H273.343V70.1302C273.343 68.9275 273.042 68.0109 272.441 67.3802C271.854 66.7349 271.055 66.4122 270.043 66.4122C269.002 66.4122 268.173 66.7495 267.557 67.4242C266.941 68.0842 266.633 69.0449 266.633 70.3062V76.9502H264.653V70.1302C264.653 68.9275 264.352 68.0109 263.751 67.3802C263.164 66.7349 262.365 66.4122 261.353 66.4122C260.312 66.4122 259.483 66.7495 258.867 67.4242C258.251 68.0842 257.943 69.0449 257.943 70.3062V76.9502H255.941V64.8942H257.943V66.6322C258.339 66.0015 258.867 65.5175 259.527 65.1802C260.202 64.8429 260.942 64.6742 261.749 64.6742C262.761 64.6742 263.656 64.9015 264.433 65.3562C265.21 65.8109 265.79 66.4782 266.171 67.3582C266.508 66.5075 267.066 65.8475 267.843 65.3782C268.62 64.9089 269.486 64.6742 270.439 64.6742ZM279.641 62.9362C279.26 62.9362 278.937 62.8042 278.673 62.5402C278.409 62.2762 278.277 61.9535 278.277 61.5722C278.277 61.1909 278.409 60.8682 278.673 60.6042C278.937 60.3402 279.26 60.2082 279.641 60.2082C280.008 60.2082 280.316 60.3402 280.565 60.6042C280.829 60.8682 280.961 61.1909 280.961 61.5722C280.961 61.9535 280.829 62.2762 280.565 62.5402C280.316 62.8042 280.008 62.9362 279.641 62.9362ZM280.609 64.8942V76.9502H278.607V64.8942H280.609ZM289.895 64.6742C291.362 64.6742 292.55 65.1215 293.459 66.0162C294.368 66.8962 294.823 68.1722 294.823 69.8442V76.9502H292.843V70.1302C292.843 68.9275 292.542 68.0109 291.941 67.3802C291.34 66.7349 290.518 66.4122 289.477 66.4122C288.421 66.4122 287.578 66.7422 286.947 67.4022C286.331 68.0622 286.023 69.0229 286.023 70.2842V76.9502H284.021V64.8942H286.023V66.6102C286.419 65.9942 286.954 65.5175 287.629 65.1802C288.318 64.8429 289.074 64.6742 289.895 64.6742ZM299.127 62.9362C298.746 62.9362 298.423 62.8042 298.159 62.5402C297.895 62.2762 297.763 61.9535 297.763 61.5722C297.763 61.1909 297.895 60.8682 298.159 60.6042C298.423 60.3402 298.746 60.2082 299.127 60.2082C299.494 60.2082 299.802 60.3402 300.051 60.6042C300.315 60.8682 300.447 61.1909 300.447 61.5722C300.447 61.9535 300.315 62.2762 300.051 62.5402C299.802 62.8042 299.494 62.9362 299.127 62.9362ZM300.095 64.8942V76.9502H298.093V64.8942H300.095ZM309.381 64.6742C310.848 64.6742 312.036 65.1215 312.945 66.0162C313.855 66.8962 314.309 68.1722 314.309 69.8442V76.9502H312.329V70.1302C312.329 68.9275 312.029 68.0109 311.427 67.3802C310.826 66.7349 310.005 66.4122 308.963 66.4122C307.907 66.4122 307.064 66.7422 306.433 67.4022C305.817 68.0622 305.509 69.0229 305.509 70.2842V76.9502H303.507V64.8942H305.509V66.6102C305.905 65.9942 306.441 65.5175 307.115 65.1802C307.805 64.8429 308.56 64.6742 309.381 64.6742ZM328.58 70.4602C328.58 70.8415 328.558 71.2449 328.514 71.6702L318.878 71.6702C318.951 72.8582 319.354 73.7895 320.088 74.4642C320.836 75.1242 321.738 75.4542 322.794 75.4542C323.659 75.4542 324.378 75.2562 324.95 74.8602C325.536 74.4495 325.947 73.9069 326.182 73.2322H328.338C328.015 74.3909 327.37 75.3369 326.402 76.0702C325.434 76.7889 324.231 77.1482 322.794 77.1482C321.65 77.1482 320.623 76.8915 319.714 76.3782C318.819 75.8649 318.115 75.1389 317.602 74.2002C317.088 73.2469 316.832 72.1469 316.832 70.9002C316.832 69.6535 317.081 68.5609 317.58 67.6222C318.078 66.6835 318.775 65.9649 319.67 65.4662C320.579 64.9529 321.62 64.6962 322.794 64.6962C323.938 64.6962 324.95 64.9455 325.83 65.4442C326.71 65.9429 327.384 66.6322 327.854 67.5122C328.338 68.3775 328.58 69.3602 328.58 70.4602ZM326.512 70.0422C326.512 69.2795 326.343 68.6269 326.006 68.0842C325.668 67.5269 325.206 67.1089 324.62 66.8302C324.048 66.5369 323.41 66.3902 322.706 66.3902C321.694 66.3902 320.828 66.7129 320.11 67.3582C319.406 68.0035 319.002 68.8982 318.9 70.0422L326.512 70.0422ZM341.356 77.1482C340.432 77.1482 339.603 76.9942 338.87 76.6862C338.136 76.3635 337.557 75.9235 337.132 75.3662C336.706 74.7942 336.472 74.1415 336.428 73.4082H338.496C338.554 74.0095 338.833 74.5009 339.332 74.8822C339.845 75.2635 340.512 75.4542 341.334 75.4542C342.096 75.4542 342.698 75.2855 343.138 74.9482C343.578 74.6109 343.798 74.1855 343.798 73.6722C343.798 73.1442 343.563 72.7555 343.094 72.5062C342.624 72.2422 341.898 71.9855 340.916 71.7362C340.021 71.5015 339.288 71.2669 338.716 71.0322C338.158 70.7829 337.674 70.4235 337.264 69.9542C336.868 69.4702 336.67 68.8395 336.67 68.0622C336.67 67.4462 336.853 66.8815 337.22 66.3682C337.586 65.8549 338.107 65.4515 338.782 65.1582C339.456 64.8502 340.226 64.6962 341.092 64.6962C342.426 64.6962 343.504 65.0335 344.326 65.7082C345.147 66.3829 345.587 67.3069 345.646 68.4802H343.644C343.6 67.8495 343.343 67.3435 342.874 66.9622C342.419 66.5809 341.803 66.3902 341.026 66.3902C340.307 66.3902 339.735 66.5442 339.31 66.8522C338.884 67.1602 338.672 67.5635 338.672 68.0622C338.672 68.4582 338.796 68.7882 339.046 69.0522C339.31 69.3015 339.632 69.5069 340.014 69.6682C340.41 69.8149 340.952 69.9835 341.642 70.1742C342.507 70.4089 343.211 70.6435 343.754 70.8782C344.296 71.0982 344.758 71.4355 345.14 71.8902C345.536 72.3449 345.741 72.9389 345.756 73.6722C345.756 74.3322 345.572 74.9262 345.206 75.4542C344.839 75.9822 344.318 76.4002 343.644 76.7082C342.984 77.0015 342.221 77.1482 341.356 77.1482ZM351.024 66.5442V73.6502C351.024 74.2369 351.148 74.6549 351.398 74.9042C351.647 75.1389 352.08 75.2562 352.696 75.2562H354.17V76.9502H352.366C351.251 76.9502 350.415 76.6935 349.858 76.1802C349.3 75.6669 349.022 74.8235 349.022 73.6502V66.5442H347.46V64.8942H349.022V61.8582H351.024V64.8942H354.17V66.5442H351.024ZM358.597 66.8522C358.949 66.1629 359.448 65.6275 360.093 65.2462C360.753 64.8649 361.553 64.6742 362.491 64.6742V66.7422H361.963C359.719 66.7422 358.597 67.9595 358.597 70.3942V76.9502H356.595V64.8942H358.597V66.8522ZM375.802 70.4602C375.802 70.8415 375.78 71.2449 375.736 71.6702H366.1C366.174 72.8582 366.577 73.7895 367.31 74.4642C368.058 75.1242 368.96 75.4542 370.016 75.4542C370.882 75.4542 371.6 75.2562 372.172 74.8602C372.759 74.4495 373.17 73.9069 373.404 73.2322H375.56C375.238 74.3909 374.592 75.3369 373.624 76.0702C372.656 76.7889 371.454 77.1482 370.016 77.1482C368.872 77.1482 367.846 76.8915 366.936 76.3782C366.042 75.8649 365.338 75.1389 364.824 74.2002C364.311 73.2469 364.054 72.1469 364.054 70.9002C364.054 69.6535 364.304 68.5609 364.802 67.6222C365.301 66.6835 365.998 65.9649 366.892 65.4662C367.802 64.9529 368.843 64.6962 370.016 64.6962C371.16 64.6962 372.172 64.9455 373.052 65.4442C373.932 65.9429 374.607 66.6322 375.076 67.5122C375.56 68.3775 375.802 69.3602 375.802 70.4602ZM373.734 70.0422C373.734 69.2795 373.566 68.6269 373.228 68.0842C372.891 67.5269 372.429 67.1089 371.842 66.8302C371.27 66.5369 370.632 66.3902 369.928 66.3902C368.916 66.3902 368.051 66.7129 367.332 67.3582C366.628 68.0035 366.225 68.8982 366.122 70.0422H373.734ZM384.319 64.6742C385.786 64.6742 386.974 65.1215 387.883 66.0162C388.792 66.8962 389.247 68.1722 389.247 69.8442V76.9502H387.267V70.1302C387.267 68.9275 386.966 68.0109 386.365 67.3802C385.764 66.7349 384.942 66.4122 383.901 66.4122C382.845 66.4122 382.002 66.7422 381.371 67.4022C380.755 68.0622 380.447 69.0229 380.447 70.2842V76.9502H378.445V64.8942H380.447V66.6102C380.843 65.9942 381.378 65.5175 382.053 65.1802C382.742 64.8429 383.498 64.6742 384.319 64.6742ZM397.489 64.6962C398.531 64.6962 399.44 64.9235 400.217 65.3782C401.009 65.8329 401.596 66.4049 401.977 67.0942V64.8942H404.001V77.2142C404.001 78.3142 403.767 79.2895 403.297 80.1402C402.828 81.0055 402.153 81.6802 401.273 82.1642C400.408 82.6482 399.396 82.8902 398.237 82.8902C396.653 82.8902 395.333 82.5162 394.277 81.7682C393.221 81.0202 392.598 80.0009 392.407 78.7102H394.387C394.607 79.4435 395.062 80.0302 395.751 80.4702C396.441 80.9249 397.269 81.1522 398.237 81.1522C399.337 81.1522 400.232 80.8075 400.921 80.1182C401.625 79.4289 401.977 78.4609 401.977 77.2142V74.6842C401.581 75.3882 400.995 75.9749 400.217 76.4442C399.44 76.9135 398.531 77.1482 397.489 77.1482C396.419 77.1482 395.443 76.8842 394.563 76.3562C393.698 75.8282 393.016 75.0875 392.517 74.1342C392.019 73.1809 391.769 72.0955 391.769 70.8782C391.769 69.6462 392.019 68.5682 392.517 67.6442C393.016 66.7055 393.698 65.9795 394.563 65.4662C395.443 64.9529 396.419 64.6962 397.489 64.6962ZM401.977 70.9002C401.977 69.9909 401.794 69.1989 401.427 68.5242C401.061 67.8495 400.562 67.3362 399.931 66.9842C399.315 66.6175 398.633 66.4342 397.885 66.4342C397.137 66.4342 396.455 66.6102 395.839 66.9622C395.223 67.3142 394.732 67.8275 394.365 68.5022C393.999 69.1769 393.815 69.9689 393.815 70.8782C393.815 71.8022 393.999 72.6089 394.365 73.2982C394.732 73.9729 395.223 74.4935 395.839 74.8602C396.455 75.2122 397.137 75.3882 397.885 75.3882C398.633 75.3882 399.315 75.2122 399.931 74.8602C400.562 74.4935 401.061 73.9729 401.427 73.2982C401.794 72.6089 401.977 71.8095 401.977 70.9002ZM409.826 66.5442V73.6502C409.826 74.2369 409.951 74.6549 410.2 74.9042C410.45 75.1389 410.882 75.2562 411.498 75.2562H412.972V76.9502H411.168C410.054 76.9502 409.218 76.6935 408.66 76.1802C408.103 75.6669 407.824 74.8235 407.824 73.6502V66.5442H406.262V64.8942H407.824V61.8582H409.826V64.8942H412.972V66.5442H409.826ZM421.382 64.6742C422.291 64.6742 423.113 64.8722 423.846 65.2682C424.579 65.6495 425.151 66.2289 425.562 67.0062C425.987 67.7835 426.2 68.7295 426.2 69.8442V76.9502H424.22V70.1302C424.22 68.9275 423.919 68.0109 423.318 67.3802C422.717 66.7349 421.895 66.4122 420.854 66.4122C419.798 66.4122 418.955 66.7422 418.324 67.4022C417.708 68.0622 417.4 69.0229 417.4 70.2842V76.9502H415.398V60.6702H417.4V66.6102C417.796 65.9942 418.339 65.5175 419.028 65.1802C419.732 64.8429 420.517 64.6742 421.382 64.6742ZM434.588 70.8782C434.588 69.6462 434.837 68.5682 435.336 67.6442C435.834 66.7055 436.516 65.9795 437.382 65.4662C438.262 64.9529 439.237 64.6962 440.308 64.6962C441.364 64.6962 442.28 64.9235 443.058 65.3782C443.835 65.8329 444.414 66.4049 444.796 67.0942V64.8942H446.82V76.9502H444.796V74.7062C444.4 75.4102 443.806 75.9969 443.014 76.4662C442.236 76.9209 441.327 77.1482 440.286 77.1482C439.215 77.1482 438.247 76.8842 437.382 76.3562C436.516 75.8282 435.834 75.0875 435.336 74.1342C434.837 73.1809 434.588 72.0955 434.588 70.8782ZM444.796 70.9002C444.796 69.9909 444.612 69.1989 444.246 68.5242C443.879 67.8495 443.38 67.3362 442.75 66.9842C442.134 66.6175 441.452 66.4342 440.704 66.4342C439.956 66.4342 439.274 66.6102 438.658 66.9622C438.042 67.3142 437.55 67.8275 437.184 68.5022C436.817 69.1769 436.634 69.9689 436.634 70.8782C436.634 71.8022 436.817 72.6089 437.184 73.2982C437.55 73.9729 438.042 74.4935 438.658 74.8602C439.274 75.2122 439.956 75.3882 440.704 75.3882C441.452 75.3882 442.134 75.2122 442.75 74.8602C443.38 74.4935 443.879 73.9729 444.246 73.2982C444.612 72.6089 444.796 71.8095 444.796 70.9002ZM456.077 64.6742C457.543 64.6742 458.731 65.1215 459.641 66.0162C460.55 66.8962 461.005 68.1722 461.005 69.8442V76.9502H459.025V70.1302C459.025 68.9275 458.724 68.0109 458.123 67.3802C457.521 66.7349 456.7 66.4122 455.659 66.4122C454.603 66.4122 453.759 66.7422 453.129 67.4022C452.513 68.0622 452.205 69.0229 452.205 70.2842V76.9502H450.203V64.8942H452.205V66.6102C452.601 65.9942 453.136 65.5175 453.811 65.1802C454.5 64.8429 455.255 64.6742 456.077 64.6742ZM463.527 70.8782C463.527 69.6462 463.776 68.5682 464.275 67.6442C464.774 66.7055 465.456 65.9795 466.321 65.4662C467.201 64.9529 468.184 64.6962 469.269 64.6962C470.208 64.6962 471.08 64.9162 471.887 65.3562C472.694 65.7815 473.31 66.3462 473.735 67.0502V60.6702H475.759V76.9502H473.735V74.6842C473.339 75.4029 472.752 75.9969 471.975 76.4662C471.198 76.9209 470.288 77.1482 469.247 77.1482C468.176 77.1482 467.201 76.8842 466.321 76.3562C465.456 75.8282 464.774 75.0875 464.275 74.1342C463.776 73.1809 463.527 72.0955 463.527 70.8782ZM473.735 70.9002C473.735 69.9909 473.552 69.1989 473.185 68.5242C472.818 67.8495 472.32 67.3362 471.689 66.9842C471.073 66.6175 470.391 66.4342 469.643 66.4342C468.895 66.4342 468.213 66.6102 467.597 66.9622C466.981 67.3142 466.49 67.8275 466.123 68.5022C465.756 69.1769 465.573 69.9689 465.573 70.8782C465.573 71.8022 465.756 72.6089 466.123 73.2982C466.49 73.9729 466.981 74.4935 467.597 74.8602C468.213 75.2122 468.895 75.3882 469.643 75.3882C470.391 75.3882 471.073 75.2122 471.689 74.8602C472.32 74.4935 472.818 73.9729 473.185 73.2982C473.552 72.6089 473.735 71.8095 473.735 70.9002ZM49.8657 95.9362C49.4843 95.9362 49.1617 95.8042 48.8977 95.5402C48.6337 95.2762 48.5017 94.9535 48.5017 94.5722C48.5017 94.1909 48.6337 93.8682 48.8977 93.6042C49.1617 93.3402 49.4843 93.2082 49.8657 93.2082C50.2323 93.2082 50.5403 93.3402 50.7897 93.6042C51.0537 93.8682 51.1857 94.1909 51.1857 94.5722C51.1857 94.9535 51.0537 95.2762 50.7897 95.5402C50.5403 95.8042 50.2323 95.9362 49.8657 95.9362ZM50.8337 97.8942V109.95H48.8317V97.8942H50.8337ZM60.1197 97.6742C61.5864 97.6742 62.7744 98.1215 63.6837 99.0162C64.5931 99.8962 65.0477 101.172 65.0477 102.844L65.0477 109.95H63.0677L63.0677 103.13C63.0677 101.928 62.7671 101.011 62.1657 100.38C61.5644 99.7349 60.7431 99.4122 59.7017 99.4122C58.6457 99.4122 57.8024 99.7422 57.1717 100.402C56.5557 101.062 56.2477 102.023 56.2477 103.284V109.95H54.2457V97.8942H56.2477V99.6102C56.6437 98.9942 57.1791 98.5175 57.8537 98.1802C58.5431 97.8429 59.2984 97.6742 60.1197 97.6742ZM67.57 103.878C67.57 102.646 67.8193 101.568 68.318 100.644C68.8167 99.7055 69.4987 98.9795 70.364 98.4662C71.244 97.9529 72.2267 97.6962 73.312 97.6962C74.2507 97.6962 75.1233 97.9162 75.93 98.3562C76.7367 98.7815 77.3527 99.3462 77.778 100.05V93.6702H79.802V109.95H77.778V107.684C77.382 108.403 76.7953 108.997 76.018 109.466C75.2407 109.921 74.3313 110.148 73.29 110.148C72.2193 110.148 71.244 109.884 70.364 109.356C69.4987 108.828 68.8167 108.088 68.318 107.134C67.8193 106.181 67.57 105.096 67.57 103.878ZM77.778 103.9C77.778 102.991 77.5947 102.199 77.228 101.524C76.8613 100.85 76.3627 100.336 75.732 99.9842C75.116 99.6175 74.434 99.4342 73.686 99.4342C72.938 99.4342 72.256 99.6102 71.64 99.9622C71.024 100.314 70.5327 100.828 70.166 101.502C69.7993 102.177 69.616 102.969 69.616 103.878C69.616 104.802 69.7993 105.609 70.166 106.298C70.5327 106.973 71.024 107.494 71.64 107.86C72.256 108.212 72.938 108.388 73.686 108.388C74.434 108.388 75.116 108.212 75.732 107.86C76.3627 107.494 76.8613 106.973 77.228 106.298C77.5947 105.609 77.778 104.81 77.778 103.9ZM94.1852 103.46C94.1852 103.842 94.1632 104.245 94.1192 104.67H84.4832C84.5565 105.858 84.9598 106.79 85.6932 107.464C86.4412 108.124 87.3432 108.454 88.3992 108.454C89.2645 108.454 89.9832 108.256 90.5552 107.86C91.1418 107.45 91.5525 106.907 91.7872 106.232H93.9432C93.6205 107.391 92.9752 108.337 92.0072 109.07C91.0392 109.789 89.8365 110.148 88.3992 110.148C87.2552 110.148 86.2285 109.892 85.3192 109.378C84.4245 108.865 83.7205 108.139 83.2072 107.2C82.6938 106.247 82.4372 105.147 82.4372 103.9C82.4372 102.654 82.6865 101.561 83.1852 100.622C83.6838 99.6835 84.3805 98.9649 85.2752 98.4662C86.1845 97.9529 87.2258 97.6962 88.3992 97.6962C89.5432 97.6962 90.5552 97.9455 91.4352 98.4442C92.3152 98.9429 92.9898 99.6322 93.4592 100.512C93.9432 101.378 94.1852 102.36 94.1852 103.46ZM92.1172 103.042C92.1172 102.28 91.9485 101.627 91.6112 101.084C91.2738 100.527 90.8118 100.109 90.2252 99.8302C89.6532 99.5369 89.0152 99.3902 88.3112 99.3902C87.2992 99.3902 86.4338 99.7129 85.7152 100.358C85.0112 101.004 84.6078 101.898 84.5052 103.042H92.1172ZM98.8298 100.116C99.2258 99.4269 99.8124 98.8549 100.59 98.4002C101.382 97.9309 102.298 97.6962 103.34 97.6962C104.41 97.6962 105.378 97.9529 106.244 98.4662C107.124 98.9795 107.813 99.7055 108.312 100.644C108.81 101.568 109.06 102.646 109.06 103.878C109.06 105.096 108.81 106.181 108.312 107.134C107.813 108.088 107.124 108.828 106.244 109.356C105.378 109.884 104.41 110.148 103.34 110.148C102.313 110.148 101.404 109.921 100.612 109.466C99.8344 108.997 99.2404 108.418 98.8298 107.728V115.67H96.8278V97.8942H98.8298V100.116ZM107.014 103.878C107.014 102.969 106.83 102.177 106.464 101.502C106.097 100.828 105.598 100.314 104.968 99.9622C104.352 99.6102 103.67 99.4342 102.922 99.4342C102.188 99.4342 101.506 99.6175 100.876 99.9842C100.26 100.336 99.7611 100.857 99.3798 101.546C99.0131 102.221 98.8298 103.006 98.8298 103.9C98.8298 104.81 99.0131 105.609 99.3798 106.298C99.7611 106.973 100.26 107.494 100.876 107.86C101.506 108.212 102.188 108.388 102.922 108.388C103.67 108.388 104.352 108.212 104.968 107.86C105.598 107.494 106.097 106.973 106.464 106.298C106.83 105.609 107.014 104.802 107.014 103.878ZM122.695 103.46C122.695 103.842 122.673 104.245 122.629 104.67H112.993C113.066 105.858 113.47 106.79 114.203 107.464C114.951 108.124 115.853 108.454 116.909 108.454C117.774 108.454 118.493 108.256 119.065 107.86C119.652 107.45 120.062 106.907 120.297 106.232H122.453C122.13 107.391 121.485 108.337 120.517 109.07C119.549 109.789 118.346 110.148 116.909 110.148C115.765 110.148 114.738 109.892 113.829 109.378C112.934 108.865 112.23 108.139 111.717 107.2C111.204 106.247 110.947 105.147 110.947 103.9C110.947 102.654 111.196 101.561 111.695 100.622C112.194 99.6835 112.89 98.9649 113.785 98.4662C114.694 97.9529 115.736 97.6962 116.909 97.6962C118.053 97.6962 119.065 97.9455 119.945 98.4442C120.825 98.9429 121.5 99.6322 121.969 100.512C122.453 101.378 122.695 102.36 122.695 103.46ZM120.627 103.042C120.627 102.28 120.458 101.627 120.121 101.084C119.784 100.527 119.322 100.109 118.735 99.8302C118.163 99.5369 117.525 99.3902 116.821 99.3902C115.809 99.3902 114.944 99.7129 114.225 100.358C113.521 101.004 113.118 101.898 113.015 103.042H120.627ZM131.212 97.6742C132.678 97.6742 133.866 98.1215 134.776 99.0162C135.685 99.8962 136.14 101.172 136.14 102.844V109.95H134.16V103.13C134.16 101.928 133.859 101.011 133.258 100.38C132.656 99.7349 131.835 99.4122 130.794 99.4122C129.738 99.4122 128.894 99.7422 128.264 100.402C127.648 101.062 127.34 102.023 127.34 103.284V109.95H125.338V97.8942H127.34V99.6102C127.736 98.9942 128.271 98.5175 128.946 98.1802C129.635 97.8429 130.39 97.6742 131.212 97.6742ZM138.662 103.878C138.662 102.646 138.911 101.568 139.41 100.644C139.908 99.7055 140.59 98.9795 141.456 98.4662C142.336 97.9529 143.318 97.6962 144.404 97.6962C145.342 97.6962 146.215 97.9162 147.022 98.3562C147.828 98.7815 148.444 99.3462 148.87 100.05V93.6702H150.894V109.95H148.87V107.684C148.474 108.403 147.887 108.997 147.11 109.466C146.332 109.921 145.423 110.148 144.382 110.148C143.311 110.148 142.336 109.884 141.456 109.356C140.59 108.828 139.908 108.088 139.41 107.134C138.911 106.181 138.662 105.096 138.662 103.878ZM148.87 103.9C148.87 102.991 148.686 102.199 148.32 101.524C147.953 100.85 147.454 100.336 146.824 99.9842C146.208 99.6175 145.526 99.4342 144.778 99.4342C144.03 99.4342 143.348 99.6102 142.732 99.9622C142.116 100.314 141.624 100.828 141.258 101.502C140.891 102.177 140.708 102.969 140.708 103.878C140.708 104.802 140.891 105.609 141.258 106.298C141.624 106.973 142.116 107.494 142.732 107.86C143.348 108.212 144.03 108.388 144.778 108.388C145.526 108.388 146.208 108.212 146.824 107.86C147.454 107.494 147.953 106.973 148.32 106.298C148.686 105.609 148.87 104.81 148.87 103.9ZM165.277 103.46C165.277 103.842 165.255 104.245 165.211 104.67H155.575C155.648 105.858 156.052 106.79 156.785 107.464C157.533 108.124 158.435 108.454 159.491 108.454C160.356 108.454 161.075 108.256 161.647 107.86C162.234 107.45 162.644 106.907 162.879 106.232H165.035C164.712 107.391 164.067 108.337 163.099 109.07C162.131 109.789 160.928 110.148 159.491 110.148C158.347 110.148 157.32 109.892 156.411 109.378C155.516 108.865 154.812 108.139 154.299 107.2C153.786 106.247 153.529 105.147 153.529 103.9C153.529 102.654 153.778 101.561 154.277 100.622C154.776 99.6835 155.472 98.9649 156.367 98.4662C157.276 97.9529 158.318 97.6962 159.491 97.6962C160.635 97.6962 161.647 97.9455 162.527 98.4442C163.407 98.9429 164.082 99.6322 164.551 100.512C165.035 101.378 165.277 102.36 165.277 103.46ZM163.209 103.042C163.209 102.28 163.04 101.627 162.703 101.084C162.366 100.527 161.904 100.109 161.317 99.8302C160.745 99.5369 160.107 99.3902 159.403 99.3902C158.391 99.3902 157.526 99.7129 156.807 100.358C156.103 101.004 155.7 101.898 155.597 103.042H163.209ZM173.794 97.6742C175.26 97.6742 176.448 98.1215 177.358 99.0162C178.267 99.8962 178.722 101.172 178.722 102.844V109.95H176.742V103.13C176.742 101.928 176.441 101.011 175.84 100.38C175.238 99.7349 174.417 99.4122 173.376 99.4122C172.32 99.4122 171.476 99.7422 170.846 100.402C170.23 101.062 169.922 102.023 169.922 103.284V109.95H167.92V97.8942H169.922V99.6102C170.318 98.9942 170.853 98.5175 171.528 98.1802C172.217 97.8429 172.972 97.6742 173.794 97.6742ZM181.244 103.9C181.244 102.654 181.493 101.568 181.992 100.644C182.49 99.7055 183.18 98.9795 184.06 98.4662C184.954 97.9529 185.974 97.6962 187.118 97.6962C188.599 97.6962 189.816 98.0555 190.77 98.7742C191.738 99.4929 192.376 100.49 192.684 101.766H190.528C190.322 101.033 189.919 100.454 189.318 100.028C188.731 99.6029 187.998 99.3902 187.118 99.3902C185.974 99.3902 185.05 99.7862 184.346 100.578C183.642 101.356 183.29 102.463 183.29 103.9C183.29 105.352 183.642 106.474 184.346 107.266C185.05 108.058 185.974 108.454 187.118 108.454C187.998 108.454 188.731 108.249 189.318 107.838C189.904 107.428 190.308 106.841 190.528 106.078H192.684C192.361 107.31 191.716 108.3 190.748 109.048C189.78 109.782 188.57 110.148 187.118 110.148C185.974 110.148 184.954 109.892 184.06 109.378C183.18 108.865 182.49 108.139 181.992 107.2C181.493 106.262 181.244 105.162 181.244 103.9ZM206.355 103.46C206.355 103.842 206.333 104.245 206.289 104.67H196.653C196.726 105.858 197.13 106.79 197.863 107.464C198.611 108.124 199.513 108.454 200.569 108.454C201.434 108.454 202.153 108.256 202.725 107.86C203.312 107.45 203.722 106.907 203.957 106.232H206.113C205.79 107.391 205.145 108.337 204.177 109.07C203.209 109.789 202.006 110.148 200.569 110.148C199.425 110.148 198.398 109.892 197.489 109.378C196.594 108.865 195.89 108.139 195.377 107.2C194.864 106.247 194.607 105.147 194.607 103.9C194.607 102.654 194.856 101.561 195.355 100.622C195.854 99.6835 196.55 98.9649 197.445 98.4662C198.354 97.9529 199.396 97.6962 200.569 97.6962C201.713 97.6962 202.725 97.9455 203.605 98.4442C204.485 98.9429 205.16 99.6322 205.629 100.512C206.113 101.378 206.355 102.36 206.355 103.46ZM204.287 103.042C204.287 102.28 204.118 101.627 203.781 101.084C203.444 100.527 202.982 100.109 202.395 99.8302C201.823 99.5369 201.185 99.3902 200.481 99.3902C199.469 99.3902 198.604 99.7129 197.885 100.358C197.181 101.004 196.778 101.898 196.675 103.042H204.287ZM216.865 100.138C217.276 99.4195 217.877 98.8329 218.669 98.3782C219.461 97.9235 220.363 97.6962 221.375 97.6962C222.46 97.6962 223.436 97.9529 224.301 98.4662C225.166 98.9795 225.848 99.7055 226.347 100.644C226.846 101.568 227.095 102.646 227.095 103.878C227.095 105.096 226.846 106.181 226.347 107.134C225.848 108.088 225.159 108.828 224.279 109.356C223.414 109.884 222.446 110.148 221.375 110.148C220.334 110.148 219.417 109.921 218.625 109.466C217.848 109.012 217.261 108.432 216.865 107.728V109.95H214.863V93.6702H216.865V100.138ZM225.049 103.878C225.049 102.969 224.866 102.177 224.499 101.502C224.132 100.828 223.634 100.314 223.003 99.9622C222.387 99.6102 221.705 99.4342 220.957 99.4342C220.224 99.4342 219.542 99.6175 218.911 99.9842C218.295 100.336 217.796 100.857 217.415 101.546C217.048 102.221 216.865 103.006 216.865 103.9C216.865 104.81 217.048 105.609 217.415 106.298C217.796 106.973 218.295 107.494 218.911 107.86C219.542 108.212 220.224 108.388 220.957 108.388C221.705 108.388 222.387 108.212 223.003 107.86C223.634 107.494 224.132 106.973 224.499 106.298C224.866 105.609 225.049 104.802 225.049 103.878ZM240.114 97.8942L232.854 115.626H230.786L233.162 109.818L228.3 97.8942L230.522 97.8942L234.306 107.662L238.046 97.8942H240.114ZM249.994 99.8522C250.346 99.1629 250.844 98.6275 251.49 98.2462C252.15 97.8649 252.949 97.6742 253.888 97.6742V99.7422H253.36C251.116 99.7422 249.994 100.96 249.994 103.394V109.95H247.992V97.8942H249.994V99.8522ZM267.199 103.46C267.199 103.842 267.177 104.245 267.133 104.67H257.497C257.57 105.858 257.974 106.79 258.707 107.464C259.455 108.124 260.357 108.454 261.413 108.454C262.278 108.454 262.997 108.256 263.569 107.86C264.156 107.45 264.566 106.907 264.801 106.232H266.957C266.634 107.391 265.989 108.337 265.021 109.07C264.053 109.789 262.85 110.148 261.413 110.148C260.269 110.148 259.242 109.892 258.333 109.378C257.438 108.865 256.734 108.139 256.221 107.2C255.708 106.247 255.451 105.147 255.451 103.9C255.451 102.654 255.7 101.561 256.199 100.622C256.698 99.6835 257.394 98.9649 258.289 98.4662C259.198 97.9529 260.24 97.6962 261.413 97.6962C262.557 97.6962 263.569 97.9455 264.449 98.4442C265.329 98.9429 266.004 99.6322 266.473 100.512C266.957 101.378 267.199 102.36 267.199 103.46ZM265.131 103.042C265.131 102.28 264.962 101.627 264.625 101.084C264.288 100.527 263.826 100.109 263.239 99.8302C262.667 99.5369 262.029 99.3902 261.325 99.3902C260.313 99.3902 259.448 99.7129 258.729 100.358C258.025 101.004 257.622 101.898 257.519 103.042H265.131ZM280.841 103.46C280.841 103.842 280.819 104.245 280.775 104.67H271.139C271.213 105.858 271.616 106.79 272.349 107.464C273.097 108.124 273.999 108.454 275.055 108.454C275.921 108.454 276.639 108.256 277.211 107.86C277.798 107.45 278.209 106.907 278.443 106.232H280.599C280.277 107.391 279.631 108.337 278.663 109.07C277.695 109.789 276.493 110.148 275.055 110.148C273.911 110.148 272.885 109.892 271.975 109.378C271.081 108.865 270.377 108.139 269.863 107.2C269.35 106.247 269.093 105.147 269.093 103.9C269.093 102.654 269.343 101.561 269.841 100.622C270.34 99.6835 271.037 98.9649 271.931 98.4662C272.841 97.9529 273.882 97.6962 275.055 97.6962C276.199 97.6962 277.211 97.9455 278.091 98.4442C278.971 98.9429 279.646 99.6322 280.115 100.512C280.599 101.378 280.841 102.36 280.841 103.46ZM278.773 103.042C278.773 102.28 278.605 101.627 278.267 101.084C277.93 100.527 277.468 100.109 276.881 99.8302C276.309 99.5369 275.671 99.3902 274.967 99.3902C273.955 99.3902 273.09 99.7129 272.371 100.358C271.667 101.004 271.264 101.898 271.161 103.042H278.773ZM289.358 97.6742C290.825 97.6742 292.013 98.1215 292.922 99.0162C293.831 99.8962 294.286 101.172 294.286 102.844V109.95H292.306V103.13C292.306 101.928 292.005 101.011 291.404 100.38C290.803 99.7349 289.981 99.4122 288.94 99.4122C287.884 99.4122 287.041 99.7422 286.41 100.402C285.794 101.062 285.486 102.023 285.486 103.284V109.95H283.484V97.8942H285.486V99.6102C285.882 98.9942 286.417 98.5175 287.092 98.1802C287.781 97.8429 288.537 97.6742 289.358 97.6742ZM296.808 103.878C296.808 102.646 297.058 101.568 297.556 100.644C298.055 99.7055 298.737 98.9795 299.602 98.4662C300.482 97.9529 301.458 97.6962 302.528 97.6962C303.584 97.6962 304.501 97.9235 305.278 98.3782C306.056 98.8329 306.635 99.4049 307.016 100.094V97.8942H309.04V109.95H307.016V107.706C306.62 108.41 306.026 108.997 305.234 109.466C304.457 109.921 303.548 110.148 302.506 110.148C301.436 110.148 300.468 109.884 299.602 109.356C298.737 108.828 298.055 108.088 297.556 107.134C297.058 106.181 296.808 105.096 296.808 103.878ZM307.016 103.9C307.016 102.991 306.833 102.199 306.466 101.524C306.1 100.85 305.601 100.336 304.97 99.9842C304.354 99.6175 303.672 99.4342 302.924 99.4342C302.176 99.4342 301.494 99.6102 300.878 99.9622C300.262 100.314 299.771 100.828 299.404 101.502C299.038 102.177 298.854 102.969 298.854 103.878C298.854 104.802 299.038 105.609 299.404 106.298C299.771 106.973 300.262 107.494 300.878 107.86C301.494 108.212 302.176 108.388 302.924 108.388C303.672 108.388 304.354 108.212 304.97 107.86C305.601 107.494 306.1 106.973 306.466 106.298C306.833 105.609 307.016 104.81 307.016 103.9ZM311.675 103.9C311.675 102.654 311.925 101.568 312.423 100.644C312.922 99.7055 313.611 98.9795 314.491 98.4662C315.386 97.9529 316.405 97.6962 317.549 97.6962C319.031 97.6962 320.248 98.0555 321.201 98.7742C322.169 99.4929 322.807 100.49 323.115 101.766H320.959C320.754 101.033 320.351 100.454 319.749 100.028C319.163 99.6029 318.429 99.3902 317.549 99.3902C316.405 99.3902 315.481 99.7862 314.777 100.578C314.073 101.356 313.721 102.463 313.721 103.9C313.721 105.352 314.073 106.474 314.777 107.266C315.481 108.058 316.405 108.454 317.549 108.454C318.429 108.454 319.163 108.249 319.749 107.838C320.336 107.428 320.739 106.841 320.959 106.078H323.115C322.793 107.31 322.147 108.3 321.179 109.048C320.211 109.782 319.001 110.148 317.549 110.148C316.405 110.148 315.386 109.892 314.491 109.378C313.611 108.865 312.922 108.139 312.423 107.2C311.925 106.262 311.675 105.162 311.675 103.9ZM328.229 99.5442V106.65C328.229 107.237 328.353 107.655 328.603 107.904C328.852 108.139 329.285 108.256 329.901 108.256H331.375V109.95H329.571C328.456 109.95 327.62 109.694 327.063 109.18C326.505 108.667 326.227 107.824 326.227 106.65V99.5442H324.665V97.8942H326.227V94.8582H328.229V97.8942H331.375V99.5442H328.229ZM334.834 95.9362C334.453 95.9362 334.13 95.8042 333.866 95.5402C333.602 95.2762 333.47 94.9535 333.47 94.5722C333.47 94.1909 333.602 93.8682 333.866 93.6042C334.13 93.3402 334.453 93.2082 334.834 93.2082C335.201 93.2082 335.509 93.3402 335.758 93.6042C336.022 93.8682 336.154 94.1909 336.154 94.5722C336.154 94.9535 336.022 95.2762 335.758 95.5402C335.509 95.8042 335.201 95.9362 334.834 95.9362ZM335.802 97.8942V109.95H333.8V97.8942H335.802ZM345.088 97.6742C346.555 97.6742 347.743 98.1215 348.652 99.0162C349.562 99.8962 350.016 101.172 350.016 102.844V109.95H348.036V103.13C348.036 101.928 347.736 101.011 347.134 100.38C346.533 99.7349 345.712 99.4122 344.67 99.4122C343.614 99.4122 342.771 99.7422 342.14 100.402C341.524 101.062 341.216 102.023 341.216 103.284V109.95H339.214V97.8942H341.216V99.6102C341.612 98.9942 342.148 98.5175 342.822 98.1802C343.512 97.8429 344.267 97.6742 345.088 97.6742ZM358.259 97.6962C359.3 97.6962 360.209 97.9235 360.987 98.3782C361.779 98.8329 362.365 99.4049 362.747 100.094V97.8942H364.771V110.214C364.771 111.314 364.536 112.29 364.067 113.14C363.597 114.006 362.923 114.68 362.043 115.164C361.177 115.648 360.165 115.89 359.007 115.89C357.423 115.89 356.103 115.516 355.047 114.768C353.991 114.02 353.367 113.001 353.177 111.71H355.157C355.377 112.444 355.831 113.03 356.521 113.47C357.21 113.925 358.039 114.152 359.007 114.152C360.107 114.152 361.001 113.808 361.691 113.118C362.395 112.429 362.747 111.461 362.747 110.214V107.684C362.351 108.388 361.764 108.975 360.987 109.444C360.209 109.914 359.3 110.148 358.259 110.148C357.188 110.148 356.213 109.884 355.333 109.356C354.467 108.828 353.785 108.088 353.287 107.134C352.788 106.181 352.539 105.096 352.539 103.878C352.539 102.646 352.788 101.568 353.287 100.644C353.785 99.7055 354.467 98.9795 355.333 98.4662C356.213 97.9529 357.188 97.6962 358.259 97.6962ZM362.747 103.9C362.747 102.991 362.563 102.199 362.197 101.524C361.83 100.85 361.331 100.336 360.701 99.9842C360.085 99.6175 359.403 99.4342 358.655 99.4342C357.907 99.4342 357.225 99.6102 356.609 99.9622C355.993 100.314 355.501 100.828 355.135 101.502C354.768 102.177 354.585 102.969 354.585 103.878C354.585 104.802 354.768 105.609 355.135 106.298C355.501 106.973 355.993 107.494 356.609 107.86C357.225 108.212 357.907 108.388 358.655 108.388C359.403 108.388 360.085 108.212 360.701 107.86C361.331 107.494 361.83 106.973 362.197 106.298C362.563 105.609 362.747 104.81 362.747 103.9ZM376.461 99.5442V106.65C376.461 107.237 376.586 107.655 376.835 107.904C377.084 108.139 377.517 108.256 378.133 108.256H379.607V109.95H377.803C376.688 109.95 375.852 109.694 375.295 109.18C374.738 108.667 374.459 107.824 374.459 106.65V99.5442H372.897V97.8942H374.459V94.8582H376.461V97.8942H379.607V99.5442H376.461ZM388.017 97.6742C388.926 97.6742 389.748 97.8722 390.481 98.2682C391.214 98.6495 391.786 99.2289 392.197 100.006C392.622 100.784 392.835 101.73 392.835 102.844V109.95H390.855V103.13C390.855 101.928 390.554 101.011 389.953 100.38C389.352 99.7349 388.53 99.4122 387.489 99.4122C386.433 99.4122 385.59 99.7422 384.959 100.402C384.343 101.062 384.035 102.023 384.035 103.284V109.95H382.033V93.6702H384.035V99.6102C384.431 98.9942 384.974 98.5175 385.663 98.1802C386.367 97.8429 387.152 97.6742 388.017 97.6742ZM407.105 103.46C407.105 103.842 407.083 104.245 407.039 104.67H397.403C397.476 105.858 397.88 106.79 398.613 107.464C399.361 108.124 400.263 108.454 401.319 108.454C402.184 108.454 402.903 108.256 403.475 107.86C404.062 107.45 404.472 106.907 404.707 106.232H406.863C406.54 107.391 405.895 108.337 404.927 109.07C403.959 109.789 402.756 110.148 401.319 110.148C400.175 110.148 399.148 109.892 398.239 109.378C397.344 108.865 396.64 108.139 396.127 107.2C395.614 106.247 395.357 105.147 395.357 103.9C395.357 102.654 395.606 101.561 396.105 100.622C396.604 99.6835 397.3 98.9649 398.195 98.4662C399.104 97.9529 400.146 97.6962 401.319 97.6962C402.463 97.6962 403.475 97.9455 404.355 98.4442C405.235 98.9429 405.91 99.6322 406.379 100.512C406.863 101.378 407.105 102.36 407.105 103.46ZM405.037 103.042C405.037 102.28 404.868 101.627 404.531 101.084C404.194 100.527 403.732 100.109 403.145 99.8302C402.573 99.5369 401.935 99.3902 401.231 99.3902C400.219 99.3902 399.354 99.7129 398.635 100.358C397.931 101.004 397.528 101.898 397.425 103.042H405.037ZM410.782 95.9362C410.4 95.9362 410.078 95.8042 409.814 95.5402C409.55 95.2762 409.418 94.9535 409.418 94.5722C409.418 94.1909 409.55 93.8682 409.814 93.6042C410.078 93.3402 410.4 93.2082 410.782 93.2082C411.148 93.2082 411.456 93.3402 411.706 93.6042C411.97 93.8682 412.102 94.1909 412.102 94.5722C412.102 94.9535 411.97 95.2762 411.706 95.5402C411.456 95.8042 411.148 95.9362 410.782 95.9362ZM411.75 97.8942V109.95H409.748V97.8942H411.75ZM417.164 99.8522C417.516 99.1629 418.014 98.6275 418.66 98.2462C419.32 97.8649 420.119 97.6742 421.058 97.6742V99.7422H420.53C418.286 99.7422 417.164 100.96 417.164 103.394V109.95H415.162V97.8942H417.164V99.8522ZM428.486 103.878C428.486 102.646 428.735 101.568 429.234 100.644C429.733 99.7055 430.415 98.9795 431.28 98.4662C432.16 97.9529 433.135 97.6962 434.206 97.6962C435.262 97.6962 436.179 97.9235 436.956 98.3782C437.733 98.8329 438.313 99.4049 438.694 100.094V97.8942H440.718V109.95H438.694V107.706C438.298 108.41 437.704 108.997 436.912 109.466C436.135 109.921 435.225 110.148 434.184 110.148C433.113 110.148 432.145 109.884 431.28 109.356C430.415 108.828 429.733 108.088 429.234 107.134C428.735 106.181 428.486 105.096 428.486 103.878ZM438.694 103.9C438.694 102.991 438.511 102.199 438.144 101.524C437.777 100.85 437.279 100.336 436.648 99.9842C436.032 99.6175 435.35 99.4342 434.602 99.4342C433.854 99.4342 433.172 99.6102 432.556 99.9622C431.94 100.314 431.449 100.828 431.082 101.502C430.715 102.177 430.532 102.969 430.532 103.878C430.532 104.802 430.715 105.609 431.082 106.298C431.449 106.973 431.94 107.494 432.556 107.86C433.172 108.212 433.854 108.388 434.602 108.388C435.35 108.388 436.032 108.212 436.648 107.86C437.279 107.494 437.777 106.973 438.144 106.298C438.511 105.609 438.694 104.81 438.694 103.9ZM449.975 97.6742C451.442 97.6742 452.63 98.1215 453.539 99.0162C454.449 99.8962 454.903 101.172 454.903 102.844V109.95H452.923V103.13C452.923 101.928 452.623 101.011 452.021 100.38C451.42 99.7349 450.599 99.4122 449.557 99.4122C448.501 99.4122 447.658 99.7422 447.027 100.402C446.411 101.062 446.103 102.023 446.103 103.284V109.95H444.101V97.8942H446.103V99.6102C446.499 98.9942 447.035 98.5175 447.709 98.1802C448.399 97.8429 449.154 97.6742 449.975 97.6742ZM457.425 103.9C457.425 102.654 457.675 101.568 458.173 100.644C458.672 99.7055 459.361 98.9795 460.241 98.4662C461.136 97.9529 462.155 97.6962 463.299 97.6962C464.781 97.6962 465.998 98.0555 466.951 98.7742C467.919 99.4929 468.557 100.49 468.865 101.766H466.709C466.504 101.033 466.101 100.454 465.499 100.028C464.913 99.6029 464.179 99.3902 463.299 99.3902C462.155 99.3902 461.231 99.7862 460.527 100.578C459.823 101.356 459.471 102.463 459.471 103.9C459.471 105.352 459.823 106.474 460.527 107.266C461.231 108.058 462.155 108.454 463.299 108.454C464.179 108.454 464.913 108.249 465.499 107.838C466.086 107.428 466.489 106.841 466.709 106.078H468.865C468.543 107.31 467.897 108.3 466.929 109.048C465.961 109.782 464.751 110.148 463.299 110.148C462.155 110.148 461.136 109.892 460.241 109.378C459.361 108.865 458.672 108.139 458.173 107.2C457.675 106.262 457.425 105.162 457.425 103.9ZM482.537 103.46C482.537 103.842 482.515 104.245 482.471 104.67H472.835C472.908 105.858 473.311 106.79 474.045 107.464C474.793 108.124 475.695 108.454 476.751 108.454C477.616 108.454 478.335 108.256 478.907 107.86C479.493 107.45 479.904 106.907 480.139 106.232H482.295C481.972 107.391 481.327 108.337 480.359 109.07C479.391 109.789 478.188 110.148 476.751 110.148C475.607 110.148 474.58 109.892 473.671 109.378C472.776 108.865 472.072 108.139 471.559 107.2C471.045 106.247 470.789 105.147 470.789 103.9C470.789 102.654 471.038 101.561 471.537 100.622C472.035 99.6835 472.732 98.9649 473.627 98.4662C474.536 97.9529 475.577 97.6962 476.751 97.6962C477.895 97.6962 478.907 97.9455 479.787 98.4442C480.667 98.9429 481.341 99.6322 481.811 100.512C482.295 101.378 482.537 102.36 482.537 103.46ZM480.469 103.042C480.469 102.28 480.3 101.627 479.963 101.084C479.625 100.527 479.163 100.109 478.577 99.8302C478.005 99.5369 477.367 99.3902 476.663 99.3902C475.651 99.3902 474.785 99.7129 474.067 100.358C473.363 101.004 472.959 101.898 472.857 103.042H480.469ZM489.447 110.148C488.523 110.148 487.695 109.994 486.961 109.686C486.228 109.364 485.649 108.924 485.223 108.366C484.798 107.794 484.563 107.142 484.519 106.408H486.587C486.646 107.01 486.925 107.501 487.423 107.882C487.937 108.264 488.604 108.454 489.425 108.454C490.188 108.454 490.789 108.286 491.229 107.948C491.669 107.611 491.889 107.186 491.889 106.672C491.889 106.144 491.655 105.756 491.185 105.506C490.716 105.242 489.99 104.986 489.007 104.736C488.113 104.502 487.379 104.267 486.807 104.032C486.25 103.783 485.766 103.424 485.355 102.954C484.959 102.47 484.761 101.84 484.761 101.062C484.761 100.446 484.945 99.8815 485.311 99.3682C485.678 98.8549 486.199 98.4515 486.873 98.1582C487.548 97.8502 488.318 97.6962 489.183 97.6962C490.518 97.6962 491.596 98.0335 492.417 98.7082C493.239 99.3829 493.679 100.307 493.737 101.48H491.735C491.691 100.85 491.435 100.344 490.965 99.9622C490.511 99.5809 489.895 99.3902 489.117 99.3902C488.399 99.3902 487.827 99.5442 487.401 99.8522C486.976 100.16 486.763 100.564 486.763 101.062C486.763 101.458 486.888 101.788 487.137 102.052C487.401 102.302 487.724 102.507 488.105 102.668C488.501 102.815 489.044 102.984 489.733 103.174C490.599 103.409 491.303 103.644 491.845 103.878C492.388 104.098 492.85 104.436 493.231 104.89C493.627 105.345 493.833 105.939 493.847 106.672C493.847 107.332 493.664 107.926 493.297 108.454C492.931 108.982 492.41 109.4 491.735 109.708C491.075 110.002 490.313 110.148 489.447 110.148ZM499.115 99.5442V106.65C499.115 107.237 499.24 107.655 499.489 107.904C499.739 108.139 500.171 108.256 500.787 108.256H502.261V109.95H500.457C499.343 109.95 498.507 109.694 497.949 109.18C497.392 108.667 497.113 107.824 497.113 106.65V99.5442H495.551V97.8942H497.113V94.8582H499.115V97.8942H502.261V99.5442H499.115ZM509.945 110.148C508.816 110.148 507.789 109.892 506.865 109.378C505.956 108.865 505.237 108.139 504.709 107.2C504.196 106.247 503.939 105.147 503.939 103.9C503.939 102.668 504.203 101.583 504.731 100.644C505.274 99.6909 506.007 98.9649 506.931 98.4662C507.855 97.9529 508.889 97.6962 510.033 97.6962C511.177 97.6962 512.211 97.9529 513.135 98.4662C514.059 98.9649 514.785 99.6835 515.313 100.622C515.856 101.561 516.127 102.654 516.127 103.9C516.127 105.147 515.848 106.247 515.291 107.2C514.748 108.139 514.008 108.865 513.069 109.378C512.13 109.892 511.089 110.148 509.945 110.148ZM509.945 108.388C510.664 108.388 511.338 108.22 511.969 107.882C512.6 107.545 513.106 107.039 513.487 106.364C513.883 105.69 514.081 104.868 514.081 103.9C514.081 102.932 513.89 102.111 513.509 101.436C513.128 100.762 512.629 100.263 512.013 99.9402C511.397 99.6029 510.73 99.4342 510.011 99.4342C509.278 99.4342 508.603 99.6029 507.987 99.9402C507.386 100.263 506.902 100.762 506.535 101.436C506.168 102.111 505.985 102.932 505.985 103.9C505.985 104.883 506.161 105.712 506.513 106.386C506.88 107.061 507.364 107.567 507.965 107.904C508.566 108.227 509.226 108.388 509.945 108.388ZM520.761 99.8522C521.113 99.1629 521.612 98.6275 522.257 98.2462C522.917 97.8649 523.717 97.6742 524.655 97.6742V99.7422H524.127C521.883 99.7422 520.761 100.96 520.761 103.394V109.95H518.759V97.8942H520.761V99.8522ZM531.234 110.148C530.31 110.148 529.482 109.994 528.748 109.686C528.015 109.364 527.436 108.924 527.01 108.366C526.585 107.794 526.35 107.142 526.306 106.408H528.374C528.433 107.01 528.712 107.501 529.21 107.882C529.724 108.264 530.391 108.454 531.212 108.454C531.975 108.454 532.576 108.286 533.016 107.948C533.456 107.611 533.676 107.186 533.676 106.672C533.676 106.144 533.442 105.756 532.972 105.506C532.503 105.242 531.777 104.986 530.794 104.736C529.9 104.502 529.166 104.267 528.594 104.032C528.037 103.783 527.553 103.424 527.142 102.954C526.746 102.47 526.548 101.84 526.548 101.062C526.548 100.446 526.732 99.8815 527.098 99.3682C527.465 98.8549 527.986 98.4515 528.66 98.1582C529.335 97.8502 530.105 97.6962 530.97 97.6962C532.305 97.6962 533.383 98.0335 534.204 98.7082C535.026 99.3829 535.466 100.307 535.524 101.48H533.522C533.478 100.85 533.222 100.344 532.752 99.9622C532.298 99.5809 531.682 99.3902 530.904 99.3902C530.186 99.3902 529.614 99.5442 529.188 99.8522C528.763 100.16 528.55 100.564 528.55 101.062C528.55 101.458 528.675 101.788 528.924 102.052C529.188 102.302 529.511 102.507 529.892 102.668C530.288 102.815 530.831 102.984 531.52 103.174C532.386 103.409 533.09 103.644 533.632 103.878C534.175 104.098 534.637 104.436 535.018 104.89C535.414 105.345 535.62 105.939 535.634 106.672C535.634 107.332 535.451 107.926 535.084 108.454C534.718 108.982 534.197 109.4 533.522 109.708C532.862 110.002 532.1 110.148 531.234 110.148ZM539.473 92.4382L539.209 96.8162H537.823L537.537 92.4382H539.473ZM175.776 136.9C175.776 135.654 176.025 134.568 176.524 133.644C177.023 132.706 177.712 131.98 178.592 131.466C179.487 130.953 180.506 130.696 181.65 130.696C183.131 130.696 184.349 131.056 185.302 131.774C186.27 132.493 186.908 133.49 187.216 134.766H185.06C184.855 134.033 184.451 133.454 183.85 133.028C183.263 132.603 182.53 132.39 181.65 132.39C180.506 132.39 179.582 132.786 178.878 133.578C178.174 134.356 177.822 135.463 177.822 136.9C177.822 138.352 178.174 139.474 178.878 140.266C179.582 141.058 180.506 141.454 181.65 141.454C182.53 141.454 183.263 141.249 183.85 140.838C184.437 140.428 184.84 139.841 185.06 139.078H187.216C186.893 140.31 186.248 141.3 185.28 142.048C184.312 142.782 183.102 143.148 181.65 143.148C180.506 143.148 179.487 142.892 178.592 142.378C177.712 141.865 177.023 141.139 176.524 140.2C176.025 139.262 175.776 138.162 175.776 136.9ZM195.145 143.148C194.016 143.148 192.989 142.892 192.065 142.378C191.156 141.865 190.437 141.139 189.909 140.2C189.396 139.247 189.139 138.147 189.139 136.9C189.139 135.668 189.403 134.583 189.931 133.644C190.474 132.691 191.207 131.965 192.131 131.466C193.055 130.953 194.089 130.696 195.233 130.696C196.377 130.696 197.411 130.953 198.335 131.466C199.259 131.965 199.985 132.684 200.513 133.622C201.056 134.561 201.327 135.654 201.327 136.9C201.327 138.147 201.049 139.247 200.491 140.2C199.949 141.139 199.208 141.865 198.269 142.378C197.331 142.892 196.289 143.148 195.145 143.148ZM195.145 141.388C195.864 141.388 196.539 141.22 197.169 140.882C197.8 140.545 198.306 140.039 198.687 139.364C199.083 138.69 199.281 137.868 199.281 136.9C199.281 135.932 199.091 135.111 198.709 134.436C198.328 133.762 197.829 133.263 197.213 132.94C196.597 132.603 195.93 132.434 195.211 132.434C194.478 132.434 193.803 132.603 193.187 132.94C192.586 133.263 192.102 133.762 191.735 134.436C191.369 135.111 191.185 135.932 191.185 136.9C191.185 137.883 191.361 138.712 191.713 139.386C192.08 140.061 192.564 140.567 193.165 140.904C193.767 141.227 194.427 141.388 195.145 141.388ZM209.834 130.674C211.3 130.674 212.488 131.122 213.398 132.016C214.307 132.896 214.762 134.172 214.762 135.844V142.95H212.782V136.13C212.782 134.928 212.481 134.011 211.88 133.38C211.278 132.735 210.457 132.412 209.416 132.412C208.36 132.412 207.516 132.742 206.886 133.402C206.27 134.062 205.962 135.023 205.962 136.284V142.95H203.96V130.894H205.962V132.61C206.358 131.994 206.893 131.518 207.568 131.18C208.257 130.843 209.012 130.674 209.834 130.674ZM222.938 132.544H220.408V142.95H218.406V132.544H216.844V130.894H218.406V130.036C218.406 128.687 218.751 127.704 219.44 127.088C220.144 126.458 221.266 126.142 222.806 126.142V127.814C221.926 127.814 221.303 127.99 220.936 128.342C220.584 128.68 220.408 129.244 220.408 130.036V130.894H222.938V132.544ZM227.274 126.67V142.95H225.272V126.67H227.274ZM231.72 128.936C231.339 128.936 231.016 128.804 230.752 128.54C230.488 128.276 230.356 127.954 230.356 127.572C230.356 127.191 230.488 126.868 230.752 126.604C231.016 126.34 231.339 126.208 231.72 126.208C232.087 126.208 232.395 126.34 232.644 126.604C232.908 126.868 233.04 127.191 233.04 127.572C233.04 127.954 232.908 128.276 232.644 128.54C232.395 128.804 232.087 128.936 231.72 128.936ZM232.688 130.894V142.95H230.686V130.894H232.688ZM235.352 136.9C235.352 135.654 235.602 134.568 236.1 133.644C236.599 132.706 237.288 131.98 238.168 131.466C239.063 130.953 240.082 130.696 241.226 130.696C242.708 130.696 243.925 131.056 244.878 131.774C245.846 132.493 246.484 133.49 246.792 134.766H244.636C244.431 134.033 244.028 133.454 243.426 133.028C242.84 132.603 242.106 132.39 241.226 132.39C240.082 132.39 239.158 132.786 238.454 133.578C237.75 134.356 237.398 135.463 237.398 136.9C237.398 138.352 237.75 139.474 238.454 140.266C239.158 141.058 240.082 141.454 241.226 141.454C242.106 141.454 242.84 141.249 243.426 140.838C244.013 140.428 244.416 139.841 244.636 139.078H246.792C246.47 140.31 245.824 141.3 244.856 142.048C243.888 142.782 242.678 143.148 241.226 143.148C240.082 143.148 239.063 142.892 238.168 142.378C237.288 141.865 236.599 141.139 236.1 140.2C235.602 139.262 235.352 138.162 235.352 136.9ZM251.906 132.544V139.65C251.906 140.237 252.03 140.655 252.28 140.904C252.529 141.139 252.962 141.256 253.578 141.256H255.052V142.95H253.248C252.133 142.95 251.297 142.694 250.74 142.18C250.182 141.667 249.904 140.824 249.904 139.65V132.544H248.342V130.894H249.904V127.858H251.906V130.894H255.052V132.544H251.906ZM279.402 130.894L275.64 142.95H273.572L270.668 133.38L267.764 142.95H265.696L261.912 130.894H263.958L266.73 141.014L269.722 130.894H271.768L274.694 141.036L277.422 130.894H279.402ZM282.423 128.936C282.042 128.936 281.719 128.804 281.455 128.54C281.191 128.276 281.059 127.954 281.059 127.572C281.059 127.191 281.191 126.868 281.455 126.604C281.719 126.34 282.042 126.208 282.423 126.208C282.79 126.208 283.098 126.34 283.347 126.604C283.611 126.868 283.743 127.191 283.743 127.572C283.743 127.954 283.611 128.276 283.347 128.54C283.098 128.804 282.79 128.936 282.423 128.936ZM283.391 130.894V142.95H281.389V130.894H283.391ZM289.245 132.544V139.65C289.245 140.237 289.37 140.655 289.619 140.904C289.869 141.139 290.301 141.256 290.917 141.256H292.391V142.95H290.587C289.473 142.95 288.637 142.694 288.079 142.18C287.522 141.667 287.243 140.824 287.243 139.65V132.544H285.681V130.894H287.243V127.858H289.245V130.894H292.391V132.544H289.245ZM300.801 130.674C301.71 130.674 302.532 130.872 303.265 131.268C303.998 131.65 304.57 132.229 304.981 133.006C305.406 133.784 305.619 134.73 305.619 135.844V142.95H303.639V136.13C303.639 134.928 303.338 134.011 302.737 133.38C302.136 132.735 301.314 132.412 300.273 132.412C299.217 132.412 298.374 132.742 297.743 133.402C297.127 134.062 296.819 135.023 296.819 136.284V142.95H294.817V126.67H296.819V132.61C297.215 131.994 297.758 131.518 298.447 131.18C299.151 130.843 299.936 130.674 300.801 130.674ZM315.789 128.936C315.407 128.936 315.085 128.804 314.821 128.54C314.557 128.276 314.425 127.954 314.425 127.572C314.425 127.191 314.557 126.868 314.821 126.604C315.085 126.34 315.407 126.208 315.789 126.208C316.155 126.208 316.463 126.34 316.713 126.604C316.977 126.868 317.109 127.191 317.109 127.572C317.109 127.954 316.977 128.276 316.713 128.54C316.463 128.804 316.155 128.936 315.789 128.936ZM316.757 130.894V142.95H314.755V130.894H316.757ZM326.043 130.674C327.509 130.674 328.697 131.122 329.607 132.016C330.516 132.896 330.971 134.172 330.971 135.844V142.95H328.991V136.13C328.991 134.928 328.69 134.011 328.089 133.38C327.487 132.735 326.666 132.412 325.625 132.412C324.569 132.412 323.725 132.742 323.095 133.402C322.479 134.062 322.171 135.023 322.171 136.284V142.95H320.169V130.894H322.171V132.61C322.567 131.994 323.102 131.518 323.777 131.18C324.466 130.843 325.221 130.674 326.043 130.674ZM338.729 141.102L342.469 130.894H344.603L339.873 142.95H337.541L332.811 130.894H334.967L338.729 141.102ZM345.825 136.878C345.825 135.646 346.074 134.568 346.573 133.644C347.072 132.706 347.754 131.98 348.619 131.466C349.499 130.953 350.474 130.696 351.545 130.696C352.601 130.696 353.518 130.924 354.295 131.378C355.072 131.833 355.652 132.405 356.033 133.094V130.894H358.057V142.95H356.033V140.706C355.637 141.41 355.043 141.997 354.251 142.466C353.474 142.921 352.564 143.148 351.523 143.148C350.452 143.148 349.484 142.884 348.619 142.356C347.754 141.828 347.072 141.088 346.573 140.134C346.074 139.181 345.825 138.096 345.825 136.878ZM356.033 136.9C356.033 135.991 355.85 135.199 355.483 134.524C355.116 133.85 354.618 133.336 353.987 132.984C353.371 132.618 352.689 132.434 351.941 132.434C351.193 132.434 350.511 132.61 349.895 132.962C349.279 133.314 348.788 133.828 348.421 134.502C348.054 135.177 347.871 135.969 347.871 136.878C347.871 137.802 348.054 138.609 348.421 139.298C348.788 139.973 349.279 140.494 349.895 140.86C350.511 141.212 351.193 141.388 351.941 141.388C352.689 141.388 353.371 141.212 353.987 140.86C354.618 140.494 355.116 139.973 355.483 139.298C355.85 138.609 356.033 137.81 356.033 136.9ZM360.692 136.878C360.692 135.646 360.941 134.568 361.44 133.644C361.939 132.706 362.621 131.98 363.486 131.466C364.366 130.953 365.349 130.696 366.434 130.696C367.373 130.696 368.245 130.916 369.052 131.356C369.859 131.782 370.475 132.346 370.9 133.05V126.67H372.924V142.95H370.9V140.684C370.504 141.403 369.917 141.997 369.14 142.466C368.363 142.921 367.453 143.148 366.412 143.148C365.341 143.148 364.366 142.884 363.486 142.356C362.621 141.828 361.939 141.088 361.44 140.134C360.941 139.181 360.692 138.096 360.692 136.878ZM370.9 136.9C370.9 135.991 370.717 135.199 370.35 134.524C369.983 133.85 369.485 133.336 368.854 132.984C368.238 132.618 367.556 132.434 366.808 132.434C366.06 132.434 365.378 132.61 364.762 132.962C364.146 133.314 363.655 133.828 363.288 134.502C362.921 135.177 362.738 135.969 362.738 136.878C362.738 137.802 362.921 138.609 363.288 139.298C363.655 139.973 364.146 140.494 364.762 140.86C365.378 141.212 366.06 141.388 366.808 141.388C367.556 141.388 368.238 141.212 368.854 140.86C369.485 140.494 369.983 139.973 370.35 139.298C370.717 138.609 370.9 137.81 370.9 136.9ZM387.307 136.46C387.307 136.842 387.285 137.245 387.241 137.67H377.605C377.679 138.858 378.082 139.79 378.815 140.464C379.563 141.124 380.465 141.454 381.521 141.454C382.387 141.454 383.105 141.256 383.677 140.86C384.264 140.45 384.675 139.907 384.909 139.232H387.065C386.743 140.391 386.097 141.337 385.129 142.07C384.161 142.789 382.959 143.148 381.521 143.148C380.377 143.148 379.351 142.892 378.441 142.378C377.547 141.865 376.843 141.139 376.329 140.2C375.816 139.247 375.559 138.147 375.559 136.9C375.559 135.654 375.809 134.561 376.307 133.622C376.806 132.684 377.503 131.965 378.397 131.466C379.307 130.953 380.348 130.696 381.521 130.696C382.665 130.696 383.677 130.946 384.557 131.444C385.437 131.943 386.112 132.632 386.581 133.512C387.065 134.378 387.307 135.36 387.307 136.46ZM385.239 136.042C385.239 135.28 385.071 134.627 384.733 134.084C384.396 133.527 383.934 133.109 383.347 132.83C382.775 132.537 382.137 132.39 381.433 132.39C380.421 132.39 379.556 132.713 378.837 133.358C378.133 134.004 377.73 134.898 377.627 136.042H385.239ZM391.952 132.852C392.304 132.163 392.802 131.628 393.448 131.246C394.108 130.865 394.907 130.674 395.846 130.674V132.742H395.318C393.074 132.742 391.952 133.96 391.952 136.394V142.95H389.95V130.894H391.952V132.852ZM402.425 143.148C401.501 143.148 400.672 142.994 399.939 142.686C399.206 142.364 398.626 141.924 398.201 141.366C397.776 140.794 397.541 140.142 397.497 139.408H399.565C399.624 140.01 399.902 140.501 400.401 140.882C400.914 141.264 401.582 141.454 402.403 141.454C403.166 141.454 403.767 141.286 404.207 140.948C404.647 140.611 404.867 140.186 404.867 139.672C404.867 139.144 404.632 138.756 404.163 138.506C403.694 138.242 402.968 137.986 401.985 137.736C401.09 137.502 400.357 137.267 399.785 137.032C399.228 136.783 398.744 136.424 398.333 135.954C397.937 135.47 397.739 134.84 397.739 134.062C397.739 133.446 397.922 132.882 398.289 132.368C398.656 131.855 399.176 131.452 399.851 131.158C400.526 130.85 401.296 130.696 402.161 130.696C403.496 130.696 404.574 131.034 405.395 131.708C406.216 132.383 406.656 133.307 406.715 134.48H404.713C404.669 133.85 404.412 133.344 403.943 132.962C403.488 132.581 402.872 132.39 402.095 132.39C401.376 132.39 400.804 132.544 400.379 132.852C399.954 133.16 399.741 133.564 399.741 134.062C399.741 134.458 399.866 134.788 400.115 135.052C400.379 135.302 400.702 135.507 401.083 135.668C401.479 135.815 402.022 135.984 402.711 136.174C403.576 136.409 404.28 136.644 404.823 136.878C405.366 137.098 405.828 137.436 406.209 137.89C406.605 138.345 406.81 138.939 406.825 139.672C406.825 140.332 406.642 140.926 406.275 141.454C405.908 141.982 405.388 142.4 404.713 142.708C404.053 143.002 403.29 143.148 402.425 143.148ZM410.289 143.082C409.908 143.082 409.585 142.95 409.321 142.686C409.057 142.422 408.925 142.1 408.925 141.718C408.925 141.337 409.057 141.014 409.321 140.75C409.585 140.486 409.908 140.354 410.289 140.354C410.656 140.354 410.964 140.486 411.213 140.75C411.477 141.014 411.609 141.337 411.609 141.718C411.609 142.1 411.477 142.422 411.213 142.686C410.964 142.95 410.656 143.082 410.289 143.082Z" fill="black"/>
</svg>
