<svg width="207" height="519" viewBox="0 0 207 519" fill="none" xmlns="http://www.w3.org/2000/svg">
<g clip-path="url(#clip0_94_4413)">
<ellipse cx="103.499" cy="69.0646" rx="80.5" ry="69.0646" fill="black"/>
<ellipse cx="102" cy="152.348" rx="75" ry="123.91" fill="black"/>
<path d="M103.871 382.301C115.901 415.354 123.897 446.315 127.104 469.649C128.708 481.319 129.11 491.054 128.232 498.178C127.793 501.741 127.037 504.623 125.97 506.761C124.905 508.896 123.55 510.252 121.924 510.843C120.298 511.435 118.389 511.268 116.201 510.317C114.01 509.365 111.578 507.643 108.951 505.196C103.699 500.303 97.7498 492.587 91.4768 482.616C78.935 462.68 65.1581 433.823 53.1279 400.77C41.0977 367.717 33.1022 336.756 29.8955 313.423C28.2916 301.752 27.8896 292.017 28.7675 284.893C29.2066 281.33 29.9626 278.448 31.0292 276.31C32.0943 274.175 33.449 272.819 35.075 272.228C36.7011 271.636 38.6101 271.803 40.7985 272.754C42.9896 273.706 45.4213 275.428 48.0478 277.875C53.2997 282.768 59.2493 290.484 65.5224 300.455C78.0641 320.391 91.8411 349.248 103.871 382.301Z" fill="#CB9D8A" stroke="#A67D6B"/>
<path d="M86.8273 239.899C77.9375 264.706 67.0062 286.079 56.531 300.58C51.2913 307.834 46.1829 313.344 41.5204 316.709C36.8417 320.086 32.7218 321.229 29.3898 319.997C26.0578 318.765 23.6249 315.2 22.178 309.559C20.7361 303.937 20.3101 296.381 20.8868 287.404C22.0397 269.456 27.1923 245.947 36.0822 221.14C44.9721 196.333 55.9034 174.96 66.3786 160.459C71.6182 153.206 76.7267 147.696 81.3892 144.33C86.0678 140.953 90.1878 139.811 93.5198 141.043C96.8518 142.274 99.2847 145.839 100.732 151.481C102.173 157.102 102.6 164.659 102.023 173.636C100.87 191.583 95.7172 215.092 86.8273 239.899Z" fill="#CB9D8A" stroke="#A67D6B"/>
<path d="M160.089 396.224C153.982 430.864 145.425 461.675 136.536 483.485C132.089 494.395 127.57 503.026 123.247 508.757C121.086 511.623 118.99 513.741 116.997 515.059C115.008 516.375 113.157 516.872 111.452 516.572C109.748 516.271 108.179 515.171 106.759 513.254C105.338 511.334 104.093 508.627 103.042 505.194C100.94 498.331 99.6452 488.674 99.1982 476.902C98.3045 453.366 100.802 421.487 106.91 386.847C113.018 352.208 121.574 321.396 130.464 299.586C134.91 288.677 139.429 280.045 143.752 274.314C145.914 271.448 148.009 269.33 150.002 268.012C151.992 266.696 153.843 266.199 155.547 266.5C157.251 266.8 158.82 267.9 160.24 269.817C161.662 271.738 162.907 274.445 163.958 277.877C166.06 284.741 167.354 294.397 167.801 306.169C168.695 329.705 166.197 361.585 160.089 396.224Z" fill="#CB9D8A" stroke="#A67D6B"/>
<path d="M165.448 221.14C174.338 245.947 179.49 269.456 180.643 287.403C181.22 296.38 180.794 303.936 179.352 309.558C177.905 315.2 175.472 318.765 172.14 319.996C168.808 321.228 164.688 320.085 160.01 316.709C155.347 313.343 150.239 307.833 144.999 300.58C134.524 286.079 123.593 264.706 114.703 239.899C105.813 215.092 100.66 191.583 99.5074 173.636C98.9307 164.659 99.3568 157.103 100.799 151.481C102.246 145.84 104.678 142.275 108.01 141.043C111.342 139.811 115.462 140.954 120.141 144.331C124.804 147.696 129.912 153.206 135.152 160.459C145.627 174.96 156.558 196.333 165.448 221.14Z" fill="#CB9D8A" stroke="#A67D6B"/>
<path d="M146.699 263.343C146.699 332.899 127.224 389.285 103.199 389.285C79.1748 389.285 59.6992 332.899 59.6992 263.343C59.6992 193.788 79.1748 137.402 103.199 137.402C127.224 137.402 146.699 193.788 146.699 263.343Z" fill="#CB9D8A"/>
<path d="M103.49 208.974L206.98 388.996H1.52588e-05L103.49 208.974Z" fill="#F28686"/>
<rect x="64.9993" y="202.116" width="77" height="69.7231" fill="#5FAEC7"/>
<ellipse cx="102" cy="83.2829" rx="54" ry="54.8454" fill="#CB9D8A"/>
<ellipse cx="102" cy="83.2829" rx="54" ry="54.8454" fill="#CB9D8A"/>
<line x1="86" y1="111.5" x2="117" y2="111.5" stroke="black"/>
<rect x="69.0002" y="28.4375" width="70" height="30.4697" fill="black"/>
<ellipse cx="78.5" cy="80.2369" rx="8.5" ry="11.1722" fill="#D9D9D9"/>
<ellipse cx="83.0002" cy="80.237" rx="4" ry="6.09394" fill="black"/>
<ellipse cx="124.5" cy="80.2369" rx="8.5" ry="11.1722" fill="#D9D9D9"/>
<ellipse cx="129" cy="80.237" rx="4" ry="6.09394" fill="black"/>
<line x1="97.0005" y1="98.019" x2="108" y2="98.019" stroke="black"/>
<path d="M126.042 95.8008H142.042V101.895H126.042V95.8008Z" fill="#5FAEC7"/>
<path d="M62.3132 95.8008H78.3132V101.895H62.3132V95.8008Z" fill="#5FAEC7"/>
</g>
<defs>
<clipPath id="clip0_94_4413">
<rect width="207" height="519" fill="white"/>
</clipPath>
</defs>
</svg>
