<svg width="90" height="58" viewBox="0 0 90 58" fill="none" xmlns="http://www.w3.org/2000/svg">
<rect x="0.100192" y="0.718322" width="3.94251" height="9.76458" transform="matrix(0.78205 0.623216 -0.581666 0.813428 21.5744 28.0716)" fill="#CC4F4F" stroke="#8B2929"/>
<path d="M15.5468 37.3815C16.1964 37.2956 17.0891 37.704 18.0549 38.7176C18.9979 39.7072 19.8921 41.1628 20.4837 42.8499C21.0753 44.537 21.2359 46.0895 21.0397 47.2297C20.8387 48.3975 20.2988 48.9953 19.6493 49.0812C18.9997 49.1671 18.107 48.7586 17.1411 47.745C16.1982 46.7554 15.3039 45.2999 14.7123 43.6128C14.1208 41.9257 13.9602 40.3731 14.1564 39.233C14.3574 38.0651 14.8972 37.4673 15.5468 37.3815Z" fill="#CC4F4F" stroke="#8B2929"/>
<rect x="-0.174694" y="0.703922" width="3.94251" height="9.76458" transform="matrix(0.493495 0.869748 -0.842883 0.538096 21.1796 22.881)" fill="#CC4F4F" stroke="#8B2929"/>
<path d="M11.9936 29.0275C12.6284 29.1898 13.3046 29.9015 13.8232 31.202C14.3296 32.4717 14.617 34.1556 14.5373 35.9417C14.4576 37.7278 14.0281 39.2283 13.4211 40.2132C12.7995 41.2221 12.0757 41.5757 11.441 41.4133C10.8062 41.2509 10.13 40.5393 9.61135 39.2387C9.10503 37.969 8.81759 36.2851 8.89729 34.4991C8.97698 32.713 9.40652 31.2125 10.0134 30.2275C10.6351 29.2187 11.3589 28.8651 11.9936 29.0275Z" fill="#CC4F4F" stroke="#8B2929"/>
<rect x="0.100192" y="0.718322" width="3.94251" height="9.76458" transform="matrix(0.78205 0.623216 -0.581666 0.813428 26.5744 32.0716)" fill="#CC4F4F" stroke="#8B2929"/>
<path d="M20.5468 41.3815C21.1964 41.2956 22.0891 41.704 23.0549 42.7176C23.9979 43.7072 24.8921 45.1628 25.4837 46.8499C26.0753 48.537 26.2359 50.0895 26.0397 51.2297C25.8387 52.3975 25.2988 52.9953 24.6493 53.0812C23.9997 53.1671 23.107 52.7586 22.1411 51.745C21.1982 50.7554 20.3039 49.2999 19.7123 47.6128C19.1208 45.9257 18.9602 44.3731 19.1564 43.233C19.3574 42.0651 19.8972 41.4673 20.5468 41.3815Z" fill="#CC4F4F" stroke="#8B2929"/>
<rect x="0.0981738" y="0.702879" width="3.85649" height="9.44339" transform="matrix(0.795902 0.605425 -0.599555 0.800334 32.5762 36.0809)" fill="#CC4F4F" stroke="#8B2929"/>
<path d="M26.5538 44.974C27.2136 44.8907 28.1062 45.286 29.0641 46.2455C30.0026 47.1857 30.8936 48.5696 31.4834 50.1749C32.0731 51.7802 32.2327 53.2564 32.0374 54.3397C31.8381 55.4452 31.3021 56.0207 30.6423 56.104C29.9825 56.1873 29.0899 55.792 28.132 54.8325C27.1934 53.8923 26.3024 52.5084 25.7127 50.9031C25.123 49.2978 24.9634 47.8216 25.1586 46.7383C25.3579 45.6328 25.8939 45.0572 26.5538 44.974Z" fill="#CC4F4F" stroke="#8B2929"/>
<rect x="-0.100192" y="0.718322" width="3.94251" height="9.76458" transform="matrix(-0.78205 0.623216 0.581666 0.813428 67.2689 29.1965)" fill="#CC4F4F" stroke="#8B2929"/>
<path d="M73.4532 38.3815C72.8036 38.2956 71.9109 38.704 70.9451 39.7176C70.0021 40.7072 69.1079 42.1628 68.5163 43.8499C67.9247 45.537 67.7641 47.0895 67.9603 48.2297C68.1613 49.3975 68.7012 49.9953 69.3507 50.0812C70.0003 50.1671 70.893 49.7586 71.8589 48.745C72.8018 47.7554 73.6961 46.2999 74.2877 44.6128C74.8792 42.9257 75.0398 41.3731 74.8436 40.233C74.6426 39.0651 74.1028 38.4673 73.4532 38.3815Z" fill="#CC4F4F" stroke="#8B2929"/>
<rect x="0.174694" y="0.703922" width="3.94251" height="9.76458" transform="matrix(-0.493495 0.869748 0.842883 0.538096 67.9928 23.5771)" fill="#CC4F4F" stroke="#8B2929"/>
<path d="M77.0064 30.0275C76.3716 30.1898 75.6954 30.9015 75.1768 32.202C74.6704 33.4717 74.383 35.1556 74.4627 36.9417C74.5424 38.7278 74.9719 40.2283 75.5789 41.2132C76.2005 42.2221 76.9243 42.5757 77.559 42.4133C78.1938 42.2509 78.87 41.5393 79.3887 40.2387C79.895 38.969 80.1824 37.2851 80.1027 35.4991C80.023 33.713 79.5935 32.2125 78.9866 31.2275C78.3649 30.2187 77.6411 29.8651 77.0064 30.0275Z" fill="#CC4F4F" stroke="#8B2929"/>
<rect x="-0.100192" y="0.718322" width="3.94251" height="9.76458" transform="matrix(-0.78205 0.623216 0.581666 0.813428 62.2689 33.1965)" fill="#CC4F4F" stroke="#8B2929"/>
<path d="M68.4532 42.3815C67.8036 42.2956 66.9109 42.704 65.9451 43.7176C65.0021 44.7072 64.1079 46.1628 63.5163 47.8499C62.9247 49.537 62.7641 51.0895 62.9603 52.2297C63.1613 53.3975 63.7012 53.9953 64.3507 54.0812C65.0003 54.1671 65.893 53.7586 66.8589 52.745C67.8018 51.7554 68.6961 50.2999 69.2877 48.6128C69.8792 46.9257 70.0398 45.3731 69.8436 44.233C69.6426 43.0651 69.1028 42.4673 68.4532 42.3815Z" fill="#CC4F4F" stroke="#8B2929"/>
<rect x="-0.0981738" y="0.702879" width="3.85649" height="9.44339" transform="matrix(-0.795902 0.605425 0.599555 0.800334 56.2675 37.1998)" fill="#CC4F4F" stroke="#8B2929"/>
<path d="M62.4462 45.974C61.7864 45.8907 60.8938 46.286 59.9359 47.2455C58.9974 48.1857 58.1064 49.5696 57.5166 51.1749C56.9269 52.7802 56.7673 54.2564 56.9626 55.3397C57.1619 56.4452 57.6979 57.0207 58.3577 57.104C59.0175 57.1873 59.9101 56.792 60.868 55.8325C61.8066 54.8923 62.6976 53.5084 63.2873 51.9031C63.877 50.2978 64.0366 48.8216 63.8414 47.7383C63.6421 46.6328 63.1061 46.0572 62.4462 45.974Z" fill="#CC4F4F" stroke="#8B2929"/>
<path d="M19.6326 25.7831C19.5154 21.902 22.1904 18.2041 26.8301 15.3896C31.455 12.5841 37.9387 10.7236 45.1831 10.5048C52.4274 10.286 59.0116 11.7518 63.7973 14.2731C68.5984 16.8025 71.4917 20.3322 71.6089 24.2133C71.7262 28.0944 69.0511 31.7923 64.4114 34.6068C59.7865 37.4123 53.3029 39.2728 46.0585 39.4916C38.8142 39.7104 32.23 38.2445 27.4442 35.7233C22.6432 33.1939 19.7499 29.6642 19.6326 25.7831Z" fill="#CC4F4F" stroke="#8B2929"/>
<rect x="68.1932" y="21.6109" width="5.05577" height="8" transform="rotate(-141.832 68.1932 21.6109)" fill="#CC4F4F" stroke="#8B2929"/>
<rect x="27.1707" y="17.227" width="5.05577" height="8" transform="rotate(132.583 27.1707 17.227)" fill="#CC4F4F" stroke="#8B2929"/>
<rect x="-0.136317" y="0.696488" width="3.85649" height="7.46587" transform="matrix(-0.827701 0.561169 0.555066 0.831806 34.4817 7.83854)" fill="#CC4F4F" stroke="#8B2929"/>
<rect x="0.136317" y="0.696488" width="3.85649" height="7.46587" transform="matrix(0.827701 0.561169 -0.555066 0.831806 53.1093 7.04065)" fill="#CC4F4F" stroke="#8B2929"/>
<circle cx="31.5" cy="7.5" r="3.5" fill="#D9D9D9"/>
<circle cx="56.5" cy="6.5" r="3.5" fill="#D9D9D9"/>
<ellipse cx="30.5" cy="7" rx="1.5" ry="2" fill="black"/>
<ellipse cx="56.5" cy="6" rx="1.5" ry="2" fill="black"/>
<mask id="path-26-inside-1_86_3941" fill="white">
<path fill-rule="evenodd" clip-rule="evenodd" d="M78.7414 0.00659988C72.6691 0.189993 67.8613 4.14251 68.0031 8.83479C68.1448 13.5271 73.1823 17.1822 79.2546 16.9989C85.327 16.8155 90.1347 12.8629 89.993 8.17066C89.9854 7.91882 89.9637 7.66997 89.9285 7.42454L77.9522 7.42454L83.3706 0.646553C81.9546 0.188799 80.386 -0.0430675 78.7414 0.00659988Z"/>
</mask>
<path fill-rule="evenodd" clip-rule="evenodd" d="M78.7414 0.00659988C72.6691 0.189993 67.8613 4.14251 68.0031 8.83479C68.1448 13.5271 73.1823 17.1822 79.2546 16.9989C85.327 16.8155 90.1347 12.8629 89.993 8.17066C89.9854 7.91882 89.9637 7.66997 89.9285 7.42454L77.9522 7.42454L83.3706 0.646553C81.9546 0.188799 80.386 -0.0430675 78.7414 0.00659988Z" fill="#CC4F4F"/>
<path d="M68.0031 8.83479L67.0035 8.86498L68.0031 8.83479ZM78.7414 0.00659988L78.7716 1.00614L78.7716 1.00614L78.7414 0.00659988ZM79.2546 16.9989L79.2244 15.9993L79.2546 16.9989ZM89.993 8.17066L90.9926 8.14048L90.9926 8.14047L89.993 8.17066ZM89.9285 7.42454L90.9184 7.28251L90.7953 6.42454H89.9285V7.42454ZM77.9522 7.42454L77.1711 6.80013L75.8726 8.42454H77.9522V7.42454ZM83.3706 0.646553L84.1517 1.27097L85.0556 0.140294L83.6782 -0.304964L83.3706 0.646553ZM69.0026 8.8046C68.8843 4.88873 72.9963 1.18057 78.7716 1.00614L78.7113 -0.992944C72.3418 -0.800579 66.8383 3.39629 67.0035 8.86498L69.0026 8.8046ZM79.2244 15.9993C73.4491 16.1737 69.1209 12.7205 69.0026 8.8046L67.0035 8.86498C67.1687 14.3337 72.9154 18.1908 79.2848 17.9984L79.2244 15.9993ZM88.9935 8.20085C89.1117 12.1167 84.9998 15.8249 79.2244 15.9993L79.2848 17.9984C85.6542 17.806 91.1577 13.6092 90.9926 8.14048L88.9935 8.20085ZM88.9386 7.56657C88.9686 7.77507 88.987 7.98658 88.9935 8.20085L90.9926 8.14047C90.9838 7.85106 90.9589 7.56487 90.9184 7.28251L88.9386 7.56657ZM89.9285 6.42454L77.9522 6.42454V8.42454L89.9285 8.42454V6.42454ZM78.7333 8.04895L84.1517 1.27097L82.5895 0.0221404L77.1711 6.80013L78.7333 8.04895ZM78.7716 1.00614C80.3037 0.959874 81.7579 1.17617 83.063 1.59807L83.6782 -0.304964C82.1513 -0.798574 80.4683 -1.04601 78.7113 -0.992944L78.7716 1.00614Z" fill="#8B2929" mask="url(#path-26-inside-1_86_3941)"/>
<mask id="path-28-inside-2_86_3941" fill="white">
<path fill-rule="evenodd" clip-rule="evenodd" d="M11.2546 1.0066C17.327 1.18999 22.1348 5.14251 21.993 9.83479C21.8513 14.5271 16.8138 18.1822 10.7415 17.9989C4.66909 17.8155 -0.138647 13.8629 0.00306519 9.17066C0.0106717 8.91882 0.0323792 8.66997 0.0675946 8.42454L12.0439 8.42454L6.6255 1.64655C8.04152 1.1888 9.61013 0.956933 11.2546 1.0066Z"/>
</mask>
<path fill-rule="evenodd" clip-rule="evenodd" d="M11.2546 1.0066C17.327 1.18999 22.1348 5.14251 21.993 9.83479C21.8513 14.5271 16.8138 18.1822 10.7415 17.9989C4.66909 17.8155 -0.138647 13.8629 0.00306519 9.17066C0.0106717 8.91882 0.0323792 8.66997 0.0675946 8.42454L12.0439 8.42454L6.6255 1.64655C8.04152 1.1888 9.61013 0.956933 11.2546 1.0066Z" fill="#CC4F4F"/>
<path d="M21.993 9.83479L22.9926 9.86498L21.993 9.83479ZM11.2546 1.0066L11.2245 2.00614L11.2245 2.00614L11.2546 1.0066ZM10.7415 17.9989L10.7716 16.9993L10.7415 17.9989ZM0.00306519 9.17066L-0.996479 9.14048L-0.996479 9.14047L0.00306519 9.17066ZM0.0675946 8.42454L-0.922268 8.28251L-0.799163 7.42454H0.0675946V8.42454ZM12.0439 8.42454L12.825 7.80013L14.1235 9.42454H12.0439V8.42454ZM6.6255 1.64655L5.8444 2.27097L4.94053 1.14029L6.3179 0.695036L6.6255 1.64655ZM20.9935 9.8046C21.1118 5.88873 16.9998 2.18057 11.2245 2.00614L11.2848 0.00705563C17.6543 0.199421 23.1577 4.39629 22.9926 9.86498L20.9935 9.8046ZM10.7716 16.9993C16.547 17.1737 20.8752 13.7205 20.9935 9.8046L22.9926 9.86498C22.8274 15.3337 17.0807 19.1908 10.7113 18.9984L10.7716 16.9993ZM1.00261 9.20085C0.884346 13.1167 4.99634 16.8249 10.7716 16.9993L10.7113 18.9984C4.34185 18.806 -1.16164 14.6092 -0.996479 9.14048L1.00261 9.20085ZM1.05746 8.56657C1.02754 8.77507 1.00908 8.98658 1.00261 9.20085L-0.996479 9.14047C-0.987738 8.85106 -0.962782 8.56487 -0.922268 8.28251L1.05746 8.56657ZM0.0675946 7.42454L12.0439 7.42454V9.42454L0.0675946 9.42454V7.42454ZM11.2628 9.04895L5.8444 2.27097L7.40659 1.02214L12.825 7.80013L11.2628 9.04895ZM11.2245 2.00614C9.69244 1.95987 8.2382 2.17617 6.93309 2.59807L6.3179 0.695036C7.84484 0.201426 9.52783 -0.0460093 11.2848 0.00705564L11.2245 2.00614Z" fill="#8B2929" mask="url(#path-28-inside-2_86_3941)"/>
</svg>
