<svg width="207" height="519" viewBox="0 0 207 519" fill="none" xmlns="http://www.w3.org/2000/svg">
<g clip-path="url(#clip0_94_4294)">
<ellipse cx="103.499" cy="69.0646" rx="80.5" ry="69.0646" fill="black"/>
<ellipse cx="102" cy="152.348" rx="75" ry="123.91" fill="black"/>
<path d="M105.5 391.536C105.5 426.71 102.423 458.539 97.4564 481.561C94.972 493.077 92.0202 502.362 88.7586 508.756C87.1274 511.954 85.4313 514.404 83.6979 516.048C81.9667 517.69 80.2301 518.5 78.4997 518.5C76.7694 518.5 75.0328 517.69 73.3016 516.048C71.5682 514.404 69.8721 511.954 68.2409 508.756C64.9793 502.362 62.0275 493.077 59.5431 481.561C54.576 458.539 51.4998 426.71 51.4998 391.536C51.4998 356.362 54.576 324.532 59.5431 301.51C62.0275 289.994 64.9793 280.709 68.2409 274.315C69.8721 271.117 71.5682 268.667 73.3016 267.023C75.0328 265.381 76.7694 264.571 78.4997 264.571C80.2301 264.571 81.9667 265.381 83.6979 267.023C85.4313 268.667 87.1274 271.117 88.7586 274.315C92.0202 280.709 94.972 289.994 97.4564 301.51C102.423 324.532 105.5 356.362 105.5 391.536Z" fill="#CB9D8A" stroke="#A67D6B"/>
<path d="M86.8273 239.899C77.9375 264.706 67.0062 286.079 56.531 300.58C51.2913 307.834 46.1829 313.344 41.5204 316.709C36.8417 320.086 32.7218 321.229 29.3898 319.997C26.0578 318.765 23.6249 315.2 22.178 309.559C20.7361 303.937 20.3101 296.381 20.8868 287.404C22.0397 269.456 27.1923 245.947 36.0822 221.14C44.9721 196.333 55.9034 174.96 66.3786 160.459C71.6182 153.206 76.7267 147.696 81.3892 144.33C86.0678 140.953 90.1878 139.811 93.5198 141.043C96.8518 142.274 99.2847 145.839 100.732 151.481C102.173 157.102 102.6 164.659 102.023 173.636C100.87 191.583 95.7172 215.092 86.8273 239.899Z" fill="#CB9D8A" stroke="#A67D6B"/>
<path d="M160.499 391.536C160.499 426.71 157.423 458.539 152.456 481.561C149.972 493.077 147.02 502.362 143.758 508.756C142.127 511.954 140.431 514.404 138.698 516.048C136.966 517.69 135.23 518.5 133.5 518.5C131.769 518.5 130.033 517.69 128.301 516.048C126.568 514.404 124.872 511.954 123.241 508.756C119.979 502.362 117.027 493.077 114.543 481.561C109.576 458.539 106.5 426.71 106.5 391.536C106.5 356.362 109.576 324.532 114.543 301.51C117.027 289.994 119.979 280.709 123.241 274.315C124.872 271.117 126.568 268.667 128.301 267.023C130.033 265.381 131.769 264.571 133.5 264.571C135.23 264.571 136.966 265.381 138.698 267.023C140.431 268.667 142.127 271.117 143.758 274.315C147.02 280.709 149.972 289.994 152.456 301.51C157.423 324.532 160.499 356.362 160.499 391.536Z" fill="#CB9D8A" stroke="#A67D6B"/>
<path d="M165.448 221.14C174.338 245.947 179.49 269.456 180.643 287.403C181.22 296.38 180.794 303.936 179.352 309.558C177.905 315.2 175.472 318.765 172.14 319.996C168.808 321.228 164.688 320.085 160.01 316.709C155.347 313.343 150.239 307.833 144.999 300.58C134.524 286.079 123.593 264.706 114.703 239.899C105.813 215.092 100.66 191.583 99.5074 173.636C98.9307 164.659 99.3568 157.103 100.799 151.481C102.246 145.84 104.678 142.275 108.01 141.043C111.342 139.811 115.462 140.954 120.141 144.331C124.804 147.696 129.912 153.206 135.152 160.459C145.627 174.96 156.558 196.333 165.448 221.14Z" fill="#CB9D8A" stroke="#A67D6B"/>
<path d="M146.699 263.343C146.699 332.899 127.224 389.285 103.199 389.285C79.1748 389.285 59.6992 332.899 59.6992 263.343C59.6992 193.788 79.1748 137.402 103.199 137.402C127.224 137.402 146.699 193.788 146.699 263.343Z" fill="#CB9D8A"/>
<path d="M103.49 208.974L206.98 388.996H1.52588e-05L103.49 208.974Z" fill="#F28686"/>
<rect x="64.9993" y="202.116" width="77" height="69.7231" fill="#5FAEC7"/>
<ellipse cx="102" cy="83.2829" rx="54" ry="54.8454" fill="#CB9D8A"/>
<ellipse cx="102" cy="83.2829" rx="54" ry="54.8454" fill="#CB9D8A"/>
<line x1="86" y1="111.5" x2="117" y2="111.5" stroke="black"/>
<rect x="69.0002" y="28.4375" width="70" height="30.4697" fill="black"/>
<ellipse cx="78.5" cy="80.2369" rx="8.5" ry="11.1722" fill="#D9D9D9"/>
<ellipse cx="83.0002" cy="80.237" rx="4" ry="6.09394" fill="black"/>
<ellipse cx="124.5" cy="80.2369" rx="8.5" ry="11.1722" fill="#D9D9D9"/>
<ellipse cx="129" cy="80.237" rx="4" ry="6.09394" fill="black"/>
<line x1="97.0005" y1="98.019" x2="108" y2="98.019" stroke="black"/>
<path d="M126.042 95.8008H142.042V101.895H126.042V95.8008Z" fill="#5FAEC7"/>
<path d="M62.3132 95.8008H78.3132V101.895H62.3132V95.8008Z" fill="#5FAEC7"/>
</g>
<defs>
<clipPath id="clip0_94_4294">
<rect width="207" height="519" fill="white"/>
</clipPath>
</defs>
</svg>
