<svg width="421" height="145" viewBox="0 0 421 145" fill="none" xmlns="http://www.w3.org/2000/svg">
<rect width="421" height="145" fill="#F5E9D7"/>
<path d="M47.5153 51.666V53.294H40.8493V58.464H46.2613V60.092H40.8493V67H38.8473V51.666H47.5153ZM50.9673 52.986C50.5859 52.986 50.2633 52.854 49.9993 52.59C49.7353 52.326 49.6033 52.0033 49.6033 51.622C49.6033 51.2407 49.7353 50.918 49.9993 50.654C50.2633 50.39 50.5859 50.258 50.9673 50.258C51.3339 50.258 51.6419 50.39 51.8913 50.654C52.1553 50.918 52.2873 51.2407 52.2873 51.622C52.2873 52.0033 52.1553 52.326 51.8913 52.59C51.6419 52.854 51.3339 52.986 50.9673 52.986ZM51.9353 54.944V67H49.9333V54.944H51.9353ZM61.2213 54.724C62.688 54.724 63.876 55.1713 64.7853 56.066C65.6947 56.946 66.1493 58.222 66.1493 59.894V67H64.1693V60.18C64.1693 58.9773 63.8687 58.0607 63.2673 57.43C62.666 56.7847 61.8447 56.462 60.8033 56.462C59.7473 56.462 58.904 56.792 58.2733 57.452C57.6573 58.112 57.3493 59.0727 57.3493 60.334V67H55.3473V54.944H57.3493V56.66C57.7453 56.044 58.2807 55.5673 58.9553 55.23C59.6447 54.8927 60.4 54.724 61.2213 54.724ZM68.6716 60.928C68.6716 59.696 68.9209 58.618 69.4196 57.694C69.9183 56.7553 70.6003 56.0293 71.4656 55.516C72.3456 55.0027 73.3209 54.746 74.3916 54.746C75.4476 54.746 76.3643 54.9733 77.1416 55.428C77.9189 55.8827 78.4983 56.4547 78.8796 57.144V54.944H80.9036V67H78.8796V64.756C78.4836 65.46 77.8896 66.0467 77.0976 66.516C76.3203 66.9707 75.4109 67.198 74.3696 67.198C73.2989 67.198 72.3309 66.934 71.4656 66.406C70.6003 65.878 69.9183 65.1373 69.4196 64.184C68.9209 63.2307 68.6716 62.1453 68.6716 60.928ZM78.8796 60.95C78.8796 60.0407 78.6963 59.2487 78.3296 58.574C77.9629 57.8993 77.4643 57.386 76.8336 57.034C76.2176 56.6673 75.5356 56.484 74.7876 56.484C74.0396 56.484 73.3576 56.66 72.7416 57.012C72.1256 57.364 71.6343 57.8773 71.2676 58.552C70.9009 59.2267 70.7176 60.0187 70.7176 60.928C70.7176 61.852 70.9009 62.6587 71.2676 63.348C71.6343 64.0227 72.1256 64.5433 72.7416 64.91C73.3576 65.262 74.0396 65.438 74.7876 65.438C75.5356 65.438 76.2176 65.262 76.8336 64.91C77.4643 64.5433 77.9629 64.0227 78.3296 63.348C78.6963 62.6587 78.8796 61.8593 78.8796 60.95ZM86.2888 50.72V67H84.2868V50.72H86.2888ZM91.7028 50.72V67H89.7008V50.72H91.7028ZM105.499 54.944L98.2389 72.676H96.1709L98.5469 66.868L93.6849 54.944H95.9069L99.6909 64.712L103.431 54.944H105.499ZM109.579 64.228L107.115 70.146H105.773L107.379 64.228H109.579ZM119.74 50.72V67H117.738V50.72H119.74ZM134.152 60.51C134.152 60.8913 134.13 61.2947 134.086 61.72H124.45C124.523 62.908 124.927 63.8393 125.66 64.514C126.408 65.174 127.31 65.504 128.366 65.504C129.231 65.504 129.95 65.306 130.522 64.91C131.109 64.4993 131.519 63.9567 131.754 63.282H133.91C133.587 64.4407 132.942 65.3867 131.974 66.12C131.006 66.8387 129.803 67.198 128.366 67.198C127.222 67.198 126.195 66.9413 125.286 66.428C124.391 65.9147 123.687 65.1887 123.174 64.25C122.661 63.2967 122.404 62.1967 122.404 60.95C122.404 59.7033 122.653 58.6107 123.152 57.672C123.651 56.7333 124.347 56.0147 125.242 55.516C126.151 55.0027 127.193 54.746 128.366 54.746C129.51 54.746 130.522 54.9953 131.402 55.494C132.282 55.9927 132.957 56.682 133.426 57.562C133.91 58.4273 134.152 59.41 134.152 60.51ZM132.084 60.092C132.084 59.3293 131.915 58.6767 131.578 58.134C131.241 57.5767 130.779 57.1587 130.192 56.88C129.62 56.5867 128.982 56.44 128.278 56.44C127.266 56.44 126.401 56.7627 125.682 57.408C124.978 58.0533 124.575 58.948 124.472 60.092H132.084ZM139.237 56.594V63.7C139.237 64.2867 139.361 64.7047 139.611 64.954C139.86 65.1887 140.293 65.306 140.909 65.306H142.383V67H140.579C139.464 67 138.628 66.7433 138.071 66.23C137.513 65.7167 137.235 64.8733 137.235 63.7V56.594H135.673V54.944H137.235V51.908H139.237V54.944H142.383V56.594H139.237ZM145.82 49.488L145.556 53.866H144.17L143.884 49.488H145.82ZM152.578 67.198C151.654 67.198 150.826 67.044 150.092 66.736C149.359 66.4133 148.78 65.9733 148.354 65.416C147.929 64.844 147.694 64.1913 147.65 63.458H149.718C149.777 64.0593 150.056 64.5507 150.554 64.932C151.068 65.3133 151.735 65.504 152.556 65.504C153.319 65.504 153.92 65.3353 154.36 64.998C154.8 64.6607 155.02 64.2353 155.02 63.722C155.02 63.194 154.786 62.8053 154.316 62.556C153.847 62.292 153.121 62.0353 152.138 61.786C151.244 61.5513 150.51 61.3167 149.938 61.082C149.381 60.8327 148.897 60.4733 148.486 60.004C148.09 59.52 147.892 58.8893 147.892 58.112C147.892 57.496 148.076 56.9313 148.442 56.418C148.809 55.9047 149.33 55.5013 150.004 55.208C150.679 54.9 151.449 54.746 152.314 54.746C153.649 54.746 154.727 55.0833 155.548 55.758C156.37 56.4327 156.81 57.3567 156.868 58.53H154.866C154.822 57.8993 154.566 57.3933 154.096 57.012C153.642 56.6307 153.026 56.44 152.248 56.44C151.53 56.44 150.958 56.594 150.532 56.902C150.107 57.21 149.894 57.6133 149.894 58.112C149.894 58.508 150.019 58.838 150.268 59.102C150.532 59.3513 150.855 59.5567 151.236 59.718C151.632 59.8647 152.175 60.0333 152.864 60.224C153.73 60.4587 154.434 60.6933 154.976 60.928C155.519 61.148 155.981 61.4853 156.362 61.94C156.758 62.3947 156.964 62.9887 156.978 63.722C156.978 64.382 156.795 64.976 156.428 65.504C156.062 66.032 155.541 66.45 154.866 66.758C154.206 67.0513 153.444 67.198 152.578 67.198ZM167.672 50.72V67H165.67V50.72H167.672ZM172.118 52.986C171.736 52.986 171.414 52.854 171.15 52.59C170.886 52.326 170.754 52.0033 170.754 51.622C170.754 51.2407 170.886 50.918 171.15 50.654C171.414 50.39 171.736 50.258 172.118 50.258C172.484 50.258 172.792 50.39 173.042 50.654C173.306 50.918 173.438 51.2407 173.438 51.622C173.438 52.0033 173.306 52.326 173.042 52.59C172.792 52.854 172.484 52.986 172.118 52.986ZM173.086 54.944V67H171.084V54.944H173.086ZM181.47 54.746C182.511 54.746 183.42 54.9733 184.198 55.428C184.99 55.8827 185.576 56.4547 185.958 57.144V54.944H187.982V67.264C187.982 68.364 187.747 69.3393 187.278 70.19C186.808 71.0553 186.134 71.73 185.254 72.214C184.388 72.698 183.376 72.94 182.218 72.94C180.634 72.94 179.314 72.566 178.258 71.818C177.202 71.07 176.578 70.0507 176.388 68.76H178.368C178.588 69.4933 179.042 70.08 179.732 70.52C180.421 70.9747 181.25 71.202 182.218 71.202C183.318 71.202 184.212 70.8573 184.902 70.168C185.606 69.4787 185.958 68.5107 185.958 67.264V64.734C185.562 65.438 184.975 66.0247 184.198 66.494C183.42 66.9633 182.511 67.198 181.47 67.198C180.399 67.198 179.424 66.934 178.544 66.406C177.678 65.878 176.996 65.1373 176.498 64.184C175.999 63.2307 175.75 62.1453 175.75 60.928C175.75 59.696 175.999 58.618 176.498 57.694C176.996 56.7553 177.678 56.0293 178.544 55.516C179.424 55.0027 180.399 54.746 181.47 54.746ZM185.958 60.95C185.958 60.0407 185.774 59.2487 185.408 58.574C185.041 57.8993 184.542 57.386 183.912 57.034C183.296 56.6673 182.614 56.484 181.866 56.484C181.118 56.484 180.436 56.66 179.82 57.012C179.204 57.364 178.712 57.8773 178.346 58.552C177.979 59.2267 177.796 60.0187 177.796 60.928C177.796 61.852 177.979 62.6587 178.346 63.348C178.712 64.0227 179.204 64.5433 179.82 64.91C180.436 65.262 181.118 65.438 181.866 65.438C182.614 65.438 183.296 65.262 183.912 64.91C184.542 64.5433 185.041 64.0227 185.408 63.348C185.774 62.6587 185.958 61.8593 185.958 60.95ZM197.349 54.724C198.258 54.724 199.08 54.922 199.813 55.318C200.546 55.6993 201.118 56.2787 201.529 57.056C201.954 57.8333 202.167 58.7793 202.167 59.894V67H200.187V60.18C200.187 58.9773 199.886 58.0607 199.285 57.43C198.684 56.7847 197.862 56.462 196.821 56.462C195.765 56.462 194.922 56.792 194.291 57.452C193.675 58.112 193.367 59.0727 193.367 60.334V67H191.365V50.72H193.367V56.66C193.763 56.044 194.306 55.5673 194.995 55.23C195.699 54.8927 196.484 54.724 197.349 54.724ZM207.879 56.594V63.7C207.879 64.2867 208.004 64.7047 208.253 64.954C208.502 65.1887 208.935 65.306 209.551 65.306H211.025V67H209.221C208.106 67 207.27 66.7433 206.713 66.23C206.156 65.7167 205.877 64.8733 205.877 63.7V56.594H204.315V54.944H205.877V51.908H207.879V54.944H211.025V56.594H207.879ZM221.758 56.594V63.7C221.758 64.2867 221.883 64.7047 222.132 64.954C222.381 65.1887 222.814 65.306 223.43 65.306H224.904V67H223.1C221.985 67 221.149 66.7433 220.592 66.23C220.035 65.7167 219.756 64.8733 219.756 63.7V56.594H218.194V54.944H219.756V51.908H221.758V54.944H224.904V56.594H221.758ZM233.314 54.724C234.223 54.724 235.044 54.922 235.778 55.318C236.511 55.6993 237.083 56.2787 237.494 57.056C237.919 57.8333 238.132 58.7793 238.132 59.894V67H236.152V60.18C236.152 58.9773 235.851 58.0607 235.25 57.43C234.648 56.7847 233.827 56.462 232.786 56.462C231.73 56.462 230.886 56.792 230.256 57.452C229.64 58.112 229.332 59.0727 229.332 60.334V67H227.33V50.72H229.332V56.66C229.728 56.044 230.27 55.5673 230.96 55.23C231.664 54.8927 232.448 54.724 233.314 54.724ZM252.402 60.51C252.402 60.8913 252.38 61.2947 252.336 61.72H242.7C242.773 62.908 243.177 63.8393 243.91 64.514C244.658 65.174 245.56 65.504 246.616 65.504C247.481 65.504 248.2 65.306 248.772 64.91C249.359 64.4993 249.769 63.9567 250.004 63.282H252.16C251.837 64.4407 251.192 65.3867 250.224 66.12C249.256 66.8387 248.053 67.198 246.616 67.198C245.472 67.198 244.445 66.9413 243.536 66.428C242.641 65.9147 241.937 65.1887 241.424 64.25C240.911 63.2967 240.654 62.1967 240.654 60.95C240.654 59.7033 240.903 58.6107 241.402 57.672C241.901 56.7333 242.597 56.0147 243.492 55.516C244.401 55.0027 245.443 54.746 246.616 54.746C247.76 54.746 248.772 54.9953 249.652 55.494C250.532 55.9927 251.207 56.682 251.676 57.562C252.16 58.4273 252.402 59.41 252.402 60.51ZM250.334 60.092C250.334 59.3293 250.165 58.6767 249.828 58.134C249.491 57.5767 249.029 57.1587 248.442 56.88C247.87 56.5867 247.232 56.44 246.528 56.44C245.516 56.44 244.651 56.7627 243.932 57.408C243.228 58.0533 242.825 58.948 242.722 60.092H250.334ZM266.322 57.342H264.188V67H261.064V57.342H259.678V54.812H261.064V54.196C261.064 52.7 261.489 51.6 262.34 50.896C263.19 50.192 264.474 49.862 266.19 49.906V52.502C265.442 52.4873 264.921 52.612 264.628 52.876C264.334 53.14 264.188 53.6167 264.188 54.306V54.812H266.322V57.342ZM269.88 53.36C269.337 53.36 268.882 53.1913 268.516 52.854C268.164 52.502 267.988 52.0693 267.988 51.556C267.988 51.0427 268.164 50.6173 268.516 50.28C268.882 49.928 269.337 49.752 269.88 49.752C270.422 49.752 270.87 49.928 271.222 50.28C271.588 50.6173 271.772 51.0427 271.772 51.556C271.772 52.0693 271.588 52.502 271.222 52.854C270.87 53.1913 270.422 53.36 269.88 53.36ZM271.398 54.812V67H268.318V54.812H271.398ZM277.521 56.704C277.917 56.0587 278.43 55.5527 279.061 55.186C279.706 54.8193 280.44 54.636 281.261 54.636V57.87H280.447C279.479 57.87 278.746 58.0973 278.247 58.552C277.763 59.0067 277.521 59.7987 277.521 60.928V67H274.441V54.812H277.521V56.704ZM294.665 60.642C294.665 61.082 294.636 61.478 294.577 61.83H285.667C285.741 62.71 286.049 63.3993 286.591 63.898C287.134 64.3967 287.801 64.646 288.593 64.646C289.737 64.646 290.551 64.1547 291.035 63.172H294.357C294.005 64.3453 293.331 65.3133 292.333 66.076C291.336 66.824 290.111 67.198 288.659 67.198C287.486 67.198 286.43 66.9413 285.491 66.428C284.567 65.9 283.841 65.1593 283.313 64.206C282.8 63.2527 282.543 62.1527 282.543 60.906C282.543 59.6447 282.8 58.5373 283.313 57.584C283.827 56.6307 284.545 55.8973 285.469 55.384C286.393 54.8707 287.457 54.614 288.659 54.614C289.818 54.614 290.852 54.8633 291.761 55.362C292.685 55.8607 293.397 56.572 293.895 57.496C294.409 58.4053 294.665 59.454 294.665 60.642ZM291.475 59.762C291.461 58.97 291.175 58.3393 290.617 57.87C290.06 57.386 289.378 57.144 288.571 57.144C287.809 57.144 287.163 57.3787 286.635 57.848C286.122 58.3027 285.807 58.9407 285.689 59.762H291.475ZM302.207 60.928C302.207 59.696 302.456 58.618 302.955 57.694C303.453 56.7553 304.135 56.0293 305.001 55.516C305.881 55.0027 306.856 54.746 307.927 54.746C308.983 54.746 309.899 54.9733 310.677 55.428C311.454 55.8827 312.033 56.4547 312.415 57.144V54.944H314.439V67H312.415V64.756C312.019 65.46 311.425 66.0467 310.633 66.516C309.855 66.9707 308.946 67.198 307.905 67.198C306.834 67.198 305.866 66.934 305.001 66.406C304.135 65.878 303.453 65.1373 302.955 64.184C302.456 63.2307 302.207 62.1453 302.207 60.928ZM312.415 60.95C312.415 60.0407 312.231 59.2487 311.865 58.574C311.498 57.8993 310.999 57.386 310.369 57.034C309.753 56.6673 309.071 56.484 308.323 56.484C307.575 56.484 306.893 56.66 306.277 57.012C305.661 57.364 305.169 57.8773 304.803 58.552C304.436 59.2267 304.253 60.0187 304.253 60.928C304.253 61.852 304.436 62.6587 304.803 63.348C305.169 64.0227 305.661 64.5433 306.277 64.91C306.893 65.262 307.575 65.438 308.323 65.438C309.071 65.438 309.753 65.262 310.369 64.91C310.999 64.5433 311.498 64.0227 311.865 63.348C312.231 62.6587 312.415 61.8593 312.415 60.95ZM323.696 54.724C325.163 54.724 326.351 55.1713 327.26 56.066C328.169 56.946 328.624 58.222 328.624 59.894V67H326.644V60.18C326.644 58.9773 326.343 58.0607 325.742 57.43C325.141 56.7847 324.319 56.462 323.278 56.462C322.222 56.462 321.379 56.792 320.748 57.452C320.132 58.112 319.824 59.0727 319.824 60.334V67H317.822V54.944H319.824V56.66C320.22 56.044 320.755 55.5673 321.43 55.23C322.119 54.8927 322.875 54.724 323.696 54.724ZM331.146 60.928C331.146 59.696 331.396 58.618 331.894 57.694C332.393 56.7553 333.075 56.0293 333.94 55.516C334.82 55.0027 335.803 54.746 336.888 54.746C337.827 54.746 338.7 54.966 339.506 55.406C340.313 55.8313 340.929 56.396 341.354 57.1V50.72H343.378V67H341.354V64.734C340.958 65.4527 340.372 66.0467 339.594 66.516C338.817 66.9707 337.908 67.198 336.866 67.198C335.796 67.198 334.82 66.934 333.94 66.406C333.075 65.878 332.393 65.1373 331.894 64.184C331.396 63.2307 331.146 62.1453 331.146 60.928ZM341.354 60.95C341.354 60.0407 341.171 59.2487 340.804 58.574C340.438 57.8993 339.939 57.386 339.308 57.034C338.692 56.6673 338.01 56.484 337.262 56.484C336.514 56.484 335.832 56.66 335.216 57.012C334.6 57.364 334.109 57.8773 333.742 58.552C333.376 59.2267 333.192 60.0187 333.192 60.928C333.192 61.852 333.376 62.6587 333.742 63.348C334.109 64.0227 334.6 64.5433 335.216 64.91C335.832 65.262 336.514 65.438 337.262 65.438C338.01 65.438 338.692 65.262 339.308 64.91C339.939 64.5433 340.438 64.0227 340.804 63.348C341.171 62.6587 341.354 61.8593 341.354 60.95ZM356.895 67.198C355.971 67.198 355.142 67.044 354.409 66.736C353.675 66.4133 353.096 65.9733 352.671 65.416C352.245 64.844 352.011 64.1913 351.967 63.458H354.035C354.093 64.0593 354.372 64.5507 354.871 64.932C355.384 65.3133 356.051 65.504 356.873 65.504C357.635 65.504 358.237 65.3353 358.677 64.998C359.117 64.6607 359.337 64.2353 359.337 63.722C359.337 63.194 359.102 62.8053 358.633 62.556C358.163 62.292 357.437 62.0353 356.455 61.786C355.56 61.5513 354.827 61.3167 354.255 61.082C353.697 60.8327 353.213 60.4733 352.803 60.004C352.407 59.52 352.209 58.8893 352.209 58.112C352.209 57.496 352.392 56.9313 352.759 56.418C353.125 55.9047 353.646 55.5013 354.321 55.208C354.995 54.9 355.765 54.746 356.631 54.746C357.965 54.746 359.043 55.0833 359.865 55.758C360.686 56.4327 361.126 57.3567 361.185 58.53H359.183C359.139 57.8993 358.882 57.3933 358.413 57.012C357.958 56.6307 357.342 56.44 356.565 56.44C355.846 56.44 355.274 56.594 354.849 56.902C354.423 57.21 354.211 57.6133 354.211 58.112C354.211 58.508 354.335 58.838 354.585 59.102C354.849 59.3513 355.171 59.5567 355.553 59.718C355.949 59.8647 356.491 60.0333 357.181 60.224C358.046 60.4587 358.75 60.6933 359.293 60.928C359.835 61.148 360.297 61.4853 360.679 61.94C361.075 62.3947 361.28 62.9887 361.295 63.722C361.295 64.382 361.111 64.976 360.745 65.504C360.378 66.032 359.857 66.45 359.183 66.758C358.523 67.0513 357.76 67.198 356.895 67.198ZM375.121 60.51C375.121 60.8913 375.099 61.2947 375.055 61.72L365.419 61.72C365.492 62.908 365.895 63.8393 366.629 64.514C367.377 65.174 368.279 65.504 369.335 65.504C370.2 65.504 370.919 65.306 371.491 64.91C372.077 64.4993 372.488 63.9567 372.723 63.282H374.879C374.556 64.4407 373.911 65.3867 372.943 66.12C371.975 66.8387 370.772 67.198 369.335 67.198C368.191 67.198 367.164 66.9413 366.255 66.428C365.36 65.9147 364.656 65.1887 364.143 64.25C363.629 63.2967 363.373 62.1967 363.373 60.95C363.373 59.7033 363.622 58.6107 364.121 57.672C364.619 56.7333 365.316 56.0147 366.211 55.516C367.12 55.0027 368.161 54.746 369.335 54.746C370.479 54.746 371.491 54.9953 372.371 55.494C373.251 55.9927 373.925 56.682 374.395 57.562C374.879 58.4273 375.121 59.41 375.121 60.51ZM373.053 60.092C373.053 59.3293 372.884 58.6767 372.547 58.134C372.209 57.5767 371.747 57.1587 371.161 56.88C370.589 56.5867 369.951 56.44 369.247 56.44C368.235 56.44 367.369 56.7627 366.651 57.408C365.947 58.0533 365.543 58.948 365.441 60.092L373.053 60.092ZM388.763 60.51C388.763 60.8913 388.741 61.2947 388.697 61.72H379.061C379.135 62.908 379.538 63.8393 380.271 64.514C381.019 65.174 381.921 65.504 382.977 65.504C383.843 65.504 384.561 65.306 385.133 64.91C385.72 64.4993 386.131 63.9567 386.365 63.282H388.521C388.199 64.4407 387.553 65.3867 386.585 66.12C385.617 66.8387 384.415 67.198 382.977 67.198C381.833 67.198 380.807 66.9413 379.897 66.428C379.003 65.9147 378.299 65.1887 377.785 64.25C377.272 63.2967 377.015 62.1967 377.015 60.95C377.015 59.7033 377.265 58.6107 377.763 57.672C378.262 56.7333 378.959 56.0147 379.853 55.516C380.763 55.0027 381.804 54.746 382.977 54.746C384.121 54.746 385.133 54.9953 386.013 55.494C386.893 55.9927 387.568 56.682 388.037 57.562C388.521 58.4273 388.763 59.41 388.763 60.51ZM386.695 60.092C386.695 59.3293 386.527 58.6767 386.189 58.134C385.852 57.5767 385.39 57.1587 384.803 56.88C384.231 56.5867 383.593 56.44 382.889 56.44C381.877 56.44 381.012 56.7627 380.293 57.408C379.589 58.0533 379.186 58.948 379.083 60.092H386.695ZM145.604 87.944L141.842 100H139.774L136.87 90.43L133.966 100H131.898L128.114 87.944H130.16L132.932 98.064L135.924 87.944H137.97L140.896 98.086L143.624 87.944H145.604ZM153.574 87.724C154.484 87.724 155.305 87.922 156.038 88.318C156.772 88.6993 157.344 89.2787 157.754 90.056C158.18 90.8333 158.392 91.7793 158.392 92.894V100H156.412V93.18C156.412 91.9773 156.112 91.0607 155.51 90.43C154.909 89.7847 154.088 89.462 153.046 89.462C151.99 89.462 151.147 89.792 150.516 90.452C149.9 91.112 149.592 92.0727 149.592 93.334V100H147.59V83.72H149.592V89.66C149.988 89.044 150.531 88.5673 151.22 88.23C151.924 87.8927 152.709 87.724 153.574 87.724ZM160.915 93.928C160.915 92.696 161.164 91.618 161.663 90.694C162.161 89.7553 162.843 89.0293 163.709 88.516C164.589 88.0027 165.564 87.746 166.635 87.746C167.691 87.746 168.607 87.9733 169.385 88.428C170.162 88.8827 170.741 89.4547 171.123 90.144V87.944H173.147V100H171.123V97.756C170.727 98.46 170.133 99.0467 169.341 99.516C168.563 99.9707 167.654 100.198 166.613 100.198C165.542 100.198 164.574 99.934 163.709 99.406C162.843 98.878 162.161 98.1373 161.663 97.184C161.164 96.2307 160.915 95.1453 160.915 93.928ZM171.123 93.95C171.123 93.0407 170.939 92.2487 170.573 91.574C170.206 90.8993 169.707 90.386 169.077 90.034C168.461 89.6673 167.779 89.484 167.031 89.484C166.283 89.484 165.601 89.66 164.985 90.012C164.369 90.364 163.877 90.8773 163.511 91.552C163.144 92.2267 162.961 93.0187 162.961 93.928C162.961 94.852 163.144 95.6587 163.511 96.348C163.877 97.0227 164.369 97.5433 164.985 97.91C165.601 98.262 166.283 98.438 167.031 98.438C167.779 98.438 168.461 98.262 169.077 97.91C169.707 97.5433 170.206 97.0227 170.573 96.348C170.939 95.6587 171.123 94.8593 171.123 93.95ZM178.972 89.594V96.7C178.972 97.2867 179.097 97.7047 179.346 97.954C179.595 98.1887 180.028 98.306 180.644 98.306H182.118V100H180.314C179.199 100 178.363 99.7433 177.806 99.23C177.249 98.7167 176.97 97.8733 176.97 96.7V89.594H175.408V87.944H176.97V84.908H178.972V87.944H182.118V89.594H178.972ZM196.393 87.724C197.302 87.724 198.124 87.922 198.857 88.318C199.59 88.6993 200.162 89.2787 200.573 90.056C200.998 90.8333 201.211 91.7793 201.211 92.894V100H199.231V93.18C199.231 91.9773 198.93 91.0607 198.329 90.43C197.728 89.7847 196.906 89.462 195.865 89.462C194.809 89.462 193.966 89.792 193.335 90.452C192.719 91.112 192.411 92.0727 192.411 93.334V100H190.409V83.72H192.411V89.66C192.807 89.044 193.35 88.5673 194.039 88.23C194.743 87.8927 195.528 87.724 196.393 87.724ZM203.733 93.928C203.733 92.696 203.982 91.618 204.481 90.694C204.98 89.7553 205.662 89.0293 206.527 88.516C207.407 88.0027 208.382 87.746 209.453 87.746C210.509 87.746 211.426 87.9733 212.203 88.428C212.98 88.8827 213.56 89.4547 213.941 90.144V87.944H215.965V100H213.941V97.756C213.545 98.46 212.951 99.0467 212.159 99.516C211.382 99.9707 210.472 100.198 209.431 100.198C208.36 100.198 207.392 99.934 206.527 99.406C205.662 98.878 204.98 98.1373 204.481 97.184C203.982 96.2307 203.733 95.1453 203.733 93.928ZM213.941 93.95C213.941 93.0407 213.758 92.2487 213.391 91.574C213.024 90.8993 212.526 90.386 211.895 90.034C211.279 89.6673 210.597 89.484 209.849 89.484C209.101 89.484 208.419 89.66 207.803 90.012C207.187 90.364 206.696 90.8773 206.329 91.552C205.962 92.2267 205.779 93.0187 205.779 93.928C205.779 94.852 205.962 95.6587 206.329 96.348C206.696 97.0227 207.187 97.5433 207.803 97.91C208.419 98.262 209.101 98.438 209.849 98.438C210.597 98.438 211.279 98.262 211.895 97.91C212.526 97.5433 213.024 97.0227 213.391 96.348C213.758 95.6587 213.941 94.8593 213.941 93.95ZM221.35 90.166C221.746 89.4767 222.333 88.9047 223.11 88.45C223.902 87.9807 224.819 87.746 225.86 87.746C226.931 87.746 227.899 88.0027 228.764 88.516C229.644 89.0293 230.334 89.7553 230.832 90.694C231.331 91.618 231.58 92.696 231.58 93.928C231.58 95.1453 231.331 96.2307 230.832 97.184C230.334 98.1373 229.644 98.878 228.764 99.406C227.899 99.934 226.931 100.198 225.86 100.198C224.834 100.198 223.924 99.9707 223.132 99.516C222.355 99.0467 221.761 98.4673 221.35 97.778V105.72H219.348V87.944H221.35V90.166ZM229.534 93.928C229.534 93.0187 229.351 92.2267 228.984 91.552C228.618 90.8773 228.119 90.364 227.488 90.012C226.872 89.66 226.19 89.484 225.442 89.484C224.709 89.484 224.027 89.6673 223.396 90.034C222.78 90.386 222.282 90.9067 221.9 91.596C221.534 92.2707 221.35 93.0553 221.35 93.95C221.35 94.8593 221.534 95.6587 221.9 96.348C222.282 97.0227 222.78 97.5433 223.396 97.91C224.027 98.262 224.709 98.438 225.442 98.438C226.19 98.438 226.872 98.262 227.488 97.91C228.119 97.5433 228.618 97.0227 228.984 96.348C229.351 95.6587 229.534 94.852 229.534 93.928ZM236.217 90.166C236.613 89.4767 237.2 88.9047 237.977 88.45C238.769 87.9807 239.686 87.746 240.727 87.746C241.798 87.746 242.766 88.0027 243.631 88.516C244.511 89.0293 245.201 89.7553 245.699 90.694C246.198 91.618 246.447 92.696 246.447 93.928C246.447 95.1453 246.198 96.2307 245.699 97.184C245.201 98.1373 244.511 98.878 243.631 99.406C242.766 99.934 241.798 100.198 240.727 100.198C239.701 100.198 238.791 99.9707 237.999 99.516C237.222 99.0467 236.628 98.4673 236.217 97.778V105.72H234.215V87.944H236.217V90.166ZM244.401 93.928C244.401 93.0187 244.218 92.2267 243.851 91.552C243.485 90.8773 242.986 90.364 242.355 90.012C241.739 89.66 241.057 89.484 240.309 89.484C239.576 89.484 238.894 89.6673 238.263 90.034C237.647 90.386 237.149 90.9067 236.767 91.596C236.401 92.2707 236.217 93.0553 236.217 93.95C236.217 94.8593 236.401 95.6587 236.767 96.348C237.149 97.0227 237.647 97.5433 238.263 97.91C238.894 98.262 239.576 98.438 240.309 98.438C241.057 98.438 241.739 98.262 242.355 97.91C242.986 97.5433 243.485 97.0227 243.851 96.348C244.218 95.6587 244.401 94.852 244.401 93.928ZM260.083 93.51C260.083 93.8913 260.061 94.2947 260.017 94.72H250.381C250.454 95.908 250.857 96.8393 251.591 97.514C252.339 98.174 253.241 98.504 254.297 98.504C255.162 98.504 255.881 98.306 256.453 97.91C257.039 97.4993 257.45 96.9567 257.685 96.282H259.841C259.518 97.4407 258.873 98.3867 257.905 99.12C256.937 99.8387 255.734 100.198 254.297 100.198C253.153 100.198 252.126 99.9413 251.217 99.428C250.322 98.9147 249.618 98.1887 249.105 97.25C248.591 96.2967 248.335 95.1967 248.335 93.95C248.335 92.7033 248.584 91.6107 249.083 90.672C249.581 89.7333 250.278 89.0147 251.173 88.516C252.082 88.0027 253.123 87.746 254.297 87.746C255.441 87.746 256.453 87.9953 257.333 88.494C258.213 88.9927 258.887 89.682 259.357 90.562C259.841 91.4273 260.083 92.41 260.083 93.51ZM258.015 93.092C258.015 92.3293 257.846 91.6767 257.509 91.134C257.171 90.5767 256.709 90.1587 256.123 89.88C255.551 89.5867 254.913 89.44 254.209 89.44C253.197 89.44 252.331 89.7627 251.613 90.408C250.909 91.0533 250.505 91.948 250.403 93.092H258.015ZM268.599 87.724C270.066 87.724 271.254 88.1713 272.163 89.066C273.073 89.946 273.527 91.222 273.527 92.894V100H271.547V93.18C271.547 91.9773 271.247 91.0607 270.645 90.43C270.044 89.7847 269.223 89.462 268.181 89.462C267.125 89.462 266.282 89.792 265.651 90.452C265.035 91.112 264.727 92.0727 264.727 93.334V100H262.725V87.944H264.727V89.66C265.123 89.044 265.659 88.5673 266.333 88.23C267.023 87.8927 267.778 87.724 268.599 87.724ZM281.066 100.198C280.142 100.198 279.313 100.044 278.58 99.736C277.846 99.4133 277.267 98.9733 276.842 98.416C276.416 97.844 276.182 97.1913 276.138 96.458H278.206C278.264 97.0593 278.543 97.5507 279.042 97.932C279.555 98.3133 280.222 98.504 281.044 98.504C281.806 98.504 282.408 98.3353 282.848 97.998C283.288 97.6607 283.508 97.2353 283.508 96.722C283.508 96.194 283.273 95.8053 282.804 95.556C282.334 95.292 281.608 95.0353 280.626 94.786C279.731 94.5513 278.998 94.3167 278.426 94.082C277.868 93.8327 277.384 93.4733 276.974 93.004C276.578 92.52 276.38 91.8893 276.38 91.112C276.38 90.496 276.563 89.9313 276.93 89.418C277.296 88.9047 277.817 88.5013 278.492 88.208C279.166 87.9 279.936 87.746 280.802 87.746C282.136 87.746 283.214 88.0833 284.036 88.758C284.857 89.4327 285.297 90.3567 285.356 91.53H283.354C283.31 90.8993 283.053 90.3933 282.584 90.012C282.129 89.6307 281.513 89.44 280.736 89.44C280.017 89.44 279.445 89.594 279.02 89.902C278.594 90.21 278.382 90.6133 278.382 91.112C278.382 91.508 278.506 91.838 278.756 92.102C279.02 92.3513 279.342 92.5567 279.724 92.718C280.12 92.8647 280.662 93.0333 281.352 93.224C282.217 93.4587 282.921 93.6933 283.464 93.928C284.006 94.148 284.468 94.4853 284.85 94.94C285.246 95.3947 285.451 95.9887 285.466 96.722C285.466 97.382 285.282 97.976 284.916 98.504C284.549 99.032 284.028 99.45 283.354 99.758C282.694 100.051 281.931 100.198 281.066 100.198ZM290.888 84.666L290.646 95.666H288.974L288.732 84.666H290.888ZM289.898 100.132C289.516 100.132 289.194 100 288.93 99.736C288.666 99.472 288.534 99.1493 288.534 98.768C288.534 98.3867 288.666 98.064 288.93 97.8C289.194 97.536 289.516 97.404 289.898 97.404C290.264 97.404 290.572 97.536 290.822 97.8C291.086 98.064 291.218 98.3867 291.218 98.768C291.218 99.1493 291.086 99.472 290.822 99.736C290.572 100 290.264 100.132 289.898 100.132Z" fill="black"/>
</svg>
