<svg width="436" height="793" viewBox="0 0 436 793" fill="none" xmlns="http://www.w3.org/2000/svg">
<ellipse cx="146" cy="751" rx="106" ry="42" fill="#B17733"/>
<path d="M291.5 668C291.5 736.689 226.433 792.5 146 792.5C65.5669 792.5 0.5 736.689 0.5 668C0.5 599.311 65.5669 543.5 146 543.5C226.433 543.5 291.5 599.311 291.5 668Z" fill="#B17733" stroke="#B17733"/>
<g filter="url(#filter0_d_48_19097)">
<ellipse cx="146" cy="585" rx="131" ry="42" fill="#B17733"/>
<path d="M276.5 585C276.5 590.572 272.978 595.966 266.403 600.95C259.837 605.927 250.304 610.431 238.478 614.222C214.834 621.803 182.137 626.5 146 626.5C109.863 626.5 77.1664 621.803 53.5217 614.222C41.6964 610.431 32.1631 605.927 25.5967 600.95C19.0222 595.966 15.5 590.572 15.5 585C15.5 579.428 19.0222 574.034 25.5967 569.05C32.1631 564.073 41.6964 559.569 53.5217 555.778C77.1664 548.197 109.863 543.5 146 543.5C182.137 543.5 214.834 548.197 238.478 555.778C250.304 559.569 259.837 564.073 266.403 569.05C272.978 574.034 276.5 579.428 276.5 585Z" stroke="black"/>
</g>
<path d="M247.5 584C247.5 587.749 244.823 591.433 239.705 594.873C234.605 598.301 227.193 601.408 217.988 604.025C199.586 609.257 174.134 612.5 146 612.5C117.866 612.5 92.4144 609.257 74.0118 604.025C64.8072 601.408 57.3945 598.301 52.2946 594.873C47.1767 591.433 44.5 587.749 44.5 584C44.5 580.251 47.1767 576.567 52.2946 573.127C57.3945 569.699 64.8072 566.592 74.0118 563.975C92.4144 558.743 117.866 555.5 146 555.5C174.134 555.5 199.586 558.743 217.988 563.975C227.193 566.592 234.605 569.699 239.705 573.127C244.823 576.567 247.5 580.251 247.5 584Z" fill="#553E24" stroke="black"/>
<defs>
<filter id="filter0_d_48_19097" x="11" y="543" width="270" height="92" filterUnits="userSpaceOnUse" color-interpolation-filters="sRGB">
<feFlood flood-opacity="0" result="BackgroundImageFix"/>
<feColorMatrix in="SourceAlpha" type="matrix" values="0 0 0 0 0 0 0 0 0 0 0 0 0 0 0 0 0 0 127 0" result="hardAlpha"/>
<feOffset dy="4"/>
<feGaussianBlur stdDeviation="2"/>
<feComposite in2="hardAlpha" operator="out"/>
<feColorMatrix type="matrix" values="0 0 0 0 0 0 0 0 0 0 0 0 0 0 0 0 0 0 0.25 0"/>
<feBlend mode="normal" in2="BackgroundImageFix" result="effect1_dropShadow_48_19097"/>
<feBlend mode="normal" in="SourceGraphic" in2="effect1_dropShadow_48_19097" result="shape"/>
</filter>
</defs>
</svg>
