<svg width="207" height="526" viewBox="0 0 207 526" fill="none" xmlns="http://www.w3.org/2000/svg">
<path d="M98.6501 400.5C98.6501 435.131 101.726 466.468 106.693 489.135C109.177 500.472 112.129 509.613 115.39 515.908C117.021 519.055 118.716 521.467 120.449 523.085C122.18 524.701 123.917 525.5 125.65 525.5C127.383 525.5 129.121 524.701 130.851 523.085C132.584 521.467 134.28 519.055 135.91 515.908C139.171 509.613 142.123 500.472 144.607 489.135C149.574 466.468 152.65 435.131 152.65 400.5C152.65 365.869 149.574 334.532 144.607 311.865C142.123 300.528 139.171 291.387 135.91 285.092C134.28 281.945 132.584 279.533 130.851 277.915C129.121 276.299 127.383 275.5 125.65 275.5C123.917 275.5 122.18 276.299 120.449 277.915C118.716 279.533 117.021 281.945 115.39 285.092C112.129 291.387 109.177 300.528 106.693 311.865C101.726 334.532 98.6501 365.869 98.6501 400.5Z" fill="#DDBBAD" stroke="#DDBBAD"/>
<path d="M117.324 251.201C126.213 275.625 137.144 296.668 147.618 310.944C152.858 318.085 157.965 323.509 162.627 326.822C167.304 330.146 171.424 331.272 174.758 330.058C178.092 328.845 180.524 325.334 181.971 319.782C183.412 314.248 183.838 306.809 183.262 297.971C182.109 280.302 176.957 257.156 168.067 232.732C159.177 208.308 148.247 187.266 137.772 172.99C132.533 165.849 127.425 160.424 122.764 157.112C118.087 153.788 113.967 152.662 110.633 153.875C107.299 155.089 104.866 158.6 103.42 164.152C101.978 169.686 101.552 177.125 102.129 185.963C103.282 203.632 108.434 226.777 117.324 251.201Z" fill="#DDBBAD" stroke="#A67D6B"/>
<path d="M43.6501 400.5C43.6501 435.131 46.7264 466.468 51.6931 489.135C54.1774 500.472 57.1289 509.613 60.3899 515.908C62.0207 519.055 63.7163 521.467 65.4492 523.085C67.1796 524.701 68.9171 525.5 70.6501 525.5C72.3832 525.5 74.1207 524.701 75.8511 523.085C77.584 521.467 79.2796 519.055 80.9104 515.908C84.1714 509.613 87.1229 500.472 89.6072 489.135C94.5739 466.468 97.6501 435.131 97.6501 400.5C97.6501 365.869 94.5739 334.532 89.6072 311.865C87.1229 300.528 84.1714 291.387 80.9104 285.092C79.2796 281.945 77.584 279.533 75.8511 277.915C74.1207 276.299 72.3832 275.5 70.6501 275.5C68.9171 275.5 67.1796 276.299 65.4492 277.915C63.7163 279.533 62.0207 281.945 60.3899 285.092C57.1289 291.387 54.1774 300.528 51.6931 311.865C46.7264 334.532 43.6501 365.869 43.6501 400.5Z" fill="#DDBBAD" stroke="#A67D6B"/>
<path d="M38.7034 232.732C29.8138 257.156 24.6616 280.301 23.5087 297.97C22.9321 306.808 23.3582 314.247 24.7998 319.781C26.2461 325.333 28.6784 328.844 32.0125 330.057C35.3467 331.271 39.4669 330.145 44.1437 326.821C48.8052 323.509 53.9129 318.084 59.1521 310.943C69.6265 296.667 80.5572 275.625 89.4468 251.201C98.3363 226.777 103.489 203.632 104.641 185.963C105.218 177.125 104.792 169.686 103.35 164.152C101.904 158.6 99.4717 155.089 96.1376 153.875C92.8034 152.662 88.6832 153.788 84.0065 157.112C79.345 160.424 74.2372 165.848 68.998 172.989C58.5236 187.266 47.5929 208.308 38.7034 232.732Z" fill="#DDBBAD" stroke="#A67D6B"/>
<path d="M57.4504 274.285C57.4504 342.768 76.9261 398.285 100.95 398.285C124.975 398.285 144.45 342.768 144.45 274.285C144.45 205.801 124.975 150.285 100.95 150.285C76.9261 150.285 57.4504 205.801 57.4504 274.285Z" fill="#DDBBAD"/>
<rect width="168" height="42" rx="21" transform="matrix(-1 0 0 1 182.771 83)" fill="black"/>
<rect width="132" height="42" rx="21" transform="matrix(-1 0 0 1 165.771 100)" fill="black"/>
<rect width="176" height="42" rx="21" transform="matrix(-1 0 0 1 188.771 31)" fill="black"/>
<rect width="101" height="42" rx="21" transform="matrix(-1 0 0 1 152.771 6)" fill="black"/>
<rect width="145" height="42" rx="21" transform="matrix(-1 0 0 1 172.771 15)" fill="black"/>
<rect width="47" height="42" rx="21" transform="matrix(-1 0 0 1 123.771 0)" fill="black"/>
<rect width="177" height="42" rx="21" transform="matrix(-1 0 0 1 189.771 55)" fill="black"/>
<ellipse cx="84" cy="72" rx="84" ry="72" transform="matrix(-1 0 0 1 183.15 7)" fill="black"/>
<ellipse cx="38.5" cy="12" rx="38.5" ry="12" transform="matrix(-1 0 0 1 137.771 42)" fill="black"/>
<rect width="168" height="42" rx="21" transform="matrix(-1 0 0 1 182.771 83)" fill="black"/>
<rect width="132" height="42" rx="21" transform="matrix(-1 0 0 1 165.771 100)" fill="black"/>
<rect width="176" height="42" rx="21" transform="matrix(-1 0 0 1 188.771 31)" fill="black"/>
<rect width="101" height="42" rx="21" transform="matrix(-1 0 0 1 152.771 6)" fill="black"/>
<rect width="145" height="42" rx="21" transform="matrix(-1 0 0 1 172.771 15)" fill="black"/>
<rect width="47" height="42" rx="21" transform="matrix(-1 0 0 1 123.771 0)" fill="black"/>
<rect width="177" height="42" rx="21" transform="matrix(-1 0 0 1 189.771 55)" fill="black"/>
<ellipse cx="84" cy="72" rx="84" ry="72" transform="matrix(-1 0 0 1 183.15 7)" fill="black"/>
<circle cx="54" cy="54" r="54" transform="matrix(-1 0 0 1 155.15 43)" fill="#DDBBAD"/>
<line y1="-0.5" x2="11" y2="-0.5" transform="matrix(-1 0 0 1 107.15 112)" stroke="black"/>
<line y1="-0.5" x2="31" y2="-0.5" transform="matrix(-1 0 0 1 115.15 125)" stroke="black"/>
<ellipse cx="8.5" cy="11" rx="8.5" ry="11" transform="matrix(-1 0 0 1 134.15 83)" fill="#D9D9D9"/>
<ellipse cx="4" cy="6" rx="4" ry="6" transform="matrix(-1 0 0 1 125.15 88)" fill="black"/>
<ellipse cx="8.5" cy="11" rx="8.5" ry="11" transform="matrix(-1 0 0 1 88.1501 83)" fill="#D9D9D9"/>
<ellipse cx="4" cy="6" rx="4" ry="6" transform="matrix(-1 0 0 1 79.1501 88)" fill="black"/>
<ellipse cx="38.5" cy="12" rx="38.5" ry="12" transform="matrix(-1 0 0 1 137.771 42)" fill="black"/>
<path d="M101.764 212.703C106.976 227.023 114.568 238.915 122.607 246.571C130.67 254.25 139.053 257.558 145.914 255.061C152.774 252.564 157.07 244.642 158.31 233.576C159.547 222.544 157.719 208.554 152.507 194.234C147.295 179.914 139.703 168.022 131.664 160.366C123.6 152.686 115.217 149.379 108.357 151.876C101.497 154.373 97.2012 162.295 95.9604 173.361C94.7234 184.393 96.5516 198.383 101.764 212.703Z" fill="#3645CD" stroke="#3645CD"/>
<rect width="46" height="65.7915" transform="matrix(-0.939693 0.34202 0.34202 0.939693 154.268 197.461)" fill="#3645CD"/>
<rect width="47.4679" height="71.3255" transform="matrix(-0.939693 -0.34202 -0.34202 0.939693 94.7705 213.672)" fill="#3645CD"/>
<path d="M41.7705 274.461C41.7705 342.945 66.3948 398.461 96.7705 398.461C127.146 398.461 151.771 342.945 151.771 274.461C151.771 205.978 127.146 150.461 96.7705 150.461C66.3948 150.461 41.7705 205.978 41.7705 274.461Z" fill="#3645CD"/>
<path d="M50.608 196.695C45.396 211.015 43.5678 225.005 44.8047 236.037C46.0456 247.103 50.3412 255.025 57.2015 257.522C64.0618 260.019 72.4448 256.712 80.5085 249.032C88.5471 241.376 96.1394 229.484 101.351 215.164C106.563 200.844 108.392 186.854 107.155 175.822C105.914 164.756 101.618 156.834 94.758 154.337C87.8977 151.84 79.5146 155.147 71.4509 162.827C63.4123 170.483 55.8201 182.375 50.608 196.695Z" fill="#3645CD" stroke="#3645CD"/>
<rect x="0.5" y="-0.5" width="113.229" height="191" transform="matrix(-1 0 0 1 156.229 297)" fill="#F2DDBE" stroke="#B19C7C"/>
<line y1="-0.5" x2="141" y2="-0.5" transform="matrix(-1.13639e-09 1 1 1.09169e-09 99.1147 346)" stroke="#B19C7C"/>
<rect x="38.6981" y="180.862" width="31" height="173.512" transform="rotate(-35.8694 38.6981 180.862)" fill="#F2DDBE" stroke="#B19C7C"/>
</svg>
