<svg width="204" height="81" viewBox="0 0 204 81" fill="none" xmlns="http://www.w3.org/2000/svg">
<rect width="204" height="81" rx="40.5" fill="#987F5A"/>
<path d="M69.728 53.252C68.072 53.252 66.584 52.964 65.264 52.388C63.968 51.788 62.948 50.972 62.204 49.94C61.46 48.884 61.076 47.672 61.052 46.304H64.544C64.664 47.48 65.144 48.476 65.984 49.292C66.848 50.084 68.096 50.48 69.728 50.48C71.288 50.48 72.512 50.096 73.4 49.328C74.312 48.536 74.768 47.528 74.768 46.304C74.768 45.344 74.504 44.564 73.976 43.964C73.448 43.364 72.788 42.908 71.996 42.596C71.204 42.284 70.136 41.948 68.792 41.588C67.136 41.156 65.804 40.724 64.796 40.292C63.812 39.86 62.96 39.188 62.24 38.276C61.544 37.34 61.196 36.092 61.196 34.532C61.196 33.164 61.544 31.952 62.24 30.896C62.936 29.84 63.908 29.024 65.156 28.448C66.428 27.872 67.88 27.584 69.512 27.584C71.864 27.584 73.784 28.172 75.272 29.348C76.784 30.524 77.636 32.084 77.828 34.028H74.228C74.108 33.068 73.604 32.228 72.716 31.508C71.828 30.764 70.652 30.392 69.188 30.392C67.82 30.392 66.704 30.752 65.84 31.472C64.976 32.168 64.544 33.152 64.544 34.424C64.544 35.336 64.796 36.08 65.3 36.656C65.828 37.232 66.464 37.676 67.208 37.988C67.976 38.276 69.044 38.612 70.412 38.996C72.068 39.452 73.4 39.908 74.408 40.364C75.416 40.796 76.28 41.48 77 42.416C77.72 43.328 78.08 44.576 78.08 46.16C78.08 47.384 77.756 48.536 77.108 49.616C76.46 50.696 75.5 51.572 74.228 52.244C72.956 52.916 71.456 53.252 69.728 53.252ZM86.8969 35.972V47.6C86.8969 48.56 87.1009 49.244 87.5089 49.652C87.9169 50.036 88.6249 50.228 89.6329 50.228H92.0449V53H89.0929C87.2689 53 85.9009 52.58 84.9889 51.74C84.0769 50.9 83.6209 49.52 83.6209 47.6V35.972H81.0649V33.272H83.6209V28.304H86.8969V33.272H92.0449V35.972H86.8969ZM94.7902 43.064C94.7902 41.048 95.1982 39.284 96.0142 37.772C96.8302 36.236 97.9462 35.048 99.3622 34.208C100.802 33.368 102.398 32.948 104.15 32.948C105.878 32.948 107.378 33.32 108.65 34.064C109.922 34.808 110.87 35.744 111.494 36.872V33.272H114.806V53H111.494V49.328C110.846 50.48 109.874 51.44 108.578 52.208C107.306 52.952 105.818 53.324 104.114 53.324C102.362 53.324 100.778 52.892 99.3622 52.028C97.9462 51.164 96.8302 49.952 96.0142 48.392C95.1982 46.832 94.7902 45.056 94.7902 43.064ZM111.494 43.1C111.494 41.612 111.194 40.316 110.594 39.212C109.994 38.108 109.178 37.268 108.146 36.692C107.138 36.092 106.022 35.792 104.798 35.792C103.574 35.792 102.458 36.08 101.45 36.656C100.442 37.232 99.6382 38.072 99.0382 39.176C98.4382 40.28 98.1382 41.576 98.1382 43.064C98.1382 44.576 98.4382 45.896 99.0382 47.024C99.6382 48.128 100.442 48.98 101.45 49.58C102.458 50.156 103.574 50.444 104.798 50.444C106.022 50.444 107.138 50.156 108.146 49.58C109.178 48.98 109.994 48.128 110.594 47.024C111.194 45.896 111.494 44.588 111.494 43.1ZM123.618 36.476C124.194 35.348 125.01 34.472 126.066 33.848C127.146 33.224 128.454 32.912 129.99 32.912V36.296H129.126C125.454 36.296 123.618 38.288 123.618 42.272V53H120.342V33.272H123.618V36.476ZM137.768 35.972V47.6C137.768 48.56 137.972 49.244 138.38 49.652C138.788 50.036 139.496 50.228 140.504 50.228H142.916V53H139.964C138.14 53 136.772 52.58 135.86 51.74C134.948 50.9 134.492 49.52 134.492 47.6V35.972H131.936V33.272H134.492V28.304H137.768V33.272H142.916V35.972H137.768Z" fill="white"/>
</svg>
