<svg width="207" height="519" viewBox="0 0 207 519" fill="none" xmlns="http://www.w3.org/2000/svg">
<g clip-path="url(#clip0_64_2595)">
<ellipse cx="100" cy="132" rx="84" ry="132" fill="black"/>
<ellipse cx="97.9997" cy="90.0007" rx="54" ry="54" fill="#CB9D8A"/>
<rect x="62.9993" y="36.0007" width="70" height="30" fill="black"/>
<path d="M105.5 393.5C105.5 428.131 102.424 459.468 97.4568 482.135C94.9725 493.472 92.021 502.613 88.76 508.907C87.1292 512.055 85.4336 514.466 83.7007 516.084C81.9703 517.7 80.2328 518.5 78.4998 518.5C76.7667 518.5 75.0292 517.7 73.2988 516.084C71.5659 514.466 69.8703 512.055 68.2395 508.907C64.9785 502.613 62.027 493.472 59.5427 482.135C54.576 459.468 51.4998 428.131 51.4998 393.5C51.4998 358.869 54.576 327.531 59.5427 304.865C62.027 293.528 64.9785 284.387 68.2395 278.092C69.8703 274.944 71.5659 272.533 73.2988 270.915C75.0292 269.299 76.7667 268.5 78.4998 268.5C80.2328 268.5 81.9703 269.299 83.7007 270.915C85.4336 272.533 87.1292 274.944 88.76 278.092C92.021 284.387 94.9725 293.528 97.4568 304.865C102.424 327.531 105.5 358.869 105.5 393.5Z" fill="#CB9D8A" stroke="#A67D6B"/>
<path d="M86.827 244.201C77.9374 268.625 67.0066 289.667 56.5322 303.944C51.293 311.085 46.1852 316.509 41.5237 319.822C36.847 323.145 32.7268 324.272 29.3926 323.058C26.0585 321.844 23.6262 318.333 22.1798 312.781C20.7383 307.247 20.3122 299.809 20.8888 290.971C22.0417 273.302 27.194 250.156 36.0836 225.732C44.9732 201.308 55.9039 180.266 66.3783 165.989C71.6176 158.848 76.7253 153.424 81.3868 150.111C86.0636 146.788 90.1838 145.662 93.5179 146.875C96.8521 148.089 99.2844 151.6 100.731 157.152C102.172 162.686 102.598 170.124 102.022 178.962C100.869 196.632 95.7165 219.777 86.827 244.201Z" fill="#CB9D8A" stroke="#A67D6B"/>
<path d="M160.5 393.5C160.5 428.131 157.423 459.468 152.457 482.135C149.972 493.472 147.021 502.613 143.76 508.907C142.129 512.055 140.433 514.466 138.7 516.084C136.97 517.7 135.233 518.5 133.5 518.5C131.766 518.5 130.029 517.7 128.299 516.084C126.566 514.466 124.87 512.055 123.239 508.907C119.978 502.613 117.027 493.472 114.542 482.135C109.576 459.468 106.5 428.131 106.5 393.5C106.5 358.869 109.576 327.531 114.542 304.865C117.027 293.528 119.978 284.387 123.239 278.092C124.87 274.944 126.566 272.533 128.299 270.915C130.029 269.299 131.766 268.5 133.5 268.5C135.233 268.5 136.97 269.299 138.7 270.915C140.433 272.533 142.129 274.944 143.76 278.092C147.021 284.387 149.972 293.528 152.457 304.865C157.423 327.531 160.5 358.869 160.5 393.5Z" fill="#CB9D8A" stroke="#A67D6B"/>
<path d="M165.447 225.732C174.336 250.156 179.489 273.301 180.641 290.97C181.218 299.808 180.792 307.247 179.35 312.781C177.904 318.333 175.472 321.844 172.138 323.058C168.803 324.271 164.683 323.145 160.006 319.821C155.345 316.509 150.237 311.085 144.998 303.944C134.524 289.667 123.593 268.625 114.703 244.201C105.814 219.777 100.662 196.632 99.5087 178.963C98.9321 170.125 99.3582 162.686 100.8 157.152C102.246 151.6 104.678 148.089 108.013 146.876C111.347 145.662 115.467 146.788 120.144 150.112C124.805 153.424 129.913 158.849 135.152 165.99C145.626 180.266 156.557 201.308 165.447 225.732Z" fill="#CB9D8A" stroke="#A67D6B"/>
<path d="M146.7 267.284C146.7 335.768 127.224 391.284 103.2 391.284C79.1756 391.284 59.7 335.768 59.7 267.284C59.7 198.801 79.1756 143.284 103.2 143.284C127.224 143.284 146.7 198.801 146.7 267.284Z" fill="#CB9D8A"/>
<path d="M103.49 213.751L-3.27897e-05 390.999H206.98L103.49 213.751Z" fill="#D9D9D9"/>
<rect width="77" height="68.6483" transform="matrix(-1 0 0 1 141.98 207)" fill="#B17733"/>
<ellipse cx="73.5" cy="86.9995" rx="8.5" ry="11" fill="#D9D9D9"/>
<ellipse cx="78.0002" cy="86.9998" rx="4" ry="6" fill="black"/>
<ellipse cx="119.5" cy="86.9995" rx="8.5" ry="11" fill="#D9D9D9"/>
<ellipse cx="124" cy="86.9998" rx="4" ry="6" fill="black"/>
<line x1="94.9995" y1="104.499" x2="106" y2="104.499" stroke="black"/>
<ellipse cx="16" cy="6.5" rx="16" ry="6.5" transform="matrix(-1 0 0 1 113.98 114)" fill="#5E4636"/>
</g>
<defs>
<clipPath id="clip0_64_2595">
<rect width="207" height="519" fill="white"/>
</clipPath>
</defs>
</svg>
