<svg width="588" height="171" viewBox="0 0 588 171" fill="none" xmlns="http://www.w3.org/2000/svg">
<rect width="588" height="171" fill="#F5E9D7"/>
<path d="M56.8923 41.9719C56.8923 40.4759 57.2296 39.1339 57.9043 37.9459C58.5789 36.7432 59.4956 35.8046 60.6543 35.1299C61.8276 34.4552 63.1256 34.1179 64.5483 34.1179C66.2203 34.1179 67.6796 34.5212 68.9263 35.3279C70.1729 36.1346 71.0823 37.2786 71.6543 38.7599H69.2563C68.8309 37.8359 68.2149 37.1246 67.4083 36.6259C66.6163 36.1272 65.6629 35.8779 64.5483 35.8779C63.4776 35.8779 62.5169 36.1272 61.6663 36.6259C60.8156 37.1246 60.1483 37.8359 59.6643 38.7599C59.1803 39.6692 58.9383 40.7399 58.9383 41.9719C58.9383 43.1892 59.1803 44.2599 59.6643 45.1839C60.1483 46.0932 60.8156 46.7972 61.6663 47.2959C62.5169 47.7946 63.4776 48.0439 64.5483 48.0439C65.6629 48.0439 66.6163 47.8019 67.4083 47.3179C68.2149 46.8192 68.8309 46.1079 69.2563 45.1839H71.6543C71.0823 46.6506 70.1729 47.7872 68.9263 48.5939C67.6796 49.3859 66.2203 49.7819 64.5483 49.7819C63.1256 49.7819 61.8276 49.4519 60.6543 48.7919C59.4956 48.1172 58.5789 47.1859 57.9043 45.9979C57.2296 44.8099 56.8923 43.4679 56.8923 41.9719ZM76.6364 33.3699V49.6499H74.6344V33.3699H76.6364ZM79.3005 43.5779C79.3005 42.3459 79.5498 41.2679 80.0485 40.3439C80.5471 39.4052 81.2291 38.6792 82.0945 38.1659C82.9745 37.6526 83.9498 37.3959 85.0205 37.3959C86.0765 37.3959 86.9931 37.6232 87.7705 38.0779C88.5478 38.5326 89.1271 39.1046 89.5085 39.7939V37.5939H91.5325V49.6499H89.5085V47.4059C89.1125 48.1099 88.5185 48.6966 87.7265 49.1659C86.9491 49.6206 86.0398 49.8479 84.9985 49.8479C83.9278 49.8479 82.9598 49.5839 82.0945 49.0559C81.2291 48.5279 80.5471 47.7872 80.0485 46.8339C79.5498 45.8806 79.3005 44.7952 79.3005 43.5779ZM89.5085 43.5999C89.5085 42.6906 89.3251 41.8986 88.9585 41.2239C88.5918 40.5492 88.0931 40.0359 87.4625 39.6839C86.8465 39.3172 86.1645 39.1339 85.4165 39.1339C84.6685 39.1339 83.9865 39.3099 83.3705 39.6619C82.7545 40.0139 82.2631 40.5272 81.8965 41.2019C81.5298 41.8766 81.3465 42.6686 81.3465 43.5779C81.3465 44.5019 81.5298 45.3086 81.8965 45.9979C82.2631 46.6726 82.7545 47.1932 83.3705 47.5599C83.9865 47.9119 84.6685 48.0879 85.4165 48.0879C86.1645 48.0879 86.8465 47.9119 87.4625 47.5599C88.0931 47.1932 88.5918 46.6726 88.9585 45.9979C89.3251 45.3086 89.5085 44.5092 89.5085 43.5999ZM96.9176 39.5519C97.2696 38.8626 97.7683 38.3272 98.4136 37.9459C99.0736 37.5646 99.873 37.3739 100.812 37.3739V39.4419H100.284C98.0396 39.4419 96.9176 40.6592 96.9176 43.0939V49.6499H94.9156V37.5939H96.9176V39.5519ZM102.375 43.5779C102.375 42.3459 102.624 41.2679 103.123 40.3439C103.621 39.4052 104.303 38.6792 105.169 38.1659C106.049 37.6526 107.024 37.3959 108.095 37.3959C109.151 37.3959 110.067 37.6232 110.845 38.0779C111.622 38.5326 112.201 39.1046 112.583 39.7939V37.5939H114.607V49.6499H112.583V47.4059C112.187 48.1099 111.593 48.6966 110.801 49.1659C110.023 49.6206 109.114 49.8479 108.073 49.8479C107.002 49.8479 106.034 49.5839 105.169 49.0559C104.303 48.5279 103.621 47.7872 103.123 46.8339C102.624 45.8806 102.375 44.7952 102.375 43.5779ZM112.583 43.5999C112.583 42.6906 112.399 41.8986 112.033 41.2239C111.666 40.5492 111.167 40.0359 110.537 39.6839C109.921 39.3172 109.239 39.1339 108.491 39.1339C107.743 39.1339 107.061 39.3099 106.445 39.6619C105.829 40.0139 105.337 40.5272 104.971 41.2019C104.604 41.8766 104.421 42.6686 104.421 43.5779C104.421 44.5019 104.604 45.3086 104.971 45.9979C105.337 46.6726 105.829 47.1932 106.445 47.5599C107.061 47.9119 107.743 48.0879 108.491 48.0879C109.239 48.0879 109.921 47.9119 110.537 47.5599C111.167 47.1932 111.666 46.6726 112.033 45.9979C112.399 45.3086 112.583 44.5092 112.583 43.5999ZM119.002 32.1379L118.738 36.5159H117.352L117.066 32.1379H119.002ZM125.76 49.8479C124.836 49.8479 124.007 49.6939 123.274 49.3859C122.54 49.0632 121.961 48.6232 121.536 48.0659C121.11 47.4939 120.876 46.8412 120.832 46.1079H122.9C122.958 46.7092 123.237 47.2006 123.736 47.5819C124.249 47.9632 124.916 48.1539 125.738 48.1539C126.5 48.1539 127.102 47.9852 127.542 47.6479C127.982 47.3106 128.202 46.8852 128.202 46.3719C128.202 45.8439 127.967 45.4552 127.498 45.2059C127.028 44.9419 126.302 44.6852 125.32 44.4359C124.425 44.2012 123.692 43.9666 123.12 43.7319C122.562 43.4826 122.078 43.1232 121.668 42.6539C121.272 42.1699 121.074 41.5392 121.074 40.7619C121.074 40.1459 121.257 39.5812 121.624 39.0679C121.99 38.5546 122.511 38.1512 123.186 37.8579C123.86 37.5499 124.63 37.3959 125.496 37.3959C126.83 37.3959 127.908 37.7332 128.73 38.4079C129.551 39.0826 129.991 40.0066 130.05 41.1799H128.048C128.004 40.5492 127.747 40.0432 127.278 39.6619C126.823 39.2806 126.207 39.0899 125.43 39.0899C124.711 39.0899 124.139 39.2439 123.714 39.5519C123.288 39.8599 123.076 40.2632 123.076 40.7619C123.076 41.1579 123.2 41.4879 123.45 41.7519C123.714 42.0012 124.036 42.2066 124.418 42.3679C124.814 42.5146 125.356 42.6832 126.046 42.8739C126.911 43.1086 127.615 43.3432 128.158 43.5779C128.7 43.7979 129.162 44.1352 129.544 44.5899C129.94 45.0446 130.145 45.6386 130.16 46.3719C130.16 47.0319 129.976 47.6259 129.61 48.1539C129.243 48.6819 128.722 49.0999 128.048 49.4079C127.388 49.7012 126.625 49.8479 125.76 49.8479ZM140.853 33.3699V49.6499H138.851V33.3699H140.853ZM145.299 35.6359C144.918 35.6359 144.595 35.5039 144.331 35.2399C144.067 34.9759 143.935 34.6532 143.935 34.2719C143.935 33.8906 144.067 33.5679 144.331 33.3039C144.595 33.0399 144.918 32.9079 145.299 32.9079C145.666 32.9079 145.974 33.0399 146.223 33.3039C146.487 33.5679 146.619 33.8906 146.619 34.2719C146.619 34.6532 146.487 34.9759 146.223 35.2399C145.974 35.5039 145.666 35.6359 145.299 35.6359ZM146.267 37.5939V49.6499H144.265V37.5939H146.267ZM154.585 39.2439H152.055V49.6499H150.053V39.2439H148.491V37.5939H150.053V36.7359C150.053 35.3866 150.398 34.4039 151.087 33.7879C151.791 33.1572 152.913 32.8419 154.453 32.8419V34.5139C153.573 34.5139 152.95 34.6899 152.583 35.0419C152.231 35.3792 152.055 35.9439 152.055 36.7359V37.5939H154.585V39.2439ZM167.92 43.1599C167.92 43.5412 167.898 43.9446 167.854 44.3699H158.218C158.291 45.5579 158.694 46.4892 159.428 47.1639C160.176 47.8239 161.078 48.1539 162.134 48.1539C162.999 48.1539 163.718 47.9559 164.29 47.5599C164.876 47.1492 165.287 46.6066 165.522 45.9319H167.678C167.355 47.0906 166.71 48.0366 165.742 48.7699C164.774 49.4886 163.571 49.8479 162.134 49.8479C160.99 49.8479 159.963 49.5912 159.054 49.0779C158.159 48.5646 157.455 47.8386 156.942 46.8999C156.428 45.9466 156.172 44.8466 156.172 43.5999C156.172 42.3532 156.421 41.2606 156.92 40.3219C157.418 39.3832 158.115 38.6646 159.01 38.1659C159.919 37.6526 160.96 37.3959 162.134 37.3959C163.278 37.3959 164.29 37.6452 165.17 38.1439C166.05 38.6426 166.724 39.3319 167.194 40.2119C167.678 41.0772 167.92 42.0599 167.92 43.1599ZM165.852 42.7419C165.852 41.9792 165.683 41.3266 165.346 40.7839C165.008 40.2266 164.546 39.8086 163.96 39.5299C163.388 39.2366 162.75 39.0899 162.046 39.0899C161.034 39.0899 160.168 39.4126 159.45 40.0579C158.746 40.7032 158.342 41.5979 158.24 42.7419H165.852ZM178.429 33.3699V49.6499H176.427V33.3699H178.429ZM181.093 43.5779C181.093 42.3459 181.343 41.2679 181.841 40.3439C182.34 39.4052 183.022 38.6792 183.887 38.1659C184.767 37.6526 185.743 37.3959 186.813 37.3959C187.869 37.3959 188.786 37.6232 189.563 38.0779C190.341 38.5326 190.92 39.1046 191.301 39.7939V37.5939H193.325V49.6499H191.301V47.4059C190.905 48.1099 190.311 48.6966 189.519 49.1659C188.742 49.6206 187.833 49.8479 186.791 49.8479C185.721 49.8479 184.753 49.5839 183.887 49.0559C183.022 48.5279 182.34 47.7872 181.841 46.8339C181.343 45.8806 181.093 44.7952 181.093 43.5779ZM191.301 43.5999C191.301 42.6906 191.118 41.8986 190.751 41.2239C190.385 40.5492 189.886 40.0359 189.255 39.6839C188.639 39.3172 187.957 39.1339 187.209 39.1339C186.461 39.1339 185.779 39.3099 185.163 39.6619C184.547 40.0139 184.056 40.5272 183.689 41.2019C183.323 41.8766 183.139 42.6686 183.139 43.5779C183.139 44.5019 183.323 45.3086 183.689 45.9979C184.056 46.6726 184.547 47.1932 185.163 47.5599C185.779 47.9119 186.461 48.0879 187.209 48.0879C187.957 48.0879 188.639 47.9119 189.255 47.5599C189.886 47.1932 190.385 46.6726 190.751 45.9979C191.118 45.3086 191.301 44.5092 191.301 43.5999ZM195.961 43.5999C195.961 42.3532 196.21 41.2679 196.709 40.3439C197.207 39.4052 197.897 38.6792 198.777 38.1659C199.671 37.6526 200.691 37.3959 201.835 37.3959C203.316 37.3959 204.533 37.7552 205.487 38.4739C206.455 39.1926 207.093 40.1899 207.401 41.4659H205.245C205.039 40.7326 204.636 40.1532 204.035 39.7279C203.448 39.3026 202.715 39.0899 201.835 39.0899C200.691 39.0899 199.767 39.4859 199.063 40.2779C198.359 41.0552 198.007 42.1626 198.007 43.5999C198.007 45.0519 198.359 46.1739 199.063 46.9659C199.767 47.7579 200.691 48.1539 201.835 48.1539C202.715 48.1539 203.448 47.9486 204.035 47.5379C204.621 47.1272 205.025 46.5406 205.245 45.7779H207.401C207.078 47.0099 206.433 47.9999 205.465 48.7479C204.497 49.4812 203.287 49.8479 201.835 49.8479C200.691 49.8479 199.671 49.5912 198.777 49.0779C197.897 48.5646 197.207 47.8386 196.709 46.8999C196.21 45.9612 195.961 44.8612 195.961 43.5999ZM216.804 49.6499L212.074 44.3259V49.6499H210.072V33.3699H212.074V42.9399L216.716 37.5939H219.51L213.834 43.5999L219.532 49.6499H216.804ZM225.662 49.8479C224.738 49.8479 223.909 49.6939 223.176 49.3859C222.443 49.0632 221.863 48.6232 221.438 48.0659C221.013 47.4939 220.778 46.8412 220.734 46.1079H222.802C222.861 46.7092 223.139 47.2006 223.638 47.5819C224.151 47.9632 224.819 48.1539 225.64 48.1539C226.403 48.1539 227.004 47.9852 227.444 47.6479C227.884 47.3106 228.104 46.8852 228.104 46.3719C228.104 45.8439 227.869 45.4552 227.4 45.2059C226.931 44.9419 226.205 44.6852 225.222 44.4359C224.327 44.2012 223.594 43.9666 223.022 43.7319C222.465 43.4826 221.981 43.1232 221.57 42.6539C221.174 42.1699 220.976 41.5392 220.976 40.7619C220.976 40.1459 221.159 39.5812 221.526 39.0679C221.893 38.5546 222.413 38.1512 223.088 37.8579C223.763 37.5499 224.533 37.3959 225.398 37.3959C226.733 37.3959 227.811 37.7332 228.632 38.4079C229.453 39.0826 229.893 40.0066 229.952 41.1799H227.95C227.906 40.5492 227.649 40.0432 227.18 39.6619C226.725 39.2806 226.109 39.0899 225.332 39.0899C224.613 39.0899 224.041 39.2439 223.616 39.5519C223.191 39.8599 222.978 40.2632 222.978 40.7619C222.978 41.1579 223.103 41.4879 223.352 41.7519C223.616 42.0012 223.939 42.2066 224.32 42.3679C224.716 42.5146 225.259 42.6832 225.948 42.8739C226.813 43.1086 227.517 43.3432 228.06 43.5779C228.603 43.7979 229.065 44.1352 229.446 44.5899C229.842 45.0446 230.047 45.6386 230.062 46.3719C230.062 47.0319 229.879 47.6259 229.512 48.1539C229.145 48.6819 228.625 49.0999 227.95 49.4079C227.29 49.7012 226.527 49.8479 225.662 49.8479ZM238.006 43.5779C238.006 42.3459 238.255 41.2679 238.754 40.3439C239.252 39.4052 239.934 38.6792 240.8 38.1659C241.68 37.6526 242.662 37.3959 243.748 37.3959C244.686 37.3959 245.559 37.6159 246.366 38.0559C247.172 38.4812 247.788 39.0459 248.214 39.7499V33.3699H250.238V49.6499H248.214V47.3839C247.818 48.1026 247.231 48.6966 246.454 49.1659C245.676 49.6206 244.767 49.8479 243.726 49.8479C242.655 49.8479 241.68 49.5839 240.8 49.0559C239.934 48.5279 239.252 47.7872 238.754 46.8339C238.255 45.8806 238.006 44.7952 238.006 43.5779ZM248.214 43.5999C248.214 42.6906 248.03 41.8986 247.664 41.2239C247.297 40.5492 246.798 40.0359 246.168 39.6839C245.552 39.3172 244.87 39.1339 244.122 39.1339C243.374 39.1339 242.692 39.3099 242.076 39.6619C241.46 40.0139 240.968 40.5272 240.602 41.2019C240.235 41.8766 240.052 42.6686 240.052 43.5779C240.052 44.5019 240.235 45.3086 240.602 45.9979C240.968 46.6726 241.46 47.1932 242.076 47.5599C242.692 47.9119 243.374 48.0879 244.122 48.0879C244.87 48.0879 245.552 47.9119 246.168 47.5599C246.798 47.1932 247.297 46.6726 247.664 45.9979C248.03 45.3086 248.214 44.5092 248.214 43.5999ZM258.879 49.8479C257.749 49.8479 256.723 49.5912 255.799 49.0779C254.889 48.5646 254.171 47.8386 253.643 46.8999C253.129 45.9466 252.873 44.8466 252.873 43.5999C252.873 42.3679 253.137 41.2826 253.665 40.3439C254.207 39.3906 254.941 38.6646 255.865 38.1659C256.789 37.6526 257.823 37.3959 258.967 37.3959C260.111 37.3959 261.145 37.6526 262.069 38.1659C262.993 38.6646 263.719 39.3832 264.247 40.3219C264.789 41.2606 265.061 42.3532 265.061 43.5999C265.061 44.8466 264.782 45.9466 264.225 46.8999C263.682 47.8386 262.941 48.5646 262.003 49.0779C261.064 49.5912 260.023 49.8479 258.879 49.8479ZM258.879 48.0879C259.597 48.0879 260.272 47.9192 260.903 47.5819C261.533 47.2446 262.039 46.7386 262.421 46.0639C262.817 45.3892 263.015 44.5679 263.015 43.5999C263.015 42.6319 262.824 41.8106 262.443 41.1359C262.061 40.4612 261.563 39.9626 260.947 39.6399C260.331 39.3026 259.663 39.1339 258.945 39.1339C258.211 39.1339 257.537 39.3026 256.921 39.6399C256.319 39.9626 255.835 40.4612 255.469 41.1359C255.102 41.8106 254.919 42.6319 254.919 43.5999C254.919 44.5826 255.095 45.4112 255.447 46.0859C255.813 46.7606 256.297 47.2666 256.899 47.6039C257.5 47.9266 258.16 48.0879 258.879 48.0879ZM266.945 43.5999C266.945 42.3532 267.194 41.2679 267.693 40.3439C268.192 39.4052 268.881 38.6792 269.761 38.1659C270.656 37.6526 271.675 37.3959 272.819 37.3959C274.3 37.3959 275.518 37.7552 276.471 38.4739C277.439 39.1926 278.077 40.1899 278.385 41.4659H276.229C276.024 40.7326 275.62 40.1532 275.019 39.7279C274.432 39.3026 273.699 39.0899 272.819 39.0899C271.675 39.0899 270.751 39.4859 270.047 40.2779C269.343 41.0552 268.991 42.1626 268.991 43.5999C268.991 45.0519 269.343 46.1739 270.047 46.9659C270.751 47.7579 271.675 48.1539 272.819 48.1539C273.699 48.1539 274.432 47.9486 275.019 47.5379C275.606 47.1272 276.009 46.5406 276.229 45.7779H278.385C278.062 47.0099 277.417 47.9999 276.449 48.7479C275.481 49.4812 274.271 49.8479 272.819 49.8479C271.675 49.8479 270.656 49.5912 269.761 49.0779C268.881 48.5646 268.192 47.8386 267.693 46.8999C267.194 45.9612 266.945 44.8612 266.945 43.5999ZM291.748 37.5939V49.6499H289.746V47.8679C289.365 48.4839 288.83 48.9679 288.14 49.3199C287.466 49.6572 286.718 49.8259 285.896 49.8259C284.958 49.8259 284.114 49.6352 283.366 49.2539C282.618 48.8579 282.024 48.2712 281.584 47.4939C281.159 46.7166 280.946 45.7706 280.946 44.6559V37.5939H282.926V44.3919C282.926 45.5799 283.227 46.4966 283.828 47.1419C284.43 47.7726 285.251 48.0879 286.292 48.0879C287.363 48.0879 288.206 47.7579 288.822 47.0979C289.438 46.4379 289.746 45.4772 289.746 44.2159V37.5939H291.748ZM309.627 37.3739C310.565 37.3739 311.401 37.5719 312.135 37.9679C312.868 38.3492 313.447 38.9286 313.873 39.7059C314.298 40.4832 314.511 41.4292 314.511 42.5439V49.6499H312.531V42.8299C312.531 41.6272 312.23 40.7106 311.629 40.0799C311.042 39.4346 310.243 39.1119 309.231 39.1119C308.189 39.1119 307.361 39.4492 306.745 40.1239C306.129 40.7839 305.821 41.7446 305.821 43.0059V49.6499H303.841V42.8299C303.841 41.6272 303.54 40.7106 302.939 40.0799C302.352 39.4346 301.553 39.1119 300.541 39.1119C299.499 39.1119 298.671 39.4492 298.055 40.1239C297.439 40.7839 297.131 41.7446 297.131 43.0059V49.6499H295.129V37.5939H297.131V39.3319C297.527 38.7012 298.055 38.2172 298.715 37.8799C299.389 37.5426 300.13 37.3739 300.937 37.3739C301.949 37.3739 302.843 37.6012 303.621 38.0559C304.398 38.5106 304.977 39.1779 305.359 40.0579C305.696 39.2072 306.253 38.5472 307.031 38.0779C307.808 37.6086 308.673 37.3739 309.627 37.3739ZM328.795 43.1599C328.795 43.5412 328.773 43.9446 328.729 44.3699H319.093C319.166 45.5579 319.569 46.4892 320.303 47.1639C321.051 47.8239 321.953 48.1539 323.009 48.1539C323.874 48.1539 324.593 47.9559 325.165 47.5599C325.751 47.1492 326.162 46.6066 326.397 45.9319H328.553C328.23 47.0906 327.585 48.0366 326.617 48.7699C325.649 49.4886 324.446 49.8479 323.009 49.8479C321.865 49.8479 320.838 49.5912 319.929 49.0779C319.034 48.5646 318.33 47.8386 317.817 46.8999C317.303 45.9466 317.047 44.8466 317.047 43.5999C317.047 42.3532 317.296 41.2606 317.795 40.3219C318.293 39.3832 318.99 38.6646 319.885 38.1659C320.794 37.6526 321.835 37.3959 323.009 37.3959C324.153 37.3959 325.165 37.6452 326.045 38.1439C326.925 38.6426 327.599 39.3319 328.069 40.2119C328.553 41.0772 328.795 42.0599 328.795 43.1599ZM326.727 42.7419C326.727 41.9792 326.558 41.3266 326.221 40.7839C325.883 40.2266 325.421 39.8086 324.835 39.5299C324.263 39.2366 323.625 39.0899 322.921 39.0899C321.909 39.0899 321.043 39.4126 320.325 40.0579C319.621 40.7032 319.217 41.5979 319.115 42.7419H326.727ZM337.311 37.3739C338.778 37.3739 339.966 37.8212 340.875 38.7159C341.784 39.5959 342.239 40.8719 342.239 42.5439V49.6499H340.259V42.8299C340.259 41.6272 339.958 40.7106 339.357 40.0799C338.756 39.4346 337.934 39.1119 336.893 39.1119C335.837 39.1119 334.994 39.4419 334.363 40.1019C333.747 40.7619 333.439 41.7226 333.439 42.9839V49.6499H331.437V37.5939H333.439V39.3099C333.835 38.6939 334.37 38.2172 335.045 37.8799C335.734 37.5426 336.49 37.3739 337.311 37.3739ZM347.951 39.2439V46.3499C347.951 46.9366 348.076 47.3546 348.325 47.6039C348.575 47.8386 349.007 47.9559 349.623 47.9559H351.097V49.6499H349.293C348.179 49.6499 347.343 49.3932 346.785 48.8799C346.228 48.3666 345.949 47.5232 345.949 46.3499V39.2439H344.387V37.5939H345.949V34.5579H347.951V37.5939H351.097V39.2439H347.951ZM364.523 43.1599C364.523 43.5412 364.501 43.9446 364.457 44.3699H354.821C354.894 45.5579 355.298 46.4892 356.031 47.1639C356.779 47.8239 357.681 48.1539 358.737 48.1539C359.602 48.1539 360.321 47.9559 360.893 47.5599C361.48 47.1492 361.89 46.6066 362.125 45.9319H364.281C363.958 47.0906 363.313 48.0366 362.345 48.7699C361.377 49.4886 360.174 49.8479 358.737 49.8479C357.593 49.8479 356.566 49.5912 355.657 49.0779C354.762 48.5646 354.058 47.8386 353.545 46.8999C353.032 45.9466 352.775 44.8466 352.775 43.5999C352.775 42.3532 353.024 41.2606 353.523 40.3219C354.022 39.3832 354.718 38.6646 355.613 38.1659C356.522 37.6526 357.564 37.3959 358.737 37.3959C359.881 37.3959 360.893 37.6452 361.773 38.1439C362.653 38.6426 363.328 39.3319 363.797 40.2119C364.281 41.0772 364.523 42.0599 364.523 43.1599ZM362.455 42.7419C362.455 41.9792 362.286 41.3266 361.949 40.7839C361.612 40.2266 361.15 39.8086 360.563 39.5299C359.991 39.2366 359.353 39.0899 358.649 39.0899C357.637 39.0899 356.772 39.4126 356.053 40.0579C355.349 40.7032 354.946 41.5979 354.843 42.7419H362.455ZM366.418 43.5779C366.418 42.3459 366.667 41.2679 367.166 40.3439C367.664 39.4052 368.346 38.6792 369.212 38.1659C370.092 37.6526 371.074 37.3959 372.16 37.3959C373.098 37.3959 373.971 37.6159 374.778 38.0559C375.584 38.4812 376.2 39.0459 376.626 39.7499V33.3699H378.65V49.6499H376.626V47.3839C376.23 48.1026 375.643 48.6966 374.866 49.1659C374.088 49.6206 373.179 49.8479 372.138 49.8479C371.067 49.8479 370.092 49.5839 369.212 49.0559C368.346 48.5279 367.664 47.7872 367.166 46.8339C366.667 45.8806 366.418 44.7952 366.418 43.5779ZM376.626 43.5999C376.626 42.6906 376.442 41.8986 376.076 41.2239C375.709 40.5492 375.21 40.0359 374.58 39.6839C373.964 39.3172 373.282 39.1339 372.534 39.1339C371.786 39.1339 371.104 39.3099 370.488 39.6619C369.872 40.0139 369.38 40.5272 369.014 41.2019C368.647 41.8766 368.464 42.6686 368.464 43.5779C368.464 44.5019 368.647 45.3086 369.014 45.9979C369.38 46.6726 369.872 47.1932 370.488 47.5599C371.104 47.9119 371.786 48.0879 372.534 48.0879C373.282 48.0879 373.964 47.9119 374.58 47.5599C375.21 47.1932 375.709 46.6726 376.076 45.9979C376.442 45.3086 376.626 44.5092 376.626 43.5999ZM398.898 43.1599C398.898 43.5412 398.876 43.9446 398.832 44.3699H389.196C389.269 45.5579 389.673 46.4892 390.406 47.1639C391.154 47.8239 392.056 48.1539 393.112 48.1539C393.977 48.1539 394.696 47.9559 395.268 47.5599C395.855 47.1492 396.265 46.6066 396.5 45.9319H398.656C398.333 47.0906 397.688 48.0366 396.72 48.7699C395.752 49.4886 394.549 49.8479 393.112 49.8479C391.968 49.8479 390.941 49.5912 390.032 49.0779C389.137 48.5646 388.433 47.8386 387.92 46.8999C387.407 45.9466 387.15 44.8466 387.15 43.5999C387.15 42.3532 387.399 41.2606 387.898 40.3219C388.397 39.3832 389.093 38.6646 389.988 38.1659C390.897 37.6526 391.939 37.3959 393.112 37.3959C394.256 37.3959 395.268 37.6452 396.148 38.1439C397.028 38.6426 397.703 39.3319 398.172 40.2119C398.656 41.0772 398.898 42.0599 398.898 43.1599ZM396.83 42.7419C396.83 41.9792 396.661 41.3266 396.324 40.7839C395.987 40.2266 395.525 39.8086 394.938 39.5299C394.366 39.2366 393.728 39.0899 393.024 39.0899C392.012 39.0899 391.147 39.4126 390.428 40.0579C389.724 40.7032 389.321 41.5979 389.218 42.7419H396.83ZM406.029 47.8019L409.769 37.5939H411.903L407.173 49.6499H404.841L400.111 37.5939H402.267L406.029 47.8019ZM414.907 35.6359C414.525 35.6359 414.203 35.5039 413.939 35.2399C413.675 34.9759 413.543 34.6532 413.543 34.2719C413.543 33.8906 413.675 33.5679 413.939 33.3039C414.203 33.0399 414.525 32.9079 414.907 32.9079C415.273 32.9079 415.581 33.0399 415.831 33.3039C416.095 33.5679 416.227 33.8906 416.227 34.2719C416.227 34.6532 416.095 34.9759 415.831 35.2399C415.581 35.5039 415.273 35.6359 414.907 35.6359ZM415.875 37.5939V49.6499H413.873V37.5939H415.875ZM418.539 43.5779C418.539 42.3459 418.788 41.2679 419.287 40.3439C419.785 39.4052 420.467 38.6792 421.333 38.1659C422.213 37.6526 423.195 37.3959 424.281 37.3959C425.219 37.3959 426.092 37.6159 426.899 38.0559C427.705 38.4812 428.321 39.0459 428.747 39.7499V33.3699H430.771V49.6499H428.747V47.3839C428.351 48.1026 427.764 48.6966 426.987 49.1659C426.209 49.6206 425.3 49.8479 424.259 49.8479C423.188 49.8479 422.213 49.5839 421.333 49.0559C420.467 48.5279 419.785 47.7872 419.287 46.8339C418.788 45.8806 418.539 44.7952 418.539 43.5779ZM428.747 43.5999C428.747 42.6906 428.563 41.8986 428.197 41.2239C427.83 40.5492 427.331 40.0359 426.701 39.6839C426.085 39.3172 425.403 39.1339 424.655 39.1339C423.907 39.1339 423.225 39.3099 422.609 39.6619C421.993 40.0139 421.501 40.5272 421.135 41.2019C420.768 41.8766 420.585 42.6686 420.585 43.5779C420.585 44.5019 420.768 45.3086 421.135 45.9979C421.501 46.6726 421.993 47.1932 422.609 47.5599C423.225 47.9119 423.907 48.0879 424.655 48.0879C425.403 48.0879 426.085 47.9119 426.701 47.5599C427.331 47.1932 427.83 46.6726 428.197 45.9979C428.563 45.3086 428.747 44.5092 428.747 43.5999ZM445.154 43.1599C445.154 43.5412 445.132 43.9446 445.088 44.3699H435.452C435.525 45.5579 435.929 46.4892 436.662 47.1639C437.41 47.8239 438.312 48.1539 439.368 48.1539C440.233 48.1539 440.952 47.9559 441.524 47.5599C442.111 47.1492 442.521 46.6066 442.756 45.9319H444.912C444.589 47.0906 443.944 48.0366 442.976 48.7699C442.008 49.4886 440.805 49.8479 439.368 49.8479C438.224 49.8479 437.197 49.5912 436.288 49.0779C435.393 48.5646 434.689 47.8386 434.176 46.8999C433.663 45.9466 433.406 44.8466 433.406 43.5999C433.406 42.3532 433.655 41.2606 434.154 40.3219C434.653 39.3832 435.349 38.6646 436.244 38.1659C437.153 37.6526 438.195 37.3959 439.368 37.3959C440.512 37.3959 441.524 37.6452 442.404 38.1439C443.284 38.6426 443.959 39.3319 444.428 40.2119C444.912 41.0772 445.154 42.0599 445.154 43.1599ZM443.086 42.7419C443.086 41.9792 442.917 41.3266 442.58 40.7839C442.243 40.2266 441.781 39.8086 441.194 39.5299C440.622 39.2366 439.984 39.0899 439.28 39.0899C438.268 39.0899 437.403 39.4126 436.684 40.0579C435.98 40.7032 435.577 41.5979 435.474 42.7419H443.086ZM453.671 37.3739C455.137 37.3739 456.325 37.8212 457.235 38.7159C458.144 39.5959 458.599 40.8719 458.599 42.5439V49.6499H456.619V42.8299C456.619 41.6272 456.318 40.7106 455.717 40.0799C455.115 39.4346 454.294 39.1119 453.253 39.1119C452.197 39.1119 451.353 39.4419 450.723 40.1019C450.107 40.7619 449.799 41.7226 449.799 42.9839V49.6499H447.797V37.5939H449.799V39.3099C450.195 38.6939 450.73 38.2172 451.405 37.8799C452.094 37.5426 452.849 37.3739 453.671 37.3739ZM461.121 43.5999C461.121 42.3532 461.37 41.2679 461.869 40.3439C462.367 39.4052 463.057 38.6792 463.937 38.1659C464.831 37.6526 465.851 37.3959 466.995 37.3959C468.476 37.3959 469.693 37.7552 470.647 38.4739C471.615 39.1926 472.253 40.1899 472.561 41.4659H470.405C470.199 40.7326 469.796 40.1532 469.195 39.7279C468.608 39.3026 467.875 39.0899 466.995 39.0899C465.851 39.0899 464.927 39.4859 464.223 40.2779C463.519 41.0552 463.167 42.1626 463.167 43.5999C463.167 45.0519 463.519 46.1739 464.223 46.9659C464.927 47.7579 465.851 48.1539 466.995 48.1539C467.875 48.1539 468.608 47.9486 469.195 47.5379C469.781 47.1272 470.185 46.5406 470.405 45.7779H472.561C472.238 47.0099 471.593 47.9999 470.625 48.7479C469.657 49.4812 468.447 49.8479 466.995 49.8479C465.851 49.8479 464.831 49.5912 463.937 49.0779C463.057 48.5646 462.367 47.8386 461.869 46.8999C461.37 45.9612 461.121 44.8612 461.121 43.5999ZM486.232 43.1599C486.232 43.5412 486.21 43.9446 486.166 44.3699H476.53C476.603 45.5579 477.007 46.4892 477.74 47.1639C478.488 47.8239 479.39 48.1539 480.446 48.1539C481.311 48.1539 482.03 47.9559 482.602 47.5599C483.189 47.1492 483.599 46.6066 483.834 45.9319H485.99C485.667 47.0906 485.022 48.0366 484.054 48.7699C483.086 49.4886 481.883 49.8479 480.446 49.8479C479.302 49.8479 478.275 49.5912 477.366 49.0779C476.471 48.5646 475.767 47.8386 475.254 46.8999C474.741 45.9466 474.484 44.8466 474.484 43.5999C474.484 42.3532 474.733 41.2606 475.232 40.3219C475.731 39.3832 476.427 38.6646 477.322 38.1659C478.231 37.6526 479.273 37.3959 480.446 37.3959C481.59 37.3959 482.602 37.6452 483.482 38.1439C484.362 38.6426 485.037 39.3319 485.506 40.2119C485.99 41.0772 486.232 42.0599 486.232 43.1599ZM484.164 42.7419C484.164 41.9792 483.995 41.3266 483.658 40.7839C483.321 40.2266 482.859 39.8086 482.272 39.5299C481.7 39.2366 481.062 39.0899 480.358 39.0899C479.346 39.0899 478.481 39.4126 477.762 40.0579C477.058 40.7032 476.655 41.5979 476.552 42.7419H484.164ZM490.943 46.8779L488.479 52.7959H487.137L488.743 46.8779H490.943ZM509.485 37.5939L502.225 55.3259H500.157L502.533 49.5179L497.671 37.5939H499.893L503.677 47.3619L507.417 37.5939H509.485ZM522.498 43.1599C522.498 43.5412 522.476 43.9446 522.432 44.3699H512.796C512.869 45.5579 513.272 46.4892 514.006 47.1639C514.754 47.8239 515.656 48.1539 516.712 48.1539C517.577 48.1539 518.296 47.9559 518.868 47.5599C519.454 47.1492 519.865 46.6066 520.1 45.9319H522.256C521.933 47.0906 521.288 48.0366 520.32 48.7699C519.352 49.4886 518.149 49.8479 516.712 49.8479C515.568 49.8479 514.541 49.5912 513.632 49.0779C512.737 48.5646 512.033 47.8386 511.52 46.8999C511.006 45.9466 510.75 44.8466 510.75 43.5999C510.75 42.3532 510.999 41.2606 511.498 40.3219C511.996 39.3832 512.693 38.6646 513.588 38.1659C514.497 37.6526 515.538 37.3959 516.712 37.3959C517.856 37.3959 518.868 37.6452 519.748 38.1439C520.628 38.6426 521.302 39.3319 521.772 40.2119C522.256 41.0772 522.498 42.0599 522.498 43.1599ZM520.43 42.7419C520.43 41.9792 520.261 41.3266 519.924 40.7839C519.586 40.2266 519.124 39.8086 518.538 39.5299C517.966 39.2366 517.328 39.0899 516.624 39.0899C515.612 39.0899 514.746 39.4126 514.028 40.0579C513.324 40.7032 512.92 41.5979 512.818 42.7419H520.43ZM527.582 39.2439V46.3499C527.582 46.9366 527.707 47.3546 527.956 47.6039C528.206 47.8386 528.638 47.9559 529.254 47.9559H530.728V49.6499H528.924C527.81 49.6499 526.974 49.3932 526.416 48.8799C525.859 48.3666 525.58 47.5232 525.58 46.3499V39.2439H524.018V37.5939H525.58V34.5579H527.582V37.5939H530.728V39.2439H527.582ZM81.7061 82.8479C80.7821 82.8479 79.9534 82.6939 79.2201 82.3859C78.4868 82.0632 77.9074 81.6232 77.4821 81.0659C77.0568 80.4939 76.8221 79.8412 76.7781 79.1079H78.8461C78.9048 79.7092 79.1834 80.2006 79.6821 80.5819C80.1954 80.9632 80.8628 81.1539 81.6841 81.1539C82.4468 81.1539 83.0481 80.9852 83.4881 80.6479C83.9281 80.3106 84.1481 79.8852 84.1481 79.3719C84.1481 78.8439 83.9134 78.4552 83.4441 78.2059C82.9748 77.9419 82.2488 77.6852 81.2661 77.4359C80.3714 77.2012 79.6381 76.9666 79.0661 76.7319C78.5088 76.4826 78.0248 76.1232 77.6141 75.6539C77.2181 75.1699 77.0201 74.5392 77.0201 73.7619C77.0201 73.1459 77.2034 72.5812 77.5701 72.0679C77.9368 71.5546 78.4574 71.1512 79.1321 70.8579C79.8068 70.5499 80.5768 70.3959 81.4421 70.3959C82.7768 70.3959 83.8548 70.7332 84.6761 71.4079C85.4974 72.0826 85.9374 73.0066 85.9961 74.1799H83.9941C83.9501 73.5492 83.6934 73.0432 83.2241 72.6619C82.7694 72.2806 82.1534 72.0899 81.3761 72.0899C80.6574 72.0899 80.0854 72.2439 79.6601 72.5519C79.2348 72.8599 79.0221 73.2632 79.0221 73.7619C79.0221 74.1579 79.1468 74.4879 79.3961 74.7519C79.6601 75.0012 79.9828 75.2066 80.3641 75.3679C80.7601 75.5146 81.3028 75.6832 81.9921 75.8739C82.8574 76.1086 83.5614 76.3432 84.1041 76.5779C84.6468 76.7979 85.1088 77.1352 85.4901 77.5899C85.8861 78.0446 86.0914 78.6386 86.1061 79.3719C86.1061 80.0319 85.9228 80.6259 85.5561 81.1539C85.1894 81.6819 84.6688 82.0999 83.9941 82.4079C83.3341 82.7012 82.5714 82.8479 81.7061 82.8479ZM94.9163 70.3739C95.8256 70.3739 96.6469 70.5719 97.3803 70.9679C98.1136 71.3492 98.6856 71.9286 99.0963 72.7059C99.5216 73.4832 99.7343 74.4292 99.7343 75.5439V82.6499H97.7543V75.8299C97.7543 74.6272 97.4536 73.7106 96.8523 73.0799C96.2509 72.4346 95.4296 72.1119 94.3883 72.1119C93.3323 72.1119 92.4889 72.4419 91.8583 73.1019C91.2423 73.7619 90.9343 74.7226 90.9343 75.9839V82.6499H88.9323V66.3699H90.9343V72.3099C91.3303 71.6939 91.8729 71.2172 92.5623 70.8799C93.2663 70.5426 94.0509 70.3739 94.9163 70.3739ZM114.005 76.1599C114.005 76.5412 113.983 76.9446 113.939 77.3699H104.303C104.376 78.5579 104.779 79.4892 105.513 80.1639C106.261 80.8239 107.163 81.1539 108.219 81.1539C109.084 81.1539 109.803 80.9559 110.375 80.5599C110.961 80.1492 111.372 79.6066 111.607 78.9319H113.763C113.44 80.0906 112.795 81.0366 111.827 81.7699C110.859 82.4886 109.656 82.8479 108.219 82.8479C107.075 82.8479 106.048 82.5912 105.139 82.0779C104.244 81.5646 103.54 80.8386 103.027 79.8999C102.513 78.9466 102.257 77.8466 102.257 76.5999C102.257 75.3532 102.506 74.2606 103.005 73.3219C103.503 72.3832 104.2 71.6646 105.095 71.1659C106.004 70.6526 107.045 70.3959 108.219 70.3959C109.363 70.3959 110.375 70.6452 111.255 71.1439C112.135 71.6426 112.809 72.3319 113.279 73.2119C113.763 74.0772 114.005 75.0599 114.005 76.1599ZM111.937 75.7419C111.937 74.9792 111.768 74.3266 111.431 73.7839C111.093 73.2266 110.631 72.8086 110.045 72.5299C109.473 72.2366 108.835 72.0899 108.131 72.0899C107.119 72.0899 106.253 72.4126 105.535 73.0579C104.831 73.7032 104.427 74.5979 104.325 75.7419H111.937ZM138.572 70.5939L134.81 82.6499H132.742L129.838 73.0799L126.934 82.6499H124.866L121.082 70.5939H123.128L125.9 80.7139L128.892 70.5939H130.938L133.864 80.7359L136.592 70.5939H138.572ZM139.811 76.5779C139.811 75.3459 140.061 74.2679 140.559 73.3439C141.058 72.4052 141.74 71.6792 142.605 71.1659C143.485 70.6526 144.461 70.3959 145.531 70.3959C146.587 70.3959 147.504 70.6232 148.281 71.0779C149.059 71.5326 149.638 72.1046 150.019 72.7939V70.5939H152.043V82.6499H150.019V80.4059C149.623 81.1099 149.029 81.6966 148.237 82.1659C147.46 82.6206 146.551 82.8479 145.509 82.8479C144.439 82.8479 143.471 82.5839 142.605 82.0559C141.74 81.5279 141.058 80.7872 140.559 79.8339C140.061 78.8806 139.811 77.7952 139.811 76.5779ZM150.019 76.5999C150.019 75.6906 149.836 74.8986 149.469 74.2239C149.103 73.5492 148.604 73.0359 147.973 72.6839C147.357 72.3172 146.675 72.1339 145.927 72.1339C145.179 72.1339 144.497 72.3099 143.881 72.6619C143.265 73.0139 142.774 73.5272 142.407 74.2019C142.041 74.8766 141.857 75.6686 141.857 76.5779C141.857 77.5019 142.041 78.3086 142.407 78.9979C142.774 79.6726 143.265 80.1932 143.881 80.5599C144.497 80.9119 145.179 81.0879 145.927 81.0879C146.675 81.0879 147.357 80.9119 147.973 80.5599C148.604 80.1932 149.103 79.6726 149.469 78.9979C149.836 78.3086 150.019 77.5092 150.019 76.5999ZM159.694 82.8479C158.77 82.8479 157.942 82.6939 157.208 82.3859C156.475 82.0632 155.896 81.6232 155.47 81.0659C155.045 80.4939 154.81 79.8412 154.766 79.1079H156.834C156.893 79.7092 157.172 80.2006 157.67 80.5819C158.184 80.9632 158.851 81.1539 159.672 81.1539C160.435 81.1539 161.036 80.9852 161.476 80.6479C161.916 80.3106 162.136 79.8852 162.136 79.3719C162.136 78.8439 161.902 78.4552 161.432 78.2059C160.963 77.9419 160.237 77.6852 159.254 77.4359C158.36 77.2012 157.626 76.9666 157.054 76.7319C156.497 76.4826 156.013 76.1232 155.602 75.6539C155.206 75.1699 155.008 74.5392 155.008 73.7619C155.008 73.1459 155.192 72.5812 155.558 72.0679C155.925 71.5546 156.446 71.1512 157.12 70.8579C157.795 70.5499 158.565 70.3959 159.43 70.3959C160.765 70.3959 161.843 70.7332 162.664 71.4079C163.486 72.0826 163.926 73.0066 163.984 74.1799H161.982C161.938 73.5492 161.682 73.0432 161.212 72.6619C160.758 72.2806 160.142 72.0899 159.364 72.0899C158.646 72.0899 158.074 72.2439 157.648 72.5519C157.223 72.8599 157.01 73.2632 157.01 73.7619C157.01 74.1579 157.135 74.4879 157.384 74.7519C157.648 75.0012 157.971 75.2066 158.352 75.3679C158.748 75.5146 159.291 75.6832 159.98 75.8739C160.846 76.1086 161.55 76.3432 162.092 76.5779C162.635 76.7979 163.097 77.1352 163.478 77.5899C163.874 78.0446 164.08 78.6386 164.094 79.3719C164.094 80.0319 163.911 80.6259 163.544 81.1539C163.178 81.6819 162.657 82.0999 161.982 82.4079C161.322 82.7012 160.56 82.8479 159.694 82.8479ZM174.788 72.5519C175.14 71.8626 175.638 71.3272 176.284 70.9459C176.944 70.5646 177.743 70.3739 178.682 70.3739V72.4419H178.154C175.91 72.4419 174.788 73.6592 174.788 76.0939V82.6499H172.786V70.5939H174.788V72.5519ZM191.993 76.1599C191.993 76.5412 191.971 76.9446 191.927 77.3699H182.291C182.364 78.5579 182.767 79.4892 183.501 80.1639C184.249 80.8239 185.151 81.1539 186.207 81.1539C187.072 81.1539 187.791 80.9559 188.363 80.5599C188.949 80.1492 189.36 79.6066 189.595 78.9319H191.751C191.428 80.0906 190.783 81.0366 189.815 81.7699C188.847 82.4886 187.644 82.8479 186.207 82.8479C185.063 82.8479 184.036 82.5912 183.127 82.0779C182.232 81.5646 181.528 80.8386 181.015 79.8999C180.501 78.9466 180.245 77.8466 180.245 76.5999C180.245 75.3532 180.494 74.2606 180.993 73.3219C181.491 72.3832 182.188 71.6646 183.083 71.1659C183.992 70.6526 185.033 70.3959 186.207 70.3959C187.351 70.3959 188.363 70.6452 189.243 71.1439C190.123 71.6426 190.797 72.3319 191.267 73.2119C191.751 74.0772 191.993 75.0599 191.993 76.1599ZM189.925 75.7419C189.925 74.9792 189.756 74.3266 189.419 73.7839C189.081 73.2266 188.619 72.8086 188.033 72.5299C187.461 72.2366 186.823 72.0899 186.119 72.0899C185.107 72.0899 184.241 72.4126 183.523 73.0579C182.819 73.7032 182.415 74.5979 182.313 75.7419H189.925ZM193.887 76.5999C193.887 75.3532 194.137 74.2679 194.635 73.3439C195.134 72.4052 195.823 71.6792 196.703 71.1659C197.598 70.6526 198.617 70.3959 199.761 70.3959C201.243 70.3959 202.46 70.7552 203.413 71.4739C204.381 72.1926 205.019 73.1899 205.327 74.4659H203.171C202.966 73.7326 202.563 73.1532 201.961 72.7279C201.375 72.3026 200.641 72.0899 199.761 72.0899C198.617 72.0899 197.693 72.4859 196.989 73.2779C196.285 74.0552 195.933 75.1626 195.933 76.5999C195.933 78.0519 196.285 79.1739 196.989 79.9659C197.693 80.7579 198.617 81.1539 199.761 81.1539C200.641 81.1539 201.375 80.9486 201.961 80.5379C202.548 80.1272 202.951 79.5406 203.171 78.7779H205.327C205.005 80.0099 204.359 80.9999 203.391 81.7479C202.423 82.4812 201.213 82.8479 199.761 82.8479C198.617 82.8479 197.598 82.5912 196.703 82.0779C195.823 81.5646 195.134 80.8386 194.635 79.8999C194.137 78.9612 193.887 77.8612 193.887 76.5999ZM218.999 76.1599C218.999 76.5412 218.977 76.9446 218.933 77.3699H209.297C209.37 78.5579 209.773 79.4892 210.507 80.1639C211.255 80.8239 212.157 81.1539 213.213 81.1539C214.078 81.1539 214.797 80.9559 215.369 80.5599C215.955 80.1492 216.366 79.6066 216.601 78.9319H218.757C218.434 80.0906 217.789 81.0366 216.821 81.7699C215.853 82.4886 214.65 82.8479 213.213 82.8479C212.069 82.8479 211.042 82.5912 210.133 82.0779C209.238 81.5646 208.534 80.8386 208.021 79.8999C207.507 78.9466 207.251 77.8466 207.251 76.5999C207.251 75.3532 207.5 74.2606 207.999 73.3219C208.497 72.3832 209.194 71.6646 210.089 71.1659C210.998 70.6526 212.039 70.3959 213.213 70.3959C214.357 70.3959 215.369 70.6452 216.249 71.1439C217.129 71.6426 217.803 72.3319 218.273 73.2119C218.757 74.0772 218.999 75.0599 218.999 76.1599ZM216.931 75.7419C216.931 74.9792 216.762 74.3266 216.425 73.7839C216.087 73.2266 215.625 72.8086 215.039 72.5299C214.467 72.2366 213.829 72.0899 213.125 72.0899C212.113 72.0899 211.247 72.4126 210.529 73.0579C209.825 73.7032 209.421 74.5979 209.319 75.7419H216.931ZM227.515 70.3739C228.982 70.3739 230.17 70.8212 231.079 71.7159C231.989 72.5959 232.443 73.8719 232.443 75.5439V82.6499H230.463V75.8299C230.463 74.6272 230.163 73.7106 229.561 73.0799C228.96 72.4346 228.139 72.1119 227.097 72.1119C226.041 72.1119 225.198 72.4419 224.567 73.1019C223.951 73.7619 223.643 74.7226 223.643 75.9839V82.6499H221.641V70.5939H223.643V72.3099C224.039 71.6939 224.575 71.2172 225.249 70.8799C225.939 70.5426 226.694 70.3739 227.515 70.3739ZM238.156 72.2439V79.3499C238.156 79.9366 238.28 80.3546 238.53 80.6039C238.779 80.8386 239.212 80.9559 239.828 80.9559H241.302V82.6499H239.498C238.383 82.6499 237.547 82.3932 236.99 81.8799C236.432 81.3666 236.154 80.5232 236.154 79.3499V72.2439H234.592V70.5939H236.154V67.5579H238.156V70.5939H241.302V72.2439H238.156ZM245.729 66.3699V82.6499H243.727V66.3699H245.729ZM259.525 70.5939L252.265 88.3259H250.197L252.573 82.5179L247.711 70.5939H249.933L253.717 80.3619L257.457 70.5939H259.525ZM273.387 70.3739C274.296 70.3739 275.118 70.5719 275.851 70.9679C276.584 71.3492 277.156 71.9286 277.567 72.7059C277.992 73.4832 278.205 74.4292 278.205 75.5439V82.6499H276.225V75.8299C276.225 74.6272 275.924 73.7106 275.323 73.0799C274.722 72.4346 273.9 72.1119 272.859 72.1119C271.803 72.1119 270.96 72.4419 270.329 73.1019C269.713 73.7619 269.405 74.7226 269.405 75.9839V82.6499H267.403V66.3699H269.405V72.3099C269.801 71.6939 270.344 71.2172 271.033 70.8799C271.737 70.5426 272.522 70.3739 273.387 70.3739ZM286.733 82.8479C285.604 82.8479 284.577 82.5912 283.653 82.0779C282.744 81.5646 282.025 80.8386 281.497 79.8999C280.984 78.9466 280.727 77.8466 280.727 76.5999C280.727 75.3679 280.991 74.2826 281.519 73.3439C282.062 72.3906 282.795 71.6646 283.719 71.1659C284.643 70.6526 285.677 70.3959 286.821 70.3959C287.965 70.3959 288.999 70.6526 289.923 71.1659C290.847 71.6646 291.573 72.3832 292.101 73.3219C292.644 74.2606 292.915 75.3532 292.915 76.5999C292.915 77.8466 292.637 78.9466 292.079 79.8999C291.537 80.8386 290.796 81.5646 289.857 82.0779C288.919 82.5912 287.877 82.8479 286.733 82.8479ZM286.733 81.0879C287.452 81.0879 288.127 80.9192 288.757 80.5819C289.388 80.2446 289.894 79.7386 290.275 79.0639C290.671 78.3892 290.869 77.5679 290.869 76.5999C290.869 75.6319 290.679 74.8106 290.297 74.1359C289.916 73.4612 289.417 72.9626 288.801 72.6399C288.185 72.3026 287.518 72.1339 286.799 72.1339C286.066 72.1339 285.391 72.3026 284.775 72.6399C284.174 72.9626 283.69 73.4612 283.323 74.1359C282.957 74.8106 282.773 75.6319 282.773 76.5999C282.773 77.5826 282.949 78.4112 283.301 79.0859C283.668 79.7606 284.152 80.2666 284.753 80.6039C285.355 80.9266 286.015 81.0879 286.733 81.0879ZM301.421 70.3739C302.888 70.3739 304.076 70.8212 304.985 71.7159C305.895 72.5959 306.349 73.8719 306.349 75.5439V82.6499H304.369V75.8299C304.369 74.6272 304.069 73.7106 303.467 73.0799C302.866 72.4346 302.045 72.1119 301.003 72.1119C299.947 72.1119 299.104 72.4419 298.473 73.1019C297.857 73.7619 297.549 74.7226 297.549 75.9839V82.6499H295.547V70.5939H297.549V72.3099C297.945 71.6939 298.481 71.2172 299.155 70.8799C299.845 70.5426 300.6 70.3739 301.421 70.3739ZM314.878 82.8479C313.748 82.8479 312.722 82.5912 311.798 82.0779C310.888 81.5646 310.17 80.8386 309.642 79.8999C309.128 78.9466 308.872 77.8466 308.872 76.5999C308.872 75.3679 309.136 74.2826 309.664 73.3439C310.206 72.3906 310.94 71.6646 311.864 71.1659C312.788 70.6526 313.822 70.3959 314.966 70.3959C316.11 70.3959 317.144 70.6526 318.068 71.1659C318.992 71.6646 319.718 72.3832 320.246 73.3219C320.788 74.2606 321.06 75.3532 321.06 76.5999C321.06 77.8466 320.781 78.9466 320.224 79.8999C319.681 80.8386 318.94 81.5646 318.002 82.0779C317.063 82.5912 316.022 82.8479 314.878 82.8479ZM314.878 81.0879C315.596 81.0879 316.271 80.9192 316.902 80.5819C317.532 80.2446 318.038 79.7386 318.42 79.0639C318.816 78.3892 319.014 77.5679 319.014 76.5999C319.014 75.6319 318.823 74.8106 318.442 74.1359C318.06 73.4612 317.562 72.9626 316.946 72.6399C316.33 72.3026 315.662 72.1339 314.944 72.1339C314.21 72.1339 313.536 72.3026 312.92 72.6399C312.318 72.9626 311.834 73.4612 311.468 74.1359C311.101 74.8106 310.918 75.6319 310.918 76.5999C310.918 77.5826 311.094 78.4112 311.446 79.0859C311.812 79.7606 312.296 80.2666 312.898 80.6039C313.499 80.9266 314.159 81.0879 314.878 81.0879ZM325.694 72.5519C326.046 71.8626 326.545 71.3272 327.19 70.9459C327.85 70.5646 328.649 70.3739 329.588 70.3739V72.4419H329.06C326.816 72.4419 325.694 73.6592 325.694 76.0939V82.6499H323.692V70.5939H325.694V72.5519ZM342.899 76.1599C342.899 76.5412 342.877 76.9446 342.833 77.3699H333.197C333.27 78.5579 333.674 79.4892 334.407 80.1639C335.155 80.8239 336.057 81.1539 337.113 81.1539C337.978 81.1539 338.697 80.9559 339.269 80.5599C339.856 80.1492 340.266 79.6066 340.501 78.9319H342.657C342.334 80.0906 341.689 81.0366 340.721 81.7699C339.753 82.4886 338.55 82.8479 337.113 82.8479C335.969 82.8479 334.942 82.5912 334.033 82.0779C333.138 81.5646 332.434 80.8386 331.921 79.8999C331.408 78.9466 331.151 77.8466 331.151 76.5999C331.151 75.3532 331.4 74.2606 331.899 73.3219C332.398 72.3832 333.094 71.6646 333.989 71.1659C334.898 70.6526 335.94 70.3959 337.113 70.3959C338.257 70.3959 339.269 70.6452 340.149 71.1439C341.029 71.6426 341.704 72.3319 342.173 73.2119C342.657 74.0772 342.899 75.0599 342.899 76.1599ZM340.831 75.7419C340.831 74.9792 340.662 74.3266 340.325 73.7839C339.988 73.2266 339.526 72.8086 338.939 72.5299C338.367 72.2366 337.729 72.0899 337.025 72.0899C336.013 72.0899 335.148 72.4126 334.429 73.0579C333.725 73.7032 333.322 74.5979 333.219 75.7419H340.831ZM344.794 76.5779C344.794 75.3459 345.043 74.2679 345.542 73.3439C346.04 72.4052 346.722 71.6792 347.588 71.1659C348.468 70.6526 349.45 70.3959 350.536 70.3959C351.474 70.3959 352.347 70.6159 353.154 71.0559C353.96 71.4812 354.576 72.0459 355.002 72.7499V66.3699H357.026V82.6499H355.002V80.3839C354.606 81.1026 354.019 81.6966 353.242 82.1659C352.464 82.6206 351.555 82.8479 350.514 82.8479C349.443 82.8479 348.468 82.5839 347.588 82.0559C346.722 81.5279 346.04 80.7872 345.542 79.8339C345.043 78.8806 344.794 77.7952 344.794 76.5779ZM355.002 76.5999C355.002 75.6906 354.818 74.8986 354.452 74.2239C354.085 73.5492 353.586 73.0359 352.956 72.6839C352.34 72.3172 351.658 72.1339 350.91 72.1339C350.162 72.1339 349.48 72.3099 348.864 72.6619C348.248 73.0139 347.756 73.5272 347.39 74.2019C347.023 74.8766 346.84 75.6686 346.84 76.5779C346.84 77.5019 347.023 78.3086 347.39 78.9979C347.756 79.6726 348.248 80.1932 348.864 80.5599C349.48 80.9119 350.162 81.0879 350.91 81.0879C351.658 81.0879 352.34 80.9119 352.956 80.5599C353.586 80.1932 354.085 79.6726 354.452 78.9979C354.818 78.3086 355.002 77.5092 355.002 76.5999ZM367.308 68.6359C366.927 68.6359 366.604 68.5039 366.34 68.2399C366.076 67.9759 365.944 67.6532 365.944 67.2719C365.944 66.8906 366.076 66.5679 366.34 66.3039C366.604 66.0399 366.927 65.9079 367.308 65.9079C367.675 65.9079 367.983 66.0399 368.232 66.3039C368.496 66.5679 368.628 66.8906 368.628 67.2719C368.628 67.6532 368.496 67.9759 368.232 68.2399C367.983 68.5039 367.675 68.6359 367.308 68.6359ZM368.276 70.5939V82.6499H366.274V70.5939H368.276ZM377.562 70.3739C379.029 70.3739 380.217 70.8212 381.126 71.7159C382.035 72.5959 382.49 73.8719 382.49 75.5439V82.6499H380.51V75.8299C380.51 74.6272 380.209 73.7106 379.608 73.0799C379.007 72.4346 378.185 72.1119 377.144 72.1119C376.088 72.1119 375.245 72.4419 374.614 73.1019C373.998 73.7619 373.69 74.7226 373.69 75.9839V82.6499H371.688V70.5939H373.69V72.3099C374.086 71.6939 374.621 71.2172 375.296 70.8799C375.985 70.5426 376.741 70.3739 377.562 70.3739ZM394.068 72.2439V79.3499C394.068 79.9366 394.192 80.3546 394.442 80.6039C394.691 80.8386 395.124 80.9559 395.74 80.9559H397.214V82.6499H395.41C394.295 82.6499 393.459 82.3932 392.902 81.8799C392.344 81.3666 392.066 80.5232 392.066 79.3499V72.2439H390.504V70.5939H392.066V67.5579H394.068V70.5939H397.214V72.2439H394.068ZM405.623 70.3739C406.533 70.3739 407.354 70.5719 408.087 70.9679C408.821 71.3492 409.393 71.9286 409.803 72.7059C410.229 73.4832 410.441 74.4292 410.441 75.5439V82.6499H408.461V75.8299C408.461 74.6272 408.161 73.7106 407.559 73.0799C406.958 72.4346 406.137 72.1119 405.095 72.1119C404.039 72.1119 403.196 72.4419 402.565 73.1019C401.949 73.7619 401.641 74.7226 401.641 75.9839V82.6499H399.639V66.3699H401.641V72.3099C402.037 71.6939 402.58 71.2172 403.269 70.8799C403.973 70.5426 404.758 70.3739 405.623 70.3739ZM424.712 76.1599C424.712 76.5412 424.69 76.9446 424.646 77.3699H415.01C415.083 78.5579 415.486 79.4892 416.22 80.1639C416.968 80.8239 417.87 81.1539 418.926 81.1539C419.791 81.1539 420.51 80.9559 421.082 80.5599C421.668 80.1492 422.079 79.6066 422.314 78.9319H424.47C424.147 80.0906 423.502 81.0366 422.534 81.7699C421.566 82.4886 420.363 82.8479 418.926 82.8479C417.782 82.8479 416.755 82.5912 415.846 82.0779C414.951 81.5646 414.247 80.8386 413.734 79.8999C413.22 78.9466 412.964 77.8466 412.964 76.5999C412.964 75.3532 413.213 74.2606 413.712 73.3219C414.21 72.3832 414.907 71.6646 415.802 71.1659C416.711 70.6526 417.752 70.3959 418.926 70.3959C420.07 70.3959 421.082 70.6452 421.962 71.1439C422.842 71.6426 423.516 72.3319 423.986 73.2119C424.47 74.0772 424.712 75.0599 424.712 76.1599ZM422.644 75.7419C422.644 74.9792 422.475 74.3266 422.138 73.7839C421.8 73.2266 421.338 72.8086 420.752 72.5299C420.18 72.2366 419.542 72.0899 418.838 72.0899C417.826 72.0899 416.96 72.4126 416.242 73.0579C415.538 73.7032 415.134 74.5979 415.032 75.7419H422.644ZM440.897 74.7519C441.455 74.8399 441.961 75.0672 442.415 75.4339C442.885 75.8006 443.251 76.2552 443.515 76.7979C443.794 77.3406 443.933 77.9199 443.933 78.5359C443.933 79.3132 443.735 80.0172 443.339 80.6479C442.943 81.2639 442.364 81.7552 441.601 82.1219C440.853 82.4739 439.966 82.6499 438.939 82.6499H433.219V67.3159H438.719C439.761 67.3159 440.648 67.4919 441.381 67.8439C442.115 68.1812 442.665 68.6432 443.031 69.2299C443.398 69.8166 443.581 70.4766 443.581 71.2099C443.581 72.1192 443.332 72.8746 442.833 73.4759C442.349 74.0626 441.704 74.4879 440.897 74.7519ZM435.221 73.9379H438.587C439.526 73.9379 440.252 73.7179 440.765 73.2779C441.279 72.8379 441.535 72.2292 441.535 71.4519C441.535 70.6746 441.279 70.0659 440.765 69.6259C440.252 69.1859 439.511 68.9659 438.543 68.9659H435.221V73.9379ZM438.763 80.9999C439.761 80.9999 440.538 80.7652 441.095 80.2959C441.653 79.8266 441.931 79.1739 441.931 78.3379C441.931 77.4872 441.638 76.8199 441.051 76.3359C440.465 75.8372 439.68 75.5879 438.697 75.5879H435.221V80.9999H438.763ZM451.97 82.8479C450.84 82.8479 449.814 82.5912 448.89 82.0779C447.98 81.5646 447.262 80.8386 446.734 79.8999C446.22 78.9466 445.964 77.8466 445.964 76.5999C445.964 75.3679 446.228 74.2826 446.756 73.3439C447.298 72.3906 448.032 71.6646 448.956 71.1659C449.88 70.6526 450.914 70.3959 452.058 70.3959C453.202 70.3959 454.236 70.6526 455.16 71.1659C456.084 71.6646 456.81 72.3832 457.338 73.3219C457.88 74.2606 458.152 75.3532 458.152 76.5999C458.152 77.8466 457.873 78.9466 457.316 79.8999C456.773 80.8386 456.032 81.5646 455.094 82.0779C454.155 82.5912 453.114 82.8479 451.97 82.8479ZM451.97 81.0879C452.688 81.0879 453.363 80.9192 453.994 80.5819C454.624 80.2446 455.13 79.7386 455.512 79.0639C455.908 78.3892 456.106 77.5679 456.106 76.5999C456.106 75.6319 455.915 74.8106 455.534 74.1359C455.152 73.4612 454.654 72.9626 454.038 72.6399C453.422 72.3026 452.754 72.1339 452.036 72.1339C451.302 72.1339 450.628 72.3026 450.012 72.6399C449.41 72.9626 448.926 73.4612 448.56 74.1359C448.193 74.8106 448.01 75.6319 448.01 76.5999C448.01 77.5826 448.186 78.4112 448.538 79.0859C448.904 79.7606 449.388 80.2666 449.99 80.6039C450.591 80.9266 451.251 81.0879 451.97 81.0879ZM466.042 82.8479C464.912 82.8479 463.886 82.5912 462.962 82.0779C462.052 81.5646 461.334 80.8386 460.806 79.8999C460.292 78.9466 460.036 77.8466 460.036 76.5999C460.036 75.3679 460.3 74.2826 460.828 73.3439C461.37 72.3906 462.104 71.6646 463.028 71.1659C463.952 70.6526 464.986 70.3959 466.13 70.3959C467.274 70.3959 468.308 70.6526 469.232 71.1659C470.156 71.6646 470.882 72.3832 471.41 73.3219C471.952 74.2606 472.224 75.3532 472.224 76.5999C472.224 77.8466 471.945 78.9466 471.388 79.8999C470.845 80.8386 470.104 81.5646 469.166 82.0779C468.227 82.5912 467.186 82.8479 466.042 82.8479ZM466.042 81.0879C466.76 81.0879 467.435 80.9192 468.066 80.5819C468.696 80.2446 469.202 79.7386 469.584 79.0639C469.98 78.3892 470.178 77.5679 470.178 76.5999C470.178 75.6319 469.987 74.8106 469.606 74.1359C469.224 73.4612 468.726 72.9626 468.11 72.6399C467.494 72.3026 466.826 72.1339 466.108 72.1339C465.374 72.1339 464.7 72.3026 464.084 72.6399C463.482 72.9626 462.998 73.4612 462.632 74.1359C462.265 74.8106 462.082 75.6319 462.082 76.5999C462.082 77.5826 462.258 78.4112 462.61 79.0859C462.976 79.7606 463.46 80.2666 464.062 80.6039C464.663 80.9266 465.323 81.0879 466.042 81.0879ZM481.588 82.6499L476.858 77.3259V82.6499H474.856V66.3699H476.858V75.9399L481.5 70.5939H484.294L478.618 76.5999L484.316 82.6499H481.588ZM497.302 82.8479C496.172 82.8479 495.146 82.5912 494.222 82.0779C493.312 81.5646 492.594 80.8386 492.066 79.8999C491.552 78.9466 491.296 77.8466 491.296 76.5999C491.296 75.3679 491.56 74.2826 492.088 73.3439C492.63 72.3906 493.364 71.6646 494.288 71.1659C495.212 70.6526 496.246 70.3959 497.39 70.3959C498.534 70.3959 499.568 70.6526 500.492 71.1659C501.416 71.6646 502.142 72.3832 502.67 73.3219C503.212 74.2606 503.484 75.3532 503.484 76.5999C503.484 77.8466 503.205 78.9466 502.648 79.8999C502.105 80.8386 501.364 81.5646 500.426 82.0779C499.487 82.5912 498.446 82.8479 497.302 82.8479ZM497.302 81.0879C498.02 81.0879 498.695 80.9192 499.326 80.5819C499.956 80.2446 500.462 79.7386 500.844 79.0639C501.24 78.3892 501.438 77.5679 501.438 76.5999C501.438 75.6319 501.247 74.8106 500.866 74.1359C500.484 73.4612 499.986 72.9626 499.37 72.6399C498.754 72.3026 498.086 72.1339 497.368 72.1339C496.634 72.1339 495.96 72.3026 495.344 72.6399C494.742 72.9626 494.258 73.4612 493.892 74.1359C493.525 74.8106 493.342 75.6319 493.342 76.5999C493.342 77.5826 493.518 78.4112 493.87 79.0859C494.236 79.7606 494.72 80.2666 495.322 80.6039C495.923 80.9266 496.583 81.0879 497.302 81.0879ZM511.022 72.2439L508.492 72.2439V82.6499H506.49V72.2439H504.928V70.5939H506.49V69.7359C506.49 68.3866 506.835 67.4039 507.524 66.7879C508.228 66.1572 509.35 65.8419 510.89 65.8419V67.5139C510.01 67.5139 509.387 67.6899 509.02 68.0419C508.668 68.3792 508.492 68.9439 508.492 69.7359V70.5939L511.022 70.5939V72.2439ZM79.9709 100.316V115.65H77.9689V108.698H70.1589L70.1589 115.65H68.1569L68.1569 100.316H70.1589V107.048H77.9689V100.316H79.9709ZM94.3893 109.16C94.3893 109.541 94.3673 109.945 94.3233 110.37H84.6873C84.7606 111.558 85.1639 112.489 85.8973 113.164C86.6453 113.824 87.5473 114.154 88.6033 114.154C89.4686 114.154 90.1873 113.956 90.7593 113.56C91.3459 113.149 91.7566 112.607 91.9913 111.932H94.1473C93.8246 113.091 93.1793 114.037 92.2113 114.77C91.2433 115.489 90.0406 115.848 88.6033 115.848C87.4593 115.848 86.4326 115.591 85.5233 115.078C84.6286 114.565 83.9246 113.839 83.4113 112.9C82.8979 111.947 82.6413 110.847 82.6413 109.6C82.6413 108.353 82.8906 107.261 83.3893 106.322C83.8879 105.383 84.5846 104.665 85.4793 104.166C86.3886 103.653 87.4299 103.396 88.6033 103.396C89.7473 103.396 90.7593 103.645 91.6393 104.144C92.5193 104.643 93.1939 105.332 93.6633 106.212C94.1473 107.077 94.3893 108.06 94.3893 109.16ZM92.3213 108.742C92.3213 107.979 92.1526 107.327 91.8153 106.784C91.4779 106.227 91.0159 105.809 90.4293 105.53C89.8573 105.237 89.2193 105.09 88.5153 105.09C87.5033 105.09 86.6379 105.413 85.9193 106.058C85.2153 106.703 84.8119 107.598 84.7093 108.742H92.3213ZM99.0339 105.552C99.3859 104.863 99.8845 104.327 100.53 103.946C101.19 103.565 101.989 103.374 102.928 103.374V105.442H102.4C100.156 105.442 99.0339 106.659 99.0339 109.094V115.65H97.0319V103.594H99.0339V105.552ZM110.497 115.848C109.368 115.848 108.341 115.591 107.417 115.078C106.508 114.565 105.789 113.839 105.261 112.9C104.748 111.947 104.491 110.847 104.491 109.6C104.491 108.368 104.755 107.283 105.283 106.344C105.826 105.391 106.559 104.665 107.483 104.166C108.407 103.653 109.441 103.396 110.585 103.396C111.729 103.396 112.763 103.653 113.687 104.166C114.611 104.665 115.337 105.383 115.865 106.322C116.408 107.261 116.679 108.353 116.679 109.6C116.679 110.847 116.4 111.947 115.843 112.9C115.3 113.839 114.56 114.565 113.621 115.078C112.682 115.591 111.641 115.848 110.497 115.848ZM110.497 114.088C111.216 114.088 111.89 113.919 112.521 113.582C113.152 113.245 113.658 112.739 114.039 112.064C114.435 111.389 114.633 110.568 114.633 109.6C114.633 108.632 114.442 107.811 114.061 107.136C113.68 106.461 113.181 105.963 112.565 105.64C111.949 105.303 111.282 105.134 110.563 105.134C109.83 105.134 109.155 105.303 108.539 105.64C107.938 105.963 107.454 106.461 107.087 107.136C106.72 107.811 106.537 108.632 106.537 109.6C106.537 110.583 106.713 111.411 107.065 112.086C107.432 112.761 107.916 113.267 108.517 113.604C109.118 113.927 109.778 114.088 110.497 114.088ZM130.311 109.16C130.311 109.541 130.289 109.945 130.245 110.37H120.609C120.682 111.558 121.086 112.489 121.819 113.164C122.567 113.824 123.469 114.154 124.525 114.154C125.39 114.154 126.109 113.956 126.681 113.56C127.268 113.149 127.678 112.607 127.913 111.932H130.069C129.746 113.091 129.101 114.037 128.133 114.77C127.165 115.489 125.962 115.848 124.525 115.848C123.381 115.848 122.354 115.591 121.445 115.078C120.55 114.565 119.846 113.839 119.333 112.9C118.82 111.947 118.563 110.847 118.563 109.6C118.563 108.353 118.812 107.261 119.311 106.322C119.81 105.383 120.506 104.665 121.401 104.166C122.31 103.653 123.352 103.396 124.525 103.396C125.669 103.396 126.681 103.645 127.561 104.144C128.441 104.643 129.116 105.332 129.585 106.212C130.069 107.077 130.311 108.06 130.311 109.16ZM128.243 108.742C128.243 107.979 128.074 107.327 127.737 106.784C127.4 106.227 126.938 105.809 126.351 105.53C125.779 105.237 125.141 105.09 124.437 105.09C123.425 105.09 122.56 105.413 121.841 106.058C121.137 106.703 120.734 107.598 120.631 108.742H128.243ZM137.222 115.848C136.298 115.848 135.469 115.694 134.736 115.386C134.002 115.063 133.423 114.623 132.998 114.066C132.572 113.494 132.338 112.841 132.294 112.108H134.362C134.42 112.709 134.699 113.201 135.198 113.582C135.711 113.963 136.378 114.154 137.2 114.154C137.962 114.154 138.564 113.985 139.004 113.648C139.444 113.311 139.664 112.885 139.664 112.372C139.664 111.844 139.429 111.455 138.96 111.206C138.49 110.942 137.764 110.685 136.782 110.436C135.887 110.201 135.154 109.967 134.582 109.732C134.024 109.483 133.54 109.123 133.13 108.654C132.734 108.17 132.536 107.539 132.536 106.762C132.536 106.146 132.719 105.581 133.086 105.068C133.452 104.555 133.973 104.151 134.648 103.858C135.322 103.55 136.092 103.396 136.958 103.396C138.292 103.396 139.37 103.733 140.192 104.408C141.013 105.083 141.453 106.007 141.512 107.18H139.51C139.466 106.549 139.209 106.043 138.74 105.662C138.285 105.281 137.669 105.09 136.892 105.09C136.173 105.09 135.601 105.244 135.176 105.552C134.75 105.86 134.538 106.263 134.538 106.762C134.538 107.158 134.662 107.488 134.912 107.752C135.176 108.001 135.498 108.207 135.88 108.368C136.276 108.515 136.818 108.683 137.508 108.874C138.373 109.109 139.077 109.343 139.62 109.578C140.162 109.798 140.624 110.135 141.006 110.59C141.402 111.045 141.607 111.639 141.622 112.372C141.622 113.032 141.438 113.626 141.072 114.154C140.705 114.682 140.184 115.1 139.51 115.408C138.85 115.701 138.087 115.848 137.222 115.848ZM149.565 109.578C149.565 108.346 149.814 107.268 150.313 106.344C150.812 105.405 151.494 104.679 152.359 104.166C153.239 103.653 154.214 103.396 155.285 103.396C156.341 103.396 157.258 103.623 158.035 104.078C158.812 104.533 159.392 105.105 159.773 105.794V103.594H161.797V115.65H159.773V113.406C159.377 114.11 158.783 114.697 157.991 115.166C157.214 115.621 156.304 115.848 155.263 115.848C154.192 115.848 153.224 115.584 152.359 115.056C151.494 114.528 150.812 113.787 150.313 112.834C149.814 111.881 149.565 110.795 149.565 109.578ZM159.773 109.6C159.773 108.691 159.59 107.899 159.223 107.224C158.856 106.549 158.358 106.036 157.727 105.684C157.111 105.317 156.429 105.134 155.681 105.134C154.933 105.134 154.251 105.31 153.635 105.662C153.019 106.014 152.528 106.527 152.161 107.202C151.794 107.877 151.611 108.669 151.611 109.578C151.611 110.502 151.794 111.309 152.161 111.998C152.528 112.673 153.019 113.193 153.635 113.56C154.251 113.912 154.933 114.088 155.681 114.088C156.429 114.088 157.111 113.912 157.727 113.56C158.358 113.193 158.856 112.673 159.223 111.998C159.59 111.309 159.773 110.509 159.773 109.6ZM169.448 115.848C168.524 115.848 167.696 115.694 166.962 115.386C166.229 115.063 165.65 114.623 165.224 114.066C164.799 113.494 164.564 112.841 164.52 112.108H166.588C166.647 112.709 166.926 113.201 167.424 113.582C167.938 113.963 168.605 114.154 169.426 114.154C170.189 114.154 170.79 113.985 171.23 113.648C171.67 113.311 171.89 112.885 171.89 112.372C171.89 111.844 171.656 111.455 171.186 111.206C170.717 110.942 169.991 110.685 169.008 110.436C168.114 110.201 167.38 109.967 166.808 109.732C166.251 109.483 165.767 109.123 165.356 108.654C164.96 108.17 164.762 107.539 164.762 106.762C164.762 106.146 164.946 105.581 165.312 105.068C165.679 104.555 166.2 104.151 166.874 103.858C167.549 103.55 168.319 103.396 169.184 103.396C170.519 103.396 171.597 103.733 172.418 104.408C173.24 105.083 173.68 106.007 173.738 107.18H171.736C171.692 106.549 171.436 106.043 170.966 105.662C170.512 105.281 169.896 105.09 169.118 105.09C168.4 105.09 167.828 105.244 167.402 105.552C166.977 105.86 166.764 106.263 166.764 106.762C166.764 107.158 166.889 107.488 167.138 107.752C167.402 108.001 167.725 108.207 168.106 108.368C168.502 108.515 169.045 108.683 169.734 108.874C170.6 109.109 171.304 109.343 171.846 109.578C172.389 109.798 172.851 110.135 173.232 110.59C173.628 111.045 173.834 111.639 173.848 112.372C173.848 113.032 173.665 113.626 173.298 114.154C172.932 114.682 172.411 115.1 171.736 115.408C171.076 115.701 170.314 115.848 169.448 115.848ZM190.218 107.752C190.775 107.84 191.281 108.067 191.736 108.434C192.205 108.801 192.572 109.255 192.836 109.798C193.114 110.341 193.254 110.92 193.254 111.536C193.254 112.313 193.056 113.017 192.66 113.648C192.264 114.264 191.684 114.755 190.922 115.122C190.174 115.474 189.286 115.65 188.26 115.65H182.54V100.316H188.04C189.081 100.316 189.968 100.492 190.702 100.844C191.435 101.181 191.985 101.643 192.352 102.23C192.718 102.817 192.902 103.477 192.902 104.21C192.902 105.119 192.652 105.875 192.154 106.476C191.67 107.063 191.024 107.488 190.218 107.752ZM184.542 106.938H187.908C188.846 106.938 189.572 106.718 190.086 106.278C190.599 105.838 190.856 105.229 190.856 104.452C190.856 103.675 190.599 103.066 190.086 102.626C189.572 102.186 188.832 101.966 187.864 101.966H184.542V106.938ZM188.084 114C189.081 114 189.858 113.765 190.416 113.296C190.973 112.827 191.252 112.174 191.252 111.338C191.252 110.487 190.958 109.82 190.372 109.336C189.785 108.837 189 108.588 188.018 108.588H184.542V114H188.084ZM198.034 105.552C198.386 104.863 198.885 104.327 199.53 103.946C200.19 103.565 200.989 103.374 201.928 103.374V105.442H201.4C199.156 105.442 198.034 106.659 198.034 109.094V115.65H196.032V103.594H198.034V105.552ZM203.491 109.578C203.491 108.346 203.74 107.268 204.239 106.344C204.738 105.405 205.42 104.679 206.285 104.166C207.165 103.653 208.14 103.396 209.211 103.396C210.267 103.396 211.184 103.623 211.961 104.078C212.738 104.533 213.318 105.105 213.699 105.794V103.594H215.723V115.65H213.699V113.406C213.303 114.11 212.709 114.697 211.917 115.166C211.14 115.621 210.23 115.848 209.189 115.848C208.118 115.848 207.15 115.584 206.285 115.056C205.42 114.528 204.738 113.787 204.239 112.834C203.74 111.881 203.491 110.795 203.491 109.578ZM213.699 109.6C213.699 108.691 213.516 107.899 213.149 107.224C212.782 106.549 212.284 106.036 211.653 105.684C211.037 105.317 210.355 105.134 209.607 105.134C208.859 105.134 208.177 105.31 207.561 105.662C206.945 106.014 206.454 106.527 206.087 107.202C205.72 107.877 205.537 108.669 205.537 109.578C205.537 110.502 205.72 111.309 206.087 111.998C206.454 112.673 206.945 113.193 207.561 113.56C208.177 113.912 208.859 114.088 209.607 114.088C210.355 114.088 211.037 113.912 211.653 113.56C212.284 113.193 212.782 112.673 213.149 111.998C213.516 111.309 213.699 110.509 213.699 109.6ZM220.602 114H226.52V115.65H218.314V114L224.166 105.222H218.358V103.594H226.476V105.222L220.602 114ZM230.152 101.636C229.77 101.636 229.448 101.504 229.184 101.24C228.92 100.976 228.788 100.653 228.788 100.272C228.788 99.8906 228.92 99.5679 229.184 99.3039C229.448 99.0399 229.77 98.9079 230.152 98.9079C230.518 98.9079 230.826 99.0399 231.076 99.3039C231.34 99.5679 231.472 99.8906 231.472 100.272C231.472 100.653 231.34 100.976 231.076 101.24C230.826 101.504 230.518 101.636 230.152 101.636ZM231.12 103.594V115.65L229.118 115.65V103.594L231.12 103.594ZM236.534 99.3699V115.65H234.532V99.3699H236.534ZM240.958 98.1379L240.694 102.516H239.308L239.022 98.1379H240.958ZM247.716 115.848C246.792 115.848 245.963 115.694 245.23 115.386C244.497 115.063 243.917 114.623 243.492 114.066C243.067 113.494 242.832 112.841 242.788 112.108H244.856C244.915 112.709 245.193 113.201 245.692 113.582C246.205 113.963 246.873 114.154 247.694 114.154C248.457 114.154 249.058 113.985 249.498 113.648C249.938 113.311 250.158 112.885 250.158 112.372C250.158 111.844 249.923 111.455 249.454 111.206C248.985 110.942 248.259 110.685 247.276 110.436C246.381 110.201 245.648 109.967 245.076 109.732C244.519 109.483 244.035 109.123 243.624 108.654C243.228 108.17 243.03 107.539 243.03 106.762C243.03 106.146 243.213 105.581 243.58 105.068C243.947 104.555 244.467 104.151 245.142 103.858C245.817 103.55 246.587 103.396 247.452 103.396C248.787 103.396 249.865 103.733 250.686 104.408C251.507 105.083 251.947 106.007 252.006 107.18H250.004C249.96 106.549 249.703 106.043 249.234 105.662C248.779 105.281 248.163 105.09 247.386 105.09C246.667 105.09 246.095 105.244 245.67 105.552C245.245 105.86 245.032 106.263 245.032 106.762C245.032 107.158 245.157 107.488 245.406 107.752C245.67 108.001 245.993 108.207 246.374 108.368C246.77 108.515 247.313 108.683 248.002 108.874C248.867 109.109 249.571 109.343 250.114 109.578C250.657 109.798 251.119 110.135 251.5 110.59C251.896 111.045 252.101 111.639 252.116 112.372C252.116 113.032 251.933 113.626 251.566 114.154C251.199 114.682 250.679 115.1 250.004 115.408C249.344 115.701 248.581 115.848 247.716 115.848ZM265.713 105.244H263.183V115.65H261.181V105.244H259.619V103.594H261.181V102.736C261.181 101.387 261.526 100.404 262.215 99.7879C262.919 99.1572 264.041 98.8419 265.581 98.8419V100.514C264.701 100.514 264.078 100.69 263.711 101.042C263.359 101.379 263.183 101.944 263.183 102.736V103.594H265.713V105.244ZM269.081 101.636C268.7 101.636 268.377 101.504 268.113 101.24C267.849 100.976 267.717 100.653 267.717 100.272C267.717 99.8906 267.849 99.5679 268.113 99.3039C268.377 99.0399 268.7 98.9079 269.081 98.9079C269.448 98.9079 269.756 99.0399 270.005 99.3039C270.269 99.5679 270.401 99.8906 270.401 100.272C270.401 100.653 270.269 100.976 270.005 101.24C269.756 101.504 269.448 101.636 269.081 101.636ZM270.049 103.594V115.65H268.047V103.594H270.049ZM275.464 105.552C275.816 104.863 276.314 104.327 276.96 103.946C277.62 103.565 278.419 103.374 279.358 103.374V105.442H278.83C276.586 105.442 275.464 106.659 275.464 109.094V115.65H273.462V103.594H275.464V105.552ZM285.937 115.848C285.013 115.848 284.184 115.694 283.451 115.386C282.717 115.063 282.138 114.623 281.713 114.066C281.287 113.494 281.053 112.841 281.009 112.108H283.077C283.135 112.709 283.414 113.201 283.913 113.582C284.426 113.963 285.093 114.154 285.915 114.154C286.677 114.154 287.279 113.985 287.719 113.648C288.159 113.311 288.379 112.885 288.379 112.372C288.379 111.844 288.144 111.455 287.675 111.206C287.205 110.942 286.479 110.685 285.497 110.436C284.602 110.201 283.869 109.967 283.297 109.732C282.739 109.483 282.255 109.123 281.845 108.654C281.449 108.17 281.251 107.539 281.251 106.762C281.251 106.146 281.434 105.581 281.801 105.068C282.167 104.555 282.688 104.151 283.363 103.858C284.037 103.55 284.807 103.396 285.673 103.396C287.007 103.396 288.085 103.733 288.907 104.408C289.728 105.083 290.168 106.007 290.227 107.18H288.225C288.181 106.549 287.924 106.043 287.455 105.662C287 105.281 286.384 105.09 285.607 105.09C284.888 105.09 284.316 105.244 283.891 105.552C283.465 105.86 283.253 106.263 283.253 106.762C283.253 107.158 283.377 107.488 283.627 107.752C283.891 108.001 284.213 108.207 284.595 108.368C284.991 108.515 285.533 108.683 286.223 108.874C287.088 109.109 287.792 109.343 288.335 109.578C288.877 109.798 289.339 110.135 289.721 110.59C290.117 111.045 290.322 111.639 290.337 112.372C290.337 113.032 290.153 113.626 289.787 114.154C289.42 114.682 288.899 115.1 288.225 115.408C287.565 115.701 286.802 115.848 285.937 115.848ZM295.605 105.244V112.35C295.605 112.937 295.729 113.355 295.979 113.604C296.228 113.839 296.661 113.956 297.277 113.956H298.751V115.65H296.947C295.832 115.65 294.996 115.393 294.439 114.88C293.881 114.367 293.603 113.523 293.603 112.35V105.244H292.041V103.594H293.603V100.558H295.605V103.594H298.751V105.244H295.605ZM308.076 101.636C307.694 101.636 307.372 101.504 307.108 101.24C306.844 100.976 306.712 100.653 306.712 100.272C306.712 99.8906 306.844 99.5679 307.108 99.3039C307.372 99.0399 307.694 98.9079 308.076 98.9079C308.442 98.9079 308.75 99.0399 309 99.3039C309.264 99.5679 309.396 99.8906 309.396 100.272C309.396 100.653 309.264 100.976 309 101.24C308.75 101.504 308.442 101.636 308.076 101.636ZM309.044 103.594V115.65H307.042V103.594H309.044ZM318.33 103.374C319.796 103.374 320.984 103.821 321.894 104.716C322.803 105.596 323.258 106.872 323.258 108.544V115.65H321.278V108.83C321.278 107.627 320.977 106.711 320.376 106.08C319.774 105.435 318.953 105.112 317.912 105.112C316.856 105.112 316.012 105.442 315.382 106.102C314.766 106.762 314.458 107.723 314.458 108.984V115.65H312.456V103.594H314.458V105.31C314.854 104.694 315.389 104.217 316.064 103.88C316.753 103.543 317.508 103.374 318.33 103.374ZM325.78 109.578C325.78 108.346 326.029 107.268 326.528 106.344C327.027 105.405 327.709 104.679 328.574 104.166C329.454 103.653 330.437 103.396 331.522 103.396C332.461 103.396 333.333 103.616 334.14 104.056C334.947 104.481 335.563 105.046 335.988 105.75V99.3699H338.012V115.65H335.988V113.384C335.592 114.103 335.005 114.697 334.228 115.166C333.451 115.621 332.541 115.848 331.5 115.848C330.429 115.848 329.454 115.584 328.574 115.056C327.709 114.528 327.027 113.787 326.528 112.834C326.029 111.881 325.78 110.795 325.78 109.578ZM335.988 109.6C335.988 108.691 335.805 107.899 335.438 107.224C335.071 106.549 334.573 106.036 333.942 105.684C333.326 105.317 332.644 105.134 331.896 105.134C331.148 105.134 330.466 105.31 329.85 105.662C329.234 106.014 328.743 106.527 328.376 107.202C328.009 107.877 327.826 108.669 327.826 109.578C327.826 110.502 328.009 111.309 328.376 111.998C328.743 112.673 329.234 113.193 329.85 113.56C330.466 113.912 331.148 114.088 331.896 114.088C332.644 114.088 333.326 113.912 333.942 113.56C334.573 113.193 335.071 112.673 335.438 111.998C335.805 111.309 335.988 110.509 335.988 109.6ZM342.429 101.636C342.048 101.636 341.725 101.504 341.461 101.24C341.197 100.976 341.065 100.653 341.065 100.272C341.065 99.8906 341.197 99.5679 341.461 99.3039C341.725 99.0399 342.048 98.9079 342.429 98.9079C342.796 98.9079 343.104 99.0399 343.353 99.3039C343.617 99.5679 343.749 99.8906 343.749 100.272C343.749 100.653 343.617 100.976 343.353 101.24C343.104 101.504 342.796 101.636 342.429 101.636ZM343.397 103.594V115.65H341.395V103.594H343.397ZM351.781 103.396C352.823 103.396 353.732 103.623 354.509 104.078C355.301 104.533 355.888 105.105 356.269 105.794V103.594H358.293V115.914C358.293 117.014 358.059 117.989 357.589 118.84C357.12 119.705 356.445 120.38 355.565 120.864C354.7 121.348 353.688 121.59 352.529 121.59C350.945 121.59 349.625 121.216 348.569 120.468C347.513 119.72 346.89 118.701 346.699 117.41H348.679C348.899 118.143 349.354 118.73 350.043 119.17C350.733 119.625 351.561 119.852 352.529 119.852C353.629 119.852 354.524 119.507 355.213 118.818C355.917 118.129 356.269 117.161 356.269 115.914V113.384C355.873 114.088 355.287 114.675 354.509 115.144C353.732 115.613 352.823 115.848 351.781 115.848C350.711 115.848 349.735 115.584 348.855 115.056C347.99 114.528 347.308 113.787 346.809 112.834C346.311 111.881 346.061 110.795 346.061 109.578C346.061 108.346 346.311 107.268 346.809 106.344C347.308 105.405 347.99 104.679 348.855 104.166C349.735 103.653 350.711 103.396 351.781 103.396ZM356.269 109.6C356.269 108.691 356.086 107.899 355.719 107.224C355.353 106.549 354.854 106.036 354.223 105.684C353.607 105.317 352.925 105.134 352.177 105.134C351.429 105.134 350.747 105.31 350.131 105.662C349.515 106.014 349.024 106.527 348.657 107.202C348.291 107.877 348.107 108.669 348.107 109.578C348.107 110.502 348.291 111.309 348.657 111.998C349.024 112.673 349.515 113.193 350.131 113.56C350.747 113.912 351.429 114.088 352.177 114.088C352.925 114.088 353.607 113.912 354.223 113.56C354.854 113.193 355.353 112.673 355.719 111.998C356.086 111.309 356.269 110.509 356.269 109.6ZM372.676 109.16C372.676 109.541 372.654 109.945 372.61 110.37H362.974C363.048 111.558 363.451 112.489 364.184 113.164C364.932 113.824 365.834 114.154 366.89 114.154C367.756 114.154 368.474 113.956 369.046 113.56C369.633 113.149 370.044 112.607 370.278 111.932H372.434C372.112 113.091 371.466 114.037 370.498 114.77C369.53 115.489 368.328 115.848 366.89 115.848C365.746 115.848 364.72 115.591 363.81 115.078C362.916 114.565 362.212 113.839 361.698 112.9C361.185 111.947 360.928 110.847 360.928 109.6C360.928 108.353 361.178 107.261 361.676 106.322C362.175 105.383 362.872 104.665 363.766 104.166C364.676 103.653 365.717 103.396 366.89 103.396C368.034 103.396 369.046 103.645 369.926 104.144C370.806 104.643 371.481 105.332 371.95 106.212C372.434 107.077 372.676 108.06 372.676 109.16ZM370.608 108.742C370.608 107.979 370.44 107.327 370.102 106.784C369.765 106.227 369.303 105.809 368.716 105.53C368.144 105.237 367.506 105.09 366.802 105.09C365.79 105.09 364.925 105.413 364.206 106.058C363.502 106.703 363.099 107.598 362.996 108.742H370.608ZM381.193 103.374C382.66 103.374 383.848 103.821 384.757 104.716C385.666 105.596 386.121 106.872 386.121 108.544V115.65H384.141V108.83C384.141 107.627 383.84 106.711 383.239 106.08C382.638 105.435 381.816 105.112 380.775 105.112C379.719 105.112 378.876 105.442 378.245 106.102C377.629 106.762 377.321 107.723 377.321 108.984V115.65H375.319V103.594H377.321V105.31C377.717 104.694 378.252 104.217 378.927 103.88C379.616 103.543 380.372 103.374 381.193 103.374ZM394.649 115.848C393.52 115.848 392.493 115.591 391.569 115.078C390.66 114.565 389.941 113.839 389.413 112.9C388.9 111.947 388.643 110.847 388.643 109.6C388.643 108.368 388.907 107.283 389.435 106.344C389.978 105.391 390.711 104.665 391.635 104.166C392.559 103.653 393.593 103.396 394.737 103.396C395.881 103.396 396.915 103.653 397.839 104.166C398.763 104.665 399.489 105.383 400.017 106.322C400.56 107.261 400.831 108.353 400.831 109.6C400.831 110.847 400.553 111.947 399.995 112.9C399.453 113.839 398.712 114.565 397.773 115.078C396.835 115.591 395.793 115.848 394.649 115.848ZM394.649 114.088C395.368 114.088 396.043 113.919 396.673 113.582C397.304 113.245 397.81 112.739 398.191 112.064C398.587 111.389 398.785 110.568 398.785 109.6C398.785 108.632 398.595 107.811 398.213 107.136C397.832 106.461 397.333 105.963 396.717 105.64C396.101 105.303 395.434 105.134 394.715 105.134C393.982 105.134 393.307 105.303 392.691 105.64C392.09 105.963 391.606 106.461 391.239 107.136C390.873 107.811 390.689 108.632 390.689 109.6C390.689 110.583 390.865 111.411 391.217 112.086C391.584 112.761 392.068 113.267 392.669 113.604C393.271 113.927 393.931 114.088 394.649 114.088ZM414.156 103.594V115.65H412.154V113.868C411.772 114.484 411.237 114.968 410.548 115.32C409.873 115.657 409.125 115.826 408.304 115.826C407.365 115.826 406.522 115.635 405.774 115.254C405.026 114.858 404.432 114.271 403.992 113.494C403.566 112.717 403.354 111.771 403.354 110.656V103.594H405.334V110.392C405.334 111.58 405.634 112.497 406.236 113.142C406.837 113.773 407.658 114.088 408.7 114.088C409.77 114.088 410.614 113.758 411.23 113.098C411.846 112.438 412.154 111.477 412.154 110.216V103.594H414.156ZM421.804 115.848C420.88 115.848 420.051 115.694 419.318 115.386C418.584 115.063 418.005 114.623 417.58 114.066C417.154 113.494 416.92 112.841 416.876 112.108H418.944C419.002 112.709 419.281 113.201 419.78 113.582C420.293 113.963 420.96 114.154 421.782 114.154C422.544 114.154 423.146 113.985 423.586 113.648C424.026 113.311 424.246 112.885 424.246 112.372C424.246 111.844 424.011 111.455 423.542 111.206C423.072 110.942 422.346 110.685 421.364 110.436C420.469 110.201 419.736 109.967 419.164 109.732C418.606 109.483 418.122 109.123 417.712 108.654C417.316 108.17 417.118 107.539 417.118 106.762C417.118 106.146 417.301 105.581 417.668 105.068C418.034 104.555 418.555 104.151 419.23 103.858C419.904 103.55 420.674 103.396 421.54 103.396C422.874 103.396 423.952 103.733 424.774 104.408C425.595 105.083 426.035 106.007 426.094 107.18H424.092C424.048 106.549 423.791 106.043 423.322 105.662C422.867 105.281 422.251 105.09 421.474 105.09C420.755 105.09 420.183 105.244 419.758 105.552C419.332 105.86 419.12 106.263 419.12 106.762C419.12 107.158 419.244 107.488 419.494 107.752C419.758 108.001 420.08 108.207 420.462 108.368C420.858 108.515 421.4 108.683 422.09 108.874C422.955 109.109 423.659 109.343 424.202 109.578C424.744 109.798 425.206 110.135 425.588 110.59C425.984 111.045 426.189 111.639 426.204 112.372C426.204 113.032 426.02 113.626 425.654 114.154C425.287 114.682 424.766 115.1 424.092 115.408C423.432 115.701 422.669 115.848 421.804 115.848ZM440.879 103.374C441.788 103.374 442.61 103.572 443.343 103.968C444.076 104.349 444.648 104.929 445.059 105.706C445.484 106.483 445.697 107.429 445.697 108.544V115.65H443.717V108.83C443.717 107.627 443.416 106.711 442.815 106.08C442.214 105.435 441.392 105.112 440.351 105.112C439.295 105.112 438.452 105.442 437.821 106.102C437.205 106.762 436.897 107.723 436.897 108.984V115.65H434.895V99.3699H436.897V105.31C437.293 104.694 437.836 104.217 438.525 103.88C439.229 103.543 440.014 103.374 440.879 103.374ZM459.967 109.16C459.967 109.541 459.945 109.945 459.901 110.37H450.265C450.339 111.558 450.742 112.489 451.475 113.164C452.223 113.824 453.125 114.154 454.181 114.154C455.047 114.154 455.765 113.956 456.337 113.56C456.924 113.149 457.335 112.607 457.569 111.932H459.725C459.403 113.091 458.757 114.037 457.789 114.77C456.821 115.489 455.619 115.848 454.181 115.848C453.037 115.848 452.011 115.591 451.101 115.078C450.207 114.565 449.503 113.839 448.989 112.9C448.476 111.947 448.219 110.847 448.219 109.6C448.219 108.353 448.469 107.261 448.967 106.322C449.466 105.383 450.163 104.665 451.057 104.166C451.967 103.653 453.008 103.396 454.181 103.396C455.325 103.396 456.337 103.645 457.217 104.144C458.097 104.643 458.772 105.332 459.241 106.212C459.725 107.077 459.967 108.06 459.967 109.16ZM457.899 108.742C457.899 107.979 457.731 107.327 457.393 106.784C457.056 106.227 456.594 105.809 456.007 105.53C455.435 105.237 454.797 105.09 454.093 105.09C453.081 105.09 452.216 105.413 451.497 106.058C450.793 106.703 450.39 107.598 450.287 108.742H457.899ZM464.612 105.552C464.964 104.863 465.463 104.327 466.108 103.946C466.768 103.565 467.567 103.374 468.506 103.374V105.442H467.978C465.734 105.442 464.612 106.659 464.612 109.094V115.65H462.61V103.594H464.612V105.552ZM476.075 115.848C474.946 115.848 473.919 115.591 472.995 115.078C472.086 114.565 471.367 113.839 470.839 112.9C470.326 111.947 470.069 110.847 470.069 109.6C470.069 108.368 470.333 107.283 470.861 106.344C471.404 105.391 472.137 104.665 473.061 104.166C473.985 103.653 475.019 103.396 476.163 103.396C477.307 103.396 478.341 103.653 479.265 104.166C480.189 104.665 480.915 105.383 481.443 106.322C481.986 107.261 482.257 108.353 482.257 109.6C482.257 110.847 481.978 111.947 481.421 112.9C480.878 113.839 480.138 114.565 479.199 115.078C478.26 115.591 477.219 115.848 476.075 115.848ZM476.075 114.088C476.794 114.088 477.468 113.919 478.099 113.582C478.73 113.245 479.236 112.739 479.617 112.064C480.013 111.389 480.211 110.568 480.211 109.6C480.211 108.632 480.02 107.811 479.639 107.136C479.258 106.461 478.759 105.963 478.143 105.64C477.527 105.303 476.86 105.134 476.141 105.134C475.408 105.134 474.733 105.303 474.117 105.64C473.516 105.963 473.032 106.461 472.665 107.136C472.298 107.811 472.115 108.632 472.115 109.6C472.115 110.583 472.291 111.411 472.643 112.086C473.01 112.761 473.494 113.267 474.095 113.604C474.696 113.927 475.356 114.088 476.075 114.088ZM485.923 101.636C485.542 101.636 485.219 101.504 484.955 101.24C484.691 100.976 484.559 100.653 484.559 100.272C484.559 99.8906 484.691 99.5679 484.955 99.3039C485.219 99.0399 485.542 98.9079 485.923 98.9079C486.29 98.9079 486.598 99.0399 486.847 99.3039C487.111 99.5679 487.243 99.8906 487.243 100.272C487.243 100.653 487.111 100.976 486.847 101.24C486.598 101.504 486.29 101.636 485.923 101.636ZM486.891 103.594V115.65H484.889V103.594H486.891ZM496.177 103.374C497.644 103.374 498.832 103.821 499.741 104.716C500.651 105.596 501.105 106.872 501.105 108.544V115.65H499.125V108.83C499.125 107.627 498.825 106.711 498.223 106.08C497.622 105.435 496.801 105.112 495.759 105.112C494.703 105.112 493.86 105.442 493.229 106.102C492.613 106.762 492.305 107.723 492.305 108.984V115.65H490.303V103.594H492.305V105.31C492.701 104.694 493.237 104.217 493.911 103.88C494.601 103.543 495.356 103.374 496.177 103.374ZM515.376 109.16C515.376 109.541 515.354 109.945 515.31 110.37H505.674C505.747 111.558 506.15 112.489 506.884 113.164C507.632 113.824 508.534 114.154 509.59 114.154C510.455 114.154 511.174 113.956 511.746 113.56C512.332 113.149 512.743 112.607 512.978 111.932H515.134C514.811 113.091 514.166 114.037 513.198 114.77C512.23 115.489 511.027 115.848 509.59 115.848C508.446 115.848 507.419 115.591 506.51 115.078C505.615 114.565 504.911 113.839 504.398 112.9C503.884 111.947 503.628 110.847 503.628 109.6C503.628 108.353 503.877 107.261 504.376 106.322C504.874 105.383 505.571 104.665 506.466 104.166C507.375 103.653 508.416 103.396 509.59 103.396C510.734 103.396 511.746 103.645 512.626 104.144C513.506 104.643 514.18 105.332 514.65 106.212C515.134 107.077 515.376 108.06 515.376 109.16ZM513.308 108.742C513.308 107.979 513.139 107.327 512.802 106.784C512.464 106.227 512.002 105.809 511.416 105.53C510.844 105.237 510.206 105.09 509.502 105.09C508.49 105.09 507.624 105.413 506.906 106.058C506.202 106.703 505.798 107.598 505.696 108.742H513.308ZM518.656 115.782C518.275 115.782 517.952 115.65 517.688 115.386C517.424 115.122 517.292 114.799 517.292 114.418C517.292 114.037 517.424 113.714 517.688 113.45C517.952 113.186 518.275 113.054 518.656 113.054C519.023 113.054 519.331 113.186 519.58 113.45C519.844 113.714 519.976 114.037 519.976 114.418C519.976 114.799 519.844 115.122 519.58 115.386C519.331 115.65 519.023 115.782 518.656 115.782Z" fill="black"/>
</svg>
