<svg width="421" height="126" viewBox="0 0 421 126" fill="none" xmlns="http://www.w3.org/2000/svg">
<rect width="421" height="126" fill="#F5E9D7"/>
<path d="M50.5407 46.272V63H48.3567V55.416H39.8367V63H37.6527V46.272H39.8367V53.616H48.3567V46.272H50.5407ZM66.2699 55.92C66.2699 56.336 66.2459 56.776 66.1979 57.24H55.6859C55.7659 58.536 56.2059 59.552 57.0059 60.288C57.8219 61.008 58.8059 61.368 59.9579 61.368C60.9019 61.368 61.6859 61.152 62.3099 60.72C62.9499 60.272 63.3979 59.68 63.6539 58.944H66.0059C65.6539 60.208 64.9499 61.24 63.8939 62.04C62.8379 62.824 61.5259 63.216 59.9579 63.216C58.7099 63.216 57.5899 62.936 56.5979 62.376C55.6219 61.816 54.8539 61.024 54.2939 60C53.7339 58.96 53.4539 57.76 53.4539 56.4C53.4539 55.04 53.7259 53.848 54.2699 52.824C54.8139 51.8 55.5739 51.016 56.5499 50.472C57.5419 49.912 58.6779 49.632 59.9579 49.632C61.2059 49.632 62.3099 49.904 63.2699 50.448C64.2299 50.992 64.9659 51.744 65.4779 52.704C66.0059 53.648 66.2699 54.72 66.2699 55.92ZM64.0139 55.464C64.0139 54.632 63.8299 53.92 63.4619 53.328C63.0939 52.72 62.5899 52.264 61.9499 51.96C61.3259 51.64 60.6299 51.48 59.8619 51.48C58.7579 51.48 57.8139 51.832 57.0299 52.536C56.2619 53.24 55.8219 54.216 55.7099 55.464H64.0139ZM71.3367 45.24V63H69.1527V45.24H71.3367ZM77.2429 52.272C77.6749 51.52 78.3149 50.896 79.1629 50.4C80.0269 49.888 81.0269 49.632 82.1629 49.632C83.3309 49.632 84.3869 49.912 85.3309 50.472C86.2909 51.032 87.0429 51.824 87.5869 52.848C88.1309 53.856 88.4029 55.032 88.4029 56.376C88.4029 57.704 88.1309 58.888 87.5869 59.928C87.0429 60.968 86.2909 61.776 85.3309 62.352C84.3869 62.928 83.3309 63.216 82.1629 63.216C81.0429 63.216 80.0509 62.968 79.1869 62.472C78.3389 61.96 77.6909 61.328 77.2429 60.576V69.24H75.0589V49.848H77.2429V52.272ZM86.1709 56.376C86.1709 55.384 85.9709 54.52 85.5709 53.784C85.1709 53.048 84.6269 52.488 83.9389 52.104C83.2669 51.72 82.5229 51.528 81.7069 51.528C80.9069 51.528 80.1629 51.728 79.4749 52.128C78.8029 52.512 78.2589 53.08 77.8429 53.832C77.4429 54.568 77.2429 55.424 77.2429 56.4C77.2429 57.392 77.4429 58.264 77.8429 59.016C78.2589 59.752 78.8029 60.32 79.4749 60.72C80.1629 61.104 80.9069 61.296 81.7069 61.296C82.5229 61.296 83.2669 61.104 83.9389 60.72C84.6269 60.32 85.1709 59.752 85.5709 59.016C85.9709 58.264 86.1709 57.384 86.1709 56.376ZM96.8601 54.624C96.8601 52.992 97.2281 51.528 97.9641 50.232C98.7001 48.92 99.7001 47.896 100.964 47.16C102.244 46.424 103.66 46.056 105.212 46.056C107.036 46.056 108.628 46.496 109.988 47.376C111.348 48.256 112.34 49.504 112.964 51.12H110.348C109.884 50.112 109.212 49.336 108.332 48.792C107.468 48.248 106.428 47.976 105.212 47.976C104.044 47.976 102.996 48.248 102.068 48.792C101.14 49.336 100.412 50.112 99.8841 51.12C99.3561 52.112 99.0921 53.28 99.0921 54.624C99.0921 55.952 99.3561 57.12 99.8841 58.128C100.412 59.12 101.14 59.888 102.068 60.432C102.996 60.976 104.044 61.248 105.212 61.248C106.428 61.248 107.468 60.984 108.332 60.456C109.212 59.912 109.884 59.136 110.348 58.128H112.964C112.34 59.728 111.348 60.968 109.988 61.848C108.628 62.712 107.036 63.144 105.212 63.144C103.66 63.144 102.244 62.784 100.964 62.064C99.7001 61.328 98.7001 60.312 97.9641 59.016C97.2281 57.72 96.8601 56.256 96.8601 54.624ZM118.399 45.24V63H116.215V45.24H118.399ZM121.305 56.376C121.305 55.032 121.577 53.856 122.121 52.848C122.665 51.824 123.409 51.032 124.353 50.472C125.313 49.912 126.377 49.632 127.545 49.632C128.697 49.632 129.697 49.88 130.545 50.376C131.393 50.872 132.025 51.496 132.441 52.248V49.848H134.649V63H132.441V60.552C132.009 61.32 131.361 61.96 130.497 62.472C129.649 62.968 128.657 63.216 127.521 63.216C126.353 63.216 125.297 62.928 124.353 62.352C123.409 61.776 122.665 60.968 122.121 59.928C121.577 58.888 121.305 57.704 121.305 56.376ZM132.441 56.4C132.441 55.408 132.241 54.544 131.841 53.808C131.441 53.072 130.897 52.512 130.209 52.128C129.537 51.728 128.793 51.528 127.977 51.528C127.161 51.528 126.417 51.72 125.745 52.104C125.073 52.488 124.537 53.048 124.137 53.784C123.737 54.52 123.537 55.384 123.537 56.376C123.537 57.384 123.737 58.264 124.137 59.016C124.537 59.752 125.073 60.32 125.745 60.72C126.417 61.104 127.161 61.296 127.977 61.296C128.793 61.296 129.537 61.104 130.209 60.72C130.897 60.32 131.441 59.752 131.841 59.016C132.241 58.264 132.441 57.392 132.441 56.4ZM140.524 51.984C140.908 51.232 141.452 50.648 142.156 50.232C142.876 49.816 143.748 49.608 144.772 49.608V51.864H144.196C141.748 51.864 140.524 53.192 140.524 55.848V63H138.34V49.848H140.524V51.984ZM146.477 56.376C146.477 55.032 146.749 53.856 147.293 52.848C147.837 51.824 148.581 51.032 149.525 50.472C150.485 49.912 151.549 49.632 152.717 49.632C153.869 49.632 154.869 49.88 155.717 50.376C156.565 50.872 157.197 51.496 157.613 52.248V49.848H159.821V63H157.613V60.552C157.181 61.32 156.533 61.96 155.669 62.472C154.821 62.968 153.829 63.216 152.693 63.216C151.525 63.216 150.469 62.928 149.525 62.352C148.581 61.776 147.837 60.968 147.293 59.928C146.749 58.888 146.477 57.704 146.477 56.376ZM157.613 56.4C157.613 55.408 157.413 54.544 157.013 53.808C156.613 53.072 156.069 52.512 155.381 52.128C154.709 51.728 153.965 51.528 153.149 51.528C152.333 51.528 151.589 51.72 150.917 52.104C150.245 52.488 149.709 53.048 149.309 53.784C148.909 54.52 148.709 55.384 148.709 56.376C148.709 57.384 148.909 58.264 149.309 59.016C149.709 59.752 150.245 60.32 150.917 60.72C151.589 61.104 152.333 61.296 153.149 61.296C153.965 61.296 154.709 61.104 155.381 60.72C156.069 60.32 156.613 59.752 157.013 59.016C157.413 58.264 157.613 57.392 157.613 56.4ZM172.575 51.648V59.4C172.575 60.04 172.711 60.496 172.983 60.768C173.255 61.024 173.727 61.152 174.398 61.152H176.007V63H174.039C172.823 63 171.911 62.72 171.303 62.16C170.695 61.6 170.391 60.68 170.391 59.4V51.648H168.687V49.848H170.391V46.536H172.575V49.848H176.007V51.648H172.575ZM184.389 63.216C183.157 63.216 182.037 62.936 181.029 62.376C180.037 61.816 179.253 61.024 178.677 60C178.117 58.96 177.837 57.76 177.837 56.4C177.837 55.056 178.125 53.872 178.701 52.848C179.293 51.808 180.093 51.016 181.101 50.472C182.109 49.912 183.237 49.632 184.485 49.632C185.733 49.632 186.861 49.912 187.869 50.472C188.877 51.016 189.669 51.8 190.245 52.824C190.837 53.848 191.133 55.04 191.133 56.4C191.133 57.76 190.829 58.96 190.221 60C189.629 61.024 188.821 61.816 187.797 62.376C186.773 62.936 185.637 63.216 184.389 63.216ZM184.389 61.296C185.173 61.296 185.909 61.112 186.597 60.744C187.285 60.376 187.837 59.824 188.253 59.088C188.685 58.352 188.901 57.456 188.901 56.4C188.901 55.344 188.693 54.448 188.277 53.712C187.861 52.976 187.317 52.432 186.645 52.08C185.973 51.712 185.245 51.528 184.461 51.528C183.661 51.528 182.925 51.712 182.253 52.08C181.597 52.432 181.069 52.976 180.669 53.712C180.269 54.448 180.069 55.344 180.069 56.4C180.069 57.472 180.261 58.376 180.645 59.112C181.045 59.848 181.573 60.4 182.229 60.768C182.885 61.12 183.605 61.296 184.389 61.296ZM205.755 51.648H202.995V63H200.811V51.648H199.107V49.848H200.811V48.912C200.811 47.44 201.187 46.368 201.939 45.696C202.707 45.008 203.931 44.664 205.611 44.664V46.488C204.651 46.488 203.971 46.68 203.571 47.064C203.187 47.432 202.995 48.048 202.995 48.912V49.848H205.755V51.648ZM209.429 47.712C209.013 47.712 208.661 47.568 208.373 47.28C208.085 46.992 207.941 46.64 207.941 46.224C207.941 45.808 208.085 45.456 208.373 45.168C208.661 44.88 209.013 44.736 209.429 44.736C209.829 44.736 210.165 44.88 210.437 45.168C210.725 45.456 210.869 45.808 210.869 46.224C210.869 46.64 210.725 46.992 210.437 47.28C210.165 47.568 209.829 47.712 209.429 47.712ZM210.485 49.848V63H208.301V49.848H210.485ZM216.391 45.24V63H214.207V45.24H216.391ZM222.298 45.24V63H220.114V45.24H222.298ZM235.082 51.648V59.4C235.082 60.04 235.218 60.496 235.49 60.768C235.762 61.024 236.234 61.152 236.906 61.152H238.514V63H236.546C235.33 63 234.418 62.72 233.81 62.16C233.202 61.6 232.898 60.68 232.898 59.4V51.648H231.194V49.848H232.898V46.536H235.082V49.848H238.514V51.648H235.082ZM247.689 49.608C248.681 49.608 249.577 49.824 250.377 50.256C251.177 50.672 251.801 51.304 252.249 52.152C252.713 53 252.945 54.032 252.945 55.248V63H250.785V55.56C250.785 54.248 250.457 53.248 249.801 52.56C249.145 51.856 248.249 51.504 247.113 51.504C245.961 51.504 245.041 51.864 244.353 52.584C243.681 53.304 243.345 54.352 243.345 55.728V63H241.161V45.24H243.345V51.72C243.777 51.048 244.369 50.528 245.121 50.16C245.889 49.792 246.745 49.608 247.689 49.608ZM268.512 55.92C268.512 56.336 268.488 56.776 268.44 57.24H257.928C258.008 58.536 258.448 59.552 259.248 60.288C260.064 61.008 261.048 61.368 262.2 61.368C263.144 61.368 263.928 61.152 264.552 60.72C265.192 60.272 265.64 59.68 265.896 58.944H268.248C267.896 60.208 267.192 61.24 266.136 62.04C265.08 62.824 263.768 63.216 262.2 63.216C260.952 63.216 259.832 62.936 258.84 62.376C257.864 61.816 257.096 61.024 256.536 60C255.976 58.96 255.696 57.76 255.696 56.4C255.696 55.04 255.968 53.848 256.512 52.824C257.056 51.8 257.816 51.016 258.792 50.472C259.784 49.912 260.92 49.632 262.2 49.632C263.448 49.632 264.552 49.904 265.512 50.448C266.472 50.992 267.208 51.744 267.72 52.704C268.248 53.648 268.512 54.72 268.512 55.92ZM266.256 55.464C266.256 54.632 266.072 53.92 265.704 53.328C265.336 52.72 264.832 52.264 264.192 51.96C263.568 51.64 262.872 51.48 262.104 51.48C261 51.48 260.056 51.832 259.272 52.536C258.504 53.24 258.064 54.216 257.952 55.464H266.256ZM279.977 52.296C280.425 51.512 281.081 50.872 281.945 50.376C282.809 49.88 283.793 49.632 284.897 49.632C286.081 49.632 287.145 49.912 288.089 50.472C289.033 51.032 289.777 51.824 290.321 52.848C290.865 53.856 291.137 55.032 291.137 56.376C291.137 57.704 290.865 58.888 290.321 59.928C289.777 60.968 289.025 61.776 288.065 62.352C287.121 62.928 286.065 63.216 284.897 63.216C283.761 63.216 282.761 62.968 281.897 62.472C281.049 61.976 280.409 61.344 279.977 60.576V63H277.793V45.24H279.977V52.296ZM288.905 56.376C288.905 55.384 288.705 54.52 288.305 53.784C287.905 53.048 287.361 52.488 286.673 52.104C286.001 51.72 285.257 51.528 284.441 51.528C283.641 51.528 282.897 51.728 282.209 52.128C281.537 52.512 280.993 53.08 280.577 53.832C280.177 54.568 279.977 55.424 279.977 56.4C279.977 57.392 280.177 58.264 280.577 59.016C280.993 59.752 281.537 60.32 282.209 60.72C282.897 61.104 283.641 61.296 284.441 61.296C285.257 61.296 286.001 61.104 286.673 60.72C287.361 60.32 287.905 59.752 288.305 59.016C288.705 58.264 288.905 57.384 288.905 56.376ZM299.748 63.216C298.516 63.216 297.396 62.936 296.388 62.376C295.396 61.816 294.612 61.024 294.036 60C293.476 58.96 293.196 57.76 293.196 56.4C293.196 55.056 293.484 53.872 294.06 52.848C294.652 51.808 295.452 51.016 296.46 50.472C297.468 49.912 298.596 49.632 299.844 49.632C301.092 49.632 302.22 49.912 303.228 50.472C304.236 51.016 305.028 51.8 305.604 52.824C306.196 53.848 306.492 55.04 306.492 56.4C306.492 57.76 306.188 58.96 305.58 60C304.988 61.024 304.18 61.816 303.156 62.376C302.132 62.936 300.996 63.216 299.748 63.216ZM299.748 61.296C300.532 61.296 301.268 61.112 301.956 60.744C302.644 60.376 303.196 59.824 303.612 59.088C304.044 58.352 304.26 57.456 304.26 56.4C304.26 55.344 304.052 54.448 303.636 53.712C303.22 52.976 302.676 52.432 302.004 52.08C301.332 51.712 300.604 51.528 299.82 51.528C299.02 51.528 298.284 51.712 297.612 52.08C296.956 52.432 296.428 52.976 296.028 53.712C295.628 54.448 295.428 55.344 295.428 56.4C295.428 57.472 295.62 58.376 296.004 59.112C296.404 59.848 296.932 60.4 297.588 60.768C298.244 61.12 298.964 61.296 299.748 61.296ZM326.884 49.848L322.78 63L320.524 63L317.356 52.56L314.188 63H311.932L307.804 49.848H310.036L313.06 60.888L316.324 49.848H318.556L321.748 60.912L324.724 49.848H326.884ZM331.235 45.24V63H329.051V45.24H331.235ZM358.876 49.848L354.772 63H352.516L349.348 52.56L346.18 63H343.924L339.796 49.848H342.028L345.052 60.888L348.316 49.848H350.548L353.74 60.912L356.716 49.848H358.876ZM362.171 47.712C361.755 47.712 361.403 47.568 361.115 47.28C360.827 46.992 360.683 46.64 360.683 46.224C360.683 45.808 360.827 45.456 361.115 45.168C361.403 44.88 361.755 44.736 362.171 44.736C362.571 44.736 362.907 44.88 363.179 45.168C363.467 45.456 363.611 45.808 363.611 46.224C363.611 46.64 363.467 46.992 363.179 47.28C362.907 47.568 362.571 47.712 362.171 47.712ZM363.227 49.848V63H361.043V49.848H363.227ZM369.614 51.648V59.4C369.614 60.04 369.75 60.496 370.022 60.768C370.294 61.024 370.766 61.152 371.438 61.152H373.046V63H371.078C369.862 63 368.95 62.72 368.342 62.16C367.734 61.6 367.43 60.68 367.43 59.4V51.648H365.726V49.848H367.43V46.536H369.614V49.848H373.046V51.648H369.614ZM382.22 49.608C383.212 49.608 384.108 49.824 384.908 50.256C385.708 50.672 386.332 51.304 386.78 52.152C387.244 53 387.476 54.032 387.476 55.248V63H385.316V55.56C385.316 54.248 384.988 53.248 384.332 52.56C383.676 51.856 382.78 51.504 381.644 51.504C380.492 51.504 379.572 51.864 378.884 52.584C378.212 53.304 377.876 54.352 377.876 55.728V63H375.692V45.24H377.876V51.72C378.308 51.048 378.9 50.528 379.652 50.16C380.42 49.792 381.276 49.608 382.22 49.608ZM146.887 99.216C145.879 99.216 144.975 99.048 144.175 98.712C143.375 98.36 142.743 97.88 142.279 97.272C141.815 96.648 141.559 95.936 141.511 95.136H143.767C143.831 95.792 144.135 96.328 144.679 96.744C145.239 97.16 145.967 97.368 146.863 97.368C147.695 97.368 148.351 97.184 148.831 96.816C149.311 96.448 149.551 95.984 149.551 95.424C149.551 94.848 149.295 94.424 148.783 94.152C148.271 93.864 147.479 93.584 146.407 93.312C145.431 93.056 144.631 92.8 144.007 92.544C143.399 92.272 142.871 91.88 142.423 91.368C141.991 90.84 141.775 90.152 141.775 89.304C141.775 88.632 141.975 88.016 142.375 87.456C142.775 86.896 143.343 86.456 144.079 86.136C144.815 85.8 145.655 85.632 146.599 85.632C148.055 85.632 149.231 86 150.127 86.736C151.023 87.472 151.503 88.48 151.567 89.76H149.383C149.335 89.072 149.055 88.52 148.543 88.104C148.047 87.688 147.375 87.48 146.527 87.48C145.743 87.48 145.119 87.648 144.655 87.984C144.191 88.32 143.959 88.76 143.959 89.304C143.959 89.736 144.095 90.096 144.367 90.384C144.655 90.656 145.007 90.88 145.423 91.056C145.855 91.216 146.447 91.4 147.199 91.608C148.143 91.864 148.911 92.12 149.503 92.376C150.095 92.616 150.599 92.984 151.015 93.48C151.447 93.976 151.671 94.624 151.687 95.424C151.687 96.144 151.487 96.792 151.087 97.368C150.687 97.944 150.119 98.4 149.383 98.736C148.663 99.056 147.831 99.216 146.887 99.216ZM160.506 99.216C159.274 99.216 158.154 98.936 157.146 98.376C156.154 97.816 155.37 97.024 154.794 96C154.234 94.96 153.954 93.76 153.954 92.4C153.954 91.056 154.242 89.872 154.818 88.848C155.41 87.808 156.21 87.016 157.218 86.472C158.226 85.912 159.354 85.632 160.602 85.632C161.85 85.632 162.978 85.912 163.986 86.472C164.994 87.016 165.786 87.8 166.362 88.824C166.954 89.848 167.25 91.04 167.25 92.4C167.25 93.76 166.946 94.96 166.338 96C165.746 97.024 164.938 97.816 163.914 98.376C162.89 98.936 161.754 99.216 160.506 99.216ZM160.506 97.296C161.29 97.296 162.026 97.112 162.714 96.744C163.402 96.376 163.954 95.824 164.37 95.088C164.802 94.352 165.018 93.456 165.018 92.4C165.018 91.344 164.81 90.448 164.394 89.712C163.978 88.976 163.434 88.432 162.762 88.08C162.09 87.712 161.362 87.528 160.578 87.528C159.778 87.528 159.042 87.712 158.37 88.08C157.714 88.432 157.186 88.976 156.786 89.712C156.386 90.448 156.186 91.344 156.186 92.4C156.186 93.472 156.378 94.376 156.762 95.112C157.162 95.848 157.69 96.4 158.346 96.768C159.002 97.12 159.722 97.296 160.506 97.296ZM185.937 85.608C186.961 85.608 187.873 85.824 188.673 86.256C189.473 86.672 190.105 87.304 190.569 88.152C191.033 89 191.265 90.032 191.265 91.248V99H189.105V91.56C189.105 90.248 188.777 89.248 188.121 88.56C187.481 87.856 186.609 87.504 185.505 87.504C184.369 87.504 183.465 87.872 182.793 88.608C182.121 89.328 181.785 90.376 181.785 91.752V99H179.625V91.56C179.625 90.248 179.297 89.248 178.641 88.56C178.001 87.856 177.129 87.504 176.025 87.504C174.889 87.504 173.985 87.872 173.313 88.608C172.641 89.328 172.305 90.376 172.305 91.752V99H170.121V85.848H172.305V87.744C172.737 87.056 173.313 86.528 174.033 86.16C174.769 85.792 175.577 85.608 176.457 85.608C177.561 85.608 178.537 85.856 179.385 86.352C180.233 86.848 180.865 87.576 181.281 88.536C181.649 87.608 182.257 86.888 183.105 86.376C183.953 85.864 184.897 85.608 185.937 85.608ZM206.848 91.92C206.848 92.336 206.824 92.776 206.776 93.24H196.264C196.344 94.536 196.784 95.552 197.584 96.288C198.4 97.008 199.384 97.368 200.536 97.368C201.48 97.368 202.264 97.152 202.888 96.72C203.528 96.272 203.976 95.68 204.232 94.944H206.584C206.232 96.208 205.528 97.24 204.472 98.04C203.416 98.824 202.104 99.216 200.536 99.216C199.288 99.216 198.168 98.936 197.176 98.376C196.2 97.816 195.432 97.024 194.872 96C194.312 94.96 194.032 93.76 194.032 92.4C194.032 91.04 194.304 89.848 194.848 88.824C195.392 87.8 196.152 87.016 197.128 86.472C198.12 85.912 199.256 85.632 200.536 85.632C201.784 85.632 202.888 85.904 203.848 86.448C204.808 86.992 205.544 87.744 206.056 88.704C206.584 89.648 206.848 90.72 206.848 91.92ZM204.592 91.464C204.592 90.632 204.408 89.92 204.04 89.328C203.672 88.72 203.168 88.264 202.528 87.96C201.904 87.64 201.208 87.48 200.44 87.48C199.336 87.48 198.392 87.832 197.608 88.536C196.84 89.24 196.4 90.216 196.288 91.464H204.592ZM234.369 85.704L230.481 99H226.857L224.433 89.712L222.009 99H218.361L214.449 85.704H217.857L220.209 95.832L222.753 85.704H226.305L228.801 95.808L231.153 85.704H234.369ZM235.323 92.304C235.323 90.96 235.587 89.768 236.115 88.728C236.659 87.688 237.387 86.888 238.299 86.328C239.227 85.768 240.259 85.488 241.395 85.488C242.387 85.488 243.251 85.688 243.987 86.088C244.739 86.488 245.339 86.992 245.787 87.6V85.704H249.171V99H245.787V97.056C245.355 97.68 244.755 98.2 243.987 98.616C243.235 99.016 242.363 99.216 241.371 99.216C240.251 99.216 239.227 98.928 238.299 98.352C237.387 97.776 236.659 96.968 236.115 95.928C235.587 94.872 235.323 93.664 235.323 92.304ZM245.787 92.352C245.787 91.536 245.627 90.84 245.307 90.264C244.987 89.672 244.555 89.224 244.011 88.92C243.467 88.6 242.883 88.44 242.259 88.44C241.635 88.44 241.059 88.592 240.531 88.896C240.003 89.2 239.571 89.648 239.235 90.24C238.915 90.816 238.755 91.504 238.755 92.304C238.755 93.104 238.915 93.808 239.235 94.416C239.571 95.008 240.003 95.464 240.531 95.784C241.075 96.104 241.651 96.264 242.259 96.264C242.883 96.264 243.467 96.112 244.011 95.808C244.555 95.488 244.987 95.04 245.307 94.464C245.627 93.872 245.787 93.168 245.787 92.352ZM256.365 88.464V94.896C256.365 95.344 256.469 95.672 256.677 95.88C256.901 96.072 257.269 96.168 257.781 96.168H259.341V99H257.229C254.397 99 252.981 97.624 252.981 94.872V88.464H251.397V85.704H252.981V82.416H256.365V85.704H259.341V88.464H256.365ZM274.118 92.064C274.118 92.544 274.086 92.976 274.022 93.36H264.302C264.382 94.32 264.718 95.072 265.31 95.616C265.902 96.16 266.63 96.432 267.494 96.432C268.742 96.432 269.63 95.896 270.158 94.824H273.782C273.398 96.104 272.662 97.16 271.574 97.992C270.486 98.808 269.15 99.216 267.566 99.216C266.286 99.216 265.134 98.936 264.11 98.376C263.102 97.8 262.31 96.992 261.734 95.952C261.174 94.912 260.894 93.712 260.894 92.352C260.894 90.976 261.174 89.768 261.734 88.728C262.294 87.688 263.078 86.888 264.086 86.328C265.094 85.768 266.254 85.488 267.566 85.488C268.83 85.488 269.958 85.76 270.95 86.304C271.958 86.848 272.734 87.624 273.278 88.632C273.838 89.624 274.118 90.768 274.118 92.064ZM270.638 91.104C270.622 90.24 270.31 89.552 269.702 89.04C269.094 88.512 268.35 88.248 267.47 88.248C266.638 88.248 265.934 88.504 265.358 89.016C264.798 89.512 264.454 90.208 264.326 91.104H270.638ZM279.93 87.768C280.362 87.064 280.922 86.512 281.61 86.112C282.314 85.712 283.114 85.512 284.01 85.512V89.04H283.122C282.066 89.04 281.266 89.288 280.722 89.784C280.194 90.28 279.93 91.144 279.93 92.376V99H276.57V85.704H279.93V87.768Z" fill="black"/>
</svg>
