<svg width="421" height="136" viewBox="0 0 421 136" fill="none" xmlns="http://www.w3.org/2000/svg">
<rect width="421" height="136" fill="#F5E9D7"/>
<path d="M45.7817 58.4889C45.3177 57.5129 44.6457 56.7609 43.7657 56.2329C42.8857 55.6889 41.8617 55.4169 40.6937 55.4169C39.5257 55.4169 38.4697 55.6889 37.5257 56.2329C36.5977 56.7609 35.8617 57.5289 35.3177 58.5369C34.7897 59.5289 34.5257 60.6809 34.5257 61.9929C34.5257 63.3049 34.7897 64.4569 35.3177 65.4489C35.8617 66.4409 36.5977 67.2089 37.5257 67.7529C38.4697 68.2809 39.5257 68.5449 40.6937 68.5449C42.3257 68.5449 43.6697 68.0569 44.7257 67.0809C45.7817 66.1049 46.3977 64.7849 46.5737 63.1209H39.9017V61.3449H48.9017V63.0249C48.7737 64.4009 48.3417 65.6649 47.6057 66.8169C46.8697 67.9529 45.9017 68.8569 44.7017 69.5289C43.5017 70.1849 42.1657 70.5129 40.6937 70.5129C39.1417 70.5129 37.7257 70.1529 36.4457 69.4329C35.1657 68.6969 34.1497 67.6809 33.3977 66.3849C32.6617 65.0889 32.2937 63.6249 32.2937 61.9929C32.2937 60.3609 32.6617 58.8969 33.3977 57.6009C34.1497 56.2889 35.1657 55.2729 36.4457 54.5529C37.7257 53.8169 39.1417 53.4489 40.6937 53.4489C42.4697 53.4489 44.0377 53.8889 45.3977 54.7689C46.7737 55.6489 47.7737 56.8889 48.3977 58.4889H45.7817ZM53.9734 59.3529C54.3574 58.6009 54.9014 58.0169 55.6054 57.6009C56.3254 57.1849 57.1974 56.9769 58.2214 56.9769V59.2329H57.6454C55.1974 59.2329 53.9734 60.5609 53.9734 63.2169V70.3689H51.7894V57.2169H53.9734V59.3529ZM72.7425 63.2889C72.7425 63.7049 72.7185 64.1449 72.6705 64.6089H62.1585C62.2385 65.9049 62.6785 66.9209 63.4785 67.6569C64.2945 68.3769 65.2785 68.7369 66.4305 68.7369C67.3745 68.7369 68.1585 68.5209 68.7825 68.0889C69.4225 67.6409 69.8705 67.0489 70.1265 66.3129H72.4785C72.1265 67.5769 71.4225 68.6089 70.3665 69.4089C69.3105 70.1929 67.9985 70.5849 66.4305 70.5849C65.1825 70.5849 64.0625 70.3049 63.0705 69.7449C62.0945 69.1849 61.3265 68.3929 60.7665 67.3689C60.2065 66.3289 59.9265 65.1289 59.9265 63.7689C59.9265 62.4089 60.1985 61.2169 60.7425 60.1929C61.2865 59.1689 62.0465 58.3849 63.0225 57.8409C64.0145 57.2809 65.1505 57.0009 66.4305 57.0009C67.6785 57.0009 68.7825 57.2729 69.7425 57.8169C70.7025 58.3609 71.4385 59.1129 71.9505 60.0729C72.4785 61.0169 72.7425 62.0889 72.7425 63.2889ZM70.4865 62.8329C70.4865 62.0009 70.3025 61.2889 69.9345 60.6969C69.5665 60.0889 69.0625 59.6329 68.4225 59.3289C67.7985 59.0089 67.1025 58.8489 66.3345 58.8489C65.2305 58.8489 64.2865 59.2009 63.5025 59.9049C62.7345 60.6089 62.2945 61.5849 62.1825 62.8329H70.4865ZM74.8093 63.7449C74.8093 62.4009 75.0813 61.2249 75.6253 60.2169C76.1693 59.1929 76.9133 58.4009 77.8573 57.8409C78.8173 57.2809 79.8813 57.0009 81.0493 57.0009C82.2013 57.0009 83.2013 57.2489 84.0493 57.7449C84.8973 58.2409 85.5293 58.8649 85.9453 59.6169V57.2169H88.1533V70.3689H85.9453V67.9209C85.5133 68.6889 84.8653 69.3289 84.0013 69.8409C83.1533 70.3369 82.1613 70.5849 81.0253 70.5849C79.8573 70.5849 78.8013 70.2969 77.8573 69.7209C76.9133 69.1449 76.1693 68.3369 75.6253 67.2969C75.0813 66.2569 74.8093 65.0729 74.8093 63.7449ZM85.9453 63.7689C85.9453 62.7769 85.7453 61.9129 85.3453 61.1769C84.9453 60.4409 84.4013 59.8809 83.7133 59.4969C83.0413 59.0969 82.2973 58.8969 81.4813 58.8969C80.6653 58.8969 79.9213 59.0889 79.2493 59.4729C78.5773 59.8569 78.0413 60.4169 77.6413 61.1529C77.2413 61.8889 77.0413 62.7529 77.0413 63.7449C77.0413 64.7529 77.2413 65.6329 77.6413 66.3849C78.0413 67.1209 78.5773 67.6889 79.2493 68.0889C79.9213 68.4729 80.6653 68.6649 81.4813 68.6649C82.2973 68.6649 83.0413 68.4729 83.7133 68.0889C84.4013 67.6889 84.9453 67.1209 85.3453 66.3849C85.7453 65.6329 85.9453 64.7609 85.9453 63.7689ZM94.5081 59.0169V66.7689C94.5081 67.4089 94.6441 67.8649 94.9161 68.1369C95.1881 68.3929 95.6601 68.5209 96.3321 68.5209H97.9401V70.3689H95.9721C94.7561 70.3689 93.8441 70.0889 93.2361 69.5289C92.6281 68.9689 92.3241 68.0489 92.3241 66.7689V59.0169H90.6201V57.2169H92.3241V53.9049H94.5081V57.2169H97.9401V59.0169H94.5081ZM103.418 53.6409L103.154 65.6409H101.33L101.066 53.6409H103.418ZM102.338 70.5129C101.922 70.5129 101.57 70.3689 101.282 70.0809C100.994 69.7929 100.85 69.4409 100.85 69.0249C100.85 68.6089 100.994 68.2569 101.282 67.9689C101.57 67.6809 101.922 67.5369 102.338 67.5369C102.738 67.5369 103.074 67.6809 103.346 67.9689C103.634 68.2569 103.778 68.6089 103.778 69.0249C103.778 69.4409 103.634 69.7929 103.346 70.0809C103.074 70.3689 102.738 70.5129 102.338 70.5129ZM135.157 53.6409L130.309 70.3689H127.861L123.973 56.9049L119.941 70.3689L117.517 70.3929L112.837 53.6409H115.165L118.813 67.8249L122.845 53.6409H125.293L129.133 67.7769L132.805 53.6409H135.157ZM149.547 63.2889C149.547 63.7049 149.523 64.1449 149.475 64.6089H138.963C139.043 65.9049 139.483 66.9209 140.283 67.6569C141.099 68.3769 142.083 68.7369 143.235 68.7369C144.179 68.7369 144.963 68.5209 145.587 68.0889C146.227 67.6409 146.675 67.0489 146.931 66.3129H149.283C148.931 67.5769 148.227 68.6089 147.171 69.4089C146.115 70.1929 144.803 70.5849 143.235 70.5849C141.987 70.5849 140.867 70.3049 139.875 69.7449C138.899 69.1849 138.131 68.3929 137.571 67.3689C137.011 66.3289 136.731 65.1289 136.731 63.7689C136.731 62.4089 137.003 61.2169 137.547 60.1929C138.091 59.1689 138.851 58.3849 139.827 57.8409C140.819 57.2809 141.955 57.0009 143.235 57.0009C144.483 57.0009 145.587 57.2729 146.547 57.8169C147.507 58.3609 148.243 59.1129 148.755 60.0729C149.283 61.0169 149.547 62.0889 149.547 63.2889ZM147.291 62.8329C147.291 62.0009 147.107 61.2889 146.739 60.6969C146.371 60.0889 145.867 59.6329 145.227 59.3289C144.603 59.0089 143.907 58.8489 143.139 58.8489C142.035 58.8489 141.091 59.2009 140.307 59.9049C139.539 60.6089 139.099 61.5849 138.987 62.8329H147.291ZM165.236 56.9769C166.836 56.9769 168.132 57.4649 169.124 58.4409C170.116 59.4009 170.612 60.7929 170.612 62.6169V70.3689H168.452V62.9289C168.452 61.6169 168.124 60.6169 167.468 59.9289C166.812 59.2249 165.916 58.8729 164.78 58.8729C163.628 58.8729 162.708 59.2329 162.02 59.9529C161.348 60.6729 161.012 61.7209 161.012 63.0969V70.3689H158.828V57.2169H161.012V59.0889C161.444 58.4169 162.028 57.8969 162.764 57.5289C163.516 57.1609 164.34 56.9769 165.236 56.9769ZM186.18 63.2889C186.18 63.7049 186.156 64.1449 186.108 64.6089H175.596C175.676 65.9049 176.116 66.9209 176.916 67.6569C177.732 68.3769 178.716 68.7369 179.868 68.7369C180.812 68.7369 181.596 68.5209 182.22 68.0889C182.86 67.6409 183.308 67.0489 183.564 66.3129H185.916C185.564 67.5769 184.86 68.6089 183.804 69.4089C182.748 70.1929 181.436 70.5849 179.868 70.5849C178.62 70.5849 177.5 70.3049 176.508 69.7449C175.532 69.1849 174.764 68.3929 174.204 67.3689C173.644 66.3289 173.364 65.1289 173.364 63.7689C173.364 62.4089 173.636 61.2169 174.18 60.1929C174.724 59.1689 175.484 58.3849 176.46 57.8409C177.452 57.2809 178.588 57.0009 179.868 57.0009C181.116 57.0009 182.22 57.2729 183.18 57.8169C184.14 58.3609 184.876 59.1129 185.388 60.0729C185.916 61.0169 186.18 62.0889 186.18 63.2889ZM183.924 62.8329C183.924 62.0009 183.74 61.2889 183.372 60.6969C183.004 60.0889 182.5 59.6329 181.86 59.3289C181.236 59.0089 180.54 58.8489 179.772 58.8489C178.668 58.8489 177.724 59.2009 176.94 59.9049C176.172 60.6089 175.732 61.5849 175.62 62.8329H183.924ZM201.063 63.2889C201.063 63.7049 201.039 64.1449 200.991 64.6089H190.479C190.559 65.9049 190.999 66.9209 191.799 67.6569C192.615 68.3769 193.599 68.7369 194.751 68.7369C195.695 68.7369 196.479 68.5209 197.103 68.0889C197.743 67.6409 198.191 67.0489 198.447 66.3129H200.799C200.447 67.5769 199.743 68.6089 198.687 69.4089C197.631 70.1929 196.319 70.5849 194.751 70.5849C193.503 70.5849 192.383 70.3049 191.391 69.7449C190.415 69.1849 189.647 68.3929 189.087 67.3689C188.527 66.3289 188.247 65.1289 188.247 63.7689C188.247 62.4089 188.519 61.2169 189.063 60.1929C189.607 59.1689 190.367 58.3849 191.343 57.8409C192.335 57.2809 193.471 57.0009 194.751 57.0009C195.999 57.0009 197.103 57.2729 198.063 57.8169C199.023 58.3609 199.759 59.1129 200.271 60.0729C200.799 61.0169 201.063 62.0889 201.063 63.2889ZM198.807 62.8329C198.807 62.0009 198.623 61.2889 198.255 60.6969C197.887 60.0889 197.383 59.6329 196.743 59.3289C196.119 59.0089 195.423 58.8489 194.655 58.8489C193.551 58.8489 192.607 59.2009 191.823 59.9049C191.055 60.6089 190.615 61.5849 190.503 62.8329H198.807ZM203.13 63.7449C203.13 62.4009 203.402 61.2249 203.946 60.2169C204.49 59.1929 205.234 58.4009 206.178 57.8409C207.138 57.2809 208.21 57.0009 209.394 57.0009C210.418 57.0009 211.37 57.2409 212.25 57.7209C213.13 58.1849 213.802 58.8009 214.266 59.5689V52.6089H216.474V70.3689H214.266V67.8969C213.834 68.6809 213.194 69.3289 212.346 69.8409C211.498 70.3369 210.506 70.5849 209.37 70.5849C208.202 70.5849 207.138 70.2969 206.178 69.7209C205.234 69.1449 204.49 68.3369 203.946 67.2969C203.402 66.2569 203.13 65.0729 203.13 63.7449ZM214.266 63.7689C214.266 62.7769 214.066 61.9129 213.666 61.1769C213.266 60.4409 212.722 59.8809 212.034 59.4969C211.362 59.0969 210.618 58.8969 209.802 58.8969C208.986 58.8969 208.242 59.0889 207.57 59.4729C206.898 59.8569 206.362 60.4169 205.962 61.1529C205.562 61.8889 205.362 62.7529 205.362 63.7449C205.362 64.7529 205.562 65.6329 205.962 66.3849C206.362 67.1209 206.898 67.6889 207.57 68.0889C208.242 68.4729 208.986 68.6649 209.802 68.6649C210.618 68.6649 211.362 68.4729 212.034 68.0889C212.722 67.6889 213.266 67.1209 213.666 66.3849C214.066 65.6329 214.266 64.7609 214.266 63.7689ZM231.219 70.5849C230.211 70.5849 229.307 70.4169 228.507 70.0809C227.707 69.7289 227.075 69.2489 226.611 68.6409C226.147 68.0169 225.891 67.3049 225.843 66.5049H228.099C228.163 67.1609 228.467 67.6969 229.011 68.1129C229.571 68.5289 230.299 68.7369 231.195 68.7369C232.027 68.7369 232.683 68.5529 233.163 68.1849C233.643 67.8169 233.883 67.3529 233.883 66.7929C233.883 66.2169 233.627 65.7929 233.115 65.5209C232.603 65.2329 231.811 64.9529 230.739 64.6809C229.763 64.4249 228.963 64.1689 228.339 63.9129C227.731 63.6409 227.203 63.2489 226.755 62.7369C226.323 62.2089 226.107 61.5209 226.107 60.6729C226.107 60.0009 226.307 59.3849 226.707 58.8249C227.107 58.2649 227.675 57.8249 228.411 57.5049C229.147 57.1689 229.987 57.0009 230.931 57.0009C232.387 57.0009 233.563 57.3689 234.459 58.1049C235.355 58.8409 235.835 59.8489 235.899 61.1289H233.715C233.667 60.4409 233.387 59.8889 232.875 59.4729C232.379 59.0569 231.707 58.8489 230.859 58.8489C230.075 58.8489 229.451 59.0169 228.987 59.3529C228.523 59.6889 228.291 60.1289 228.291 60.6729C228.291 61.1049 228.427 61.4649 228.699 61.7529C228.987 62.0249 229.339 62.2489 229.755 62.4249C230.187 62.5849 230.779 62.7689 231.531 62.9769C232.475 63.2329 233.243 63.4889 233.835 63.7449C234.427 63.9849 234.931 64.3529 235.347 64.8489C235.779 65.3449 236.003 65.9929 236.019 66.7929C236.019 67.5129 235.819 68.1609 235.419 68.7369C235.019 69.3129 234.451 69.7689 233.715 70.1049C232.995 70.4249 232.163 70.5849 231.219 70.5849ZM244.838 70.5849C243.606 70.5849 242.486 70.3049 241.478 69.7449C240.486 69.1849 239.702 68.3929 239.126 67.3689C238.566 66.3289 238.286 65.1289 238.286 63.7689C238.286 62.4249 238.574 61.2409 239.15 60.2169C239.742 59.1769 240.542 58.3849 241.55 57.8409C242.558 57.2809 243.686 57.0009 244.934 57.0009C246.182 57.0009 247.31 57.2809 248.318 57.8409C249.326 58.3849 250.118 59.1689 250.694 60.1929C251.286 61.2169 251.582 62.4089 251.582 63.7689C251.582 65.1289 251.278 66.3289 250.67 67.3689C250.078 68.3929 249.27 69.1849 248.246 69.7449C247.222 70.3049 246.086 70.5849 244.838 70.5849ZM244.838 68.6649C245.622 68.6649 246.358 68.4809 247.046 68.1129C247.734 67.7449 248.286 67.1929 248.702 66.4569C249.134 65.7209 249.35 64.8249 249.35 63.7689C249.35 62.7129 249.142 61.8169 248.726 61.0809C248.31 60.3449 247.766 59.8009 247.094 59.4489C246.422 59.0809 245.694 58.8969 244.91 58.8969C244.11 58.8969 243.374 59.0809 242.702 59.4489C242.046 59.8009 241.518 60.3449 241.118 61.0809C240.718 61.8169 240.518 62.7129 240.518 63.7689C240.518 64.8409 240.71 65.7449 241.094 66.4809C241.494 67.2169 242.022 67.7689 242.678 68.1369C243.334 68.4889 244.054 68.6649 244.838 68.6649ZM270.269 56.9769C271.293 56.9769 272.205 57.1929 273.005 57.6249C273.805 58.0409 274.437 58.6729 274.901 59.5209C275.365 60.3689 275.597 61.4009 275.597 62.6169V70.3689H273.437V62.9289C273.437 61.6169 273.109 60.6169 272.453 59.9289C271.813 59.2249 270.941 58.8729 269.837 58.8729C268.701 58.8729 267.797 59.2409 267.125 59.9769C266.453 60.6969 266.117 61.7449 266.117 63.1209V70.3689H263.957V62.9289C263.957 61.6169 263.629 60.6169 262.973 59.9289C262.333 59.2249 261.461 58.8729 260.357 58.8729C259.221 58.8729 258.317 59.2409 257.645 59.9769C256.973 60.6969 256.637 61.7449 256.637 63.1209V70.3689H254.453V57.2169H256.637V59.1129C257.069 58.4249 257.645 57.8969 258.365 57.5289C259.101 57.1609 259.909 56.9769 260.789 56.9769C261.893 56.9769 262.869 57.2249 263.717 57.7209C264.565 58.2169 265.197 58.9449 265.613 59.9049C265.981 58.9769 266.589 58.2569 267.437 57.7449C268.285 57.2329 269.229 56.9769 270.269 56.9769ZM291.18 63.2889C291.18 63.7049 291.156 64.1449 291.108 64.6089H280.596C280.676 65.9049 281.116 66.9209 281.916 67.6569C282.732 68.3769 283.716 68.7369 284.868 68.7369C285.812 68.7369 286.596 68.5209 287.22 68.0889C287.86 67.6409 288.308 67.0489 288.564 66.3129H290.916C290.564 67.5769 289.86 68.6089 288.804 69.4089C287.748 70.1929 286.436 70.5849 284.868 70.5849C283.62 70.5849 282.5 70.3049 281.508 69.7449C280.532 69.1849 279.764 68.3929 279.204 67.3689C278.644 66.3289 278.364 65.1289 278.364 63.7689C278.364 62.4089 278.636 61.2169 279.18 60.1929C279.724 59.1689 280.484 58.3849 281.46 57.8409C282.452 57.2809 283.588 57.0009 284.868 57.0009C286.116 57.0009 287.22 57.2729 288.18 57.8169C289.14 58.3609 289.876 59.1129 290.388 60.0729C290.916 61.0169 291.18 62.0889 291.18 63.2889ZM288.924 62.8329C288.924 62.0009 288.74 61.2889 288.372 60.6969C288.004 60.0889 287.5 59.6329 286.86 59.3289C286.236 59.0089 285.54 58.8489 284.772 58.8489C283.668 58.8489 282.724 59.2009 281.94 59.9049C281.172 60.6089 280.732 61.5849 280.62 62.8329H288.924ZM318.701 57.0729L314.813 70.3689H311.189L308.765 61.0809L306.341 70.3689H302.693L298.781 57.0729H302.189L304.541 67.2009L307.085 57.0729H310.637L313.133 67.1769L315.485 57.0729H318.701ZM326.423 70.5849C325.143 70.5849 323.991 70.3049 322.967 69.7449C321.943 69.1689 321.135 68.3609 320.543 67.3209C319.967 66.2809 319.679 65.0809 319.679 63.7209C319.679 62.3609 319.975 61.1609 320.567 60.1209C321.175 59.0809 321.999 58.2809 323.039 57.7209C324.079 57.1449 325.239 56.8569 326.519 56.8569C327.799 56.8569 328.959 57.1449 329.999 57.7209C331.039 58.2809 331.855 59.0809 332.447 60.1209C333.055 61.1609 333.359 62.3609 333.359 63.7209C333.359 65.0809 333.047 66.2809 332.423 67.3209C331.815 68.3609 330.983 69.1689 329.927 69.7449C328.887 70.3049 327.719 70.5849 326.423 70.5849ZM326.423 67.6569C327.031 67.6569 327.599 67.5129 328.127 67.2249C328.671 66.9209 329.103 66.4729 329.423 65.8809C329.743 65.2889 329.903 64.5689 329.903 63.7209C329.903 62.4569 329.567 61.4889 328.895 60.8169C328.239 60.1289 327.431 59.7849 326.471 59.7849C325.511 59.7849 324.703 60.1289 324.047 60.8169C323.407 61.4889 323.087 62.4569 323.087 63.7209C323.087 64.9849 323.399 65.9609 324.023 66.6489C324.663 67.3209 325.463 67.6569 326.423 67.6569ZM341.728 70.5849C340.448 70.5849 339.296 70.3049 338.272 69.7449C337.248 69.1689 336.44 68.3609 335.848 67.3209C335.272 66.2809 334.984 65.0809 334.984 63.7209C334.984 62.3609 335.28 61.1609 335.872 60.1209C336.48 59.0809 337.304 58.2809 338.344 57.7209C339.384 57.1449 340.544 56.8569 341.824 56.8569C343.104 56.8569 344.264 57.1449 345.304 57.7209C346.344 58.2809 347.16 59.0809 347.752 60.1209C348.36 61.1609 348.664 62.3609 348.664 63.7209C348.664 65.0809 348.352 66.2809 347.728 67.3209C347.12 68.3609 346.288 69.1689 345.232 69.7449C344.192 70.3049 343.024 70.5849 341.728 70.5849ZM341.728 67.6569C342.336 67.6569 342.904 67.5129 343.432 67.2249C343.976 66.9209 344.408 66.4729 344.728 65.8809C345.048 65.2889 345.208 64.5689 345.208 63.7209C345.208 62.4569 344.872 61.4889 344.2 60.8169C343.544 60.1289 342.736 59.7849 341.776 59.7849C340.816 59.7849 340.008 60.1289 339.352 60.8169C338.712 61.4889 338.392 62.4569 338.392 63.7209C338.392 64.9849 338.704 65.9609 339.328 66.6489C339.968 67.3209 340.768 67.6569 341.728 67.6569ZM350.265 63.6729C350.265 62.3289 350.529 61.1369 351.057 60.0969C351.601 59.0569 352.337 58.2569 353.265 57.6969C354.193 57.1369 355.225 56.8569 356.361 56.8569C357.225 56.8569 358.049 57.0489 358.833 57.4329C359.617 57.8009 360.241 58.2969 360.705 58.9209V52.6089H364.113V70.3689H360.705V68.4009C360.289 69.0569 359.705 69.5849 358.953 69.9849C358.201 70.3849 357.329 70.5849 356.337 70.5849C355.217 70.5849 354.193 70.2969 353.265 69.7209C352.337 69.1449 351.601 68.3369 351.057 67.2969C350.529 66.2409 350.265 65.0329 350.265 63.6729ZM360.729 63.7209C360.729 62.9049 360.569 62.2089 360.249 61.6329C359.929 61.0409 359.497 60.5929 358.953 60.2889C358.409 59.9689 357.825 59.8089 357.201 59.8089C356.577 59.8089 356.001 59.9609 355.473 60.2649C354.945 60.5689 354.513 61.0169 354.177 61.6089C353.857 62.1849 353.697 62.8729 353.697 63.6729C353.697 64.4729 353.857 65.1769 354.177 65.7849C354.513 66.3769 354.945 66.8329 355.473 67.1529C356.017 67.4729 356.593 67.6329 357.201 67.6329C357.825 67.6329 358.409 67.4809 358.953 67.1769C359.497 66.8569 359.929 66.4089 360.249 65.8329C360.569 65.2409 360.729 64.5369 360.729 63.7209ZM181.561 92.9769C183.161 92.9769 184.457 93.4649 185.449 94.4409C186.441 95.4009 186.937 96.7929 186.937 98.6169V106.369H184.777V98.9289C184.777 97.6169 184.449 96.6169 183.793 95.9289C183.137 95.2249 182.241 94.8729 181.105 94.8729C179.953 94.8729 179.033 95.2329 178.345 95.9529C177.673 96.6729 177.337 97.7209 177.337 99.0969V106.369H175.153V93.2169H177.337V95.0889C177.769 94.4169 178.353 93.8969 179.089 93.5289C179.841 93.1609 180.665 92.9769 181.561 92.9769ZM196.24 106.585C195.008 106.585 193.888 106.305 192.88 105.745C191.888 105.185 191.104 104.393 190.528 103.369C189.968 102.329 189.688 101.129 189.688 99.7689C189.688 98.4249 189.976 97.2409 190.552 96.2169C191.144 95.1769 191.944 94.3849 192.952 93.8409C193.96 93.2809 195.088 93.0009 196.336 93.0009C197.584 93.0009 198.712 93.2809 199.72 93.8409C200.728 94.3849 201.52 95.1689 202.096 96.1929C202.688 97.2169 202.984 98.4089 202.984 99.7689C202.984 101.129 202.68 102.329 202.072 103.369C201.48 104.393 200.672 105.185 199.648 105.745C198.624 106.305 197.488 106.585 196.24 106.585ZM196.24 104.665C197.024 104.665 197.76 104.481 198.448 104.113C199.136 103.745 199.688 103.193 200.104 102.457C200.536 101.721 200.752 100.825 200.752 99.7689C200.752 98.7129 200.544 97.8169 200.128 97.0809C199.712 96.3449 199.168 95.8009 198.496 95.4489C197.824 95.0809 197.096 94.8969 196.312 94.8969C195.512 94.8969 194.776 95.0809 194.104 95.4489C193.448 95.8009 192.92 96.3449 192.52 97.0809C192.12 97.8169 191.92 98.7129 191.92 99.7689C191.92 100.841 192.112 101.745 192.496 102.481C192.896 103.217 193.424 103.769 194.08 104.137C194.736 104.489 195.456 104.665 196.24 104.665ZM223.376 93.2169L219.272 106.369H217.016L213.848 95.9289L210.68 106.369H208.424L204.296 93.2169H206.528L209.552 104.257L212.816 93.2169H215.048L218.24 104.281L221.216 93.2169H223.376Z" fill="black"/>
</svg>
