<svg width="61" height="37" viewBox="0 0 61 37" fill="none" xmlns="http://www.w3.org/2000/svg">
<ellipse cx="40.2428" cy="20.1778" rx="3" ry="8" transform="rotate(93.6023 40.2428 20.1778)" fill="#7C9768"/>
<ellipse cx="14.9183" cy="17.5815" rx="15" ry="13.5625" transform="rotate(93.6023 14.9183 17.5815)" fill="#D0866F"/>
<ellipse cx="33.6937" cy="18.7635" rx="10" ry="9.625" transform="rotate(93.6023 33.6937 18.7635)" fill="#D0866F"/>
<rect x="34.0706" y="12.7754" width="16" height="14" transform="rotate(93.6023 34.0706 12.7754)" fill="#D0866F"/>
<path d="M37.7523 10.0012L15.758 14.6907L16.5198 2.59031L37.7523 10.0012Z" fill="#D0866F"/>
<path d="M36.5898 28.4646L15.33 21.4859L14.6226 32.722L36.5898 28.4646Z" fill="#D0866F"/>
<ellipse cx="51.3467" cy="18.8729" rx="5" ry="8" transform="rotate(93.6023 51.3467 18.8729)" fill="#7C9768"/>
<path d="M56.2518 20.5358C56.1427 21.148 55.4933 21.669 55.0838 22.065C54.3774 22.7481 53.7739 22.5238 52.9886 22.8472C52.6438 22.9892 50.9558 22.9341 50.6741 22.6421C50.3146 22.2695 49.7224 21.5329 49.2929 21.368C47.5727 20.7077 46.7115 22.718 45.0823 23.2517C44.5112 23.4388 43.5774 23.5734 43.0798 23.0781C42.6921 22.6923 42.1843 21.4578 42.2002 20.8858C42.2597 18.7484 42.9378 16.9566 44.8479 15.9714C45.4978 15.6361 45.9546 15.1973 46.6832 15.0184C47.833 14.7361 48.9187 14.7318 50.0849 14.8052C51.6098 14.9012 53.4096 14.722 54.1714 16.4396C54.3617 16.8685 55.0586 17.4015 55.054 17.8961C55.0468 18.673 54.9555 19.4616 54.9066 20.2374" stroke="#7C9768" stroke-width="3" stroke-linecap="round"/>
</svg>
