<svg width="207" height="519" viewBox="0 0 207 519" fill="none" xmlns="http://www.w3.org/2000/svg">
<g clip-path="url(#clip0_46_10508)">
<path d="M117.553 244.201C126.443 268.625 137.373 289.668 147.848 303.944C153.087 311.085 158.195 316.509 162.856 319.822C167.533 323.146 171.653 324.272 174.987 323.058C178.322 321.845 180.754 318.334 182.2 312.782C183.642 307.248 184.068 299.809 183.491 290.971C182.338 273.302 177.186 250.156 168.296 225.732C159.407 201.308 148.476 180.266 138.002 165.99C132.762 158.849 127.655 153.424 122.993 150.112C118.316 146.788 114.196 145.662 110.862 146.875C107.528 148.089 105.096 151.6 103.649 157.152C102.208 162.686 101.782 170.125 102.358 178.963C103.511 196.632 108.663 219.777 117.553 244.201Z" fill="#DDBBAD" stroke="#DDBBAD"/>
<path d="M44.2898 388.812C38.2762 422.917 35.864 454.312 36.8193 477.497C37.2971 489.093 38.6165 498.608 40.7349 505.373C41.7943 508.756 43.0454 511.425 44.471 513.32C45.8945 515.211 47.4668 516.3 49.1736 516.601C50.8803 516.902 52.7301 516.417 54.7149 515.126C56.7025 513.833 58.791 511.753 60.9437 508.936C65.2481 503.304 69.7421 494.814 74.1573 484.08C82.9846 462.621 91.4558 432.294 97.4694 398.189C103.483 364.084 105.895 332.688 104.94 309.504C104.462 297.907 103.143 288.393 101.024 281.628C99.9649 278.244 98.7137 275.575 97.2882 273.681C95.8646 271.789 94.2923 270.7 92.5856 270.399C90.8789 270.098 89.029 270.584 87.0443 271.875C85.0567 273.167 82.9681 275.247 80.8155 278.064C76.5111 283.697 72.0171 292.186 67.6018 302.92C58.7745 324.38 50.3034 354.707 44.2898 388.812Z" fill="#DDBBAD" stroke="#DDBBAD"/>
<path d="M38.9329 225.732C30.0433 250.156 24.8911 273.301 23.7382 290.97C23.1616 299.808 23.5877 307.247 25.0292 312.781C26.4756 318.333 28.9079 321.844 32.242 323.057C35.5762 324.271 39.6964 323.145 44.3731 319.821C49.0346 316.509 54.1424 311.084 59.3816 303.943C69.856 289.667 80.7867 268.625 89.6763 244.201C98.5658 219.777 103.718 196.632 104.871 178.963C105.448 170.125 105.021 162.686 103.58 157.152C102.134 151.6 99.7012 148.089 96.3671 146.875C93.0329 145.662 88.9127 146.788 84.236 150.112C79.5745 153.424 74.4667 158.848 69.2275 165.989C58.7531 180.266 47.8224 201.308 38.9329 225.732Z" fill="#DDBBAD" stroke="#DDBBAD"/>
<path d="M57.6799 267.285C57.6799 335.768 77.1555 391.285 101.18 391.285C125.204 391.285 144.68 335.768 144.68 267.285C144.68 198.801 125.204 143.285 101.18 143.285C77.1555 143.285 57.6799 198.801 57.6799 267.285Z" fill="#DDBBAD"/>
<path d="M101.993 205.703C107.205 220.023 114.797 231.915 122.836 239.571C130.9 247.25 139.283 250.558 146.143 248.061C153.003 245.564 157.299 237.642 158.54 226.576C159.777 215.544 157.949 201.554 152.737 187.234C147.525 172.914 139.932 161.021 131.894 153.366C123.83 145.686 115.447 142.378 108.587 144.875C101.726 147.372 97.4307 155.295 96.1899 166.361C94.9529 177.393 96.7811 191.383 101.993 205.703Z" fill="#3645CD" stroke="#DDBBAD"/>
<rect width="46" height="65.7915" transform="matrix(-0.939693 0.34202 0.34202 0.939693 154.498 190.461)" fill="#3645CD"/>
<rect width="47.4679" height="71.3255" transform="matrix(-0.939693 -0.34202 -0.34202 0.939693 94.9999 206.672)" fill="#3645CD"/>
<path d="M50.8374 189.695C45.6253 204.015 43.7971 218.005 45.0341 229.037C46.2749 240.103 50.5706 248.025 57.4309 250.522C64.2912 253.019 72.6742 249.712 80.7379 242.032C88.7765 234.376 96.3687 222.484 101.581 208.164C106.793 193.844 108.621 179.854 107.384 168.822C106.143 157.756 101.848 149.834 94.9873 147.337C88.127 144.84 79.744 148.147 71.6803 155.827C63.6417 163.483 56.0495 175.375 50.8374 189.695Z" fill="#3645CD" stroke="#3645CD"/>
<path d="M100.508 402.735C112.352 435.277 125.961 463.672 138.381 483.273C144.593 493.077 150.493 500.657 155.71 505.457C158.319 507.857 160.737 509.543 162.919 510.471C165.098 511.398 167.004 511.554 168.632 510.962C170.261 510.369 171.62 509.024 172.693 506.913C173.768 504.8 174.537 501.954 174.993 498.439C175.904 491.408 175.551 481.809 174.008 470.306C170.923 447.308 163.096 416.808 151.251 384.266C139.407 351.723 125.798 323.328 113.378 303.727C107.166 293.923 101.266 286.343 96.0494 281.543C93.4403 279.143 91.0223 277.457 88.8404 276.529C86.6616 275.602 84.7556 275.446 83.1271 276.038C81.4985 276.631 80.1392 277.976 79.0658 280.087C77.9909 282.2 77.2222 285.046 76.7664 288.562C75.8549 295.592 76.2078 305.191 77.7509 316.694C80.8361 339.692 88.6634 370.192 100.508 402.735Z" fill="#DDBBAD" stroke="#DDBBAD"/>
<path d="M41.9999 267.461C41.9999 335.945 66.6242 391.461 96.9999 391.461C127.376 391.461 152 335.945 152 267.461C152 198.978 127.376 143.461 96.9999 143.461C66.6242 143.461 41.9999 198.978 41.9999 267.461Z" fill="#3645CD"/>
<rect width="69.4193" height="190" transform="matrix(-0.984808 0.173648 0.173648 0.984808 150.983 298.709)" fill="#F2DDBE"/>
<rect width="62.6116" height="190" transform="matrix(-0.984808 -0.173648 -0.173648 0.984808 112.182 320.873)" fill="#F2DDBE"/>
<rect width="110" height="65" transform="matrix(-1 0 0 1 152 299)" fill="#F2DDBE"/>
<line y1="-0.5" x2="164.575" y2="-0.5" transform="matrix(-0.176211 0.984352 0.984352 0.176211 108 346)" stroke="#B19C7C"/>
<line y1="-0.5" x2="101.607" y2="-0.5" transform="matrix(-0.177153 -0.984183 -0.984183 0.177153 116 498)" stroke="#B19C7C"/>
<line y1="-0.5" x2="184.792" y2="-0.5" transform="matrix(-0.173168 -0.984892 -0.984892 0.173168 184 486)" stroke="#B19C7C"/>
<line y1="-0.5" x2="5" y2="-0.5" transform="matrix(0 -1 -1 0 152 304)" stroke="#B19C7C"/>
<line y1="-0.5" x2="111" y2="-0.5" transform="matrix(-1 0 0 1 153 299)" stroke="#B19C7C"/>
<line y1="-0.5" x2="62" y2="-0.5" transform="matrix(-2.06962e-10 1 1 2.06962e-10 42 297)" stroke="#B19C7C"/>
<line y1="-0.5" x2="141.057" y2="-0.5" transform="matrix(-0.170144 0.985419 0.985419 0.170144 42 359)" stroke="#B19C7C"/>
<line y1="-0.5" x2="61.8142" y2="-0.5" transform="matrix(-0.986828 -0.161775 -0.161775 0.986828 79 508)" stroke="#B19C7C"/>
<line y1="-0.5" x2="69.0507" y2="-0.5" transform="matrix(-0.984784 0.173785 0.173785 0.984784 185 486)" stroke="#B19C7C"/>
<rect x="22.3794" y="74" width="161" height="42" fill="#DACD9F"/>
<rect x="32.3794" y="88" width="138" height="42" fill="#DACD9F"/>
<ellipse cx="103" cy="72" rx="84" ry="72" fill="#DACD9F"/>
<circle cx="101" cy="90" r="54" fill="#DDBBAD"/>
<rect x="68" y="36" width="70" height="30" rx="15" fill="#DACD9F"/>
<ellipse cx="122.5" cy="87" rx="8.5" ry="11" fill="#D9D9D9"/>
<ellipse cx="127" cy="87" rx="4" ry="6" fill="black"/>
<ellipse cx="76.5" cy="87" rx="8.5" ry="11" fill="#D9D9D9"/>
<ellipse cx="81" cy="87" rx="4" ry="6" fill="black"/>
<line x1="87" y1="117.5" x2="118" y2="117.5" stroke="black"/>
<line x1="95" y1="104.5" x2="106" y2="104.5" stroke="black"/>
<rect x="45.6981" y="173.862" width="31" height="173.512" transform="rotate(-35.8694 45.6981 173.862)" fill="#F2DDBE" stroke="#B19C7C"/>
</g>
<defs>
<clipPath id="clip0_46_10508">
<rect width="207" height="519" fill="white" transform="matrix(-1 0 0 1 207 0)"/>
</clipPath>
</defs>
</svg>
