<svg width="90" height="34" viewBox="0 0 90 34" fill="none" xmlns="http://www.w3.org/2000/svg">
<path d="M16.5802 10.5147L58.5453 2.62167L60.1808 14.1601L16.5802 10.5147Z" fill="#CC4F4F"/>
<rect width="20.8224" height="6.4811" transform="matrix(0.99771 -0.067632 0.196483 0.980507 38.0676 9.35901)" fill="#CC4F4F"/>
<ellipse cx="4.10541" cy="3.77191" rx="4.10541" ry="3.77191" transform="matrix(-0.960576 -0.436229 0.780438 -0.530622 41.4736 16.8484)" fill="#CC4F4F"/>
<ellipse cx="1.56168" cy="0.883786" rx="1.56168" ry="0.883786" transform="matrix(0.99771 -0.067632 0.196483 0.980507 42.7983 6.69614)" fill="black"/>
<ellipse cx="0.52056" cy="0.294595" rx="0.52056" ry="0.294595" transform="matrix(0.99771 -0.067632 0.196483 0.980507 42.7983 6.69614)" fill="white"/>
<path d="M56.5465 3.20876C60.8699 2.66739 65.5643 5.48388 67.0437 9.48027C68.523 13.4767 66.2373 17.1672 61.9139 17.7086C57.5905 18.2499 52.896 15.4334 51.4167 11.4371C49.9374 7.44067 52.2231 3.75013 56.5465 3.20876Z" fill="#CC4F4F" stroke="#8B2929"/>
<path d="M61.8602 4.60523C66.2609 4.05419 70.7148 6.43941 71.9379 9.7437C73.1611 13.048 70.7894 16.2879 66.3887 16.839C61.988 17.39 57.5341 15.0048 56.311 11.7005C55.0878 8.3962 57.4595 5.15628 61.8602 4.60523Z" fill="#CC4F4F" stroke="#8B2929"/>
<path d="M68.3988 7.08976C72.7995 6.53871 77.2534 8.92393 78.4765 12.2282C79.6996 15.5325 77.328 18.7724 72.9273 19.3235C68.5266 19.8745 64.0727 17.4893 62.8496 14.185C61.6264 10.8807 63.9981 7.64081 68.3988 7.08976Z" fill="#CC4F4F" stroke="#8B2929"/>
<path d="M72.4106 9.60367C75.3165 9.23979 78.6687 11.407 79.8345 14.5564C81.0003 17.7058 79.4785 20.4833 76.5725 20.8472C73.6666 21.2111 70.3143 19.0439 69.1485 15.8945C67.9827 12.7451 69.5046 9.96756 72.4106 9.60367Z" fill="#CC4F4F" stroke="#8B2929"/>
<path d="M76.8691 14.4844C78.9863 14.2193 81.2929 15.6154 82.0257 17.595C82.7585 19.5746 81.644 21.399 79.5268 21.6641C77.4096 21.9292 75.103 20.5332 74.3702 18.5536C73.6374 16.574 74.7519 14.7495 76.8691 14.4844Z" fill="#CC4F4F" stroke="#8B2929"/>
<line y1="-0.5" x2="5.71928" y2="-0.5" transform="matrix(-0.74691 0.664925 -0.934788 -0.355207 54.1631 14.1235)" stroke="#8B2929"/>
<line y1="-0.5" x2="4.63607" y2="-0.5" transform="matrix(-0.732145 0.681149 -0.939803 -0.341716 60.2385 14.2972)" stroke="#8B2929"/>
<line y1="-0.5" x2="5.71928" y2="-0.5" transform="matrix(-0.74691 0.664925 -0.934788 -0.355207 58.1362 13.8542)" stroke="#8B2929"/>
<path d="M49.2835 14.8934C47.407 15.0206 45.5603 16.2956 44.1857 16.9468C43.3304 17.352 41.7982 17.7462 41.4194 18.3542" stroke="#8B2929" stroke-linecap="square"/>
<path d="M40.0957 15.5162C39.1529 15.7069 37.9591 17.0359 37.4792 17.5316C36.9951 18.0317 36.5723 18.5856 37.2849 19.0737" stroke="#8B2929" stroke-linecap="square"/>
<path d="M34.654 12.2254C34.6012 12.7059 27.6362 16.8329 30.146 17.3618" stroke="#8B2929" stroke-linecap="square"/>
<path d="M25.2056 11.5484C25.4512 12.7738 25.1991 13.8703 25.0359 15.0976C24.9163 15.9975 24.6437 17.4598 25.5437 18.2593" stroke="#8B2929" stroke-linecap="square"/>
<path d="M24.1257 11.1825C23.5892 11.5325 22.2812 11.4524 21.5874 11.3545C19.8208 11.1053 17.8821 10.8679 16.1956 10.4757C13.5295 9.85563 10.6339 9.15563 9.41054 7.52806C8.2184 5.94205 9.02163 4.60112 11.8556 3.88966C14.4852 3.22949 17.2167 2.42833 20.0676 2.23508" stroke="#8B2929" stroke-linecap="square"/>
<path d="M24.0509 12.0658C23.3079 12.1162 22.1918 12.5864 21.5456 12.8212C19.9093 13.4158 17.7632 13.3704 15.8921 13.4972C12.5255 13.7254 9.0807 13.2334 6.01051 12.4023C2.76448 11.5235 1.75627 10.0824 1.36509 8.13033C1.09801 6.7975 3.189 6.43142 4.97321 6.03963" stroke="#8B2929" stroke-linecap="square"/>
<path d="M35.275 12.1833C34.8823 12.5097 35.2589 12.8794 35.3535 13.2027C35.411 13.3994 35.5559 13.5847 35.5934 13.772C35.6414 14.0117 35.8847 14.0548 36.0948 14.2504C36.7713 14.8803 37.7373 15.0729 38.8657 15.3434C39.842 15.5776 40.9365 15.4394 41.9312 15.5341C43.0435 15.64 44.3467 15.4477 45.4781 15.371C45.9492 15.339 46.8062 15.3771 47.2131 15.2371C47.784 15.0406 48.333 15.1254 48.9401 15.0631C49.4424 15.0115 49.948 14.8484 50.5252 14.8092C51.1411 14.7675 52.0015 14.8035 52.5662 14.6668C53.0496 14.5498 53.6127 14.5268 54.1735 14.4888C54.7298 14.451 55.4902 14.4051 56.0512 14.4387C56.6831 14.4766 57.4845 14.4839 58.121 14.4407C58.6265 14.4065 59.174 14.5889 59.6612 14.5559" stroke="#8B2929" stroke-linecap="square"/>
<path d="M34.5008 12.0894C34.2567 12.1059 33.772 12.0292 33.5335 11.972C33.2128 11.8951 32.8478 12.0507 32.5562 11.9447C32.0706 11.7681 31.1474 11.7312 30.5982 11.7684C30.4327 11.7796 30.2671 11.7908 30.1016 11.8021C29.8595 11.8185 29.7423 11.6875 29.5139 11.6955C29.1393 11.7087 28.8136 11.5966 28.4917 11.6184C27.7875 11.6661 26.8599 11.5094 26.1513 11.5575C25.8064 11.5809 25.6228 11.4694 25.3041 11.4116C24.8475 11.3288 24.3857 11.3844 23.9138 11.4164C23.1732 11.4666 22.6619 11.3332 22.0712 11.1184C21.934 11.0685 21.1993 11.088 21.0258 11.0998C20.693 11.1223 20.3481 11.0473 20.0044 11.0267C19.3504 10.9875 18.5518 10.8283 17.897 10.8727" stroke="#8B2929" stroke-linecap="square"/>
<path d="M16.7882 10.3623C17.2271 10.541 18.2054 10.064 18.7313 10.011C19.1303 9.97084 19.4581 9.81538 19.8819 9.78666C20.3576 9.75441 20.769 9.65332 21.2332 9.62186C21.6032 9.59678 22.0288 9.60603 22.3325 9.49042C22.7802 9.31994 23.401 9.43317 23.8043 9.26458C24.4888 8.97852 25.4918 9.1428 26.1861 8.90388C26.7329 8.71571 27.5673 8.46054 28.2 8.41766C29.2153 8.34884 30.1139 8.14153 31.1164 8.07357C31.4427 8.05146 32.2057 7.98209 32.422 7.85495C32.689 7.69797 33.3411 7.73436 33.573 7.59801C33.7877 7.47181 34.6159 7.39719 34.9406 7.37518C35.372 7.34594 35.715 7.29786 36.1049 7.21899C37.5423 6.92825 38.8509 6.355 40.3686 6.20209C41.2198 6.11634 41.9277 5.95002 42.8229 5.88934C43.5658 5.83897 44.145 5.50694 44.9378 5.4532C45.3051 5.4283 45.644 5.27011 45.9642 5.23723C46.2407 5.20883 46.8945 5.14406 47.122 5.04895C47.5991 4.84956 48.3876 5.01228 48.9039 4.83464C49.1385 4.75391 49.715 4.617 49.9891 4.59842C50.2367 4.58164 50.539 4.37728 50.7455 4.29097C50.9778 4.1939 51.4349 4.06125 51.7026 4.0431C52.4259 3.99407 53.3693 3.89424 53.9562 3.67076" stroke="#8B2929" stroke-linecap="square"/>
<path d="M79.7819 18.9714C81.8991 18.7063 84.2057 20.1023 84.9385 22.0819C85.6713 24.0615 84.5568 25.886 82.4396 26.1511C80.3224 26.4162 78.0158 25.0201 77.283 23.0405C76.5502 21.0609 77.6647 19.2365 79.7819 18.9714Z" fill="#CC4F4F" stroke="#8B2929"/>
<path d="M80.5064 25.6653C80.5801 25.7235 80.6556 25.8409 80.5932 26.0657C80.5314 26.2883 80.3444 26.5667 80.0163 26.8832C79.3631 27.5134 78.2184 28.2298 76.7274 28.8691C75.2363 29.5083 73.7209 29.9322 72.4926 30.1087C71.8758 30.1973 71.3632 30.2188 70.9792 30.1873C70.5917 30.1554 70.4211 30.0787 70.3474 30.0206C70.2736 29.9624 70.1982 29.8449 70.2606 29.6202C70.3224 29.3975 70.5094 29.1192 70.8374 28.8027C71.4907 28.1725 72.6353 27.456 74.1264 26.8168C75.6175 26.1775 77.1328 25.7536 78.3612 25.5772C78.978 25.4886 79.4906 25.4671 79.8745 25.4986C80.2621 25.5304 80.4327 25.6071 80.5064 25.6653Z" fill="#CC4F4F" stroke="#8B2929"/>
<path d="M81.7832 26.6719C82.2878 26.5304 82.996 26.626 83.7936 26.9859C84.5881 27.3444 85.4108 27.943 86.0423 28.705C86.6738 29.467 86.9663 30.2142 86.9536 30.799C86.9408 31.3861 86.6282 31.7679 86.1236 31.9093C85.6191 32.0508 84.9108 31.9552 84.1132 31.5953C83.3188 31.2368 82.496 30.6382 81.8645 29.8762C81.233 29.1142 80.9405 28.367 80.9532 27.7822C80.966 27.1951 81.2786 26.8133 81.7832 26.6719Z" fill="#CC4F4F" stroke="#8B2929"/>
<path d="M80.4979 25.4752C82.2614 25.7992 82.9965 27.5402 81.9557 29.4569C80.9149 31.3735 78.5939 32.5532 76.8303 32.2292C75.0668 31.9053 74.3317 30.1643 75.3725 28.2476C76.4133 26.3309 78.7343 25.1513 80.4979 25.4752Z" fill="#CC4F4F" stroke="#8B2929"/>
</svg>
