<svg width="207" height="519" viewBox="0 0 207 519" fill="none" xmlns="http://www.w3.org/2000/svg">
<g clip-path="url(#clip0_46_14029)">
<path d="M117.553 244.201C126.443 268.625 137.373 289.668 147.848 303.944C153.087 311.085 158.195 316.509 162.856 319.822C167.533 323.146 171.653 324.272 174.987 323.058C178.322 321.845 180.754 318.334 182.2 312.782C183.642 307.248 184.068 299.809 183.491 290.971C182.338 273.302 177.186 250.156 168.296 225.732C159.407 201.308 148.476 180.266 138.002 165.99C132.762 158.849 127.655 153.424 122.993 150.112C118.316 146.788 114.196 145.662 110.862 146.875C107.528 148.089 105.096 151.6 103.649 157.152C102.208 162.686 101.782 170.125 102.358 178.963C103.511 196.632 108.663 219.777 117.553 244.201Z" fill="#DDBBAD" stroke="#DDBBAD"/>
<path d="M38.9329 225.732C30.0433 250.156 24.8911 273.301 23.7382 290.97C23.1616 299.808 23.5877 307.247 25.0292 312.781C26.4756 318.333 28.9079 321.844 32.242 323.057C35.5762 324.271 39.6964 323.145 44.3731 319.821C49.0346 316.509 54.1424 311.084 59.3816 303.943C69.856 289.667 80.7867 268.625 89.6763 244.201C98.5658 219.777 103.718 196.632 104.871 178.963C105.448 170.125 105.021 162.686 103.58 157.152C102.134 151.6 99.7012 148.089 96.3671 146.875C93.0329 145.662 88.9127 146.788 84.236 150.112C79.5745 153.424 74.4667 158.848 69.2275 165.989C58.7531 180.266 47.8224 201.308 38.9329 225.732Z" fill="#DDBBAD" stroke="#DDBBAD"/>
<path d="M57.6799 267.285C57.6799 335.768 77.1555 391.285 101.18 391.285C125.204 391.285 144.68 335.768 144.68 267.285C144.68 198.801 125.204 143.285 101.18 143.285C77.1555 143.285 57.6799 198.801 57.6799 267.285Z" fill="#DDBBAD"/>
<path d="M101.993 205.703C107.205 220.023 114.797 231.915 122.836 239.571C130.9 247.25 139.283 250.558 146.143 248.061C153.003 245.564 157.299 237.642 158.54 226.576C159.777 215.544 157.949 201.554 152.737 187.234C147.525 172.914 139.932 161.021 131.894 153.366C123.83 145.686 115.447 142.378 108.587 144.875C101.726 147.372 97.4307 155.295 96.1899 166.361C94.9529 177.393 96.7811 191.383 101.993 205.703Z" fill="#3645CD" stroke="#DDBBAD"/>
<rect width="46" height="65.7915" transform="matrix(-0.939693 0.34202 0.34202 0.939693 154.498 190.461)" fill="#3645CD"/>
<rect width="47.4679" height="71.3255" transform="matrix(-0.939693 -0.34202 -0.34202 0.939693 94.9999 206.672)" fill="#3645CD"/>
<path d="M50.8374 189.695C45.6253 204.015 43.7971 218.005 45.0341 229.037C46.2749 240.103 50.5706 248.025 57.4309 250.522C64.2912 253.019 72.6742 249.712 80.7379 242.032C88.7765 234.376 96.3687 222.484 101.581 208.164C106.793 193.844 108.621 179.854 107.384 168.822C106.143 157.756 101.848 149.834 94.9873 147.337C88.127 144.84 79.744 148.147 71.6803 155.827C63.6417 163.483 56.0495 175.375 50.8374 189.695Z" fill="#3645CD" stroke="#3645CD"/>
<path d="M97.4283 399.368C91.9291 430.556 89.9825 459.309 91.2735 480.579C91.9193 491.218 93.3736 499.957 95.5826 506.185C97.807 512.456 100.726 515.993 104.174 516.601C107.621 517.209 111.574 514.883 115.809 509.751C120.015 504.654 124.37 496.94 128.616 487.163C137.104 467.617 145.109 439.933 150.608 408.745C156.107 377.558 158.054 348.805 156.763 327.535C156.117 316.896 154.663 308.157 152.454 301.929C150.229 295.658 147.31 292.12 143.863 291.512C140.415 290.905 136.462 293.23 132.227 298.363C128.021 303.459 123.666 311.174 119.42 320.95C110.932 340.496 102.927 368.181 97.4283 399.368Z" fill="#DDBBAD" stroke="#DDBBAD"/>
<path d="M41.9999 267.461C41.9999 335.945 66.6242 391.461 96.9999 391.461C127.376 391.461 152 335.945 152 267.461C152 198.978 127.376 143.461 96.9999 143.461C66.6242 143.461 41.9999 198.978 41.9999 267.461Z" fill="#3645CD"/>
<line y1="-0.5" x2="101.607" y2="-0.5" transform="matrix(-0.177153 -0.984183 -0.984183 0.177153 116 498)" stroke="#B19C7C"/>
<line y1="-0.5" x2="5" y2="-0.5" transform="matrix(0 -1 -1 0 152 304)" stroke="#B19C7C"/>
<rect x="-0.564082" y="0.426394" width="61.6116" height="150.356" transform="matrix(-0.990476 -0.137688 -0.137688 0.990476 165.63 346.316)" fill="#F2DDBE" stroke="#B19C7C"/>
<path d="M66.7301 418.957C76.4002 445.526 88.0386 468.511 99.0274 484.193C104.524 492.038 109.841 498.031 114.65 501.736C119.481 505.459 123.672 506.777 126.987 505.57C130.303 504.364 132.665 500.66 133.974 494.703C135.276 488.774 135.497 480.765 134.665 471.222C133.002 452.145 127.144 427.057 117.474 400.488C107.803 373.92 96.1651 350.935 85.1763 335.252C79.6797 327.408 74.3623 321.414 69.5536 317.71C64.7222 313.987 60.5316 312.669 57.2162 313.875C53.9007 315.082 51.5382 318.786 50.2298 324.743C48.9275 330.672 48.7067 338.681 49.5384 348.224C51.2012 367.301 57.06 392.389 66.7301 418.957Z" fill="#DDBBAD" stroke="#DDBBAD"/>
<path d="M101.911 339.414L102.383 339.25L102.548 339.722L150.166 476.142L150.33 476.614L149.858 476.779L90.7443 497.413L90.2723 497.577L90.1075 497.105L42.4896 360.685L42.3248 360.213L42.7969 360.048L101.911 339.414Z" fill="#F2DDBE" stroke="#B19C7C"/>
<mask id="path-15-inside-1_46_14029" fill="white">
<path d="M152 296H42V361H152V296Z"/>
</mask>
<path d="M152 296H42V361H152V296Z" fill="#F2DDBE"/>
<path d="M42 296H41V295H42V296ZM152 297H42V295H152V297ZM43 296V361H41V296H43Z" fill="#B19C7C" mask="url(#path-15-inside-1_46_14029)"/>
<path d="M151.503 296.074L151.848 349.104L166.569 346.92L151.503 296.074Z" fill="#F2DDBE"/>
<line y1="-0.5" x2="52.2015" y2="-0.5" transform="matrix(-0.287348 -0.957826 -0.957826 0.287348 166 347)" stroke="#B19C7C"/>
<rect x="26.3794" y="74" width="161" height="42" fill="#DACD9F"/>
<rect x="36.3794" y="88" width="138" height="42" fill="#DACD9F"/>
<ellipse cx="107" cy="72" rx="84" ry="72" fill="#DACD9F"/>
<circle cx="105" cy="90" r="54" fill="#DDBBAD"/>
<rect x="72" y="36" width="70" height="30" rx="15" fill="#DACD9F"/>
<ellipse cx="126.5" cy="87" rx="8.5" ry="11" fill="#D9D9D9"/>
<ellipse cx="131" cy="87" rx="4" ry="6" fill="black"/>
<ellipse cx="80.5" cy="87" rx="8.5" ry="11" fill="#D9D9D9"/>
<ellipse cx="85" cy="87" rx="4" ry="6" fill="black"/>
<line x1="91" y1="117.5" x2="122" y2="117.5" stroke="black"/>
<line x1="99" y1="104.5" x2="110" y2="104.5" stroke="black"/>
<rect x="46.6981" y="172.862" width="31" height="173.512" transform="rotate(-35.8694 46.6981 172.862)" fill="#F2DDBE" stroke="#B19C7C"/>
</g>
<defs>
<clipPath id="clip0_46_14029">
<rect width="207" height="519" fill="white" transform="matrix(-1 0 0 1 207 0)"/>
</clipPath>
</defs>
</svg>
