<svg width="207" height="536" viewBox="0 0 207 536" fill="none" xmlns="http://www.w3.org/2000/svg">
<g clip-path="url(#clip0_46_16781)">
<rect x="23.7705" y="83.728" width="168" height="74.7314" fill="#C87426"/>
<ellipse cx="107.771" cy="79.7422" rx="84" ry="71.7422" fill="#C87426"/>
<ellipse cx="105.771" cy="97.6777" rx="54" ry="53.8066" fill="#DDBBAD"/>
<ellipse cx="127.271" cy="94.6886" rx="8.5" ry="10.9606" fill="#D9D9D9"/>
<ellipse cx="131.771" cy="94.6885" rx="4" ry="5.97852" fill="black"/>
<ellipse cx="81.2705" cy="94.6886" rx="8.5" ry="10.9606" fill="#D9D9D9"/>
<ellipse cx="85.7705" cy="94.6885" rx="4" ry="5.97852" fill="black"/>
<line x1="91.7705" y1="125.078" x2="122.771" y2="125.078" stroke="black"/>
<line x1="99.7705" y1="112.124" x2="110.771" y2="112.124" stroke="black"/>
<ellipse cx="106.271" cy="53.8354" rx="38.5" ry="11.957" fill="#C87426"/>
<path d="M117.324 251.327C126.213 275.663 137.144 296.63 147.618 310.855C152.857 317.97 157.965 323.375 162.626 326.675C167.302 329.987 171.423 331.109 174.757 329.9C178.092 328.691 180.524 325.192 181.97 319.66C183.412 314.146 183.838 306.734 183.261 297.928C182.108 280.323 176.956 257.26 168.067 232.924C159.177 208.588 148.247 187.621 137.772 173.396C132.533 166.281 127.426 160.876 122.764 157.575C118.088 154.264 113.968 153.141 110.633 154.351C107.298 155.56 104.866 159.059 103.42 164.591C101.979 170.105 101.553 177.516 102.129 186.322C103.282 203.928 108.434 226.99 117.324 251.327Z" fill="#DDBBAD" stroke="#DDBBAD"/>
<path d="M38.7036 232.923C29.8141 257.26 24.6619 280.322 23.5091 297.927C22.9324 306.734 23.3585 314.145 24.8001 319.659C26.2462 325.191 28.6784 328.69 32.0131 329.899C35.3477 331.108 39.468 329.986 44.1443 326.675C48.8056 323.374 53.9132 317.969 59.1523 310.854C69.6265 296.629 80.5571 275.662 89.4466 251.326C98.336 226.99 103.488 203.928 104.641 186.322C105.218 177.516 104.792 170.105 103.35 164.591C101.904 159.059 99.4717 155.56 96.137 154.351C92.8024 153.141 88.6822 154.264 84.0058 157.575C79.3445 160.876 74.237 166.28 68.9978 173.396C58.5237 187.621 47.593 208.587 38.7036 232.923Z" fill="#DDBBAD" stroke="#DDBBAD"/>
<path d="M57.4504 274.327C57.4504 342.566 76.9261 397.883 100.95 397.883C124.975 397.883 144.45 342.566 144.45 274.327C144.45 206.089 124.975 150.771 100.95 150.771C76.9261 150.771 57.4504 206.089 57.4504 274.327Z" fill="#DDBBAD"/>
<path d="M101.764 212.966C106.976 227.234 114.568 239.084 122.606 246.712C130.669 254.363 139.052 257.659 145.913 255.171C152.774 252.683 157.069 244.789 158.31 233.763C159.547 222.771 157.719 208.832 152.507 194.563C147.295 180.295 139.703 168.446 131.665 160.818C123.602 153.166 115.219 149.87 108.358 152.358C101.497 154.846 97.2015 162.741 95.9608 173.766C94.7239 184.758 96.552 198.698 101.764 212.966Z" fill="#3645CD" stroke="#DDBBAD"/>
<rect width="45.9808" height="65.5835" transform="matrix(-0.940086 0.340938 0.343105 0.939297 154.268 197.779)" fill="#3645CD"/>
<rect width="47.4481" height="71.1" transform="matrix(-0.940086 -0.340938 -0.343105 0.939297 94.7704 213.932)" fill="#3645CD"/>
<path d="M50.6081 197.016C45.3962 211.284 43.5681 225.224 44.805 236.216C46.0457 247.241 50.3411 255.136 57.2019 257.624C64.0628 260.112 72.4457 256.816 80.5088 249.164C88.5472 241.536 96.1392 229.687 101.351 215.419C106.563 201.15 108.391 187.211 107.154 176.219C105.913 165.193 101.618 157.299 94.7573 154.811C87.8964 152.322 79.5135 155.619 71.4504 163.27C63.412 170.898 55.82 182.747 50.6081 197.016Z" fill="#3645CD" stroke="#3645CD"/>
<path d="M97.1989 405.938C91.6997 437.014 89.7531 465.663 91.0441 486.857C91.6899 497.458 93.1442 506.165 95.3531 512.371C97.5772 518.618 100.496 522.144 103.944 522.75C107.392 523.355 111.346 521.038 115.58 515.924C119.786 510.846 124.141 503.16 128.387 493.418C136.874 473.942 144.879 446.357 150.378 415.282C155.878 384.206 157.824 355.557 156.533 334.363C155.887 323.762 154.433 315.055 152.224 308.849C150 302.602 147.081 299.076 143.633 298.47C140.185 297.865 136.232 300.182 131.997 305.296C127.791 310.374 123.436 318.06 119.191 327.802C110.703 347.278 102.698 374.863 97.1989 405.938Z" fill="#DDBBAD" stroke="#A67D6B"/>
<path d="M41.7704 274.504C41.7704 342.742 66.3947 398.06 96.7704 398.06C127.146 398.06 151.77 342.742 151.77 274.504C151.77 206.266 127.146 150.948 96.7704 150.948C66.3947 150.948 41.7704 206.266 41.7704 274.504Z" fill="#3645CD"/>
<line y1="-0.5" x2="101.255" y2="-0.5" transform="matrix(-0.17777 -0.984072 -0.984294 0.176538 115.771 504.217)" stroke="#B19C7C"/>
<line y1="-0.5" x2="4.9821" y2="-0.5" transform="matrix(0 -1 -1 0 151.771 310.912)" stroke="#B19C7C"/>
<rect x="-0.564358" y="0.426602" width="61.6074" height="149.825" transform="matrix(-0.990543 -0.137204 -0.138173 0.990408 165.4 353.076)" fill="#F2DDBE" stroke="#B19C7C"/>
<path d="M66.5008 425.457C76.1709 451.93 87.8091 474.833 98.7977 490.459C104.294 498.275 109.611 504.247 114.42 507.939C119.251 511.647 123.441 512.961 126.757 511.759C130.073 510.556 132.436 506.865 133.744 500.93C135.046 495.023 135.267 487.043 134.435 477.534C132.773 458.526 126.914 433.528 117.244 407.055C107.574 380.581 95.9356 357.679 84.9469 342.053C79.4505 334.237 74.1332 328.265 69.3248 324.573C64.4938 320.865 60.3032 319.551 56.9872 320.753C53.6713 321.956 51.3089 325.646 50.0006 331.582C48.6984 337.489 48.4776 345.469 49.3093 354.977C50.9721 373.986 56.8308 398.984 66.5008 425.457Z" fill="#DDBBAD" stroke="#A67D6B"/>
<path d="M101.681 346.198L102.153 346.033L102.318 346.505L149.936 482.437L150.102 482.909L149.629 483.073L90.5154 503.633L90.0431 503.797L89.8778 503.325L42.2599 367.394L42.0946 366.922L42.5669 366.758L101.681 346.198Z" fill="#F2DDBE" stroke="#B19C7C"/>
<mask id="path-25-inside-1_46_16781" fill="white">
<path d="M151.771 302.94H41.7705V367.707H151.771V302.94Z"/>
</mask>
<path d="M151.771 302.94H41.7705V367.707H151.771V302.94Z" fill="#F2DDBE"/>
<path d="M41.7705 302.94H40.7705V301.94H41.7705V302.94ZM151.771 303.94H41.7705V301.94H151.771V303.94ZM42.7705 302.94V367.707H40.7705V302.94H42.7705Z" fill="#B19C7C" mask="url(#path-25-inside-1_46_16781)"/>
<path d="M151.273 303.013L151.618 355.854L166.34 353.678L151.273 303.013Z" fill="#F2DDBE"/>
<line y1="-0.5" x2="52.0301" y2="-0.5" transform="matrix(-0.288295 -0.957542 -0.958109 0.286403 165.771 353.757)" stroke="#B19C7C"/>
<rect x="0.699335" y="0.112398" width="30.9607" height="173.101" transform="matrix(0.811351 -0.584559 0.587319 0.809355 37.8364 182.554)" fill="#F2DDBE" stroke="#B19C7C"/>
</g>
<defs>
<clipPath id="clip0_46_16781">
<rect width="207" height="536" fill="white" transform="matrix(-1 0 0 1 207 0)"/>
</clipPath>
</defs>
</svg>
