<svg width="588" height="183" viewBox="0 0 588 183" fill="none" xmlns="http://www.w3.org/2000/svg">
<rect width="588" height="183" fill="#F5E9D7"/>
<path d="M81.4562 35.666L77.0122 51H74.7682L71.2042 38.658L67.5082 51L65.2862 51.022L60.9962 35.666H63.1302L66.4742 48.668L70.1702 35.666H72.4142L75.9342 48.624L79.3002 35.666H81.4562ZM94.6471 44.51C94.6471 44.8913 94.6251 45.2947 94.5811 45.72H84.9451C85.0184 46.908 85.4218 47.8393 86.1551 48.514C86.9031 49.174 87.8051 49.504 88.8611 49.504C89.7264 49.504 90.4451 49.306 91.0171 48.91C91.6038 48.4993 92.0144 47.9567 92.2491 47.282H94.4051C94.0824 48.4407 93.4371 49.3867 92.4691 50.12C91.5011 50.8387 90.2984 51.198 88.8611 51.198C87.7171 51.198 86.6904 50.9413 85.7811 50.428C84.8864 49.9147 84.1824 49.1887 83.6691 48.25C83.1558 47.2967 82.8991 46.1967 82.8991 44.95C82.8991 43.7033 83.1484 42.6107 83.6471 41.672C84.1458 40.7333 84.8424 40.0147 85.7371 39.516C86.6464 39.0027 87.6878 38.746 88.8611 38.746C90.0051 38.746 91.0171 38.9953 91.8971 39.494C92.7771 39.9927 93.4518 40.682 93.9211 41.562C94.4051 42.4273 94.6471 43.41 94.6471 44.51ZM92.5791 44.092C92.5791 43.3293 92.4104 42.6767 92.0731 42.134C91.7358 41.5767 91.2738 41.1587 90.6871 40.88C90.1151 40.5867 89.4771 40.44 88.7731 40.44C87.7611 40.44 86.8958 40.7627 86.1771 41.408C85.4731 42.0533 85.0698 42.948 84.9671 44.092H92.5791ZM102.407 44.928C102.407 43.696 102.656 42.618 103.155 41.694C103.654 40.7553 104.336 40.0293 105.201 39.516C106.081 39.0027 107.056 38.746 108.127 38.746C109.183 38.746 110.1 38.9733 110.877 39.428C111.654 39.8827 112.234 40.4547 112.615 41.144V38.944H114.639V51H112.615V48.756C112.219 49.46 111.625 50.0467 110.833 50.516C110.056 50.9707 109.146 51.198 108.105 51.198C107.034 51.198 106.066 50.934 105.201 50.406C104.336 49.878 103.654 49.1373 103.155 48.184C102.656 47.2307 102.407 46.1453 102.407 44.928ZM112.615 44.95C112.615 44.0407 112.432 43.2487 112.065 42.574C111.698 41.8993 111.2 41.386 110.569 41.034C109.953 40.6673 109.271 40.484 108.523 40.484C107.775 40.484 107.093 40.66 106.477 41.012C105.861 41.364 105.37 41.8773 105.003 42.552C104.636 43.2267 104.453 44.0187 104.453 44.928C104.453 45.852 104.636 46.6587 105.003 47.348C105.37 48.0227 105.861 48.5433 106.477 48.91C107.093 49.262 107.775 49.438 108.523 49.438C109.271 49.438 109.953 49.262 110.569 48.91C111.2 48.5433 111.698 48.0227 112.065 47.348C112.432 46.6587 112.615 45.8593 112.615 44.95ZM120.024 40.902C120.376 40.2127 120.875 39.6773 121.52 39.296C122.18 38.9147 122.979 38.724 123.918 38.724V40.792H123.39C121.146 40.792 120.024 42.0093 120.024 44.444V51H118.022V38.944H120.024V40.902ZM137.229 44.51C137.229 44.8913 137.207 45.2947 137.163 45.72H127.527C127.6 46.908 128.004 47.8393 128.737 48.514C129.485 49.174 130.387 49.504 131.443 49.504C132.308 49.504 133.027 49.306 133.599 48.91C134.186 48.4993 134.596 47.9567 134.831 47.282H136.987C136.664 48.4407 136.019 49.3867 135.051 50.12C134.083 50.8387 132.88 51.198 131.443 51.198C130.299 51.198 129.272 50.9413 128.363 50.428C127.468 49.9147 126.764 49.1887 126.251 48.25C125.738 47.2967 125.481 46.1967 125.481 44.95C125.481 43.7033 125.73 42.6107 126.229 41.672C126.728 40.7333 127.424 40.0147 128.319 39.516C129.228 39.0027 130.27 38.746 131.443 38.746C132.587 38.746 133.599 38.9953 134.479 39.494C135.359 39.9927 136.034 40.682 136.503 41.562C136.987 42.4273 137.229 43.41 137.229 44.51ZM135.161 44.092C135.161 43.3293 134.992 42.6767 134.655 42.134C134.318 41.5767 133.856 41.1587 133.269 40.88C132.697 40.5867 132.059 40.44 131.355 40.44C130.343 40.44 129.478 40.7627 128.759 41.408C128.055 42.0533 127.652 42.948 127.549 44.092H135.161ZM150.709 38.746C151.75 38.746 152.66 38.9733 153.437 39.428C154.229 39.8827 154.816 40.4547 155.197 41.144V38.944H157.221V51.264C157.221 52.364 156.986 53.3393 156.517 54.19C156.048 55.0553 155.373 55.73 154.493 56.214C153.628 56.698 152.616 56.94 151.457 56.94C149.873 56.94 148.553 56.566 147.497 55.818C146.441 55.07 145.818 54.0507 145.627 52.76H147.607C147.827 53.4933 148.282 54.08 148.971 54.52C149.66 54.9747 150.489 55.202 151.457 55.202C152.557 55.202 153.452 54.8573 154.141 54.168C154.845 53.4787 155.197 52.5107 155.197 51.264V48.734C154.801 49.438 154.214 50.0247 153.437 50.494C152.66 50.9633 151.75 51.198 150.709 51.198C149.638 51.198 148.663 50.934 147.783 50.406C146.918 49.878 146.236 49.1373 145.737 48.184C145.238 47.2307 144.989 46.1453 144.989 44.928C144.989 43.696 145.238 42.618 145.737 41.694C146.236 40.7553 146.918 40.0293 147.783 39.516C148.663 39.0027 149.638 38.746 150.709 38.746ZM155.197 44.95C155.197 44.0407 155.014 43.2487 154.647 42.574C154.28 41.8993 153.782 41.386 153.151 41.034C152.535 40.6673 151.853 40.484 151.105 40.484C150.357 40.484 149.675 40.66 149.059 41.012C148.443 41.364 147.952 41.8773 147.585 42.552C147.218 43.2267 147.035 44.0187 147.035 44.928C147.035 45.852 147.218 46.6587 147.585 47.348C147.952 48.0227 148.443 48.5433 149.059 48.91C149.675 49.262 150.357 49.438 151.105 49.438C151.853 49.438 152.535 49.262 153.151 48.91C153.782 48.5433 154.28 48.0227 154.647 47.348C155.014 46.6587 155.197 45.8593 155.197 44.95ZM165.862 51.198C164.733 51.198 163.706 50.9413 162.782 50.428C161.873 49.9147 161.154 49.1887 160.626 48.25C160.113 47.2967 159.856 46.1967 159.856 44.95C159.856 43.718 160.12 42.6327 160.648 41.694C161.191 40.7407 161.924 40.0147 162.848 39.516C163.772 39.0027 164.806 38.746 165.95 38.746C167.094 38.746 168.128 39.0027 169.052 39.516C169.976 40.0147 170.702 40.7333 171.23 41.672C171.773 42.6107 172.044 43.7033 172.044 44.95C172.044 46.1967 171.765 47.2967 171.208 48.25C170.665 49.1887 169.925 49.9147 168.986 50.428C168.047 50.9413 167.006 51.198 165.862 51.198ZM165.862 49.438C166.581 49.438 167.255 49.2693 167.886 48.932C168.517 48.5947 169.023 48.0887 169.404 47.414C169.8 46.7393 169.998 45.918 169.998 44.95C169.998 43.982 169.807 43.1607 169.426 42.486C169.045 41.8113 168.546 41.3127 167.93 40.99C167.314 40.6527 166.647 40.484 165.928 40.484C165.195 40.484 164.52 40.6527 163.904 40.99C163.303 41.3127 162.819 41.8113 162.452 42.486C162.085 43.1607 161.902 43.982 161.902 44.95C161.902 45.9327 162.078 46.7613 162.43 47.436C162.797 48.1107 163.281 48.6167 163.882 48.954C164.483 49.2767 165.143 49.438 165.862 49.438ZM175.71 36.986C175.329 36.986 175.006 36.854 174.742 36.59C174.478 36.326 174.346 36.0033 174.346 35.622C174.346 35.2407 174.478 34.918 174.742 34.654C175.006 34.39 175.329 34.258 175.71 34.258C176.077 34.258 176.385 34.39 176.634 34.654C176.898 34.918 177.03 35.2407 177.03 35.622C177.03 36.0033 176.898 36.326 176.634 36.59C176.385 36.854 176.077 36.986 175.71 36.986ZM176.678 38.944V51H174.676V38.944H176.678ZM185.964 38.724C187.431 38.724 188.619 39.1713 189.528 40.066C190.438 40.946 190.892 42.222 190.892 43.894V51H188.912V44.18C188.912 42.9773 188.612 42.0607 188.01 41.43C187.409 40.7847 186.588 40.462 185.546 40.462C184.49 40.462 183.647 40.792 183.016 41.452C182.4 42.112 182.092 43.0727 182.092 44.334V51H180.09V38.944H182.092V40.66C182.488 40.044 183.024 39.5673 183.698 39.23C184.388 38.8927 185.143 38.724 185.964 38.724ZM199.135 38.746C200.176 38.746 201.085 38.9733 201.863 39.428C202.655 39.8827 203.241 40.4547 203.623 41.144V38.944H205.647V51.264C205.647 52.364 205.412 53.3393 204.943 54.19C204.473 55.0553 203.799 55.73 202.919 56.214C202.053 56.698 201.041 56.94 199.883 56.94C198.299 56.94 196.979 56.566 195.923 55.818C194.867 55.07 194.243 54.0507 194.053 52.76H196.033C196.253 53.4933 196.707 54.08 197.397 54.52C198.086 54.9747 198.915 55.202 199.883 55.202C200.983 55.202 201.877 54.8573 202.567 54.168C203.271 53.4787 203.623 52.5107 203.623 51.264V48.734C203.227 49.438 202.64 50.0247 201.863 50.494C201.085 50.9633 200.176 51.198 199.135 51.198C198.064 51.198 197.089 50.934 196.209 50.406C195.343 49.878 194.661 49.1373 194.163 48.184C193.664 47.2307 193.415 46.1453 193.415 44.928C193.415 43.696 193.664 42.618 194.163 41.694C194.661 40.7553 195.343 40.0293 196.209 39.516C197.089 39.0027 198.064 38.746 199.135 38.746ZM203.623 44.95C203.623 44.0407 203.439 43.2487 203.073 42.574C202.706 41.8993 202.207 41.386 201.577 41.034C200.961 40.6673 200.279 40.484 199.531 40.484C198.783 40.484 198.101 40.66 197.485 41.012C196.869 41.364 196.377 41.8773 196.011 42.552C195.644 43.2267 195.461 44.0187 195.461 44.928C195.461 45.852 195.644 46.6587 196.011 47.348C196.377 48.0227 196.869 48.5433 197.485 48.91C198.101 49.262 198.783 49.438 199.531 49.438C200.279 49.438 200.961 49.262 201.577 48.91C202.207 48.5433 202.706 48.0227 203.073 47.348C203.439 46.6587 203.623 45.8593 203.623 44.95ZM217.337 40.594V47.7C217.337 48.2867 217.462 48.7047 217.711 48.954C217.96 49.1887 218.393 49.306 219.009 49.306H220.483V51H218.679C217.564 51 216.728 50.7433 216.171 50.23C215.614 49.7167 215.335 48.8733 215.335 47.7V40.594H213.773V38.944H215.335V35.908H217.337V38.944H220.483V40.594H217.337ZM228.167 51.198C227.037 51.198 226.011 50.9413 225.087 50.428C224.177 49.9147 223.459 49.1887 222.931 48.25C222.417 47.2967 222.161 46.1967 222.161 44.95C222.161 43.718 222.425 42.6327 222.953 41.694C223.495 40.7407 224.229 40.0147 225.153 39.516C226.077 39.0027 227.111 38.746 228.255 38.746C229.399 38.746 230.433 39.0027 231.357 39.516C232.281 40.0147 233.007 40.7333 233.535 41.672C234.077 42.6107 234.349 43.7033 234.349 44.95C234.349 46.1967 234.07 47.2967 233.513 48.25C232.97 49.1887 232.229 49.9147 231.291 50.428C230.352 50.9413 229.311 51.198 228.167 51.198ZM228.167 49.438C228.885 49.438 229.56 49.2693 230.191 48.932C230.821 48.5947 231.327 48.0887 231.709 47.414C232.105 46.7393 232.303 45.918 232.303 44.95C232.303 43.982 232.112 43.1607 231.731 42.486C231.349 41.8113 230.851 41.3127 230.235 40.99C229.619 40.6527 228.951 40.484 228.233 40.484C227.499 40.484 226.825 40.6527 226.209 40.99C225.607 41.3127 225.123 41.8113 224.757 42.486C224.39 43.1607 224.207 43.982 224.207 44.95C224.207 45.9327 224.383 46.7613 224.735 47.436C225.101 48.1107 225.585 48.6167 226.187 48.954C226.788 49.2767 227.448 49.438 228.167 49.438ZM247.752 40.594H245.222V51H243.22V40.594H241.658V38.944H243.22V38.086C243.22 36.7367 243.565 35.754 244.254 35.138C244.958 34.5073 246.08 34.192 247.62 34.192V35.864C246.74 35.864 246.117 36.04 245.75 36.392C245.398 36.7293 245.222 37.294 245.222 38.086V38.944H247.752V40.594ZM255.345 51.198C254.215 51.198 253.189 50.9413 252.265 50.428C251.355 49.9147 250.637 49.1887 250.109 48.25C249.595 47.2967 249.339 46.1967 249.339 44.95C249.339 43.718 249.603 42.6327 250.131 41.694C250.673 40.7407 251.407 40.0147 252.331 39.516C253.255 39.0027 254.289 38.746 255.433 38.746C256.577 38.746 257.611 39.0027 258.535 39.516C259.459 40.0147 260.185 40.7333 260.713 41.672C261.255 42.6107 261.527 43.7033 261.527 44.95C261.527 46.1967 261.248 47.2967 260.691 48.25C260.148 49.1887 259.407 49.9147 258.469 50.428C257.53 50.9413 256.489 51.198 255.345 51.198ZM255.345 49.438C256.063 49.438 256.738 49.2693 257.369 48.932C257.999 48.5947 258.505 48.0887 258.887 47.414C259.283 46.7393 259.481 45.918 259.481 44.95C259.481 43.982 259.29 43.1607 258.909 42.486C258.527 41.8113 258.029 41.3127 257.413 40.99C256.797 40.6527 256.129 40.484 255.411 40.484C254.677 40.484 254.003 40.6527 253.387 40.99C252.785 41.3127 252.301 41.8113 251.935 42.486C251.568 43.1607 251.385 43.982 251.385 44.95C251.385 45.9327 251.561 46.7613 251.913 47.436C252.279 48.1107 252.763 48.6167 253.365 48.954C253.966 49.2767 254.626 49.438 255.345 49.438ZM266.161 34.72V51H264.159V34.72H266.161ZM271.575 34.72V51H269.573V34.72H271.575ZM280.245 51.198C279.116 51.198 278.089 50.9413 277.165 50.428C276.256 49.9147 275.537 49.1887 275.009 48.25C274.496 47.2967 274.239 46.1967 274.239 44.95C274.239 43.718 274.503 42.6327 275.031 41.694C275.574 40.7407 276.307 40.0147 277.231 39.516C278.155 39.0027 279.189 38.746 280.333 38.746C281.477 38.746 282.511 39.0027 283.435 39.516C284.359 40.0147 285.085 40.7333 285.613 41.672C286.156 42.6107 286.427 43.7033 286.427 44.95C286.427 46.1967 286.148 47.2967 285.591 48.25C285.048 49.1887 284.308 49.9147 283.369 50.428C282.43 50.9413 281.389 51.198 280.245 51.198ZM280.245 49.438C280.964 49.438 281.638 49.2693 282.269 48.932C282.9 48.5947 283.406 48.0887 283.787 47.414C284.183 46.7393 284.381 45.918 284.381 44.95C284.381 43.982 284.19 43.1607 283.809 42.486C283.428 41.8113 282.929 41.3127 282.313 40.99C281.697 40.6527 281.03 40.484 280.311 40.484C279.578 40.484 278.903 40.6527 278.287 40.99C277.686 41.3127 277.202 41.8113 276.835 42.486C276.468 43.1607 276.285 43.982 276.285 44.95C276.285 45.9327 276.461 46.7613 276.813 47.436C277.18 48.1107 277.664 48.6167 278.265 48.954C278.866 49.2767 279.526 49.438 280.245 49.438ZM305.119 38.944L301.357 51H299.289L296.385 41.43L293.481 51H291.413L287.629 38.944H289.675L292.447 49.064L295.439 38.944H297.485L300.411 49.086L303.139 38.944H305.119ZM315.413 40.594V47.7C315.413 48.2867 315.538 48.7047 315.787 48.954C316.037 49.1887 316.469 49.306 317.085 49.306H318.559V51H316.755C315.641 51 314.805 50.7433 314.247 50.23C313.69 49.7167 313.411 48.8733 313.411 47.7V40.594H311.849V38.944H313.411V35.908H315.413V38.944H318.559V40.594H315.413ZM326.969 38.724C327.878 38.724 328.7 38.922 329.433 39.318C330.166 39.6993 330.738 40.2787 331.149 41.056C331.574 41.8333 331.787 42.7793 331.787 43.894V51H329.807V44.18C329.807 42.9773 329.506 42.0607 328.905 41.43C328.304 40.7847 327.482 40.462 326.441 40.462C325.385 40.462 324.542 40.792 323.911 41.452C323.295 42.112 322.987 43.0727 322.987 44.334V51H320.985V34.72H322.987V40.66C323.383 40.044 323.926 39.5673 324.615 39.23C325.319 38.8927 326.104 38.724 326.969 38.724ZM346.057 44.51C346.057 44.8913 346.035 45.2947 345.991 45.72L336.355 45.72C336.429 46.908 336.832 47.8393 337.565 48.514C338.313 49.174 339.215 49.504 340.271 49.504C341.137 49.504 341.855 49.306 342.427 48.91C343.014 48.4993 343.425 47.9567 343.659 47.282L345.815 47.282C345.493 48.4407 344.847 49.3867 343.879 50.12C342.911 50.8387 341.709 51.198 340.271 51.198C339.127 51.198 338.101 50.9413 337.191 50.428C336.297 49.9147 335.593 49.1887 335.079 48.25C334.566 47.2967 334.309 46.1967 334.309 44.95C334.309 43.7033 334.559 42.6107 335.057 41.672C335.556 40.7333 336.253 40.0147 337.147 39.516C338.057 39.0027 339.098 38.746 340.271 38.746C341.415 38.746 342.427 38.9953 343.307 39.494C344.187 39.9927 344.862 40.682 345.331 41.562C345.815 42.4273 346.057 43.41 346.057 44.51ZM343.989 44.092C343.989 43.3293 343.821 42.6767 343.483 42.134C343.146 41.5767 342.684 41.1587 342.097 40.88C341.525 40.5867 340.887 40.44 340.183 40.44C339.171 40.44 338.306 40.7627 337.587 41.408C336.883 42.0533 336.48 42.948 336.377 44.092L343.989 44.092ZM358.833 51.198C357.909 51.198 357.08 51.044 356.347 50.736C355.614 50.4133 355.034 49.9733 354.609 49.416C354.184 48.844 353.949 48.1913 353.905 47.458H355.973C356.032 48.0593 356.31 48.5507 356.809 48.932C357.322 49.3133 357.99 49.504 358.811 49.504C359.574 49.504 360.175 49.3353 360.615 48.998C361.055 48.6607 361.275 48.2353 361.275 47.722C361.275 47.194 361.04 46.8053 360.571 46.556C360.102 46.292 359.376 46.0353 358.393 45.786C357.498 45.5513 356.765 45.3167 356.193 45.082C355.636 44.8327 355.152 44.4733 354.741 44.004C354.345 43.52 354.147 42.8893 354.147 42.112C354.147 41.496 354.33 40.9313 354.697 40.418C355.064 39.9047 355.584 39.5013 356.259 39.208C356.934 38.9 357.704 38.746 358.569 38.746C359.904 38.746 360.982 39.0833 361.803 39.758C362.624 40.4327 363.064 41.3567 363.123 42.53H361.121C361.077 41.8993 360.82 41.3933 360.351 41.012C359.896 40.6307 359.28 40.44 358.503 40.44C357.784 40.44 357.212 40.594 356.787 40.902C356.362 41.21 356.149 41.6133 356.149 42.112C356.149 42.508 356.274 42.838 356.523 43.102C356.787 43.3513 357.11 43.5567 357.491 43.718C357.887 43.8647 358.43 44.0333 359.119 44.224C359.984 44.4587 360.688 44.6933 361.231 44.928C361.774 45.148 362.236 45.4853 362.617 45.94C363.013 46.3947 363.218 46.9887 363.233 47.722C363.233 48.382 363.05 48.976 362.683 49.504C362.316 50.032 361.796 50.45 361.121 50.758C360.461 51.0513 359.698 51.198 358.833 51.198ZM368.501 40.594V47.7C368.501 48.2867 368.626 48.7047 368.875 48.954C369.125 49.1887 369.557 49.306 370.173 49.306H371.647V51H369.843C368.729 51 367.893 50.7433 367.335 50.23C366.778 49.7167 366.499 48.8733 366.499 47.7V40.594H364.937V38.944H366.499V35.908H368.501V38.944H371.647V40.594H368.501ZM379.331 51.198C378.202 51.198 377.175 50.9413 376.251 50.428C375.342 49.9147 374.623 49.1887 374.095 48.25C373.582 47.2967 373.325 46.1967 373.325 44.95C373.325 43.718 373.589 42.6327 374.117 41.694C374.66 40.7407 375.393 40.0147 376.317 39.516C377.241 39.0027 378.275 38.746 379.419 38.746C380.563 38.746 381.597 39.0027 382.521 39.516C383.445 40.0147 384.171 40.7333 384.699 41.672C385.242 42.6107 385.513 43.7033 385.513 44.95C385.513 46.1967 385.234 47.2967 384.677 48.25C384.134 49.1887 383.394 49.9147 382.455 50.428C381.516 50.9413 380.475 51.198 379.331 51.198ZM379.331 49.438C380.05 49.438 380.724 49.2693 381.355 48.932C381.986 48.5947 382.492 48.0887 382.873 47.414C383.269 46.7393 383.467 45.918 383.467 44.95C383.467 43.982 383.276 43.1607 382.895 42.486C382.514 41.8113 382.015 41.3127 381.399 40.99C380.783 40.6527 380.116 40.484 379.397 40.484C378.664 40.484 377.989 40.6527 377.373 40.99C376.772 41.3127 376.288 41.8113 375.921 42.486C375.554 43.1607 375.371 43.982 375.371 44.95C375.371 45.9327 375.547 46.7613 375.899 47.436C376.266 48.1107 376.75 48.6167 377.351 48.954C377.952 49.2767 378.612 49.438 379.331 49.438ZM390.147 40.902C390.499 40.2127 390.998 39.6773 391.643 39.296C392.303 38.9147 393.102 38.724 394.041 38.724V40.792H393.513C391.269 40.792 390.147 42.0093 390.147 44.444V51H388.145V38.944H390.147V40.902ZM406.736 38.944L399.476 56.676H397.408L399.784 50.868L394.922 38.944H397.144L400.928 48.712L404.668 38.944H406.736ZM419.872 51.198C418.743 51.198 417.716 50.9413 416.792 50.428C415.883 49.9147 415.164 49.1887 414.636 48.25C414.123 47.2967 413.866 46.1967 413.866 44.95C413.866 43.718 414.13 42.6327 414.658 41.694C415.201 40.7407 415.934 40.0147 416.858 39.516C417.782 39.0027 418.816 38.746 419.96 38.746C421.104 38.746 422.138 39.0027 423.062 39.516C423.986 40.0147 424.712 40.7333 425.24 41.672C425.783 42.6107 426.054 43.7033 426.054 44.95C426.054 46.1967 425.775 47.2967 425.218 48.25C424.675 49.1887 423.935 49.9147 422.996 50.428C422.057 50.9413 421.016 51.198 419.872 51.198ZM419.872 49.438C420.591 49.438 421.265 49.2693 421.896 48.932C422.527 48.5947 423.033 48.0887 423.414 47.414C423.81 46.7393 424.008 45.918 424.008 44.95C424.008 43.982 423.817 43.1607 423.436 42.486C423.055 41.8113 422.556 41.3127 421.94 40.99C421.324 40.6527 420.657 40.484 419.938 40.484C419.205 40.484 418.53 40.6527 417.914 40.99C417.313 41.3127 416.829 41.8113 416.462 42.486C416.095 43.1607 415.912 43.982 415.912 44.95C415.912 45.9327 416.088 46.7613 416.44 47.436C416.807 48.1107 417.291 48.6167 417.892 48.954C418.493 49.2767 419.153 49.438 419.872 49.438ZM433.592 40.594H431.062V51H429.06V40.594H427.498V38.944H429.06V38.086C429.06 36.7367 429.405 35.754 430.094 35.138C430.798 34.5073 431.92 34.192 433.46 34.192V35.864C432.58 35.864 431.957 36.04 431.59 36.392C431.238 36.7293 431.062 37.294 431.062 38.086V38.944H433.592V40.594ZM440.868 43.3C440.868 41.7893 441.205 40.44 441.88 39.252C442.569 38.0493 443.5 37.118 444.674 36.458C445.862 35.7833 447.189 35.446 448.656 35.446C450.372 35.446 451.875 35.886 453.166 36.766C454.456 37.646 455.358 38.8633 455.872 40.418H452.33C451.978 39.6847 451.479 39.1347 450.834 38.768C450.203 38.4013 449.47 38.218 448.634 38.218C447.739 38.218 446.94 38.4307 446.236 38.856C445.546 39.2667 445.004 39.8533 444.608 40.616C444.226 41.3787 444.036 42.2733 444.036 43.3C444.036 44.312 444.226 45.2067 444.608 45.984C445.004 46.7467 445.546 47.3407 446.236 47.766C446.94 48.1767 447.739 48.382 448.634 48.382C449.47 48.382 450.203 48.1987 450.834 47.832C451.479 47.4507 451.978 46.8933 452.33 46.16H455.872C455.358 47.7293 454.456 48.954 453.166 49.834C451.89 50.6993 450.386 51.132 448.656 51.132C447.189 51.132 445.862 50.802 444.674 50.142C443.5 49.4673 442.569 48.536 441.88 47.348C441.205 46.16 440.868 44.8107 440.868 43.3ZM461.582 34.72V51H458.502V34.72H461.582ZM463.833 44.862C463.833 43.63 464.075 42.5373 464.559 41.584C465.058 40.6307 465.725 39.8973 466.561 39.384C467.412 38.8707 468.358 38.614 469.399 38.614C470.309 38.614 471.101 38.7973 471.775 39.164C472.465 39.5307 473.015 39.9927 473.425 40.55V38.812H476.527V51H473.425V49.218C473.029 49.79 472.479 50.2667 471.775 50.648C471.086 51.0147 470.287 51.198 469.377 51.198C468.351 51.198 467.412 50.934 466.561 50.406C465.725 49.878 465.058 49.1373 464.559 48.184C464.075 47.216 463.833 46.1087 463.833 44.862ZM473.425 44.906C473.425 44.158 473.279 43.52 472.985 42.992C472.692 42.4493 472.296 42.0387 471.797 41.76C471.299 41.4667 470.763 41.32 470.191 41.32C469.619 41.32 469.091 41.4593 468.607 41.738C468.123 42.0167 467.727 42.4273 467.419 42.97C467.126 43.498 466.979 44.1287 466.979 44.862C466.979 45.5953 467.126 46.2407 467.419 46.798C467.727 47.3407 468.123 47.7587 468.607 48.052C469.106 48.3453 469.634 48.492 470.191 48.492C470.763 48.492 471.299 48.3527 471.797 48.074C472.296 47.7807 472.692 47.37 472.985 46.842C473.279 46.2993 473.425 45.654 473.425 44.906ZM482.616 40.704C483.012 40.0587 483.525 39.5527 484.156 39.186C484.801 38.8193 485.534 38.636 486.356 38.636V41.87H485.542C484.574 41.87 483.84 42.0973 483.342 42.552C482.858 43.0067 482.616 43.7987 482.616 44.928V51H479.536V38.812H482.616V40.704ZM487.638 44.862C487.638 43.63 487.88 42.5373 488.364 41.584C488.863 40.6307 489.53 39.8973 490.366 39.384C491.217 38.8707 492.163 38.614 493.204 38.614C494.113 38.614 494.905 38.7973 495.58 39.164C496.269 39.5307 496.819 39.9927 497.23 40.55V38.812H500.332V51H497.23V49.218C496.834 49.79 496.284 50.2667 495.58 50.648C494.891 51.0147 494.091 51.198 493.182 51.198C492.155 51.198 491.217 50.934 490.366 50.406C489.53 49.878 488.863 49.1373 488.364 48.184C487.88 47.216 487.638 46.1087 487.638 44.862ZM497.23 44.906C497.23 44.158 497.083 43.52 496.79 42.992C496.497 42.4493 496.101 42.0387 495.602 41.76C495.103 41.4667 494.568 41.32 493.996 41.32C493.424 41.32 492.896 41.4593 492.412 41.738C491.928 42.0167 491.532 42.4273 491.224 42.97C490.931 43.498 490.784 44.1287 490.784 44.862C490.784 45.5953 490.931 46.2407 491.224 46.798C491.532 47.3407 491.928 47.7587 492.412 48.052C492.911 48.3453 493.439 48.492 493.996 48.492C494.568 48.492 495.103 48.3527 495.602 48.074C496.101 47.7807 496.497 47.37 496.79 46.842C497.083 46.2993 497.23 45.654 497.23 44.906ZM505.584 48.228L503.12 54.146H501.778L503.384 48.228H505.584ZM512.995 44.928C512.995 43.696 513.244 42.618 513.743 41.694C514.241 40.7553 514.923 40.0293 515.789 39.516C516.669 39.0027 517.644 38.746 518.715 38.746C519.771 38.746 520.687 38.9733 521.465 39.428C522.242 39.8827 522.821 40.4547 523.203 41.144V38.944H525.227V51H523.203V48.756C522.807 49.46 522.213 50.0467 521.421 50.516C520.643 50.9707 519.734 51.198 518.693 51.198C517.622 51.198 516.654 50.934 515.789 50.406C514.923 49.878 514.241 49.1373 513.743 48.184C513.244 47.2307 512.995 46.1453 512.995 44.928ZM523.203 44.95C523.203 44.0407 523.019 43.2487 522.653 42.574C522.286 41.8993 521.787 41.386 521.157 41.034C520.541 40.6673 519.859 40.484 519.111 40.484C518.363 40.484 517.681 40.66 517.065 41.012C516.449 41.364 515.957 41.8773 515.591 42.552C515.224 43.2267 515.041 44.0187 515.041 44.928C515.041 45.852 515.224 46.6587 515.591 47.348C515.957 48.0227 516.449 48.5433 517.065 48.91C517.681 49.262 518.363 49.438 519.111 49.438C519.859 49.438 520.541 49.262 521.157 48.91C521.787 48.5433 522.286 48.0227 522.653 47.348C523.019 46.6587 523.203 45.8593 523.203 44.95ZM58.2344 84.198C57.3104 84.198 56.4818 84.044 55.7484 83.736C55.0151 83.4133 54.4358 82.9733 54.0104 82.416C53.5851 81.844 53.3504 81.1913 53.3064 80.458H55.3744C55.4331 81.0593 55.7118 81.5507 56.2104 81.932C56.7238 82.3133 57.3911 82.504 58.2124 82.504C58.9751 82.504 59.5764 82.3353 60.0164 81.998C60.4564 81.6607 60.6764 81.2353 60.6764 80.722C60.6764 80.194 60.4418 79.8053 59.9724 79.556C59.5031 79.292 58.7771 79.0353 57.7944 78.786C56.8998 78.5513 56.1664 78.3167 55.5944 78.082C55.0371 77.8327 54.5531 77.4733 54.1424 77.004C53.7464 76.52 53.5484 75.8893 53.5484 75.112C53.5484 74.496 53.7318 73.9313 54.0984 73.418C54.4651 72.9047 54.9858 72.5013 55.6604 72.208C56.3351 71.9 57.1051 71.746 57.9704 71.746C59.3051 71.746 60.3831 72.0833 61.2044 72.758C62.0258 73.4327 62.4658 74.3567 62.5244 75.53H60.5224C60.4784 74.8993 60.2218 74.3933 59.7524 74.012C59.2978 73.6307 58.6818 73.44 57.9044 73.44C57.1858 73.44 56.6138 73.594 56.1884 73.902C55.7631 74.21 55.5504 74.6133 55.5504 75.112C55.5504 75.508 55.6751 75.838 55.9244 76.102C56.1884 76.3513 56.5111 76.5567 56.8924 76.718C57.2884 76.8647 57.8311 77.0333 58.5204 77.224C59.3858 77.4587 60.0898 77.6933 60.6324 77.928C61.1751 78.148 61.6371 78.4853 62.0184 78.94C62.4144 79.3947 62.6198 79.9887 62.6344 80.722C62.6344 81.382 62.4511 81.976 62.0844 82.504C61.7178 83.032 61.1971 83.45 60.5224 83.758C59.8624 84.0513 59.0998 84.198 58.2344 84.198ZM79.9586 71.724C80.8972 71.724 81.7332 71.922 82.4666 72.318C83.1999 72.6993 83.7792 73.2787 84.2046 74.056C84.6299 74.8333 84.8426 75.7793 84.8426 76.894V84H82.8626V77.18C82.8626 75.9773 82.5619 75.0607 81.9606 74.43C81.3739 73.7847 80.5746 73.462 79.5626 73.462C78.5212 73.462 77.6926 73.7993 77.0766 74.474C76.4606 75.134 76.1526 76.0947 76.1526 77.356V84H74.1726V77.18C74.1726 75.9773 73.8719 75.0607 73.2706 74.43C72.6839 73.7847 71.8846 73.462 70.8726 73.462C69.8312 73.462 69.0026 73.7993 68.3866 74.474C67.7706 75.134 67.4626 76.0947 67.4626 77.356V84H65.4606V71.944H67.4626V73.682C67.8586 73.0513 68.3866 72.5673 69.0466 72.23C69.7212 71.8927 70.4619 71.724 71.2686 71.724C72.2806 71.724 73.1752 71.9513 73.9526 72.406C74.7299 72.8607 75.3092 73.528 75.6906 74.408C76.0279 73.5573 76.5852 72.8973 77.3626 72.428C78.1399 71.9587 79.0052 71.724 79.9586 71.724ZM87.3786 77.928C87.3786 76.696 87.6279 75.618 88.1266 74.694C88.6253 73.7553 89.3073 73.0293 90.1726 72.516C91.0526 72.0027 92.0279 71.746 93.0986 71.746C94.1546 71.746 95.0713 71.9733 95.8486 72.428C96.6259 72.8827 97.2053 73.4547 97.5866 74.144V71.944H99.6106V84H97.5866V81.756C97.1906 82.46 96.5966 83.0467 95.8046 83.516C95.0273 83.9707 94.1179 84.198 93.0766 84.198C92.0059 84.198 91.0379 83.934 90.1726 83.406C89.3073 82.878 88.6253 82.1373 88.1266 81.184C87.6279 80.2307 87.3786 79.1453 87.3786 77.928ZM97.5866 77.95C97.5866 77.0407 97.4033 76.2487 97.0366 75.574C96.6699 74.8993 96.1713 74.386 95.5406 74.034C94.9246 73.6673 94.2426 73.484 93.4946 73.484C92.7466 73.484 92.0646 73.66 91.4486 74.012C90.8326 74.364 90.3413 74.8773 89.9746 75.552C89.6079 76.2267 89.4246 77.0187 89.4246 77.928C89.4246 78.852 89.6079 79.6587 89.9746 80.348C90.3413 81.0227 90.8326 81.5433 91.4486 81.91C92.0646 82.262 92.7466 82.438 93.4946 82.438C94.2426 82.438 94.9246 82.262 95.5406 81.91C96.1713 81.5433 96.6699 81.0227 97.0366 80.348C97.4033 79.6587 97.5866 78.8593 97.5866 77.95ZM104.996 73.902C105.348 73.2127 105.846 72.6773 106.492 72.296C107.152 71.9147 107.951 71.724 108.89 71.724V73.792H108.362C106.118 73.792 104.996 75.0093 104.996 77.444V84H102.994V71.944H104.996V73.902ZM113.643 73.594V80.7C113.643 81.2867 113.767 81.7047 114.017 81.954C114.266 82.1887 114.699 82.306 115.315 82.306H116.789V84H114.985C113.87 84 113.034 83.7433 112.477 83.23C111.919 82.7167 111.641 81.8733 111.641 80.7V73.594H110.079V71.944H111.641V68.908H113.643V71.944H116.789V73.594H113.643ZM124.332 77.928C124.332 76.696 124.581 75.618 125.08 74.694C125.578 73.7553 126.26 73.0293 127.126 72.516C128.006 72.0027 128.981 71.746 130.052 71.746C131.108 71.746 132.024 71.9733 132.802 72.428C133.579 72.8827 134.158 73.4547 134.54 74.144V71.944H136.564V84H134.54V81.756C134.144 82.46 133.55 83.0467 132.758 83.516C131.98 83.9707 131.071 84.198 130.03 84.198C128.959 84.198 127.991 83.934 127.126 83.406C126.26 82.878 125.578 82.1373 125.08 81.184C124.581 80.2307 124.332 79.1453 124.332 77.928ZM134.54 77.95C134.54 77.0407 134.356 76.2487 133.99 75.574C133.623 74.8993 133.124 74.386 132.494 74.034C131.878 73.6673 131.196 73.484 130.448 73.484C129.7 73.484 129.018 73.66 128.402 74.012C127.786 74.364 127.294 74.8773 126.928 75.552C126.561 76.2267 126.378 77.0187 126.378 77.928C126.378 78.852 126.561 79.6587 126.928 80.348C127.294 81.0227 127.786 81.5433 128.402 81.91C129.018 82.262 129.7 82.438 130.448 82.438C131.196 82.438 131.878 82.262 132.494 81.91C133.124 81.5433 133.623 81.0227 133.99 80.348C134.356 79.6587 134.54 78.8593 134.54 77.95ZM145.821 71.724C147.288 71.724 148.476 72.1713 149.385 73.066C150.294 73.946 150.749 75.222 150.749 76.894V84H148.769V77.18C148.769 75.9773 148.468 75.0607 147.867 74.43C147.266 73.7847 146.444 73.462 145.403 73.462C144.347 73.462 143.504 73.792 142.873 74.452C142.257 75.112 141.949 76.0727 141.949 77.334V84H139.947V71.944H141.949V73.66C142.345 73.044 142.88 72.5673 143.555 72.23C144.244 71.8927 145 71.724 145.821 71.724ZM153.271 77.928C153.271 76.696 153.52 75.618 154.019 74.694C154.518 73.7553 155.2 73.0293 156.065 72.516C156.945 72.0027 157.928 71.746 159.013 71.746C159.952 71.746 160.824 71.966 161.631 72.406C162.438 72.8313 163.054 73.396 163.479 74.1V67.72H165.503V84H163.479V81.734C163.083 82.4527 162.496 83.0467 161.719 83.516C160.942 83.9707 160.032 84.198 158.991 84.198C157.92 84.198 156.945 83.934 156.065 83.406C155.2 82.878 154.518 82.1373 154.019 81.184C153.52 80.2307 153.271 79.1453 153.271 77.928ZM163.479 77.95C163.479 77.0407 163.296 76.2487 162.929 75.574C162.562 74.8993 162.064 74.386 161.433 74.034C160.817 73.6673 160.135 73.484 159.387 73.484C158.639 73.484 157.957 73.66 157.341 74.012C156.725 74.364 156.234 74.8773 155.867 75.552C155.5 76.2267 155.317 77.0187 155.317 77.928C155.317 78.852 155.5 79.6587 155.867 80.348C156.234 81.0227 156.725 81.5433 157.341 81.91C157.957 82.262 158.639 82.438 159.387 82.438C160.135 82.438 160.817 82.262 161.433 81.91C162.064 81.5433 162.562 81.0227 162.929 80.348C163.296 79.6587 163.479 78.8593 163.479 77.95ZM176.754 74.188C177.164 73.4693 177.766 72.8827 178.558 72.428C179.35 71.9733 180.252 71.746 181.264 71.746C182.349 71.746 183.324 72.0027 184.19 72.516C185.055 73.0293 185.737 73.7553 186.236 74.694C186.734 75.618 186.984 76.696 186.984 77.928C186.984 79.1453 186.734 80.2307 186.236 81.184C185.737 82.1373 185.048 82.878 184.168 83.406C183.302 83.934 182.334 84.198 181.264 84.198C180.222 84.198 179.306 83.9707 178.514 83.516C177.736 83.0613 177.15 82.482 176.754 81.778V84H174.752V67.72H176.754V74.188ZM184.938 77.928C184.938 77.0187 184.754 76.2267 184.388 75.552C184.021 74.8773 183.522 74.364 182.892 74.012C182.276 73.66 181.594 73.484 180.846 73.484C180.112 73.484 179.43 73.6673 178.8 74.034C178.184 74.386 177.685 74.9067 177.304 75.596C176.937 76.2707 176.754 77.0553 176.754 77.95C176.754 78.8593 176.937 79.6587 177.304 80.348C177.685 81.0227 178.184 81.5433 178.8 81.91C179.43 82.262 180.112 82.438 180.846 82.438C181.594 82.438 182.276 82.262 182.892 81.91C183.522 81.5433 184.021 81.0227 184.388 80.348C184.754 79.6587 184.938 78.852 184.938 77.928ZM191.621 73.902C191.973 73.2127 192.471 72.6773 193.117 72.296C193.777 71.9147 194.576 71.724 195.515 71.724V73.792H194.987C192.743 73.792 191.621 75.0093 191.621 77.444V84H189.619V71.944H191.621V73.902ZM197.078 77.928C197.078 76.696 197.327 75.618 197.826 74.694C198.324 73.7553 199.006 73.0293 199.872 72.516C200.752 72.0027 201.727 71.746 202.798 71.746C203.854 71.746 204.77 71.9733 205.548 72.428C206.325 72.8827 206.904 73.4547 207.286 74.144V71.944H209.31V84H207.286V81.756C206.89 82.46 206.296 83.0467 205.504 83.516C204.726 83.9707 203.817 84.198 202.776 84.198C201.705 84.198 200.737 83.934 199.872 83.406C199.006 82.878 198.324 82.1373 197.826 81.184C197.327 80.2307 197.078 79.1453 197.078 77.928ZM207.286 77.95C207.286 77.0407 207.102 76.2487 206.736 75.574C206.369 74.8993 205.87 74.386 205.24 74.034C204.624 73.6673 203.942 73.484 203.194 73.484C202.446 73.484 201.764 73.66 201.148 74.012C200.532 74.364 200.04 74.8773 199.674 75.552C199.307 76.2267 199.124 77.0187 199.124 77.928C199.124 78.852 199.307 79.6587 199.674 80.348C200.04 81.0227 200.532 81.5433 201.148 81.91C201.764 82.262 202.446 82.438 203.194 82.438C203.942 82.438 204.624 82.262 205.24 81.91C205.87 81.5433 206.369 81.0227 206.736 80.348C207.102 79.6587 207.286 78.8593 207.286 77.95ZM217.181 82.152L220.921 71.944H223.055L218.325 84H215.993L211.263 71.944H213.419L217.181 82.152ZM236.025 77.51C236.025 77.8913 236.003 78.2947 235.959 78.72H226.323C226.396 79.908 226.8 80.8393 227.533 81.514C228.281 82.174 229.183 82.504 230.239 82.504C231.104 82.504 231.823 82.306 232.395 81.91C232.982 81.4993 233.392 80.9567 233.627 80.282H235.783C235.46 81.4407 234.815 82.3867 233.847 83.12C232.879 83.8387 231.676 84.198 230.239 84.198C229.095 84.198 228.068 83.9413 227.159 83.428C226.264 82.9147 225.56 82.1887 225.047 81.25C224.534 80.2967 224.277 79.1967 224.277 77.95C224.277 76.7033 224.526 75.6107 225.025 74.672C225.524 73.7333 226.22 73.0147 227.115 72.516C228.024 72.0027 229.066 71.746 230.239 71.746C231.383 71.746 232.395 71.9953 233.275 72.494C234.155 72.9927 234.83 73.682 235.299 74.562C235.783 75.4273 236.025 76.41 236.025 77.51ZM233.957 77.092C233.957 76.3293 233.788 75.6767 233.451 75.134C233.114 74.5767 232.652 74.1587 232.065 73.88C231.493 73.5867 230.855 73.44 230.151 73.44C229.139 73.44 228.274 73.7627 227.555 74.408C226.851 75.0533 226.448 75.948 226.345 77.092H233.957ZM249.505 71.746C250.546 71.746 251.456 71.9733 252.233 72.428C253.025 72.8827 253.612 73.4547 253.993 74.144V71.944H256.017V84.264C256.017 85.364 255.782 86.3393 255.313 87.19C254.844 88.0553 254.169 88.73 253.289 89.214C252.424 89.698 251.412 89.94 250.253 89.94C248.669 89.94 247.349 89.566 246.293 88.818C245.237 88.07 244.614 87.0507 244.423 85.76H246.403C246.623 86.4933 247.078 87.08 247.767 87.52C248.456 87.9747 249.285 88.202 250.253 88.202C251.353 88.202 252.248 87.8573 252.937 87.168C253.641 86.4787 253.993 85.5107 253.993 84.264V81.734C253.597 82.438 253.01 83.0247 252.233 83.494C251.456 83.9633 250.546 84.198 249.505 84.198C248.434 84.198 247.459 83.934 246.579 83.406C245.714 82.878 245.032 82.1373 244.533 81.184C244.034 80.2307 243.785 79.1453 243.785 77.928C243.785 76.696 244.034 75.618 244.533 74.694C245.032 73.7553 245.714 73.0293 246.579 72.516C247.459 72.0027 248.434 71.746 249.505 71.746ZM253.993 77.95C253.993 77.0407 253.81 76.2487 253.443 75.574C253.076 74.8993 252.578 74.386 251.947 74.034C251.331 73.6673 250.649 73.484 249.901 73.484C249.153 73.484 248.471 73.66 247.855 74.012C247.239 74.364 246.748 74.8773 246.381 75.552C246.014 76.2267 245.831 77.0187 245.831 77.928C245.831 78.852 246.014 79.6587 246.381 80.348C246.748 81.0227 247.239 81.5433 247.855 81.91C248.471 82.262 249.153 82.438 249.901 82.438C250.649 82.438 251.331 82.262 251.947 81.91C252.578 81.5433 253.076 81.0227 253.443 80.348C253.81 79.6587 253.993 78.8593 253.993 77.95ZM260.434 69.986C260.053 69.986 259.73 69.854 259.466 69.59C259.202 69.326 259.07 69.0033 259.07 68.622C259.07 68.2407 259.202 67.918 259.466 67.654C259.73 67.39 260.053 67.258 260.434 67.258C260.801 67.258 261.109 67.39 261.358 67.654C261.622 67.918 261.754 68.2407 261.754 68.622C261.754 69.0033 261.622 69.326 261.358 69.59C261.109 69.854 260.801 69.986 260.434 69.986ZM261.402 71.944V84H259.4V71.944H261.402ZM266.816 73.902C267.168 73.2127 267.667 72.6773 268.312 72.296C268.972 71.9147 269.771 71.724 270.71 71.724V73.792H270.182C267.938 73.792 266.816 75.0093 266.816 77.444V84H264.814V71.944H266.816V73.902ZM275.023 67.72V84H273.021V67.72H275.023ZM289.206 73.594H286.676V84H284.674V73.594H283.112V71.944H284.674V71.086C284.674 69.7367 285.019 68.754 285.708 68.138C286.412 67.5073 287.534 67.192 289.074 67.192V68.864C288.194 68.864 287.571 69.04 287.204 69.392C286.852 69.7293 286.676 70.294 286.676 71.086V71.944H289.206V73.594ZM293.543 73.902C293.895 73.2127 294.393 72.6773 295.039 72.296C295.699 71.9147 296.498 71.724 297.437 71.724V73.792H296.909C294.665 73.792 293.543 75.0093 293.543 77.444V84H291.541V71.944H293.543V73.902ZM305.006 84.198C303.876 84.198 302.85 83.9413 301.926 83.428C301.016 82.9147 300.298 82.1887 299.77 81.25C299.256 80.2967 299 79.1967 299 77.95C299 76.718 299.264 75.6327 299.792 74.694C300.334 73.7407 301.068 73.0147 301.992 72.516C302.916 72.0027 303.95 71.746 305.094 71.746C306.238 71.746 307.272 72.0027 308.196 72.516C309.12 73.0147 309.846 73.7333 310.374 74.672C310.916 75.6107 311.188 76.7033 311.188 77.95C311.188 79.1967 310.909 80.2967 310.352 81.25C309.809 82.1887 309.068 82.9147 308.13 83.428C307.191 83.9413 306.15 84.198 305.006 84.198ZM305.006 82.438C305.724 82.438 306.399 82.2693 307.03 81.932C307.66 81.5947 308.166 81.0887 308.548 80.414C308.944 79.7393 309.142 78.918 309.142 77.95C309.142 76.982 308.951 76.1607 308.57 75.486C308.188 74.8113 307.69 74.3127 307.074 73.99C306.458 73.6527 305.79 73.484 305.072 73.484C304.338 73.484 303.664 73.6527 303.048 73.99C302.446 74.3127 301.962 74.8113 301.596 75.486C301.229 76.1607 301.046 76.982 301.046 77.95C301.046 78.9327 301.222 79.7613 301.574 80.436C301.94 81.1107 302.424 81.6167 303.026 81.954C303.627 82.2767 304.287 82.438 305.006 82.438ZM328.318 71.724C329.257 71.724 330.093 71.922 330.826 72.318C331.559 72.6993 332.139 73.2787 332.564 74.056C332.989 74.8333 333.202 75.7793 333.202 76.894V84H331.222V77.18C331.222 75.9773 330.921 75.0607 330.32 74.43C329.733 73.7847 328.934 73.462 327.922 73.462C326.881 73.462 326.052 73.7993 325.436 74.474C324.82 75.134 324.512 76.0947 324.512 77.356V84H322.532V77.18C322.532 75.9773 322.231 75.0607 321.63 74.43C321.043 73.7847 320.244 73.462 319.232 73.462C318.191 73.462 317.362 73.7993 316.746 74.474C316.13 75.134 315.822 76.0947 315.822 77.356V84H313.82V71.944H315.822V73.682C316.218 73.0513 316.746 72.5673 317.406 72.23C318.081 71.8927 318.821 71.724 319.628 71.724C320.64 71.724 321.535 71.9513 322.312 72.406C323.089 72.8607 323.669 73.528 324.05 74.408C324.387 73.5573 324.945 72.8973 325.722 72.428C326.499 71.9587 327.365 71.724 328.318 71.724ZM344.793 73.594V80.7C344.793 81.2867 344.918 81.7047 345.167 81.954C345.417 82.1887 345.849 82.306 346.465 82.306H347.939V84H346.135C345.021 84 344.185 83.7433 343.627 83.23C343.07 82.7167 342.791 81.8733 342.791 80.7V73.594H341.229V71.944H342.791V68.908H344.793V71.944H347.939V73.594H344.793ZM356.349 71.724C357.258 71.724 358.08 71.922 358.813 72.318C359.546 72.6993 360.118 73.2787 360.529 74.056C360.954 74.8333 361.167 75.7793 361.167 76.894V84H359.187V77.18C359.187 75.9773 358.886 75.0607 358.285 74.43C357.684 73.7847 356.862 73.462 355.821 73.462C354.765 73.462 353.922 73.792 353.291 74.452C352.675 75.112 352.367 76.0727 352.367 77.334V84H350.365V67.72H352.367V73.66C352.763 73.044 353.306 72.5673 353.995 72.23C354.699 71.8927 355.484 71.724 356.349 71.724ZM375.437 77.51C375.437 77.8913 375.415 78.2947 375.371 78.72H365.735C365.808 79.908 366.212 80.8393 366.945 81.514C367.693 82.174 368.595 82.504 369.651 82.504C370.516 82.504 371.235 82.306 371.807 81.91C372.394 81.4993 372.804 80.9567 373.039 80.282H375.195C374.872 81.4407 374.227 82.3867 373.259 83.12C372.291 83.8387 371.088 84.198 369.651 84.198C368.507 84.198 367.48 83.9413 366.571 83.428C365.676 82.9147 364.972 82.1887 364.459 81.25C363.946 80.2967 363.689 79.1967 363.689 77.95C363.689 76.7033 363.938 75.6107 364.437 74.672C364.936 73.7333 365.632 73.0147 366.527 72.516C367.436 72.0027 368.478 71.746 369.651 71.746C370.795 71.746 371.807 71.9953 372.687 72.494C373.567 72.9927 374.242 73.682 374.711 74.562C375.195 75.4273 375.437 76.41 375.437 77.51ZM373.369 77.092C373.369 76.3293 373.2 75.6767 372.863 75.134C372.526 74.5767 372.064 74.1587 371.477 73.88C370.905 73.5867 370.267 73.44 369.563 73.44C368.551 73.44 367.686 73.7627 366.967 74.408C366.263 75.0533 365.86 75.948 365.757 77.092H373.369ZM394.197 73.154C394.197 74.43 393.757 75.4933 392.877 76.344C392.012 77.18 390.684 77.598 388.895 77.598H385.947V84H383.945V68.666H388.895C390.626 68.666 391.938 69.084 392.833 69.92C393.742 70.756 394.197 71.834 394.197 73.154ZM388.895 75.948C390.01 75.948 390.831 75.706 391.359 75.222C391.887 74.738 392.151 74.0487 392.151 73.154C392.151 71.262 391.066 70.316 388.895 70.316H385.947V75.948H388.895ZM401.943 84.198C400.814 84.198 399.787 83.9413 398.863 83.428C397.954 82.9147 397.235 82.1887 396.707 81.25C396.194 80.2967 395.937 79.1967 395.937 77.95C395.937 76.718 396.201 75.6327 396.729 74.694C397.272 73.7407 398.005 73.0147 398.929 72.516C399.853 72.0027 400.887 71.746 402.031 71.746C403.175 71.746 404.209 72.0027 405.133 72.516C406.057 73.0147 406.783 73.7333 407.311 74.672C407.854 75.6107 408.125 76.7033 408.125 77.95C408.125 79.1967 407.847 80.2967 407.289 81.25C406.747 82.1887 406.006 82.9147 405.067 83.428C404.129 83.9413 403.087 84.198 401.943 84.198ZM401.943 82.438C402.662 82.438 403.337 82.2693 403.967 81.932C404.598 81.5947 405.104 81.0887 405.485 80.414C405.881 79.7393 406.079 78.918 406.079 77.95C406.079 76.982 405.889 76.1607 405.507 75.486C405.126 74.8113 404.627 74.3127 404.011 73.99C403.395 73.6527 402.728 73.484 402.009 73.484C401.276 73.484 400.601 73.6527 399.985 73.99C399.384 74.3127 398.9 74.8113 398.533 75.486C398.167 76.1607 397.983 76.982 397.983 77.95C397.983 78.9327 398.159 79.7613 398.511 80.436C398.878 81.1107 399.362 81.6167 399.963 81.954C400.565 82.2767 401.225 82.438 401.943 82.438ZM413.199 73.594V80.7C413.199 81.2867 413.324 81.7047 413.573 81.954C413.823 82.1887 414.255 82.306 414.871 82.306H416.345V84H414.541C413.427 84 412.591 83.7433 412.033 83.23C411.476 82.7167 411.197 81.8733 411.197 80.7V73.594H409.635V71.944H411.197V68.908H413.199V71.944H416.345V73.594H413.199ZM419.805 69.986C419.424 69.986 419.101 69.854 418.837 69.59C418.573 69.326 418.441 69.0033 418.441 68.622C418.441 68.2407 418.573 67.918 418.837 67.654C419.101 67.39 419.424 67.258 419.805 67.258C420.172 67.258 420.48 67.39 420.729 67.654C420.993 67.918 421.125 68.2407 421.125 68.622C421.125 69.0033 420.993 69.326 420.729 69.59C420.48 69.854 420.172 69.986 419.805 69.986ZM420.773 71.944V84H418.771V71.944H420.773ZM429.157 71.746C430.199 71.746 431.108 71.9733 431.885 72.428C432.677 72.8827 433.264 73.4547 433.645 74.144V71.944H435.669V84.264C435.669 85.364 435.435 86.3393 434.965 87.19C434.496 88.0553 433.821 88.73 432.941 89.214C432.076 89.698 431.064 89.94 429.905 89.94C428.321 89.94 427.001 89.566 425.945 88.818C424.889 88.07 424.266 87.0507 424.075 85.76H426.055C426.275 86.4933 426.73 87.08 427.419 87.52C428.109 87.9747 428.937 88.202 429.905 88.202C431.005 88.202 431.9 87.8573 432.589 87.168C433.293 86.4787 433.645 85.5107 433.645 84.264V81.734C433.249 82.438 432.663 83.0247 431.885 83.494C431.108 83.9633 430.199 84.198 429.157 84.198C428.087 84.198 427.111 83.934 426.231 83.406C425.366 82.878 424.684 82.1373 424.185 81.184C423.687 80.2307 423.437 79.1453 423.437 77.928C423.437 76.696 423.687 75.618 424.185 74.694C424.684 73.7553 425.366 73.0293 426.231 72.516C427.111 72.0027 428.087 71.746 429.157 71.746ZM433.645 77.95C433.645 77.0407 433.462 76.2487 433.095 75.574C432.729 74.8993 432.23 74.386 431.599 74.034C430.983 73.6673 430.301 73.484 429.553 73.484C428.805 73.484 428.123 73.66 427.507 74.012C426.891 74.364 426.4 74.8773 426.033 75.552C425.667 76.2267 425.483 77.0187 425.483 77.928C425.483 78.852 425.667 79.6587 426.033 80.348C426.4 81.0227 426.891 81.5433 427.507 81.91C428.123 82.262 428.805 82.438 429.553 82.438C430.301 82.438 430.983 82.262 431.599 81.91C432.23 81.5433 432.729 81.0227 433.095 80.348C433.462 79.6587 433.645 78.8593 433.645 77.95ZM449.744 71.944V84H447.742V82.218C447.361 82.834 446.826 83.318 446.136 83.67C445.462 84.0073 444.714 84.176 443.892 84.176C442.954 84.176 442.11 83.9853 441.362 83.604C440.614 83.208 440.02 82.6213 439.58 81.844C439.155 81.0667 438.942 80.1207 438.942 79.006V71.944H440.922V78.742C440.922 79.93 441.223 80.8467 441.824 81.492C442.426 82.1227 443.247 82.438 444.288 82.438C445.359 82.438 446.202 82.108 446.818 81.448C447.434 80.788 447.742 79.8273 447.742 78.566V71.944H449.744ZM452.377 77.928C452.377 76.696 452.626 75.618 453.125 74.694C453.623 73.7553 454.305 73.0293 455.171 72.516C456.051 72.0027 457.026 71.746 458.097 71.746C459.153 71.746 460.069 71.9733 460.847 72.428C461.624 72.8827 462.203 73.4547 462.585 74.144V71.944H464.609V84H462.585V81.756C462.189 82.46 461.595 83.0467 460.803 83.516C460.025 83.9707 459.116 84.198 458.075 84.198C457.004 84.198 456.036 83.934 455.171 83.406C454.305 82.878 453.623 82.1373 453.125 81.184C452.626 80.2307 452.377 79.1453 452.377 77.928ZM462.585 77.95C462.585 77.0407 462.401 76.2487 462.035 75.574C461.668 74.8993 461.169 74.386 460.539 74.034C459.923 73.6673 459.241 73.484 458.493 73.484C457.745 73.484 457.063 73.66 456.447 74.012C455.831 74.364 455.339 74.8773 454.973 75.552C454.606 76.2267 454.423 77.0187 454.423 77.928C454.423 78.852 454.606 79.6587 454.973 80.348C455.339 81.0227 455.831 81.5433 456.447 81.91C457.063 82.262 457.745 82.438 458.493 82.438C459.241 82.438 459.923 82.262 460.539 81.91C461.169 81.5433 461.668 81.0227 462.035 80.348C462.401 79.6587 462.585 78.8593 462.585 77.95ZM469.994 73.902C470.346 73.2127 470.844 72.6773 471.49 72.296C472.15 71.9147 472.949 71.724 473.888 71.724V73.792H473.36C471.116 73.792 469.994 75.0093 469.994 77.444V84H467.992V71.944H469.994V73.902ZM484.506 73.594V80.7C484.506 81.2867 484.631 81.7047 484.88 81.954C485.129 82.1887 485.562 82.306 486.178 82.306H487.652V84H485.848C484.733 84 483.897 83.7433 483.34 83.23C482.783 82.7167 482.504 81.8733 482.504 80.7V73.594H480.942V71.944H482.504V68.908H484.506V71.944H487.652V73.594H484.506ZM492.08 73.902C492.432 73.2127 492.93 72.6773 493.576 72.296C494.236 71.9147 495.035 71.724 495.974 71.724V73.792H495.446C493.202 73.792 492.08 75.0093 492.08 77.444V84H490.078V71.944H492.08V73.902ZM499.319 69.986C498.937 69.986 498.615 69.854 498.351 69.59C498.087 69.326 497.955 69.0033 497.955 68.622C497.955 68.2407 498.087 67.918 498.351 67.654C498.615 67.39 498.937 67.258 499.319 67.258C499.685 67.258 499.993 67.39 500.243 67.654C500.507 67.918 500.639 68.2407 500.639 68.622C500.639 69.0033 500.507 69.326 500.243 69.59C499.993 69.854 499.685 69.986 499.319 69.986ZM500.287 71.944V84H498.285V71.944H500.287ZM505.701 74.188C506.112 73.4693 506.713 72.8827 507.505 72.428C508.297 71.9733 509.199 71.746 510.211 71.746C511.296 71.746 512.272 72.0027 513.137 72.516C514.002 73.0293 514.684 73.7553 515.183 74.694C515.682 75.618 515.931 76.696 515.931 77.928C515.931 79.1453 515.682 80.2307 515.183 81.184C514.684 82.1373 513.995 82.878 513.115 83.406C512.25 83.934 511.282 84.198 510.211 84.198C509.17 84.198 508.253 83.9707 507.461 83.516C506.684 83.0613 506.097 82.482 505.701 81.778V84H503.699V67.72H505.701V74.188ZM513.885 77.928C513.885 77.0187 513.702 76.2267 513.335 75.552C512.968 74.8773 512.47 74.364 511.839 74.012C511.223 73.66 510.541 73.484 509.793 73.484C509.06 73.484 508.378 73.6673 507.747 74.034C507.131 74.386 506.632 74.9067 506.251 75.596C505.884 76.2707 505.701 77.0553 505.701 77.95C505.701 78.8593 505.884 79.6587 506.251 80.348C506.632 81.0227 507.131 81.5433 507.747 81.91C508.378 82.262 509.06 82.438 509.793 82.438C510.541 82.438 511.223 82.262 511.839 81.91C512.47 81.5433 512.968 81.0227 513.335 80.348C513.702 79.6587 513.885 78.852 513.885 77.928ZM529.566 77.51C529.566 77.8913 529.544 78.2947 529.5 78.72H519.864C519.937 79.908 520.341 80.8393 521.074 81.514C521.822 82.174 522.724 82.504 523.78 82.504C524.645 82.504 525.364 82.306 525.936 81.91C526.523 81.4993 526.933 80.9567 527.168 80.282H529.324C529.001 81.4407 528.356 82.3867 527.388 83.12C526.42 83.8387 525.217 84.198 523.78 84.198C522.636 84.198 521.609 83.9413 520.7 83.428C519.805 82.9147 519.101 82.1887 518.588 81.25C518.075 80.2967 517.818 79.1967 517.818 77.95C517.818 76.7033 518.067 75.6107 518.566 74.672C519.065 73.7333 519.761 73.0147 520.656 72.516C521.565 72.0027 522.607 71.746 523.78 71.746C524.924 71.746 525.936 71.9953 526.816 72.494C527.696 72.9927 528.371 73.682 528.84 74.562C529.324 75.4273 529.566 76.41 529.566 77.51ZM527.498 77.092C527.498 76.3293 527.329 75.6767 526.992 75.134C526.655 74.5767 526.193 74.1587 525.606 73.88C525.034 73.5867 524.396 73.44 523.692 73.44C522.68 73.44 521.815 73.7627 521.096 74.408C520.392 75.0533 519.989 75.948 519.886 77.092H527.498ZM532.847 84.132C532.465 84.132 532.143 84 531.879 83.736C531.615 83.472 531.483 83.1493 531.483 82.768C531.483 82.3867 531.615 82.064 531.879 81.8C532.143 81.536 532.465 81.404 532.847 81.404C533.213 81.404 533.521 81.536 533.771 81.8C534.035 82.064 534.167 82.3867 534.167 82.768C534.167 83.1493 534.035 83.472 533.771 83.736C533.521 84 533.213 84.132 532.847 84.132ZM95.7923 117.154C94.7803 117.154 93.871 116.978 93.0643 116.626C92.2723 116.259 91.649 115.761 91.1943 115.13C90.7396 114.485 90.505 113.744 90.4903 112.908H92.6243C92.6976 113.627 92.991 114.235 93.5043 114.734C94.0323 115.218 94.795 115.46 95.7923 115.46C96.7456 115.46 97.4936 115.225 98.0363 114.756C98.5936 114.272 98.8723 113.656 98.8723 112.908C98.8723 112.321 98.711 111.845 98.3883 111.478C98.0656 111.111 97.6623 110.833 97.1783 110.642C96.6943 110.451 96.0416 110.246 95.2203 110.026C94.2083 109.762 93.3943 109.498 92.7783 109.234C92.177 108.97 91.6563 108.559 91.2163 108.002C90.791 107.43 90.5783 106.667 90.5783 105.714C90.5783 104.878 90.791 104.137 91.2163 103.492C91.6416 102.847 92.2356 102.348 92.9983 101.996C93.7756 101.644 94.663 101.468 95.6603 101.468C97.0976 101.468 98.271 101.827 99.1803 102.546C100.104 103.265 100.625 104.218 100.742 105.406H98.5423C98.469 104.819 98.161 104.306 97.6183 103.866C97.0756 103.411 96.357 103.184 95.4623 103.184C94.6263 103.184 93.9443 103.404 93.4163 103.844C92.8883 104.269 92.6243 104.871 92.6243 105.648C92.6243 106.205 92.7783 106.66 93.0863 107.012C93.409 107.364 93.7976 107.635 94.2523 107.826C94.7216 108.002 95.3743 108.207 96.2103 108.442C97.2223 108.721 98.0363 108.999 98.6523 109.278C99.2683 109.542 99.7963 109.96 100.236 110.532C100.676 111.089 100.896 111.852 100.896 112.82C100.896 113.568 100.698 114.272 100.302 114.932C99.9063 115.592 99.3196 116.127 98.5423 116.538C97.765 116.949 96.8483 117.154 95.7923 117.154ZM109.826 104.724C110.736 104.724 111.557 104.922 112.29 105.318C113.024 105.699 113.596 106.279 114.006 107.056C114.432 107.833 114.644 108.779 114.644 109.894V117H112.664V110.18C112.664 108.977 112.364 108.061 111.762 107.43C111.161 106.785 110.34 106.462 109.298 106.462C108.242 106.462 107.399 106.792 106.768 107.452C106.152 108.112 105.844 109.073 105.844 110.334V117H103.842V100.72H105.844V106.66C106.24 106.044 106.783 105.567 107.472 105.23C108.176 104.893 108.961 104.724 109.826 104.724ZM128.915 110.51C128.915 110.891 128.893 111.295 128.849 111.72H119.213C119.286 112.908 119.689 113.839 120.423 114.514C121.171 115.174 122.073 115.504 123.129 115.504C123.994 115.504 124.713 115.306 125.285 114.91C125.871 114.499 126.282 113.957 126.517 113.282H128.673C128.35 114.441 127.705 115.387 126.737 116.12C125.769 116.839 124.566 117.198 123.129 117.198C121.985 117.198 120.958 116.941 120.049 116.428C119.154 115.915 118.45 115.189 117.937 114.25C117.423 113.297 117.167 112.197 117.167 110.95C117.167 109.703 117.416 108.611 117.915 107.672C118.413 106.733 119.11 106.015 120.005 105.516C120.914 105.003 121.955 104.746 123.129 104.746C124.273 104.746 125.285 104.995 126.165 105.494C127.045 105.993 127.719 106.682 128.189 107.562C128.673 108.427 128.915 109.41 128.915 110.51ZM126.847 110.092C126.847 109.329 126.678 108.677 126.341 108.134C126.003 107.577 125.541 107.159 124.955 106.88C124.383 106.587 123.745 106.44 123.041 106.44C122.029 106.44 121.163 106.763 120.445 107.408C119.741 108.053 119.337 108.948 119.235 110.092H126.847ZM138.456 102.986C138.075 102.986 137.752 102.854 137.488 102.59C137.224 102.326 137.092 102.003 137.092 101.622C137.092 101.241 137.224 100.918 137.488 100.654C137.752 100.39 138.075 100.258 138.456 100.258C138.823 100.258 139.131 100.39 139.38 100.654C139.644 100.918 139.776 101.241 139.776 101.622C139.776 102.003 139.644 102.326 139.38 102.59C139.131 102.854 138.823 102.986 138.456 102.986ZM139.424 104.944V117H137.422V104.944H139.424ZM147.105 117.198C146.181 117.198 145.352 117.044 144.619 116.736C143.885 116.413 143.306 115.973 142.881 115.416C142.455 114.844 142.221 114.191 142.177 113.458H144.245C144.303 114.059 144.582 114.551 145.081 114.932C145.594 115.313 146.261 115.504 147.083 115.504C147.845 115.504 148.447 115.335 148.887 114.998C149.327 114.661 149.547 114.235 149.547 113.722C149.547 113.194 149.312 112.805 148.843 112.556C148.373 112.292 147.647 112.035 146.665 111.786C145.77 111.551 145.037 111.317 144.465 111.082C143.907 110.833 143.423 110.473 143.013 110.004C142.617 109.52 142.419 108.889 142.419 108.112C142.419 107.496 142.602 106.931 142.969 106.418C143.335 105.905 143.856 105.501 144.531 105.208C145.205 104.9 145.975 104.746 146.841 104.746C148.175 104.746 149.253 105.083 150.075 105.758C150.896 106.433 151.336 107.357 151.395 108.53H149.393C149.349 107.899 149.092 107.393 148.623 107.012C148.168 106.631 147.552 106.44 146.775 106.44C146.056 106.44 145.484 106.594 145.059 106.902C144.633 107.21 144.421 107.613 144.421 108.112C144.421 108.508 144.545 108.838 144.795 109.102C145.059 109.351 145.381 109.557 145.763 109.718C146.159 109.865 146.701 110.033 147.391 110.224C148.256 110.459 148.96 110.693 149.503 110.928C150.045 111.148 150.507 111.485 150.889 111.94C151.285 112.395 151.49 112.989 151.505 113.722C151.505 114.382 151.321 114.976 150.955 115.504C150.588 116.032 150.067 116.45 149.393 116.758C148.733 117.051 147.97 117.198 147.105 117.198ZM174.694 104.724C175.633 104.724 176.469 104.922 177.202 105.318C177.935 105.699 178.515 106.279 178.94 107.056C179.365 107.833 179.578 108.779 179.578 109.894V117H177.598V110.18C177.598 108.977 177.297 108.061 176.696 107.43C176.109 106.785 175.31 106.462 174.298 106.462C173.257 106.462 172.428 106.799 171.812 107.474C171.196 108.134 170.888 109.095 170.888 110.356V117H168.908V110.18C168.908 108.977 168.607 108.061 168.006 107.43C167.419 106.785 166.62 106.462 165.608 106.462C164.567 106.462 163.738 106.799 163.122 107.474C162.506 108.134 162.198 109.095 162.198 110.356V117H160.196V104.944H162.198V106.682C162.594 106.051 163.122 105.567 163.782 105.23C164.457 104.893 165.197 104.724 166.004 104.724C167.016 104.724 167.911 104.951 168.688 105.406C169.465 105.861 170.045 106.528 170.426 107.408C170.763 106.557 171.321 105.897 172.098 105.428C172.875 104.959 173.741 104.724 174.694 104.724ZM182.114 110.928C182.114 109.696 182.363 108.618 182.862 107.694C183.361 106.755 184.043 106.029 184.908 105.516C185.788 105.003 186.763 104.746 187.834 104.746C188.89 104.746 189.807 104.973 190.584 105.428C191.361 105.883 191.941 106.455 192.322 107.144V104.944H194.346V117H192.322V114.756C191.926 115.46 191.332 116.047 190.54 116.516C189.763 116.971 188.853 117.198 187.812 117.198C186.741 117.198 185.773 116.934 184.908 116.406C184.043 115.878 183.361 115.137 182.862 114.184C182.363 113.231 182.114 112.145 182.114 110.928ZM192.322 110.95C192.322 110.041 192.139 109.249 191.772 108.574C191.405 107.899 190.907 107.386 190.276 107.034C189.66 106.667 188.978 106.484 188.23 106.484C187.482 106.484 186.8 106.66 186.184 107.012C185.568 107.364 185.077 107.877 184.71 108.552C184.343 109.227 184.16 110.019 184.16 110.928C184.16 111.852 184.343 112.659 184.71 113.348C185.077 114.023 185.568 114.543 186.184 114.91C186.8 115.262 187.482 115.438 188.23 115.438C188.978 115.438 189.66 115.262 190.276 114.91C190.907 114.543 191.405 114.023 191.772 113.348C192.139 112.659 192.322 111.859 192.322 110.95ZM199.731 106.902C200.083 106.213 200.582 105.677 201.227 105.296C201.887 104.915 202.686 104.724 203.625 104.724V106.792H203.097C200.853 106.792 199.731 108.009 199.731 110.444V117H197.729V104.944H199.731V106.902ZM207.938 106.902C208.29 106.213 208.789 105.677 209.434 105.296C210.094 104.915 210.893 104.724 211.832 104.724V106.792H211.304C209.06 106.792 207.938 108.009 207.938 110.444V117H205.936V104.944H207.938V106.902ZM215.177 102.986C214.796 102.986 214.473 102.854 214.209 102.59C213.945 102.326 213.813 102.003 213.813 101.622C213.813 101.241 213.945 100.918 214.209 100.654C214.473 100.39 214.796 100.258 215.177 100.258C215.544 100.258 215.852 100.39 216.101 100.654C216.365 100.918 216.497 101.241 216.497 101.622C216.497 102.003 216.365 102.326 216.101 102.59C215.852 102.854 215.544 102.986 215.177 102.986ZM216.145 104.944V117H214.143V104.944H216.145ZM230.557 110.51C230.557 110.891 230.535 111.295 230.491 111.72H220.855C220.929 112.908 221.332 113.839 222.065 114.514C222.813 115.174 223.715 115.504 224.771 115.504C225.637 115.504 226.355 115.306 226.927 114.91C227.514 114.499 227.925 113.957 228.159 113.282H230.315C229.993 114.441 229.347 115.387 228.379 116.12C227.411 116.839 226.209 117.198 224.771 117.198C223.627 117.198 222.601 116.941 221.691 116.428C220.797 115.915 220.093 115.189 219.579 114.25C219.066 113.297 218.809 112.197 218.809 110.95C218.809 109.703 219.059 108.611 219.557 107.672C220.056 106.733 220.753 106.015 221.647 105.516C222.557 105.003 223.598 104.746 224.771 104.746C225.915 104.746 226.927 104.995 227.807 105.494C228.687 105.993 229.362 106.682 229.831 107.562C230.315 108.427 230.557 109.41 230.557 110.51ZM228.489 110.092C228.489 109.329 228.321 108.677 227.983 108.134C227.646 107.577 227.184 107.159 226.597 106.88C226.025 106.587 225.387 106.44 224.683 106.44C223.671 106.44 222.806 106.763 222.087 107.408C221.383 108.053 220.98 108.948 220.877 110.092H228.489ZM232.452 110.928C232.452 109.696 232.701 108.618 233.2 107.694C233.698 106.755 234.38 106.029 235.246 105.516C236.126 105.003 237.108 104.746 238.194 104.746C239.132 104.746 240.005 104.966 240.812 105.406C241.618 105.831 242.234 106.396 242.66 107.1V100.72H244.684V117H242.66V114.734C242.264 115.453 241.677 116.047 240.9 116.516C240.122 116.971 239.213 117.198 238.172 117.198C237.101 117.198 236.126 116.934 235.246 116.406C234.38 115.878 233.698 115.137 233.2 114.184C232.701 113.231 232.452 112.145 232.452 110.928ZM242.66 110.95C242.66 110.041 242.476 109.249 242.11 108.574C241.743 107.899 241.244 107.386 240.614 107.034C239.998 106.667 239.316 106.484 238.568 106.484C237.82 106.484 237.138 106.66 236.522 107.012C235.906 107.364 235.414 107.877 235.048 108.552C234.681 109.227 234.498 110.019 234.498 110.928C234.498 111.852 234.681 112.659 235.048 113.348C235.414 114.023 235.906 114.543 236.522 114.91C237.138 115.262 237.82 115.438 238.568 115.438C239.316 115.438 239.998 115.262 240.614 114.91C241.244 114.543 241.743 114.023 242.11 113.348C242.476 112.659 242.66 111.859 242.66 110.95ZM256.374 106.594V113.7C256.374 114.287 256.499 114.705 256.748 114.954C256.998 115.189 257.43 115.306 258.046 115.306H259.52V117H257.716C256.602 117 255.766 116.743 255.208 116.23C254.651 115.717 254.372 114.873 254.372 113.7V106.594H252.81V104.944H254.372V101.908H256.374V104.944H259.52V106.594H256.374ZM267.204 117.198C266.075 117.198 265.048 116.941 264.124 116.428C263.215 115.915 262.496 115.189 261.968 114.25C261.455 113.297 261.198 112.197 261.198 110.95C261.198 109.718 261.462 108.633 261.99 107.694C262.533 106.741 263.266 106.015 264.19 105.516C265.114 105.003 266.148 104.746 267.292 104.746C268.436 104.746 269.47 105.003 270.394 105.516C271.318 106.015 272.044 106.733 272.572 107.672C273.115 108.611 273.386 109.703 273.386 110.95C273.386 112.197 273.107 113.297 272.55 114.25C272.007 115.189 271.267 115.915 270.328 116.428C269.389 116.941 268.348 117.198 267.204 117.198ZM267.204 115.438C267.923 115.438 268.597 115.269 269.228 114.932C269.859 114.595 270.365 114.089 270.746 113.414C271.142 112.739 271.34 111.918 271.34 110.95C271.34 109.982 271.149 109.161 270.768 108.486C270.387 107.811 269.888 107.313 269.272 106.99C268.656 106.653 267.989 106.484 267.27 106.484C266.537 106.484 265.862 106.653 265.246 106.99C264.645 107.313 264.161 107.811 263.794 108.486C263.427 109.161 263.244 109.982 263.244 110.95C263.244 111.933 263.42 112.761 263.772 113.436C264.139 114.111 264.623 114.617 265.224 114.954C265.825 115.277 266.485 115.438 267.204 115.438ZM291.189 101.644V104.13H284.787V108.068H289.693V110.51H284.787V117L281.707 117V101.644L291.189 101.644ZM304.703 110.642C304.703 111.082 304.674 111.478 304.615 111.83H295.705C295.779 112.71 296.087 113.399 296.629 113.898C297.172 114.397 297.839 114.646 298.631 114.646C299.775 114.646 300.589 114.155 301.073 113.172H304.395C304.043 114.345 303.369 115.313 302.371 116.076C301.374 116.824 300.149 117.198 298.697 117.198C297.524 117.198 296.468 116.941 295.529 116.428C294.605 115.9 293.879 115.159 293.351 114.206C292.838 113.253 292.581 112.153 292.581 110.906C292.581 109.645 292.838 108.537 293.351 107.584C293.865 106.631 294.583 105.897 295.507 105.384C296.431 104.871 297.495 104.614 298.697 104.614C299.856 104.614 300.89 104.863 301.799 105.362C302.723 105.861 303.435 106.572 303.933 107.496C304.447 108.405 304.703 109.454 304.703 110.642ZM301.513 109.762C301.499 108.97 301.213 108.339 300.655 107.87C300.098 107.386 299.416 107.144 298.609 107.144C297.847 107.144 297.201 107.379 296.673 107.848C296.16 108.303 295.845 108.941 295.727 109.762H301.513ZM310.032 100.72V117H306.952V100.72H310.032ZM314.637 103.36C314.094 103.36 313.639 103.191 313.273 102.854C312.921 102.502 312.745 102.069 312.745 101.556C312.745 101.043 312.921 100.617 313.273 100.28C313.639 99.928 314.094 99.752 314.637 99.752C315.179 99.752 315.627 99.928 315.979 100.28C316.345 100.617 316.529 101.043 316.529 101.556C316.529 102.069 316.345 102.502 315.979 102.854C315.627 103.191 315.179 103.36 314.637 103.36ZM316.155 104.812V117H313.075V104.812H316.155ZM322.278 106.572C322.674 106.015 323.216 105.553 323.906 105.186C324.61 104.805 325.409 104.614 326.304 104.614C327.345 104.614 328.284 104.871 329.12 105.384C329.97 105.897 330.638 106.631 331.122 107.584C331.62 108.523 331.87 109.615 331.87 110.862C331.87 112.109 331.62 113.216 331.122 114.184C330.638 115.137 329.97 115.878 329.12 116.406C328.284 116.934 327.345 117.198 326.304 117.198C325.409 117.198 324.617 117.015 323.928 116.648C323.253 116.281 322.703 115.819 322.278 115.262V122.808H319.198V104.812H322.278V106.572ZM328.724 110.862C328.724 110.129 328.57 109.498 328.262 108.97C327.968 108.427 327.572 108.017 327.074 107.738C326.59 107.459 326.062 107.32 325.49 107.32C324.932 107.32 324.404 107.467 323.906 107.76C323.422 108.039 323.026 108.449 322.718 108.992C322.424 109.535 322.278 110.173 322.278 110.906C322.278 111.639 322.424 112.277 322.718 112.82C323.026 113.363 323.422 113.781 323.906 114.074C324.404 114.353 324.932 114.492 325.49 114.492C326.062 114.492 326.59 114.345 327.074 114.052C327.572 113.759 327.968 113.341 328.262 112.798C328.57 112.255 328.724 111.61 328.724 110.862ZM345.438 110.642C345.438 111.082 345.408 111.478 345.35 111.83H336.44C336.513 112.71 336.821 113.399 337.364 113.898C337.906 114.397 338.574 114.646 339.366 114.646C340.51 114.646 341.324 114.155 341.808 113.172H345.13C344.778 114.345 344.103 115.313 343.106 116.076C342.108 116.824 340.884 117.198 339.432 117.198C338.258 117.198 337.202 116.941 336.264 116.428C335.34 115.9 334.614 115.159 334.086 114.206C333.572 113.253 333.316 112.153 333.316 110.906C333.316 109.645 333.572 108.537 334.086 107.584C334.599 106.631 335.318 105.897 336.242 105.384C337.166 104.871 338.229 104.614 339.432 104.614C340.59 104.614 341.624 104.863 342.534 105.362C343.458 105.861 344.169 106.572 344.668 107.496C345.181 108.405 345.438 109.454 345.438 110.642ZM342.248 109.762C342.233 108.97 341.947 108.339 341.39 107.87C340.832 107.386 340.15 107.144 339.344 107.144C338.581 107.144 337.936 107.379 337.408 107.848C336.894 108.303 336.579 108.941 336.462 109.762H342.248ZM352.18 109.3C352.18 107.789 352.517 106.44 353.192 105.252C353.881 104.049 354.813 103.118 355.986 102.458C357.174 101.783 358.501 101.446 359.968 101.446C361.684 101.446 363.187 101.886 364.478 102.766C365.769 103.646 366.671 104.863 367.184 106.418H363.642C363.29 105.685 362.791 105.135 362.146 104.768C361.515 104.401 360.782 104.218 359.946 104.218C359.051 104.218 358.252 104.431 357.548 104.856C356.859 105.267 356.316 105.853 355.92 106.616C355.539 107.379 355.348 108.273 355.348 109.3C355.348 110.312 355.539 111.207 355.92 111.984C356.316 112.747 356.859 113.341 357.548 113.766C358.252 114.177 359.051 114.382 359.946 114.382C360.782 114.382 361.515 114.199 362.146 113.832C362.791 113.451 363.29 112.893 363.642 112.16H367.184C366.671 113.729 365.769 114.954 364.478 115.834C363.202 116.699 361.699 117.132 359.968 117.132C358.501 117.132 357.174 116.802 355.986 116.142C354.813 115.467 353.881 114.536 353.192 113.348C352.517 112.16 352.18 110.811 352.18 109.3ZM369.023 110.862C369.023 109.63 369.265 108.537 369.749 107.584C370.248 106.631 370.915 105.897 371.751 105.384C372.602 104.871 373.548 104.614 374.589 104.614C375.498 104.614 376.29 104.797 376.965 105.164C377.654 105.531 378.204 105.993 378.615 106.55V104.812H381.717V117H378.615V115.218C378.219 115.79 377.669 116.267 376.965 116.648C376.276 117.015 375.476 117.198 374.567 117.198C373.54 117.198 372.602 116.934 371.751 116.406C370.915 115.878 370.248 115.137 369.749 114.184C369.265 113.216 369.023 112.109 369.023 110.862ZM378.615 110.906C378.615 110.158 378.468 109.52 378.175 108.992C377.882 108.449 377.486 108.039 376.987 107.76C376.488 107.467 375.953 107.32 375.381 107.32C374.809 107.32 374.281 107.459 373.797 107.738C373.313 108.017 372.917 108.427 372.609 108.97C372.316 109.498 372.169 110.129 372.169 110.862C372.169 111.595 372.316 112.241 372.609 112.798C372.917 113.341 373.313 113.759 373.797 114.052C374.296 114.345 374.824 114.492 375.381 114.492C375.953 114.492 376.488 114.353 376.987 114.074C377.486 113.781 377.882 113.37 378.175 112.842C378.468 112.299 378.615 111.654 378.615 110.906ZM399.861 104.636C401.357 104.636 402.56 105.098 403.469 106.022C404.393 106.931 404.855 108.207 404.855 109.85V117H401.775V110.268C401.775 109.315 401.533 108.589 401.049 108.09C400.565 107.577 399.905 107.32 399.069 107.32C398.233 107.32 397.566 107.577 397.067 108.09C396.583 108.589 396.341 109.315 396.341 110.268V117H393.261V110.268C393.261 109.315 393.019 108.589 392.535 108.09C392.051 107.577 391.391 107.32 390.555 107.32C389.704 107.32 389.03 107.577 388.531 108.09C388.047 108.589 387.805 109.315 387.805 110.268V117H384.725V104.812H387.805V106.286C388.201 105.773 388.707 105.369 389.323 105.076C389.954 104.783 390.643 104.636 391.391 104.636C392.344 104.636 393.195 104.841 393.943 105.252C394.691 105.648 395.27 106.22 395.681 106.968C396.077 106.264 396.649 105.699 397.397 105.274C398.16 104.849 398.981 104.636 399.861 104.636ZM406.986 110.862C406.986 109.63 407.228 108.537 407.712 107.584C408.21 106.631 408.878 105.897 409.714 105.384C410.564 104.871 411.51 104.614 412.552 104.614C413.461 104.614 414.253 104.797 414.928 105.164C415.617 105.531 416.167 105.993 416.578 106.55V104.812H419.68V117H416.578V115.218C416.182 115.79 415.632 116.267 414.928 116.648C414.238 117.015 413.439 117.198 412.53 117.198C411.503 117.198 410.564 116.934 409.714 116.406C408.878 115.878 408.21 115.137 407.712 114.184C407.228 113.216 406.986 112.109 406.986 110.862ZM416.578 110.906C416.578 110.158 416.431 109.52 416.138 108.992C415.844 108.449 415.448 108.039 414.95 107.76C414.451 107.467 413.916 107.32 413.344 107.32C412.772 107.32 412.244 107.459 411.76 107.738C411.276 108.017 410.88 108.427 410.572 108.97C410.278 109.498 410.132 110.129 410.132 110.862C410.132 111.595 410.278 112.241 410.572 112.798C410.88 113.341 411.276 113.759 411.76 114.052C412.258 114.345 412.786 114.492 413.344 114.492C413.916 114.492 414.451 114.353 414.95 114.074C415.448 113.781 415.844 113.37 416.138 112.842C416.431 112.299 416.578 111.654 416.578 110.906ZM425.768 106.704C426.164 106.059 426.677 105.553 427.308 105.186C427.953 104.819 428.687 104.636 429.508 104.636V107.87H428.694C427.726 107.87 426.993 108.097 426.494 108.552C426.01 109.007 425.768 109.799 425.768 110.928V117H422.688V104.812H425.768V106.704ZM430.79 110.862C430.79 109.63 431.032 108.537 431.516 107.584C432.015 106.631 432.682 105.897 433.518 105.384C434.369 104.871 435.315 104.614 436.356 104.614C437.266 104.614 438.058 104.797 438.732 105.164C439.422 105.531 439.972 105.993 440.382 106.55V104.812H443.484V117H440.382V115.218C439.986 115.79 439.436 116.267 438.732 116.648C438.043 117.015 437.244 117.198 436.334 117.198C435.308 117.198 434.369 116.934 433.518 116.406C432.682 115.878 432.015 115.137 431.516 114.184C431.032 113.216 430.79 112.109 430.79 110.862ZM440.382 110.906C440.382 110.158 440.236 109.52 439.942 108.992C439.649 108.449 439.253 108.039 438.754 107.76C438.256 107.467 437.72 107.32 437.148 107.32C436.576 107.32 436.048 107.459 435.564 107.738C435.08 108.017 434.684 108.427 434.376 108.97C434.083 109.498 433.936 110.129 433.936 110.862C433.936 111.595 434.083 112.241 434.376 112.798C434.684 113.341 435.08 113.759 435.564 114.052C436.063 114.345 436.591 114.492 437.148 114.492C437.72 114.492 438.256 114.353 438.754 114.074C439.253 113.781 439.649 113.37 439.942 112.842C440.236 112.299 440.382 111.654 440.382 110.906ZM433.606 103.646C433.738 102.678 434.039 101.959 434.508 101.49C434.992 101.006 435.601 100.764 436.334 100.764C436.642 100.764 436.914 100.815 437.148 100.918C437.383 101.006 437.647 101.138 437.94 101.314C438.38 101.593 438.747 101.732 439.04 101.732C439.583 101.732 439.898 101.417 439.986 100.786H441.636C441.504 101.754 441.196 102.48 440.712 102.964C440.243 103.433 439.642 103.668 438.908 103.668C438.6 103.668 438.329 103.624 438.094 103.536C437.86 103.433 437.596 103.294 437.302 103.118C436.877 102.825 436.51 102.678 436.202 102.678C435.66 102.678 435.337 103.001 435.234 103.646H433.606ZM451.905 117.198C450.731 117.198 449.675 116.941 448.737 116.428C447.798 115.9 447.057 115.159 446.515 114.206C445.987 113.253 445.723 112.153 445.723 110.906C445.723 109.659 445.994 108.559 446.537 107.606C447.094 106.653 447.849 105.919 448.803 105.406C449.756 104.878 450.819 104.614 451.993 104.614C453.166 104.614 454.229 104.878 455.183 105.406C456.136 105.919 456.884 106.653 457.427 107.606C457.984 108.559 458.263 109.659 458.263 110.906C458.263 112.153 457.977 113.253 457.405 114.206C456.847 115.159 456.085 115.9 455.117 116.428C454.163 116.941 453.093 117.198 451.905 117.198ZM451.905 114.514C452.462 114.514 452.983 114.382 453.467 114.118C453.965 113.839 454.361 113.429 454.655 112.886C454.948 112.343 455.095 111.683 455.095 110.906C455.095 109.747 454.787 108.86 454.171 108.244C453.569 107.613 452.829 107.298 451.949 107.298C451.069 107.298 450.328 107.613 449.727 108.244C449.14 108.86 448.847 109.747 448.847 110.906C448.847 112.065 449.133 112.959 449.705 113.59C450.291 114.206 451.025 114.514 451.905 114.514ZM462.766 114.228L460.302 120.146H458.96L460.566 114.228H462.766ZM470.176 110.928C470.176 109.696 470.426 108.618 470.924 107.694C471.423 106.755 472.105 106.029 472.97 105.516C473.85 105.003 474.826 104.746 475.896 104.746C476.952 104.746 477.869 104.973 478.646 105.428C479.424 105.883 480.003 106.455 480.384 107.144V104.944H482.408V117H480.384V114.756C479.988 115.46 479.394 116.047 478.602 116.516C477.825 116.971 476.916 117.198 475.874 117.198C474.804 117.198 473.836 116.934 472.97 116.406C472.105 115.878 471.423 115.137 470.924 114.184C470.426 113.231 470.176 112.145 470.176 110.928ZM480.384 110.95C480.384 110.041 480.201 109.249 479.834 108.574C479.468 107.899 478.969 107.386 478.338 107.034C477.722 106.667 477.04 106.484 476.292 106.484C475.544 106.484 474.862 106.66 474.246 107.012C473.63 107.364 473.139 107.877 472.772 108.552C472.406 109.227 472.222 110.019 472.222 110.928C472.222 111.852 472.406 112.659 472.772 113.348C473.139 114.023 473.63 114.543 474.246 114.91C474.862 115.262 475.544 115.438 476.292 115.438C477.04 115.438 477.722 115.262 478.338 114.91C478.969 114.543 479.468 114.023 479.834 113.348C480.201 112.659 480.384 111.859 480.384 110.95ZM491.666 104.724C493.132 104.724 494.32 105.171 495.23 106.066C496.139 106.946 496.594 108.222 496.594 109.894V117H494.614V110.18C494.614 108.977 494.313 108.061 493.712 107.43C493.11 106.785 492.289 106.462 491.248 106.462C490.192 106.462 489.348 106.792 488.718 107.452C488.102 108.112 487.794 109.073 487.794 110.334V117H485.792V104.944H487.794V106.66C488.19 106.044 488.725 105.567 489.4 105.23C490.089 104.893 490.844 104.724 491.666 104.724ZM122.848 135.986C122.467 135.986 122.144 135.854 121.88 135.59C121.616 135.326 121.484 135.003 121.484 134.622C121.484 134.241 121.616 133.918 121.88 133.654C122.144 133.39 122.467 133.258 122.848 133.258C123.215 133.258 123.523 133.39 123.772 133.654C124.036 133.918 124.168 134.241 124.168 134.622C124.168 135.003 124.036 135.326 123.772 135.59C123.523 135.854 123.215 135.986 122.848 135.986ZM123.816 137.944V150H121.814V137.944H123.816ZM141.726 137.724C142.665 137.724 143.501 137.922 144.234 138.318C144.967 138.699 145.547 139.279 145.972 140.056C146.397 140.833 146.61 141.779 146.61 142.894V150H144.63V143.18C144.63 141.977 144.329 141.061 143.728 140.43C143.141 139.785 142.342 139.462 141.33 139.462C140.289 139.462 139.46 139.799 138.844 140.474C138.228 141.134 137.92 142.095 137.92 143.356V150H135.94V143.18C135.94 141.977 135.639 141.061 135.038 140.43C134.451 139.785 133.652 139.462 132.64 139.462C131.599 139.462 130.77 139.799 130.154 140.474C129.538 141.134 129.23 142.095 129.23 143.356V150H127.228V137.944H129.23V139.682C129.626 139.051 130.154 138.567 130.814 138.23C131.489 137.893 132.229 137.724 133.036 137.724C134.048 137.724 134.943 137.951 135.72 138.406C136.497 138.861 137.077 139.528 137.458 140.408C137.795 139.557 138.353 138.897 139.13 138.428C139.907 137.959 140.773 137.724 141.726 137.724ZM151.896 140.166C152.292 139.477 152.879 138.905 153.656 138.45C154.448 137.981 155.365 137.746 156.406 137.746C157.477 137.746 158.445 138.003 159.31 138.516C160.19 139.029 160.879 139.755 161.378 140.694C161.877 141.618 162.126 142.696 162.126 143.928C162.126 145.145 161.877 146.231 161.378 147.184C160.879 148.137 160.19 148.878 159.31 149.406C158.445 149.934 157.477 150.198 156.406 150.198C155.379 150.198 154.47 149.971 153.678 149.516C152.901 149.047 152.307 148.467 151.896 147.778V155.72H149.894V137.944H151.896V140.166ZM160.08 143.928C160.08 143.019 159.897 142.227 159.53 141.552C159.163 140.877 158.665 140.364 158.034 140.012C157.418 139.66 156.736 139.484 155.988 139.484C155.255 139.484 154.573 139.667 153.942 140.034C153.326 140.386 152.827 140.907 152.446 141.596C152.079 142.271 151.896 143.055 151.896 143.95C151.896 144.859 152.079 145.659 152.446 146.348C152.827 147.023 153.326 147.543 153.942 147.91C154.573 148.262 155.255 148.438 155.988 148.438C156.736 148.438 157.418 148.262 158.034 147.91C158.665 147.543 159.163 147.023 159.53 146.348C159.897 145.659 160.08 144.852 160.08 143.928ZM170.019 150.198C168.89 150.198 167.863 149.941 166.939 149.428C166.03 148.915 165.311 148.189 164.783 147.25C164.27 146.297 164.013 145.197 164.013 143.95C164.013 142.718 164.277 141.633 164.805 140.694C165.348 139.741 166.081 139.015 167.005 138.516C167.929 138.003 168.963 137.746 170.107 137.746C171.251 137.746 172.285 138.003 173.209 138.516C174.133 139.015 174.859 139.733 175.387 140.672C175.93 141.611 176.201 142.703 176.201 143.95C176.201 145.197 175.923 146.297 175.365 147.25C174.823 148.189 174.082 148.915 173.143 149.428C172.205 149.941 171.163 150.198 170.019 150.198ZM170.019 148.438C170.738 148.438 171.413 148.269 172.043 147.932C172.674 147.595 173.18 147.089 173.561 146.414C173.957 145.739 174.155 144.918 174.155 143.95C174.155 142.982 173.965 142.161 173.583 141.486C173.202 140.811 172.703 140.313 172.087 139.99C171.471 139.653 170.804 139.484 170.085 139.484C169.352 139.484 168.677 139.653 168.061 139.99C167.46 140.313 166.976 140.811 166.609 141.486C166.243 142.161 166.059 142.982 166.059 143.95C166.059 144.933 166.235 145.761 166.587 146.436C166.954 147.111 167.438 147.617 168.039 147.954C168.641 148.277 169.301 148.438 170.019 148.438ZM180.836 139.902C181.188 139.213 181.686 138.677 182.332 138.296C182.992 137.915 183.791 137.724 184.73 137.724V139.792H184.202C181.958 139.792 180.836 141.009 180.836 143.444V150H178.834V137.944H180.836V139.902ZM189.483 139.594V146.7C189.483 147.287 189.607 147.705 189.857 147.954C190.106 148.189 190.539 148.306 191.155 148.306H192.629V150H190.825C189.71 150 188.874 149.743 188.317 149.23C187.759 148.717 187.481 147.873 187.481 146.7V139.594H185.919V137.944H187.481V134.908H189.483V137.944H192.629V139.594H189.483ZM194.306 143.928C194.306 142.696 194.556 141.618 195.054 140.694C195.553 139.755 196.235 139.029 197.1 138.516C197.98 138.003 198.956 137.746 200.026 137.746C201.082 137.746 201.999 137.973 202.776 138.428C203.554 138.883 204.133 139.455 204.514 140.144V137.944H206.538V150H204.514V147.756C204.118 148.46 203.524 149.047 202.732 149.516C201.955 149.971 201.046 150.198 200.004 150.198C198.934 150.198 197.966 149.934 197.1 149.406C196.235 148.878 195.553 148.137 195.054 147.184C194.556 146.231 194.306 145.145 194.306 143.928ZM204.514 143.95C204.514 143.041 204.331 142.249 203.964 141.574C203.598 140.899 203.099 140.386 202.468 140.034C201.852 139.667 201.17 139.484 200.422 139.484C199.674 139.484 198.992 139.66 198.376 140.012C197.76 140.364 197.269 140.877 196.902 141.552C196.536 142.227 196.352 143.019 196.352 143.928C196.352 144.852 196.536 145.659 196.902 146.348C197.269 147.023 197.76 147.543 198.376 147.91C198.992 148.262 199.674 148.438 200.422 148.438C201.17 148.438 201.852 148.262 202.468 147.91C203.099 147.543 203.598 147.023 203.964 146.348C204.331 145.659 204.514 144.859 204.514 143.95ZM215.796 137.724C217.262 137.724 218.45 138.171 219.36 139.066C220.269 139.946 220.724 141.222 220.724 142.894V150H218.744V143.18C218.744 141.977 218.443 141.061 217.842 140.43C217.24 139.785 216.419 139.462 215.378 139.462C214.322 139.462 213.478 139.792 212.848 140.452C212.232 141.112 211.924 142.073 211.924 143.334V150H209.922V137.944H211.924V139.66C212.32 139.044 212.855 138.567 213.53 138.23C214.219 137.893 214.974 137.724 215.796 137.724ZM226.436 139.594V146.7C226.436 147.287 226.56 147.705 226.81 147.954C227.059 148.189 227.492 148.306 228.108 148.306H229.582V150H227.778C226.663 150 225.827 149.743 225.27 149.23C224.712 148.717 224.434 147.873 224.434 146.7V139.594H222.872V137.944H224.434V134.908H226.436V137.944H229.582V139.594H226.436ZM239.875 133.72V150H237.873V133.72H239.875ZM254.287 143.51C254.287 143.891 254.265 144.295 254.221 144.72H244.585C244.658 145.908 245.061 146.839 245.795 147.514C246.543 148.174 247.445 148.504 248.501 148.504C249.366 148.504 250.085 148.306 250.657 147.91C251.243 147.499 251.654 146.957 251.889 146.282H254.045C253.722 147.441 253.077 148.387 252.109 149.12C251.141 149.839 249.938 150.198 248.501 150.198C247.357 150.198 246.33 149.941 245.421 149.428C244.526 148.915 243.822 148.189 243.309 147.25C242.795 146.297 242.539 145.197 242.539 143.95C242.539 142.703 242.788 141.611 243.287 140.672C243.785 139.733 244.482 139.015 245.377 138.516C246.286 138.003 247.327 137.746 248.501 137.746C249.645 137.746 250.657 137.995 251.537 138.494C252.417 138.993 253.091 139.682 253.561 140.562C254.045 141.427 254.287 142.41 254.287 143.51ZM252.219 143.092C252.219 142.329 252.05 141.677 251.713 141.134C251.375 140.577 250.913 140.159 250.327 139.88C249.755 139.587 249.117 139.44 248.413 139.44C247.401 139.44 246.535 139.763 245.817 140.408C245.113 141.053 244.709 141.948 244.607 143.092H252.219ZM256.181 143.928C256.181 142.696 256.431 141.618 256.929 140.694C257.428 139.755 258.11 139.029 258.975 138.516C259.855 138.003 260.831 137.746 261.901 137.746C262.957 137.746 263.874 137.973 264.651 138.428C265.429 138.883 266.008 139.455 266.389 140.144V137.944H268.413V150H266.389V147.756C265.993 148.46 265.399 149.047 264.607 149.516C263.83 149.971 262.921 150.198 261.879 150.198C260.809 150.198 259.841 149.934 258.975 149.406C258.11 148.878 257.428 148.137 256.929 147.184C256.431 146.231 256.181 145.145 256.181 143.928ZM266.389 143.95C266.389 143.041 266.206 142.249 265.839 141.574C265.473 140.899 264.974 140.386 264.343 140.034C263.727 139.667 263.045 139.484 262.297 139.484C261.549 139.484 260.867 139.66 260.251 140.012C259.635 140.364 259.144 140.877 258.777 141.552C258.411 142.227 258.227 143.019 258.227 143.928C258.227 144.852 258.411 145.659 258.777 146.348C259.144 147.023 259.635 147.543 260.251 147.91C260.867 148.262 261.549 148.438 262.297 148.438C263.045 148.438 263.727 148.262 264.343 147.91C264.974 147.543 265.473 147.023 265.839 146.348C266.206 145.659 266.389 144.859 266.389 143.95ZM271.049 143.928C271.049 142.696 271.298 141.618 271.797 140.694C272.295 139.755 272.977 139.029 273.843 138.516C274.723 138.003 275.705 137.746 276.791 137.746C277.729 137.746 278.602 137.966 279.409 138.406C280.215 138.831 280.831 139.396 281.257 140.1V133.72H283.281V150H281.257V147.734C280.861 148.453 280.274 149.047 279.497 149.516C278.719 149.971 277.81 150.198 276.769 150.198C275.698 150.198 274.723 149.934 273.843 149.406C272.977 148.878 272.295 148.137 271.797 147.184C271.298 146.231 271.049 145.145 271.049 143.928ZM281.257 143.95C281.257 143.041 281.073 142.249 280.707 141.574C280.34 140.899 279.841 140.386 279.211 140.034C278.595 139.667 277.913 139.484 277.165 139.484C276.417 139.484 275.735 139.66 275.119 140.012C274.503 140.364 274.011 140.877 273.645 141.552C273.278 142.227 273.095 143.019 273.095 143.928C273.095 144.852 273.278 145.659 273.645 146.348C274.011 147.023 274.503 147.543 275.119 147.91C275.735 148.262 276.417 148.438 277.165 148.438C277.913 148.438 278.595 148.262 279.211 147.91C279.841 147.543 280.34 147.023 280.707 146.348C281.073 145.659 281.257 144.859 281.257 143.95ZM297.664 143.51C297.664 143.891 297.642 144.295 297.598 144.72H287.962C288.035 145.908 288.438 146.839 289.172 147.514C289.92 148.174 290.822 148.504 291.878 148.504C292.743 148.504 293.462 148.306 294.034 147.91C294.62 147.499 295.031 146.957 295.266 146.282H297.422C297.099 147.441 296.454 148.387 295.486 149.12C294.518 149.839 293.315 150.198 291.878 150.198C290.734 150.198 289.707 149.941 288.798 149.428C287.903 148.915 287.199 148.189 286.686 147.25C286.172 146.297 285.916 145.197 285.916 143.95C285.916 142.703 286.165 141.611 286.664 140.672C287.162 139.733 287.859 139.015 288.754 138.516C289.663 138.003 290.704 137.746 291.878 137.746C293.022 137.746 294.034 137.995 294.914 138.494C295.794 138.993 296.468 139.682 296.938 140.562C297.422 141.427 297.664 142.41 297.664 143.51ZM295.596 143.092C295.596 142.329 295.427 141.677 295.09 141.134C294.752 140.577 294.29 140.159 293.704 139.88C293.132 139.587 292.494 139.44 291.79 139.44C290.778 139.44 289.912 139.763 289.194 140.408C288.49 141.053 288.086 141.948 287.984 143.092H295.596ZM302.308 139.902C302.66 139.213 303.159 138.677 303.804 138.296C304.464 137.915 305.264 137.724 306.202 137.724V139.792H305.674C303.43 139.792 302.308 141.009 302.308 143.444V150H300.306V137.944H302.308V139.902ZM319.285 139.594H316.755V150H314.753V139.594H313.191V137.944H314.753V137.086C314.753 135.737 315.097 134.754 315.787 134.138C316.491 133.507 317.613 133.192 319.153 133.192V134.864C318.273 134.864 317.649 135.04 317.283 135.392C316.931 135.729 316.755 136.294 316.755 137.086V137.944H319.285V139.594ZM323.621 139.902C323.973 139.213 324.471 138.677 325.117 138.296C325.777 137.915 326.576 137.724 327.515 137.724V139.792H326.987C324.743 139.792 323.621 141.009 323.621 143.444V150H321.619V137.944H323.621V139.902ZM335.084 150.198C333.954 150.198 332.928 149.941 332.004 149.428C331.094 148.915 330.376 148.189 329.848 147.25C329.334 146.297 329.078 145.197 329.078 143.95C329.078 142.718 329.342 141.633 329.87 140.694C330.412 139.741 331.146 139.015 332.07 138.516C332.994 138.003 334.028 137.746 335.172 137.746C336.316 137.746 337.35 138.003 338.274 138.516C339.198 139.015 339.924 139.733 340.452 140.672C340.994 141.611 341.266 142.703 341.266 143.95C341.266 145.197 340.987 146.297 340.43 147.25C339.887 148.189 339.146 148.915 338.208 149.428C337.269 149.941 336.228 150.198 335.084 150.198ZM335.084 148.438C335.802 148.438 336.477 148.269 337.108 147.932C337.738 147.595 338.244 147.089 338.626 146.414C339.022 145.739 339.22 144.918 339.22 143.95C339.22 142.982 339.029 142.161 338.648 141.486C338.266 140.811 337.768 140.313 337.152 139.99C336.536 139.653 335.868 139.484 335.15 139.484C334.416 139.484 333.742 139.653 333.126 139.99C332.524 140.313 332.04 140.811 331.674 141.486C331.307 142.161 331.124 142.982 331.124 143.95C331.124 144.933 331.3 145.761 331.652 146.436C332.018 147.111 332.502 147.617 333.104 147.954C333.705 148.277 334.365 148.438 335.084 148.438ZM358.396 137.724C359.335 137.724 360.171 137.922 360.904 138.318C361.637 138.699 362.217 139.279 362.642 140.056C363.067 140.833 363.28 141.779 363.28 142.894V150H361.3V143.18C361.3 141.977 360.999 141.061 360.398 140.43C359.811 139.785 359.012 139.462 358 139.462C356.959 139.462 356.13 139.799 355.514 140.474C354.898 141.134 354.59 142.095 354.59 143.356V150H352.61V143.18C352.61 141.977 352.309 141.061 351.708 140.43C351.121 139.785 350.322 139.462 349.31 139.462C348.269 139.462 347.44 139.799 346.824 140.474C346.208 141.134 345.9 142.095 345.9 143.356V150H343.898V137.944H345.9V139.682C346.296 139.051 346.824 138.567 347.484 138.23C348.159 137.893 348.899 137.724 349.706 137.724C350.718 137.724 351.613 137.951 352.39 138.406C353.167 138.861 353.747 139.528 354.128 140.408C354.465 139.557 355.023 138.897 355.8 138.428C356.577 137.959 357.443 137.724 358.396 137.724ZM378.413 137.724C379.323 137.724 380.144 137.922 380.877 138.318C381.611 138.699 382.183 139.279 382.593 140.056C383.019 140.833 383.231 141.779 383.231 142.894V150H381.251V143.18C381.251 141.977 380.951 141.061 380.349 140.43C379.748 139.785 378.927 139.462 377.885 139.462C376.829 139.462 375.986 139.792 375.355 140.452C374.739 141.112 374.431 142.073 374.431 143.334V150H372.429V133.72H374.431V139.66C374.827 139.044 375.37 138.567 376.059 138.23C376.763 137.893 377.548 137.724 378.413 137.724ZM397.502 143.51C397.502 143.891 397.48 144.295 397.436 144.72H387.8C387.873 145.908 388.276 146.839 389.01 147.514C389.758 148.174 390.66 148.504 391.716 148.504C392.581 148.504 393.3 148.306 393.872 147.91C394.458 147.499 394.869 146.957 395.104 146.282H397.26C396.937 147.441 396.292 148.387 395.324 149.12C394.356 149.839 393.153 150.198 391.716 150.198C390.572 150.198 389.545 149.941 388.636 149.428C387.741 148.915 387.037 148.189 386.524 147.25C386.01 146.297 385.754 145.197 385.754 143.95C385.754 142.703 386.003 141.611 386.502 140.672C387 139.733 387.697 139.015 388.592 138.516C389.501 138.003 390.542 137.746 391.716 137.746C392.86 137.746 393.872 137.995 394.752 138.494C395.632 138.993 396.306 139.682 396.776 140.562C397.26 141.427 397.502 142.41 397.502 143.51ZM395.434 143.092C395.434 142.329 395.265 141.677 394.928 141.134C394.59 140.577 394.128 140.159 393.542 139.88C392.97 139.587 392.332 139.44 391.628 139.44C390.616 139.44 389.75 139.763 389.032 140.408C388.328 141.053 387.924 141.948 387.822 143.092H395.434ZM402.146 139.902C402.498 139.213 402.997 138.677 403.642 138.296C404.302 137.915 405.101 137.724 406.04 137.724V139.792H405.512C403.268 139.792 402.146 141.009 402.146 143.444V150H400.144V137.944H402.146V139.902ZM416.658 139.594V146.7C416.658 147.287 416.783 147.705 417.032 147.954C417.282 148.189 417.714 148.306 418.33 148.306H419.804V150H418C416.886 150 416.05 149.743 415.492 149.23C414.935 148.717 414.656 147.873 414.656 146.7V139.594H413.094V137.944H414.656V134.908H416.658V137.944H419.804V139.594H416.658ZM424.232 139.902C424.584 139.213 425.083 138.677 425.728 138.296C426.388 137.915 427.187 137.724 428.126 137.724V139.792H427.598C425.354 139.792 424.232 141.009 424.232 143.444V150H422.23V137.944H424.232V139.902ZM431.471 135.986C431.09 135.986 430.767 135.854 430.503 135.59C430.239 135.326 430.107 135.003 430.107 134.622C430.107 134.241 430.239 133.918 430.503 133.654C430.767 133.39 431.09 133.258 431.471 133.258C431.838 133.258 432.146 133.39 432.395 133.654C432.659 133.918 432.791 134.241 432.791 134.622C432.791 135.003 432.659 135.326 432.395 135.59C432.146 135.854 431.838 135.986 431.471 135.986ZM432.439 137.944V150H430.437V137.944H432.439ZM437.853 140.188C438.264 139.469 438.865 138.883 439.657 138.428C440.449 137.973 441.351 137.746 442.363 137.746C443.449 137.746 444.424 138.003 445.289 138.516C446.155 139.029 446.837 139.755 447.335 140.694C447.834 141.618 448.083 142.696 448.083 143.928C448.083 145.145 447.834 146.231 447.335 147.184C446.837 148.137 446.147 148.878 445.267 149.406C444.402 149.934 443.434 150.198 442.363 150.198C441.322 150.198 440.405 149.971 439.613 149.516C438.836 149.061 438.249 148.482 437.853 147.778V150H435.851V133.72H437.853V140.188ZM446.037 143.928C446.037 143.019 445.854 142.227 445.487 141.552C445.121 140.877 444.622 140.364 443.991 140.012C443.375 139.66 442.693 139.484 441.945 139.484C441.212 139.484 440.53 139.667 439.899 140.034C439.283 140.386 438.785 140.907 438.403 141.596C438.037 142.271 437.853 143.055 437.853 143.95C437.853 144.859 438.037 145.659 438.403 146.348C438.785 147.023 439.283 147.543 439.899 147.91C440.53 148.262 441.212 148.438 441.945 148.438C442.693 148.438 443.375 148.262 443.991 147.91C444.622 147.543 445.121 147.023 445.487 146.348C445.854 145.659 446.037 144.852 446.037 143.928ZM461.718 143.51C461.718 143.891 461.696 144.295 461.652 144.72H452.016C452.09 145.908 452.493 146.839 453.226 147.514C453.974 148.174 454.876 148.504 455.932 148.504C456.798 148.504 457.516 148.306 458.088 147.91C458.675 147.499 459.086 146.957 459.32 146.282H461.476C461.154 147.441 460.508 148.387 459.54 149.12C458.572 149.839 457.37 150.198 455.932 150.198C454.788 150.198 453.762 149.941 452.852 149.428C451.958 148.915 451.254 148.189 450.74 147.25C450.227 146.297 449.97 145.197 449.97 143.95C449.97 142.703 450.22 141.611 450.718 140.672C451.217 139.733 451.914 139.015 452.808 138.516C453.718 138.003 454.759 137.746 455.932 137.746C457.076 137.746 458.088 137.995 458.968 138.494C459.848 138.993 460.523 139.682 460.992 140.562C461.476 141.427 461.718 142.41 461.718 143.51ZM459.65 143.092C459.65 142.329 459.482 141.677 459.144 141.134C458.807 140.577 458.345 140.159 457.758 139.88C457.186 139.587 456.548 139.44 455.844 139.44C454.832 139.44 453.967 139.763 453.248 140.408C452.544 141.053 452.141 141.948 452.038 143.092H459.65ZM464.999 150.132C464.618 150.132 464.295 150 464.031 149.736C463.767 149.472 463.635 149.149 463.635 148.768C463.635 148.387 463.767 148.064 464.031 147.8C464.295 147.536 464.618 147.404 464.999 147.404C465.366 147.404 465.674 147.536 465.923 147.8C466.187 148.064 466.319 148.387 466.319 148.768C466.319 149.149 466.187 149.472 465.923 149.736C465.674 150 465.366 150.132 464.999 150.132Z" fill="black"/>
</svg>
