<svg width="207" height="519" viewBox="0 0 207 519" fill="none" xmlns="http://www.w3.org/2000/svg">
<g clip-path="url(#clip0_94_4388)">
<ellipse cx="103.499" cy="69.0646" rx="80.5" ry="69.0646" fill="black"/>
<ellipse cx="102" cy="152.348" rx="75" ry="123.91" fill="black"/>
<path d="M105.089 396.224C98.9816 430.864 90.425 461.675 81.5356 483.485C77.0893 494.395 72.5699 503.026 68.2475 508.757C66.0858 511.623 63.99 513.741 61.9975 515.059C60.0075 516.375 58.1565 516.872 56.4525 516.572C54.7484 516.271 53.1789 515.171 51.7592 513.254C50.3376 511.334 49.0926 508.627 48.0415 505.194C45.9398 498.331 44.6452 488.674 44.1982 476.902C43.3045 453.366 45.802 421.487 51.9099 386.847C58.0178 352.208 66.5744 321.396 75.4638 299.586C79.9101 288.677 84.4295 280.045 88.7519 274.314C90.9136 271.448 93.0093 269.33 95.0019 268.012C96.9919 266.696 98.8428 266.199 100.547 266.5C102.251 266.8 103.82 267.9 105.24 269.817C106.662 271.738 107.907 274.445 108.958 277.877C111.06 284.741 112.354 294.397 112.801 306.169C113.695 329.705 111.197 361.585 105.089 396.224Z" fill="#CB9D8A" stroke="#A67D6B"/>
<path d="M86.8273 239.899C77.9375 264.706 67.0062 286.079 56.531 300.58C51.2913 307.834 46.1829 313.344 41.5204 316.709C36.8417 320.086 32.7218 321.229 29.3898 319.997C26.0578 318.765 23.6249 315.2 22.178 309.559C20.7361 303.937 20.3101 296.381 20.8868 287.404C22.0397 269.456 27.1923 245.947 36.0822 221.14C44.9721 196.333 55.9034 174.96 66.3786 160.459C71.6182 153.206 76.7267 147.696 81.3892 144.33C86.0678 140.953 90.1878 139.811 93.5198 141.043C96.8518 142.274 99.2847 145.839 100.732 151.481C102.173 157.102 102.6 164.659 102.023 173.636C100.87 191.583 95.7172 215.092 86.8273 239.899Z" fill="#CB9D8A" stroke="#A67D6B"/>
<path d="M158.871 382.301C170.901 415.354 178.897 446.316 182.104 469.649C183.708 481.319 184.11 491.054 183.232 498.178C182.793 501.741 182.037 504.623 180.97 506.761C179.905 508.896 178.55 510.252 176.924 510.844C175.298 511.435 173.389 511.268 171.201 510.317C169.01 509.365 166.578 507.643 163.951 505.196C158.699 500.303 152.75 492.587 146.477 482.616C133.935 462.68 120.158 433.823 108.128 400.77C96.0977 367.717 88.1022 336.756 84.8955 313.423C83.2916 301.752 82.8896 292.017 83.7675 284.893C84.2066 281.33 84.9626 278.448 86.0292 276.31C87.0943 274.175 88.449 272.82 90.075 272.228C91.7011 271.636 93.6101 271.804 95.7985 272.754C97.9896 273.706 100.421 275.428 103.048 277.875C108.3 282.769 114.249 290.484 120.522 300.456C133.064 320.391 146.841 349.248 158.871 382.301Z" fill="#CB9D8A" stroke="#A67D6B"/>
<path d="M165.448 221.14C174.338 245.947 179.49 269.456 180.643 287.403C181.22 296.38 180.794 303.936 179.352 309.558C177.905 315.2 175.472 318.765 172.14 319.996C168.808 321.228 164.688 320.085 160.01 316.709C155.347 313.343 150.239 307.833 144.999 300.58C134.524 286.079 123.593 264.706 114.703 239.899C105.813 215.092 100.66 191.583 99.5074 173.636C98.9307 164.659 99.3568 157.103 100.799 151.481C102.246 145.84 104.678 142.275 108.01 141.043C111.342 139.811 115.462 140.954 120.141 144.331C124.804 147.696 129.912 153.206 135.152 160.459C145.627 174.96 156.558 196.333 165.448 221.14Z" fill="#CB9D8A" stroke="#A67D6B"/>
<path d="M146.699 263.343C146.699 332.899 127.224 389.285 103.199 389.285C79.1748 389.285 59.6992 332.899 59.6992 263.343C59.6992 193.788 79.1748 137.402 103.199 137.402C127.224 137.402 146.699 193.788 146.699 263.343Z" fill="#CB9D8A"/>
<path d="M103.49 208.974L206.98 388.996H1.52588e-05L103.49 208.974Z" fill="#F28686"/>
<rect x="64.9993" y="202.116" width="77" height="69.7231" fill="#5FAEC7"/>
<ellipse cx="102" cy="83.2829" rx="54" ry="54.8454" fill="#CB9D8A"/>
<ellipse cx="102" cy="83.2829" rx="54" ry="54.8454" fill="#CB9D8A"/>
<line x1="86" y1="111.5" x2="117" y2="111.5" stroke="black"/>
<rect x="69.0002" y="28.4375" width="70" height="30.4697" fill="black"/>
<ellipse cx="78.5" cy="80.2369" rx="8.5" ry="11.1722" fill="#D9D9D9"/>
<ellipse cx="83.0002" cy="80.237" rx="4" ry="6.09394" fill="black"/>
<ellipse cx="124.5" cy="80.2369" rx="8.5" ry="11.1722" fill="#D9D9D9"/>
<ellipse cx="129" cy="80.237" rx="4" ry="6.09394" fill="black"/>
<line x1="97.0005" y1="98.019" x2="108" y2="98.019" stroke="black"/>
<path d="M126.042 95.8008H142.042V101.895H126.042V95.8008Z" fill="#5FAEC7"/>
<path d="M62.3132 95.8008H78.3132V101.895H62.3132V95.8008Z" fill="#5FAEC7"/>
</g>
<defs>
<clipPath id="clip0_94_4388">
<rect width="207" height="519" fill="white"/>
</clipPath>
</defs>
</svg>
