<svg width="421" height="148" viewBox="0 0 421 148" fill="none" xmlns="http://www.w3.org/2000/svg">
<rect width="421" height="148" fill="#F5E9D7"/>
<path d="M67.8203 46.2292H65.8183L57.7663 34.0192V46.2292H55.7643V30.8732H57.7663L65.8183 43.0612V30.8732H67.8203V46.2292ZM76.4911 46.4272C75.3617 46.4272 74.3351 46.1706 73.4111 45.6572C72.5017 45.1439 71.7831 44.4179 71.2551 43.4792C70.7417 42.5259 70.4851 41.4259 70.4851 40.1792C70.4851 38.9472 70.7491 37.8619 71.2771 36.9232C71.8197 35.9699 72.5531 35.2439 73.4771 34.7452C74.4011 34.2319 75.4351 33.9752 76.5791 33.9752C77.7231 33.9752 78.7571 34.2319 79.6811 34.7452C80.6051 35.2439 81.3311 35.9626 81.8591 36.9012C82.4017 37.8399 82.6731 38.9326 82.6731 40.1792C82.6731 41.4259 82.3944 42.5259 81.8371 43.4792C81.2944 44.4179 80.5537 45.1439 79.6151 45.6572C78.6764 46.1706 77.6351 46.4272 76.4911 46.4272ZM76.4911 44.6672C77.2097 44.6672 77.8844 44.4986 78.5151 44.1612C79.1457 43.8239 79.6517 43.3179 80.0331 42.6432C80.4291 41.9686 80.6271 41.1472 80.6271 40.1792C80.6271 39.2112 80.4364 38.3899 80.0551 37.7152C79.6737 37.0406 79.1751 36.5419 78.5591 36.2192C77.9431 35.8819 77.2757 35.7132 76.5571 35.7132C75.8237 35.7132 75.1491 35.8819 74.5331 36.2192C73.9317 36.5419 73.4477 37.0406 73.0811 37.7152C72.7144 38.3899 72.5311 39.2112 72.5311 40.1792C72.5311 41.1619 72.7071 41.9906 73.0591 42.6652C73.4257 43.3399 73.9097 43.8459 74.5111 44.1832C75.1124 44.5059 75.7724 44.6672 76.4911 44.6672ZM101.365 34.1732L97.6033 46.2292H95.5353L92.6313 36.6592L89.7273 46.2292H87.6593L83.8753 34.1732H85.9213L88.6933 44.2932L91.6853 34.1732H93.7313L96.6573 44.3152L99.3853 34.1732H101.365ZM110.251 32.2152C109.87 32.2152 109.547 32.0832 109.283 31.8192C109.019 31.5552 108.887 31.2326 108.887 30.8512C108.887 30.4699 109.019 30.1472 109.283 29.8832C109.547 29.6192 109.87 29.4872 110.251 29.4872C110.618 29.4872 110.926 29.6192 111.175 29.8832C111.439 30.1472 111.571 30.4699 111.571 30.8512C111.571 31.2326 111.439 31.5552 111.175 31.8192C110.926 32.0832 110.618 32.2152 110.251 32.2152ZM111.219 34.1732V46.2292H109.217V34.1732H111.219ZM117.074 35.8232V42.9292C117.074 43.5159 117.198 43.9339 117.448 44.1832C117.697 44.4179 118.13 44.5352 118.745 44.5352H120.22V46.2292H118.416C117.301 46.2292 116.465 45.9726 115.908 45.4592C115.35 44.9459 115.072 44.1026 115.072 42.9292V35.8232H113.51V34.1732H115.072V31.1372H117.074V34.1732H120.22V35.8232H117.074ZM129.544 32.2152C129.163 32.2152 128.84 32.0832 128.576 31.8192C128.312 31.5552 128.18 31.2326 128.18 30.8512C128.18 30.4699 128.312 30.1472 128.576 29.8832C128.84 29.6192 129.163 29.4872 129.544 29.4872C129.911 29.4872 130.219 29.6192 130.468 29.8832C130.732 30.1472 130.864 30.4699 130.864 30.8512C130.864 31.2326 130.732 31.5552 130.468 31.8192C130.219 32.0832 129.911 32.2152 129.544 32.2152ZM130.512 34.1732V46.2292H128.51V34.1732H130.512ZM138.192 46.4272C137.268 46.4272 136.44 46.2732 135.706 45.9652C134.973 45.6426 134.394 45.2026 133.968 44.6452C133.543 44.0732 133.308 43.4206 133.264 42.6872H135.332C135.391 43.2886 135.67 43.7799 136.168 44.1612C136.682 44.5426 137.349 44.7332 138.17 44.7332C138.933 44.7332 139.534 44.5646 139.974 44.2272C140.414 43.8899 140.634 43.4646 140.634 42.9512C140.634 42.4232 140.4 42.0346 139.93 41.7852C139.461 41.5212 138.735 41.2646 137.752 41.0152C136.858 40.7806 136.124 40.5459 135.552 40.3112C134.995 40.0619 134.511 39.7026 134.1 39.2332C133.704 38.7492 133.506 38.1186 133.506 37.3412C133.506 36.7252 133.69 36.1606 134.056 35.6472C134.423 35.1339 134.944 34.7306 135.618 34.4372C136.293 34.1292 137.063 33.9752 137.928 33.9752C139.263 33.9752 140.341 34.3126 141.162 34.9872C141.984 35.6619 142.424 36.5859 142.482 37.7592H140.48C140.436 37.1286 140.18 36.6226 139.71 36.2412C139.256 35.8599 138.64 35.6692 137.862 35.6692C137.144 35.6692 136.572 35.8232 136.146 36.1312C135.721 36.4392 135.508 36.8426 135.508 37.3412C135.508 37.7372 135.633 38.0672 135.882 38.3312C136.146 38.5806 136.469 38.7859 136.85 38.9472C137.246 39.0939 137.789 39.2626 138.478 39.4532C139.344 39.6879 140.048 39.9226 140.59 40.1572C141.133 40.3772 141.595 40.7146 141.976 41.1692C142.372 41.6239 142.578 42.2179 142.592 42.9512C142.592 43.6112 142.409 44.2052 142.042 44.7332C141.676 45.2612 141.155 45.6792 140.48 45.9872C139.82 46.2806 139.058 46.4272 138.192 46.4272ZM153.726 35.8232V42.9292C153.726 43.5159 153.851 43.9339 154.1 44.1832C154.349 44.4179 154.782 44.5352 155.398 44.5352H156.872V46.2292H155.068C153.953 46.2292 153.117 45.9726 152.56 45.4592C152.003 44.9459 151.724 44.1026 151.724 42.9292V35.8232H150.162V34.1732H151.724V31.1372H153.726V34.1732H156.872V35.8232H153.726ZM160.332 32.2152C159.95 32.2152 159.628 32.0832 159.364 31.8192C159.1 31.5552 158.968 31.2326 158.968 30.8512C158.968 30.4699 159.1 30.1472 159.364 29.8832C159.628 29.6192 159.95 29.4872 160.332 29.4872C160.698 29.4872 161.006 29.6192 161.256 29.8832C161.52 30.1472 161.652 30.4699 161.652 30.8512C161.652 31.2326 161.52 31.5552 161.256 31.8192C161.006 32.0832 160.698 32.2152 160.332 32.2152ZM161.3 34.1732V46.2292H159.298V34.1732H161.3ZM179.21 33.9532C180.148 33.9532 180.984 34.1512 181.718 34.5472C182.451 34.9286 183.03 35.5079 183.456 36.2852C183.881 37.0626 184.094 38.0086 184.094 39.1232V46.2292H182.114V39.4092C182.114 38.2066 181.813 37.2899 181.212 36.6592C180.625 36.0139 179.826 35.6912 178.814 35.6912C177.772 35.6912 176.944 36.0286 176.328 36.7032C175.712 37.3632 175.404 38.3239 175.404 39.5852V46.2292H173.424V39.4092C173.424 38.2066 173.123 37.2899 172.522 36.6592C171.935 36.0139 171.136 35.6912 170.124 35.6912C169.082 35.6912 168.254 36.0286 167.638 36.7032C167.022 37.3632 166.714 38.3239 166.714 39.5852V46.2292H164.712V34.1732H166.714V35.9112C167.11 35.2806 167.638 34.7966 168.298 34.4592C168.972 34.1219 169.713 33.9532 170.52 33.9532C171.532 33.9532 172.426 34.1806 173.204 34.6352C173.981 35.0899 174.56 35.7572 174.942 36.6372C175.279 35.7866 175.836 35.1266 176.614 34.6572C177.391 34.1879 178.256 33.9532 179.21 33.9532ZM198.378 39.7392C198.378 40.1206 198.356 40.5239 198.312 40.9492H188.676C188.749 42.1372 189.152 43.0686 189.886 43.7432C190.634 44.4032 191.536 44.7332 192.592 44.7332C193.457 44.7332 194.176 44.5352 194.748 44.1392C195.334 43.7286 195.745 43.1859 195.98 42.5112H198.136C197.813 43.6699 197.168 44.6159 196.2 45.3492C195.232 46.0679 194.029 46.4272 192.592 46.4272C191.448 46.4272 190.421 46.1706 189.512 45.6572C188.617 45.1439 187.913 44.4179 187.4 43.4792C186.886 42.5259 186.63 41.4259 186.63 40.1792C186.63 38.9326 186.879 37.8399 187.378 36.9012C187.876 35.9626 188.573 35.2439 189.468 34.7452C190.377 34.2319 191.418 33.9752 192.592 33.9752C193.736 33.9752 194.748 34.2246 195.628 34.7232C196.508 35.2219 197.182 35.9112 197.652 36.7912C198.136 37.6566 198.378 38.6392 198.378 39.7392ZM196.31 39.3212C196.31 38.5586 196.141 37.9059 195.804 37.3632C195.466 36.8059 195.004 36.3879 194.418 36.1092C193.846 35.8159 193.208 35.6692 192.504 35.6692C191.492 35.6692 190.626 35.9919 189.908 36.6372C189.204 37.2826 188.8 38.1772 188.698 39.3212H196.31ZM211.791 35.8232H209.261V46.2292H207.259V35.8232H205.697V34.1732H207.259V33.3152C207.259 31.9659 207.604 30.9832 208.293 30.3672C208.997 29.7366 210.119 29.4212 211.659 29.4212V31.0932C210.779 31.0932 210.156 31.2692 209.789 31.6212C209.437 31.9586 209.261 32.5232 209.261 33.3152V34.1732H211.791V35.8232ZM219.384 46.4272C218.254 46.4272 217.228 46.1706 216.304 45.6572C215.394 45.1439 214.676 44.4179 214.148 43.4792C213.634 42.5259 213.378 41.4259 213.378 40.1792C213.378 38.9472 213.642 37.8619 214.17 36.9232C214.712 35.9699 215.446 35.2439 216.37 34.7452C217.294 34.2319 218.328 33.9752 219.472 33.9752C220.616 33.9752 221.65 34.2319 222.574 34.7452C223.498 35.2439 224.224 35.9626 224.752 36.9012C225.294 37.8399 225.566 38.9326 225.566 40.1792C225.566 41.4259 225.287 42.5259 224.73 43.4792C224.187 44.4179 223.446 45.1439 222.508 45.6572C221.569 46.1706 220.528 46.4272 219.384 46.4272ZM219.384 44.6672C220.102 44.6672 220.777 44.4986 221.408 44.1612C222.038 43.8239 222.544 43.3179 222.926 42.6432C223.322 41.9686 223.52 41.1472 223.52 40.1792C223.52 39.2112 223.329 38.3899 222.948 37.7152C222.566 37.0406 222.068 36.5419 221.452 36.2192C220.836 35.8819 220.168 35.7132 219.45 35.7132C218.716 35.7132 218.042 35.8819 217.426 36.2192C216.824 36.5419 216.34 37.0406 215.974 37.7152C215.607 38.3899 215.424 39.2112 215.424 40.1792C215.424 41.1619 215.6 41.9906 215.952 42.6652C216.318 43.3399 216.802 43.8459 217.404 44.1832C218.005 44.5059 218.665 44.6672 219.384 44.6672ZM230.2 36.1312C230.552 35.4419 231.051 34.9066 231.696 34.5252C232.356 34.1439 233.155 33.9532 234.094 33.9532V36.0212H233.566C231.322 36.0212 230.2 37.2386 230.2 39.6732V46.2292H228.198V34.1732H230.2V36.1312ZM252.654 34.1732L245.394 51.9052H243.326L245.702 46.0972L240.84 34.1732H243.062L246.846 43.9412L250.586 34.1732H252.654ZM259.925 46.4272C258.795 46.4272 257.769 46.1706 256.845 45.6572C255.935 45.1439 255.217 44.4179 254.689 43.4792C254.175 42.5259 253.919 41.4259 253.919 40.1792C253.919 38.9472 254.183 37.8619 254.711 36.9232C255.253 35.9699 255.987 35.2439 256.911 34.7452C257.835 34.2319 258.869 33.9752 260.013 33.9752C261.157 33.9752 262.191 34.2319 263.115 34.7452C264.039 35.2439 264.765 35.9626 265.293 36.9012C265.835 37.8399 266.107 38.9326 266.107 40.1792C266.107 41.4259 265.828 42.5259 265.271 43.4792C264.728 44.4179 263.987 45.1439 263.049 45.6572C262.11 46.1706 261.069 46.4272 259.925 46.4272ZM259.925 44.6672C260.643 44.6672 261.318 44.4986 261.949 44.1612C262.579 43.8239 263.085 43.3179 263.467 42.6432C263.863 41.9686 264.061 41.1472 264.061 40.1792C264.061 39.2112 263.87 38.3899 263.489 37.7152C263.107 37.0406 262.609 36.5419 261.993 36.2192C261.377 35.8819 260.709 35.7132 259.991 35.7132C259.257 35.7132 258.583 35.8819 257.967 36.2192C257.365 36.5419 256.881 37.0406 256.515 37.7152C256.148 38.3899 255.965 39.2112 255.965 40.1792C255.965 41.1619 256.141 41.9906 256.493 42.6652C256.859 43.3399 257.343 43.8459 257.945 44.1832C258.546 44.5059 259.206 44.6672 259.925 44.6672ZM279.431 34.1732V46.2292H277.429V44.4472C277.048 45.0632 276.512 45.5472 275.823 45.8992C275.148 46.2366 274.4 46.4052 273.579 46.4052C272.64 46.4052 271.797 46.2146 271.049 45.8332C270.301 45.4372 269.707 44.8506 269.267 44.0732C268.842 43.2959 268.629 42.3499 268.629 41.2352V34.1732H270.609V40.9712C270.609 42.1592 270.91 43.0759 271.511 43.7212C272.112 44.3519 272.934 44.6672 273.975 44.6672C275.046 44.6672 275.889 44.3372 276.505 43.6772C277.121 43.0172 277.429 42.0566 277.429 40.7952V34.1732H279.431ZM291.118 35.8232V42.9292C291.118 43.5159 291.243 43.9339 291.492 44.1832C291.742 44.4179 292.174 44.5352 292.79 44.5352H294.264V46.2292H292.46C291.346 46.2292 290.51 45.9726 289.952 45.4592C289.395 44.9459 289.116 44.1026 289.116 42.9292V35.8232H287.554V34.1732H289.116V31.1372H291.118V34.1732H294.264V35.8232H291.118ZM301.948 46.4272C300.819 46.4272 299.792 46.1706 298.868 45.6572C297.959 45.1439 297.24 44.4179 296.712 43.4792C296.199 42.5259 295.942 41.4259 295.942 40.1792C295.942 38.9472 296.206 37.8619 296.734 36.9232C297.277 35.9699 298.01 35.2439 298.934 34.7452C299.858 34.2319 300.892 33.9752 302.036 33.9752C303.18 33.9752 304.214 34.2319 305.138 34.7452C306.062 35.2439 306.788 35.9626 307.316 36.9012C307.859 37.8399 308.13 38.9326 308.13 40.1792C308.13 41.4259 307.851 42.5259 307.294 43.4792C306.751 44.4179 306.011 45.1439 305.072 45.6572C304.133 46.1706 303.092 46.4272 301.948 46.4272ZM301.948 44.6672C302.667 44.6672 303.341 44.4986 303.972 44.1612C304.603 43.8239 305.109 43.3179 305.49 42.6432C305.886 41.9686 306.084 41.1472 306.084 40.1792C306.084 39.2112 305.893 38.3899 305.512 37.7152C305.131 37.0406 304.632 36.5419 304.016 36.2192C303.4 35.8819 302.733 35.7132 302.014 35.7132C301.281 35.7132 300.606 35.8819 299.99 36.2192C299.389 36.5419 298.905 37.0406 298.538 37.7152C298.171 38.3899 297.988 39.2112 297.988 40.1792C297.988 41.1619 298.164 41.9906 298.516 42.6652C298.883 43.3399 299.367 43.8459 299.968 44.1832C300.569 44.5059 301.229 44.6672 301.948 44.6672ZM322.612 33.9532C323.521 33.9532 324.342 34.1512 325.076 34.5472C325.809 34.9286 326.381 35.5079 326.792 36.2852C327.217 37.0626 327.43 38.0086 327.43 39.1232V46.2292H325.45V39.4092C325.45 38.2066 325.149 37.2899 324.548 36.6592C323.946 36.0139 323.125 35.6912 322.084 35.6912C321.028 35.6912 320.184 36.0212 319.554 36.6812C318.938 37.3412 318.63 38.3019 318.63 39.5632V46.2292H316.628V29.9492H318.63V35.8892C319.026 35.2732 319.568 34.7966 320.258 34.4592C320.962 34.1219 321.746 33.9532 322.612 33.9532ZM341.7 39.7392C341.7 40.1206 341.678 40.5239 341.634 40.9492H331.998C332.071 42.1372 332.475 43.0686 333.208 43.7432C333.956 44.4032 334.858 44.7332 335.914 44.7332C336.779 44.7332 337.498 44.5352 338.07 44.1392C338.657 43.7286 339.067 43.1859 339.302 42.5112H341.458C341.135 43.6699 340.49 44.6159 339.522 45.3492C338.554 46.0679 337.351 46.4272 335.914 46.4272C334.77 46.4272 333.743 46.1706 332.834 45.6572C331.939 45.1439 331.235 44.4179 330.722 43.4792C330.209 42.5259 329.952 41.4259 329.952 40.1792C329.952 38.9326 330.201 37.8399 330.7 36.9012C331.199 35.9626 331.895 35.2439 332.79 34.7452C333.699 34.2319 334.741 33.9752 335.914 33.9752C337.058 33.9752 338.07 34.2246 338.95 34.7232C339.83 35.2219 340.505 35.9112 340.974 36.7912C341.458 37.6566 341.7 38.6392 341.7 39.7392ZM339.632 39.3212C339.632 38.5586 339.463 37.9059 339.126 37.3632C338.789 36.8059 338.327 36.3879 337.74 36.1092C337.168 35.8159 336.53 35.6692 335.826 35.6692C334.814 35.6692 333.949 35.9919 333.23 36.6372C332.526 37.2826 332.123 38.1772 332.02 39.3212H339.632ZM346.344 29.9492V46.2292H344.342V29.9492H346.344ZM351.759 36.3952C352.155 35.7059 352.741 35.1339 353.519 34.6792C354.311 34.2099 355.227 33.9752 356.269 33.9752C357.339 33.9752 358.307 34.2319 359.172 34.7452C360.052 35.2586 360.742 35.9846 361.241 36.9232C361.739 37.8472 361.989 38.9252 361.989 40.1572C361.989 41.3746 361.739 42.4599 361.241 43.4132C360.742 44.3666 360.052 45.1072 359.172 45.6352C358.307 46.1632 357.339 46.4272 356.269 46.4272C355.242 46.4272 354.333 46.1999 353.541 45.7452C352.763 45.2759 352.169 44.6966 351.759 44.0072V51.9492H349.757V34.1732H351.759V36.3952ZM359.943 40.1572C359.943 39.2479 359.759 38.4559 359.393 37.7812C359.026 37.1066 358.527 36.5932 357.897 36.2412C357.281 35.8892 356.599 35.7132 355.851 35.7132C355.117 35.7132 354.435 35.8966 353.805 36.2632C353.189 36.6152 352.69 37.1359 352.309 37.8252C351.942 38.4999 351.759 39.2846 351.759 40.1792C351.759 41.0886 351.942 41.8879 352.309 42.5772C352.69 43.2519 353.189 43.7726 353.805 44.1392C354.435 44.4912 355.117 44.6672 355.851 44.6672C356.599 44.6672 357.281 44.4912 357.897 44.1392C358.527 43.7726 359.026 43.2519 359.393 42.5772C359.759 41.8879 359.943 41.0812 359.943 40.1572ZM34.198 71.5512C34.198 70.0552 34.5353 68.7132 35.21 67.5252C35.8846 66.3226 36.8013 65.3839 37.96 64.7092C39.1333 64.0346 40.4313 63.6972 41.854 63.6972C43.526 63.6972 44.9853 64.1006 46.232 64.9072C47.4786 65.7139 48.388 66.8579 48.96 68.3392H46.562C46.1366 67.4152 45.5206 66.7039 44.714 66.2052C43.922 65.7066 42.9686 65.4572 41.854 65.4572C40.7833 65.4572 39.8226 65.7066 38.972 66.2052C38.1213 66.7039 37.454 67.4152 36.97 68.3392C36.486 69.2486 36.244 70.3192 36.244 71.5512C36.244 72.7686 36.486 73.8392 36.97 74.7632C37.454 75.6726 38.1213 76.3766 38.972 76.8752C39.8226 77.3739 40.7833 77.6232 41.854 77.6232C42.9686 77.6232 43.922 77.3812 44.714 76.8972C45.5206 76.3986 46.1366 75.6872 46.562 74.7632H48.96C48.388 76.2299 47.4786 77.3666 46.232 78.1732C44.9853 78.9652 43.526 79.3612 41.854 79.3612C40.4313 79.3612 39.1333 79.0312 37.96 78.3712C36.8013 77.6966 35.8846 76.7652 35.21 75.5772C34.5353 74.3892 34.198 73.0472 34.198 71.5512ZM53.9421 62.9492V79.2292H51.9401V62.9492H53.9421ZM56.6062 73.1572C56.6062 71.9252 56.8555 70.8472 57.3542 69.9232C57.8528 68.9846 58.5348 68.2586 59.4002 67.7452C60.2802 67.2319 61.2555 66.9752 62.3262 66.9752C63.3822 66.9752 64.2988 67.2026 65.0762 67.6572C65.8535 68.1119 66.4328 68.6839 66.8142 69.3732V67.1732H68.8382V79.2292H66.8142V76.9852C66.4182 77.6892 65.8242 78.2759 65.0322 78.7452C64.2548 79.1999 63.3455 79.4272 62.3042 79.4272C61.2335 79.4272 60.2655 79.1632 59.4002 78.6352C58.5348 78.1072 57.8528 77.3666 57.3542 76.4132C56.8555 75.4599 56.6062 74.3746 56.6062 73.1572ZM66.8142 73.1792C66.8142 72.2699 66.6308 71.4779 66.2642 70.8032C65.8975 70.1286 65.3988 69.6152 64.7682 69.2632C64.1522 68.8966 63.4702 68.7132 62.7222 68.7132C61.9742 68.7132 61.2922 68.8892 60.6762 69.2412C60.0602 69.5932 59.5688 70.1066 59.2022 70.7812C58.8355 71.4559 58.6522 72.2479 58.6522 73.1572C58.6522 74.0812 58.8355 74.8879 59.2022 75.5772C59.5688 76.2519 60.0602 76.7726 60.6762 77.1392C61.2922 77.4912 61.9742 77.6672 62.7222 77.6672C63.4702 77.6672 64.1522 77.4912 64.7682 77.1392C65.3988 76.7726 65.8975 76.2519 66.2642 75.5772C66.6308 74.8879 66.8142 74.0886 66.8142 73.1792ZM74.2233 69.1312C74.5753 68.4419 75.074 67.9066 75.7193 67.5252C76.3793 67.1439 77.1787 66.9532 78.1173 66.9532V69.0212H77.5893C75.3453 69.0212 74.2233 70.2386 74.2233 72.6732V79.2292H72.2213V67.1732H74.2233V69.1312ZM79.6804 73.1572C79.6804 71.9252 79.9297 70.8472 80.4284 69.9232C80.927 68.9846 81.609 68.2586 82.4744 67.7452C83.3544 67.2319 84.3297 66.9752 85.4004 66.9752C86.4564 66.9752 87.373 67.2026 88.1504 67.6572C88.9277 68.1119 89.507 68.6839 89.8884 69.3732V67.1732H91.9124V79.2292H89.8884V76.9852C89.4924 77.6892 88.8984 78.2759 88.1064 78.7452C87.329 79.1999 86.4197 79.4272 85.3784 79.4272C84.3077 79.4272 83.3397 79.1632 82.4744 78.6352C81.609 78.1072 80.927 77.3666 80.4284 76.4132C79.9297 75.4599 79.6804 74.3746 79.6804 73.1572ZM89.8884 73.1792C89.8884 72.2699 89.705 71.4779 89.3384 70.8032C88.9717 70.1286 88.473 69.6152 87.8424 69.2632C87.2264 68.8966 86.5444 68.7132 85.7964 68.7132C85.0484 68.7132 84.3664 68.8892 83.7504 69.2412C83.1344 69.5932 82.643 70.1066 82.2764 70.7812C81.9097 71.4559 81.7264 72.2479 81.7264 73.1572C81.7264 74.0812 81.9097 74.8879 82.2764 75.5772C82.643 76.2519 83.1344 76.7726 83.7504 77.1392C84.3664 77.4912 85.0484 77.6672 85.7964 77.6672C86.5444 77.6672 87.2264 77.4912 87.8424 77.1392C88.473 76.7726 88.9717 76.2519 89.3384 75.5772C89.705 74.8879 89.8884 74.0886 89.8884 73.1792ZM103.603 68.8232V75.9292C103.603 76.5159 103.727 76.9339 103.977 77.1832C104.226 77.4179 104.659 77.5352 105.275 77.5352H106.749V79.2292H104.945C103.83 79.2292 102.994 78.9726 102.437 78.4592C101.879 77.9459 101.601 77.1026 101.601 75.9292V68.8232H100.039V67.1732H101.601V64.1372H103.603V67.1732H106.749V68.8232H103.603ZM114.432 79.4272C113.303 79.4272 112.276 79.1706 111.352 78.6572C110.443 78.1439 109.724 77.4179 109.196 76.4792C108.683 75.5259 108.426 74.4259 108.426 73.1792C108.426 71.9472 108.69 70.8619 109.218 69.9232C109.761 68.9699 110.494 68.2439 111.418 67.7452C112.342 67.2319 113.376 66.9752 114.52 66.9752C115.664 66.9752 116.698 67.2319 117.622 67.7452C118.546 68.2439 119.272 68.9626 119.8 69.9012C120.343 70.8399 120.614 71.9326 120.614 73.1792C120.614 74.4259 120.336 75.5259 119.778 76.4792C119.236 77.4179 118.495 78.1439 117.556 78.6572C116.618 79.1706 115.576 79.4272 114.432 79.4272ZM114.432 77.6672C115.151 77.6672 115.826 77.4986 116.456 77.1612C117.087 76.8239 117.593 76.3179 117.974 75.6432C118.37 74.9686 118.568 74.1472 118.568 73.1792C118.568 72.2112 118.378 71.3899 117.996 70.7152C117.615 70.0406 117.116 69.5419 116.5 69.2192C115.884 68.8819 115.217 68.7132 114.498 68.7132C113.765 68.7132 113.09 68.8819 112.474 69.2192C111.873 69.5419 111.389 70.0406 111.022 70.7152C110.656 71.3899 110.472 72.2112 110.472 73.1792C110.472 74.1619 110.648 74.9906 111 75.6652C111.367 76.3399 111.851 76.8459 112.452 77.1832C113.054 77.5059 113.714 77.6672 114.432 77.6672ZM128.364 73.1792C128.364 71.9326 128.613 70.8472 129.112 69.9232C129.611 68.9846 130.3 68.2586 131.18 67.7452C132.075 67.2319 133.094 66.9752 134.238 66.9752C135.719 66.9752 136.937 67.3346 137.89 68.0532C138.858 68.7719 139.496 69.7692 139.804 71.0452H137.648C137.443 70.3119 137.039 69.7326 136.438 69.3072C135.851 68.8819 135.118 68.6692 134.238 68.6692C133.094 68.6692 132.17 69.0652 131.466 69.8572C130.762 70.6346 130.41 71.7419 130.41 73.1792C130.41 74.6312 130.762 75.7532 131.466 76.5452C132.17 77.3372 133.094 77.7332 134.238 77.7332C135.118 77.7332 135.851 77.5279 136.438 77.1172C137.025 76.7066 137.428 76.1199 137.648 75.3572H139.804C139.481 76.5892 138.836 77.5792 137.868 78.3272C136.9 79.0606 135.69 79.4272 134.238 79.4272C133.094 79.4272 132.075 79.1706 131.18 78.6572C130.3 78.1439 129.611 77.4179 129.112 76.4792C128.613 75.5406 128.364 74.4406 128.364 73.1792ZM144.477 69.1312C144.829 68.4419 145.328 67.9066 145.973 67.5252C146.633 67.1439 147.433 66.9532 148.371 66.9532V69.0212H147.843C145.599 69.0212 144.477 70.2386 144.477 72.6732V79.2292H142.475V67.1732H144.477V69.1312ZM161.682 72.7392C161.682 73.1206 161.66 73.5239 161.616 73.9492H151.98C152.054 75.1372 152.457 76.0686 153.19 76.7432C153.938 77.4032 154.84 77.7332 155.896 77.7332C156.762 77.7332 157.48 77.5352 158.052 77.1392C158.639 76.7286 159.05 76.1859 159.284 75.5112H161.44C161.118 76.6699 160.472 77.6159 159.504 78.3492C158.536 79.0679 157.334 79.4272 155.896 79.4272C154.752 79.4272 153.726 79.1706 152.816 78.6572C151.922 78.1439 151.218 77.4179 150.704 76.4792C150.191 75.5259 149.934 74.4259 149.934 73.1792C149.934 71.9326 150.184 70.8399 150.682 69.9012C151.181 68.9626 151.878 68.2439 152.772 67.7452C153.682 67.2319 154.723 66.9752 155.896 66.9752C157.04 66.9752 158.052 67.2246 158.932 67.7232C159.812 68.2219 160.487 68.9112 160.956 69.7912C161.44 70.6566 161.682 71.6392 161.682 72.7392ZM159.614 72.3212C159.614 71.5586 159.446 70.9059 159.108 70.3632C158.771 69.8059 158.309 69.3879 157.722 69.1092C157.15 68.8159 156.512 68.6692 155.808 68.6692C154.796 68.6692 153.931 68.9919 153.212 69.6372C152.508 70.2826 152.105 71.1772 152.002 72.3212H159.614ZM163.577 73.1572C163.577 71.9252 163.826 70.8472 164.325 69.9232C164.824 68.9846 165.506 68.2586 166.371 67.7452C167.251 67.2319 168.226 66.9752 169.297 66.9752C170.353 66.9752 171.27 67.2026 172.047 67.6572C172.824 68.1119 173.404 68.6839 173.785 69.3732V67.1732H175.809V79.2292H173.785V76.9852C173.389 77.6892 172.795 78.2759 172.003 78.7452C171.226 79.1999 170.316 79.4272 169.275 79.4272C168.204 79.4272 167.236 79.1632 166.371 78.6352C165.506 78.1072 164.824 77.3666 164.325 76.4132C163.826 75.4599 163.577 74.3746 163.577 73.1572ZM173.785 73.1792C173.785 72.2699 173.602 71.4779 173.235 70.8032C172.868 70.1286 172.37 69.6152 171.739 69.2632C171.123 68.8966 170.441 68.7132 169.693 68.7132C168.945 68.7132 168.263 68.8892 167.647 69.2412C167.031 69.5932 166.54 70.1066 166.173 70.7812C165.806 71.4559 165.623 72.2479 165.623 73.1572C165.623 74.0812 165.806 74.8879 166.173 75.5772C166.54 76.2519 167.031 76.7726 167.647 77.1392C168.263 77.4912 168.945 77.6672 169.693 77.6672C170.441 77.6672 171.123 77.4912 171.739 77.1392C172.37 76.7726 172.868 76.2519 173.235 75.5772C173.602 74.8879 173.785 74.0886 173.785 73.1792ZM181.634 68.8232V75.9292C181.634 76.5159 181.759 76.9339 182.008 77.1832C182.257 77.4179 182.69 77.5352 183.306 77.5352H184.78V79.2292H182.976C181.861 79.2292 181.025 78.9726 180.468 78.4592C179.911 77.9459 179.632 77.1026 179.632 75.9292V68.8232H178.07V67.1732H179.632V64.1372H181.634V67.1732H184.78V68.8232H181.634ZM198.206 72.7392C198.206 73.1206 198.184 73.5239 198.14 73.9492H188.504C188.577 75.1372 188.98 76.0686 189.714 76.7432C190.462 77.4032 191.364 77.7332 192.42 77.7332C193.285 77.7332 194.004 77.5352 194.576 77.1392C195.162 76.7286 195.573 76.1859 195.808 75.5112H197.964C197.641 76.6699 196.996 77.6159 196.028 78.3492C195.06 79.0679 193.857 79.4272 192.42 79.4272C191.276 79.4272 190.249 79.1706 189.34 78.6572C188.445 78.1439 187.741 77.4179 187.228 76.4792C186.714 75.5259 186.458 74.4259 186.458 73.1792C186.458 71.9326 186.707 70.8399 187.206 69.9012C187.704 68.9626 188.401 68.2439 189.296 67.7452C190.205 67.2319 191.246 66.9752 192.42 66.9752C193.564 66.9752 194.576 67.2246 195.456 67.7232C196.336 68.2219 197.01 68.9112 197.48 69.7912C197.964 70.6566 198.206 71.6392 198.206 72.7392ZM196.138 72.3212C196.138 71.5586 195.969 70.9059 195.632 70.3632C195.294 69.8059 194.832 69.3879 194.246 69.1092C193.674 68.8159 193.036 68.6692 192.332 68.6692C191.32 68.6692 190.454 68.9919 189.736 69.6372C189.032 70.2826 188.628 71.1772 188.526 72.3212H196.138ZM205.966 73.1572C205.966 71.9252 206.215 70.8472 206.714 69.9232C207.212 68.9846 207.894 68.2586 208.76 67.7452C209.64 67.2319 210.615 66.9752 211.686 66.9752C212.742 66.9752 213.658 67.2026 214.436 67.6572C215.213 68.1119 215.792 68.6839 216.174 69.3732V67.1732H218.198V79.2292H216.174V76.9852C215.778 77.6892 215.184 78.2759 214.392 78.7452C213.614 79.1999 212.705 79.4272 211.664 79.4272C210.593 79.4272 209.625 79.1632 208.76 78.6352C207.894 78.1072 207.212 77.3666 206.714 76.4132C206.215 75.4599 205.966 74.3746 205.966 73.1572ZM216.174 73.1792C216.174 72.2699 215.99 71.4779 215.624 70.8032C215.257 70.1286 214.758 69.6152 214.128 69.2632C213.512 68.8966 212.83 68.7132 212.082 68.7132C211.334 68.7132 210.652 68.8892 210.036 69.2412C209.42 69.5932 208.928 70.1066 208.562 70.7812C208.195 71.4559 208.012 72.2479 208.012 73.1572C208.012 74.0812 208.195 74.8879 208.562 75.5772C208.928 76.2519 209.42 76.7726 210.036 77.1392C210.652 77.4912 211.334 77.6672 212.082 77.6672C212.83 77.6672 213.512 77.4912 214.128 77.1392C214.758 76.7726 215.257 76.2519 215.624 75.5772C215.99 74.8879 216.174 74.0886 216.174 73.1792ZM230.856 69.5712V75.4672C230.856 75.8779 230.951 76.1786 231.142 76.3692C231.347 76.5452 231.685 76.6332 232.154 76.6332H233.584V79.2292H231.648C229.052 79.2292 227.754 77.9679 227.754 75.4452V69.5712H226.302V67.0412H227.754V64.0272H230.856V67.0412H233.584V69.5712H230.856ZM238.879 68.9332C239.275 68.2879 239.789 67.7819 240.419 67.4152C241.065 67.0486 241.798 66.8652 242.619 66.8652V70.0992H241.805C240.837 70.0992 240.104 70.3266 239.605 70.7812C239.121 71.2359 238.879 72.0279 238.879 73.1572V79.2292H235.799V67.0412H238.879V68.9332ZM243.902 73.0912C243.902 71.8592 244.144 70.7666 244.628 69.8132C245.126 68.8599 245.794 68.1266 246.63 67.6132C247.48 67.0999 248.426 66.8432 249.468 66.8432C250.377 66.8432 251.169 67.0266 251.844 67.3932C252.533 67.7599 253.083 68.2219 253.494 68.7792V67.0412H256.596V79.2292H253.494V77.4472C253.098 78.0192 252.548 78.4959 251.844 78.8772C251.154 79.2439 250.355 79.4272 249.446 79.4272C248.419 79.4272 247.48 79.1632 246.63 78.6352C245.794 78.1072 245.126 77.3666 244.628 76.4132C244.144 75.4452 243.902 74.3379 243.902 73.0912ZM253.494 73.1352C253.494 72.3872 253.347 71.7492 253.054 71.2212C252.76 70.6786 252.364 70.2679 251.866 69.9892C251.367 69.6959 250.832 69.5492 250.26 69.5492C249.688 69.5492 249.16 69.6886 248.676 69.9672C248.192 70.2459 247.796 70.6566 247.488 71.1992C247.194 71.7272 247.048 72.3579 247.048 73.0912C247.048 73.8246 247.194 74.4699 247.488 75.0272C247.796 75.5699 248.192 75.9879 248.676 76.2812C249.174 76.5746 249.702 76.7212 250.26 76.7212C250.832 76.7212 251.367 76.5819 251.866 76.3032C252.364 76.0099 252.76 75.5992 253.054 75.0712C253.347 74.5286 253.494 73.8832 253.494 73.1352ZM262.684 68.8012C263.08 68.2439 263.623 67.7819 264.312 67.4152C265.016 67.0339 265.815 66.8432 266.71 66.8432C267.751 66.8432 268.69 67.0999 269.526 67.6132C270.377 68.1266 271.044 68.8599 271.528 69.8132C272.027 70.7519 272.276 71.8446 272.276 73.0912C272.276 74.3379 272.027 75.4452 271.528 76.4132C271.044 77.3666 270.377 78.1072 269.526 78.6352C268.69 79.1632 267.751 79.4272 266.71 79.4272C265.815 79.4272 265.023 79.2439 264.334 78.8772C263.659 78.5106 263.109 78.0486 262.684 77.4912V85.0372H259.604V67.0412H262.684V68.8012ZM269.13 73.0912C269.13 72.3579 268.976 71.7272 268.668 71.1992C268.375 70.6566 267.979 70.2459 267.48 69.9672C266.996 69.6886 266.468 69.5492 265.896 69.5492C265.339 69.5492 264.811 69.6959 264.312 69.9892C263.828 70.2679 263.432 70.6786 263.124 71.2212C262.831 71.7639 262.684 72.4019 262.684 73.1352C262.684 73.8686 262.831 74.5066 263.124 75.0492C263.432 75.5919 263.828 76.0099 264.312 76.3032C264.811 76.5819 265.339 76.7212 265.896 76.7212C266.468 76.7212 266.996 76.5746 267.48 76.2812C267.979 75.9879 268.375 75.5699 268.668 75.0272C268.976 74.4846 269.13 73.8392 269.13 73.0912ZM282.997 68.8232V75.9292C282.997 76.5159 283.122 76.9339 283.371 77.1832C283.621 77.4179 284.053 77.5352 284.669 77.5352H286.143V79.2292H284.339C283.225 79.2292 282.389 78.9726 281.831 78.4592C281.274 77.9459 280.995 77.1026 280.995 75.9292V68.8232H279.433V67.1732H280.995V64.1372H282.997V67.1732H286.143V68.8232H282.997ZM293.827 79.4272C292.698 79.4272 291.671 79.1706 290.747 78.6572C289.838 78.1439 289.119 77.4179 288.591 76.4792C288.078 75.5259 287.821 74.4259 287.821 73.1792C287.821 71.9472 288.085 70.8619 288.613 69.9232C289.156 68.9699 289.889 68.2439 290.813 67.7452C291.737 67.2319 292.771 66.9752 293.915 66.9752C295.059 66.9752 296.093 67.2319 297.017 67.7452C297.941 68.2439 298.667 68.9626 299.195 69.9012C299.738 70.8399 300.009 71.9326 300.009 73.1792C300.009 74.4259 299.73 75.5259 299.173 76.4792C298.63 77.4179 297.89 78.1439 296.951 78.6572C296.012 79.1706 294.971 79.4272 293.827 79.4272ZM293.827 77.6672C294.546 77.6672 295.22 77.4986 295.851 77.1612C296.482 76.8239 296.988 76.3179 297.369 75.6432C297.765 74.9686 297.963 74.1472 297.963 73.1792C297.963 72.2112 297.772 71.3899 297.391 70.7152C297.01 70.0406 296.511 69.5419 295.895 69.2192C295.279 68.8819 294.612 68.7132 293.893 68.7132C293.16 68.7132 292.485 68.8819 291.869 69.2192C291.268 69.5419 290.784 70.0406 290.417 70.7152C290.05 71.3899 289.867 72.2112 289.867 73.1792C289.867 74.1619 290.043 74.9906 290.395 75.6652C290.762 76.3399 291.246 76.8459 291.847 77.1832C292.448 77.5059 293.108 77.6672 293.827 77.6672ZM307.759 73.1572C307.759 71.9252 308.008 70.8472 308.507 69.9232C309.005 68.9846 309.687 68.2586 310.553 67.7452C311.433 67.2319 312.415 66.9752 313.501 66.9752C314.439 66.9752 315.312 67.1952 316.119 67.6352C316.925 68.0606 317.541 68.6252 317.967 69.3292V62.9492H319.991V79.2292H317.967V76.9632C317.571 77.6819 316.984 78.2759 316.207 78.7452C315.429 79.1999 314.52 79.4272 313.479 79.4272C312.408 79.4272 311.433 79.1632 310.553 78.6352C309.687 78.1072 309.005 77.3666 308.507 76.4132C308.008 75.4599 307.759 74.3746 307.759 73.1572ZM317.967 73.1792C317.967 72.2699 317.783 71.4779 317.417 70.8032C317.05 70.1286 316.551 69.6152 315.921 69.2632C315.305 68.8966 314.623 68.7132 313.875 68.7132C313.127 68.7132 312.445 68.8892 311.829 69.2412C311.213 69.5932 310.721 70.1066 310.355 70.7812C309.988 71.4559 309.805 72.2479 309.805 73.1572C309.805 74.0812 309.988 74.8879 310.355 75.5772C310.721 76.2519 311.213 76.7726 311.829 77.1392C312.445 77.4912 313.127 77.6672 313.875 77.6672C314.623 77.6672 315.305 77.4912 315.921 77.1392C316.551 76.7726 317.05 76.2519 317.417 75.5772C317.783 74.8879 317.967 74.0886 317.967 73.1792ZM324.408 65.2152C324.026 65.2152 323.704 65.0832 323.44 64.8192C323.176 64.5552 323.044 64.2326 323.044 63.8512C323.044 63.4699 323.176 63.1472 323.44 62.8832C323.704 62.6192 324.026 62.4872 324.408 62.4872C324.774 62.4872 325.082 62.6192 325.332 62.8832C325.596 63.1472 325.728 63.4699 325.728 63.8512C325.728 64.2326 325.596 64.5552 325.332 64.8192C325.082 65.0832 324.774 65.2152 324.408 65.2152ZM325.376 67.1732V79.2292H323.374V67.1732H325.376ZM333.056 79.4272C332.132 79.4272 331.303 79.2732 330.57 78.9652C329.836 78.6426 329.257 78.2026 328.832 77.6452C328.406 77.0732 328.172 76.4206 328.128 75.6872H330.196C330.254 76.2886 330.533 76.7799 331.032 77.1612C331.545 77.5426 332.212 77.7332 333.034 77.7332C333.796 77.7332 334.398 77.5646 334.838 77.2272C335.278 76.8899 335.498 76.4646 335.498 75.9512C335.498 75.4232 335.263 75.0346 334.794 74.7852C334.324 74.5212 333.598 74.2646 332.616 74.0152C331.721 73.7806 330.988 73.5459 330.416 73.3112C329.858 73.0619 329.374 72.7026 328.964 72.2332C328.568 71.7492 328.37 71.1186 328.37 70.3412C328.37 69.7252 328.553 69.1606 328.92 68.6472C329.286 68.1339 329.807 67.7306 330.482 67.4372C331.156 67.1292 331.926 66.9752 332.792 66.9752C334.126 66.9752 335.204 67.3126 336.026 67.9872C336.847 68.6619 337.287 69.5859 337.346 70.7592H335.344C335.3 70.1286 335.043 69.6226 334.574 69.2412C334.119 68.8599 333.503 68.6692 332.726 68.6692C332.007 68.6692 331.435 68.8232 331.01 69.1312C330.584 69.4392 330.372 69.8426 330.372 70.3412C330.372 70.7372 330.496 71.0672 330.746 71.3312C331.01 71.5806 331.332 71.7859 331.714 71.9472C332.11 72.0939 332.652 72.2626 333.342 72.4532C334.207 72.6879 334.911 72.9226 335.454 73.1572C335.996 73.3772 336.458 73.7146 336.84 74.1692C337.236 74.6239 337.441 75.2179 337.456 75.9512C337.456 76.6112 337.272 77.2052 336.906 77.7332C336.539 78.2612 336.018 78.6792 335.344 78.9872C334.684 79.2806 333.921 79.4272 333.056 79.4272ZM342.724 68.8232V75.9292C342.724 76.5159 342.849 76.9339 343.098 77.1832C343.347 77.4179 343.78 77.5352 344.396 77.5352H345.87V79.2292H344.066C342.951 79.2292 342.115 78.9726 341.558 78.4592C341.001 77.9459 340.722 77.1026 340.722 75.9292V68.8232H339.16V67.1732H340.722V64.1372H342.724V67.1732H345.87V68.8232H342.724ZM358.988 67.1732V79.2292H356.986V77.4472C356.604 78.0632 356.069 78.5472 355.38 78.8992C354.705 79.2366 353.957 79.4052 353.136 79.4052C352.197 79.4052 351.354 79.2146 350.606 78.8332C349.858 78.4372 349.264 77.8506 348.824 77.0732C348.398 76.2959 348.186 75.3499 348.186 74.2352V67.1732H350.166V73.9712C350.166 75.1592 350.466 76.0759 351.068 76.7212C351.669 77.3519 352.49 77.6672 353.532 77.6672C354.602 77.6672 355.446 77.3372 356.062 76.6772C356.678 76.0172 356.986 75.0566 356.986 73.7952V67.1732H358.988ZM364.37 69.1312C364.722 68.4419 365.22 67.9066 365.866 67.5252C366.526 67.1439 367.325 66.9532 368.264 66.9532V69.0212H367.736C365.492 69.0212 364.37 70.2386 364.37 72.6732V79.2292H362.368V67.1732H364.37V69.1312ZM372.577 69.4172C372.988 68.6986 373.589 68.1119 374.381 67.6572C375.173 67.2026 376.075 66.9752 377.087 66.9752C378.172 66.9752 379.148 67.2319 380.013 67.7452C380.878 68.2586 381.56 68.9846 382.059 69.9232C382.558 70.8472 382.807 71.9252 382.807 73.1572C382.807 74.3746 382.558 75.4599 382.059 76.4132C381.56 77.3666 380.871 78.1072 379.991 78.6352C379.126 79.1632 378.158 79.4272 377.087 79.4272C376.046 79.4272 375.129 79.1999 374.337 78.7452C373.56 78.2906 372.973 77.7112 372.577 77.0072V79.2292H370.575V62.9492H372.577V69.4172ZM380.761 73.1572C380.761 72.2479 380.578 71.4559 380.211 70.7812C379.844 70.1066 379.346 69.5932 378.715 69.2412C378.099 68.8892 377.417 68.7132 376.669 68.7132C375.936 68.7132 375.254 68.8966 374.623 69.2632C374.007 69.6152 373.508 70.1359 373.127 70.8252C372.76 71.4999 372.577 72.2846 372.577 73.1792C372.577 74.0886 372.76 74.8879 373.127 75.5772C373.508 76.2519 374.007 76.7726 374.623 77.1392C375.254 77.4912 375.936 77.6672 376.669 77.6672C377.417 77.6672 378.099 77.4912 378.715 77.1392C379.346 76.7726 379.844 76.2519 380.211 75.5772C380.578 74.8879 380.761 74.0812 380.761 73.1572ZM50.4397 101.823V108.929C50.4397 109.516 50.5644 109.934 50.8137 110.183C51.063 110.418 51.4957 110.535 52.1117 110.535H53.5857V112.229H51.7817C50.667 112.229 49.831 111.973 49.2737 111.459C48.7164 110.946 48.4377 110.103 48.4377 108.929V101.823H46.8757V100.173H48.4377V97.1372H50.4397V100.173H53.5857V101.823H50.4397ZM61.9954 99.9532C62.9047 99.9532 63.726 100.151 64.4594 100.547C65.1927 100.929 65.7647 101.508 66.1754 102.285C66.6007 103.063 66.8134 104.009 66.8134 105.123V112.229H64.8334V105.409C64.8334 104.207 64.5327 103.29 63.9314 102.659C63.33 102.014 62.5087 101.691 61.4674 101.691C60.4114 101.691 59.568 102.021 58.9374 102.681C58.3214 103.341 58.0134 104.302 58.0134 105.563V112.229H56.0114V95.9492H58.0134V101.889C58.4094 101.273 58.952 100.797 59.6414 100.459C60.3454 100.122 61.13 99.9532 61.9954 99.9532ZM81.0836 105.739C81.0836 106.121 81.0616 106.524 81.0176 106.949H71.3816C71.455 108.137 71.8583 109.069 72.5916 109.743C73.3396 110.403 74.2416 110.733 75.2976 110.733C76.163 110.733 76.8816 110.535 77.4536 110.139C78.0403 109.729 78.451 109.186 78.6856 108.511H80.8416C80.519 109.67 79.8736 110.616 78.9056 111.349C77.9376 112.068 76.735 112.427 75.2976 112.427C74.1536 112.427 73.127 112.171 72.2176 111.657C71.323 111.144 70.619 110.418 70.1056 109.479C69.5923 108.526 69.3356 107.426 69.3356 106.179C69.3356 104.933 69.585 103.84 70.0836 102.901C70.5823 101.963 71.279 101.244 72.1736 100.745C73.083 100.232 74.1243 99.9752 75.2976 99.9752C76.4416 99.9752 77.4536 100.225 78.3336 100.723C79.2136 101.222 79.8883 101.911 80.3576 102.791C80.8416 103.657 81.0836 104.639 81.0836 105.739ZM79.0156 105.321C79.0156 104.559 78.847 103.906 78.5096 103.363C78.1723 102.806 77.7103 102.388 77.1236 102.109C76.5516 101.816 75.9136 101.669 75.2096 101.669C74.1976 101.669 73.3323 101.992 72.6136 102.637C71.9096 103.283 71.5063 104.177 71.4036 105.321H79.0156ZM100.591 105.739C100.591 106.121 100.569 106.524 100.525 106.949H90.8895C90.9628 108.137 91.3661 109.069 92.0995 109.743C92.8475 110.403 93.7495 110.733 94.8055 110.733C95.6708 110.733 96.3895 110.535 96.9615 110.139C97.5481 109.729 97.9588 109.186 98.1935 108.511H100.349C100.027 109.67 99.3815 110.616 98.4135 111.349C97.4455 112.068 96.2428 112.427 94.8055 112.427C93.6615 112.427 92.6348 112.171 91.7255 111.657C90.8308 111.144 90.1268 110.418 89.6135 109.479C89.1001 108.526 88.8435 107.426 88.8435 106.179C88.8435 104.933 89.0928 103.84 89.5915 102.901C90.0901 101.963 90.7868 101.244 91.6815 100.745C92.5908 100.232 93.6321 99.9752 94.8055 99.9752C95.9495 99.9752 96.9615 100.225 97.8415 100.723C98.7215 101.222 99.3961 101.911 99.8655 102.791C100.349 103.657 100.591 104.639 100.591 105.739ZM98.5235 105.321C98.5235 104.559 98.3548 103.906 98.0175 103.363C97.6801 102.806 97.2181 102.388 96.6315 102.109C96.0595 101.816 95.4215 101.669 94.7175 101.669C93.7055 101.669 92.8401 101.992 92.1215 102.637C91.4175 103.283 91.0141 104.177 90.9115 105.321H98.5235ZM109.108 99.9532C110.575 99.9532 111.763 100.401 112.672 101.295C113.581 102.175 114.036 103.451 114.036 105.123V112.229H112.056V105.409C112.056 104.207 111.755 103.29 111.154 102.659C110.553 102.014 109.731 101.691 108.69 101.691C107.634 101.691 106.791 102.021 106.16 102.681C105.544 103.341 105.236 104.302 105.236 105.563V112.229H103.234V100.173H105.236V101.889C105.632 101.273 106.167 100.797 106.842 100.459C107.531 100.122 108.287 99.9532 109.108 99.9532ZM128.306 105.739C128.306 106.121 128.284 106.524 128.24 106.949H118.604C118.678 108.137 119.081 109.069 119.814 109.743C120.562 110.403 121.464 110.733 122.52 110.733C123.386 110.733 124.104 110.535 124.676 110.139C125.263 109.729 125.674 109.186 125.908 108.511H128.064C127.742 109.67 127.096 110.616 126.128 111.349C125.16 112.068 123.958 112.427 122.52 112.427C121.376 112.427 120.35 112.171 119.44 111.657C118.546 111.144 117.842 110.418 117.328 109.479C116.815 108.526 116.558 107.426 116.558 106.179C116.558 104.933 116.808 103.84 117.306 102.901C117.805 101.963 118.502 101.244 119.396 100.745C120.306 100.232 121.347 99.9752 122.52 99.9752C123.664 99.9752 124.676 100.225 125.556 100.723C126.436 101.222 127.111 101.911 127.58 102.791C128.064 103.657 128.306 104.639 128.306 105.739ZM126.238 105.321C126.238 104.559 126.07 103.906 125.732 103.363C125.395 102.806 124.933 102.388 124.346 102.109C123.774 101.816 123.136 101.669 122.432 101.669C121.42 101.669 120.555 101.992 119.836 102.637C119.132 103.283 118.729 104.177 118.626 105.321H126.238ZM145.447 99.9532C146.386 99.9532 147.222 100.151 147.955 100.547C148.688 100.929 149.268 101.508 149.693 102.285C150.118 103.063 150.331 104.009 150.331 105.123V112.229H148.351V105.409C148.351 104.207 148.05 103.29 147.449 102.659C146.862 102.014 146.063 101.691 145.051 101.691C144.01 101.691 143.181 102.029 142.565 102.703C141.949 103.363 141.641 104.324 141.641 105.585V112.229H139.661V105.409C139.661 104.207 139.36 103.29 138.759 102.659C138.172 102.014 137.373 101.691 136.361 101.691C135.32 101.691 134.491 102.029 133.875 102.703C133.259 103.363 132.951 104.324 132.951 105.585V112.229H130.949V100.173H132.951V101.911C133.347 101.281 133.875 100.797 134.535 100.459C135.21 100.122 135.95 99.9532 136.757 99.9532C137.769 99.9532 138.664 100.181 139.441 100.635C140.218 101.09 140.798 101.757 141.179 102.637C141.516 101.787 142.074 101.127 142.851 100.657C143.628 100.188 144.494 99.9532 145.447 99.9532ZM154.649 98.2152C154.268 98.2152 153.945 98.0832 153.681 97.8192C153.417 97.5552 153.285 97.2326 153.285 96.8512C153.285 96.4699 153.417 96.1472 153.681 95.8832C153.945 95.6192 154.268 95.4872 154.649 95.4872C155.016 95.4872 155.324 95.6192 155.573 95.8832C155.837 96.1472 155.969 96.4699 155.969 96.8512C155.969 97.2326 155.837 97.5552 155.573 97.8192C155.324 98.0832 155.016 98.2152 154.649 98.2152ZM155.617 100.173V112.229H153.615V100.173H155.617ZM170.029 105.739C170.029 106.121 170.007 106.524 169.963 106.949H160.327C160.4 108.137 160.804 109.069 161.537 109.743C162.285 110.403 163.187 110.733 164.243 110.733C165.108 110.733 165.827 110.535 166.399 110.139C166.986 109.729 167.396 109.186 167.631 108.511H169.787C169.464 109.67 168.819 110.616 167.851 111.349C166.883 112.068 165.68 112.427 164.243 112.427C163.099 112.427 162.072 112.171 161.163 111.657C160.268 111.144 159.564 110.418 159.051 109.479C158.538 108.526 158.281 107.426 158.281 106.179C158.281 104.933 158.53 103.84 159.029 102.901C159.528 101.963 160.224 101.244 161.119 100.745C162.028 100.232 163.07 99.9752 164.243 99.9752C165.387 99.9752 166.399 100.225 167.279 100.723C168.159 101.222 168.834 101.911 169.303 102.791C169.787 103.657 170.029 104.639 170.029 105.739ZM167.961 105.321C167.961 104.559 167.792 103.906 167.455 103.363C167.118 102.806 166.656 102.388 166.069 102.109C165.497 101.816 164.859 101.669 164.155 101.669C163.143 101.669 162.278 101.992 161.559 102.637C160.855 103.283 160.452 104.177 160.349 105.321H167.961ZM176.94 112.427C176.016 112.427 175.187 112.273 174.454 111.965C173.72 111.643 173.141 111.203 172.716 110.645C172.29 110.073 172.056 109.421 172.012 108.687H174.08C174.138 109.289 174.417 109.78 174.916 110.161C175.429 110.543 176.096 110.733 176.918 110.733C177.68 110.733 178.282 110.565 178.722 110.227C179.162 109.89 179.382 109.465 179.382 108.951C179.382 108.423 179.147 108.035 178.678 107.785C178.208 107.521 177.482 107.265 176.5 107.015C175.605 106.781 174.872 106.546 174.3 106.311C173.742 106.062 173.258 105.703 172.848 105.233C172.452 104.749 172.254 104.119 172.254 103.341C172.254 102.725 172.437 102.161 172.804 101.647C173.17 101.134 173.691 100.731 174.366 100.437C175.04 100.129 175.81 99.9752 176.676 99.9752C178.01 99.9752 179.088 100.313 179.91 100.987C180.731 101.662 181.171 102.586 181.23 103.759H179.228C179.184 103.129 178.927 102.623 178.458 102.241C178.003 101.86 177.387 101.669 176.61 101.669C175.891 101.669 175.319 101.823 174.894 102.131C174.468 102.439 174.256 102.843 174.256 103.341C174.256 103.737 174.38 104.067 174.63 104.331C174.894 104.581 175.216 104.786 175.598 104.947C175.994 105.094 176.536 105.263 177.226 105.453C178.091 105.688 178.795 105.923 179.338 106.157C179.88 106.377 180.342 106.715 180.724 107.169C181.12 107.624 181.325 108.218 181.34 108.951C181.34 109.611 181.156 110.205 180.79 110.733C180.423 111.261 179.902 111.679 179.228 111.987C178.568 112.281 177.805 112.427 176.94 112.427ZM206.091 100.173L202.329 112.229H200.261L197.357 102.659L194.453 112.229H192.385L188.601 100.173H190.647L193.419 110.293L196.411 100.173H198.457L201.383 110.315L204.111 100.173H206.091ZM214.062 99.9532C214.971 99.9532 215.792 100.151 216.526 100.547C217.259 100.929 217.831 101.508 218.242 102.285C218.667 103.063 218.88 104.009 218.88 105.123V112.229H216.9V105.409C216.9 104.207 216.599 103.29 215.998 102.659C215.396 102.014 214.575 101.691 213.534 101.691C212.478 101.691 211.634 102.021 211.004 102.681C210.388 103.341 210.08 104.302 210.08 105.563V112.229H208.078V95.9492H210.08V101.889C210.476 101.273 211.018 100.797 211.708 100.459C212.412 100.122 213.196 99.9532 214.062 99.9532ZM233.15 105.739C233.15 106.121 233.128 106.524 233.084 106.949H223.448C223.521 108.137 223.925 109.069 224.658 109.743C225.406 110.403 226.308 110.733 227.364 110.733C228.229 110.733 228.948 110.535 229.52 110.139C230.107 109.729 230.517 109.186 230.752 108.511H232.908C232.585 109.67 231.94 110.616 230.972 111.349C230.004 112.068 228.801 112.427 227.364 112.427C226.22 112.427 225.193 112.171 224.284 111.657C223.389 111.144 222.685 110.418 222.172 109.479C221.659 108.526 221.402 107.426 221.402 106.179C221.402 104.933 221.651 103.84 222.15 102.901C222.649 101.963 223.345 101.244 224.24 100.745C225.149 100.232 226.191 99.9752 227.364 99.9752C228.508 99.9752 229.52 100.225 230.4 100.723C231.28 101.222 231.955 101.911 232.424 102.791C232.908 103.657 233.15 104.639 233.15 105.739ZM231.082 105.321C231.082 104.559 230.913 103.906 230.576 103.363C230.239 102.806 229.777 102.388 229.19 102.109C228.618 101.816 227.98 101.669 227.276 101.669C226.264 101.669 225.399 101.992 224.68 102.637C223.976 103.283 223.573 104.177 223.47 105.321H231.082ZM241.667 99.9532C243.133 99.9532 244.321 100.401 245.231 101.295C246.14 102.175 246.595 103.451 246.595 105.123V112.229H244.615V105.409C244.615 104.207 244.314 103.29 243.713 102.659C243.111 102.014 242.29 101.691 241.249 101.691C240.193 101.691 239.349 102.021 238.719 102.681C238.103 103.341 237.795 104.302 237.795 105.563V112.229H235.793V100.173H237.795V101.889C238.191 101.273 238.726 100.797 239.401 100.459C240.09 100.122 240.845 99.9532 241.667 99.9532ZM258.172 101.823V108.929C258.172 109.516 258.297 109.934 258.546 110.183C258.795 110.418 259.228 110.535 259.844 110.535H261.318V112.229H259.514C258.399 112.229 257.563 111.973 257.006 111.459C256.449 110.946 256.17 110.103 256.17 108.929V101.823H254.608V100.173H256.17V97.1372H258.172V100.173H261.318V101.823H258.172ZM269.728 99.9532C270.637 99.9532 271.458 100.151 272.192 100.547C272.925 100.929 273.497 101.508 273.908 102.285C274.333 103.063 274.546 104.009 274.546 105.123V112.229H272.566V105.409C272.566 104.207 272.265 103.29 271.664 102.659C271.062 102.014 270.241 101.691 269.2 101.691C268.144 101.691 267.3 102.021 266.67 102.681C266.054 103.341 265.746 104.302 265.746 105.563V112.229H263.744V95.9492H265.746V101.889C266.142 101.273 266.684 100.797 267.374 100.459C268.078 100.122 268.862 99.9532 269.728 99.9532ZM288.816 105.739C288.816 106.121 288.794 106.524 288.75 106.949H279.114C279.187 108.137 279.591 109.069 280.324 109.743C281.072 110.403 281.974 110.733 283.03 110.733C283.895 110.733 284.614 110.535 285.186 110.139C285.773 109.729 286.183 109.186 286.418 108.511H288.574C288.251 109.67 287.606 110.616 286.638 111.349C285.67 112.068 284.467 112.427 283.03 112.427C281.886 112.427 280.859 112.171 279.95 111.657C279.055 111.144 278.351 110.418 277.838 109.479C277.325 108.526 277.068 107.426 277.068 106.179C277.068 104.933 277.317 103.84 277.816 102.901C278.315 101.963 279.011 101.244 279.906 100.745C280.815 100.232 281.857 99.9752 283.03 99.9752C284.174 99.9752 285.186 100.225 286.066 100.723C286.946 101.222 287.621 101.911 288.09 102.791C288.574 103.657 288.816 104.639 288.816 105.739ZM286.748 105.321C286.748 104.559 286.579 103.906 286.242 103.363C285.905 102.806 285.443 102.388 284.856 102.109C284.284 101.816 283.646 101.669 282.942 101.669C281.93 101.669 281.065 101.992 280.346 102.637C279.642 103.283 279.239 104.177 279.136 105.321H286.748ZM301.843 100.173L294.583 117.905H292.515L294.891 112.097L290.029 100.173H292.251L296.035 109.941L299.775 100.173H301.843ZM308.972 106.157C308.972 104.925 309.222 103.847 309.72 102.923C310.219 101.985 310.901 101.259 311.766 100.745C312.646 100.232 313.622 99.9752 314.692 99.9752C315.748 99.9752 316.665 100.203 317.442 100.657C318.22 101.112 318.799 101.684 319.18 102.373V100.173H321.204V112.229H319.18V109.985C318.784 110.689 318.19 111.276 317.398 111.745C316.621 112.2 315.712 112.427 314.67 112.427C313.6 112.427 312.632 112.163 311.766 111.635C310.901 111.107 310.219 110.367 309.72 109.413C309.222 108.46 308.972 107.375 308.972 106.157ZM319.18 106.179C319.18 105.27 318.997 104.478 318.63 103.803C318.264 103.129 317.765 102.615 317.134 102.263C316.518 101.897 315.836 101.713 315.088 101.713C314.34 101.713 313.658 101.889 313.042 102.241C312.426 102.593 311.935 103.107 311.568 103.781C311.202 104.456 311.018 105.248 311.018 106.157C311.018 107.081 311.202 107.888 311.568 108.577C311.935 109.252 312.426 109.773 313.042 110.139C313.658 110.491 314.34 110.667 315.088 110.667C315.836 110.667 316.518 110.491 317.134 110.139C317.765 109.773 318.264 109.252 318.63 108.577C318.997 107.888 319.18 107.089 319.18 106.179ZM326.59 102.131C326.942 101.442 327.44 100.907 328.086 100.525C328.746 100.144 329.545 99.9532 330.484 99.9532V102.021H329.956C327.712 102.021 326.59 103.239 326.59 105.673V112.229H324.588V100.173H326.59V102.131ZM334.797 102.131C335.149 101.442 335.647 100.907 336.293 100.525C336.953 100.144 337.752 99.9532 338.691 99.9532V102.021H338.163C335.919 102.021 334.797 103.239 334.797 105.673V112.229H332.795V100.173H334.797V102.131ZM342.036 98.2152C341.654 98.2152 341.332 98.0832 341.068 97.8192C340.804 97.5552 340.672 97.2326 340.672 96.8512C340.672 96.4699 340.804 96.1472 341.068 95.8832C341.332 95.6192 341.654 95.4872 342.036 95.4872C342.402 95.4872 342.71 95.6192 342.96 95.8832C343.224 96.1472 343.356 96.4699 343.356 96.8512C343.356 97.2326 343.224 97.5552 342.96 97.8192C342.71 98.0832 342.402 98.2152 342.036 98.2152ZM343.004 100.173V112.229H341.002V100.173H343.004ZM350.904 110.381L354.644 100.173H356.778L352.048 112.229H349.716L344.986 100.173H347.142L350.904 110.381ZM369.748 105.739C369.748 106.121 369.726 106.524 369.682 106.949H360.046C360.119 108.137 360.522 109.069 361.256 109.743C362.004 110.403 362.906 110.733 363.962 110.733C364.827 110.733 365.546 110.535 366.118 110.139C366.704 109.729 367.115 109.186 367.35 108.511H369.506C369.183 109.67 368.538 110.616 367.57 111.349C366.602 112.068 365.399 112.427 363.962 112.427C362.818 112.427 361.791 112.171 360.882 111.657C359.987 111.144 359.283 110.418 358.77 109.479C358.256 108.526 358 107.426 358 106.179C358 104.933 358.249 103.84 358.748 102.901C359.246 101.963 359.943 101.244 360.838 100.745C361.747 100.232 362.788 99.9752 363.962 99.9752C365.106 99.9752 366.118 100.225 366.998 100.723C367.878 101.222 368.552 101.911 369.022 102.791C369.506 103.657 369.748 104.639 369.748 105.739ZM367.68 105.321C367.68 104.559 367.511 103.906 367.174 103.363C366.836 102.806 366.374 102.388 365.788 102.109C365.216 101.816 364.578 101.669 363.874 101.669C362.862 101.669 361.996 101.992 361.278 102.637C360.574 103.283 360.17 104.177 360.068 105.321H367.68Z" fill="black"/>
</svg>
