<svg width="207" height="522" viewBox="0 0 207 522" fill="none" xmlns="http://www.w3.org/2000/svg">
<line x1="163.271" y1="311" x2="163.271" y2="373" stroke="#B19C7C"/>
<rect width="168" height="75" transform="matrix(-1 0 0 1 183 76)" fill="#C87426"/>
<ellipse cx="84" cy="72" rx="84" ry="72" transform="matrix(-1 0 0 1 183 0)" fill="#C87426"/>
<circle cx="54" cy="54" r="54" transform="matrix(-1 0 0 1 155 36)" fill="#DDBBAD"/>
<ellipse cx="8.5" cy="11" rx="8.5" ry="11" transform="matrix(-1 0 0 1 88 76)" fill="#D9D9D9"/>
<ellipse cx="4" cy="6" rx="4" ry="6" transform="matrix(-1 0 0 1 79 81)" fill="black"/>
<ellipse cx="8.5" cy="11" rx="8.5" ry="11" transform="matrix(-1 0 0 1 134 76)" fill="#D9D9D9"/>
<ellipse cx="4" cy="6" rx="4" ry="6" transform="matrix(-1 0 0 1 125 81)" fill="black"/>
<line y1="-0.5" x2="31" y2="-0.5" transform="matrix(-1 0 0 1 119 119)" stroke="black"/>
<line y1="-0.5" x2="11" y2="-0.5" transform="matrix(-1 0 0 1 107 105)" stroke="black"/>
<ellipse cx="38.5" cy="12" rx="38.5" ry="12" transform="matrix(-1 0 0 1 139 34)" fill="#C87426"/>
<path d="M89.447 244.201C80.5574 268.625 69.6266 289.668 59.1522 303.944C53.913 311.085 48.8052 316.509 44.1437 319.822C39.4669 323.146 35.3467 324.272 32.0126 323.058C28.6784 321.845 26.2461 318.334 24.7998 312.782C23.3582 307.248 22.9321 299.809 23.5088 290.971C24.6617 273.302 29.814 250.156 38.7036 225.732C47.5932 201.308 58.5239 180.266 68.9983 165.99C74.2376 158.849 79.3453 153.424 84.0068 150.112C88.6836 146.788 92.8038 145.662 96.1379 146.875C99.4721 148.089 101.904 151.6 103.351 157.152C104.792 162.686 105.218 170.125 104.642 178.963C103.489 196.632 98.3366 219.777 89.447 244.201Z" fill="#DDBBAD" stroke="#DDBBAD"/>
<path d="M162.71 388.812C168.724 422.917 171.136 454.312 170.181 477.497C169.703 489.093 168.384 498.608 166.265 505.373C165.206 508.756 163.955 511.425 162.529 513.32C161.105 515.211 159.533 516.3 157.826 516.601C156.12 516.902 154.27 516.417 152.285 515.126C150.298 513.833 148.209 511.753 146.056 508.936C141.752 503.304 137.258 494.814 132.843 484.08C124.015 462.621 115.544 432.294 109.531 398.189C103.517 364.084 101.105 332.688 102.06 309.504C102.538 297.907 103.857 288.393 105.976 281.628C107.035 278.244 108.286 275.575 109.712 273.681C111.135 271.789 112.708 270.7 114.414 270.399C116.121 270.098 117.971 270.584 119.956 271.875C121.943 273.167 124.032 275.247 126.185 278.064C130.489 283.697 134.983 292.186 139.398 302.92C148.225 324.38 156.697 354.707 162.71 388.812Z" fill="#DDBBAD" stroke="#DDBBAD"/>
<path d="M168.067 225.732C176.957 250.156 182.109 273.301 183.262 290.97C183.838 299.808 183.412 307.247 181.971 312.781C180.524 318.333 178.092 321.844 174.758 323.057C171.424 324.271 167.304 323.145 162.627 319.821C157.965 316.509 152.858 311.084 147.618 303.943C137.144 289.667 126.213 268.625 117.324 244.201C108.434 219.777 103.282 196.632 102.129 178.963C101.552 170.125 101.979 162.686 103.42 157.152C104.866 151.6 107.299 148.089 110.633 146.875C113.967 145.662 118.087 146.788 122.764 150.112C127.426 153.424 132.533 158.848 137.772 165.989C148.247 180.266 159.178 201.308 168.067 225.732Z" fill="#DDBBAD" stroke="#DDBBAD"/>
<path d="M149.32 267.285C149.32 335.768 129.844 391.285 105.82 391.285C81.7957 391.285 62.3201 335.768 62.3201 267.285C62.3201 198.801 81.7957 143.285 105.82 143.285C129.844 143.285 149.32 198.801 149.32 267.285Z" fill="#DDBBAD"/>
<path d="M105.007 205.703C99.7947 220.023 92.2025 231.915 84.1639 239.571C76.1002 247.25 67.7172 250.558 60.8569 248.061C53.9966 245.564 49.7009 237.642 48.4601 226.576C47.2232 215.544 49.0513 201.554 54.2634 187.234C59.4755 172.914 67.0677 161.021 75.1063 153.366C83.17 145.686 91.553 142.378 98.4133 144.875C105.274 147.372 109.569 155.295 110.81 166.361C112.047 177.393 110.219 191.383 105.007 205.703Z" fill="#3645CD" stroke="#DDBBAD"/>
<rect x="52.5021" y="190.461" width="46" height="65.7915" transform="rotate(20 52.5021 190.461)" fill="#3645CD"/>
<rect x="112" y="206.672" width="47.4679" height="71.3255" transform="rotate(-20 112 206.672)" fill="#3645CD"/>
<path d="M156.163 189.695C161.375 204.015 163.203 218.005 161.966 229.037C160.725 240.103 156.429 248.025 149.569 250.522C142.709 253.019 134.326 249.712 126.262 242.032C118.223 234.376 110.631 222.484 105.419 208.164C100.207 193.844 98.379 179.854 99.6159 168.822C100.857 157.756 105.152 149.834 112.013 147.337C118.873 144.84 127.256 148.147 135.32 155.827C143.358 163.483 150.951 175.375 156.163 189.695Z" fill="#3645CD" stroke="#3645CD"/>
<path d="M106.492 402.735C94.6476 435.277 81.0389 463.672 68.6193 483.273C62.4072 493.077 56.5073 500.657 51.2902 505.457C48.6811 507.857 46.2631 509.543 44.0812 510.471C41.9025 511.398 39.9964 511.554 38.3679 510.962C36.7393 510.369 35.38 509.024 34.3066 506.913C33.2317 504.8 32.463 501.954 32.0072 498.439C31.0957 491.408 31.4486 481.809 32.9917 470.306C36.0769 447.308 43.9042 416.808 55.7487 384.266C67.5932 351.723 81.2019 323.328 93.6215 303.727C99.8336 293.923 105.734 286.343 110.951 281.543C113.56 279.143 115.978 277.457 118.16 276.529C120.338 275.602 122.244 275.446 123.873 276.038C125.501 276.631 126.861 277.976 127.934 280.087C129.009 282.2 129.778 285.046 130.234 288.562C131.145 295.592 130.792 305.191 129.249 316.694C126.164 339.692 118.337 370.192 106.492 402.735Z" fill="#DDBBAD" stroke="#DDBBAD"/>
<path d="M165 267.461C165 335.945 140.376 391.461 110 391.461C79.6245 391.461 55.0001 335.945 55.0001 267.461C55.0001 198.978 79.6245 143.461 110 143.461C140.376 143.461 165 198.978 165 267.461Z" fill="#3645CD"/>
<rect x="56.0173" y="298.709" width="69.4193" height="190" transform="rotate(10 56.0173 298.709)" fill="#F2DDBE"/>
<mask id="path-23-inside-1_48_17368" fill="white">
<path d="M94.8182 320.873L155.408 310.189L188.401 497.302L127.811 507.986L94.8182 320.873Z"/>
</mask>
<path d="M94.8182 320.873L155.408 310.189L188.401 497.302L127.811 507.986L94.8182 320.873Z" fill="#F2DDBE"/>
<path d="M188.401 497.302L188.575 498.287L189.559 498.114L189.386 497.129L188.401 497.302ZM154.423 310.363L187.416 497.476L189.386 497.129L156.393 310.015L154.423 310.363ZM188.227 496.318L127.638 507.001L127.985 508.971L188.575 498.287L188.227 496.318Z" fill="#B19C7C" mask="url(#path-23-inside-1_48_17368)"/>
<mask id="path-25-inside-2_48_17368" fill="white">
<path d="M55 299H165V364H55V299Z"/>
</mask>
<path d="M55 299H165V364H55V299Z" fill="#F2DDBE"/>
<path d="M164 299V364H166V299H164Z" fill="#B19C7C" mask="url(#path-25-inside-2_48_17368)"/>
<line x1="99.4922" y1="345.912" x2="128.492" y2="507.912" stroke="#B19C7C"/>
<line x1="90.5079" y1="497.911" x2="108.508" y2="397.911" stroke="#B19C7C"/>
<line x1="22.5076" y1="485.913" x2="54.5076" y2="303.913" stroke="#B19C7C"/>
<line x1="54.5" y1="304" x2="54.5" y2="299" stroke="#B19C7C"/>
<line x1="54" y1="298.5" x2="165" y2="298.5" stroke="#B19C7C"/>
<line x1="22.0869" y1="485.508" x2="90.0869" y2="497.508" stroke="#B19C7C"/>
<rect x="45.6981" y="173.862" width="31" height="173.512" transform="rotate(-35.8694 45.6981 173.862)" fill="#F2DDBE" stroke="#B19C7C"/>
</svg>
