<svg width="204" height="81" viewBox="0 0 204 81" fill="none" xmlns="http://www.w3.org/2000/svg">
<rect width="204" height="81" rx="40.5" fill="#987F5A"/>
<path d="M55.192 30.696V33.064H49.112V53H46.2V33.064H40.088V30.696H55.192ZM67.4805 35.144C68.8032 35.144 69.9978 35.432 71.0645 36.008C72.1312 36.5627 72.9632 37.4053 73.5605 38.536C74.1792 39.6667 74.4885 41.0427 74.4885 42.664V53H71.6085V43.08C71.6085 41.3307 71.1712 39.9973 70.2965 39.08C69.4218 38.1413 68.2272 37.672 66.7125 37.672C65.1765 37.672 63.9498 38.152 63.0325 39.112C62.1365 40.072 61.6885 41.4693 61.6885 43.304V53H58.7765V29.32H61.6885V37.96C62.2645 37.064 63.0538 36.3707 64.0565 35.88C65.0805 35.3893 66.2218 35.144 67.4805 35.144ZM95.2453 43.56C95.2453 44.1147 95.2133 44.7013 95.1493 45.32H81.1333C81.2399 47.048 81.8266 48.4027 82.8933 49.384C83.9813 50.344 85.2933 50.824 86.8293 50.824C88.0879 50.824 89.1333 50.536 89.9653 49.96C90.8186 49.3627 91.4159 48.5733 91.7573 47.592H94.8933C94.4239 49.2773 93.4853 50.6533 92.0773 51.72C90.6693 52.7653 88.9199 53.288 86.8293 53.288C85.1653 53.288 83.6719 52.9147 82.3493 52.168C81.0479 51.4213 80.0239 50.3653 79.2773 49C78.5306 47.6133 78.1573 46.0133 78.1573 44.2C78.1573 42.3867 78.5199 40.7973 79.2453 39.432C79.9706 38.0667 80.9839 37.0213 82.2853 36.296C83.6079 35.5493 85.1226 35.176 86.8293 35.176C88.4933 35.176 89.9653 35.5387 91.2453 36.264C92.5253 36.9893 93.5066 37.992 94.1893 39.272C94.8933 40.5307 95.2453 41.96 95.2453 43.56ZM92.2373 42.952C92.2373 41.8427 91.9919 40.8933 91.5013 40.104C91.0106 39.2933 90.3386 38.6853 89.4853 38.28C88.6533 37.8533 87.7253 37.64 86.7013 37.64C85.2293 37.64 83.9706 38.1093 82.9253 39.048C81.9013 39.9867 81.3146 41.288 81.1653 42.952H92.2373ZM110.532 33.064V40.52H118.66V42.92H110.532V50.6H119.62V53H107.62V30.664H119.62V33.064H110.532ZM132.571 35.144C134.704 35.144 136.432 35.7947 137.755 37.096C139.077 38.376 139.739 40.232 139.739 42.664V53H136.859V43.08C136.859 41.3307 136.421 39.9973 135.547 39.08C134.672 38.1413 133.477 37.672 131.963 37.672C130.427 37.672 129.2 38.152 128.283 39.112C127.387 40.072 126.939 41.4693 126.939 43.304V53H124.027V35.464H126.939V37.96C127.515 37.064 128.293 36.3707 129.275 35.88C130.277 35.3893 131.376 35.144 132.571 35.144ZM143.407 44.168C143.407 42.376 143.77 40.808 144.495 39.464C145.221 38.0987 146.213 37.0427 147.471 36.296C148.751 35.5493 150.181 35.176 151.759 35.176C153.125 35.176 154.394 35.496 155.567 36.136C156.741 36.7547 157.637 37.576 158.255 38.6V29.32H161.199V53H158.255V49.704C157.679 50.7493 156.826 51.6133 155.695 52.296C154.565 52.9573 153.242 53.288 151.727 53.288C150.17 53.288 148.751 52.904 147.471 52.136C146.213 51.368 145.221 50.2907 144.495 48.904C143.77 47.5173 143.407 45.9387 143.407 44.168ZM158.255 44.2C158.255 42.8773 157.989 41.7253 157.455 40.744C156.922 39.7627 156.197 39.016 155.279 38.504C154.383 37.9707 153.391 37.704 152.303 37.704C151.215 37.704 150.223 37.96 149.327 38.472C148.431 38.984 147.717 39.7307 147.183 40.712C146.65 41.6933 146.383 42.8453 146.383 44.168C146.383 45.512 146.65 46.6853 147.183 47.688C147.717 48.6693 148.431 49.4267 149.327 49.96C150.223 50.472 151.215 50.728 152.303 50.728C153.391 50.728 154.383 50.472 155.279 49.96C156.197 49.4267 156.922 48.6693 157.455 47.688C157.989 46.6853 158.255 45.5227 158.255 44.2Z" fill="white"/>
</svg>
