<svg width="215" height="534" viewBox="0 0 215 534" fill="none" xmlns="http://www.w3.org/2000/svg">
<g filter="url(#filter0_d_83_3553)">
<path d="M102.65 400.5C102.65 435.131 105.726 466.468 110.693 489.135C113.177 500.472 116.129 509.613 119.39 515.908C121.021 519.055 122.716 521.467 124.449 523.085C126.18 524.701 127.917 525.5 129.65 525.5C131.383 525.5 133.121 524.701 134.851 523.085C136.584 521.467 138.28 519.055 139.91 515.908C143.171 509.613 146.123 500.472 148.607 489.135C153.574 466.468 156.65 435.131 156.65 400.5C156.65 365.869 153.574 334.532 148.607 311.865C146.123 300.528 143.171 291.387 139.91 285.092C138.28 281.945 136.584 279.533 134.851 277.915C133.121 276.299 131.383 275.5 129.65 275.5C127.917 275.5 126.18 276.299 124.449 277.915C122.716 279.533 121.021 281.945 119.39 285.092C116.129 291.387 113.177 300.528 110.693 311.865C105.726 334.532 102.65 365.869 102.65 400.5Z" fill="#DDBBAD" stroke="#DDBBAD"/>
<path d="M121.324 251.201C130.213 275.625 141.144 296.668 151.618 310.944C156.858 318.085 161.965 323.509 166.627 326.822C171.304 330.146 175.424 331.272 178.758 330.058C182.092 328.845 184.524 325.334 185.971 319.782C187.412 314.248 187.838 306.809 187.262 297.971C186.109 280.302 180.957 257.156 172.067 232.732C163.177 208.308 152.247 187.266 141.772 172.99C136.533 165.849 131.425 160.424 126.764 157.112C122.087 153.788 117.967 152.662 114.633 153.875C111.299 155.089 108.866 158.6 107.42 164.152C105.978 169.686 105.552 177.125 106.129 185.963C107.282 203.632 112.434 226.777 121.324 251.201Z" fill="#DDBBAD" stroke="#A67D6B"/>
<path d="M47.6501 400.5C47.6501 435.131 50.7264 466.468 55.6931 489.135C58.1774 500.472 61.1289 509.613 64.3899 515.908C66.0207 519.055 67.7163 521.467 69.4492 523.085C71.1796 524.701 72.9171 525.5 74.6501 525.5C76.3832 525.5 78.1207 524.701 79.8511 523.085C81.584 521.467 83.2796 519.055 84.9104 515.908C88.1714 509.613 91.1229 500.472 93.6072 489.135C98.5739 466.468 101.65 435.131 101.65 400.5C101.65 365.869 98.5739 334.532 93.6072 311.865C91.1229 300.528 88.1714 291.387 84.9104 285.092C83.2796 281.945 81.584 279.533 79.8511 277.915C78.1207 276.299 76.3832 275.5 74.6501 275.5C72.9171 275.5 71.1796 276.299 69.4492 277.915C67.7163 279.533 66.0207 281.945 64.3899 285.092C61.1289 291.387 58.1774 300.528 55.6931 311.865C50.7264 334.532 47.6501 365.869 47.6501 400.5Z" fill="#DDBBAD" stroke="#A67D6B"/>
<path d="M42.7034 232.732C33.8138 257.156 28.6616 280.301 27.5087 297.97C26.9321 306.808 27.3582 314.247 28.7998 319.781C30.2461 325.333 32.6784 328.844 36.0125 330.057C39.3467 331.271 43.4669 330.145 48.1437 326.821C52.8052 323.509 57.9129 318.084 63.1521 310.943C73.6265 296.667 84.5572 275.625 93.4468 251.201C102.336 226.777 107.489 203.632 108.641 185.963C109.218 177.125 108.792 169.686 107.35 164.152C105.904 158.6 103.472 155.089 100.138 153.875C96.8034 152.662 92.6832 153.788 88.0065 157.112C83.345 160.424 78.2372 165.848 72.998 172.989C62.5236 187.266 51.5929 208.308 42.7034 232.732Z" fill="#DDBBAD" stroke="#A67D6B"/>
<path d="M61.4504 274.285C61.4504 342.768 80.9261 398.285 104.95 398.285C128.975 398.285 148.45 342.768 148.45 274.285C148.45 205.801 128.975 150.285 104.95 150.285C80.9261 150.285 61.4504 205.801 61.4504 274.285Z" fill="#DDBBAD"/>
<rect width="168" height="42" rx="21" transform="matrix(-1 0 0 1 186.771 83)" fill="black"/>
<rect width="132" height="42" rx="21" transform="matrix(-1 0 0 1 169.771 100)" fill="black"/>
<rect width="176" height="42" rx="21" transform="matrix(-1 0 0 1 192.771 31)" fill="black"/>
<rect width="101" height="42" rx="21" transform="matrix(-1 0 0 1 156.771 6)" fill="black"/>
<rect width="145" height="42" rx="21" transform="matrix(-1 0 0 1 176.771 15)" fill="black"/>
<rect width="47" height="42" rx="21" transform="matrix(-1 0 0 1 127.771 0)" fill="black"/>
<rect width="177" height="42" rx="21" transform="matrix(-1 0 0 1 193.771 55)" fill="black"/>
<ellipse cx="84" cy="72" rx="84" ry="72" transform="matrix(-1 0 0 1 187.15 7)" fill="black"/>
<ellipse cx="38.5" cy="12" rx="38.5" ry="12" transform="matrix(-1 0 0 1 141.771 42)" fill="black"/>
<rect width="168" height="42" rx="21" transform="matrix(-1 0 0 1 186.771 83)" fill="black"/>
<rect width="132" height="42" rx="21" transform="matrix(-1 0 0 1 169.771 100)" fill="black"/>
<rect width="176" height="42" rx="21" transform="matrix(-1 0 0 1 192.771 31)" fill="black"/>
<rect width="101" height="42" rx="21" transform="matrix(-1 0 0 1 156.771 6)" fill="black"/>
<rect width="145" height="42" rx="21" transform="matrix(-1 0 0 1 176.771 15)" fill="black"/>
<rect width="47" height="42" rx="21" transform="matrix(-1 0 0 1 127.771 0)" fill="black"/>
<rect width="177" height="42" rx="21" transform="matrix(-1 0 0 1 193.771 55)" fill="black"/>
<ellipse cx="84" cy="72" rx="84" ry="72" transform="matrix(-1 0 0 1 187.15 7)" fill="black"/>
<circle cx="54" cy="54" r="54" transform="matrix(-1 0 0 1 159.15 43)" fill="#DDBBAD"/>
<line y1="-0.5" x2="11" y2="-0.5" transform="matrix(-1 0 0 1 111.15 112)" stroke="black"/>
<line y1="-0.5" x2="31" y2="-0.5" transform="matrix(-1 0 0 1 119.15 125)" stroke="black"/>
<ellipse cx="8.5" cy="11" rx="8.5" ry="11" transform="matrix(-1 0 0 1 138.15 83)" fill="#F28686" fill-opacity="0.71"/>
<ellipse cx="4" cy="6" rx="4" ry="6" transform="matrix(-1 0 0 1 129.15 88)" fill="black"/>
<ellipse cx="8.5" cy="11" rx="8.5" ry="11" transform="matrix(-1 0 0 1 92.1501 83)" fill="#F28686" fill-opacity="0.71"/>
<ellipse cx="4" cy="6" rx="4" ry="6" transform="matrix(-1 0 0 1 83.1501 88)" fill="black"/>
<ellipse cx="38.5" cy="12" rx="38.5" ry="12" transform="matrix(-1 0 0 1 141.771 42)" fill="black"/>
<path d="M105.764 212.703C110.976 227.023 118.568 238.915 126.607 246.571C134.67 254.25 143.053 257.558 149.914 255.061C156.774 252.564 161.07 244.642 162.31 233.576C163.547 222.544 161.719 208.554 156.507 194.234C151.295 179.914 143.703 168.022 135.664 160.366C127.6 152.686 119.217 149.379 112.357 151.876C105.497 154.373 101.201 162.295 99.9604 173.361C98.7234 184.393 100.552 198.383 105.764 212.703Z" fill="#3645CD" stroke="#3645CD"/>
<rect width="46" height="65.7915" transform="matrix(-0.939693 0.34202 0.34202 0.939693 158.268 197.461)" fill="#3645CD"/>
<rect width="47.4679" height="71.3255" transform="matrix(-0.939693 -0.34202 -0.34202 0.939693 98.7705 213.672)" fill="#3645CD"/>
<path d="M45.7705 274.461C45.7705 342.945 70.3948 398.461 100.771 398.461C131.146 398.461 155.771 342.945 155.771 274.461C155.771 205.978 131.146 150.461 100.771 150.461C70.3948 150.461 45.7705 205.978 45.7705 274.461Z" fill="#3645CD"/>
<path d="M54.608 196.695C49.396 211.015 47.5678 225.005 48.8047 236.037C50.0456 247.103 54.3412 255.025 61.2015 257.522C68.0618 260.019 76.4448 256.712 84.5085 249.032C92.5471 241.376 100.139 229.484 105.351 215.164C110.563 200.844 112.392 186.854 111.155 175.822C109.914 164.756 105.618 156.834 98.758 154.337C91.8977 151.84 83.5146 155.147 75.4509 162.827C67.4123 170.483 59.8201 182.375 54.608 196.695Z" fill="#3645CD" stroke="#3645CD"/>
<rect x="0.5" y="-0.5" width="113.229" height="191" transform="matrix(-1 0 0 1 160.229 297)" fill="#F2DDBE" stroke="#B19C7C"/>
<line y1="-0.5" x2="141" y2="-0.5" transform="matrix(-1.13639e-09 1 1 1.09169e-09 103.115 346)" stroke="#B19C7C"/>
<rect x="42.6981" y="180.862" width="31" height="173.512" transform="rotate(-35.8694 42.6981 180.862)" fill="#F2DDBE" stroke="#B19C7C"/>
<line x1="118.667" y1="77.057" x2="135.667" y2="71.057" stroke="black" stroke-width="2"/>
<line y1="-1" x2="18.0278" y2="-1" transform="matrix(-0.94299 -0.33282 -0.33282 0.94299 91 78)" stroke="black" stroke-width="2"/>
</g>
<defs>
<filter id="filter0_d_83_3553" x="0" y="0" width="215" height="534" filterUnits="userSpaceOnUse" color-interpolation-filters="sRGB">
<feFlood flood-opacity="0" result="BackgroundImageFix"/>
<feColorMatrix in="SourceAlpha" type="matrix" values="0 0 0 0 0 0 0 0 0 0 0 0 0 0 0 0 0 0 127 0" result="hardAlpha"/>
<feOffset dy="4"/>
<feGaussianBlur stdDeviation="2"/>
<feComposite in2="hardAlpha" operator="out"/>
<feColorMatrix type="matrix" values="0 0 0 0 0 0 0 0 0 0 0 0 0 0 0 0 0 0 0.25 0"/>
<feBlend mode="normal" in2="BackgroundImageFix" result="effect1_dropShadow_83_3553"/>
<feBlend mode="normal" in="SourceGraphic" in2="effect1_dropShadow_83_3553" result="shape"/>
</filter>
</defs>
</svg>
