<svg width="207" height="528" viewBox="0 0 207 528" fill="none" xmlns="http://www.w3.org/2000/svg">
<rect width="168" height="42" rx="21" transform="matrix(-1 0 0 1 185 83)" fill="black"/>
<rect width="132" height="42" rx="21" transform="matrix(-1 0 0 1 168 100)" fill="black"/>
<rect width="176" height="42" rx="21" transform="matrix(-1 0 0 1 191 31)" fill="black"/>
<rect width="101" height="42" rx="21" transform="matrix(-1 0 0 1 155 6)" fill="black"/>
<rect width="145" height="42" rx="21" transform="matrix(-1 0 0 1 175 15)" fill="black"/>
<rect width="47" height="42" rx="21" transform="matrix(-1 0 0 1 126 0)" fill="black"/>
<rect width="177" height="42" rx="21" transform="matrix(-1 0 0 1 192 55)" fill="black"/>
<ellipse cx="84" cy="72" rx="84" ry="72" transform="matrix(-1 0 0 1 185.38 7)" fill="black"/>
<ellipse cx="38.5" cy="12" rx="38.5" ry="12" transform="matrix(-1 0 0 1 140 42)" fill="black"/>
<rect width="168" height="42" rx="21" transform="matrix(-1 0 0 1 185 83)" fill="black"/>
<rect width="132" height="42" rx="21" transform="matrix(-1 0 0 1 168 100)" fill="black"/>
<rect width="176" height="42" rx="21" transform="matrix(-1 0 0 1 191 31)" fill="black"/>
<rect width="101" height="42" rx="21" transform="matrix(-1 0 0 1 155 6)" fill="black"/>
<rect width="145" height="42" rx="21" transform="matrix(-1 0 0 1 175 15)" fill="black"/>
<rect width="47" height="42" rx="21" transform="matrix(-1 0 0 1 126 0)" fill="black"/>
<rect width="177" height="42" rx="21" transform="matrix(-1 0 0 1 192 55)" fill="black"/>
<ellipse cx="84" cy="72" rx="84" ry="72" transform="matrix(-1 0 0 1 185.38 7)" fill="black"/>
<circle cx="54" cy="54" r="54" transform="matrix(-1 0 0 1 157.38 43)" fill="#DDBBAD"/>
<line y1="-0.5" x2="11" y2="-0.5" transform="matrix(-1 0 0 1 109.38 112)" stroke="black"/>
<line y1="-0.5" x2="31" y2="-0.5" transform="matrix(-1 0 0 1 117.38 125)" stroke="black"/>
<ellipse cx="8.5" cy="11" rx="8.5" ry="11" transform="matrix(-1 0 0 1 136.38 83)" fill="#D9D9D9"/>
<ellipse cx="4" cy="6" rx="4" ry="6" transform="matrix(-1 0 0 1 127.38 88)" fill="black"/>
<ellipse cx="8.5" cy="11" rx="8.5" ry="11" transform="matrix(-1 0 0 1 90.3796 83)" fill="#D9D9D9"/>
<ellipse cx="4" cy="6" rx="4" ry="6" transform="matrix(-1 0 0 1 81.3796 88)" fill="black"/>
<ellipse cx="38.5" cy="12" rx="38.5" ry="12" transform="matrix(-1 0 0 1 140 42)" fill="black"/>
<path d="M89.447 250.201C80.5574 274.625 69.6266 295.668 59.1522 309.944C53.913 317.085 48.8052 322.509 44.1437 325.822C39.4669 329.146 35.3467 330.272 32.0126 329.058C28.6784 327.845 26.2461 324.334 24.7998 318.782C23.3582 313.248 22.9321 305.809 23.5088 296.971C24.6617 279.302 29.814 256.156 38.7036 231.732C47.5932 207.308 58.5239 186.266 68.9983 171.99C74.2376 164.849 79.3453 159.424 84.0068 156.112C88.6836 152.788 92.8038 151.662 96.1379 152.875C99.4721 154.089 101.904 157.6 103.351 163.152C104.792 168.686 105.218 176.125 104.642 184.963C103.489 202.632 98.3366 225.777 89.447 250.201Z" fill="#DDBBAD" stroke="#DDBBAD"/>
<path d="M162.71 394.812C168.724 428.917 171.136 460.312 170.181 483.497C169.703 495.093 168.384 504.608 166.265 511.373C165.206 514.756 163.955 517.425 162.529 519.32C161.105 521.211 159.533 522.3 157.826 522.601C156.12 522.902 154.27 522.417 152.285 521.126C150.298 519.833 148.209 517.753 146.056 514.936C141.752 509.304 137.258 500.814 132.843 490.08C124.015 468.621 115.544 438.294 109.531 404.189C103.517 370.084 101.105 338.688 102.06 315.504C102.538 303.907 103.857 294.393 105.976 287.628C107.035 284.244 108.286 281.575 109.712 279.681C111.135 277.789 112.708 276.7 114.414 276.399C116.121 276.098 117.971 276.584 119.956 277.875C121.943 279.167 124.032 281.247 126.185 284.064C130.489 289.697 134.983 298.186 139.398 308.92C148.225 330.38 156.697 360.707 162.71 394.812Z" fill="#DDBBAD" stroke="#DDBBAD"/>
<path d="M168.067 231.732C176.957 256.156 182.109 279.301 183.262 296.97C183.838 305.808 183.412 313.247 181.971 318.781C180.524 324.333 178.092 327.844 174.758 329.057C171.424 330.271 167.304 329.145 162.627 325.821C157.965 322.509 152.858 317.084 147.618 309.943C137.144 295.667 126.213 274.625 117.324 250.201C108.434 225.777 103.282 202.632 102.129 184.963C101.552 176.125 101.979 168.686 103.42 163.152C104.866 157.6 107.299 154.089 110.633 152.875C113.967 151.662 118.087 152.788 122.764 156.112C127.426 159.424 132.533 164.848 137.772 171.989C148.247 186.266 159.178 207.308 168.067 231.732Z" fill="#DDBBAD" stroke="#DDBBAD"/>
<path d="M149.32 273.285C149.32 341.768 129.844 397.285 105.82 397.285C81.7957 397.285 62.3201 341.768 62.3201 273.285C62.3201 204.801 81.7957 149.285 105.82 149.285C129.844 149.285 149.32 204.801 149.32 273.285Z" fill="#DDBBAD"/>
<path d="M105.007 211.703C99.7947 226.023 92.2025 237.915 84.1639 245.571C76.1002 253.25 67.7172 256.558 60.8569 254.061C53.9966 251.564 49.7009 243.642 48.4601 232.576C47.2232 221.544 49.0513 207.554 54.2634 193.234C59.4755 178.914 67.0677 167.021 75.1063 159.366C83.17 151.686 91.553 148.378 98.4133 150.875C105.274 153.372 109.569 161.295 110.81 172.361C112.047 183.393 110.219 197.383 105.007 211.703Z" fill="#3645CD" stroke="#DDBBAD"/>
<rect x="55.7208" y="184.939" width="46.9164" height="77.72" transform="rotate(20 55.7208 184.939)" fill="#3645CD"/>
<rect x="112" y="212.672" width="47.4679" height="71.3255" transform="rotate(-20 112 212.672)" fill="#3645CD"/>
<path d="M156.163 195.695C161.375 210.015 163.203 224.005 161.966 235.037C160.725 246.103 156.429 254.025 149.569 256.522C142.709 259.019 134.326 255.712 126.262 248.032C118.223 240.376 110.631 228.484 105.419 214.164C100.207 199.844 98.379 185.854 99.6159 174.822C100.857 163.756 105.152 155.834 112.013 153.337C118.873 150.84 127.256 154.147 135.32 161.827C143.358 169.483 150.951 181.375 156.163 195.695Z" fill="#3645CD" stroke="#3645CD"/>
<path d="M106.492 408.735C94.6476 441.277 81.0389 469.672 68.6193 489.273C62.4072 499.077 56.5073 506.657 51.2902 511.457C48.6811 513.857 46.2631 515.543 44.0812 516.471C41.9025 517.398 39.9964 517.554 38.3679 516.962C36.7393 516.369 35.38 515.024 34.3066 512.913C33.2317 510.8 32.463 507.954 32.0072 504.439C31.0957 497.408 31.4486 487.809 32.9917 476.306C36.0769 453.308 43.9042 422.808 55.7487 390.266C67.5932 357.723 81.2019 329.328 93.6215 309.727C99.8336 299.923 105.734 292.343 110.951 287.543C113.56 285.143 115.978 283.457 118.16 282.529C120.338 281.602 122.244 281.446 123.873 282.038C125.501 282.631 126.861 283.976 127.934 286.087C129.009 288.2 129.778 291.046 130.234 294.562C131.145 301.592 130.792 311.191 129.249 322.694C126.164 345.692 118.337 376.192 106.492 408.735Z" fill="#DDBBAD" stroke="#DDBBAD"/>
<path d="M165 273.461C165 341.945 140.376 397.461 110 397.461C79.6245 397.461 55.0001 341.945 55.0001 273.461C55.0001 204.978 79.6245 149.461 110 149.461C140.376 149.461 165 204.978 165 273.461Z" fill="#3645CD"/>
<rect x="56.0173" y="304.709" width="69.4193" height="190" transform="rotate(10 56.0173 304.709)" fill="#F2DDBE"/>
<rect x="94.8182" y="326.873" width="62.6116" height="190" transform="rotate(-10 94.8182 326.873)" fill="#F2DDBE"/>
<rect x="55" y="305" width="110" height="65" fill="#F2DDBE"/>
<line x1="99.4922" y1="351.912" x2="128.492" y2="513.912" stroke="#B19C7C"/>
<line x1="90.5079" y1="503.911" x2="108.508" y2="403.911" stroke="#B19C7C"/>
<line x1="22.5076" y1="491.913" x2="54.5076" y2="309.913" stroke="#B19C7C"/>
<line x1="54.5" y1="310" x2="54.5" y2="305" stroke="#B19C7C"/>
<line x1="54" y1="304.5" x2="165" y2="304.5" stroke="#B19C7C"/>
<line x1="165.5" y1="303" x2="165.5" y2="365" stroke="#B19C7C"/>
<line x1="165.493" y1="364.915" x2="189.493" y2="503.915" stroke="#B19C7C"/>
<line x1="127.919" y1="513.507" x2="188.919" y2="503.507" stroke="#B19C7C"/>
<line x1="22.0869" y1="491.508" x2="90.0869" y2="503.508" stroke="#B19C7C"/>
<rect x="49.0904" y="174.806" width="31" height="173.512" transform="rotate(-35.8694 49.0904 174.806)" fill="#F2DDBE" stroke="#B19C7C"/>
</svg>
