<svg width="207" height="536" viewBox="0 0 207 536" fill="none" xmlns="http://www.w3.org/2000/svg">
<rect x="21.7705" y="87" width="168" height="42" rx="21" fill="black"/>
<rect x="38.7705" y="104" width="132" height="42" rx="21" fill="black"/>
<rect x="15.7705" y="35" width="176" height="42" rx="21" fill="black"/>
<rect x="51.7705" y="10" width="101" height="42" rx="21" fill="black"/>
<rect x="31.7705" y="19" width="145" height="42" rx="21" fill="black"/>
<rect x="80.7705" y="4" width="47" height="42" rx="21" fill="black"/>
<rect x="14.7705" y="59" width="177" height="42" rx="21" fill="black"/>
<ellipse cx="105.391" cy="83" rx="84" ry="72" fill="black"/>
<ellipse cx="105.271" cy="58" rx="38.5" ry="12" fill="black"/>
<rect x="21.7705" y="87" width="168" height="42" rx="21" fill="black"/>
<rect x="38.7705" y="104" width="132" height="42" rx="21" fill="black"/>
<rect x="15.7705" y="35" width="176" height="42" rx="21" fill="black"/>
<rect x="51.7705" y="10" width="101" height="42" rx="21" fill="black"/>
<rect x="31.7705" y="19" width="145" height="42" rx="21" fill="black"/>
<rect x="80.7705" y="4" width="47" height="42" rx="21" fill="black"/>
<rect x="14.7705" y="59" width="177" height="42" rx="21" fill="black"/>
<ellipse cx="105.391" cy="83" rx="84" ry="72" fill="black"/>
<circle cx="103.391" cy="101" r="54" fill="#DDBBAD"/>
<line x1="97.3909" y1="115.5" x2="108.391" y2="115.5" stroke="black"/>
<line x1="89.3909" y1="128.5" x2="120.391" y2="128.5" stroke="black"/>
<ellipse cx="78.8909" cy="98" rx="8.5" ry="11" fill="#D9D9D9"/>
<ellipse cx="83.3909" cy="98" rx="4" ry="6" fill="black"/>
<ellipse cx="124.891" cy="98" rx="8.5" ry="11" fill="#D9D9D9"/>
<ellipse cx="129.391" cy="98" rx="4" ry="6" fill="black"/>
<ellipse cx="105.271" cy="58" rx="38.5" ry="12" fill="black"/>
<path d="M117.324 254.201C126.213 278.625 137.144 299.668 147.618 313.944C152.858 321.085 157.965 326.509 162.627 329.822C167.304 333.146 171.424 334.272 174.758 333.058C178.092 331.845 180.524 328.334 181.971 322.782C183.412 317.248 183.838 309.809 183.262 300.971C182.109 283.302 176.957 260.156 168.067 235.732C159.177 211.308 148.247 190.266 137.772 175.99C132.533 168.849 127.425 163.424 122.764 160.112C118.087 156.788 113.967 155.662 110.633 156.875C107.298 158.089 104.866 161.6 103.42 167.152C101.978 172.686 101.552 180.125 102.129 188.963C103.282 206.632 108.434 229.777 117.324 254.201Z" fill="#DDBBAD" stroke="#DDBBAD"/>
<path d="M44.0603 398.812C38.0467 432.917 35.6345 464.312 36.5898 487.497C37.0676 499.093 38.387 508.608 40.5054 515.373C41.5648 518.756 42.8159 521.425 44.2415 523.32C45.665 525.211 47.2373 526.3 48.9441 526.601C50.6508 526.902 52.5007 526.417 54.4854 525.126C56.473 523.833 58.5615 521.753 60.7142 518.936C65.0186 513.304 69.5126 504.814 73.9278 494.08C82.7551 472.621 91.2263 442.294 97.2399 408.189C103.254 374.084 105.666 342.688 104.71 319.504C104.233 307.907 102.913 298.393 100.795 291.628C99.7354 288.244 98.4842 285.575 97.0587 283.681C95.6351 281.789 94.0628 280.7 92.3561 280.399C90.6494 280.098 88.7995 280.584 86.8148 281.875C84.8272 283.167 82.7386 285.247 80.586 288.064C76.2816 293.697 71.7876 302.186 67.3723 312.92C58.545 334.38 50.0739 364.707 44.0603 398.812Z" fill="#DDBBAD" stroke="#A67D6B"/>
<path d="M38.7034 235.732C29.8138 260.156 24.6616 283.301 23.5087 300.97C22.9321 309.808 23.3582 317.247 24.7998 322.781C26.2461 328.333 28.6784 331.844 32.0125 333.057C35.3467 334.271 39.4669 333.145 44.1437 329.821C48.8052 326.509 53.9129 321.084 59.1521 313.943C69.6265 299.667 80.5572 278.625 89.4468 254.201C98.3363 229.777 103.489 206.632 104.641 188.963C105.218 180.125 104.792 172.686 103.35 167.152C101.904 161.6 99.4717 158.089 96.1376 156.875C92.8034 155.662 88.6832 156.788 84.0065 160.112C79.345 163.424 74.2372 168.848 68.998 175.989C58.5236 190.266 47.5929 211.308 38.7034 235.732Z" fill="#DDBBAD" stroke="#DDBBAD"/>
<path d="M57.4504 277.285C57.4504 345.768 76.9261 401.285 100.95 401.285C124.975 401.285 144.45 345.768 144.45 277.285C144.45 208.801 124.975 153.285 100.95 153.285C76.9261 153.285 57.4504 208.801 57.4504 277.285Z" fill="#DDBBAD"/>
<path d="M101.764 215.703C106.976 230.023 114.571 241.914 122.613 249.568C130.681 257.246 139.07 260.552 145.937 258.052C152.804 255.553 157.105 247.628 158.351 236.561C159.592 225.528 157.766 211.537 152.554 197.217C147.342 182.897 139.747 171.005 131.704 163.351C123.637 155.673 115.248 152.367 108.381 154.867C101.514 157.366 97.2123 165.291 95.9673 176.358C94.7261 187.392 96.5516 201.383 101.764 215.703Z" fill="#3645CD" stroke="#DDBBAD"/>
<rect width="45.7225" height="65.7915" transform="matrix(-0.939693 0.34202 0.34202 0.939693 154.008 200.556)" fill="#3645CD"/>
<rect width="47.4679" height="71.3255" transform="matrix(-0.939693 -0.34202 -0.34202 0.939693 94.7704 216.672)" fill="#3645CD"/>
<path d="M50.6079 199.695C45.3958 214.015 43.5676 228.005 44.8046 239.037C46.0454 250.103 50.3411 258.025 57.2014 260.522C64.0617 263.019 72.4447 259.712 80.5084 252.032C88.547 244.376 96.1392 232.484 101.351 218.164C106.563 203.844 108.392 189.854 107.155 178.822C105.914 167.756 101.618 159.834 94.7578 157.337C87.8975 154.84 79.5145 158.147 71.4508 165.827C63.4122 173.483 55.82 185.375 50.6079 199.695Z" fill="#3645CD" stroke="#3645CD"/>
<path d="M100.278 412.735C112.123 445.277 125.732 473.672 138.151 493.273C144.363 503.077 150.263 510.657 155.48 515.457C158.089 517.857 160.507 519.543 162.689 520.471C164.868 521.398 166.774 521.554 168.403 520.962C170.031 520.369 171.391 519.024 172.464 516.913C173.539 514.8 174.308 511.954 174.763 508.439C175.675 501.408 175.322 491.809 173.779 480.306C170.694 457.308 162.866 426.808 151.022 394.266C139.177 361.723 125.569 333.328 113.149 313.727C106.937 303.923 101.037 296.343 95.8199 291.543C93.2108 289.143 90.7928 287.457 88.6109 286.529C86.4322 285.602 84.5261 285.446 82.8976 286.038C81.269 286.631 79.9097 287.976 78.8363 290.087C77.7614 292.2 76.9927 295.046 76.5369 298.562C75.6254 305.592 75.9783 315.191 77.5214 326.694C80.6066 349.692 88.4339 380.192 100.278 412.735Z" fill="#DDBBAD" stroke="#A67D6B"/>
<path d="M47 277C47 345.483 72.7436 401 104.5 401C136.256 401 162 345.483 162 277C162 208.517 136.256 153 104.5 153C72.7436 153 47 208.517 47 277Z" fill="#3645CD"/>
<mask id="path-36-inside-1_46_16160" fill="white">
<path d="M155.57 307.86L82.3884 320.764L115.382 507.877L188.563 494.974L155.57 307.86Z"/>
</mask>
<path d="M155.57 307.86L82.3884 320.764L115.382 507.877L188.563 494.974L155.57 307.86Z" fill="#F2DDBE"/>
<path d="M187.578 495.147L154.585 308.034L156.554 307.686L189.548 494.8L187.578 495.147Z" fill="#B19C7C" mask="url(#path-36-inside-1_46_16160)"/>
<rect width="62.6116" height="190" transform="matrix(-0.984808 -0.173648 -0.173648 0.984808 111.952 330.873)" fill="#F2DDBE"/>
<path d="M159 309H42V374H159V309Z" fill="#F2DDBE"/>
<line y1="-0.5" x2="164.575" y2="-0.5" transform="matrix(-0.176211 0.984352 0.984352 0.176211 107.771 356)" stroke="#B19C7C"/>
<line y1="-0.5" x2="101.607" y2="-0.5" transform="matrix(-0.177153 -0.984183 -0.984183 0.177153 115.771 508)" stroke="#B19C7C"/>
<line y1="-0.5" x2="5" y2="-0.5" transform="matrix(0 -1 -1 0 151.771 314)" stroke="#B19C7C"/>
<line y1="-0.5" x2="111" y2="-0.5" transform="matrix(-1 0 0 1 152.771 309)" stroke="#B19C7C"/>
<line y1="-0.5" x2="62" y2="-0.5" transform="matrix(-2.06962e-10 1 1 2.06962e-10 41.7705 307)" stroke="#B19C7C"/>
<line y1="-0.5" x2="141.057" y2="-0.5" transform="matrix(-0.170144 0.985419 0.985419 0.170144 41.7705 369)" stroke="#B19C7C"/>
<line y1="-0.5" x2="61.8142" y2="-0.5" transform="matrix(-0.986828 -0.161775 -0.161775 0.986828 78.7705 518)" stroke="#B19C7C"/>
<line y1="-0.5" x2="69.0507" y2="-0.5" transform="matrix(-0.984784 0.173785 0.173785 0.984784 184.771 496)" stroke="#B19C7C"/>
<rect x="45.6981" y="184.862" width="31" height="173.512" transform="rotate(-35.8694 45.6981 184.862)" fill="#F2DDBE" stroke="#B19C7C"/>
</svg>
