<svg width="59" height="34" viewBox="0 0 59 34" fill="none" xmlns="http://www.w3.org/2000/svg">
<ellipse cx="39.7271" cy="18.2184" rx="3" ry="8" transform="rotate(89.1312 39.7271 18.2184)" fill="#7C9768"/>
<ellipse cx="14.2773" cy="17.6043" rx="15" ry="13.5625" transform="rotate(89.1312 14.2773 17.6043)" fill="#D0A46F"/>
<ellipse cx="33.0878" cy="17.319" rx="10" ry="9.625" transform="rotate(89.1312 33.0878 17.319)" fill="#D0A46F"/>
<rect x="32.9968" y="11.3197" width="16" height="14" transform="rotate(89.1312 32.9968 11.3197)" fill="#D0A46F"/>
<path d="M36.4509 8.26699L14.889 14.6568L14.7052 2.53389L36.4509 8.26699Z" fill="#D0A46F"/>
<path d="M36.7315 26.7648L14.9924 21.4647L15.1631 32.7217L36.7315 26.7648Z" fill="#D0A46F"/>
<ellipse cx="50.6956" cy="16.0519" rx="5" ry="8" transform="rotate(89.1312 50.6956 16.0519)" fill="#7C9768"/>
<path d="M55.7155 17.3273C55.6545 17.9462 55.0477 18.5163 54.6703 18.9429C54.0192 19.679 53.4001 19.5025 52.6424 19.8861C52.3098 20.0545 50.6226 20.1312 50.319 19.8621C49.9316 19.5186 49.2837 18.8304 48.8427 18.6995C47.0762 18.1753 46.3744 20.2466 44.7918 20.9057C44.2369 21.1368 43.3165 21.3438 42.7818 20.8888C42.3652 20.5344 41.7627 19.3432 41.734 18.7717C41.6266 16.6362 42.163 14.797 43.9905 13.6658C44.6123 13.281 45.0335 12.8079 45.7459 12.5727C46.8702 12.2016 47.9523 12.1127 49.1207 12.095C50.6484 12.0718 52.4287 11.7528 53.3221 13.4058C53.5452 13.8186 54.2816 14.2956 54.3156 14.789C54.369 15.5642 54.3394 16.3574 54.3512 17.1347" stroke="#7C9768" stroke-width="3" stroke-linecap="round"/>
</svg>
